<svg width="736" height="152" viewBox="0 0 736 152" fill="none" xmlns="http://www.w3.org/2000/svg">
<rect x="1" y="42" width="344" height="109" rx="9" fill="#EFF1F3" stroke="#DADFE2" stroke-width="2"/>
<rect x="391" y="42" width="344" height="109" rx="9" fill="#EFF1F3" stroke="#DADFE2" stroke-width="2"/>
<rect width="87" height="29" rx="10" fill="#EFF1F3"/>
<path d="M11.3828 21H13.5859V20.8672C13.4766 20.6536 13.3932 20.3984 13.3359 20.1016C13.2786 19.8047 13.25 19.4297 13.25 18.9766V15.3516C13.25 14.862 13.1589 14.4323 12.9766 14.0625C12.7943 13.6875 12.5417 13.3776 12.2188 13.1328C11.8958 12.888 11.513 12.7031 11.0703 12.5781C10.6328 12.4531 10.1589 12.3906 9.64844 12.3906C9.08073 12.3906 8.57552 12.4635 8.13281 12.6094C7.69531 12.75 7.32552 12.9427 7.02344 13.1875C6.71615 13.4323 6.48177 13.7161 6.32031 14.0391C6.16406 14.362 6.08594 14.7031 6.08594 15.0625H8.25781C8.25781 14.9115 8.27865 14.7734 8.32031 14.6484C8.36719 14.5234 8.4375 14.4167 8.53125 14.3281C8.63542 14.2292 8.77083 14.1536 8.9375 14.1016C9.10417 14.0443 9.30208 14.0156 9.53125 14.0156C9.79167 14.0156 10.0182 14.0495 10.2109 14.1172C10.4089 14.1797 10.5729 14.2708 10.7031 14.3906C10.8281 14.5052 10.9219 14.6432 10.9844 14.8047C11.0469 14.9609 11.0781 15.138 11.0781 15.3359V15.8359H9.86719C9.24219 15.8359 8.6875 15.8932 8.20312 16.0078C7.72396 16.1172 7.32031 16.2786 6.99219 16.4922C6.6276 16.7266 6.35417 17.026 6.17187 17.3906C5.98958 17.75 5.89844 18.1641 5.89844 18.6328C5.89844 18.9974 5.97135 19.3359 6.11719 19.6484C6.26302 19.9557 6.46615 20.2214 6.72656 20.4453C6.98698 20.6693 7.29687 20.8438 7.65625 20.9688C8.02083 21.0938 8.41927 21.1562 8.85156 21.1562C9.11719 21.1562 9.36458 21.1302 9.59375 21.0781C9.82292 21.0312 10.0339 20.9635 10.2266 20.875C10.4141 20.7917 10.5859 20.6927 10.7422 20.5781C10.8984 20.4635 11.0365 20.3411 11.1562 20.2109C11.1823 20.362 11.2135 20.5052 11.25 20.6406C11.2865 20.776 11.3307 20.8958 11.3828 21ZM9.3125 19.4766C9.10938 19.4766 8.92969 19.4531 8.77344 19.4062C8.6224 19.3542 8.49479 19.2865 8.39062 19.2031C8.28646 19.1146 8.20573 19.0078 8.14844 18.8828C8.09635 18.7526 8.07031 18.612 8.07031 18.4609C8.07031 18.2682 8.10677 18.0911 8.17969 17.9297C8.2526 17.763 8.36458 17.6198 8.51562 17.5C8.66667 17.3854 8.86198 17.2969 9.10156 17.2344C9.34115 17.1667 9.63021 17.1328 9.96875 17.1328H11.0781V18.5859C11.0156 18.6953 10.9297 18.8047 10.8203 18.9141C10.7109 19.0182 10.5807 19.112 10.4297 19.1953C10.2786 19.2786 10.1094 19.3464 9.92188 19.3984C9.73438 19.4505 9.53125 19.4766 9.3125 19.4766ZM21.2266 21H23.1953V12.5469H21.0156V18.4766C20.9479 18.612 20.8672 18.7344 20.7734 18.8438C20.6797 18.9531 20.5729 19.0469 20.4531 19.125C20.3125 19.2135 20.1484 19.2812 19.9609 19.3281C19.7786 19.375 19.5729 19.3984 19.3438 19.3984C19.0885 19.3984 18.8724 19.3672 18.6953 19.3047C18.5182 19.2422 18.375 19.138 18.2656 18.9922C18.1562 18.8516 18.0755 18.6641 18.0234 18.4297C17.9766 18.1953 17.9531 17.9062 17.9531 17.5625V12.5469H15.7812V17.5469C15.7812 18.1875 15.8516 18.737 15.9922 19.1953C16.138 19.6484 16.3411 20.0208 16.6016 20.3125C16.862 20.6094 17.1745 20.8255 17.5391 20.9609C17.9036 21.0964 18.3047 21.1641 18.7422 21.1641C19.2214 21.1641 19.6615 21.0443 20.0625 20.8047C20.4688 20.5651 20.8151 20.2344 21.1016 19.8125L21.2266 21ZM29.3047 10.4766L27.1328 10.4766V12.5469H25.2031V14.1484H27.1328V17.9922C27.1328 18.5495 27.2057 19.0286 27.3516 19.4297C27.4974 19.8255 27.7057 20.151 27.9766 20.4062C28.2422 20.6667 28.5625 20.8594 28.9375 20.9844C29.3177 21.1042 29.7396 21.1641 30.2031 21.1641C30.4427 21.1641 30.6849 21.151 30.9297 21.125C31.1797 21.1042 31.4193 21.0729 31.6484 21.0312C31.8776 20.9896 32.0938 20.9375 32.2969 20.875C32.5 20.8073 32.6771 20.7292 32.8281 20.6406L32.6172 19.1484C32.5182 19.1745 32.3984 19.2005 32.2578 19.2266C32.1224 19.2526 31.9766 19.276 31.8203 19.2969C31.6589 19.3229 31.4896 19.3438 31.3125 19.3594C31.1406 19.375 30.9714 19.3828 30.8047 19.3828C30.5755 19.3828 30.3672 19.3568 30.1797 19.3047C29.9974 19.2526 29.8411 19.1641 29.7109 19.0391C29.5807 18.9193 29.4792 18.7578 29.4062 18.5547C29.3385 18.3464 29.3047 18.0885 29.3047 17.7812V14.1484H32.4609V12.5469H29.3047V10.4766ZM34.6328 16.6953V16.8594C34.6328 17.4792 34.7214 18.0521 34.8984 18.5781C35.0755 19.099 35.3359 19.5521 35.6797 19.9375C36.0182 20.3229 36.4349 20.625 36.9297 20.8438C37.4297 21.0573 37.9974 21.1641 38.6328 21.1641C39.263 21.1641 39.8255 21.0573 40.3203 20.8438C40.8151 20.625 41.2318 20.3229 41.5703 19.9375C41.9089 19.5521 42.1667 19.099 42.3438 18.5781C42.5208 18.0521 42.6094 17.4792 42.6094 16.8594V16.6953C42.6094 16.0807 42.5208 15.513 42.3438 14.9922C42.1667 14.4661 41.9089 14.0104 41.5703 13.625C41.2266 13.2396 40.8073 12.9375 40.3125 12.7188C39.8177 12.5 39.2526 12.3906 38.6172 12.3906C37.9818 12.3906 37.4167 12.5 36.9219 12.7188C36.4323 12.9375 36.0182 13.2396 35.6797 13.625C35.3359 14.0104 35.0755 14.4661 34.8984 14.9922C34.7214 15.513 34.6328 16.0807 34.6328 16.6953ZM36.8047 16.8594V16.6953C36.8047 16.3516 36.8385 16.026 36.9062 15.7188C36.974 15.4115 37.0807 15.1406 37.2266 14.9063C37.3724 14.6719 37.5599 14.487 37.7891 14.3516C38.0182 14.2161 38.2943 14.1484 38.6172 14.1484C38.9453 14.1484 39.224 14.2161 39.4531 14.3516C39.6823 14.487 39.8698 14.6719 40.0156 14.9063C40.1562 15.1406 40.2604 15.4115 40.3281 15.7188C40.3958 16.026 40.4297 16.3516 40.4297 16.6953V16.8594C40.4297 17.2135 40.3958 17.5469 40.3281 17.8594C40.2604 18.1667 40.1562 18.4349 40.0156 18.6641C39.8698 18.8984 39.6823 19.0833 39.4531 19.2188C39.224 19.3542 38.9505 19.4219 38.6328 19.4219C38.3047 19.4219 38.0234 19.3542 37.7891 19.2188C37.5599 19.0833 37.3724 18.8984 37.2266 18.6641C37.0807 18.4349 36.974 18.1667 36.9062 17.8594C36.8385 17.5469 36.8047 17.2135 36.8047 16.8594ZM52.1484 16.8594V15.1016H45.6406V16.8594H52.1484ZM56.25 21H58.4297V14.1484H61.4766V12.5469H58.4297V12.0859C58.4297 11.8359 58.4609 11.612 58.5234 11.4141C58.5911 11.2161 58.6927 11.0495 58.8281 10.9141C58.9792 10.7526 59.1823 10.6302 59.4375 10.5469C59.6927 10.4635 60.0026 10.4219 60.3672 10.4219C60.7057 10.4219 61 10.4375 61.25 10.4688C61.5 10.5 61.724 10.5365 61.9219 10.5781L62.0625 8.875C61.8854 8.84375 61.7135 8.8151 61.5469 8.78906C61.3854 8.76302 61.224 8.73958 61.0625 8.71875C60.901 8.69792 60.7344 8.68229 60.5625 8.67188C60.3958 8.65625 60.2214 8.64844 60.0391 8.64844C59.4609 8.64844 58.9375 8.72396 58.4688 8.875C58 9.02083 57.6016 9.23958 57.2734 9.53125C56.9453 9.82292 56.6927 10.1823 56.5156 10.6094C56.3385 11.0365 56.25 11.5286 56.25 12.0859V12.5469H54.0312V14.1484H56.25V21ZM64.3359 12.5469V14.3203H66.7422V19.2344H64.3359V21H71.2266V19.2344H68.9375V12.5469H64.3359ZM66.5859 10.3828C66.5859 10.5495 66.6146 10.7057 66.6719 10.8516C66.7344 10.9922 66.8203 11.112 66.9297 11.2109C67.0391 11.3151 67.1693 11.3958 67.3203 11.4531C67.4766 11.5104 67.6484 11.5391 67.8359 11.5391C68.2214 11.5391 68.526 11.4323 68.75 11.2188C68.9792 11 69.0938 10.7214 69.0938 10.3828C69.0938 10.0443 68.9792 9.76823 68.75 9.55469C68.526 9.33594 68.2214 9.22656 67.8359 9.22656C67.6484 9.22656 67.4766 9.25521 67.3203 9.3125C67.1693 9.36979 67.0391 9.44792 66.9297 9.54688C66.8203 9.65104 66.7344 9.77604 66.6719 9.92188C66.6146 10.0625 66.5859 10.2161 66.5859 10.3828ZM77.3516 10.4766H75.1797V12.5469H73.25V14.1484H75.1797V17.9922C75.1797 18.5495 75.2526 19.0286 75.3984 19.4297C75.5443 19.8255 75.7526 20.151 76.0234 20.4063C76.2891 20.6667 76.6094 20.8594 76.9844 20.9844C77.3646 21.1042 77.7865 21.1641 78.25 21.1641C78.4896 21.1641 78.7318 21.151 78.9766 21.125C79.2266 21.1042 79.4661 21.0729 79.6953 21.0313C79.9245 20.9896 80.1406 20.9375 80.3438 20.875C80.5469 20.8073 80.724 20.7292 80.875 20.6406L80.6641 19.1484C80.5651 19.1745 80.4453 19.2005 80.3047 19.2266C80.1693 19.2526 80.0234 19.276 79.8672 19.2969C79.7057 19.3229 79.5365 19.3438 79.3594 19.3594C79.1875 19.375 79.0182 19.3828 78.8516 19.3828C78.6224 19.3828 78.4141 19.3568 78.2266 19.3047C78.0443 19.2526 77.888 19.1641 77.7578 19.0391C77.6276 18.9193 77.526 18.7578 77.4531 18.5547C77.3854 18.3464 77.3516 18.0885 77.3516 17.7813V14.1484H80.5078V12.5469H77.3516V10.4766Z" fill="#12171A"/>
<rect x="390" width="97" height="29" rx="10" fill="#EFF1F3"/>
<path d="M401.383 21H403.586V20.8672C403.477 20.6536 403.393 20.3984 403.336 20.1016C403.279 19.8047 403.25 19.4297 403.25 18.9766V15.3516C403.25 14.862 403.159 14.4323 402.977 14.0625C402.794 13.6875 402.542 13.3776 402.219 13.1328C401.896 12.888 401.513 12.7031 401.07 12.5781C400.633 12.4531 400.159 12.3906 399.648 12.3906C399.081 12.3906 398.576 12.4635 398.133 12.6094C397.695 12.75 397.326 12.9427 397.023 13.1875C396.716 13.4323 396.482 13.7161 396.32 14.0391C396.164 14.362 396.086 14.7031 396.086 15.0625H398.258C398.258 14.9115 398.279 14.7734 398.32 14.6484C398.367 14.5234 398.438 14.4167 398.531 14.3281C398.635 14.2292 398.771 14.1536 398.938 14.1016C399.104 14.0443 399.302 14.0156 399.531 14.0156C399.792 14.0156 400.018 14.0495 400.211 14.1172C400.409 14.1797 400.573 14.2708 400.703 14.3906C400.828 14.5052 400.922 14.6432 400.984 14.8047C401.047 14.9609 401.078 15.138 401.078 15.3359V15.8359H399.867C399.242 15.8359 398.688 15.8932 398.203 16.0078C397.724 16.1172 397.32 16.2786 396.992 16.4922C396.628 16.7266 396.354 17.026 396.172 17.3906C395.99 17.75 395.898 18.1641 395.898 18.6328C395.898 18.9974 395.971 19.3359 396.117 19.6484C396.263 19.9557 396.466 20.2214 396.727 20.4453C396.987 20.6693 397.297 20.8438 397.656 20.9688C398.021 21.0938 398.419 21.1562 398.852 21.1562C399.117 21.1562 399.365 21.1302 399.594 21.0781C399.823 21.0312 400.034 20.9635 400.227 20.875C400.414 20.7917 400.586 20.6927 400.742 20.5781C400.898 20.4635 401.036 20.3411 401.156 20.2109C401.182 20.362 401.214 20.5052 401.25 20.6406C401.286 20.776 401.331 20.8958 401.383 21ZM399.312 19.4766C399.109 19.4766 398.93 19.4531 398.773 19.4062C398.622 19.3542 398.495 19.2865 398.391 19.2031C398.286 19.1146 398.206 19.0078 398.148 18.8828C398.096 18.7526 398.07 18.612 398.07 18.4609C398.07 18.2682 398.107 18.0911 398.18 17.9297C398.253 17.763 398.365 17.6198 398.516 17.5C398.667 17.3854 398.862 17.2969 399.102 17.2344C399.341 17.1667 399.63 17.1328 399.969 17.1328H401.078V18.5859C401.016 18.6953 400.93 18.8047 400.82 18.9141C400.711 19.0182 400.581 19.112 400.43 19.1953C400.279 19.2786 400.109 19.3464 399.922 19.3984C399.734 19.4505 399.531 19.4766 399.312 19.4766ZM411.227 21H413.195V12.5469H411.016V18.4766C410.948 18.612 410.867 18.7344 410.773 18.8438C410.68 18.9531 410.573 19.0469 410.453 19.125C410.312 19.2135 410.148 19.2812 409.961 19.3281C409.779 19.375 409.573 19.3984 409.344 19.3984C409.089 19.3984 408.872 19.3672 408.695 19.3047C408.518 19.2422 408.375 19.138 408.266 18.9922C408.156 18.8516 408.076 18.6641 408.023 18.4297C407.977 18.1953 407.953 17.9062 407.953 17.5625V12.5469H405.781V17.5469C405.781 18.1875 405.852 18.737 405.992 19.1953C406.138 19.6484 406.341 20.0208 406.602 20.3125C406.862 20.6094 407.174 20.8255 407.539 20.9609C407.904 21.0964 408.305 21.1641 408.742 21.1641C409.221 21.1641 409.661 21.0443 410.062 20.8047C410.469 20.5651 410.815 20.2344 411.102 19.8125L411.227 21ZM419.305 10.4766L417.133 10.4766V12.5469H415.203V14.1484H417.133V17.9922C417.133 18.5495 417.206 19.0286 417.352 19.4297C417.497 19.8255 417.706 20.151 417.977 20.4062C418.242 20.6667 418.562 20.8594 418.938 20.9844C419.318 21.1042 419.74 21.1641 420.203 21.1641C420.443 21.1641 420.685 21.151 420.93 21.125C421.18 21.1042 421.419 21.0729 421.648 21.0312C421.878 20.9896 422.094 20.9375 422.297 20.875C422.5 20.8073 422.677 20.7292 422.828 20.6406L422.617 19.1484C422.518 19.1745 422.398 19.2005 422.258 19.2266C422.122 19.2526 421.977 19.276 421.82 19.2969C421.659 19.3229 421.49 19.3438 421.312 19.3594C421.141 19.375 420.971 19.3828 420.805 19.3828C420.576 19.3828 420.367 19.3568 420.18 19.3047C419.997 19.2526 419.841 19.1641 419.711 19.0391C419.581 18.9193 419.479 18.7578 419.406 18.5547C419.339 18.3464 419.305 18.0885 419.305 17.7812V14.1484H422.461V12.5469H419.305V10.4766ZM424.633 16.6953V16.8594C424.633 17.4792 424.721 18.0521 424.898 18.5781C425.076 19.099 425.336 19.5521 425.68 19.9375C426.018 20.3229 426.435 20.625 426.93 20.8438C427.43 21.0573 427.997 21.1641 428.633 21.1641C429.263 21.1641 429.826 21.0573 430.32 20.8438C430.815 20.625 431.232 20.3229 431.57 19.9375C431.909 19.5521 432.167 19.099 432.344 18.5781C432.521 18.0521 432.609 17.4792 432.609 16.8594V16.6953C432.609 16.0807 432.521 15.513 432.344 14.9922C432.167 14.4661 431.909 14.0104 431.57 13.625C431.227 13.2396 430.807 12.9375 430.312 12.7188C429.818 12.5 429.253 12.3906 428.617 12.3906C427.982 12.3906 427.417 12.5 426.922 12.7188C426.432 12.9375 426.018 13.2396 425.68 13.625C425.336 14.0104 425.076 14.4661 424.898 14.9922C424.721 15.513 424.633 16.0807 424.633 16.6953ZM426.805 16.8594V16.6953C426.805 16.3516 426.839 16.026 426.906 15.7188C426.974 15.4115 427.081 15.1406 427.227 14.9063C427.372 14.6719 427.56 14.487 427.789 14.3516C428.018 14.2161 428.294 14.1484 428.617 14.1484C428.945 14.1484 429.224 14.2161 429.453 14.3516C429.682 14.487 429.87 14.6719 430.016 14.9063C430.156 15.1406 430.26 15.4115 430.328 15.7188C430.396 16.026 430.43 16.3516 430.43 16.6953V16.8594C430.43 17.2135 430.396 17.5469 430.328 17.8594C430.26 18.1667 430.156 18.4349 430.016 18.6641C429.87 18.8984 429.682 19.0833 429.453 19.2188C429.224 19.3542 428.951 19.4219 428.633 19.4219C428.305 19.4219 428.023 19.3542 427.789 19.2188C427.56 19.0833 427.372 18.8984 427.227 18.6641C427.081 18.4349 426.974 18.1667 426.906 17.8594C426.839 17.5469 426.805 17.2135 426.805 16.8594ZM442.148 16.8594V15.1016H435.641V16.8594H442.148ZM446.25 21H448.43V14.1484H451.477V12.5469H448.43V12.0859C448.43 11.8359 448.461 11.612 448.523 11.4141C448.591 11.2161 448.693 11.0495 448.828 10.9141C448.979 10.7526 449.182 10.6302 449.438 10.5469C449.693 10.4635 450.003 10.4219 450.367 10.4219C450.706 10.4219 451 10.4375 451.25 10.4688C451.5 10.5 451.724 10.5365 451.922 10.5781L452.062 8.875C451.885 8.84375 451.714 8.8151 451.547 8.78906C451.385 8.76302 451.224 8.73958 451.062 8.71875C450.901 8.69792 450.734 8.68229 450.562 8.67188C450.396 8.65625 450.221 8.64844 450.039 8.64844C449.461 8.64844 448.938 8.72396 448.469 8.875C448 9.02083 447.602 9.23958 447.273 9.53125C446.945 9.82292 446.693 10.1823 446.516 10.6094C446.339 11.0365 446.25 11.5286 446.25 12.0859V12.5469H444.031V14.1484H446.25V21ZM454.336 12.5469V14.3203H456.742V19.2344H454.336V21H461.227V19.2344H458.938V12.5469H454.336ZM456.586 10.3828C456.586 10.5495 456.615 10.7057 456.672 10.8516C456.734 10.9922 456.82 11.112 456.93 11.2109C457.039 11.3151 457.169 11.3958 457.32 11.4531C457.477 11.5104 457.648 11.5391 457.836 11.5391C458.221 11.5391 458.526 11.4323 458.75 11.2188C458.979 11 459.094 10.7214 459.094 10.3828C459.094 10.0443 458.979 9.76823 458.75 9.55469C458.526 9.33594 458.221 9.22656 457.836 9.22656C457.648 9.22656 457.477 9.25521 457.32 9.3125C457.169 9.36979 457.039 9.44792 456.93 9.54688C456.82 9.65104 456.734 9.77604 456.672 9.92188C456.615 10.0625 456.586 10.2161 456.586 10.3828ZM463.82 9V10.7734H466.352V19.2344H463.82V21H470.969V19.2344H468.547V9H463.82ZM473.43 9V10.7734H475.961V19.2344L473.43 19.2344V21H480.578V19.2344H478.156V9H473.43Z" fill="#12171A"/>
<rect x="6.5" y="50.5" width="160" height="51" rx="9.5" fill="#B688E0" stroke="#6E33A6"/>
<rect x="396.5" y="50.5" width="104" height="51" rx="9.5" fill="#B688E0" stroke="#6E33A6"/>
<rect x="509.5" y="50.5" width="104" height="51" rx="9.5" fill="#B688E0" stroke="#6E33A6"/>
<rect x="622.5" y="49.5" width="104" height="51" rx="9.5" fill="#DADFE2" stroke="#B9C1C6"/>
<rect x="176.5" y="50.5" width="160" height="51" rx="9.5" fill="#B688E0" stroke="#6E33A6"/>
<path d="M5.64645 120.646C5.45118 120.842 5.45118 121.158 5.64645 121.354L8.82843 124.536C9.02369 124.731 9.34027 124.731 9.53553 124.536C9.7308 124.34 9.7308 124.024 9.53553 123.828L6.70711 121L9.53553 118.172C9.7308 117.976 9.7308 117.66 9.53553 117.464C9.34027 117.269 9.02369 117.269 8.82843 117.464L5.64645 120.646ZM337.354 121.354C337.549 121.158 337.549 120.842 337.354 120.646L334.172 117.464C333.976 117.269 333.66 117.269 333.464 117.464C333.269 117.66 333.269 117.976 333.464 118.172L336.293 121L333.464 123.828C333.269 124.024 333.269 124.34 333.464 124.536C333.66 124.731 333.976 124.731 334.172 124.536L337.354 121.354ZM6 121.5L337 121.5L337 120.5L6 120.5L6 121.5Z" fill="#6E33A6"/>
<path d="M395.646 120.646C395.451 120.842 395.451 121.158 395.646 121.354L398.828 124.536C399.024 124.731 399.34 124.731 399.536 124.536C399.731 124.34 399.731 124.024 399.536 123.828L396.707 121L399.536 118.172C399.731 117.976 399.731 117.66 399.536 117.464C399.34 117.269 399.024 117.269 398.828 117.464L395.646 120.646ZM727.354 121.354C727.549 121.158 727.549 120.842 727.354 120.646L724.172 117.464C723.976 117.269 723.66 117.269 723.464 117.464C723.269 117.66 723.269 117.976 723.464 118.172L726.293 121L723.464 123.828C723.269 124.024 723.269 124.34 723.464 124.536C723.66 124.731 723.976 124.731 724.172 124.536L727.354 121.354ZM396 121.5L727 121.5L727 120.5L396 120.5L396 121.5Z" fill="#6E33A6"/>
<path d="M156.594 136.273H156.445V138.094H156.609C157.615 138.094 158.479 137.94 159.203 137.633C159.927 137.32 160.523 136.885 160.992 136.328C161.461 135.776 161.807 135.12 162.031 134.359C162.255 133.599 162.367 132.766 162.367 131.859V131.109C162.367 130.432 162.279 129.81 162.102 129.242C161.93 128.674 161.68 128.185 161.352 127.773C161.018 127.362 160.615 127.042 160.141 126.812C159.667 126.583 159.133 126.469 158.539 126.469C157.956 126.469 157.43 126.576 156.961 126.789C156.497 126.997 156.102 127.284 155.773 127.648C155.445 128.013 155.193 128.44 155.016 128.93C154.844 129.414 154.758 129.932 154.758 130.484C154.758 131.021 154.828 131.523 154.969 131.992C155.115 132.456 155.328 132.859 155.609 133.203C155.885 133.547 156.229 133.818 156.641 134.016C157.052 134.214 157.529 134.312 158.07 134.312C158.326 134.312 158.56 134.292 158.773 134.25C158.987 134.203 159.18 134.141 159.352 134.062C159.513 133.995 159.661 133.914 159.797 133.82C159.932 133.727 160.055 133.625 160.164 133.516V133.562C160.112 133.979 160.005 134.357 159.844 134.695C159.688 135.029 159.469 135.31 159.188 135.539C158.896 135.779 158.536 135.961 158.109 136.086C157.682 136.211 157.177 136.273 156.594 136.273ZM158.586 132.633C158.305 132.633 158.06 132.576 157.852 132.461C157.643 132.341 157.471 132.182 157.336 131.984C157.195 131.786 157.091 131.555 157.023 131.289C156.956 131.023 156.922 130.745 156.922 130.453C156.922 130.161 156.958 129.883 157.031 129.617C157.104 129.346 157.208 129.107 157.344 128.898C157.479 128.695 157.646 128.534 157.844 128.414C158.047 128.289 158.276 128.227 158.531 128.227C158.766 128.227 158.984 128.279 159.188 128.383C159.391 128.487 159.568 128.643 159.719 128.852C159.87 129.06 159.987 129.32 160.07 129.633C160.159 129.945 160.203 130.31 160.203 130.727V131.5C160.141 131.661 160.057 131.812 159.953 131.953C159.854 132.089 159.737 132.206 159.602 132.305C159.461 132.409 159.305 132.49 159.133 132.547C158.966 132.604 158.784 132.633 158.586 132.633ZM172.117 133.672V130.953C172.117 130.219 172.031 129.573 171.859 129.016C171.688 128.453 171.443 127.982 171.125 127.602C170.802 127.227 170.411 126.943 169.953 126.75C169.495 126.557 168.979 126.461 168.406 126.461C167.839 126.461 167.326 126.557 166.867 126.75C166.414 126.943 166.029 127.227 165.711 127.602C165.388 127.982 165.141 128.453 164.969 129.016C164.797 129.573 164.711 130.219 164.711 130.953V133.672C164.711 134.406 164.797 135.055 164.969 135.617C165.146 136.174 165.396 136.641 165.719 137.016C166.036 137.396 166.424 137.682 166.883 137.875C167.341 138.068 167.854 138.164 168.422 138.164C168.995 138.164 169.51 138.068 169.969 137.875C170.427 137.682 170.815 137.396 171.133 137.016C171.451 136.641 171.693 136.174 171.859 135.617C172.031 135.055 172.117 134.406 172.117 133.672ZM166.898 132.734C166.898 132.573 166.898 132.451 166.898 132.367C166.898 132.284 166.898 132.117 166.898 131.867V130.609C166.898 130.188 166.93 129.823 166.992 129.516C167.06 129.208 167.161 128.958 167.297 128.766C167.422 128.583 167.576 128.448 167.758 128.359C167.945 128.266 168.161 128.219 168.406 128.219C168.625 128.219 168.82 128.255 168.992 128.328C169.169 128.396 169.318 128.503 169.438 128.648C169.594 128.831 169.711 129.076 169.789 129.383C169.872 129.685 169.919 130.049 169.93 130.477L166.898 132.734ZM169.93 134C169.93 134.422 169.896 134.789 169.828 135.102C169.766 135.409 169.669 135.661 169.539 135.859C169.414 136.047 169.258 136.188 169.07 136.281C168.883 136.37 168.667 136.414 168.422 136.414C168.156 136.414 167.927 136.362 167.734 136.258C167.542 136.154 167.383 135.995 167.258 135.781C167.148 135.604 167.062 135.383 167 135.117C166.943 134.852 166.909 134.547 166.898 134.203L169.93 131.953C169.93 132.104 169.93 132.221 169.93 132.305C169.93 132.383 169.93 132.508 169.93 132.68V134ZM181.727 133.672V130.953C181.727 130.219 181.641 129.573 181.469 129.016C181.297 128.453 181.052 127.982 180.734 127.602C180.411 127.227 180.021 126.943 179.562 126.75C179.104 126.557 178.589 126.461 178.016 126.461C177.448 126.461 176.935 126.557 176.477 126.75C176.023 126.943 175.638 127.227 175.32 127.602C174.997 127.982 174.75 128.453 174.578 129.016C174.406 129.573 174.32 130.219 174.32 130.953V133.672C174.32 134.406 174.406 135.055 174.578 135.617C174.755 136.174 175.005 136.641 175.328 137.016C175.646 137.396 176.034 137.682 176.492 137.875C176.951 138.068 177.464 138.164 178.031 138.164C178.604 138.164 179.12 138.068 179.578 137.875C180.036 137.682 180.424 137.396 180.742 137.016C181.06 136.641 181.302 136.174 181.469 135.617C181.641 135.055 181.727 134.406 181.727 133.672ZM176.508 132.734C176.508 132.573 176.508 132.451 176.508 132.367C176.508 132.284 176.508 132.117 176.508 131.867V130.609C176.508 130.188 176.539 129.823 176.602 129.516C176.669 129.208 176.771 128.958 176.906 128.766C177.031 128.583 177.185 128.448 177.367 128.359C177.555 128.266 177.771 128.219 178.016 128.219C178.234 128.219 178.43 128.255 178.602 128.328C178.779 128.396 178.927 128.503 179.047 128.648C179.203 128.831 179.32 129.076 179.398 129.383C179.482 129.685 179.529 130.049 179.539 130.477L176.508 132.734ZM179.539 134C179.539 134.422 179.505 134.789 179.438 135.102C179.375 135.409 179.279 135.661 179.148 135.859C179.023 136.047 178.867 136.188 178.68 136.281C178.492 136.37 178.276 136.414 178.031 136.414C177.766 136.414 177.536 136.362 177.344 136.258C177.151 136.154 176.992 135.995 176.867 135.781C176.758 135.604 176.672 135.383 176.609 135.117C176.552 134.852 176.518 134.547 176.508 134.203L179.539 131.953C179.539 132.104 179.539 132.221 179.539 132.305C179.539 132.383 179.539 132.508 179.539 132.68V134ZM183.961 141.25H186.133V137.266C186.232 137.375 186.336 137.474 186.445 137.562C186.555 137.651 186.669 137.732 186.789 137.805C186.992 137.919 187.211 138.005 187.445 138.062C187.685 138.125 187.945 138.156 188.227 138.156C188.758 138.156 189.229 138.047 189.641 137.828C190.052 137.609 190.398 137.307 190.68 136.922C190.956 136.542 191.164 136.089 191.305 135.562C191.451 135.036 191.523 134.466 191.523 133.852V133.688C191.523 133.047 191.451 132.464 191.305 131.938C191.164 131.406 190.953 130.951 190.672 130.57C190.391 130.195 190.044 129.906 189.633 129.703C189.221 129.495 188.747 129.391 188.211 129.391C187.951 129.391 187.706 129.419 187.477 129.477C187.253 129.529 187.047 129.604 186.859 129.703C186.703 129.786 186.557 129.885 186.422 130C186.286 130.109 186.161 130.234 186.047 130.375L185.969 129.547H183.961V141.25ZM189.352 133.688V133.852C189.352 134.201 189.32 134.531 189.258 134.844C189.195 135.151 189.096 135.422 188.961 135.656C188.826 135.891 188.648 136.076 188.43 136.211C188.216 136.346 187.956 136.414 187.648 136.414C187.456 136.414 187.281 136.396 187.125 136.359C186.969 136.318 186.831 136.26 186.711 136.188C186.586 136.109 186.474 136.016 186.375 135.906C186.281 135.797 186.201 135.674 186.133 135.539V132.008C186.206 131.862 186.292 131.734 186.391 131.625C186.495 131.516 186.615 131.424 186.75 131.352C186.87 131.289 187.003 131.242 187.148 131.211C187.294 131.174 187.456 131.156 187.633 131.156C187.94 131.156 188.201 131.221 188.414 131.352C188.633 131.482 188.812 131.659 188.953 131.883C189.089 132.112 189.188 132.383 189.25 132.695C189.318 133.003 189.352 133.333 189.352 133.688ZM197.406 132.188L195.578 129.547H193.242L196.07 133.695L193.133 138H195.484L197.414 135.234L199.359 138H201.703L198.766 133.695L201.602 129.547H199.266L197.406 132.188Z" fill="#6E33A6"/>
<path d="M546.594 136.273H546.445V138.094H546.609C547.615 138.094 548.479 137.94 549.203 137.633C549.927 137.32 550.523 136.885 550.992 136.328C551.461 135.776 551.807 135.12 552.031 134.359C552.255 133.599 552.367 132.766 552.367 131.859V131.109C552.367 130.432 552.279 129.81 552.102 129.242C551.93 128.674 551.68 128.185 551.352 127.773C551.018 127.362 550.615 127.042 550.141 126.812C549.667 126.583 549.133 126.469 548.539 126.469C547.956 126.469 547.43 126.576 546.961 126.789C546.497 126.997 546.102 127.284 545.773 127.648C545.445 128.013 545.193 128.44 545.016 128.93C544.844 129.414 544.758 129.932 544.758 130.484C544.758 131.021 544.828 131.523 544.969 131.992C545.115 132.456 545.328 132.859 545.609 133.203C545.885 133.547 546.229 133.818 546.641 134.016C547.052 134.214 547.529 134.312 548.07 134.312C548.326 134.312 548.56 134.292 548.773 134.25C548.987 134.203 549.18 134.141 549.352 134.062C549.513 133.995 549.661 133.914 549.797 133.82C549.932 133.727 550.055 133.625 550.164 133.516V133.562C550.112 133.979 550.005 134.357 549.844 134.695C549.688 135.029 549.469 135.31 549.188 135.539C548.896 135.779 548.536 135.961 548.109 136.086C547.682 136.211 547.177 136.273 546.594 136.273ZM548.586 132.633C548.305 132.633 548.06 132.576 547.852 132.461C547.643 132.341 547.471 132.182 547.336 131.984C547.195 131.786 547.091 131.555 547.023 131.289C546.956 131.023 546.922 130.745 546.922 130.453C546.922 130.161 546.958 129.883 547.031 129.617C547.104 129.346 547.208 129.107 547.344 128.898C547.479 128.695 547.646 128.534 547.844 128.414C548.047 128.289 548.276 128.227 548.531 128.227C548.766 128.227 548.984 128.279 549.188 128.383C549.391 128.487 549.568 128.643 549.719 128.852C549.87 129.06 549.987 129.32 550.07 129.633C550.159 129.945 550.203 130.31 550.203 130.727V131.5C550.141 131.661 550.057 131.812 549.953 131.953C549.854 132.089 549.737 132.206 549.602 132.305C549.461 132.409 549.305 132.49 549.133 132.547C548.966 132.604 548.784 132.633 548.586 132.633ZM562.117 133.672V130.953C562.117 130.219 562.031 129.573 561.859 129.016C561.688 128.453 561.443 127.982 561.125 127.602C560.802 127.227 560.411 126.943 559.953 126.75C559.495 126.557 558.979 126.461 558.406 126.461C557.839 126.461 557.326 126.557 556.867 126.75C556.414 126.943 556.029 127.227 555.711 127.602C555.388 127.982 555.141 128.453 554.969 129.016C554.797 129.573 554.711 130.219 554.711 130.953V133.672C554.711 134.406 554.797 135.055 554.969 135.617C555.146 136.174 555.396 136.641 555.719 137.016C556.036 137.396 556.424 137.682 556.883 137.875C557.341 138.068 557.854 138.164 558.422 138.164C558.995 138.164 559.51 138.068 559.969 137.875C560.427 137.682 560.815 137.396 561.133 137.016C561.451 136.641 561.693 136.174 561.859 135.617C562.031 135.055 562.117 134.406 562.117 133.672ZM556.898 132.734C556.898 132.573 556.898 132.451 556.898 132.367C556.898 132.284 556.898 132.117 556.898 131.867V130.609C556.898 130.188 556.93 129.823 556.992 129.516C557.06 129.208 557.161 128.958 557.297 128.766C557.422 128.583 557.576 128.448 557.758 128.359C557.945 128.266 558.161 128.219 558.406 128.219C558.625 128.219 558.82 128.255 558.992 128.328C559.169 128.396 559.318 128.503 559.438 128.648C559.594 128.831 559.711 129.076 559.789 129.383C559.872 129.685 559.919 130.049 559.93 130.477L556.898 132.734ZM559.93 134C559.93 134.422 559.896 134.789 559.828 135.102C559.766 135.409 559.669 135.661 559.539 135.859C559.414 136.047 559.258 136.188 559.07 136.281C558.883 136.37 558.667 136.414 558.422 136.414C558.156 136.414 557.927 136.362 557.734 136.258C557.542 136.154 557.383 135.995 557.258 135.781C557.148 135.604 557.062 135.383 557 135.117C556.943 134.852 556.909 134.547 556.898 134.203L559.93 131.953C559.93 132.104 559.93 132.221 559.93 132.305C559.93 132.383 559.93 132.508 559.93 132.68V134ZM571.727 133.672V130.953C571.727 130.219 571.641 129.573 571.469 129.016C571.297 128.453 571.052 127.982 570.734 127.602C570.411 127.227 570.021 126.943 569.562 126.75C569.104 126.557 568.589 126.461 568.016 126.461C567.448 126.461 566.935 126.557 566.477 126.75C566.023 126.943 565.638 127.227 565.32 127.602C564.997 127.982 564.75 128.453 564.578 129.016C564.406 129.573 564.32 130.219 564.32 130.953V133.672C564.32 134.406 564.406 135.055 564.578 135.617C564.755 136.174 565.005 136.641 565.328 137.016C565.646 137.396 566.034 137.682 566.492 137.875C566.951 138.068 567.464 138.164 568.031 138.164C568.604 138.164 569.12 138.068 569.578 137.875C570.036 137.682 570.424 137.396 570.742 137.016C571.06 136.641 571.302 136.174 571.469 135.617C571.641 135.055 571.727 134.406 571.727 133.672ZM566.508 132.734C566.508 132.573 566.508 132.451 566.508 132.367C566.508 132.284 566.508 132.117 566.508 131.867V130.609C566.508 130.188 566.539 129.823 566.602 129.516C566.669 129.208 566.771 128.958 566.906 128.766C567.031 128.583 567.185 128.448 567.367 128.359C567.555 128.266 567.771 128.219 568.016 128.219C568.234 128.219 568.43 128.255 568.602 128.328C568.779 128.396 568.927 128.503 569.047 128.648C569.203 128.831 569.32 129.076 569.398 129.383C569.482 129.685 569.529 130.049 569.539 130.477L566.508 132.734ZM569.539 134C569.539 134.422 569.505 134.789 569.438 135.102C569.375 135.409 569.279 135.661 569.148 135.859C569.023 136.047 568.867 136.188 568.68 136.281C568.492 136.37 568.276 136.414 568.031 136.414C567.766 136.414 567.536 136.362 567.344 136.258C567.151 136.154 566.992 135.995 566.867 135.781C566.758 135.604 566.672 135.383 566.609 135.117C566.552 134.852 566.518 134.547 566.508 134.203L569.539 131.953C569.539 132.104 569.539 132.221 569.539 132.305C569.539 132.383 569.539 132.508 569.539 132.68V134ZM573.961 141.25H576.133V137.266C576.232 137.375 576.336 137.474 576.445 137.562C576.555 137.651 576.669 137.732 576.789 137.805C576.992 137.919 577.211 138.005 577.445 138.062C577.685 138.125 577.945 138.156 578.227 138.156C578.758 138.156 579.229 138.047 579.641 137.828C580.052 137.609 580.398 137.307 580.68 136.922C580.956 136.542 581.164 136.089 581.305 135.562C581.451 135.036 581.523 134.466 581.523 133.852V133.688C581.523 133.047 581.451 132.464 581.305 131.938C581.164 131.406 580.953 130.951 580.672 130.57C580.391 130.195 580.044 129.906 579.633 129.703C579.221 129.495 578.747 129.391 578.211 129.391C577.951 129.391 577.706 129.419 577.477 129.477C577.253 129.529 577.047 129.604 576.859 129.703C576.703 129.786 576.557 129.885 576.422 130C576.286 130.109 576.161 130.234 576.047 130.375L575.969 129.547H573.961V141.25ZM579.352 133.688V133.852C579.352 134.201 579.32 134.531 579.258 134.844C579.195 135.151 579.096 135.422 578.961 135.656C578.826 135.891 578.648 136.076 578.43 136.211C578.216 136.346 577.956 136.414 577.648 136.414C577.456 136.414 577.281 136.396 577.125 136.359C576.969 136.318 576.831 136.26 576.711 136.188C576.586 136.109 576.474 136.016 576.375 135.906C576.281 135.797 576.201 135.674 576.133 135.539V132.008C576.206 131.862 576.292 131.734 576.391 131.625C576.495 131.516 576.615 131.424 576.75 131.352C576.87 131.289 577.003 131.242 577.148 131.211C577.294 131.174 577.456 131.156 577.633 131.156C577.94 131.156 578.201 131.221 578.414 131.352C578.633 131.482 578.812 131.659 578.953 131.883C579.089 132.112 579.188 132.383 579.25 132.695C579.318 133.003 579.352 133.333 579.352 133.688ZM587.406 132.188L585.578 129.547H583.242L586.07 133.695L583.133 138H585.484L587.414 135.234L589.359 138H591.703L588.766 133.695L591.602 129.547H589.266L587.406 132.188Z" fill="#6E33A6"/>
<path d="M37.2891 74.3594V76.0469H38.4688C38.7656 76.0469 39.0312 76.0807 39.2656 76.1484C39.5052 76.2161 39.7109 76.3203 39.8828 76.4609C40.0495 76.6016 40.1771 76.7812 40.2656 77C40.3542 77.2188 40.3984 77.4818 40.3984 77.7891C40.3984 78.0339 40.3594 78.2552 40.2812 78.4531C40.2083 78.651 40.099 78.8177 39.9531 78.9531C39.8021 79.1042 39.6146 79.2188 39.3906 79.2969C39.1667 79.375 38.9141 79.4141 38.6328 79.4141C38.3828 79.4141 38.1536 79.3776 37.9453 79.3047C37.737 79.2266 37.5573 79.1198 37.4062 78.9844C37.25 78.8542 37.1302 78.6979 37.0469 78.5156C36.9635 78.3281 36.9219 78.125 36.9219 77.9062H34.75C34.75 78.4583 34.8568 78.9375 35.0703 79.3438C35.2891 79.75 35.5781 80.0859 35.9375 80.3516C36.2969 80.6224 36.7057 80.8255 37.1641 80.9609C37.6276 81.0911 38.1016 81.1562 38.5859 81.1562C39.1484 81.1562 39.6719 81.0833 40.1562 80.9375C40.6458 80.7865 41.0677 80.5677 41.4219 80.2812C41.776 80 42.0547 79.651 42.2578 79.2344C42.4609 78.8177 42.5625 78.3438 42.5625 77.8125C42.5625 77.5104 42.526 77.224 42.4531 76.9531C42.3802 76.6823 42.2682 76.4323 42.1172 76.2031C41.9661 75.9792 41.7734 75.7786 41.5391 75.6016C41.3099 75.4245 41.0365 75.2786 40.7188 75.1641C40.9896 75.0339 41.2292 74.8802 41.4375 74.7031C41.6458 74.5208 41.8203 74.3229 41.9609 74.1094C42.1016 73.8958 42.2083 73.6719 42.2812 73.4375C42.3542 73.1979 42.3906 72.9557 42.3906 72.7109C42.3906 72.1797 42.2969 71.7135 42.1094 71.3125C41.9271 70.9062 41.6693 70.5651 41.3359 70.2891C41.0026 70.0182 40.6016 69.8151 40.1328 69.6797C39.6641 69.5391 39.1484 69.4688 38.5859 69.4688C38.0651 69.4688 37.5781 69.5443 37.125 69.6953C36.6771 69.8464 36.2865 70.0573 35.9531 70.3281C35.6198 70.6042 35.3568 70.9323 35.1641 71.3125C34.9766 71.6927 34.8828 72.1146 34.8828 72.5781H37.0547C37.0547 72.3698 37.0964 72.1823 37.1797 72.0156C37.263 71.849 37.3776 71.7057 37.5234 71.5859C37.6641 71.4714 37.8281 71.3828 38.0156 71.3203C38.2083 71.2578 38.4141 71.2266 38.6328 71.2266C38.8984 71.2266 39.1302 71.263 39.3281 71.3359C39.5312 71.4089 39.6979 71.5104 39.8281 71.6406C39.9583 71.776 40.0547 71.9375 40.1172 72.125C40.1849 72.3073 40.2188 72.5104 40.2188 72.7344C40.2188 72.9635 40.1849 73.1771 40.1172 73.375C40.0547 73.5677 39.9583 73.7318 39.8281 73.8672C39.6875 74.0234 39.5026 74.1458 39.2734 74.2344C39.0495 74.3177 38.7812 74.3594 38.4688 74.3594H37.2891ZM52.1172 76.6719V73.9531C52.1172 73.2188 52.0312 72.5729 51.8594 72.0156C51.6875 71.4531 51.4427 70.9818 51.125 70.6016C50.8021 70.2266 50.4115 69.9427 49.9531 69.75C49.4948 69.5573 48.9792 69.4609 48.4062 69.4609C47.8385 69.4609 47.3255 69.5573 46.8672 69.75C46.4141 69.9427 46.0286 70.2266 45.7109 70.6016C45.388 70.9818 45.1406 71.4531 44.9688 72.0156C44.7969 72.5729 44.7109 73.2188 44.7109 73.9531V76.6719C44.7109 77.4062 44.7969 78.0547 44.9688 78.6172C45.1458 79.1745 45.3958 79.6406 45.7188 80.0156C46.0365 80.3958 46.4245 80.6823 46.8828 80.875C47.3411 81.0677 47.8542 81.1641 48.4219 81.1641C48.9948 81.1641 49.5104 81.0677 49.9688 80.875C50.4271 80.6823 50.8151 80.3958 51.1328 80.0156C51.4505 79.6406 51.6927 79.1745 51.8594 78.6172C52.0312 78.0547 52.1172 77.4062 52.1172 76.6719ZM46.8984 75.7344C46.8984 75.5729 46.8984 75.4505 46.8984 75.3672C46.8984 75.2839 46.8984 75.1172 46.8984 74.8672V73.6094C46.8984 73.1875 46.9297 72.8229 46.9922 72.5156C47.0599 72.2083 47.1615 71.9583 47.2969 71.7656C47.4219 71.5833 47.5755 71.4479 47.7578 71.3594C47.9453 71.2656 48.1615 71.2188 48.4062 71.2188C48.625 71.2188 48.8203 71.2552 48.9922 71.3281C49.1693 71.3958 49.3177 71.5026 49.4375 71.6484C49.5938 71.8307 49.7109 72.0755 49.7891 72.3828C49.8724 72.6849 49.9193 73.0495 49.9297 73.4766L46.8984 75.7344ZM49.9297 77C49.9297 77.4219 49.8958 77.7891 49.8281 78.1016C49.7656 78.4089 49.6693 78.6615 49.5391 78.8594C49.4141 79.0469 49.2578 79.1875 49.0703 79.2812C48.8828 79.3698 48.6667 79.4141 48.4219 79.4141C48.1562 79.4141 47.9271 79.362 47.7344 79.2578C47.5417 79.1536 47.3828 78.9948 47.2578 78.7812C47.1484 78.6042 47.0625 78.3828 47 78.1172C46.9427 77.8516 46.9089 77.5469 46.8984 77.2031L49.9297 74.9531C49.9297 75.1042 49.9297 75.2214 49.9297 75.3047C49.9297 75.3828 49.9297 75.5078 49.9297 75.6797V77ZM61.7266 76.6719V73.9531C61.7266 73.2188 61.6406 72.5729 61.4688 72.0156C61.2969 71.4531 61.0521 70.9818 60.7344 70.6016C60.4115 70.2266 60.0208 69.9427 59.5625 69.75C59.1042 69.5573 58.5885 69.4609 58.0156 69.4609C57.4479 69.4609 56.9349 69.5573 56.4766 69.75C56.0234 69.9427 55.638 70.2266 55.3203 70.6016C54.9974 70.9818 54.75 71.4531 54.5781 72.0156C54.4062 72.5729 54.3203 73.2188 54.3203 73.9531V76.6719C54.3203 77.4062 54.4062 78.0547 54.5781 78.6172C54.7552 79.1745 55.0052 79.6406 55.3281 80.0156C55.6458 80.3958 56.0339 80.6823 56.4922 80.875C56.9505 81.0677 57.4635 81.1641 58.0312 81.1641C58.6042 81.1641 59.1198 81.0677 59.5781 80.875C60.0365 80.6823 60.4245 80.3958 60.7422 80.0156C61.0599 79.6406 61.3021 79.1745 61.4688 78.6172C61.6406 78.0547 61.7266 77.4062 61.7266 76.6719ZM56.5078 75.7344C56.5078 75.5729 56.5078 75.4505 56.5078 75.3672C56.5078 75.2839 56.5078 75.1172 56.5078 74.8672V73.6094C56.5078 73.1875 56.5391 72.8229 56.6016 72.5156C56.6693 72.2083 56.7708 71.9583 56.9062 71.7656C57.0312 71.5833 57.1849 71.4479 57.3672 71.3594C57.5547 71.2656 57.7708 71.2188 58.0156 71.2188C58.2344 71.2188 58.4297 71.2552 58.6016 71.3281C58.7786 71.3958 58.9271 71.5026 59.0469 71.6484C59.2031 71.8307 59.3203 72.0755 59.3984 72.3828C59.4818 72.6849 59.5286 73.0495 59.5391 73.4766L56.5078 75.7344ZM59.5391 77C59.5391 77.4219 59.5052 77.7891 59.4375 78.1016C59.375 78.4089 59.2786 78.6615 59.1484 78.8594C59.0234 79.0469 58.8672 79.1875 58.6797 79.2812C58.4922 79.3698 58.276 79.4141 58.0312 79.4141C57.7656 79.4141 57.5365 79.362 57.3438 79.2578C57.151 79.1536 56.9922 78.9948 56.8672 78.7812C56.7578 78.6042 56.6719 78.3828 56.6094 78.1172C56.5521 77.8516 56.5182 77.5469 56.5078 77.2031L59.5391 74.9531C59.5391 75.1042 59.5391 75.2214 59.5391 75.3047C59.5391 75.3828 59.5391 75.5078 59.5391 75.6797V77ZM63.9609 84.25H66.1328V80.2656C66.2318 80.375 66.3359 80.474 66.4453 80.5625C66.5547 80.651 66.6693 80.7318 66.7891 80.8047C66.9922 80.9193 67.2109 81.0052 67.4453 81.0625C67.6849 81.125 67.9453 81.1562 68.2266 81.1562C68.7578 81.1562 69.2292 81.0469 69.6406 80.8281C70.0521 80.6094 70.3984 80.3073 70.6797 79.9219C70.9557 79.5417 71.1641 79.0885 71.3047 78.5625C71.4505 78.0365 71.5234 77.4661 71.5234 76.8516V76.6875C71.5234 76.0469 71.4505 75.4635 71.3047 74.9375C71.1641 74.4062 70.9531 73.9505 70.6719 73.5703C70.3906 73.1953 70.0443 72.9062 69.6328 72.7031C69.2214 72.4948 68.7474 72.3906 68.2109 72.3906C67.9505 72.3906 67.7057 72.4193 67.4766 72.4766C67.2526 72.5286 67.0469 72.6042 66.8594 72.7031C66.7031 72.7865 66.5573 72.8854 66.4219 73C66.2865 73.1094 66.1615 73.2344 66.0469 73.375L65.9688 72.5469H63.9609V84.25ZM69.3516 76.6875V76.8516C69.3516 77.2005 69.3203 77.5312 69.2578 77.8438C69.1953 78.151 69.0964 78.4219 68.9609 78.6562C68.8255 78.8906 68.6484 79.0755 68.4297 79.2109C68.2161 79.3464 67.9557 79.4141 67.6484 79.4141C67.4557 79.4141 67.2812 79.3958 67.125 79.3594C66.9688 79.3177 66.8307 79.2604 66.7109 79.1875C66.5859 79.1094 66.474 79.0156 66.375 78.9062C66.2812 78.7969 66.2005 78.6745 66.1328 78.5391V75.0078C66.2057 74.862 66.2917 74.7344 66.3906 74.625C66.4948 74.5156 66.6146 74.4245 66.75 74.3516C66.8698 74.2891 67.0026 74.2422 67.1484 74.2109C67.2943 74.1745 67.4557 74.1562 67.6328 74.1562C67.9401 74.1562 68.2005 74.2214 68.4141 74.3516C68.6328 74.4818 68.8125 74.6589 68.9531 74.8828C69.0885 75.112 69.1875 75.3828 69.25 75.6953C69.3177 76.0026 69.3516 76.3333 69.3516 76.6875ZM77.4062 75.1875L75.5781 72.5469H73.2422L76.0703 76.6953L73.1328 81H75.4844L77.4141 78.2344L79.3594 81H81.7031L78.7656 76.6953L81.6016 72.5469H79.2656L77.4062 75.1875Z" fill="#6E33A6"/>
<path d="M427.289 74.3594V76.0469H428.469C428.766 76.0469 429.031 76.0807 429.266 76.1484C429.505 76.2161 429.711 76.3203 429.883 76.4609C430.049 76.6016 430.177 76.7812 430.266 77C430.354 77.2188 430.398 77.4818 430.398 77.7891C430.398 78.0339 430.359 78.2552 430.281 78.4531C430.208 78.651 430.099 78.8177 429.953 78.9531C429.802 79.1042 429.615 79.2188 429.391 79.2969C429.167 79.375 428.914 79.4141 428.633 79.4141C428.383 79.4141 428.154 79.3776 427.945 79.3047C427.737 79.2266 427.557 79.1198 427.406 78.9844C427.25 78.8542 427.13 78.6979 427.047 78.5156C426.964 78.3281 426.922 78.125 426.922 77.9062H424.75C424.75 78.4583 424.857 78.9375 425.07 79.3438C425.289 79.75 425.578 80.0859 425.938 80.3516C426.297 80.6224 426.706 80.8255 427.164 80.9609C427.628 81.0911 428.102 81.1562 428.586 81.1562C429.148 81.1562 429.672 81.0833 430.156 80.9375C430.646 80.7865 431.068 80.5677 431.422 80.2812C431.776 80 432.055 79.651 432.258 79.2344C432.461 78.8177 432.562 78.3438 432.562 77.8125C432.562 77.5104 432.526 77.224 432.453 76.9531C432.38 76.6823 432.268 76.4323 432.117 76.2031C431.966 75.9792 431.773 75.7786 431.539 75.6016C431.31 75.4245 431.036 75.2786 430.719 75.1641C430.99 75.0339 431.229 74.8802 431.438 74.7031C431.646 74.5208 431.82 74.3229 431.961 74.1094C432.102 73.8958 432.208 73.6719 432.281 73.4375C432.354 73.1979 432.391 72.9557 432.391 72.7109C432.391 72.1797 432.297 71.7135 432.109 71.3125C431.927 70.9062 431.669 70.5651 431.336 70.2891C431.003 70.0182 430.602 69.8151 430.133 69.6797C429.664 69.5391 429.148 69.4688 428.586 69.4688C428.065 69.4688 427.578 69.5443 427.125 69.6953C426.677 69.8464 426.286 70.0573 425.953 70.3281C425.62 70.6042 425.357 70.9323 425.164 71.3125C424.977 71.6927 424.883 72.1146 424.883 72.5781H427.055C427.055 72.3698 427.096 72.1823 427.18 72.0156C427.263 71.849 427.378 71.7057 427.523 71.5859C427.664 71.4714 427.828 71.3828 428.016 71.3203C428.208 71.2578 428.414 71.2266 428.633 71.2266C428.898 71.2266 429.13 71.263 429.328 71.3359C429.531 71.4089 429.698 71.5104 429.828 71.6406C429.958 71.776 430.055 71.9375 430.117 72.125C430.185 72.3073 430.219 72.5104 430.219 72.7344C430.219 72.9635 430.185 73.1771 430.117 73.375C430.055 73.5677 429.958 73.7318 429.828 73.8672C429.688 74.0234 429.503 74.1458 429.273 74.2344C429.049 74.3177 428.781 74.3594 428.469 74.3594H427.289ZM442.117 76.6719V73.9531C442.117 73.2188 442.031 72.5729 441.859 72.0156C441.688 71.4531 441.443 70.9818 441.125 70.6016C440.802 70.2266 440.411 69.9427 439.953 69.75C439.495 69.5573 438.979 69.4609 438.406 69.4609C437.839 69.4609 437.326 69.5573 436.867 69.75C436.414 69.9427 436.029 70.2266 435.711 70.6016C435.388 70.9818 435.141 71.4531 434.969 72.0156C434.797 72.5729 434.711 73.2188 434.711 73.9531V76.6719C434.711 77.4062 434.797 78.0547 434.969 78.6172C435.146 79.1745 435.396 79.6406 435.719 80.0156C436.036 80.3958 436.424 80.6823 436.883 80.875C437.341 81.0677 437.854 81.1641 438.422 81.1641C438.995 81.1641 439.51 81.0677 439.969 80.875C440.427 80.6823 440.815 80.3958 441.133 80.0156C441.451 79.6406 441.693 79.1745 441.859 78.6172C442.031 78.0547 442.117 77.4062 442.117 76.6719ZM436.898 75.7344C436.898 75.5729 436.898 75.4505 436.898 75.3672C436.898 75.2839 436.898 75.1172 436.898 74.8672V73.6094C436.898 73.1875 436.93 72.8229 436.992 72.5156C437.06 72.2083 437.161 71.9583 437.297 71.7656C437.422 71.5833 437.576 71.4479 437.758 71.3594C437.945 71.2656 438.161 71.2188 438.406 71.2188C438.625 71.2188 438.82 71.2552 438.992 71.3281C439.169 71.3958 439.318 71.5026 439.438 71.6484C439.594 71.8307 439.711 72.0755 439.789 72.3828C439.872 72.6849 439.919 73.0495 439.93 73.4766L436.898 75.7344ZM439.93 77C439.93 77.4219 439.896 77.7891 439.828 78.1016C439.766 78.4089 439.669 78.6615 439.539 78.8594C439.414 79.0469 439.258 79.1875 439.07 79.2812C438.883 79.3698 438.667 79.4141 438.422 79.4141C438.156 79.4141 437.927 79.362 437.734 79.2578C437.542 79.1536 437.383 78.9948 437.258 78.7812C437.148 78.6042 437.062 78.3828 437 78.1172C436.943 77.8516 436.909 77.5469 436.898 77.2031L439.93 74.9531C439.93 75.1042 439.93 75.2214 439.93 75.3047C439.93 75.3828 439.93 75.5078 439.93 75.6797V77ZM451.727 76.6719V73.9531C451.727 73.2188 451.641 72.5729 451.469 72.0156C451.297 71.4531 451.052 70.9818 450.734 70.6016C450.411 70.2266 450.021 69.9427 449.562 69.75C449.104 69.5573 448.589 69.4609 448.016 69.4609C447.448 69.4609 446.935 69.5573 446.477 69.75C446.023 69.9427 445.638 70.2266 445.32 70.6016C444.997 70.9818 444.75 71.4531 444.578 72.0156C444.406 72.5729 444.32 73.2188 444.32 73.9531V76.6719C444.32 77.4062 444.406 78.0547 444.578 78.6172C444.755 79.1745 445.005 79.6406 445.328 80.0156C445.646 80.3958 446.034 80.6823 446.492 80.875C446.951 81.0677 447.464 81.1641 448.031 81.1641C448.604 81.1641 449.12 81.0677 449.578 80.875C450.036 80.6823 450.424 80.3958 450.742 80.0156C451.06 79.6406 451.302 79.1745 451.469 78.6172C451.641 78.0547 451.727 77.4062 451.727 76.6719ZM446.508 75.7344C446.508 75.5729 446.508 75.4505 446.508 75.3672C446.508 75.2839 446.508 75.1172 446.508 74.8672V73.6094C446.508 73.1875 446.539 72.8229 446.602 72.5156C446.669 72.2083 446.771 71.9583 446.906 71.7656C447.031 71.5833 447.185 71.4479 447.367 71.3594C447.555 71.2656 447.771 71.2188 448.016 71.2188C448.234 71.2188 448.43 71.2552 448.602 71.3281C448.779 71.3958 448.927 71.5026 449.047 71.6484C449.203 71.8307 449.32 72.0755 449.398 72.3828C449.482 72.6849 449.529 73.0495 449.539 73.4766L446.508 75.7344ZM449.539 77C449.539 77.4219 449.505 77.7891 449.438 78.1016C449.375 78.4089 449.279 78.6615 449.148 78.8594C449.023 79.0469 448.867 79.1875 448.68 79.2812C448.492 79.3698 448.276 79.4141 448.031 79.4141C447.766 79.4141 447.536 79.362 447.344 79.2578C447.151 79.1536 446.992 78.9948 446.867 78.7812C446.758 78.6042 446.672 78.3828 446.609 78.1172C446.552 77.8516 446.518 77.5469 446.508 77.2031L449.539 74.9531C449.539 75.1042 449.539 75.2214 449.539 75.3047C449.539 75.3828 449.539 75.5078 449.539 75.6797V77ZM453.961 84.25H456.133V80.2656C456.232 80.375 456.336 80.474 456.445 80.5625C456.555 80.651 456.669 80.7318 456.789 80.8047C456.992 80.9193 457.211 81.0052 457.445 81.0625C457.685 81.125 457.945 81.1562 458.227 81.1562C458.758 81.1562 459.229 81.0469 459.641 80.8281C460.052 80.6094 460.398 80.3073 460.68 79.9219C460.956 79.5417 461.164 79.0885 461.305 78.5625C461.451 78.0365 461.523 77.4661 461.523 76.8516V76.6875C461.523 76.0469 461.451 75.4635 461.305 74.9375C461.164 74.4062 460.953 73.9505 460.672 73.5703C460.391 73.1953 460.044 72.9062 459.633 72.7031C459.221 72.4948 458.747 72.3906 458.211 72.3906C457.951 72.3906 457.706 72.4193 457.477 72.4766C457.253 72.5286 457.047 72.6042 456.859 72.7031C456.703 72.7865 456.557 72.8854 456.422 73C456.286 73.1094 456.161 73.2344 456.047 73.375L455.969 72.5469H453.961V84.25ZM459.352 76.6875V76.8516C459.352 77.2005 459.32 77.5312 459.258 77.8438C459.195 78.151 459.096 78.4219 458.961 78.6562C458.826 78.8906 458.648 79.0755 458.43 79.2109C458.216 79.3464 457.956 79.4141 457.648 79.4141C457.456 79.4141 457.281 79.3958 457.125 79.3594C456.969 79.3177 456.831 79.2604 456.711 79.1875C456.586 79.1094 456.474 79.0156 456.375 78.9062C456.281 78.7969 456.201 78.6745 456.133 78.5391V75.0078C456.206 74.862 456.292 74.7344 456.391 74.625C456.495 74.5156 456.615 74.4245 456.75 74.3516C456.87 74.2891 457.003 74.2422 457.148 74.2109C457.294 74.1745 457.456 74.1562 457.633 74.1562C457.94 74.1562 458.201 74.2214 458.414 74.3516C458.633 74.4818 458.812 74.6589 458.953 74.8828C459.089 75.112 459.188 75.3828 459.25 75.6953C459.318 76.0026 459.352 76.3333 459.352 76.6875ZM467.406 75.1875L465.578 72.5469H463.242L466.07 76.6953L463.133 81H465.484L467.414 78.2344L469.359 81H471.703L468.766 76.6953L471.602 72.5469H469.266L467.406 75.1875Z" fill="#6E33A6"/>
<path d="M540.289 74.3594V76.0469H541.469C541.766 76.0469 542.031 76.0807 542.266 76.1484C542.505 76.2161 542.711 76.3203 542.883 76.4609C543.049 76.6016 543.177 76.7812 543.266 77C543.354 77.2188 543.398 77.4818 543.398 77.7891C543.398 78.0339 543.359 78.2552 543.281 78.4531C543.208 78.651 543.099 78.8177 542.953 78.9531C542.802 79.1042 542.615 79.2188 542.391 79.2969C542.167 79.375 541.914 79.4141 541.633 79.4141C541.383 79.4141 541.154 79.3776 540.945 79.3047C540.737 79.2266 540.557 79.1198 540.406 78.9844C540.25 78.8542 540.13 78.6979 540.047 78.5156C539.964 78.3281 539.922 78.125 539.922 77.9062H537.75C537.75 78.4583 537.857 78.9375 538.07 79.3438C538.289 79.75 538.578 80.0859 538.938 80.3516C539.297 80.6224 539.706 80.8255 540.164 80.9609C540.628 81.0911 541.102 81.1562 541.586 81.1562C542.148 81.1562 542.672 81.0833 543.156 80.9375C543.646 80.7865 544.068 80.5677 544.422 80.2812C544.776 80 545.055 79.651 545.258 79.2344C545.461 78.8177 545.562 78.3438 545.562 77.8125C545.562 77.5104 545.526 77.224 545.453 76.9531C545.38 76.6823 545.268 76.4323 545.117 76.2031C544.966 75.9792 544.773 75.7786 544.539 75.6016C544.31 75.4245 544.036 75.2786 543.719 75.1641C543.99 75.0339 544.229 74.8802 544.438 74.7031C544.646 74.5208 544.82 74.3229 544.961 74.1094C545.102 73.8958 545.208 73.6719 545.281 73.4375C545.354 73.1979 545.391 72.9557 545.391 72.7109C545.391 72.1797 545.297 71.7135 545.109 71.3125C544.927 70.9062 544.669 70.5651 544.336 70.2891C544.003 70.0182 543.602 69.8151 543.133 69.6797C542.664 69.5391 542.148 69.4688 541.586 69.4688C541.065 69.4688 540.578 69.5443 540.125 69.6953C539.677 69.8464 539.286 70.0573 538.953 70.3281C538.62 70.6042 538.357 70.9323 538.164 71.3125C537.977 71.6927 537.883 72.1146 537.883 72.5781H540.055C540.055 72.3698 540.096 72.1823 540.18 72.0156C540.263 71.849 540.378 71.7057 540.523 71.5859C540.664 71.4714 540.828 71.3828 541.016 71.3203C541.208 71.2578 541.414 71.2266 541.633 71.2266C541.898 71.2266 542.13 71.263 542.328 71.3359C542.531 71.4089 542.698 71.5104 542.828 71.6406C542.958 71.776 543.055 71.9375 543.117 72.125C543.185 72.3073 543.219 72.5104 543.219 72.7344C543.219 72.9635 543.185 73.1771 543.117 73.375C543.055 73.5677 542.958 73.7318 542.828 73.8672C542.688 74.0234 542.503 74.1458 542.273 74.2344C542.049 74.3177 541.781 74.3594 541.469 74.3594H540.289ZM555.117 76.6719V73.9531C555.117 73.2188 555.031 72.5729 554.859 72.0156C554.688 71.4531 554.443 70.9818 554.125 70.6016C553.802 70.2266 553.411 69.9427 552.953 69.75C552.495 69.5573 551.979 69.4609 551.406 69.4609C550.839 69.4609 550.326 69.5573 549.867 69.75C549.414 69.9427 549.029 70.2266 548.711 70.6016C548.388 70.9818 548.141 71.4531 547.969 72.0156C547.797 72.5729 547.711 73.2188 547.711 73.9531V76.6719C547.711 77.4062 547.797 78.0547 547.969 78.6172C548.146 79.1745 548.396 79.6406 548.719 80.0156C549.036 80.3958 549.424 80.6823 549.883 80.875C550.341 81.0677 550.854 81.1641 551.422 81.1641C551.995 81.1641 552.51 81.0677 552.969 80.875C553.427 80.6823 553.815 80.3958 554.133 80.0156C554.451 79.6406 554.693 79.1745 554.859 78.6172C555.031 78.0547 555.117 77.4062 555.117 76.6719ZM549.898 75.7344C549.898 75.5729 549.898 75.4505 549.898 75.3672C549.898 75.2839 549.898 75.1172 549.898 74.8672V73.6094C549.898 73.1875 549.93 72.8229 549.992 72.5156C550.06 72.2083 550.161 71.9583 550.297 71.7656C550.422 71.5833 550.576 71.4479 550.758 71.3594C550.945 71.2656 551.161 71.2188 551.406 71.2188C551.625 71.2188 551.82 71.2552 551.992 71.3281C552.169 71.3958 552.318 71.5026 552.438 71.6484C552.594 71.8307 552.711 72.0755 552.789 72.3828C552.872 72.6849 552.919 73.0495 552.93 73.4766L549.898 75.7344ZM552.93 77C552.93 77.4219 552.896 77.7891 552.828 78.1016C552.766 78.4089 552.669 78.6615 552.539 78.8594C552.414 79.0469 552.258 79.1875 552.07 79.2812C551.883 79.3698 551.667 79.4141 551.422 79.4141C551.156 79.4141 550.927 79.362 550.734 79.2578C550.542 79.1536 550.383 78.9948 550.258 78.7812C550.148 78.6042 550.062 78.3828 550 78.1172C549.943 77.8516 549.909 77.5469 549.898 77.2031L552.93 74.9531C552.93 75.1042 552.93 75.2214 552.93 75.3047C552.93 75.3828 552.93 75.5078 552.93 75.6797V77ZM564.727 76.6719V73.9531C564.727 73.2188 564.641 72.5729 564.469 72.0156C564.297 71.4531 564.052 70.9818 563.734 70.6016C563.411 70.2266 563.021 69.9427 562.562 69.75C562.104 69.5573 561.589 69.4609 561.016 69.4609C560.448 69.4609 559.935 69.5573 559.477 69.75C559.023 69.9427 558.638 70.2266 558.32 70.6016C557.997 70.9818 557.75 71.4531 557.578 72.0156C557.406 72.5729 557.32 73.2188 557.32 73.9531V76.6719C557.32 77.4062 557.406 78.0547 557.578 78.6172C557.755 79.1745 558.005 79.6406 558.328 80.0156C558.646 80.3958 559.034 80.6823 559.492 80.875C559.951 81.0677 560.464 81.1641 561.031 81.1641C561.604 81.1641 562.12 81.0677 562.578 80.875C563.036 80.6823 563.424 80.3958 563.742 80.0156C564.06 79.6406 564.302 79.1745 564.469 78.6172C564.641 78.0547 564.727 77.4062 564.727 76.6719ZM559.508 75.7344C559.508 75.5729 559.508 75.4505 559.508 75.3672C559.508 75.2839 559.508 75.1172 559.508 74.8672V73.6094C559.508 73.1875 559.539 72.8229 559.602 72.5156C559.669 72.2083 559.771 71.9583 559.906 71.7656C560.031 71.5833 560.185 71.4479 560.367 71.3594C560.555 71.2656 560.771 71.2188 561.016 71.2188C561.234 71.2188 561.43 71.2552 561.602 71.3281C561.779 71.3958 561.927 71.5026 562.047 71.6484C562.203 71.8307 562.32 72.0755 562.398 72.3828C562.482 72.6849 562.529 73.0495 562.539 73.4766L559.508 75.7344ZM562.539 77C562.539 77.4219 562.505 77.7891 562.438 78.1016C562.375 78.4089 562.279 78.6615 562.148 78.8594C562.023 79.0469 561.867 79.1875 561.68 79.2812C561.492 79.3698 561.276 79.4141 561.031 79.4141C560.766 79.4141 560.536 79.362 560.344 79.2578C560.151 79.1536 559.992 78.9948 559.867 78.7812C559.758 78.6042 559.672 78.3828 559.609 78.1172C559.552 77.8516 559.518 77.5469 559.508 77.2031L562.539 74.9531C562.539 75.1042 562.539 75.2214 562.539 75.3047C562.539 75.3828 562.539 75.5078 562.539 75.6797V77ZM566.961 84.25H569.133V80.2656C569.232 80.375 569.336 80.474 569.445 80.5625C569.555 80.651 569.669 80.7318 569.789 80.8047C569.992 80.9193 570.211 81.0052 570.445 81.0625C570.685 81.125 570.945 81.1562 571.227 81.1562C571.758 81.1562 572.229 81.0469 572.641 80.8281C573.052 80.6094 573.398 80.3073 573.68 79.9219C573.956 79.5417 574.164 79.0885 574.305 78.5625C574.451 78.0365 574.523 77.4661 574.523 76.8516V76.6875C574.523 76.0469 574.451 75.4635 574.305 74.9375C574.164 74.4062 573.953 73.9505 573.672 73.5703C573.391 73.1953 573.044 72.9062 572.633 72.7031C572.221 72.4948 571.747 72.3906 571.211 72.3906C570.951 72.3906 570.706 72.4193 570.477 72.4766C570.253 72.5286 570.047 72.6042 569.859 72.7031C569.703 72.7865 569.557 72.8854 569.422 73C569.286 73.1094 569.161 73.2344 569.047 73.375L568.969 72.5469H566.961V84.25ZM572.352 76.6875V76.8516C572.352 77.2005 572.32 77.5312 572.258 77.8438C572.195 78.151 572.096 78.4219 571.961 78.6562C571.826 78.8906 571.648 79.0755 571.43 79.2109C571.216 79.3464 570.956 79.4141 570.648 79.4141C570.456 79.4141 570.281 79.3958 570.125 79.3594C569.969 79.3177 569.831 79.2604 569.711 79.1875C569.586 79.1094 569.474 79.0156 569.375 78.9062C569.281 78.7969 569.201 78.6745 569.133 78.5391V75.0078C569.206 74.862 569.292 74.7344 569.391 74.625C569.495 74.5156 569.615 74.4245 569.75 74.3516C569.87 74.2891 570.003 74.2422 570.148 74.2109C570.294 74.1745 570.456 74.1562 570.633 74.1562C570.94 74.1562 571.201 74.2214 571.414 74.3516C571.633 74.4818 571.812 74.6589 571.953 74.8828C572.089 75.112 572.188 75.3828 572.25 75.6953C572.318 76.0026 572.352 76.3333 572.352 76.6875ZM580.406 75.1875L578.578 72.5469H576.242L579.07 76.6953L576.133 81H578.484L580.414 78.2344L582.359 81H584.703L581.766 76.6953L584.602 72.5469H582.266L580.406 75.1875Z" fill="#6E33A6"/>
<path d="M207.289 75.3594V77.0469H208.469C208.766 77.0469 209.031 77.0807 209.266 77.1484C209.505 77.2161 209.711 77.3203 209.883 77.4609C210.049 77.6016 210.177 77.7812 210.266 78C210.354 78.2188 210.398 78.4818 210.398 78.7891C210.398 79.0339 210.359 79.2552 210.281 79.4531C210.208 79.651 210.099 79.8177 209.953 79.9531C209.802 80.1042 209.615 80.2188 209.391 80.2969C209.167 80.375 208.914 80.4141 208.633 80.4141C208.383 80.4141 208.154 80.3776 207.945 80.3047C207.737 80.2266 207.557 80.1198 207.406 79.9844C207.25 79.8542 207.13 79.6979 207.047 79.5156C206.964 79.3281 206.922 79.125 206.922 78.9062H204.75C204.75 79.4583 204.857 79.9375 205.07 80.3438C205.289 80.75 205.578 81.0859 205.938 81.3516C206.297 81.6224 206.706 81.8255 207.164 81.9609C207.628 82.0911 208.102 82.1562 208.586 82.1562C209.148 82.1562 209.672 82.0833 210.156 81.9375C210.646 81.7865 211.068 81.5677 211.422 81.2812C211.776 81 212.055 80.651 212.258 80.2344C212.461 79.8177 212.562 79.3438 212.562 78.8125C212.562 78.5104 212.526 78.224 212.453 77.9531C212.38 77.6823 212.268 77.4323 212.117 77.2031C211.966 76.9792 211.773 76.7786 211.539 76.6016C211.31 76.4245 211.036 76.2786 210.719 76.1641C210.99 76.0339 211.229 75.8802 211.438 75.7031C211.646 75.5208 211.82 75.3229 211.961 75.1094C212.102 74.8958 212.208 74.6719 212.281 74.4375C212.354 74.1979 212.391 73.9557 212.391 73.7109C212.391 73.1797 212.297 72.7135 212.109 72.3125C211.927 71.9062 211.669 71.5651 211.336 71.2891C211.003 71.0182 210.602 70.8151 210.133 70.6797C209.664 70.5391 209.148 70.4688 208.586 70.4688C208.065 70.4688 207.578 70.5443 207.125 70.6953C206.677 70.8464 206.286 71.0573 205.953 71.3281C205.62 71.6042 205.357 71.9323 205.164 72.3125C204.977 72.6927 204.883 73.1146 204.883 73.5781H207.055C207.055 73.3698 207.096 73.1823 207.18 73.0156C207.263 72.849 207.378 72.7057 207.523 72.5859C207.664 72.4714 207.828 72.3828 208.016 72.3203C208.208 72.2578 208.414 72.2266 208.633 72.2266C208.898 72.2266 209.13 72.263 209.328 72.3359C209.531 72.4089 209.698 72.5104 209.828 72.6406C209.958 72.776 210.055 72.9375 210.117 73.125C210.185 73.3073 210.219 73.5104 210.219 73.7344C210.219 73.9635 210.185 74.1771 210.117 74.375C210.055 74.5677 209.958 74.7318 209.828 74.8672C209.688 75.0234 209.503 75.1458 209.273 75.2344C209.049 75.3177 208.781 75.3594 208.469 75.3594H207.289ZM222.117 77.6719V74.9531C222.117 74.2188 222.031 73.5729 221.859 73.0156C221.688 72.4531 221.443 71.9818 221.125 71.6016C220.802 71.2266 220.411 70.9427 219.953 70.75C219.495 70.5573 218.979 70.4609 218.406 70.4609C217.839 70.4609 217.326 70.5573 216.867 70.75C216.414 70.9427 216.029 71.2266 215.711 71.6016C215.388 71.9818 215.141 72.4531 214.969 73.0156C214.797 73.5729 214.711 74.2188 214.711 74.9531V77.6719C214.711 78.4062 214.797 79.0547 214.969 79.6172C215.146 80.1745 215.396 80.6406 215.719 81.0156C216.036 81.3958 216.424 81.6823 216.883 81.875C217.341 82.0677 217.854 82.1641 218.422 82.1641C218.995 82.1641 219.51 82.0677 219.969 81.875C220.427 81.6823 220.815 81.3958 221.133 81.0156C221.451 80.6406 221.693 80.1745 221.859 79.6172C222.031 79.0547 222.117 78.4062 222.117 77.6719ZM216.898 76.7344C216.898 76.5729 216.898 76.4505 216.898 76.3672C216.898 76.2839 216.898 76.1172 216.898 75.8672V74.6094C216.898 74.1875 216.93 73.8229 216.992 73.5156C217.06 73.2083 217.161 72.9583 217.297 72.7656C217.422 72.5833 217.576 72.4479 217.758 72.3594C217.945 72.2656 218.161 72.2188 218.406 72.2188C218.625 72.2188 218.82 72.2552 218.992 72.3281C219.169 72.3958 219.318 72.5026 219.438 72.6484C219.594 72.8307 219.711 73.0755 219.789 73.3828C219.872 73.6849 219.919 74.0495 219.93 74.4766L216.898 76.7344ZM219.93 78C219.93 78.4219 219.896 78.7891 219.828 79.1016C219.766 79.4089 219.669 79.6615 219.539 79.8594C219.414 80.0469 219.258 80.1875 219.07 80.2812C218.883 80.3698 218.667 80.4141 218.422 80.4141C218.156 80.4141 217.927 80.362 217.734 80.2578C217.542 80.1536 217.383 79.9948 217.258 79.7812C217.148 79.6042 217.062 79.3828 217 79.1172C216.943 78.8516 216.909 78.5469 216.898 78.2031L219.93 75.9531C219.93 76.1042 219.93 76.2214 219.93 76.3047C219.93 76.3828 219.93 76.5078 219.93 76.6797V78ZM231.727 77.6719V74.9531C231.727 74.2188 231.641 73.5729 231.469 73.0156C231.297 72.4531 231.052 71.9818 230.734 71.6016C230.411 71.2266 230.021 70.9427 229.562 70.75C229.104 70.5573 228.589 70.4609 228.016 70.4609C227.448 70.4609 226.935 70.5573 226.477 70.75C226.023 70.9427 225.638 71.2266 225.32 71.6016C224.997 71.9818 224.75 72.4531 224.578 73.0156C224.406 73.5729 224.32 74.2188 224.32 74.9531V77.6719C224.32 78.4062 224.406 79.0547 224.578 79.6172C224.755 80.1745 225.005 80.6406 225.328 81.0156C225.646 81.3958 226.034 81.6823 226.492 81.875C226.951 82.0677 227.464 82.1641 228.031 82.1641C228.604 82.1641 229.12 82.0677 229.578 81.875C230.036 81.6823 230.424 81.3958 230.742 81.0156C231.06 80.6406 231.302 80.1745 231.469 79.6172C231.641 79.0547 231.727 78.4062 231.727 77.6719ZM226.508 76.7344C226.508 76.5729 226.508 76.4505 226.508 76.3672C226.508 76.2839 226.508 76.1172 226.508 75.8672V74.6094C226.508 74.1875 226.539 73.8229 226.602 73.5156C226.669 73.2083 226.771 72.9583 226.906 72.7656C227.031 72.5833 227.185 72.4479 227.367 72.3594C227.555 72.2656 227.771 72.2188 228.016 72.2188C228.234 72.2188 228.43 72.2552 228.602 72.3281C228.779 72.3958 228.927 72.5026 229.047 72.6484C229.203 72.8307 229.32 73.0755 229.398 73.3828C229.482 73.6849 229.529 74.0495 229.539 74.4766L226.508 76.7344ZM229.539 78C229.539 78.4219 229.505 78.7891 229.438 79.1016C229.375 79.4089 229.279 79.6615 229.148 79.8594C229.023 80.0469 228.867 80.1875 228.68 80.2812C228.492 80.3698 228.276 80.4141 228.031 80.4141C227.766 80.4141 227.536 80.362 227.344 80.2578C227.151 80.1536 226.992 79.9948 226.867 79.7812C226.758 79.6042 226.672 79.3828 226.609 79.1172C226.552 78.8516 226.518 78.5469 226.508 78.2031L229.539 75.9531C229.539 76.1042 229.539 76.2214 229.539 76.3047C229.539 76.3828 229.539 76.5078 229.539 76.6797V78ZM233.961 85.25H236.133V81.2656C236.232 81.375 236.336 81.474 236.445 81.5625C236.555 81.651 236.669 81.7318 236.789 81.8047C236.992 81.9193 237.211 82.0052 237.445 82.0625C237.685 82.125 237.945 82.1562 238.227 82.1562C238.758 82.1562 239.229 82.0469 239.641 81.8281C240.052 81.6094 240.398 81.3073 240.68 80.9219C240.956 80.5417 241.164 80.0885 241.305 79.5625C241.451 79.0365 241.523 78.4661 241.523 77.8516V77.6875C241.523 77.0469 241.451 76.4635 241.305 75.9375C241.164 75.4062 240.953 74.9505 240.672 74.5703C240.391 74.1953 240.044 73.9062 239.633 73.7031C239.221 73.4948 238.747 73.3906 238.211 73.3906C237.951 73.3906 237.706 73.4193 237.477 73.4766C237.253 73.5286 237.047 73.6042 236.859 73.7031C236.703 73.7865 236.557 73.8854 236.422 74C236.286 74.1094 236.161 74.2344 236.047 74.375L235.969 73.5469H233.961V85.25ZM239.352 77.6875V77.8516C239.352 78.2005 239.32 78.5312 239.258 78.8438C239.195 79.151 239.096 79.4219 238.961 79.6562C238.826 79.8906 238.648 80.0755 238.43 80.2109C238.216 80.3464 237.956 80.4141 237.648 80.4141C237.456 80.4141 237.281 80.3958 237.125 80.3594C236.969 80.3177 236.831 80.2604 236.711 80.1875C236.586 80.1094 236.474 80.0156 236.375 79.9062C236.281 79.7969 236.201 79.6745 236.133 79.5391V76.0078C236.206 75.862 236.292 75.7344 236.391 75.625C236.495 75.5156 236.615 75.4245 236.75 75.3516C236.87 75.2891 237.003 75.2422 237.148 75.2109C237.294 75.1745 237.456 75.1562 237.633 75.1562C237.94 75.1562 238.201 75.2214 238.414 75.3516C238.633 75.4818 238.812 75.6589 238.953 75.8828C239.089 76.112 239.188 76.3828 239.25 76.6953C239.318 77.0026 239.352 77.3333 239.352 77.6875ZM247.406 76.1875L245.578 73.5469H243.242L246.07 77.6953L243.133 82H245.484L247.414 79.2344L249.359 82H251.703L248.766 77.6953L251.602 73.5469H249.266L247.406 76.1875Z" fill="#6E33A6"/>
<path opacity="0.7" d="M110 51H157C161.971 51 166 55.0294 166 60V92C166 96.9706 161.971 101 157 101H110V51Z" fill="#5ED4B9"/>
<path opacity="0.7" d="M280 51H327C331.971 51 336 55.0294 336 60V92C336 96.9706 331.971 101 327 101H280V51Z" fill="#5ED4B9"/>
<path d="M138.711 75.6562V72.5781H136.641V75.6562H133.773V77.6406H136.641V80.8594H138.711V77.6406H141.57V75.6562H138.711Z" fill="#147264"/>
<path d="M308.711 75.6562V72.5781H306.641V75.6562H303.773V77.6406H306.641V80.8594H308.711V77.6406H311.57V75.6562H308.711Z" fill="#147264"/>
</svg>
