<svg width="736" height="169" viewBox="0 0 736 169" fill="none" xmlns="http://www.w3.org/2000/svg">
<rect x="1" y="42" width="153" height="126" rx="9" fill="#EFF1F3" stroke="#DADFE2" stroke-width="2"/>
<rect x="171" y="42" width="234" height="126" rx="9" fill="#EFF1F3" stroke="#DADFE2" stroke-width="2"/>
<rect x="422" y="42" width="313" height="126" rx="9" fill="#EFF1F3" stroke="#DADFE2" stroke-width="2"/>
<line x1="78.5" y1="41" x2="78.5" y2="169" stroke="#6E33A6"/>
<line x1="229.5" y1="41" x2="229.5" y2="169" stroke="#6E33A6"/>
<line x1="287.5" y1="41" x2="287.5" y2="169" stroke="#6E33A6"/>
<line x1="346.5" y1="41" x2="346.5" y2="169" stroke="#6E33A6"/>
<path opacity="0.2" d="M2 51C2 46.5817 5.58172 43 10 43H78V167H10C5.58172 167 2 163.418 2 159V51Z" fill="#6E33A6"/>
<path opacity="0.2" d="M79 43H145C149.418 43 153 46.5817 153 51V159C153 163.418 149.418 167 145 167H79V43Z" fill="#6E33A6"/>
<path opacity="0.2" d="M229 43H180C175.582 43 172 46.5817 172 51V159C172 163.418 175.582 167 180 167H229V43Z" fill="#6E33A6"/>
<path opacity="0.2" d="M347 43H396C400.418 43 404 46.5817 404 51V159C404 163.418 400.418 167 396 167H347V43Z" fill="#6E33A6"/>
<path opacity="0.2" d="M288 43H346V167H288V43Z" fill="#6E33A6"/>
<path opacity="0.2" d="M230 43H287V167H230V43Z" fill="#6E33A6"/>
<line x1="484.5" y1="41" x2="484.5" y2="169" stroke="#6E33A6"/>
<line x1="547.5" y1="41" x2="547.5" y2="169" stroke="#6E33A6"/>
<line x1="610.5" y1="41" x2="610.5" y2="169" stroke="#6E33A6"/>
<line x1="673.5" y1="41" x2="673.5" y2="169" stroke="#6E33A6"/>
<path opacity="0.2" d="M674 43H726C730.418 43 734 46.5817 734 51V159C734 163.418 730.418 167 726 167H674V43Z" fill="#6E33A6"/>
<path opacity="0.2" d="M611 43H673V167H611V43Z" fill="#6E33A6"/>
<path opacity="0.2" d="M548 43H610V167H548V43Z" fill="#6E33A6"/>
<path opacity="0.2" d="M485 43H547V167H485V43Z" fill="#6E33A6"/>
<path opacity="0.2" d="M423 51C423 46.5817 426.582 43 431 43H484V167H431C426.582 167 423 163.418 423 159V51Z" fill="#6E33A6"/>
<rect width="376" height="29" rx="10" fill="#EFF1F3"/>
<path d="M13.9219 17.4375H11.7266C11.7057 17.7812 11.6484 18.0755 11.5547 18.3203C11.4609 18.5651 11.3333 18.7656 11.1719 18.9219C11.0104 19.0781 10.8151 19.1927 10.5859 19.2656C10.3568 19.3385 10.099 19.375 9.8125 19.375C9.59896 19.375 9.40365 19.3516 9.22656 19.3047C9.05469 19.2526 8.89844 19.1745 8.75781 19.0703C8.6276 18.9766 8.51042 18.8594 8.40625 18.7188C8.30729 18.5781 8.22135 18.4167 8.14844 18.2344C8.04427 17.9688 7.96615 17.6589 7.91406 17.3047C7.86719 16.9453 7.84375 16.5391 7.84375 16.0859L7.84375 14.5391C7.84375 14.2057 7.85938 13.8958 7.89062 13.6094C7.92188 13.3177 7.97135 13.0521 8.03906 12.8125C8.1276 12.5052 8.24479 12.237 8.39062 12.0078C8.54167 11.7734 8.72396 11.5938 8.9375 11.4688C9.0625 11.3958 9.19792 11.3411 9.34375 11.3047C9.49479 11.2682 9.65625 11.25 9.82812 11.25C10.151 11.25 10.4271 11.2943 10.6562 11.3828C10.8906 11.4661 11.0859 11.5911 11.2422 11.7578C11.3932 11.9297 11.5078 12.1432 11.5859 12.3984C11.6693 12.6536 11.7214 12.9505 11.7422 13.2891H13.9297C13.8776 12.6953 13.7526 12.1615 13.5547 11.6875C13.3568 11.2135 13.0859 10.8125 12.7422 10.4844C12.3984 10.1562 11.9818 9.90365 11.4922 9.72656C11.0078 9.54948 10.4531 9.46094 9.82812 9.46094C9.40625 9.46094 9.01042 9.51562 8.64062 9.625C8.27604 9.72917 7.9401 9.88021 7.63281 10.0781C7.28906 10.3125 6.98177 10.599 6.71094 10.9375C6.4401 11.276 6.22135 11.6615 6.05469 12.0938C5.90885 12.4479 5.79948 12.8333 5.72656 13.25C5.65365 13.6615 5.61719 14.0964 5.61719 14.5547V16.0859C5.61719 16.5755 5.65625 17.0391 5.73437 17.4766C5.81771 17.9141 5.9349 18.3151 6.08594 18.6797C6.24219 19.0443 6.43229 19.3776 6.65625 19.6797C6.88542 19.9818 7.14583 20.2396 7.4375 20.4531C7.75521 20.6823 8.11198 20.8594 8.50781 20.9844C8.90885 21.1042 9.34375 21.1641 9.8125 21.1641C10.4062 21.1641 10.9479 21.0781 11.4375 20.9062C11.9271 20.7292 12.349 20.4792 12.7031 20.1562C13.0573 19.8333 13.3385 19.4427 13.5469 18.9844C13.7604 18.526 13.8854 18.0104 13.9219 17.4375ZM15.4141 16.6953V16.8594C15.4141 17.4792 15.5026 18.0521 15.6797 18.5781C15.8568 19.099 16.1172 19.5521 16.4609 19.9375C16.7995 20.3229 17.2161 20.625 17.7109 20.8438C18.2109 21.0573 18.7786 21.1641 19.4141 21.1641C20.0443 21.1641 20.6068 21.0573 21.1016 20.8438C21.5964 20.625 22.013 20.3229 22.3516 19.9375C22.6901 19.5521 22.9479 19.099 23.125 18.5781C23.3021 18.0521 23.3906 17.4792 23.3906 16.8594V16.6953C23.3906 16.0807 23.3021 15.513 23.125 14.9922C22.9479 14.4661 22.6901 14.0104 22.3516 13.625C22.0078 13.2396 21.5885 12.9375 21.0938 12.7188C20.599 12.5 20.0339 12.3906 19.3984 12.3906C18.763 12.3906 18.1979 12.5 17.7031 12.7188C17.2135 12.9375 16.7995 13.2396 16.4609 13.625C16.1172 14.0104 15.8568 14.4661 15.6797 14.9922C15.5026 15.513 15.4141 16.0807 15.4141 16.6953ZM17.5859 16.8594V16.6953C17.5859 16.3516 17.6198 16.026 17.6875 15.7188C17.7552 15.4115 17.862 15.1406 18.0078 14.9062C18.1536 14.6719 18.3411 14.487 18.5703 14.3516C18.7995 14.2161 19.0755 14.1484 19.3984 14.1484C19.7266 14.1484 20.0052 14.2161 20.2344 14.3516C20.4635 14.487 20.651 14.6719 20.7969 14.9062C20.9375 15.1406 21.0417 15.4115 21.1094 15.7188C21.1771 16.026 21.2109 16.3516 21.2109 16.6953V16.8594C21.2109 17.2135 21.1771 17.5469 21.1094 17.8594C21.0417 18.1667 20.9375 18.4349 20.7969 18.6641C20.651 18.8984 20.4635 19.0833 20.2344 19.2188C20.0052 19.3542 19.7318 19.4219 19.4141 19.4219C19.0859 19.4219 18.8047 19.3542 18.5703 19.2188C18.3411 19.0833 18.1536 18.8984 18.0078 18.6641C17.862 18.4349 17.7552 18.1667 17.6875 17.8594C17.6198 17.5469 17.5859 17.2135 17.5859 16.8594ZM25.7734 9V10.7734H28.3047V19.2344H25.7734V21H32.9219V19.2344H30.5V9L25.7734 9ZM40.4453 21H42.4141V12.5469H40.2344V18.4766C40.1667 18.612 40.0859 18.7344 39.9922 18.8438C39.8984 18.9531 39.7917 19.0469 39.6719 19.125C39.5312 19.2135 39.3672 19.2812 39.1797 19.3281C38.9974 19.375 38.7917 19.3984 38.5625 19.3984C38.3073 19.3984 38.0911 19.3672 37.9141 19.3047C37.737 19.2422 37.5938 19.138 37.4844 18.9922C37.375 18.8516 37.2943 18.6641 37.2422 18.4297C37.1953 18.1953 37.1719 17.9062 37.1719 17.5625V12.5469H35V17.5469C35 18.1875 35.0703 18.737 35.2109 19.1953C35.3568 19.6484 35.5599 20.0208 35.8203 20.3125C36.0807 20.6094 36.3932 20.8255 36.7578 20.9609C37.1224 21.0964 37.5234 21.1641 37.9609 21.1641C38.4401 21.1641 38.8802 21.0443 39.2812 20.8047C39.6875 20.5651 40.0339 20.2344 40.3203 19.8125L40.4453 21ZM44.5391 21H46.7188V14.9922C46.7917 14.8776 46.8724 14.7734 46.9609 14.6797C47.0495 14.5859 47.1484 14.5052 47.2578 14.4375C47.3932 14.3438 47.5469 14.2734 47.7188 14.2266C47.8958 14.1797 48.0885 14.1563 48.2969 14.1563C48.5469 14.1563 48.7708 14.1823 48.9688 14.2344C49.1667 14.2813 49.3359 14.3672 49.4766 14.4922C49.6172 14.6172 49.724 14.7891 49.7969 15.0078C49.875 15.2214 49.9141 15.4948 49.9141 15.8281V21H52.0859V15.7969C52.0859 15.1823 52.013 14.6615 51.8672 14.2344C51.7266 13.8021 51.5286 13.4479 51.2734 13.1719C51.013 12.901 50.7057 12.7031 50.3516 12.5781C49.9974 12.4531 49.6068 12.3906 49.1797 12.3906C48.8464 12.3906 48.5312 12.4375 48.2344 12.5313C47.9375 12.625 47.6641 12.7604 47.4141 12.9375C47.2682 13.0417 47.1302 13.1589 47 13.2891C46.8698 13.4193 46.75 13.5625 46.6406 13.7188L46.5078 12.5469H44.5391V21ZM59.4297 21H61.6328V20.8672C61.5234 20.6536 61.4401 20.3984 61.3828 20.1016C61.3255 19.8047 61.2969 19.4297 61.2969 18.9766V15.3516C61.2969 14.862 61.2057 14.4323 61.0234 14.0625C60.8411 13.6875 60.5885 13.3776 60.2656 13.1328C59.9427 12.888 59.5599 12.7031 59.1172 12.5781C58.6797 12.4531 58.2057 12.3906 57.6953 12.3906C57.1276 12.3906 56.6224 12.4635 56.1797 12.6094C55.7422 12.75 55.3724 12.9427 55.0703 13.1875C54.763 13.4323 54.5286 13.7161 54.3672 14.0391C54.2109 14.362 54.1328 14.7031 54.1328 15.0625H56.3047C56.3047 14.9115 56.3255 14.7734 56.3672 14.6484C56.4141 14.5234 56.4844 14.4167 56.5781 14.3281C56.6823 14.2292 56.8177 14.1536 56.9844 14.1016C57.151 14.0443 57.349 14.0156 57.5781 14.0156C57.8385 14.0156 58.0651 14.0495 58.2578 14.1172C58.4557 14.1797 58.6198 14.2708 58.75 14.3906C58.875 14.5052 58.9688 14.6432 59.0312 14.8047C59.0938 14.9609 59.125 15.138 59.125 15.3359V15.8359H57.9141C57.2891 15.8359 56.7344 15.8932 56.25 16.0078C55.7708 16.1172 55.3672 16.2786 55.0391 16.4922C54.6745 16.7266 54.401 17.026 54.2188 17.3906C54.0365 17.75 53.9453 18.1641 53.9453 18.6328C53.9453 18.9974 54.0182 19.3359 54.1641 19.6484C54.3099 19.9557 54.513 20.2214 54.7734 20.4453C55.0339 20.6693 55.3438 20.8438 55.7031 20.9688C56.0677 21.0938 56.4661 21.1563 56.8984 21.1563C57.1641 21.1563 57.4115 21.1302 57.6406 21.0781C57.8698 21.0313 58.0807 20.9635 58.2734 20.875C58.4609 20.7917 58.6328 20.6927 58.7891 20.5781C58.9453 20.4635 59.0833 20.3411 59.2031 20.2109C59.2292 20.362 59.2604 20.5052 59.2969 20.6406C59.3333 20.776 59.3776 20.8958 59.4297 21ZM57.3594 19.4766C57.1562 19.4766 56.9766 19.4531 56.8203 19.4063C56.6693 19.3542 56.5417 19.2865 56.4375 19.2031C56.3333 19.1146 56.2526 19.0078 56.1953 18.8828C56.1432 18.7526 56.1172 18.612 56.1172 18.4609C56.1172 18.2682 56.1536 18.0911 56.2266 17.9297C56.2995 17.763 56.4115 17.6198 56.5625 17.5C56.7135 17.3854 56.9089 17.2969 57.1484 17.2344C57.388 17.1667 57.6771 17.1328 58.0156 17.1328H59.125V18.5859C59.0625 18.6953 58.9766 18.8047 58.8672 18.9141C58.7578 19.0182 58.6276 19.112 58.4766 19.1953C58.3255 19.2786 58.1562 19.3464 57.9688 19.3984C57.7812 19.4505 57.5781 19.4766 57.3594 19.4766ZM69.2109 18.6797C69.2109 18.8099 69.1771 18.9297 69.1094 19.0391C69.0469 19.1484 68.9505 19.2448 68.8203 19.3281C68.6849 19.4115 68.5104 19.4792 68.2969 19.5313C68.0885 19.5781 67.8438 19.6016 67.5625 19.6016C67.3281 19.6016 67.099 19.5781 66.875 19.5313C66.6562 19.4844 66.4609 19.4089 66.2891 19.3047C66.1172 19.2057 65.9766 19.0755 65.8672 18.9141C65.7578 18.7474 65.6953 18.5495 65.6797 18.3203H63.6094C63.6094 18.6641 63.6927 19.0078 63.8594 19.3516C64.0312 19.6901 64.2812 19.9922 64.6094 20.2578C64.9375 20.5286 65.3438 20.7474 65.8281 20.9141C66.3177 21.0807 66.8802 21.1641 67.5156 21.1641C68.0938 21.1641 68.6172 21.1016 69.0859 20.9766C69.5547 20.8464 69.9557 20.6667 70.2891 20.4375C70.6172 20.2083 70.8698 19.9375 71.0469 19.625C71.2292 19.3073 71.3203 18.9609 71.3203 18.5859C71.3203 18.1797 71.2292 17.8307 71.0469 17.5391C70.8698 17.2422 70.6224 16.9896 70.3047 16.7813C69.987 16.5781 69.6094 16.4115 69.1719 16.2813C68.7344 16.151 68.2604 16.0443 67.75 15.9609C67.3958 15.9089 67.1042 15.849 66.875 15.7813C66.6458 15.7083 66.4661 15.6276 66.3359 15.5391C66.2005 15.4557 66.1068 15.362 66.0547 15.2578C66.0026 15.1484 65.9766 15.0313 65.9766 14.9063C65.9766 14.7813 66.0052 14.6641 66.0625 14.5547C66.125 14.4401 66.2135 14.3411 66.3281 14.2578C66.4531 14.1641 66.6146 14.0911 66.8125 14.0391C67.0104 13.987 67.2422 13.9609 67.5078 13.9609C67.8203 13.9609 68.0859 14 68.3047 14.0781C68.5286 14.1563 68.7057 14.2604 68.8359 14.3906C68.9297 14.4896 69 14.6016 69.0469 14.7266C69.0938 14.8464 69.1172 14.9766 69.1172 15.1172H71.2891C71.2891 14.7266 71.2031 14.3646 71.0312 14.0313C70.8594 13.6979 70.612 13.4089 70.2891 13.1641C69.9609 12.9245 69.5625 12.737 69.0938 12.6016C68.625 12.4609 68.0964 12.3906 67.5078 12.3906C66.9453 12.3906 66.4401 12.4609 65.9922 12.6016C65.5443 12.7422 65.1641 12.9323 64.8516 13.1719C64.5391 13.4115 64.2995 13.6901 64.1328 14.0078C63.9661 14.3255 63.8828 14.6589 63.8828 15.0078C63.8828 15.3672 63.9635 15.6849 64.125 15.9609C64.2917 16.237 64.5208 16.4792 64.8125 16.6875C65.1042 16.901 65.4531 17.0833 65.8594 17.2344C66.2708 17.3802 66.724 17.5026 67.2188 17.6016C67.6094 17.6745 67.9323 17.7474 68.1875 17.8203C68.4427 17.8932 68.6484 17.9714 68.8047 18.0547C68.9557 18.1432 69.0599 18.237 69.1172 18.3359C69.1797 18.4349 69.2109 18.5495 69.2109 18.6797ZM86.7188 19.4219C86.3698 19.4219 86.0807 19.3516 85.8516 19.2109C85.6276 19.0703 85.4505 18.8828 85.3203 18.6484C85.1849 18.4193 85.0911 18.1536 85.0391 17.8516C84.987 17.5443 84.9609 17.2266 84.9609 16.8984V16.6641C84.9609 16.3411 84.987 16.0286 85.0391 15.7266C85.0964 15.4245 85.1927 15.1563 85.3281 14.9219C85.4583 14.6875 85.6354 14.5 85.8594 14.3594C86.0833 14.2188 86.3672 14.1484 86.7109 14.1484C86.9453 14.1484 87.1615 14.1901 87.3594 14.2734C87.5573 14.3516 87.7266 14.4583 87.8672 14.5938C88.0078 14.7292 88.1146 14.8906 88.1875 15.0781C88.2604 15.2656 88.2917 15.4635 88.2812 15.6719H90.3281C90.3385 15.1719 90.2552 14.7214 90.0781 14.3203C89.901 13.9141 89.6536 13.5677 89.3359 13.2813C89.013 13 88.6302 12.7813 88.1875 12.625C87.7448 12.4688 87.263 12.3906 86.7422 12.3906C86.0911 12.3906 85.5182 12.5026 85.0234 12.7266C84.5339 12.9505 84.1224 13.2552 83.7891 13.6406C83.4557 14.026 83.2057 14.4792 83.0391 15C82.8724 15.5156 82.7891 16.0703 82.7891 16.6641V16.8984C82.7891 17.4922 82.8724 18.0495 83.0391 18.5703C83.2109 19.0859 83.4635 19.5365 83.7969 19.9219C84.125 20.3073 84.5365 20.612 85.0312 20.8359C85.526 21.0547 86.1016 21.1641 86.7578 21.1641C87.2422 21.1641 87.7005 21.0885 88.1328 20.9375C88.5703 20.7813 88.9531 20.5677 89.2812 20.2969C89.6094 20.026 89.8672 19.7031 90.0547 19.3281C90.2474 18.9531 90.3385 18.5469 90.3281 18.1094H88.2812C88.2917 18.3073 88.2552 18.487 88.1719 18.6484C88.0938 18.8099 87.9818 18.9479 87.8359 19.0625C87.6901 19.1771 87.5208 19.2656 87.3281 19.3281C87.1354 19.3906 86.9323 19.4219 86.7188 19.4219ZM92.2891 16.6953V16.8594C92.2891 17.4792 92.3776 18.0521 92.5547 18.5781C92.7318 19.099 92.9922 19.5521 93.3359 19.9375C93.6745 20.3229 94.0911 20.625 94.5859 20.8438C95.0859 21.0573 95.6536 21.1641 96.2891 21.1641C96.9193 21.1641 97.4818 21.0573 97.9766 20.8438C98.4714 20.625 98.888 20.3229 99.2266 19.9375C99.5651 19.5521 99.8229 19.099 100 18.5781C100.177 18.0521 100.266 17.4792 100.266 16.8594V16.6953C100.266 16.0807 100.177 15.513 100 14.9922C99.8229 14.4661 99.5651 14.0104 99.2266 13.625C98.8828 13.2396 98.4635 12.9375 97.9688 12.7188C97.474 12.5 96.9089 12.3906 96.2734 12.3906C95.638 12.3906 95.0729 12.5 94.5781 12.7188C94.0885 12.9375 93.6745 13.2396 93.3359 13.625C92.9922 14.0104 92.7318 14.4661 92.5547 14.9922C92.3776 15.513 92.2891 16.0807 92.2891 16.6953ZM94.4609 16.8594V16.6953C94.4609 16.3516 94.4948 16.026 94.5625 15.7188C94.6302 15.4115 94.737 15.1406 94.8828 14.9063C95.0286 14.6719 95.2161 14.487 95.4453 14.3516C95.6745 14.2161 95.9505 14.1484 96.2734 14.1484C96.6016 14.1484 96.8802 14.2161 97.1094 14.3516C97.3385 14.487 97.526 14.6719 97.6719 14.9063C97.8125 15.1406 97.9167 15.4115 97.9844 15.7188C98.0521 16.026 98.0859 16.3516 98.0859 16.6953V16.8594C98.0859 17.2135 98.0521 17.5469 97.9844 17.8594C97.9167 18.1667 97.8125 18.4349 97.6719 18.6641C97.526 18.8984 97.3385 19.0833 97.1094 19.2188C96.8802 19.3542 96.6068 19.4219 96.2891 19.4219C95.9609 19.4219 95.6797 19.3542 95.4453 19.2188C95.2161 19.0833 95.0286 18.8984 94.8828 18.6641C94.737 18.4349 94.6302 18.1667 94.5625 17.8594C94.4948 17.5469 94.4609 17.2135 94.4609 16.8594ZM103.547 12.5469H101.68V21H103.656V14.6719C103.682 14.6042 103.711 14.5417 103.742 14.4844C103.773 14.4271 103.81 14.3776 103.852 14.3359C103.909 14.2786 103.974 14.2344 104.047 14.2031C104.12 14.1719 104.203 14.1563 104.297 14.1563C104.38 14.1563 104.458 14.1693 104.531 14.1953C104.604 14.2161 104.669 14.2552 104.727 14.3125C104.779 14.3698 104.82 14.4505 104.852 14.5547C104.883 14.6589 104.898 14.7917 104.898 14.9531V21H106.812V14.7656C106.812 14.7031 106.812 14.6536 106.812 14.6172C106.812 14.5807 106.812 14.5573 106.812 14.5469C106.839 14.4896 106.87 14.4401 106.906 14.3984C106.943 14.3516 106.984 14.3099 107.031 14.2734C107.089 14.237 107.148 14.2083 107.211 14.1875C107.279 14.1667 107.354 14.1563 107.438 14.1563C107.516 14.1563 107.591 14.1693 107.664 14.1953C107.742 14.2161 107.81 14.2552 107.867 14.3125C107.924 14.375 107.969 14.4583 108 14.5625C108.036 14.6667 108.055 14.7995 108.055 14.9609V21H110.031V14.9688C110.031 14.5 109.984 14.1042 109.891 13.7813C109.802 13.4531 109.677 13.1849 109.516 12.9766C109.349 12.7734 109.154 12.625 108.93 12.5313C108.711 12.4375 108.474 12.3906 108.219 12.3906C108.016 12.3906 107.828 12.4167 107.656 12.4688C107.484 12.5208 107.331 12.5938 107.195 12.6875C107.086 12.7604 106.984 12.849 106.891 12.9531C106.802 13.0521 106.721 13.1641 106.648 13.2891C106.602 13.1589 106.544 13.0443 106.477 12.9453C106.414 12.8411 106.339 12.7526 106.25 12.6797C106.135 12.5807 106 12.5078 105.844 12.4609C105.688 12.4141 105.51 12.3906 105.312 12.3906C104.906 12.3906 104.56 12.4974 104.273 12.7109C103.992 12.9193 103.771 13.2057 103.609 13.5703L103.547 12.5469ZM127.484 12.3906C126.917 12.3906 126.393 12.5286 125.914 12.8047C125.435 13.0755 125.023 13.4505 124.68 13.9297L124.664 13.7422L124.578 12.5469H122.555V21H124.727V15.9219C124.826 15.6823 124.951 15.474 125.102 15.2969C125.253 15.1198 125.435 14.974 125.648 14.8594C125.826 14.7604 126.026 14.6875 126.25 14.6406C126.479 14.5885 126.734 14.5625 127.016 14.5625C127.286 14.5625 127.57 14.5807 127.867 14.6172C128.169 14.6484 128.464 14.6979 128.75 14.7656L129.07 12.6016C128.898 12.5495 128.672 12.5026 128.391 12.4609C128.115 12.4141 127.812 12.3906 127.484 12.3906ZM135.125 21.1563C135.943 21.1563 136.651 20.9974 137.25 20.6797C137.849 20.362 138.286 20.0078 138.562 19.6172L137.477 18.4453C137.227 18.7682 136.901 19.0104 136.5 19.1719C136.099 19.3333 135.685 19.4141 135.258 19.4141C134.956 19.4141 134.677 19.3672 134.422 19.2734C134.167 19.1797 133.94 19.0469 133.742 18.875C133.549 18.7083 133.396 18.5234 133.281 18.3203C133.167 18.112 133.073 17.8385 133 17.5V17.4766H138.734V16.5547C138.734 15.9349 138.648 15.3698 138.477 14.8594C138.305 14.3438 138.055 13.9036 137.727 13.5391C137.393 13.1745 136.987 12.8932 136.508 12.6953C136.034 12.4922 135.492 12.3906 134.883 12.3906C134.294 12.3906 133.75 12.4974 133.25 12.7109C132.75 12.9245 132.318 13.224 131.953 13.6094C131.589 13.9948 131.305 14.4557 131.102 14.9922C130.898 15.5234 130.797 16.112 130.797 16.7578V17.0703C130.797 17.638 130.898 18.1719 131.102 18.6719C131.31 19.1667 131.604 19.5964 131.984 19.9609C132.365 20.3307 132.82 20.6224 133.352 20.8359C133.883 21.0495 134.474 21.1563 135.125 21.1563ZM134.867 14.1484C135.143 14.1484 135.385 14.1927 135.594 14.2813C135.807 14.3646 135.987 14.4792 136.133 14.625C136.279 14.776 136.393 14.9531 136.477 15.1563C136.56 15.3594 136.602 15.5755 136.602 15.8047V15.9766H133.039C133.091 15.7005 133.169 15.4505 133.273 15.2266C133.378 15.0026 133.508 14.8099 133.664 14.6484C133.815 14.487 133.992 14.3646 134.195 14.2813C134.398 14.1927 134.622 14.1484 134.867 14.1484ZM140.664 24.25H142.836V20.2656C142.935 20.375 143.039 20.474 143.148 20.5625C143.258 20.651 143.372 20.7318 143.492 20.8047C143.695 20.9193 143.914 21.0052 144.148 21.0625C144.388 21.125 144.648 21.1563 144.93 21.1563C145.461 21.1563 145.932 21.0469 146.344 20.8281C146.755 20.6094 147.102 20.3073 147.383 19.9219C147.659 19.5417 147.867 19.0885 148.008 18.5625C148.154 18.0365 148.227 17.4661 148.227 16.8516V16.6875C148.227 16.0469 148.154 15.4635 148.008 14.9375C147.867 14.4063 147.656 13.9505 147.375 13.5703C147.094 13.1953 146.747 12.9063 146.336 12.7031C145.924 12.4948 145.451 12.3906 144.914 12.3906C144.654 12.3906 144.409 12.4193 144.18 12.4766C143.956 12.5286 143.75 12.6042 143.562 12.7031C143.406 12.7865 143.26 12.8854 143.125 13C142.99 13.1094 142.865 13.2344 142.75 13.375L142.672 12.5469H140.664V24.25ZM146.055 16.6875V16.8516C146.055 17.2005 146.023 17.5313 145.961 17.8438C145.898 18.151 145.799 18.4219 145.664 18.6563C145.529 18.8906 145.352 19.0755 145.133 19.2109C144.919 19.3464 144.659 19.4141 144.352 19.4141C144.159 19.4141 143.984 19.3958 143.828 19.3594C143.672 19.3177 143.534 19.2604 143.414 19.1875C143.289 19.1094 143.177 19.0156 143.078 18.9063C142.984 18.7969 142.904 18.6745 142.836 18.5391V15.0078C142.909 14.862 142.995 14.7344 143.094 14.625C143.198 14.5156 143.318 14.4245 143.453 14.3516C143.573 14.2891 143.706 14.2422 143.852 14.2109C143.997 14.1745 144.159 14.1563 144.336 14.1563C144.643 14.1563 144.904 14.2214 145.117 14.3516C145.336 14.4818 145.516 14.6589 145.656 14.8828C145.792 15.112 145.891 15.3828 145.953 15.6953C146.021 16.0026 146.055 16.3333 146.055 16.6875ZM154.344 21.1563C155.161 21.1563 155.87 20.9974 156.469 20.6797C157.068 20.362 157.505 20.0078 157.781 19.6172L156.695 18.4453C156.445 18.7682 156.12 19.0104 155.719 19.1719C155.318 19.3333 154.904 19.4141 154.477 19.4141C154.174 19.4141 153.896 19.3672 153.641 19.2734C153.385 19.1797 153.159 19.0469 152.961 18.875C152.768 18.7083 152.615 18.5234 152.5 18.3203C152.385 18.112 152.292 17.8385 152.219 17.5V17.4766H157.953V16.5547C157.953 15.9349 157.867 15.3698 157.695 14.8594C157.523 14.3438 157.273 13.9036 156.945 13.5391C156.612 13.1745 156.206 12.8932 155.727 12.6953C155.253 12.4922 154.711 12.3906 154.102 12.3906C153.513 12.3906 152.969 12.4974 152.469 12.7109C151.969 12.9245 151.536 13.224 151.172 13.6094C150.807 13.9948 150.523 14.4557 150.32 14.9922C150.117 15.5234 150.016 16.112 150.016 16.7578V17.0703C150.016 17.638 150.117 18.1719 150.32 18.6719C150.529 19.1667 150.823 19.5964 151.203 19.9609C151.583 20.3307 152.039 20.6224 152.57 20.8359C153.102 21.0495 153.693 21.1563 154.344 21.1563ZM154.086 14.1484C154.362 14.1484 154.604 14.1927 154.812 14.2813C155.026 14.3646 155.206 14.4792 155.352 14.625C155.497 14.776 155.612 14.9531 155.695 15.1563C155.779 15.3594 155.82 15.5755 155.82 15.8047V15.9766H152.258C152.31 15.7005 152.388 15.4505 152.492 15.2266C152.596 15.0026 152.727 14.8099 152.883 14.6484C153.034 14.487 153.211 14.3646 153.414 14.2813C153.617 14.1927 153.841 14.1484 154.086 14.1484ZM165.133 21H167.336V20.8672C167.227 20.6536 167.143 20.3984 167.086 20.1016C167.029 19.8047 167 19.4297 167 18.9766V15.3516C167 14.862 166.909 14.4323 166.727 14.0625C166.544 13.6875 166.292 13.3776 165.969 13.1328C165.646 12.888 165.263 12.7031 164.82 12.5781C164.383 12.4531 163.909 12.3906 163.398 12.3906C162.831 12.3906 162.326 12.4635 161.883 12.6094C161.445 12.75 161.076 12.9427 160.773 13.1875C160.466 13.4323 160.232 13.7161 160.07 14.0391C159.914 14.362 159.836 14.7031 159.836 15.0625H162.008C162.008 14.9115 162.029 14.7734 162.07 14.6484C162.117 14.5234 162.188 14.4167 162.281 14.3281C162.385 14.2292 162.521 14.1536 162.688 14.1016C162.854 14.0443 163.052 14.0156 163.281 14.0156C163.542 14.0156 163.768 14.0495 163.961 14.1172C164.159 14.1797 164.323 14.2708 164.453 14.3906C164.578 14.5052 164.672 14.6432 164.734 14.8047C164.797 14.9609 164.828 15.138 164.828 15.3359V15.8359H163.617C162.992 15.8359 162.438 15.8932 161.953 16.0078C161.474 16.1172 161.07 16.2786 160.742 16.4922C160.378 16.7266 160.104 17.026 159.922 17.3906C159.74 17.75 159.648 18.1641 159.648 18.6328C159.648 18.9974 159.721 19.3359 159.867 19.6484C160.013 19.9557 160.216 20.2214 160.477 20.4453C160.737 20.6693 161.047 20.8438 161.406 20.9688C161.771 21.0938 162.169 21.1563 162.602 21.1563C162.867 21.1563 163.115 21.1302 163.344 21.0781C163.573 21.0313 163.784 20.9635 163.977 20.875C164.164 20.7917 164.336 20.6927 164.492 20.5781C164.648 20.4635 164.786 20.3411 164.906 20.2109C164.932 20.362 164.964 20.5052 165 20.6406C165.036 20.776 165.081 20.8958 165.133 21ZM163.062 19.4766C162.859 19.4766 162.68 19.4531 162.523 19.4063C162.372 19.3542 162.245 19.2865 162.141 19.2031C162.036 19.1146 161.956 19.0078 161.898 18.8828C161.846 18.7526 161.82 18.612 161.82 18.4609C161.82 18.2682 161.857 18.0911 161.93 17.9297C162.003 17.763 162.115 17.6198 162.266 17.5C162.417 17.3854 162.612 17.2969 162.852 17.2344C163.091 17.1667 163.38 17.1328 163.719 17.1328H164.828V18.5859C164.766 18.6953 164.68 18.8047 164.57 18.9141C164.461 19.0182 164.331 19.112 164.18 19.1953C164.029 19.2786 163.859 19.3464 163.672 19.3984C163.484 19.4505 163.281 19.4766 163.062 19.4766ZM173.445 10.4766L171.273 10.4766V12.5469H169.344V14.1484H171.273V17.9922C171.273 18.5495 171.346 19.0286 171.492 19.4297C171.638 19.8255 171.846 20.151 172.117 20.4063C172.383 20.6667 172.703 20.8594 173.078 20.9844C173.458 21.1042 173.88 21.1641 174.344 21.1641C174.583 21.1641 174.826 21.151 175.07 21.125C175.32 21.1042 175.56 21.0729 175.789 21.0313C176.018 20.9896 176.234 20.9375 176.438 20.875C176.641 20.8073 176.818 20.7292 176.969 20.6406L176.758 19.1484C176.659 19.1745 176.539 19.2005 176.398 19.2266C176.263 19.2526 176.117 19.276 175.961 19.2969C175.799 19.3229 175.63 19.3438 175.453 19.3594C175.281 19.375 175.112 19.3828 174.945 19.3828C174.716 19.3828 174.508 19.3568 174.32 19.3047C174.138 19.2526 173.982 19.1641 173.852 19.0391C173.721 18.9193 173.62 18.7578 173.547 18.5547C173.479 18.3464 173.445 18.0885 173.445 17.7813V14.1484H176.602V12.5469H173.445V10.4766ZM180.664 16.375V16.5469C180.664 17.2865 180.719 17.9792 180.828 18.625C180.943 19.2708 181.096 19.8672 181.289 20.4141C181.482 20.9661 181.706 21.4688 181.961 21.9219C182.221 22.375 182.495 22.7734 182.781 23.1172C183.068 23.4661 183.362 23.763 183.664 24.0078C183.971 24.2526 184.268 24.4401 184.555 24.5703L184.977 23.3984C184.773 23.2422 184.568 23.0469 184.359 22.8125C184.151 22.5781 183.953 22.3021 183.766 21.9844C183.589 21.6927 183.422 21.3516 183.266 20.9609C183.115 20.5703 182.982 20.1458 182.867 19.6875C182.784 19.3594 182.706 18.9193 182.633 18.3672C182.565 17.8151 182.531 17.2135 182.531 16.5625V16.3594C182.531 15.6979 182.568 15.0859 182.641 14.5234C182.714 13.9609 182.81 13.4479 182.93 12.9844C183.065 12.5052 183.221 12.0625 183.398 11.6563C183.581 11.25 183.776 10.8984 183.984 10.6016C184.146 10.3724 184.31 10.1693 184.477 9.99219C184.643 9.8151 184.81 9.66406 184.977 9.53906L184.555 8.35156C184.268 8.48177 183.971 8.66927 183.664 8.91406C183.362 9.15365 183.068 9.44792 182.781 9.79688C182.495 10.1458 182.221 10.5469 181.961 11C181.706 11.4531 181.482 11.9531 181.289 12.5C181.096 13.0521 180.943 13.6536 180.828 14.3047C180.719 14.9505 180.664 15.6406 180.664 16.375ZM193.961 21H196.164V20.8672C196.055 20.6536 195.971 20.3984 195.914 20.1016C195.857 19.8047 195.828 19.4297 195.828 18.9766V15.3516C195.828 14.862 195.737 14.4323 195.555 14.0625C195.372 13.6875 195.12 13.3776 194.797 13.1328C194.474 12.888 194.091 12.7031 193.648 12.5781C193.211 12.4531 192.737 12.3906 192.227 12.3906C191.659 12.3906 191.154 12.4635 190.711 12.6094C190.273 12.75 189.904 12.9427 189.602 13.1875C189.294 13.4323 189.06 13.7161 188.898 14.0391C188.742 14.362 188.664 14.7031 188.664 15.0625H190.836C190.836 14.9115 190.857 14.7734 190.898 14.6484C190.945 14.5234 191.016 14.4167 191.109 14.3281C191.214 14.2292 191.349 14.1536 191.516 14.1016C191.682 14.0443 191.88 14.0156 192.109 14.0156C192.37 14.0156 192.596 14.0495 192.789 14.1172C192.987 14.1797 193.151 14.2708 193.281 14.3906C193.406 14.5052 193.5 14.6432 193.562 14.8047C193.625 14.9609 193.656 15.138 193.656 15.3359V15.8359H192.445C191.82 15.8359 191.266 15.8932 190.781 16.0078C190.302 16.1172 189.898 16.2786 189.57 16.4922C189.206 16.7266 188.932 17.026 188.75 17.3906C188.568 17.75 188.477 18.1641 188.477 18.6328C188.477 18.9974 188.549 19.3359 188.695 19.6484C188.841 19.9557 189.044 20.2214 189.305 20.4453C189.565 20.6693 189.875 20.8438 190.234 20.9688C190.599 21.0938 190.997 21.1563 191.43 21.1563C191.695 21.1563 191.943 21.1302 192.172 21.0781C192.401 21.0313 192.612 20.9635 192.805 20.875C192.992 20.7917 193.164 20.6927 193.32 20.5781C193.477 20.4635 193.615 20.3411 193.734 20.2109C193.76 20.362 193.792 20.5052 193.828 20.6406C193.865 20.776 193.909 20.8958 193.961 21ZM191.891 19.4766C191.688 19.4766 191.508 19.4531 191.352 19.4063C191.201 19.3542 191.073 19.2865 190.969 19.2031C190.865 19.1146 190.784 19.0078 190.727 18.8828C190.674 18.7526 190.648 18.612 190.648 18.4609C190.648 18.2682 190.685 18.0911 190.758 17.9297C190.831 17.763 190.943 17.6198 191.094 17.5C191.245 17.3854 191.44 17.2969 191.68 17.2344C191.919 17.1667 192.208 17.1328 192.547 17.1328H193.656V18.5859C193.594 18.6953 193.508 18.8047 193.398 18.9141C193.289 19.0182 193.159 19.112 193.008 19.1953C192.857 19.2786 192.688 19.3464 192.5 19.3984C192.312 19.4505 192.109 19.4766 191.891 19.4766ZM203.805 21H205.773V12.5469H203.594V18.4766C203.526 18.612 203.445 18.7344 203.352 18.8438C203.258 18.9531 203.151 19.0469 203.031 19.125C202.891 19.2135 202.727 19.2813 202.539 19.3281C202.357 19.375 202.151 19.3984 201.922 19.3984C201.667 19.3984 201.451 19.3672 201.273 19.3047C201.096 19.2422 200.953 19.138 200.844 18.9922C200.734 18.8516 200.654 18.6641 200.602 18.4297C200.555 18.1953 200.531 17.9063 200.531 17.5625V12.5469H198.359V17.5469C198.359 18.1875 198.43 18.737 198.57 19.1953C198.716 19.6484 198.919 20.0208 199.18 20.3125C199.44 20.6094 199.753 20.8255 200.117 20.9609C200.482 21.0964 200.883 21.1641 201.32 21.1641C201.799 21.1641 202.24 21.0443 202.641 20.8047C203.047 20.5651 203.393 20.2344 203.68 19.8125L203.805 21ZM211.883 10.4766H209.711V12.5469H207.781V14.1484H209.711V17.9922C209.711 18.5495 209.784 19.0286 209.93 19.4297C210.076 19.8255 210.284 20.151 210.555 20.4063C210.82 20.6667 211.141 20.8594 211.516 20.9844C211.896 21.1042 212.318 21.1641 212.781 21.1641C213.021 21.1641 213.263 21.151 213.508 21.125C213.758 21.1042 213.997 21.0729 214.227 21.0313C214.456 20.9896 214.672 20.9375 214.875 20.875C215.078 20.8073 215.255 20.7292 215.406 20.6406L215.195 19.1484C215.096 19.1745 214.977 19.2005 214.836 19.2266C214.701 19.2526 214.555 19.276 214.398 19.2969C214.237 19.3229 214.068 19.3438 213.891 19.3594C213.719 19.375 213.549 19.3828 213.383 19.3828C213.154 19.3828 212.945 19.3568 212.758 19.3047C212.576 19.2526 212.419 19.1641 212.289 19.0391C212.159 18.9193 212.057 18.7578 211.984 18.5547C211.917 18.3464 211.883 18.0885 211.883 17.7813V14.1484L215.039 14.1484V12.5469L211.883 12.5469V10.4766ZM217.211 16.6953V16.8594C217.211 17.4792 217.299 18.0521 217.477 18.5781C217.654 19.099 217.914 19.5521 218.258 19.9375C218.596 20.3229 219.013 20.625 219.508 20.8438C220.008 21.0573 220.576 21.1641 221.211 21.1641C221.841 21.1641 222.404 21.0573 222.898 20.8438C223.393 20.625 223.81 20.3229 224.148 19.9375C224.487 19.5521 224.745 19.099 224.922 18.5781C225.099 18.0521 225.188 17.4792 225.188 16.8594V16.6953C225.188 16.0807 225.099 15.513 224.922 14.9922C224.745 14.4661 224.487 14.0104 224.148 13.625C223.805 13.2396 223.385 12.9375 222.891 12.7188C222.396 12.5 221.831 12.3906 221.195 12.3906C220.56 12.3906 219.995 12.5 219.5 12.7188C219.01 12.9375 218.596 13.2396 218.258 13.625C217.914 14.0104 217.654 14.4661 217.477 14.9922C217.299 15.513 217.211 16.0807 217.211 16.6953ZM219.383 16.8594V16.6953C219.383 16.3516 219.417 16.026 219.484 15.7188C219.552 15.4115 219.659 15.1406 219.805 14.9063C219.951 14.6719 220.138 14.487 220.367 14.3516C220.596 14.2161 220.872 14.1484 221.195 14.1484C221.523 14.1484 221.802 14.2161 222.031 14.3516C222.26 14.487 222.448 14.6719 222.594 14.9063C222.734 15.1406 222.839 15.4115 222.906 15.7188C222.974 16.026 223.008 16.3516 223.008 16.6953V16.8594C223.008 17.2135 222.974 17.5469 222.906 17.8594C222.839 18.1667 222.734 18.4349 222.594 18.6641C222.448 18.8984 222.26 19.0833 222.031 19.2188C221.802 19.3542 221.529 19.4219 221.211 19.4219C220.883 19.4219 220.602 19.3542 220.367 19.2188C220.138 19.0833 219.951 18.8984 219.805 18.6641C219.659 18.4349 219.552 18.1667 219.484 17.8594C219.417 17.5469 219.383 17.2135 219.383 16.8594ZM234.727 16.8594V15.1016H228.219V16.8594H234.727ZM238.828 21H241.008V14.1484H244.055V12.5469H241.008V12.0859C241.008 11.8359 241.039 11.612 241.102 11.4141C241.169 11.2161 241.271 11.0495 241.406 10.9141C241.557 10.7526 241.76 10.6302 242.016 10.5469C242.271 10.4635 242.581 10.4219 242.945 10.4219C243.284 10.4219 243.578 10.4375 243.828 10.4688C244.078 10.5 244.302 10.5365 244.5 10.5781L244.641 8.875C244.464 8.84375 244.292 8.8151 244.125 8.78906C243.964 8.76302 243.802 8.73958 243.641 8.71875C243.479 8.69792 243.312 8.68229 243.141 8.67188C242.974 8.65625 242.799 8.64844 242.617 8.64844C242.039 8.64844 241.516 8.72396 241.047 8.875C240.578 9.02083 240.18 9.23958 239.852 9.53125C239.523 9.82292 239.271 10.1823 239.094 10.6094C238.917 11.0365 238.828 11.5286 238.828 12.0859V12.5469H236.609V14.1484H238.828V21ZM246.914 12.5469V14.3203H249.32V19.2344H246.914V21H253.805V19.2344H251.516V12.5469H246.914ZM249.164 10.3828C249.164 10.5495 249.193 10.7057 249.25 10.8516C249.312 10.9922 249.398 11.112 249.508 11.2109C249.617 11.3151 249.747 11.3958 249.898 11.4531C250.055 11.5104 250.227 11.5391 250.414 11.5391C250.799 11.5391 251.104 11.4323 251.328 11.2188C251.557 11 251.672 10.7214 251.672 10.3828C251.672 10.0443 251.557 9.76823 251.328 9.55469C251.104 9.33594 250.799 9.22656 250.414 9.22656C250.227 9.22656 250.055 9.25521 249.898 9.3125C249.747 9.36979 249.617 9.44792 249.508 9.54688C249.398 9.65104 249.312 9.77604 249.25 9.92188C249.193 10.0625 249.164 10.2161 249.164 10.3828ZM259.93 10.4766H257.758V12.5469H255.828V14.1484H257.758V17.9922C257.758 18.5495 257.831 19.0286 257.977 19.4297C258.122 19.8255 258.331 20.151 258.602 20.4063C258.867 20.6667 259.188 20.8594 259.562 20.9844C259.943 21.1042 260.365 21.1641 260.828 21.1641C261.068 21.1641 261.31 21.151 261.555 21.125C261.805 21.1042 262.044 21.0729 262.273 21.0313C262.503 20.9896 262.719 20.9375 262.922 20.875C263.125 20.8073 263.302 20.7292 263.453 20.6406L263.242 19.1484C263.143 19.1745 263.023 19.2005 262.883 19.2266C262.747 19.2526 262.602 19.276 262.445 19.2969C262.284 19.3229 262.115 19.3438 261.938 19.3594C261.766 19.375 261.596 19.3828 261.43 19.3828C261.201 19.3828 260.992 19.3568 260.805 19.3047C260.622 19.2526 260.466 19.1641 260.336 19.0391C260.206 18.9193 260.104 18.7578 260.031 18.5547C259.964 18.3464 259.93 18.0885 259.93 17.7813V14.1484H263.086V12.5469H259.93V10.4766ZM270 20.8281L270.008 19.1016H267.969V20.9297C267.969 21.5026 267.901 21.9922 267.766 22.3984C267.63 22.8099 267.464 23.2031 267.266 23.5781L268.414 24.1719C268.883 23.7552 269.263 23.2422 269.555 22.6328C269.852 22.0234 270 21.4219 270 20.8281ZM286.125 12.5469H284.258V21H286.234V14.6719C286.26 14.6042 286.289 14.5417 286.32 14.4844C286.352 14.4271 286.388 14.3776 286.43 14.3359C286.487 14.2786 286.552 14.2344 286.625 14.2031C286.698 14.1719 286.781 14.1563 286.875 14.1563C286.958 14.1563 287.036 14.1693 287.109 14.1953C287.182 14.2161 287.247 14.2552 287.305 14.3125C287.357 14.3698 287.398 14.4505 287.43 14.5547C287.461 14.6589 287.477 14.7917 287.477 14.9531V21H289.391V14.7656C289.391 14.7031 289.391 14.6536 289.391 14.6172C289.391 14.5807 289.391 14.5573 289.391 14.5469C289.417 14.4896 289.448 14.4401 289.484 14.3984C289.521 14.3516 289.562 14.3099 289.609 14.2734C289.667 14.237 289.727 14.2083 289.789 14.1875C289.857 14.1667 289.932 14.1563 290.016 14.1563C290.094 14.1563 290.169 14.1693 290.242 14.1953C290.32 14.2161 290.388 14.2552 290.445 14.3125C290.503 14.375 290.547 14.4583 290.578 14.5625C290.615 14.6667 290.633 14.7995 290.633 14.9609V21H292.609V14.9688C292.609 14.5 292.562 14.1042 292.469 13.7813C292.38 13.4531 292.255 13.1849 292.094 12.9766C291.927 12.7734 291.732 12.625 291.508 12.5313C291.289 12.4375 291.052 12.3906 290.797 12.3906C290.594 12.3906 290.406 12.4167 290.234 12.4688C290.062 12.5208 289.909 12.5938 289.773 12.6875C289.664 12.7604 289.562 12.849 289.469 12.9531C289.38 13.0521 289.299 13.1641 289.227 13.2891C289.18 13.1589 289.122 13.0443 289.055 12.9453C288.992 12.8411 288.917 12.7526 288.828 12.6797C288.714 12.5807 288.578 12.5078 288.422 12.4609C288.266 12.4141 288.089 12.3906 287.891 12.3906C287.484 12.3906 287.138 12.4974 286.852 12.7109C286.57 12.9193 286.349 13.2057 286.188 13.5703L286.125 12.5469ZM294.961 12.5469V14.3203H297.367V19.2344H294.961V21H301.852V19.2344H299.562V12.5469H294.961ZM297.211 10.3828C297.211 10.5495 297.24 10.7057 297.297 10.8516C297.359 10.9922 297.445 11.112 297.555 11.2109C297.664 11.3151 297.794 11.3958 297.945 11.4531C298.102 11.5104 298.273 11.5391 298.461 11.5391C298.846 11.5391 299.151 11.4323 299.375 11.2188C299.604 11 299.719 10.7214 299.719 10.3828C299.719 10.0443 299.604 9.76823 299.375 9.55469C299.151 9.33594 298.846 9.22656 298.461 9.22656C298.273 9.22656 298.102 9.25521 297.945 9.3125C297.794 9.36979 297.664 9.44792 297.555 9.54688C297.445 9.65104 297.359 9.77604 297.297 9.92188C297.24 10.0625 297.211 10.2161 297.211 10.3828ZM303.992 21H306.172V14.9922C306.245 14.8776 306.326 14.7734 306.414 14.6797C306.503 14.5859 306.602 14.5052 306.711 14.4375C306.846 14.3438 307 14.2734 307.172 14.2266C307.349 14.1797 307.542 14.1563 307.75 14.1563C308 14.1563 308.224 14.1823 308.422 14.2344C308.62 14.2813 308.789 14.3672 308.93 14.4922C309.07 14.6172 309.177 14.7891 309.25 15.0078C309.328 15.2214 309.367 15.4948 309.367 15.8281V21H311.539V15.7969C311.539 15.1823 311.466 14.6615 311.32 14.2344C311.18 13.8021 310.982 13.4479 310.727 13.1719C310.466 12.901 310.159 12.7031 309.805 12.5781C309.451 12.4531 309.06 12.3906 308.633 12.3906C308.299 12.3906 307.984 12.4375 307.688 12.5313C307.391 12.625 307.117 12.7604 306.867 12.9375C306.721 13.0417 306.583 13.1589 306.453 13.2891C306.323 13.4193 306.203 13.5625 306.094 13.7188L305.961 12.5469H303.992V21ZM314.953 12.5469H313.086V21H315.062V14.6719C315.089 14.6042 315.117 14.5417 315.148 14.4844C315.18 14.4271 315.216 14.3776 315.258 14.3359C315.315 14.2786 315.38 14.2344 315.453 14.2031C315.526 14.1719 315.609 14.1563 315.703 14.1563C315.786 14.1563 315.865 14.1693 315.938 14.1953C316.01 14.2161 316.076 14.2552 316.133 14.3125C316.185 14.3698 316.227 14.4505 316.258 14.5547C316.289 14.6589 316.305 14.7917 316.305 14.9531V21H318.219V14.7656C318.219 14.7031 318.219 14.6536 318.219 14.6172C318.219 14.5807 318.219 14.5573 318.219 14.5469C318.245 14.4896 318.276 14.4401 318.312 14.3984C318.349 14.3516 318.391 14.3099 318.438 14.2734C318.495 14.237 318.555 14.2083 318.617 14.1875C318.685 14.1667 318.76 14.1563 318.844 14.1563C318.922 14.1563 318.997 14.1693 319.07 14.1953C319.148 14.2161 319.216 14.2552 319.273 14.3125C319.331 14.375 319.375 14.4583 319.406 14.5625C319.443 14.6667 319.461 14.7995 319.461 14.9609V21H321.438V14.9688C321.438 14.5 321.391 14.1042 321.297 13.7813C321.208 13.4531 321.083 13.1849 320.922 12.9766C320.755 12.7734 320.56 12.625 320.336 12.5313C320.117 12.4375 319.88 12.3906 319.625 12.3906C319.422 12.3906 319.234 12.4167 319.062 12.4688C318.891 12.5208 318.737 12.5938 318.602 12.6875C318.492 12.7604 318.391 12.849 318.297 12.9531C318.208 13.0521 318.128 13.1641 318.055 13.2891C318.008 13.1589 317.951 13.0443 317.883 12.9453C317.82 12.8411 317.745 12.7526 317.656 12.6797C317.542 12.5807 317.406 12.5078 317.25 12.4609C317.094 12.4141 316.917 12.3906 316.719 12.3906C316.312 12.3906 315.966 12.4974 315.68 12.7109C315.398 12.9193 315.177 13.2057 315.016 13.5703L314.953 12.5469ZM328.492 21H330.695V20.8672C330.586 20.6536 330.503 20.3984 330.445 20.1016C330.388 19.8047 330.359 19.4297 330.359 18.9766V15.3516C330.359 14.862 330.268 14.4323 330.086 14.0625C329.904 13.6875 329.651 13.3776 329.328 13.1328C329.005 12.888 328.622 12.7031 328.18 12.5781C327.742 12.4531 327.268 12.3906 326.758 12.3906C326.19 12.3906 325.685 12.4635 325.242 12.6094C324.805 12.75 324.435 12.9427 324.133 13.1875C323.826 13.4323 323.591 13.7161 323.43 14.0391C323.273 14.362 323.195 14.7031 323.195 15.0625H325.367C325.367 14.9115 325.388 14.7734 325.43 14.6484C325.477 14.5234 325.547 14.4167 325.641 14.3281C325.745 14.2292 325.88 14.1536 326.047 14.1016C326.214 14.0443 326.411 14.0156 326.641 14.0156C326.901 14.0156 327.128 14.0495 327.32 14.1172C327.518 14.1797 327.682 14.2708 327.812 14.3906C327.938 14.5052 328.031 14.6432 328.094 14.8047C328.156 14.9609 328.188 15.138 328.188 15.3359V15.8359H326.977C326.352 15.8359 325.797 15.8932 325.312 16.0078C324.833 16.1172 324.43 16.2786 324.102 16.4922C323.737 16.7266 323.464 17.026 323.281 17.3906C323.099 17.75 323.008 18.1641 323.008 18.6328C323.008 18.9974 323.081 19.3359 323.227 19.6484C323.372 19.9557 323.576 20.2214 323.836 20.4453C324.096 20.6693 324.406 20.8438 324.766 20.9688C325.13 21.0938 325.529 21.1563 325.961 21.1563C326.227 21.1563 326.474 21.1302 326.703 21.0781C326.932 21.0313 327.143 20.9635 327.336 20.875C327.523 20.7917 327.695 20.6927 327.852 20.5781C328.008 20.4635 328.146 20.3411 328.266 20.2109C328.292 20.362 328.323 20.5052 328.359 20.6406C328.396 20.776 328.44 20.8958 328.492 21ZM326.422 19.4766C326.219 19.4766 326.039 19.4531 325.883 19.4063C325.732 19.3542 325.604 19.2865 325.5 19.2031C325.396 19.1146 325.315 19.0078 325.258 18.8828C325.206 18.7526 325.18 18.612 325.18 18.4609C325.18 18.2682 325.216 18.0911 325.289 17.9297C325.362 17.763 325.474 17.6198 325.625 17.5C325.776 17.3854 325.971 17.2969 326.211 17.2344C326.451 17.1667 326.74 17.1328 327.078 17.1328H328.188V18.5859C328.125 18.6953 328.039 18.8047 327.93 18.9141C327.82 19.0182 327.69 19.112 327.539 19.1953C327.388 19.2786 327.219 19.3464 327.031 19.3984C326.844 19.4505 326.641 19.4766 326.422 19.4766ZM336.688 15.1875L334.859 12.5469H332.523L335.352 16.6953L332.414 21H334.766L336.695 18.2344L338.641 21H340.984L338.047 16.6953L340.883 12.5469H338.547L336.688 15.1875ZM344.023 16.375V16.5469C344.023 17.2865 344.078 17.9792 344.188 18.625C344.302 19.2708 344.456 19.8672 344.648 20.4141C344.841 20.9661 345.065 21.4688 345.32 21.9219C345.581 22.375 345.854 22.7734 346.141 23.1172C346.427 23.4661 346.721 23.763 347.023 24.0078C347.331 24.2526 347.628 24.4401 347.914 24.5703L348.336 23.3984C348.133 23.2422 347.927 23.0469 347.719 22.8125C347.51 22.5781 347.312 22.3021 347.125 21.9844C346.948 21.6927 346.781 21.3516 346.625 20.9609C346.474 20.5703 346.341 20.1458 346.227 19.6875C346.143 19.3594 346.065 18.9193 345.992 18.3672C345.924 17.8151 345.891 17.2135 345.891 16.5625V16.3594C345.891 15.6979 345.927 15.0859 346 14.5234C346.073 13.9609 346.169 13.4479 346.289 12.9844C346.424 12.5052 346.581 12.0625 346.758 11.6563C346.94 11.25 347.135 10.8984 347.344 10.6016C347.505 10.3724 347.669 10.1693 347.836 9.99219C348.003 9.8151 348.169 9.66406 348.336 9.53906L347.914 8.35156C347.628 8.48177 347.331 8.66927 347.023 8.91406C346.721 9.15365 346.427 9.44792 346.141 9.79688C345.854 10.1458 345.581 10.5469 345.32 11C345.065 11.4531 344.841 11.9531 344.648 12.5C344.456 13.0521 344.302 13.6536 344.188 14.3047C344.078 14.9505 344.023 15.6406 344.023 16.375ZM357.82 16.5469V16.375C357.82 15.6615 357.763 14.987 357.648 14.3516C357.534 13.7109 357.378 13.1146 357.18 12.5625C356.982 12.0104 356.75 11.5078 356.484 11.0547C356.224 10.5964 355.945 10.1875 355.648 9.82813C355.352 9.47396 355.047 9.17188 354.734 8.92188C354.422 8.67188 354.117 8.48177 353.82 8.35156L353.406 9.51563C353.562 9.63542 353.719 9.78125 353.875 9.95313C354.036 10.1198 354.193 10.3099 354.344 10.5234C354.568 10.8464 354.779 11.2292 354.977 11.6719C355.18 12.1146 355.352 12.6146 355.492 13.1719C355.602 13.6198 355.688 14.1094 355.75 14.6406C355.818 15.1719 355.852 15.7448 355.852 16.3594V16.5625C355.852 17.1927 355.818 17.7786 355.75 18.3203C355.688 18.862 355.602 19.3568 355.492 19.8047C355.362 20.2943 355.211 20.737 355.039 21.1328C354.872 21.5286 354.688 21.8828 354.484 22.1953C354.312 22.4609 354.135 22.6927 353.953 22.8906C353.771 23.0938 353.589 23.263 353.406 23.3984L353.82 24.5703C354.117 24.4401 354.422 24.25 354.734 24C355.047 23.75 355.352 23.4453 355.648 23.0859C355.945 22.7318 356.224 22.3255 356.484 21.8672C356.75 21.4141 356.982 20.9115 357.18 20.3594C357.378 19.8073 357.534 19.2135 357.648 18.5781C357.763 17.9375 357.82 17.2604 357.82 16.5469ZM367.43 16.5469V16.375C367.43 15.6615 367.372 14.987 367.258 14.3516C367.143 13.7109 366.987 13.1146 366.789 12.5625C366.591 12.0104 366.359 11.5078 366.094 11.0547C365.833 10.5964 365.555 10.1875 365.258 9.82813C364.961 9.47396 364.656 9.17188 364.344 8.92188C364.031 8.67188 363.727 8.48177 363.43 8.35156L363.016 9.51563C363.172 9.63542 363.328 9.78125 363.484 9.95313C363.646 10.1198 363.802 10.3099 363.953 10.5234C364.177 10.8464 364.388 11.2292 364.586 11.6719C364.789 12.1146 364.961 12.6146 365.102 13.1719C365.211 13.6198 365.297 14.1094 365.359 14.6406C365.427 15.1719 365.461 15.7448 365.461 16.3594V16.5625C365.461 17.1927 365.427 17.7786 365.359 18.3203C365.297 18.862 365.211 19.3568 365.102 19.8047C364.971 20.2943 364.82 20.737 364.648 21.1328C364.482 21.5286 364.297 21.8828 364.094 22.1953C363.922 22.4609 363.745 22.6927 363.562 22.8906C363.38 23.0938 363.198 23.263 363.016 23.3984L363.43 24.5703C363.727 24.4401 364.031 24.25 364.344 24C364.656 23.75 364.961 23.4453 365.258 23.0859C365.555 22.7318 365.833 22.3255 366.094 21.8672C366.359 21.4141 366.591 20.9115 366.789 20.3594C366.987 19.8073 367.143 19.2135 367.258 18.5781C367.372 17.9375 367.43 17.2604 367.43 16.5469Z" fill="#12171A"/>
</svg>
