<svg width="392" height="149" viewBox="0 0 392 149" fill="none" xmlns="http://www.w3.org/2000/svg">
<rect x="1" y="42" width="234" height="106" rx="9" fill="#EFF1F3" stroke="#DADFE2" stroke-width="2"/>
<rect x="247" y="42" width="144" height="106" rx="9" fill="#EFF1F3" stroke="#DADFE2" stroke-width="2"/>
<rect width="164" height="29" rx="10" fill="#EFF1F3"/>
<path d="M7.45312 12.5469H5.58594L5.58594 21H7.5625L7.5625 14.6719C7.58854 14.6042 7.61719 14.5417 7.64844 14.4844C7.67969 14.4271 7.71615 14.3776 7.75781 14.3359C7.8151 14.2786 7.88021 14.2344 7.95312 14.2031C8.02604 14.1719 8.10938 14.1562 8.20312 14.1562C8.28646 14.1562 8.36458 14.1693 8.4375 14.1953C8.51042 14.2161 8.57552 14.2552 8.63281 14.3125C8.6849 14.3698 8.72656 14.4505 8.75781 14.5547C8.78906 14.6589 8.80469 14.7917 8.80469 14.9531V21H10.7188V14.7656C10.7188 14.7031 10.7188 14.6536 10.7188 14.6172C10.7188 14.5807 10.7188 14.5573 10.7188 14.5469C10.7448 14.4896 10.776 14.4401 10.8125 14.3984C10.849 14.3516 10.8906 14.3099 10.9375 14.2734C10.9948 14.237 11.0547 14.2083 11.1172 14.1875C11.1849 14.1667 11.2604 14.1562 11.3438 14.1562C11.4219 14.1562 11.4974 14.1693 11.5703 14.1953C11.6484 14.2161 11.7161 14.2552 11.7734 14.3125C11.8307 14.375 11.875 14.4583 11.9062 14.5625C11.9427 14.6667 11.9609 14.7995 11.9609 14.9609V21H13.9375L13.9375 14.9688C13.9375 14.5 13.8906 14.1042 13.7969 13.7812C13.7083 13.4531 13.5833 13.1849 13.4219 12.9766C13.2552 12.7734 13.0599 12.625 12.8359 12.5312C12.6172 12.4375 12.3802 12.3906 12.125 12.3906C11.9219 12.3906 11.7344 12.4167 11.5625 12.4688C11.3906 12.5208 11.237 12.5938 11.1016 12.6875C10.9922 12.7604 10.8906 12.849 10.7969 12.9531C10.7083 13.0521 10.6276 13.1641 10.5547 13.2891C10.5078 13.1589 10.4505 13.0443 10.3828 12.9453C10.3203 12.8411 10.2448 12.7526 10.1562 12.6797C10.0417 12.5807 9.90625 12.5078 9.75 12.4609C9.59375 12.4141 9.41667 12.3906 9.21875 12.3906C8.8125 12.3906 8.46615 12.4974 8.17969 12.7109C7.89844 12.9193 7.67708 13.2057 7.51562 13.5703L7.45312 12.5469ZM16.2891 12.5469V14.3203H18.6953V19.2344H16.2891V21H23.1797V19.2344H20.8906V12.5469H16.2891ZM18.5391 10.3828C18.5391 10.5495 18.5677 10.7057 18.625 10.8516C18.6875 10.9922 18.7734 11.112 18.8828 11.2109C18.9922 11.3151 19.1224 11.3958 19.2734 11.4531C19.4297 11.5104 19.6016 11.5391 19.7891 11.5391C20.1745 11.5391 20.4792 11.4323 20.7031 11.2188C20.9323 11 21.0469 10.7214 21.0469 10.3828C21.0469 10.0443 20.9323 9.76823 20.7031 9.55469C20.4792 9.33594 20.1745 9.22656 19.7891 9.22656C19.6016 9.22656 19.4297 9.25521 19.2734 9.3125C19.1224 9.36979 18.9922 9.44792 18.8828 9.54688C18.7734 9.65104 18.6875 9.77604 18.625 9.92188C18.5677 10.0625 18.5391 10.2161 18.5391 10.3828ZM25.3203 21H27.5V14.9922C27.5729 14.8776 27.6536 14.7734 27.7422 14.6797C27.8307 14.5859 27.9297 14.5052 28.0391 14.4375C28.1745 14.3438 28.3281 14.2734 28.5 14.2266C28.6771 14.1797 28.8698 14.1563 29.0781 14.1563C29.3281 14.1563 29.5521 14.1823 29.75 14.2344C29.9479 14.2813 30.1172 14.3672 30.2578 14.4922C30.3984 14.6172 30.5052 14.7891 30.5781 15.0078C30.6562 15.2214 30.6953 15.4948 30.6953 15.8281V21H32.8672V15.7969C32.8672 15.1823 32.7943 14.6615 32.6484 14.2344C32.5078 13.8021 32.3099 13.4479 32.0547 13.1719C31.7943 12.901 31.487 12.7031 31.1328 12.5781C30.7786 12.4531 30.388 12.3906 29.9609 12.3906C29.6276 12.3906 29.3125 12.4375 29.0156 12.5313C28.7188 12.625 28.4453 12.7604 28.1953 12.9375C28.0495 13.0417 27.9115 13.1589 27.7812 13.2891C27.651 13.4193 27.5312 13.5625 27.4219 13.7188L27.2891 12.5469H25.3203V21ZM36.5234 16.375V16.5469C36.5234 17.2865 36.5781 17.9792 36.6875 18.625C36.8021 19.2708 36.9557 19.8672 37.1484 20.4141C37.3411 20.9661 37.5651 21.4688 37.8203 21.9219C38.0807 22.375 38.3542 22.7734 38.6406 23.1172C38.9271 23.4661 39.2214 23.763 39.5234 24.0078C39.8307 24.2526 40.1276 24.4401 40.4141 24.5703L40.8359 23.3984C40.6328 23.2422 40.4271 23.0469 40.2188 22.8125C40.0104 22.5781 39.8125 22.3021 39.625 21.9844C39.4479 21.6927 39.2812 21.3516 39.125 20.9609C38.974 20.5703 38.8411 20.1458 38.7266 19.6875C38.6432 19.3594 38.5651 18.9193 38.4922 18.3672C38.4245 17.8151 38.3906 17.2135 38.3906 16.5625V16.3594C38.3906 15.6979 38.4271 15.0859 38.5 14.5234C38.5729 13.9609 38.6693 13.4479 38.7891 12.9844C38.9245 12.5052 39.0807 12.0625 39.2578 11.6563C39.4401 11.25 39.6354 10.8984 39.8438 10.6016C40.0052 10.3724 40.1693 10.1693 40.3359 9.99219C40.5026 9.8151 40.6693 9.66406 40.8359 9.53906L40.4141 8.35156C40.1276 8.48177 39.8307 8.66927 39.5234 8.91406C39.2214 9.15365 38.9271 9.44792 38.6406 9.79688C38.3542 10.1458 38.0807 10.5469 37.8203 11C37.5651 11.4531 37.3411 11.9531 37.1484 12.5C36.9557 13.0521 36.8021 13.6536 36.6875 14.3047C36.5781 14.9505 36.5234 15.6406 36.5234 16.375ZM49.8594 21V9.625H49.7422L44.7891 11.4141V13.3047L47.6641 12.2734V21H49.8594ZM61.5547 16.6719V13.9531C61.5547 13.2188 61.4688 12.5729 61.2969 12.0156C61.125 11.4531 60.8802 10.9818 60.5625 10.6016C60.2396 10.2266 59.849 9.94271 59.3906 9.75C58.9323 9.55729 58.4167 9.46094 57.8438 9.46094C57.276 9.46094 56.763 9.55729 56.3047 9.75C55.8516 9.94271 55.4661 10.2266 55.1484 10.6016C54.8255 10.9818 54.5781 11.4531 54.4062 12.0156C54.2344 12.5729 54.1484 13.2188 54.1484 13.9531V16.6719C54.1484 17.4063 54.2344 18.0547 54.4062 18.6172C54.5833 19.1745 54.8333 19.6406 55.1562 20.0156C55.474 20.3958 55.862 20.6823 56.3203 20.875C56.7786 21.0677 57.2917 21.1641 57.8594 21.1641C58.4323 21.1641 58.9479 21.0677 59.4062 20.875C59.8646 20.6823 60.2526 20.3958 60.5703 20.0156C60.888 19.6406 61.1302 19.1745 61.2969 18.6172C61.4688 18.0547 61.5547 17.4063 61.5547 16.6719ZM56.3359 15.7344C56.3359 15.5729 56.3359 15.4505 56.3359 15.3672C56.3359 15.2839 56.3359 15.1172 56.3359 14.8672V13.6094C56.3359 13.1875 56.3672 12.8229 56.4297 12.5156C56.4974 12.2083 56.599 11.9583 56.7344 11.7656C56.8594 11.5833 57.013 11.4479 57.1953 11.3594C57.3828 11.2656 57.599 11.2188 57.8438 11.2188C58.0625 11.2188 58.2578 11.2552 58.4297 11.3281C58.6068 11.3958 58.7552 11.5026 58.875 11.6484C59.0312 11.8307 59.1484 12.0755 59.2266 12.3828C59.3099 12.6849 59.3568 13.0495 59.3672 13.4766L56.3359 15.7344ZM59.3672 17C59.3672 17.4219 59.3333 17.7891 59.2656 18.1016C59.2031 18.4089 59.1068 18.6615 58.9766 18.8594C58.8516 19.0469 58.6953 19.1875 58.5078 19.2813C58.3203 19.3698 58.1042 19.4141 57.8594 19.4141C57.5938 19.4141 57.3646 19.362 57.1719 19.2578C56.9792 19.1536 56.8203 18.9948 56.6953 18.7813C56.5859 18.6042 56.5 18.3828 56.4375 18.1172C56.3802 17.8516 56.3464 17.5469 56.3359 17.2031L59.3672 14.9531C59.3672 15.1042 59.3672 15.2214 59.3672 15.3047C59.3672 15.3828 59.3672 15.5078 59.3672 15.6797V17ZM71.1641 16.6719V13.9531C71.1641 13.2188 71.0781 12.5729 70.9062 12.0156C70.7344 11.4531 70.4896 10.9818 70.1719 10.6016C69.849 10.2266 69.4583 9.94271 69 9.75C68.5417 9.55729 68.026 9.46094 67.4531 9.46094C66.8854 9.46094 66.3724 9.55729 65.9141 9.75C65.4609 9.94271 65.0755 10.2266 64.7578 10.6016C64.4349 10.9818 64.1875 11.4531 64.0156 12.0156C63.8438 12.5729 63.7578 13.2188 63.7578 13.9531V16.6719C63.7578 17.4063 63.8438 18.0547 64.0156 18.6172C64.1927 19.1745 64.4427 19.6406 64.7656 20.0156C65.0833 20.3958 65.4714 20.6823 65.9297 20.875C66.388 21.0677 66.901 21.1641 67.4688 21.1641C68.0417 21.1641 68.5573 21.0677 69.0156 20.875C69.474 20.6823 69.862 20.3958 70.1797 20.0156C70.4974 19.6406 70.7396 19.1745 70.9062 18.6172C71.0781 18.0547 71.1641 17.4063 71.1641 16.6719ZM65.9453 15.7344C65.9453 15.5729 65.9453 15.4505 65.9453 15.3672C65.9453 15.2839 65.9453 15.1172 65.9453 14.8672V13.6094C65.9453 13.1875 65.9766 12.8229 66.0391 12.5156C66.1068 12.2083 66.2083 11.9583 66.3438 11.7656C66.4688 11.5833 66.6224 11.4479 66.8047 11.3594C66.9922 11.2656 67.2083 11.2188 67.4531 11.2188C67.6719 11.2188 67.8672 11.2552 68.0391 11.3281C68.2161 11.3958 68.3646 11.5026 68.4844 11.6484C68.6406 11.8307 68.7578 12.0755 68.8359 12.3828C68.9193 12.6849 68.9661 13.0495 68.9766 13.4766L65.9453 15.7344ZM68.9766 17C68.9766 17.4219 68.9427 17.7891 68.875 18.1016C68.8125 18.4089 68.7161 18.6615 68.5859 18.8594C68.4609 19.0469 68.3047 19.1875 68.1172 19.2813C67.9297 19.3698 67.7135 19.4141 67.4688 19.4141C67.2031 19.4141 66.974 19.362 66.7812 19.2578C66.5885 19.1536 66.4297 18.9948 66.3047 18.7813C66.1953 18.6042 66.1094 18.3828 66.0469 18.1172C65.9896 17.8516 65.9557 17.5469 65.9453 17.2031L68.9766 14.9531C68.9766 15.1042 68.9766 15.2214 68.9766 15.3047C68.9766 15.3828 68.9766 15.5078 68.9766 15.6797V17ZM72.5391 11.6563V12.2578C72.5391 12.5547 72.5859 12.8359 72.6797 13.1016C72.7734 13.362 72.9141 13.5911 73.1016 13.7891C73.2839 13.9922 73.513 14.151 73.7891 14.2656C74.0703 14.3802 74.3984 14.4375 74.7734 14.4375C75.1484 14.4375 75.474 14.3802 75.75 14.2656C76.026 14.151 76.2552 13.9922 76.4375 13.7891C76.6198 13.5911 76.7552 13.362 76.8438 13.1016C76.9375 12.8359 76.9844 12.5547 76.9844 12.2578V11.6563C76.9844 11.3542 76.9375 11.0703 76.8438 10.8047C76.7552 10.5391 76.6198 10.3073 76.4375 10.1094C76.2552 9.91146 76.0234 9.75521 75.7422 9.64063C75.4661 9.52083 75.138 9.46094 74.7578 9.46094C74.388 9.46094 74.0625 9.52083 73.7812 9.64063C73.5052 9.75521 73.276 9.91146 73.0938 10.1094C72.9062 10.3073 72.7656 10.5391 72.6719 10.8047C72.5833 11.0703 72.5391 11.3542 72.5391 11.6563ZM74.0078 12.2578V11.6563C74.0078 11.5365 74.0208 11.4219 74.0469 11.3125C74.0729 11.1979 74.1172 11.0964 74.1797 11.0078C74.237 10.9245 74.3125 10.8594 74.4062 10.8125C74.5 10.7604 74.6172 10.7344 74.7578 10.7344C74.9036 10.7344 75.0234 10.7604 75.1172 10.8125C75.2161 10.8594 75.2969 10.9245 75.3594 11.0078C75.4167 11.0964 75.4583 11.1979 75.4844 11.3125C75.5104 11.4219 75.5234 11.5365 75.5234 11.6563V12.2578C75.5234 12.3776 75.5104 12.4948 75.4844 12.6094C75.4583 12.7188 75.4167 12.8151 75.3594 12.8984C75.3021 12.987 75.224 13.0573 75.125 13.1094C75.0312 13.1563 74.9141 13.1797 74.7734 13.1797C74.6328 13.1797 74.513 13.1563 74.4141 13.1094C74.3151 13.0573 74.237 12.987 74.1797 12.8984C74.1172 12.8151 74.0729 12.7188 74.0469 12.6094C74.0208 12.4948 74.0078 12.3776 74.0078 12.2578ZM77.1328 18.3672V18.9766C77.1328 19.2734 77.1797 19.5547 77.2734 19.8203C77.3672 20.0859 77.5078 20.3177 77.6953 20.5156C77.8776 20.7135 78.1094 20.8698 78.3906 20.9844C78.6719 21.099 79 21.1563 79.375 21.1563C79.75 21.1563 80.0755 21.099 80.3516 20.9844C80.6276 20.8698 80.8594 20.7135 81.0469 20.5156C81.2292 20.3177 81.3646 20.0859 81.4531 19.8203C81.5417 19.5547 81.5859 19.2734 81.5859 18.9766V18.3672C81.5859 18.0703 81.5391 17.7891 81.4453 17.5234C81.3568 17.2578 81.2214 17.0234 81.0391 16.8203C80.8568 16.6224 80.625 16.4661 80.3438 16.3516C80.0677 16.237 79.7396 16.1797 79.3594 16.1797C78.9896 16.1797 78.6641 16.237 78.3828 16.3516C78.1068 16.4661 77.8776 16.6224 77.6953 16.8203C77.5078 17.0234 77.3672 17.2578 77.2734 17.5234C77.1797 17.7891 77.1328 18.0703 77.1328 18.3672ZM78.6016 18.9766V18.3672C78.6016 18.2474 78.6146 18.1328 78.6406 18.0234C78.6667 17.9141 78.7083 17.8151 78.7656 17.7266C78.8229 17.6432 78.901 17.5781 79 17.5313C79.099 17.4792 79.2188 17.4531 79.3594 17.4531C79.5 17.4531 79.6172 17.4792 79.7109 17.5313C79.8099 17.5781 79.8906 17.6432 79.9531 17.7266C80.0104 17.8151 80.0521 17.9141 80.0781 18.0234C80.1042 18.1328 80.1172 18.2474 80.1172 18.3672V18.9766C80.1172 19.1016 80.1094 19.2188 80.0938 19.3281C80.0781 19.4375 80.0443 19.5339 79.9922 19.6172C79.9401 19.7057 79.8646 19.776 79.7656 19.8281C79.6667 19.875 79.5365 19.8984 79.375 19.8984C79.2448 19.8984 79.1302 19.875 79.0312 19.8281C78.9375 19.776 78.8594 19.7057 78.7969 19.6172C78.7292 19.5339 78.6797 19.4375 78.6484 19.3281C78.6172 19.2135 78.6016 19.0964 78.6016 18.9766ZM75.5078 19.4531L79.8906 11.4219L78.8281 10.9141L74.4453 18.9453L75.5078 19.4531ZM87.4219 20.8281L87.4297 19.1016H85.3906V20.9297C85.3906 21.5026 85.3229 21.9922 85.1875 22.3984C85.0521 22.8099 84.8854 23.2031 84.6875 23.5781L85.8359 24.1719C86.3047 23.7552 86.6849 23.2422 86.9766 22.6328C87.2734 22.0234 87.4219 21.4219 87.4219 20.8281ZM104.383 14.3594V16.0469H105.562C105.859 16.0469 106.125 16.0807 106.359 16.1484C106.599 16.2161 106.805 16.3203 106.977 16.4609C107.143 16.6016 107.271 16.7813 107.359 17C107.448 17.2188 107.492 17.4818 107.492 17.7891C107.492 18.0339 107.453 18.2552 107.375 18.4531C107.302 18.651 107.193 18.8177 107.047 18.9531C106.896 19.1042 106.708 19.2188 106.484 19.2969C106.26 19.375 106.008 19.4141 105.727 19.4141C105.477 19.4141 105.247 19.3776 105.039 19.3047C104.831 19.2266 104.651 19.1198 104.5 18.9844C104.344 18.8542 104.224 18.6979 104.141 18.5156C104.057 18.3281 104.016 18.125 104.016 17.9063H101.844C101.844 18.4583 101.951 18.9375 102.164 19.3438C102.383 19.75 102.672 20.0859 103.031 20.3516C103.391 20.6224 103.799 20.8255 104.258 20.9609C104.721 21.0911 105.195 21.1563 105.68 21.1563C106.242 21.1563 106.766 21.0833 107.25 20.9375C107.74 20.7865 108.161 20.5677 108.516 20.2813C108.87 20 109.148 19.651 109.352 19.2344C109.555 18.8177 109.656 18.3438 109.656 17.8125C109.656 17.5104 109.62 17.224 109.547 16.9531C109.474 16.6823 109.362 16.4323 109.211 16.2031C109.06 15.9792 108.867 15.7786 108.633 15.6016C108.404 15.4245 108.13 15.2786 107.812 15.1641C108.083 15.0339 108.323 14.8802 108.531 14.7031C108.74 14.5208 108.914 14.3229 109.055 14.1094C109.195 13.8958 109.302 13.6719 109.375 13.4375C109.448 13.1979 109.484 12.9557 109.484 12.7109C109.484 12.1797 109.391 11.7135 109.203 11.3125C109.021 10.9063 108.763 10.5651 108.43 10.2891C108.096 10.0182 107.695 9.8151 107.227 9.67969C106.758 9.53906 106.242 9.46875 105.68 9.46875C105.159 9.46875 104.672 9.54427 104.219 9.69531C103.771 9.84635 103.38 10.0573 103.047 10.3281C102.714 10.6042 102.451 10.9323 102.258 11.3125C102.07 11.6927 101.977 12.1146 101.977 12.5781H104.148C104.148 12.3698 104.19 12.1823 104.273 12.0156C104.357 11.849 104.471 11.7057 104.617 11.5859C104.758 11.4714 104.922 11.3828 105.109 11.3203C105.302 11.2578 105.508 11.2266 105.727 11.2266C105.992 11.2266 106.224 11.263 106.422 11.3359C106.625 11.4089 106.792 11.5104 106.922 11.6406C107.052 11.776 107.148 11.9375 107.211 12.125C107.279 12.3073 107.312 12.5104 107.312 12.7344C107.312 12.9635 107.279 13.1771 107.211 13.375C107.148 13.5677 107.052 13.7318 106.922 13.8672C106.781 14.0234 106.596 14.1458 106.367 14.2344C106.143 14.3177 105.875 14.3594 105.562 14.3594H104.383ZM119.211 16.6719V13.9531C119.211 13.2188 119.125 12.5729 118.953 12.0156C118.781 11.4531 118.536 10.9818 118.219 10.6016C117.896 10.2266 117.505 9.94271 117.047 9.75C116.589 9.55729 116.073 9.46094 115.5 9.46094C114.932 9.46094 114.419 9.55729 113.961 9.75C113.508 9.94271 113.122 10.2266 112.805 10.6016C112.482 10.9818 112.234 11.4531 112.062 12.0156C111.891 12.5729 111.805 13.2188 111.805 13.9531V16.6719C111.805 17.4063 111.891 18.0547 112.062 18.6172C112.24 19.1745 112.49 19.6406 112.812 20.0156C113.13 20.3958 113.518 20.6823 113.977 20.875C114.435 21.0677 114.948 21.1641 115.516 21.1641C116.089 21.1641 116.604 21.0677 117.062 20.875C117.521 20.6823 117.909 20.3958 118.227 20.0156C118.544 19.6406 118.786 19.1745 118.953 18.6172C119.125 18.0547 119.211 17.4063 119.211 16.6719ZM113.992 15.7344C113.992 15.5729 113.992 15.4505 113.992 15.3672C113.992 15.2839 113.992 15.1172 113.992 14.8672V13.6094C113.992 13.1875 114.023 12.8229 114.086 12.5156C114.154 12.2083 114.255 11.9583 114.391 11.7656C114.516 11.5833 114.669 11.4479 114.852 11.3594C115.039 11.2656 115.255 11.2188 115.5 11.2188C115.719 11.2188 115.914 11.2552 116.086 11.3281C116.263 11.3958 116.411 11.5026 116.531 11.6484C116.688 11.8307 116.805 12.0755 116.883 12.3828C116.966 12.6849 117.013 13.0495 117.023 13.4766L113.992 15.7344ZM117.023 17C117.023 17.4219 116.99 17.7891 116.922 18.1016C116.859 18.4089 116.763 18.6615 116.633 18.8594C116.508 19.0469 116.352 19.1875 116.164 19.2813C115.977 19.3698 115.76 19.4141 115.516 19.4141C115.25 19.4141 115.021 19.362 114.828 19.2578C114.635 19.1536 114.477 18.9948 114.352 18.7813C114.242 18.6042 114.156 18.3828 114.094 18.1172C114.036 17.8516 114.003 17.5469 113.992 17.2031L117.023 14.9531C117.023 15.1042 117.023 15.2214 117.023 15.3047C117.023 15.3828 117.023 15.5078 117.023 15.6797V17ZM128.82 16.6719V13.9531C128.82 13.2188 128.734 12.5729 128.562 12.0156C128.391 11.4531 128.146 10.9818 127.828 10.6016C127.505 10.2266 127.115 9.94271 126.656 9.75C126.198 9.55729 125.682 9.46094 125.109 9.46094C124.542 9.46094 124.029 9.55729 123.57 9.75C123.117 9.94271 122.732 10.2266 122.414 10.6016C122.091 10.9818 121.844 11.4531 121.672 12.0156C121.5 12.5729 121.414 13.2188 121.414 13.9531V16.6719C121.414 17.4063 121.5 18.0547 121.672 18.6172C121.849 19.1745 122.099 19.6406 122.422 20.0156C122.74 20.3958 123.128 20.6823 123.586 20.875C124.044 21.0677 124.557 21.1641 125.125 21.1641C125.698 21.1641 126.214 21.0677 126.672 20.875C127.13 20.6823 127.518 20.3958 127.836 20.0156C128.154 19.6406 128.396 19.1745 128.562 18.6172C128.734 18.0547 128.82 17.4063 128.82 16.6719ZM123.602 15.7344C123.602 15.5729 123.602 15.4505 123.602 15.3672C123.602 15.2839 123.602 15.1172 123.602 14.8672V13.6094C123.602 13.1875 123.633 12.8229 123.695 12.5156C123.763 12.2083 123.865 11.9583 124 11.7656C124.125 11.5833 124.279 11.4479 124.461 11.3594C124.648 11.2656 124.865 11.2188 125.109 11.2188C125.328 11.2188 125.523 11.2552 125.695 11.3281C125.872 11.3958 126.021 11.5026 126.141 11.6484C126.297 11.8307 126.414 12.0755 126.492 12.3828C126.576 12.6849 126.622 13.0495 126.633 13.4766L123.602 15.7344ZM126.633 17C126.633 17.4219 126.599 17.7891 126.531 18.1016C126.469 18.4089 126.372 18.6615 126.242 18.8594C126.117 19.0469 125.961 19.1875 125.773 19.2813C125.586 19.3698 125.37 19.4141 125.125 19.4141C124.859 19.4141 124.63 19.362 124.438 19.2578C124.245 19.1536 124.086 18.9948 123.961 18.7813C123.852 18.6042 123.766 18.3828 123.703 18.1172C123.646 17.8516 123.612 17.5469 123.602 17.2031L126.633 14.9531C126.633 15.1042 126.633 15.2214 126.633 15.3047C126.633 15.3828 126.633 15.5078 126.633 15.6797V17ZM131.055 24.25H133.227V20.2656C133.326 20.375 133.43 20.474 133.539 20.5625C133.648 20.651 133.763 20.7318 133.883 20.8047C134.086 20.9193 134.305 21.0052 134.539 21.0625C134.779 21.125 135.039 21.1563 135.32 21.1563C135.852 21.1563 136.323 21.0469 136.734 20.8281C137.146 20.6094 137.492 20.3073 137.773 19.9219C138.049 19.5417 138.258 19.0885 138.398 18.5625C138.544 18.0365 138.617 17.4661 138.617 16.8516V16.6875C138.617 16.0469 138.544 15.4635 138.398 14.9375C138.258 14.4063 138.047 13.9505 137.766 13.5703C137.484 13.1953 137.138 12.9063 136.727 12.7031C136.315 12.4948 135.841 12.3906 135.305 12.3906C135.044 12.3906 134.799 12.4193 134.57 12.4766C134.346 12.5286 134.141 12.6042 133.953 12.7031C133.797 12.7865 133.651 12.8854 133.516 13C133.38 13.1094 133.255 13.2344 133.141 13.375L133.062 12.5469H131.055V24.25ZM136.445 16.6875V16.8516C136.445 17.2005 136.414 17.5313 136.352 17.8438C136.289 18.151 136.19 18.4219 136.055 18.6563C135.919 18.8906 135.742 19.0755 135.523 19.2109C135.31 19.3464 135.049 19.4141 134.742 19.4141C134.549 19.4141 134.375 19.3958 134.219 19.3594C134.062 19.3177 133.924 19.2604 133.805 19.1875C133.68 19.1094 133.568 19.0156 133.469 18.9063C133.375 18.7969 133.294 18.6745 133.227 18.5391V15.0078C133.299 14.862 133.385 14.7344 133.484 14.625C133.589 14.5156 133.708 14.4245 133.844 14.3516C133.964 14.2891 134.096 14.2422 134.242 14.2109C134.388 14.1745 134.549 14.1563 134.727 14.1563C135.034 14.1563 135.294 14.2214 135.508 14.3516C135.727 14.4818 135.906 14.6589 136.047 14.8828C136.182 15.112 136.281 15.3828 136.344 15.6953C136.411 16.0026 136.445 16.3333 136.445 16.6875ZM144.5 15.1875L142.672 12.5469H140.336L143.164 16.6953L140.227 21H142.578L144.508 18.2344L146.453 21H148.797L145.859 16.6953L148.695 12.5469H146.359L144.5 15.1875ZM156.023 16.5469V16.375C156.023 15.6615 155.966 14.987 155.852 14.3516C155.737 13.7109 155.581 13.1146 155.383 12.5625C155.185 12.0104 154.953 11.5078 154.688 11.0547C154.427 10.5964 154.148 10.1875 153.852 9.82813C153.555 9.47396 153.25 9.17188 152.938 8.92188C152.625 8.67188 152.32 8.48177 152.023 8.35156L151.609 9.51563C151.766 9.63542 151.922 9.78125 152.078 9.95313C152.24 10.1198 152.396 10.3099 152.547 10.5234C152.771 10.8464 152.982 11.2292 153.18 11.6719C153.383 12.1146 153.555 12.6146 153.695 13.1719C153.805 13.6198 153.891 14.1094 153.953 14.6406C154.021 15.1719 154.055 15.7448 154.055 16.3594V16.5625C154.055 17.1927 154.021 17.7786 153.953 18.3203C153.891 18.862 153.805 19.3568 153.695 19.8047C153.565 20.2943 153.414 20.737 153.242 21.1328C153.076 21.5286 152.891 21.8828 152.688 22.1953C152.516 22.4609 152.339 22.6927 152.156 22.8906C151.974 23.0938 151.792 23.263 151.609 23.3984L152.023 24.5703C152.32 24.4401 152.625 24.25 152.938 24C153.25 23.75 153.555 23.4453 153.852 23.0859C154.148 22.7318 154.427 22.3255 154.688 21.8672C154.953 21.4141 155.185 20.9115 155.383 20.3594C155.581 19.8073 155.737 19.2135 155.852 18.5781C155.966 17.9375 156.023 17.2604 156.023 16.5469Z" fill="#12171A"/>
<rect x="9.5" y="50.5" width="104" height="49" rx="9.5" fill="#B688E0" stroke="#6E33A6"/>
<rect x="255.5" y="50.5" width="59" height="49" rx="9.5" fill="#B688E0" stroke="#6E33A6"/>
<rect x="122.5" y="50.5" width="104" height="49" rx="9.5" fill="#B688E0" stroke="#6E33A6"/>
<rect x="323.5" y="50.5" width="59" height="49" rx="9.5" fill="#B688E0" stroke="#6E33A6"/>
<path d="M40.2891 74.3594V76.0469H41.4688C41.7656 76.0469 42.0312 76.0807 42.2656 76.1484C42.5052 76.2161 42.7109 76.3203 42.8828 76.4609C43.0495 76.6016 43.1771 76.7812 43.2656 77C43.3542 77.2188 43.3984 77.4818 43.3984 77.7891C43.3984 78.0339 43.3594 78.2552 43.2812 78.4531C43.2083 78.651 43.099 78.8177 42.9531 78.9531C42.8021 79.1042 42.6146 79.2188 42.3906 79.2969C42.1667 79.375 41.9141 79.4141 41.6328 79.4141C41.3828 79.4141 41.1536 79.3776 40.9453 79.3047C40.737 79.2266 40.5573 79.1198 40.4062 78.9844C40.25 78.8542 40.1302 78.6979 40.0469 78.5156C39.9635 78.3281 39.9219 78.125 39.9219 77.9062H37.75C37.75 78.4583 37.8568 78.9375 38.0703 79.3438C38.2891 79.75 38.5781 80.0859 38.9375 80.3516C39.2969 80.6224 39.7057 80.8255 40.1641 80.9609C40.6276 81.0911 41.1016 81.1562 41.5859 81.1562C42.1484 81.1562 42.6719 81.0833 43.1562 80.9375C43.6458 80.7865 44.0677 80.5677 44.4219 80.2812C44.776 80 45.0547 79.651 45.2578 79.2344C45.4609 78.8177 45.5625 78.3438 45.5625 77.8125C45.5625 77.5104 45.526 77.224 45.4531 76.9531C45.3802 76.6823 45.2682 76.4323 45.1172 76.2031C44.9661 75.9792 44.7734 75.7786 44.5391 75.6016C44.3099 75.4245 44.0365 75.2786 43.7188 75.1641C43.9896 75.0339 44.2292 74.8802 44.4375 74.7031C44.6458 74.5208 44.8203 74.3229 44.9609 74.1094C45.1016 73.8958 45.2083 73.6719 45.2812 73.4375C45.3542 73.1979 45.3906 72.9557 45.3906 72.7109C45.3906 72.1797 45.2969 71.7135 45.1094 71.3125C44.9271 70.9062 44.6693 70.5651 44.3359 70.2891C44.0026 70.0182 43.6016 69.8151 43.1328 69.6797C42.6641 69.5391 42.1484 69.4688 41.5859 69.4688C41.0651 69.4688 40.5781 69.5443 40.125 69.6953C39.6771 69.8464 39.2865 70.0573 38.9531 70.3281C38.6198 70.6042 38.3568 70.9323 38.1641 71.3125C37.9766 71.6927 37.8828 72.1146 37.8828 72.5781H40.0547C40.0547 72.3698 40.0964 72.1823 40.1797 72.0156C40.263 71.849 40.3776 71.7057 40.5234 71.5859C40.6641 71.4714 40.8281 71.3828 41.0156 71.3203C41.2083 71.2578 41.4141 71.2266 41.6328 71.2266C41.8984 71.2266 42.1302 71.263 42.3281 71.3359C42.5312 71.4089 42.6979 71.5104 42.8281 71.6406C42.9583 71.776 43.0547 71.9375 43.1172 72.125C43.1849 72.3073 43.2188 72.5104 43.2188 72.7344C43.2188 72.9635 43.1849 73.1771 43.1172 73.375C43.0547 73.5677 42.9583 73.7318 42.8281 73.8672C42.6875 74.0234 42.5026 74.1458 42.2734 74.2344C42.0495 74.3177 41.7812 74.3594 41.4688 74.3594H40.2891ZM55.1172 76.6719V73.9531C55.1172 73.2188 55.0312 72.5729 54.8594 72.0156C54.6875 71.4531 54.4427 70.9818 54.125 70.6016C53.8021 70.2266 53.4115 69.9427 52.9531 69.75C52.4948 69.5573 51.9792 69.4609 51.4062 69.4609C50.8385 69.4609 50.3255 69.5573 49.8672 69.75C49.4141 69.9427 49.0286 70.2266 48.7109 70.6016C48.388 70.9818 48.1406 71.4531 47.9688 72.0156C47.7969 72.5729 47.7109 73.2188 47.7109 73.9531V76.6719C47.7109 77.4062 47.7969 78.0547 47.9688 78.6172C48.1458 79.1745 48.3958 79.6406 48.7188 80.0156C49.0365 80.3958 49.4245 80.6823 49.8828 80.875C50.3411 81.0677 50.8542 81.1641 51.4219 81.1641C51.9948 81.1641 52.5104 81.0677 52.9688 80.875C53.4271 80.6823 53.8151 80.3958 54.1328 80.0156C54.4505 79.6406 54.6927 79.1745 54.8594 78.6172C55.0312 78.0547 55.1172 77.4062 55.1172 76.6719ZM49.8984 75.7344C49.8984 75.5729 49.8984 75.4505 49.8984 75.3672C49.8984 75.2839 49.8984 75.1172 49.8984 74.8672V73.6094C49.8984 73.1875 49.9297 72.8229 49.9922 72.5156C50.0599 72.2083 50.1615 71.9583 50.2969 71.7656C50.4219 71.5833 50.5755 71.4479 50.7578 71.3594C50.9453 71.2656 51.1615 71.2188 51.4062 71.2188C51.625 71.2188 51.8203 71.2552 51.9922 71.3281C52.1693 71.3958 52.3177 71.5026 52.4375 71.6484C52.5938 71.8307 52.7109 72.0755 52.7891 72.3828C52.8724 72.6849 52.9193 73.0495 52.9297 73.4766L49.8984 75.7344ZM52.9297 77C52.9297 77.4219 52.8958 77.7891 52.8281 78.1016C52.7656 78.4089 52.6693 78.6615 52.5391 78.8594C52.4141 79.0469 52.2578 79.1875 52.0703 79.2812C51.8828 79.3698 51.6667 79.4141 51.4219 79.4141C51.1562 79.4141 50.9271 79.362 50.7344 79.2578C50.5417 79.1536 50.3828 78.9948 50.2578 78.7812C50.1484 78.6042 50.0625 78.3828 50 78.1172C49.9427 77.8516 49.9089 77.5469 49.8984 77.2031L52.9297 74.9531C52.9297 75.1042 52.9297 75.2214 52.9297 75.3047C52.9297 75.3828 52.9297 75.5078 52.9297 75.6797V77ZM64.7266 76.6719V73.9531C64.7266 73.2188 64.6406 72.5729 64.4688 72.0156C64.2969 71.4531 64.0521 70.9818 63.7344 70.6016C63.4115 70.2266 63.0208 69.9427 62.5625 69.75C62.1042 69.5573 61.5885 69.4609 61.0156 69.4609C60.4479 69.4609 59.9349 69.5573 59.4766 69.75C59.0234 69.9427 58.638 70.2266 58.3203 70.6016C57.9974 70.9818 57.75 71.4531 57.5781 72.0156C57.4062 72.5729 57.3203 73.2188 57.3203 73.9531V76.6719C57.3203 77.4062 57.4062 78.0547 57.5781 78.6172C57.7552 79.1745 58.0052 79.6406 58.3281 80.0156C58.6458 80.3958 59.0339 80.6823 59.4922 80.875C59.9505 81.0677 60.4635 81.1641 61.0312 81.1641C61.6042 81.1641 62.1198 81.0677 62.5781 80.875C63.0365 80.6823 63.4245 80.3958 63.7422 80.0156C64.0599 79.6406 64.3021 79.1745 64.4688 78.6172C64.6406 78.0547 64.7266 77.4062 64.7266 76.6719ZM59.5078 75.7344C59.5078 75.5729 59.5078 75.4505 59.5078 75.3672C59.5078 75.2839 59.5078 75.1172 59.5078 74.8672V73.6094C59.5078 73.1875 59.5391 72.8229 59.6016 72.5156C59.6693 72.2083 59.7708 71.9583 59.9062 71.7656C60.0312 71.5833 60.1849 71.4479 60.3672 71.3594C60.5547 71.2656 60.7708 71.2188 61.0156 71.2188C61.2344 71.2188 61.4297 71.2552 61.6016 71.3281C61.7786 71.3958 61.9271 71.5026 62.0469 71.6484C62.2031 71.8307 62.3203 72.0755 62.3984 72.3828C62.4818 72.6849 62.5286 73.0495 62.5391 73.4766L59.5078 75.7344ZM62.5391 77C62.5391 77.4219 62.5052 77.7891 62.4375 78.1016C62.375 78.4089 62.2786 78.6615 62.1484 78.8594C62.0234 79.0469 61.8672 79.1875 61.6797 79.2812C61.4922 79.3698 61.276 79.4141 61.0312 79.4141C60.7656 79.4141 60.5365 79.362 60.3438 79.2578C60.151 79.1536 59.9922 78.9948 59.8672 78.7812C59.7578 78.6042 59.6719 78.3828 59.6094 78.1172C59.5521 77.8516 59.5182 77.5469 59.5078 77.2031L62.5391 74.9531C62.5391 75.1042 62.5391 75.2214 62.5391 75.3047C62.5391 75.3828 62.5391 75.5078 62.5391 75.6797V77ZM66.9609 84.25H69.1328V80.2656C69.2318 80.375 69.3359 80.474 69.4453 80.5625C69.5547 80.651 69.6693 80.7318 69.7891 80.8047C69.9922 80.9193 70.2109 81.0052 70.4453 81.0625C70.6849 81.125 70.9453 81.1562 71.2266 81.1562C71.7578 81.1562 72.2292 81.0469 72.6406 80.8281C73.0521 80.6094 73.3984 80.3073 73.6797 79.9219C73.9557 79.5417 74.1641 79.0885 74.3047 78.5625C74.4505 78.0365 74.5234 77.4661 74.5234 76.8516V76.6875C74.5234 76.0469 74.4505 75.4635 74.3047 74.9375C74.1641 74.4062 73.9531 73.9505 73.6719 73.5703C73.3906 73.1953 73.0443 72.9062 72.6328 72.7031C72.2214 72.4948 71.7474 72.3906 71.2109 72.3906C70.9505 72.3906 70.7057 72.4193 70.4766 72.4766C70.2526 72.5286 70.0469 72.6042 69.8594 72.7031C69.7031 72.7865 69.5573 72.8854 69.4219 73C69.2865 73.1094 69.1615 73.2344 69.0469 73.375L68.9688 72.5469H66.9609V84.25ZM72.3516 76.6875V76.8516C72.3516 77.2005 72.3203 77.5312 72.2578 77.8438C72.1953 78.151 72.0964 78.4219 71.9609 78.6562C71.8255 78.8906 71.6484 79.0755 71.4297 79.2109C71.2161 79.3464 70.9557 79.4141 70.6484 79.4141C70.4557 79.4141 70.2812 79.3958 70.125 79.3594C69.9688 79.3177 69.8307 79.2604 69.7109 79.1875C69.5859 79.1094 69.474 79.0156 69.375 78.9062C69.2812 78.7969 69.2005 78.6745 69.1328 78.5391V75.0078C69.2057 74.862 69.2917 74.7344 69.3906 74.625C69.4948 74.5156 69.6146 74.4245 69.75 74.3516C69.8698 74.2891 70.0026 74.2422 70.1484 74.2109C70.2943 74.1745 70.4557 74.1562 70.6328 74.1562C70.9401 74.1562 71.2005 74.2214 71.4141 74.3516C71.6328 74.4818 71.8125 74.6589 71.9531 74.8828C72.0885 75.112 72.1875 75.3828 72.25 75.6953C72.3177 76.0026 72.3516 76.3333 72.3516 76.6875ZM80.4062 75.1875L78.5781 72.5469H76.2422L79.0703 76.6953L76.1328 81H78.4844L80.4141 78.2344L82.3594 81H84.7031L81.7656 76.6953L84.6016 72.5469H82.2656L80.4062 75.1875Z" fill="#6E33A6"/>
<path d="M153.289 74.3594V76.0469H154.469C154.766 76.0469 155.031 76.0807 155.266 76.1484C155.505 76.2161 155.711 76.3203 155.883 76.4609C156.049 76.6016 156.177 76.7812 156.266 77C156.354 77.2188 156.398 77.4818 156.398 77.7891C156.398 78.0339 156.359 78.2552 156.281 78.4531C156.208 78.651 156.099 78.8177 155.953 78.9531C155.802 79.1042 155.615 79.2188 155.391 79.2969C155.167 79.375 154.914 79.4141 154.633 79.4141C154.383 79.4141 154.154 79.3776 153.945 79.3047C153.737 79.2266 153.557 79.1198 153.406 78.9844C153.25 78.8542 153.13 78.6979 153.047 78.5156C152.964 78.3281 152.922 78.125 152.922 77.9062H150.75C150.75 78.4583 150.857 78.9375 151.07 79.3438C151.289 79.75 151.578 80.0859 151.938 80.3516C152.297 80.6224 152.706 80.8255 153.164 80.9609C153.628 81.0911 154.102 81.1562 154.586 81.1562C155.148 81.1562 155.672 81.0833 156.156 80.9375C156.646 80.7865 157.068 80.5677 157.422 80.2812C157.776 80 158.055 79.651 158.258 79.2344C158.461 78.8177 158.562 78.3438 158.562 77.8125C158.562 77.5104 158.526 77.224 158.453 76.9531C158.38 76.6823 158.268 76.4323 158.117 76.2031C157.966 75.9792 157.773 75.7786 157.539 75.6016C157.31 75.4245 157.036 75.2786 156.719 75.1641C156.99 75.0339 157.229 74.8802 157.438 74.7031C157.646 74.5208 157.82 74.3229 157.961 74.1094C158.102 73.8958 158.208 73.6719 158.281 73.4375C158.354 73.1979 158.391 72.9557 158.391 72.7109C158.391 72.1797 158.297 71.7135 158.109 71.3125C157.927 70.9062 157.669 70.5651 157.336 70.2891C157.003 70.0182 156.602 69.8151 156.133 69.6797C155.664 69.5391 155.148 69.4688 154.586 69.4688C154.065 69.4688 153.578 69.5443 153.125 69.6953C152.677 69.8464 152.286 70.0573 151.953 70.3281C151.62 70.6042 151.357 70.9323 151.164 71.3125C150.977 71.6927 150.883 72.1146 150.883 72.5781H153.055C153.055 72.3698 153.096 72.1823 153.18 72.0156C153.263 71.849 153.378 71.7057 153.523 71.5859C153.664 71.4714 153.828 71.3828 154.016 71.3203C154.208 71.2578 154.414 71.2266 154.633 71.2266C154.898 71.2266 155.13 71.263 155.328 71.3359C155.531 71.4089 155.698 71.5104 155.828 71.6406C155.958 71.776 156.055 71.9375 156.117 72.125C156.185 72.3073 156.219 72.5104 156.219 72.7344C156.219 72.9635 156.185 73.1771 156.117 73.375C156.055 73.5677 155.958 73.7318 155.828 73.8672C155.688 74.0234 155.503 74.1458 155.273 74.2344C155.049 74.3177 154.781 74.3594 154.469 74.3594H153.289ZM168.117 76.6719V73.9531C168.117 73.2188 168.031 72.5729 167.859 72.0156C167.688 71.4531 167.443 70.9818 167.125 70.6016C166.802 70.2266 166.411 69.9427 165.953 69.75C165.495 69.5573 164.979 69.4609 164.406 69.4609C163.839 69.4609 163.326 69.5573 162.867 69.75C162.414 69.9427 162.029 70.2266 161.711 70.6016C161.388 70.9818 161.141 71.4531 160.969 72.0156C160.797 72.5729 160.711 73.2188 160.711 73.9531V76.6719C160.711 77.4062 160.797 78.0547 160.969 78.6172C161.146 79.1745 161.396 79.6406 161.719 80.0156C162.036 80.3958 162.424 80.6823 162.883 80.875C163.341 81.0677 163.854 81.1641 164.422 81.1641C164.995 81.1641 165.51 81.0677 165.969 80.875C166.427 80.6823 166.815 80.3958 167.133 80.0156C167.451 79.6406 167.693 79.1745 167.859 78.6172C168.031 78.0547 168.117 77.4062 168.117 76.6719ZM162.898 75.7344C162.898 75.5729 162.898 75.4505 162.898 75.3672C162.898 75.2839 162.898 75.1172 162.898 74.8672V73.6094C162.898 73.1875 162.93 72.8229 162.992 72.5156C163.06 72.2083 163.161 71.9583 163.297 71.7656C163.422 71.5833 163.576 71.4479 163.758 71.3594C163.945 71.2656 164.161 71.2188 164.406 71.2188C164.625 71.2188 164.82 71.2552 164.992 71.3281C165.169 71.3958 165.318 71.5026 165.438 71.6484C165.594 71.8307 165.711 72.0755 165.789 72.3828C165.872 72.6849 165.919 73.0495 165.93 73.4766L162.898 75.7344ZM165.93 77C165.93 77.4219 165.896 77.7891 165.828 78.1016C165.766 78.4089 165.669 78.6615 165.539 78.8594C165.414 79.0469 165.258 79.1875 165.07 79.2812C164.883 79.3698 164.667 79.4141 164.422 79.4141C164.156 79.4141 163.927 79.362 163.734 79.2578C163.542 79.1536 163.383 78.9948 163.258 78.7812C163.148 78.6042 163.062 78.3828 163 78.1172C162.943 77.8516 162.909 77.5469 162.898 77.2031L165.93 74.9531C165.93 75.1042 165.93 75.2214 165.93 75.3047C165.93 75.3828 165.93 75.5078 165.93 75.6797V77ZM177.727 76.6719V73.9531C177.727 73.2188 177.641 72.5729 177.469 72.0156C177.297 71.4531 177.052 70.9818 176.734 70.6016C176.411 70.2266 176.021 69.9427 175.562 69.75C175.104 69.5573 174.589 69.4609 174.016 69.4609C173.448 69.4609 172.935 69.5573 172.477 69.75C172.023 69.9427 171.638 70.2266 171.32 70.6016C170.997 70.9818 170.75 71.4531 170.578 72.0156C170.406 72.5729 170.32 73.2188 170.32 73.9531V76.6719C170.32 77.4062 170.406 78.0547 170.578 78.6172C170.755 79.1745 171.005 79.6406 171.328 80.0156C171.646 80.3958 172.034 80.6823 172.492 80.875C172.951 81.0677 173.464 81.1641 174.031 81.1641C174.604 81.1641 175.12 81.0677 175.578 80.875C176.036 80.6823 176.424 80.3958 176.742 80.0156C177.06 79.6406 177.302 79.1745 177.469 78.6172C177.641 78.0547 177.727 77.4062 177.727 76.6719ZM172.508 75.7344C172.508 75.5729 172.508 75.4505 172.508 75.3672C172.508 75.2839 172.508 75.1172 172.508 74.8672V73.6094C172.508 73.1875 172.539 72.8229 172.602 72.5156C172.669 72.2083 172.771 71.9583 172.906 71.7656C173.031 71.5833 173.185 71.4479 173.367 71.3594C173.555 71.2656 173.771 71.2188 174.016 71.2188C174.234 71.2188 174.43 71.2552 174.602 71.3281C174.779 71.3958 174.927 71.5026 175.047 71.6484C175.203 71.8307 175.32 72.0755 175.398 72.3828C175.482 72.6849 175.529 73.0495 175.539 73.4766L172.508 75.7344ZM175.539 77C175.539 77.4219 175.505 77.7891 175.438 78.1016C175.375 78.4089 175.279 78.6615 175.148 78.8594C175.023 79.0469 174.867 79.1875 174.68 79.2812C174.492 79.3698 174.276 79.4141 174.031 79.4141C173.766 79.4141 173.536 79.362 173.344 79.2578C173.151 79.1536 172.992 78.9948 172.867 78.7812C172.758 78.6042 172.672 78.3828 172.609 78.1172C172.552 77.8516 172.518 77.5469 172.508 77.2031L175.539 74.9531C175.539 75.1042 175.539 75.2214 175.539 75.3047C175.539 75.3828 175.539 75.5078 175.539 75.6797V77ZM179.961 84.25H182.133V80.2656C182.232 80.375 182.336 80.474 182.445 80.5625C182.555 80.651 182.669 80.7318 182.789 80.8047C182.992 80.9193 183.211 81.0052 183.445 81.0625C183.685 81.125 183.945 81.1562 184.227 81.1562C184.758 81.1562 185.229 81.0469 185.641 80.8281C186.052 80.6094 186.398 80.3073 186.68 79.9219C186.956 79.5417 187.164 79.0885 187.305 78.5625C187.451 78.0365 187.523 77.4661 187.523 76.8516V76.6875C187.523 76.0469 187.451 75.4635 187.305 74.9375C187.164 74.4062 186.953 73.9505 186.672 73.5703C186.391 73.1953 186.044 72.9062 185.633 72.7031C185.221 72.4948 184.747 72.3906 184.211 72.3906C183.951 72.3906 183.706 72.4193 183.477 72.4766C183.253 72.5286 183.047 72.6042 182.859 72.7031C182.703 72.7865 182.557 72.8854 182.422 73C182.286 73.1094 182.161 73.2344 182.047 73.375L181.969 72.5469H179.961V84.25ZM185.352 76.6875V76.8516C185.352 77.2005 185.32 77.5312 185.258 77.8438C185.195 78.151 185.096 78.4219 184.961 78.6562C184.826 78.8906 184.648 79.0755 184.43 79.2109C184.216 79.3464 183.956 79.4141 183.648 79.4141C183.456 79.4141 183.281 79.3958 183.125 79.3594C182.969 79.3177 182.831 79.2604 182.711 79.1875C182.586 79.1094 182.474 79.0156 182.375 78.9062C182.281 78.7969 182.201 78.6745 182.133 78.5391V75.0078C182.206 74.862 182.292 74.7344 182.391 74.625C182.495 74.5156 182.615 74.4245 182.75 74.3516C182.87 74.2891 183.003 74.2422 183.148 74.2109C183.294 74.1745 183.456 74.1562 183.633 74.1562C183.94 74.1562 184.201 74.2214 184.414 74.3516C184.633 74.4818 184.812 74.6589 184.953 74.8828C185.089 75.112 185.188 75.3828 185.25 75.6953C185.318 76.0026 185.352 76.3333 185.352 76.6875ZM193.406 75.1875L191.578 72.5469H189.242L192.07 76.6953L189.133 81H191.484L193.414 78.2344L195.359 81H197.703L194.766 76.6953L197.602 72.5469H195.266L193.406 75.1875Z" fill="#6E33A6"/>
<path d="M266.422 81V69.625H266.305L261.352 71.4141V73.3047L264.227 72.2734V81H266.422ZM270.82 75.3984L272.555 75.8281C272.638 75.7448 272.727 75.6667 272.82 75.5938C272.914 75.5156 273.021 75.4479 273.141 75.3906C273.26 75.3333 273.398 75.2865 273.555 75.25C273.711 75.2135 273.896 75.1953 274.109 75.1953C274.427 75.1953 274.703 75.2448 274.938 75.3438C275.172 75.4427 275.367 75.5833 275.523 75.7656C275.68 75.9479 275.794 76.1667 275.867 76.4219C275.945 76.6719 275.984 76.9479 275.984 77.25C275.984 77.5573 275.953 77.8438 275.891 78.1094C275.833 78.375 275.742 78.6042 275.617 78.7969C275.487 78.9896 275.318 79.1406 275.109 79.25C274.906 79.3594 274.659 79.4141 274.367 79.4141C273.893 79.4141 273.503 79.2786 273.195 79.0078C272.893 78.737 272.716 78.3542 272.664 77.8594H270.523C270.539 78.3854 270.656 78.8542 270.875 79.2656C271.099 79.6719 271.388 80.0156 271.742 80.2969C272.096 80.5781 272.5 80.7917 272.953 80.9375C273.411 81.0833 273.885 81.1562 274.375 81.1562C275.021 81.1562 275.581 81.0547 276.055 80.8516C276.529 80.6484 276.922 80.3724 277.234 80.0234C277.547 79.6745 277.779 79.2708 277.93 78.8125C278.081 78.3542 278.156 77.8698 278.156 77.3594C278.156 76.7604 278.078 76.224 277.922 75.75C277.766 75.276 277.542 74.875 277.25 74.5469C276.953 74.2188 276.589 73.9688 276.156 73.7969C275.729 73.6198 275.242 73.5312 274.695 73.5312C274.31 73.5312 273.969 73.5807 273.672 73.6797C273.375 73.7786 273.146 73.875 272.984 73.9688L273.258 71.4688H277.781V69.625H271.469L270.82 75.3984ZM287.727 76.6719V73.9531C287.727 73.2188 287.641 72.5729 287.469 72.0156C287.297 71.4531 287.052 70.9818 286.734 70.6016C286.411 70.2266 286.021 69.9427 285.562 69.75C285.104 69.5573 284.589 69.4609 284.016 69.4609C283.448 69.4609 282.935 69.5573 282.477 69.75C282.023 69.9427 281.638 70.2266 281.32 70.6016C280.997 70.9818 280.75 71.4531 280.578 72.0156C280.406 72.5729 280.32 73.2188 280.32 73.9531V76.6719C280.32 77.4062 280.406 78.0547 280.578 78.6172C280.755 79.1745 281.005 79.6406 281.328 80.0156C281.646 80.3958 282.034 80.6823 282.492 80.875C282.951 81.0677 283.464 81.1641 284.031 81.1641C284.604 81.1641 285.12 81.0677 285.578 80.875C286.036 80.6823 286.424 80.3958 286.742 80.0156C287.06 79.6406 287.302 79.1745 287.469 78.6172C287.641 78.0547 287.727 77.4062 287.727 76.6719ZM282.508 75.7344C282.508 75.5729 282.508 75.4505 282.508 75.3672C282.508 75.2839 282.508 75.1172 282.508 74.8672V73.6094C282.508 73.1875 282.539 72.8229 282.602 72.5156C282.669 72.2083 282.771 71.9583 282.906 71.7656C283.031 71.5833 283.185 71.4479 283.367 71.3594C283.555 71.2656 283.771 71.2188 284.016 71.2188C284.234 71.2188 284.43 71.2552 284.602 71.3281C284.779 71.3958 284.927 71.5026 285.047 71.6484C285.203 71.8307 285.32 72.0755 285.398 72.3828C285.482 72.6849 285.529 73.0495 285.539 73.4766L282.508 75.7344ZM285.539 77C285.539 77.4219 285.505 77.7891 285.438 78.1016C285.375 78.4089 285.279 78.6615 285.148 78.8594C285.023 79.0469 284.867 79.1875 284.68 79.2812C284.492 79.3698 284.276 79.4141 284.031 79.4141C283.766 79.4141 283.536 79.362 283.344 79.2578C283.151 79.1536 282.992 78.9948 282.867 78.7812C282.758 78.6042 282.672 78.3828 282.609 78.1172C282.552 77.8516 282.518 77.5469 282.508 77.2031L285.539 74.9531C285.539 75.1042 285.539 75.2214 285.539 75.3047C285.539 75.3828 285.539 75.5078 285.539 75.6797V77ZM289.961 84.25H292.133V80.2656C292.232 80.375 292.336 80.474 292.445 80.5625C292.555 80.651 292.669 80.7318 292.789 80.8047C292.992 80.9193 293.211 81.0052 293.445 81.0625C293.685 81.125 293.945 81.1562 294.227 81.1562C294.758 81.1562 295.229 81.0469 295.641 80.8281C296.052 80.6094 296.398 80.3073 296.68 79.9219C296.956 79.5417 297.164 79.0885 297.305 78.5625C297.451 78.0365 297.523 77.4661 297.523 76.8516V76.6875C297.523 76.0469 297.451 75.4635 297.305 74.9375C297.164 74.4062 296.953 73.9505 296.672 73.5703C296.391 73.1953 296.044 72.9062 295.633 72.7031C295.221 72.4948 294.747 72.3906 294.211 72.3906C293.951 72.3906 293.706 72.4193 293.477 72.4766C293.253 72.5286 293.047 72.6042 292.859 72.7031C292.703 72.7865 292.557 72.8854 292.422 73C292.286 73.1094 292.161 73.2344 292.047 73.375L291.969 72.5469H289.961V84.25ZM295.352 76.6875V76.8516C295.352 77.2005 295.32 77.5312 295.258 77.8438C295.195 78.151 295.096 78.4219 294.961 78.6562C294.826 78.8906 294.648 79.0755 294.43 79.2109C294.216 79.3464 293.956 79.4141 293.648 79.4141C293.456 79.4141 293.281 79.3958 293.125 79.3594C292.969 79.3177 292.831 79.2604 292.711 79.1875C292.586 79.1094 292.474 79.0156 292.375 78.9062C292.281 78.7969 292.201 78.6745 292.133 78.5391V75.0078C292.206 74.862 292.292 74.7344 292.391 74.625C292.495 74.5156 292.615 74.4245 292.75 74.3516C292.87 74.2891 293.003 74.2422 293.148 74.2109C293.294 74.1745 293.456 74.1562 293.633 74.1562C293.94 74.1562 294.201 74.2214 294.414 74.3516C294.633 74.4818 294.812 74.6589 294.953 74.8828C295.089 75.112 295.188 75.3828 295.25 75.6953C295.318 76.0026 295.352 76.3333 295.352 76.6875ZM303.406 75.1875L301.578 72.5469H299.242L302.07 76.6953L299.133 81H301.484L303.414 78.2344L305.359 81H307.703L304.766 76.6953L307.602 72.5469H305.266L303.406 75.1875Z" fill="#6E33A6"/>
<path d="M334.422 81V69.625H334.305L329.352 71.4141V73.3047L332.227 72.2734V81H334.422ZM338.82 75.3984L340.555 75.8281C340.638 75.7448 340.727 75.6667 340.82 75.5938C340.914 75.5156 341.021 75.4479 341.141 75.3906C341.26 75.3333 341.398 75.2865 341.555 75.25C341.711 75.2135 341.896 75.1953 342.109 75.1953C342.427 75.1953 342.703 75.2448 342.938 75.3438C343.172 75.4427 343.367 75.5833 343.523 75.7656C343.68 75.9479 343.794 76.1667 343.867 76.4219C343.945 76.6719 343.984 76.9479 343.984 77.25C343.984 77.5573 343.953 77.8438 343.891 78.1094C343.833 78.375 343.742 78.6042 343.617 78.7969C343.487 78.9896 343.318 79.1406 343.109 79.25C342.906 79.3594 342.659 79.4141 342.367 79.4141C341.893 79.4141 341.503 79.2786 341.195 79.0078C340.893 78.737 340.716 78.3542 340.664 77.8594H338.523C338.539 78.3854 338.656 78.8542 338.875 79.2656C339.099 79.6719 339.388 80.0156 339.742 80.2969C340.096 80.5781 340.5 80.7917 340.953 80.9375C341.411 81.0833 341.885 81.1562 342.375 81.1562C343.021 81.1562 343.581 81.0547 344.055 80.8516C344.529 80.6484 344.922 80.3724 345.234 80.0234C345.547 79.6745 345.779 79.2708 345.93 78.8125C346.081 78.3542 346.156 77.8698 346.156 77.3594C346.156 76.7604 346.078 76.224 345.922 75.75C345.766 75.276 345.542 74.875 345.25 74.5469C344.953 74.2188 344.589 73.9688 344.156 73.7969C343.729 73.6198 343.242 73.5312 342.695 73.5312C342.31 73.5312 341.969 73.5807 341.672 73.6797C341.375 73.7786 341.146 73.875 340.984 73.9688L341.258 71.4688H345.781V69.625H339.469L338.82 75.3984ZM355.727 76.6719V73.9531C355.727 73.2188 355.641 72.5729 355.469 72.0156C355.297 71.4531 355.052 70.9818 354.734 70.6016C354.411 70.2266 354.021 69.9427 353.562 69.75C353.104 69.5573 352.589 69.4609 352.016 69.4609C351.448 69.4609 350.935 69.5573 350.477 69.75C350.023 69.9427 349.638 70.2266 349.32 70.6016C348.997 70.9818 348.75 71.4531 348.578 72.0156C348.406 72.5729 348.32 73.2188 348.32 73.9531V76.6719C348.32 77.4062 348.406 78.0547 348.578 78.6172C348.755 79.1745 349.005 79.6406 349.328 80.0156C349.646 80.3958 350.034 80.6823 350.492 80.875C350.951 81.0677 351.464 81.1641 352.031 81.1641C352.604 81.1641 353.12 81.0677 353.578 80.875C354.036 80.6823 354.424 80.3958 354.742 80.0156C355.06 79.6406 355.302 79.1745 355.469 78.6172C355.641 78.0547 355.727 77.4062 355.727 76.6719ZM350.508 75.7344C350.508 75.5729 350.508 75.4505 350.508 75.3672C350.508 75.2839 350.508 75.1172 350.508 74.8672V73.6094C350.508 73.1875 350.539 72.8229 350.602 72.5156C350.669 72.2083 350.771 71.9583 350.906 71.7656C351.031 71.5833 351.185 71.4479 351.367 71.3594C351.555 71.2656 351.771 71.2188 352.016 71.2188C352.234 71.2188 352.43 71.2552 352.602 71.3281C352.779 71.3958 352.927 71.5026 353.047 71.6484C353.203 71.8307 353.32 72.0755 353.398 72.3828C353.482 72.6849 353.529 73.0495 353.539 73.4766L350.508 75.7344ZM353.539 77C353.539 77.4219 353.505 77.7891 353.438 78.1016C353.375 78.4089 353.279 78.6615 353.148 78.8594C353.023 79.0469 352.867 79.1875 352.68 79.2812C352.492 79.3698 352.276 79.4141 352.031 79.4141C351.766 79.4141 351.536 79.362 351.344 79.2578C351.151 79.1536 350.992 78.9948 350.867 78.7812C350.758 78.6042 350.672 78.3828 350.609 78.1172C350.552 77.8516 350.518 77.5469 350.508 77.2031L353.539 74.9531C353.539 75.1042 353.539 75.2214 353.539 75.3047C353.539 75.3828 353.539 75.5078 353.539 75.6797V77ZM357.961 84.25H360.133V80.2656C360.232 80.375 360.336 80.474 360.445 80.5625C360.555 80.651 360.669 80.7318 360.789 80.8047C360.992 80.9193 361.211 81.0052 361.445 81.0625C361.685 81.125 361.945 81.1562 362.227 81.1562C362.758 81.1562 363.229 81.0469 363.641 80.8281C364.052 80.6094 364.398 80.3073 364.68 79.9219C364.956 79.5417 365.164 79.0885 365.305 78.5625C365.451 78.0365 365.523 77.4661 365.523 76.8516V76.6875C365.523 76.0469 365.451 75.4635 365.305 74.9375C365.164 74.4062 364.953 73.9505 364.672 73.5703C364.391 73.1953 364.044 72.9062 363.633 72.7031C363.221 72.4948 362.747 72.3906 362.211 72.3906C361.951 72.3906 361.706 72.4193 361.477 72.4766C361.253 72.5286 361.047 72.6042 360.859 72.7031C360.703 72.7865 360.557 72.8854 360.422 73C360.286 73.1094 360.161 73.2344 360.047 73.375L359.969 72.5469H357.961V84.25ZM363.352 76.6875V76.8516C363.352 77.2005 363.32 77.5312 363.258 77.8438C363.195 78.151 363.096 78.4219 362.961 78.6562C362.826 78.8906 362.648 79.0755 362.43 79.2109C362.216 79.3464 361.956 79.4141 361.648 79.4141C361.456 79.4141 361.281 79.3958 361.125 79.3594C360.969 79.3177 360.831 79.2604 360.711 79.1875C360.586 79.1094 360.474 79.0156 360.375 78.9062C360.281 78.7969 360.201 78.6745 360.133 78.5391V75.0078C360.206 74.862 360.292 74.7344 360.391 74.625C360.495 74.5156 360.615 74.4245 360.75 74.3516C360.87 74.2891 361.003 74.2422 361.148 74.2109C361.294 74.1745 361.456 74.1562 361.633 74.1562C361.94 74.1562 362.201 74.2214 362.414 74.3516C362.633 74.4818 362.812 74.6589 362.953 74.8828C363.089 75.112 363.188 75.3828 363.25 75.6953C363.318 76.0026 363.352 76.3333 363.352 76.6875ZM371.406 75.1875L369.578 72.5469H367.242L370.07 76.6953L367.133 81H369.484L371.414 78.2344L373.359 81H375.703L372.766 76.6953L375.602 72.5469H373.266L371.406 75.1875Z" fill="#6E33A6"/>
<path d="M8.64645 118.646C8.45118 118.842 8.45118 119.158 8.64645 119.354L11.8284 122.536C12.0237 122.731 12.3403 122.731 12.5355 122.536C12.7308 122.34 12.7308 122.024 12.5355 121.828L9.70711 119L12.5355 116.172C12.7308 115.976 12.7308 115.66 12.5355 115.464C12.3403 115.269 12.0237 115.269 11.8284 115.464L8.64645 118.646ZM227.354 119.354C227.549 119.158 227.549 118.842 227.354 118.646L224.172 115.464C223.976 115.269 223.66 115.269 223.464 115.464C223.269 115.66 223.269 115.976 223.464 116.172L226.293 119L223.464 121.828C223.269 122.024 223.269 122.34 223.464 122.536C223.66 122.731 223.976 122.731 224.172 122.536L227.354 119.354ZM9 119.5L227 119.5L227 118.5L9 118.5L9 119.5Z" fill="#6E33A6"/>
<path d="M254.646 118.646C254.451 118.842 254.451 119.158 254.646 119.354L257.828 122.536C258.024 122.731 258.34 122.731 258.536 122.536C258.731 122.34 258.731 122.024 258.536 121.828L255.707 119L258.536 116.172C258.731 115.976 258.731 115.66 258.536 115.464C258.34 115.269 258.024 115.269 257.828 115.464L254.646 118.646ZM383.354 119.354C383.549 119.158 383.549 118.842 383.354 118.646L380.172 115.464C379.976 115.269 379.66 115.269 379.464 115.464C379.269 115.66 379.269 115.976 379.464 116.172L382.293 119L379.464 121.828C379.269 122.024 379.269 122.34 379.464 122.536C379.66 122.731 379.976 122.731 380.172 122.536L383.354 119.354ZM255 119.5L383 119.5L383 118.5L255 118.5L255 119.5Z" fill="#6E33A6"/>
<path d="M99.8672 124.531H99.5781C98.6354 124.531 97.8047 124.69 97.0859 125.008C96.3672 125.32 95.7656 125.755 95.2812 126.312C94.7969 126.875 94.4323 127.542 94.1875 128.312C93.9427 129.078 93.8203 129.911 93.8203 130.812V131.648C93.8203 132.299 93.9115 132.901 94.0938 133.453C94.2812 134 94.5469 134.474 94.8906 134.875C95.2292 135.276 95.6432 135.591 96.1328 135.82C96.6224 136.044 97.1719 136.156 97.7812 136.156C98.3646 136.156 98.8906 136.057 99.3594 135.859C99.8281 135.656 100.227 135.38 100.555 135.031C100.883 134.682 101.135 134.271 101.312 133.797C101.49 133.323 101.578 132.81 101.578 132.258C101.578 131.742 101.51 131.253 101.375 130.789C101.245 130.32 101.044 129.909 100.773 129.555C100.503 129.206 100.164 128.93 99.7578 128.727C99.3568 128.518 98.8854 128.414 98.3438 128.414C98.0781 128.414 97.8307 128.445 97.6016 128.508C97.3724 128.57 97.1615 128.651 96.9688 128.75C96.7708 128.854 96.5938 128.971 96.4375 129.102C96.2812 129.227 96.1432 129.354 96.0234 129.484C96.0703 129.01 96.1823 128.581 96.3594 128.195C96.5417 127.81 96.7891 127.479 97.1016 127.203C97.4089 126.927 97.7812 126.714 98.2188 126.562C98.6615 126.411 99.1693 126.336 99.7422 126.336H99.8672V124.531ZM97.7109 130.156C97.9818 130.156 98.2214 130.211 98.4297 130.32C98.6432 130.424 98.8229 130.57 98.9688 130.758C99.1146 130.951 99.2266 131.177 99.3047 131.438C99.3828 131.698 99.4219 131.982 99.4219 132.289C99.4219 132.596 99.3828 132.88 99.3047 133.141C99.2266 133.396 99.1146 133.617 98.9688 133.805C98.8229 133.992 98.6458 134.141 98.4375 134.25C98.2292 134.354 97.9974 134.406 97.7422 134.406C97.4922 134.406 97.2604 134.354 97.0469 134.25C96.8333 134.146 96.6484 133.99 96.4922 133.781C96.3359 133.578 96.2135 133.32 96.125 133.008C96.0417 132.695 96 132.331 96 131.914V131.273C96.0729 131.117 96.1615 130.974 96.2656 130.844C96.375 130.714 96.4948 130.599 96.625 130.5C96.776 130.391 96.9427 130.307 97.125 130.25C97.3073 130.188 97.5026 130.156 97.7109 130.156ZM111.117 131.672V128.953C111.117 128.219 111.031 127.573 110.859 127.016C110.688 126.453 110.443 125.982 110.125 125.602C109.802 125.227 109.411 124.943 108.953 124.75C108.495 124.557 107.979 124.461 107.406 124.461C106.839 124.461 106.326 124.557 105.867 124.75C105.414 124.943 105.029 125.227 104.711 125.602C104.388 125.982 104.141 126.453 103.969 127.016C103.797 127.573 103.711 128.219 103.711 128.953V131.672C103.711 132.406 103.797 133.055 103.969 133.617C104.146 134.174 104.396 134.641 104.719 135.016C105.036 135.396 105.424 135.682 105.883 135.875C106.341 136.068 106.854 136.164 107.422 136.164C107.995 136.164 108.51 136.068 108.969 135.875C109.427 135.682 109.815 135.396 110.133 135.016C110.451 134.641 110.693 134.174 110.859 133.617C111.031 133.055 111.117 132.406 111.117 131.672ZM105.898 130.734C105.898 130.573 105.898 130.451 105.898 130.367C105.898 130.284 105.898 130.117 105.898 129.867V128.609C105.898 128.188 105.93 127.823 105.992 127.516C106.06 127.208 106.161 126.958 106.297 126.766C106.422 126.583 106.576 126.448 106.758 126.359C106.945 126.266 107.161 126.219 107.406 126.219C107.625 126.219 107.82 126.255 107.992 126.328C108.169 126.396 108.318 126.503 108.438 126.648C108.594 126.831 108.711 127.076 108.789 127.383C108.872 127.685 108.919 128.049 108.93 128.477L105.898 130.734ZM108.93 132C108.93 132.422 108.896 132.789 108.828 133.102C108.766 133.409 108.669 133.661 108.539 133.859C108.414 134.047 108.258 134.188 108.07 134.281C107.883 134.37 107.667 134.414 107.422 134.414C107.156 134.414 106.927 134.362 106.734 134.258C106.542 134.154 106.383 133.995 106.258 133.781C106.148 133.604 106.062 133.383 106 133.117C105.943 132.852 105.909 132.547 105.898 132.203L108.93 129.953C108.93 130.104 108.93 130.221 108.93 130.305C108.93 130.383 108.93 130.508 108.93 130.68V132ZM120.727 131.672V128.953C120.727 128.219 120.641 127.573 120.469 127.016C120.297 126.453 120.052 125.982 119.734 125.602C119.411 125.227 119.021 124.943 118.562 124.75C118.104 124.557 117.589 124.461 117.016 124.461C116.448 124.461 115.935 124.557 115.477 124.75C115.023 124.943 114.638 125.227 114.32 125.602C113.997 125.982 113.75 126.453 113.578 127.016C113.406 127.573 113.32 128.219 113.32 128.953V131.672C113.32 132.406 113.406 133.055 113.578 133.617C113.755 134.174 114.005 134.641 114.328 135.016C114.646 135.396 115.034 135.682 115.492 135.875C115.951 136.068 116.464 136.164 117.031 136.164C117.604 136.164 118.12 136.068 118.578 135.875C119.036 135.682 119.424 135.396 119.742 135.016C120.06 134.641 120.302 134.174 120.469 133.617C120.641 133.055 120.727 132.406 120.727 131.672ZM115.508 130.734C115.508 130.573 115.508 130.451 115.508 130.367C115.508 130.284 115.508 130.117 115.508 129.867V128.609C115.508 128.188 115.539 127.823 115.602 127.516C115.669 127.208 115.771 126.958 115.906 126.766C116.031 126.583 116.185 126.448 116.367 126.359C116.555 126.266 116.771 126.219 117.016 126.219C117.234 126.219 117.43 126.255 117.602 126.328C117.779 126.396 117.927 126.503 118.047 126.648C118.203 126.831 118.32 127.076 118.398 127.383C118.482 127.685 118.529 128.049 118.539 128.477L115.508 130.734ZM118.539 132C118.539 132.422 118.505 132.789 118.438 133.102C118.375 133.409 118.279 133.661 118.148 133.859C118.023 134.047 117.867 134.188 117.68 134.281C117.492 134.37 117.276 134.414 117.031 134.414C116.766 134.414 116.536 134.362 116.344 134.258C116.151 134.154 115.992 133.995 115.867 133.781C115.758 133.604 115.672 133.383 115.609 133.117C115.552 132.852 115.518 132.547 115.508 132.203L118.539 129.953C118.539 130.104 118.539 130.221 118.539 130.305C118.539 130.383 118.539 130.508 118.539 130.68V132ZM122.961 139.25H125.133V135.266C125.232 135.375 125.336 135.474 125.445 135.562C125.555 135.651 125.669 135.732 125.789 135.805C125.992 135.919 126.211 136.005 126.445 136.062C126.685 136.125 126.945 136.156 127.227 136.156C127.758 136.156 128.229 136.047 128.641 135.828C129.052 135.609 129.398 135.307 129.68 134.922C129.956 134.542 130.164 134.089 130.305 133.562C130.451 133.036 130.523 132.466 130.523 131.852V131.688C130.523 131.047 130.451 130.464 130.305 129.938C130.164 129.406 129.953 128.951 129.672 128.57C129.391 128.195 129.044 127.906 128.633 127.703C128.221 127.495 127.747 127.391 127.211 127.391C126.951 127.391 126.706 127.419 126.477 127.477C126.253 127.529 126.047 127.604 125.859 127.703C125.703 127.786 125.557 127.885 125.422 128C125.286 128.109 125.161 128.234 125.047 128.375L124.969 127.547H122.961V139.25ZM128.352 131.688V131.852C128.352 132.201 128.32 132.531 128.258 132.844C128.195 133.151 128.096 133.422 127.961 133.656C127.826 133.891 127.648 134.076 127.43 134.211C127.216 134.346 126.956 134.414 126.648 134.414C126.456 134.414 126.281 134.396 126.125 134.359C125.969 134.318 125.831 134.26 125.711 134.188C125.586 134.109 125.474 134.016 125.375 133.906C125.281 133.797 125.201 133.674 125.133 133.539V130.008C125.206 129.862 125.292 129.734 125.391 129.625C125.495 129.516 125.615 129.424 125.75 129.352C125.87 129.289 126.003 129.242 126.148 129.211C126.294 129.174 126.456 129.156 126.633 129.156C126.94 129.156 127.201 129.221 127.414 129.352C127.633 129.482 127.812 129.659 127.953 129.883C128.089 130.112 128.188 130.383 128.25 130.695C128.318 131.003 128.352 131.333 128.352 131.688ZM136.406 130.188L134.578 127.547H132.242L135.07 131.695L132.133 136H134.484L136.414 133.234L138.359 136H140.703L137.766 131.695L140.602 127.547H138.266L136.406 130.188Z" fill="#6E33A6"/>
<path d="M297.289 129.359V131.047H298.469C298.766 131.047 299.031 131.081 299.266 131.148C299.505 131.216 299.711 131.32 299.883 131.461C300.049 131.602 300.177 131.781 300.266 132C300.354 132.219 300.398 132.482 300.398 132.789C300.398 133.034 300.359 133.255 300.281 133.453C300.208 133.651 300.099 133.818 299.953 133.953C299.802 134.104 299.615 134.219 299.391 134.297C299.167 134.375 298.914 134.414 298.633 134.414C298.383 134.414 298.154 134.378 297.945 134.305C297.737 134.227 297.557 134.12 297.406 133.984C297.25 133.854 297.13 133.698 297.047 133.516C296.964 133.328 296.922 133.125 296.922 132.906H294.75C294.75 133.458 294.857 133.938 295.07 134.344C295.289 134.75 295.578 135.086 295.938 135.352C296.297 135.622 296.706 135.826 297.164 135.961C297.628 136.091 298.102 136.156 298.586 136.156C299.148 136.156 299.672 136.083 300.156 135.938C300.646 135.786 301.068 135.568 301.422 135.281C301.776 135 302.055 134.651 302.258 134.234C302.461 133.818 302.562 133.344 302.562 132.812C302.562 132.51 302.526 132.224 302.453 131.953C302.38 131.682 302.268 131.432 302.117 131.203C301.966 130.979 301.773 130.779 301.539 130.602C301.31 130.424 301.036 130.279 300.719 130.164C300.99 130.034 301.229 129.88 301.438 129.703C301.646 129.521 301.82 129.323 301.961 129.109C302.102 128.896 302.208 128.672 302.281 128.438C302.354 128.198 302.391 127.956 302.391 127.711C302.391 127.18 302.297 126.714 302.109 126.312C301.927 125.906 301.669 125.565 301.336 125.289C301.003 125.018 300.602 124.815 300.133 124.68C299.664 124.539 299.148 124.469 298.586 124.469C298.065 124.469 297.578 124.544 297.125 124.695C296.677 124.846 296.286 125.057 295.953 125.328C295.62 125.604 295.357 125.932 295.164 126.312C294.977 126.693 294.883 127.115 294.883 127.578H297.055C297.055 127.37 297.096 127.182 297.18 127.016C297.263 126.849 297.378 126.706 297.523 126.586C297.664 126.471 297.828 126.383 298.016 126.32C298.208 126.258 298.414 126.227 298.633 126.227C298.898 126.227 299.13 126.263 299.328 126.336C299.531 126.409 299.698 126.51 299.828 126.641C299.958 126.776 300.055 126.938 300.117 127.125C300.185 127.307 300.219 127.51 300.219 127.734C300.219 127.964 300.185 128.177 300.117 128.375C300.055 128.568 299.958 128.732 299.828 128.867C299.688 129.023 299.503 129.146 299.273 129.234C299.049 129.318 298.781 129.359 298.469 129.359H297.289ZM312.117 131.672V128.953C312.117 128.219 312.031 127.573 311.859 127.016C311.688 126.453 311.443 125.982 311.125 125.602C310.802 125.227 310.411 124.943 309.953 124.75C309.495 124.557 308.979 124.461 308.406 124.461C307.839 124.461 307.326 124.557 306.867 124.75C306.414 124.943 306.029 125.227 305.711 125.602C305.388 125.982 305.141 126.453 304.969 127.016C304.797 127.573 304.711 128.219 304.711 128.953V131.672C304.711 132.406 304.797 133.055 304.969 133.617C305.146 134.174 305.396 134.641 305.719 135.016C306.036 135.396 306.424 135.682 306.883 135.875C307.341 136.068 307.854 136.164 308.422 136.164C308.995 136.164 309.51 136.068 309.969 135.875C310.427 135.682 310.815 135.396 311.133 135.016C311.451 134.641 311.693 134.174 311.859 133.617C312.031 133.055 312.117 132.406 312.117 131.672ZM306.898 130.734C306.898 130.573 306.898 130.451 306.898 130.367C306.898 130.284 306.898 130.117 306.898 129.867V128.609C306.898 128.188 306.93 127.823 306.992 127.516C307.06 127.208 307.161 126.958 307.297 126.766C307.422 126.583 307.576 126.448 307.758 126.359C307.945 126.266 308.161 126.219 308.406 126.219C308.625 126.219 308.82 126.255 308.992 126.328C309.169 126.396 309.318 126.503 309.438 126.648C309.594 126.831 309.711 127.076 309.789 127.383C309.872 127.685 309.919 128.049 309.93 128.477L306.898 130.734ZM309.93 132C309.93 132.422 309.896 132.789 309.828 133.102C309.766 133.409 309.669 133.661 309.539 133.859C309.414 134.047 309.258 134.188 309.07 134.281C308.883 134.37 308.667 134.414 308.422 134.414C308.156 134.414 307.927 134.362 307.734 134.258C307.542 134.154 307.383 133.995 307.258 133.781C307.148 133.604 307.062 133.383 307 133.117C306.943 132.852 306.909 132.547 306.898 132.203L309.93 129.953C309.93 130.104 309.93 130.221 309.93 130.305C309.93 130.383 309.93 130.508 309.93 130.68V132ZM321.727 131.672V128.953C321.727 128.219 321.641 127.573 321.469 127.016C321.297 126.453 321.052 125.982 320.734 125.602C320.411 125.227 320.021 124.943 319.562 124.75C319.104 124.557 318.589 124.461 318.016 124.461C317.448 124.461 316.935 124.557 316.477 124.75C316.023 124.943 315.638 125.227 315.32 125.602C314.997 125.982 314.75 126.453 314.578 127.016C314.406 127.573 314.32 128.219 314.32 128.953V131.672C314.32 132.406 314.406 133.055 314.578 133.617C314.755 134.174 315.005 134.641 315.328 135.016C315.646 135.396 316.034 135.682 316.492 135.875C316.951 136.068 317.464 136.164 318.031 136.164C318.604 136.164 319.12 136.068 319.578 135.875C320.036 135.682 320.424 135.396 320.742 135.016C321.06 134.641 321.302 134.174 321.469 133.617C321.641 133.055 321.727 132.406 321.727 131.672ZM316.508 130.734C316.508 130.573 316.508 130.451 316.508 130.367C316.508 130.284 316.508 130.117 316.508 129.867V128.609C316.508 128.188 316.539 127.823 316.602 127.516C316.669 127.208 316.771 126.958 316.906 126.766C317.031 126.583 317.185 126.448 317.367 126.359C317.555 126.266 317.771 126.219 318.016 126.219C318.234 126.219 318.43 126.255 318.602 126.328C318.779 126.396 318.927 126.503 319.047 126.648C319.203 126.831 319.32 127.076 319.398 127.383C319.482 127.685 319.529 128.049 319.539 128.477L316.508 130.734ZM319.539 132C319.539 132.422 319.505 132.789 319.438 133.102C319.375 133.409 319.279 133.661 319.148 133.859C319.023 134.047 318.867 134.188 318.68 134.281C318.492 134.37 318.276 134.414 318.031 134.414C317.766 134.414 317.536 134.362 317.344 134.258C317.151 134.154 316.992 133.995 316.867 133.781C316.758 133.604 316.672 133.383 316.609 133.117C316.552 132.852 316.518 132.547 316.508 132.203L319.539 129.953C319.539 130.104 319.539 130.221 319.539 130.305C319.539 130.383 319.539 130.508 319.539 130.68V132ZM323.961 139.25H326.133V135.266C326.232 135.375 326.336 135.474 326.445 135.562C326.555 135.651 326.669 135.732 326.789 135.805C326.992 135.919 327.211 136.005 327.445 136.062C327.685 136.125 327.945 136.156 328.227 136.156C328.758 136.156 329.229 136.047 329.641 135.828C330.052 135.609 330.398 135.307 330.68 134.922C330.956 134.542 331.164 134.089 331.305 133.562C331.451 133.036 331.523 132.466 331.523 131.852V131.688C331.523 131.047 331.451 130.464 331.305 129.938C331.164 129.406 330.953 128.951 330.672 128.57C330.391 128.195 330.044 127.906 329.633 127.703C329.221 127.495 328.747 127.391 328.211 127.391C327.951 127.391 327.706 127.419 327.477 127.477C327.253 127.529 327.047 127.604 326.859 127.703C326.703 127.786 326.557 127.885 326.422 128C326.286 128.109 326.161 128.234 326.047 128.375L325.969 127.547H323.961V139.25ZM329.352 131.688V131.852C329.352 132.201 329.32 132.531 329.258 132.844C329.195 133.151 329.096 133.422 328.961 133.656C328.826 133.891 328.648 134.076 328.43 134.211C328.216 134.346 327.956 134.414 327.648 134.414C327.456 134.414 327.281 134.396 327.125 134.359C326.969 134.318 326.831 134.26 326.711 134.188C326.586 134.109 326.474 134.016 326.375 133.906C326.281 133.797 326.201 133.674 326.133 133.539V130.008C326.206 129.862 326.292 129.734 326.391 129.625C326.495 129.516 326.615 129.424 326.75 129.352C326.87 129.289 327.003 129.242 327.148 129.211C327.294 129.174 327.456 129.156 327.633 129.156C327.94 129.156 328.201 129.221 328.414 129.352C328.633 129.482 328.812 129.659 328.953 129.883C329.089 130.112 329.188 130.383 329.25 130.695C329.318 131.003 329.352 131.333 329.352 131.688ZM337.406 130.188L335.578 127.547H333.242L336.07 131.695L333.133 136H335.484L337.414 133.234L339.359 136H341.703L338.766 131.695L341.602 127.547H339.266L337.406 130.188Z" fill="#6E33A6"/>
</svg>
