<svg width="552" height="142" viewBox="0 0 552 142" fill="none" xmlns="http://www.w3.org/2000/svg">
<rect width="135" height="29" rx="10" fill="#EFF1F3"/>
<path d="M11.5547 18.6797C11.5547 18.8099 11.5208 18.9297 11.4531 19.0391C11.3906 19.1484 11.2943 19.2448 11.1641 19.3281C11.0286 19.4115 10.8542 19.4792 10.6406 19.5312C10.4323 19.5781 10.1875 19.6016 9.90625 19.6016C9.67188 19.6016 9.44271 19.5781 9.21875 19.5312C9 19.4844 8.80469 19.4089 8.63281 19.3047C8.46094 19.2057 8.32031 19.0755 8.21094 18.9141C8.10156 18.7474 8.03906 18.5495 8.02344 18.3203H5.95312C5.95312 18.6641 6.03646 19.0078 6.20312 19.3516C6.375 19.6901 6.625 19.9922 6.95312 20.2578C7.28125 20.5286 7.6875 20.7474 8.17188 20.9141C8.66146 21.0807 9.22396 21.1641 9.85938 21.1641C10.4375 21.1641 10.9609 21.1016 11.4297 20.9766C11.8984 20.8464 12.2995 20.6667 12.6328 20.4375C12.9609 20.2083 13.2135 19.9375 13.3906 19.625C13.5729 19.3073 13.6641 18.9609 13.6641 18.5859C13.6641 18.1797 13.5729 17.8307 13.3906 17.5391C13.2135 17.2422 12.9661 16.9896 12.6484 16.7812C12.3307 16.5781 11.9531 16.4115 11.5156 16.2812C11.0781 16.151 10.6042 16.0443 10.0938 15.9609C9.73958 15.9089 9.44792 15.849 9.21875 15.7812C8.98958 15.7083 8.8099 15.6276 8.67969 15.5391C8.54427 15.4557 8.45052 15.362 8.39844 15.2578C8.34635 15.1484 8.32031 15.0312 8.32031 14.9062C8.32031 14.7812 8.34896 14.6641 8.40625 14.5547C8.46875 14.4401 8.55729 14.3411 8.67188 14.2578C8.79688 14.1641 8.95833 14.0911 9.15625 14.0391C9.35417 13.987 9.58594 13.9609 9.85156 13.9609C10.1641 13.9609 10.4297 14 10.6484 14.0781C10.8724 14.1562 11.0495 14.2604 11.1797 14.3906C11.2734 14.4896 11.3438 14.6016 11.3906 14.7266C11.4375 14.8464 11.4609 14.9766 11.4609 15.1172H13.6328C13.6328 14.7266 13.5469 14.3646 13.375 14.0312C13.2031 13.6979 12.9557 13.4089 12.6328 13.1641C12.3047 12.9245 11.9062 12.737 11.4375 12.6016C10.9688 12.4609 10.4401 12.3906 9.85156 12.3906C9.28906 12.3906 8.78385 12.4609 8.33594 12.6016C7.88802 12.7422 7.50781 12.9323 7.19531 13.1719C6.88281 13.4115 6.64323 13.6901 6.47656 14.0078C6.3099 14.3255 6.22656 14.6589 6.22656 15.0078C6.22656 15.3672 6.30729 15.6849 6.46875 15.9609C6.63542 16.237 6.86458 16.4792 7.15625 16.6875C7.44792 16.901 7.79687 17.0833 8.20312 17.2344C8.61458 17.3802 9.06771 17.5026 9.5625 17.6016C9.95312 17.6745 10.276 17.7474 10.5312 17.8203C10.7865 17.8932 10.9922 17.9714 11.1484 18.0547C11.2995 18.1432 11.4036 18.237 11.4609 18.3359C11.5234 18.4349 11.5547 18.5495 11.5547 18.6797ZM15.7422 24.25H17.9141V20.2656C18.013 20.375 18.1172 20.474 18.2266 20.5625C18.3359 20.651 18.4505 20.7318 18.5703 20.8047C18.7734 20.9193 18.9922 21.0052 19.2266 21.0625C19.4661 21.125 19.7266 21.1562 20.0078 21.1562C20.5391 21.1562 21.0104 21.0469 21.4219 20.8281C21.8333 20.6094 22.1797 20.3073 22.4609 19.9219C22.737 19.5417 22.9453 19.0885 23.0859 18.5625C23.2318 18.0365 23.3047 17.4661 23.3047 16.8516V16.6875C23.3047 16.0469 23.2318 15.4635 23.0859 14.9375C22.9453 14.4063 22.7344 13.9505 22.4531 13.5703C22.1719 13.1953 21.8255 12.9063 21.4141 12.7031C21.0026 12.4948 20.5286 12.3906 19.9922 12.3906C19.7318 12.3906 19.487 12.4193 19.2578 12.4766C19.0339 12.5286 18.8281 12.6042 18.6406 12.7031C18.4844 12.7865 18.3385 12.8854 18.2031 13C18.0677 13.1094 17.9427 13.2344 17.8281 13.375L17.75 12.5469H15.7422L15.7422 24.25ZM21.1328 16.6875V16.8516C21.1328 17.2005 21.1016 17.5312 21.0391 17.8438C20.9766 18.151 20.8776 18.4219 20.7422 18.6562C20.6068 18.8906 20.4297 19.0755 20.2109 19.2109C19.9974 19.3464 19.737 19.4141 19.4297 19.4141C19.237 19.4141 19.0625 19.3958 18.9062 19.3594C18.75 19.3177 18.612 19.2604 18.4922 19.1875C18.3672 19.1094 18.2552 19.0156 18.1562 18.9062C18.0625 18.7969 17.9818 18.6745 17.9141 18.5391V15.0078C17.987 14.862 18.0729 14.7344 18.1719 14.625C18.276 14.5156 18.3958 14.4245 18.5312 14.3516C18.651 14.2891 18.7839 14.2422 18.9297 14.2109C19.0755 14.1745 19.237 14.1562 19.4141 14.1562C19.7214 14.1562 19.9818 14.2214 20.1953 14.3516C20.4141 14.4818 20.5938 14.6589 20.7344 14.8828C20.8698 15.112 20.9688 15.3828 21.0312 15.6953C21.099 16.0026 21.1328 16.3333 21.1328 16.6875ZM30.6016 21H32.8047V20.8672C32.6953 20.6536 32.612 20.3984 32.5547 20.1016C32.4974 19.8047 32.4688 19.4297 32.4688 18.9766V15.3516C32.4688 14.862 32.3776 14.4323 32.1953 14.0625C32.013 13.6875 31.7604 13.3776 31.4375 13.1328C31.1146 12.888 30.7318 12.7031 30.2891 12.5781C29.8516 12.4531 29.3776 12.3906 28.8672 12.3906C28.2995 12.3906 27.7943 12.4635 27.3516 12.6094C26.9141 12.75 26.5443 12.9427 26.2422 13.1875C25.9349 13.4323 25.7005 13.7161 25.5391 14.0391C25.3828 14.362 25.3047 14.7031 25.3047 15.0625H27.4766C27.4766 14.9115 27.4974 14.7734 27.5391 14.6484C27.5859 14.5234 27.6562 14.4167 27.75 14.3281C27.8542 14.2292 27.9896 14.1536 28.1562 14.1016C28.3229 14.0443 28.5208 14.0156 28.75 14.0156C29.0104 14.0156 29.237 14.0495 29.4297 14.1172C29.6276 14.1797 29.7917 14.2708 29.9219 14.3906C30.0469 14.5052 30.1406 14.6432 30.2031 14.8047C30.2656 14.9609 30.2969 15.138 30.2969 15.3359V15.8359H29.0859C28.4609 15.8359 27.9062 15.8932 27.4219 16.0078C26.9427 16.1172 26.5391 16.2786 26.2109 16.4922C25.8464 16.7266 25.5729 17.026 25.3906 17.3906C25.2083 17.75 25.1172 18.1641 25.1172 18.6328C25.1172 18.9974 25.1901 19.3359 25.3359 19.6484C25.4818 19.9557 25.6849 20.2214 25.9453 20.4453C26.2057 20.6693 26.5156 20.8438 26.875 20.9688C27.2396 21.0938 27.638 21.1562 28.0703 21.1562C28.3359 21.1562 28.5833 21.1302 28.8125 21.0781C29.0417 21.0312 29.2526 20.9635 29.4453 20.875C29.6328 20.7917 29.8047 20.6927 29.9609 20.5781C30.1172 20.4635 30.2552 20.3411 30.375 20.2109C30.401 20.362 30.4323 20.5052 30.4688 20.6406C30.5052 20.776 30.5495 20.8958 30.6016 21ZM28.5312 19.4766C28.3281 19.4766 28.1484 19.4531 27.9922 19.4062C27.8411 19.3542 27.7135 19.2865 27.6094 19.2031C27.5052 19.1146 27.4245 19.0078 27.3672 18.8828C27.3151 18.7526 27.2891 18.612 27.2891 18.4609C27.2891 18.2682 27.3255 18.0911 27.3984 17.9297C27.4714 17.763 27.5833 17.6198 27.7344 17.5C27.8854 17.3854 28.0807 17.2969 28.3203 17.2344C28.5599 17.1667 28.849 17.1328 29.1875 17.1328H30.2969V18.5859C30.2344 18.6953 30.1484 18.8047 30.0391 18.9141C29.9297 19.0182 29.7995 19.112 29.6484 19.1953C29.4974 19.2786 29.3281 19.3464 29.1406 19.3984C28.9531 19.4505 28.75 19.4766 28.5312 19.4766ZM38.6719 19.4219C38.3229 19.4219 38.0339 19.3516 37.8047 19.2109C37.5807 19.0703 37.4036 18.8828 37.2734 18.6484C37.138 18.4193 37.0443 18.1536 36.9922 17.8516C36.9401 17.5443 36.9141 17.2266 36.9141 16.8984V16.6641C36.9141 16.3411 36.9401 16.0286 36.9922 15.7266C37.0495 15.4245 37.1458 15.1563 37.2812 14.9219C37.4115 14.6875 37.5885 14.5 37.8125 14.3594C38.0365 14.2188 38.3203 14.1484 38.6641 14.1484C38.8984 14.1484 39.1146 14.1901 39.3125 14.2734C39.5104 14.3516 39.6797 14.4583 39.8203 14.5938C39.9609 14.7292 40.0677 14.8906 40.1406 15.0781C40.2135 15.2656 40.2448 15.4635 40.2344 15.6719H42.2812C42.2917 15.1719 42.2083 14.7214 42.0312 14.3203C41.8542 13.9141 41.6068 13.5677 41.2891 13.2813C40.9661 13 40.5833 12.7813 40.1406 12.625C39.6979 12.4688 39.2161 12.3906 38.6953 12.3906C38.0443 12.3906 37.4714 12.5026 36.9766 12.7266C36.487 12.9505 36.0755 13.2552 35.7422 13.6406C35.4089 14.026 35.1589 14.4792 34.9922 15C34.8255 15.5156 34.7422 16.0703 34.7422 16.6641V16.8984C34.7422 17.4922 34.8255 18.0495 34.9922 18.5703C35.1641 19.0859 35.4167 19.5365 35.75 19.9219C36.0781 20.3073 36.4896 20.612 36.9844 20.8359C37.4792 21.0547 38.0547 21.1641 38.7109 21.1641C39.1953 21.1641 39.6536 21.0885 40.0859 20.9375C40.5234 20.7813 40.9062 20.5677 41.2344 20.2969C41.5625 20.026 41.8203 19.7031 42.0078 19.3281C42.2005 18.9531 42.2917 18.5469 42.2812 18.1094H40.2344C40.2448 18.3073 40.2083 18.487 40.125 18.6484C40.0469 18.8099 39.9349 18.9479 39.7891 19.0625C39.6432 19.1771 39.474 19.2656 39.2812 19.3281C39.0885 19.3906 38.8854 19.4219 38.6719 19.4219ZM48.6406 21.1563C49.4583 21.1563 50.1667 20.9974 50.7656 20.6797C51.3646 20.362 51.8021 20.0078 52.0781 19.6172L50.9922 18.4453C50.7422 18.7682 50.4167 19.0104 50.0156 19.1719C49.6146 19.3333 49.2005 19.4141 48.7734 19.4141C48.4714 19.4141 48.1927 19.3672 47.9375 19.2734C47.6823 19.1797 47.4557 19.0469 47.2578 18.875C47.0651 18.7083 46.9115 18.5234 46.7969 18.3203C46.6823 18.112 46.5885 17.8385 46.5156 17.5V17.4766H52.25V16.5547C52.25 15.9349 52.1641 15.3698 51.9922 14.8594C51.8203 14.3438 51.5703 13.9036 51.2422 13.5391C50.9089 13.1745 50.5026 12.8932 50.0234 12.6953C49.5495 12.4922 49.0078 12.3906 48.3984 12.3906C47.8099 12.3906 47.2656 12.4974 46.7656 12.7109C46.2656 12.9245 45.8333 13.224 45.4688 13.6094C45.1042 13.9948 44.8203 14.4557 44.6172 14.9922C44.4141 15.5234 44.3125 16.112 44.3125 16.7578V17.0703C44.3125 17.638 44.4141 18.1719 44.6172 18.6719C44.8255 19.1667 45.1198 19.5964 45.5 19.9609C45.8802 20.3307 46.3359 20.6224 46.8672 20.8359C47.3984 21.0495 47.9896 21.1563 48.6406 21.1563ZM48.3828 14.1484C48.6589 14.1484 48.901 14.1927 49.1094 14.2813C49.3229 14.3646 49.5026 14.4792 49.6484 14.625C49.7943 14.776 49.9089 14.9531 49.9922 15.1563C50.0755 15.3594 50.1172 15.5755 50.1172 15.8047V15.9766H46.5547C46.6068 15.7005 46.6849 15.4505 46.7891 15.2266C46.8932 15.0026 47.0234 14.8099 47.1797 14.6484C47.3307 14.487 47.5078 14.3646 47.7109 14.2813C47.9141 14.1927 48.138 14.1484 48.3828 14.1484ZM61.7578 16.8594V15.1016H55.25V16.8594H61.7578ZM71.375 16.8594V16.6953C71.375 16.1849 71.3281 15.7057 71.2344 15.2578C71.1458 14.8099 71.0078 14.4063 70.8203 14.0469C70.7005 13.8229 70.5625 13.6172 70.4062 13.4297C70.25 13.237 70.0755 13.0729 69.8828 12.9375C69.6432 12.7604 69.3698 12.625 69.0625 12.5313C68.7604 12.4375 68.4271 12.3906 68.0625 12.3906C67.7969 12.3906 67.5495 12.4193 67.3203 12.4766C67.0964 12.5286 66.888 12.6094 66.6953 12.7188C66.5599 12.7917 66.4323 12.8802 66.3125 12.9844C66.1927 13.0833 66.0807 13.1927 65.9766 13.3125V9H63.8047V21H65.7578L65.8594 20.1016C65.9479 20.2161 66.0417 20.3229 66.1406 20.4219C66.2396 20.5156 66.3464 20.6016 66.4609 20.6797C66.6745 20.8359 66.9141 20.9531 67.1797 21.0313C67.4505 21.1146 67.75 21.1563 68.0781 21.1563C68.4375 21.1563 68.7656 21.1094 69.0625 21.0156C69.3646 20.9271 69.6354 20.7969 69.875 20.625C70.1406 20.4427 70.3698 20.2135 70.5625 19.9375C70.7604 19.6615 70.9193 19.3542 71.0391 19.0156C71.1484 18.7083 71.2318 18.375 71.2891 18.0156C71.3464 17.651 71.375 17.2656 71.375 16.8594ZM69.2031 16.6953V16.8594C69.2031 17.0781 69.1927 17.2891 69.1719 17.4922C69.1562 17.6953 69.1276 17.8828 69.0859 18.0547C69.0339 18.2891 68.9557 18.5 68.8516 18.6875C68.7526 18.8698 68.6224 19.0182 68.4609 19.1328C68.3464 19.2161 68.2109 19.2813 68.0547 19.3281C67.8984 19.375 67.724 19.3984 67.5312 19.3984C67.3073 19.3984 67.1068 19.3724 66.9297 19.3203C66.7578 19.2682 66.6068 19.1927 66.4766 19.0938C66.3672 19.0156 66.2708 18.9245 66.1875 18.8203C66.1094 18.7109 66.0391 18.5911 65.9766 18.4609V15.0938C66.0234 14.9948 66.0755 14.9036 66.1328 14.8203C66.1901 14.7318 66.2526 14.6536 66.3203 14.5859C66.4609 14.4453 66.6302 14.3385 66.8281 14.2656C67.026 14.1927 67.2552 14.1563 67.5156 14.1563C67.7083 14.1563 67.8802 14.1797 68.0312 14.2266C68.1823 14.2682 68.3177 14.3333 68.4375 14.4219C68.6198 14.5625 68.7552 14.7188 68.8438 14.8906C68.9375 15.0573 69.013 15.2474 69.0703 15.4609C69.1172 15.6432 69.151 15.8385 69.1719 16.0469C69.1927 16.2552 69.2031 16.4714 69.2031 16.6953ZM77.4688 21.1563C78.2865 21.1563 78.9948 20.9974 79.5938 20.6797C80.1927 20.362 80.6302 20.0078 80.9062 19.6172L79.8203 18.4453C79.5703 18.7682 79.2448 19.0104 78.8438 19.1719C78.4427 19.3333 78.0286 19.4141 77.6016 19.4141C77.2995 19.4141 77.0208 19.3672 76.7656 19.2734C76.5104 19.1797 76.2839 19.0469 76.0859 18.875C75.8932 18.7083 75.7396 18.5234 75.625 18.3203C75.5104 18.112 75.4167 17.8385 75.3438 17.5V17.4766H81.0781V16.5547C81.0781 15.9349 80.9922 15.3698 80.8203 14.8594C80.6484 14.3438 80.3984 13.9036 80.0703 13.5391C79.737 13.1745 79.3307 12.8932 78.8516 12.6953C78.3776 12.4922 77.8359 12.3906 77.2266 12.3906C76.638 12.3906 76.0938 12.4974 75.5938 12.7109C75.0938 12.9245 74.6615 13.224 74.2969 13.6094C73.9323 13.9948 73.6484 14.4557 73.4453 14.9922C73.2422 15.5234 73.1406 16.112 73.1406 16.7578V17.0703C73.1406 17.638 73.2422 18.1719 73.4453 18.6719C73.6536 19.1667 73.9479 19.5964 74.3281 19.9609C74.7083 20.3307 75.1641 20.6224 75.6953 20.8359C76.2266 21.0495 76.8177 21.1563 77.4688 21.1563ZM77.2109 14.1484C77.487 14.1484 77.7292 14.1927 77.9375 14.2813C78.151 14.3646 78.3307 14.4792 78.4766 14.625C78.6224 14.776 78.737 14.9531 78.8203 15.1563C78.9036 15.3594 78.9453 15.5755 78.9453 15.8047V15.9766H75.3828C75.4349 15.7005 75.513 15.4505 75.6172 15.2266C75.7214 15.0026 75.8516 14.8099 76.0078 14.6484C76.1589 14.487 76.3359 14.3646 76.5391 14.2813C76.7422 14.1927 76.9661 14.1484 77.2109 14.1484ZM86.9609 10.4766H84.7891V12.5469H82.8594V14.1484H84.7891V17.9922C84.7891 18.5495 84.862 19.0286 85.0078 19.4297C85.1536 19.8255 85.362 20.151 85.6328 20.4063C85.8984 20.6667 86.2188 20.8594 86.5938 20.9844C86.974 21.1042 87.3958 21.1641 87.8594 21.1641C88.099 21.1641 88.3411 21.151 88.5859 21.125C88.8359 21.1042 89.0755 21.0729 89.3047 21.0313C89.5339 20.9896 89.75 20.9375 89.9531 20.875C90.1562 20.8073 90.3333 20.7292 90.4844 20.6406L90.2734 19.1484C90.1745 19.1745 90.0547 19.2005 89.9141 19.2266C89.7786 19.2526 89.6328 19.276 89.4766 19.2969C89.3151 19.3229 89.1458 19.3438 88.9688 19.3594C88.7969 19.375 88.6276 19.3828 88.4609 19.3828C88.2318 19.3828 88.0234 19.3568 87.8359 19.3047C87.6536 19.2526 87.4974 19.1641 87.3672 19.0391C87.237 18.9193 87.1354 18.7578 87.0625 18.5547C86.9948 18.3464 86.9609 18.0885 86.9609 17.7813V14.1484H90.1172V12.5469H86.9609V10.4766ZM93.2109 21H95.1172L96.0156 16.4844L96.1875 15.625L96.3672 16.4844L97.2969 21H99.2031L100.719 12.5469H98.7266L98.1016 17.5313L97.9922 18.3516L97.8438 17.5469L96.9297 12.5469H95.4766L94.5625 17.5703L94.4141 18.375L94.3125 17.5703L93.6797 12.5469H91.6953L93.2109 21ZM106.297 21.1563C107.115 21.1563 107.823 20.9974 108.422 20.6797C109.021 20.362 109.458 20.0078 109.734 19.6172L108.648 18.4453C108.398 18.7682 108.073 19.0104 107.672 19.1719C107.271 19.3333 106.857 19.4141 106.43 19.4141C106.128 19.4141 105.849 19.3672 105.594 19.2734C105.339 19.1797 105.112 19.0469 104.914 18.875C104.721 18.7083 104.568 18.5234 104.453 18.3203C104.339 18.112 104.245 17.8385 104.172 17.5V17.4766H109.906V16.5547C109.906 15.9349 109.82 15.3698 109.648 14.8594C109.477 14.3438 109.227 13.9036 108.898 13.5391C108.565 13.1745 108.159 12.8932 107.68 12.6953C107.206 12.4922 106.664 12.3906 106.055 12.3906C105.466 12.3906 104.922 12.4974 104.422 12.7109C103.922 12.9245 103.49 13.224 103.125 13.6094C102.76 13.9948 102.477 14.4557 102.273 14.9922C102.07 15.5234 101.969 16.112 101.969 16.7578V17.0703C101.969 17.638 102.07 18.1719 102.273 18.6719C102.482 19.1667 102.776 19.5964 103.156 19.9609C103.536 20.3307 103.992 20.6224 104.523 20.8359C105.055 21.0495 105.646 21.1563 106.297 21.1563ZM106.039 14.1484C106.315 14.1484 106.557 14.1927 106.766 14.2813C106.979 14.3646 107.159 14.4792 107.305 14.625C107.451 14.776 107.565 14.9531 107.648 15.1563C107.732 15.3594 107.773 15.5755 107.773 15.8047V15.9766H104.211C104.263 15.7005 104.341 15.4505 104.445 15.2266C104.549 15.0026 104.68 14.8099 104.836 14.6484C104.987 14.487 105.164 14.3646 105.367 14.2813C105.57 14.1927 105.794 14.1484 106.039 14.1484ZM115.906 21.1563C116.724 21.1563 117.432 20.9974 118.031 20.6797C118.63 20.362 119.068 20.0078 119.344 19.6172L118.258 18.4453C118.008 18.7682 117.682 19.0104 117.281 19.1719C116.88 19.3333 116.466 19.4141 116.039 19.4141C115.737 19.4141 115.458 19.3672 115.203 19.2734C114.948 19.1797 114.721 19.0469 114.523 18.875C114.331 18.7083 114.177 18.5234 114.062 18.3203C113.948 18.112 113.854 17.8385 113.781 17.5V17.4766H119.516V16.5547C119.516 15.9349 119.43 15.3698 119.258 14.8594C119.086 14.3438 118.836 13.9036 118.508 13.5391C118.174 13.1745 117.768 12.8932 117.289 12.6953C116.815 12.4922 116.273 12.3906 115.664 12.3906C115.076 12.3906 114.531 12.4974 114.031 12.7109C113.531 12.9245 113.099 13.224 112.734 13.6094C112.37 13.9948 112.086 14.4557 111.883 14.9922C111.68 15.5234 111.578 16.112 111.578 16.7578V17.0703C111.578 17.638 111.68 18.1719 111.883 18.6719C112.091 19.1667 112.385 19.5964 112.766 19.9609C113.146 20.3307 113.602 20.6224 114.133 20.8359C114.664 21.0495 115.255 21.1563 115.906 21.1563ZM115.648 14.1484C115.924 14.1484 116.167 14.1927 116.375 14.2813C116.589 14.3646 116.768 14.4792 116.914 14.625C117.06 14.776 117.174 14.9531 117.258 15.1563C117.341 15.3594 117.383 15.5755 117.383 15.8047V15.9766L113.82 15.9766C113.872 15.7005 113.951 15.4505 114.055 15.2266C114.159 15.0026 114.289 14.8099 114.445 14.6484C114.596 14.487 114.773 14.3646 114.977 14.2813C115.18 14.1927 115.404 14.1484 115.648 14.1484ZM121.414 21H123.594V14.9922C123.667 14.8776 123.747 14.7734 123.836 14.6797C123.924 14.5859 124.023 14.5052 124.133 14.4375C124.268 14.3438 124.422 14.2734 124.594 14.2266C124.771 14.1797 124.964 14.1563 125.172 14.1563C125.422 14.1563 125.646 14.1823 125.844 14.2344C126.042 14.2813 126.211 14.3672 126.352 14.4922C126.492 14.6172 126.599 14.7891 126.672 15.0078C126.75 15.2214 126.789 15.4948 126.789 15.8281V21H128.961V15.7969C128.961 15.1823 128.888 14.6615 128.742 14.2344C128.602 13.8021 128.404 13.4479 128.148 13.1719C127.888 12.901 127.581 12.7031 127.227 12.5781C126.872 12.4531 126.482 12.3906 126.055 12.3906C125.721 12.3906 125.406 12.4375 125.109 12.5313C124.812 12.625 124.539 12.7604 124.289 12.9375C124.143 13.0417 124.005 13.1589 123.875 13.2891C123.745 13.4193 123.625 13.5625 123.516 13.7188L123.383 12.5469H121.414V21Z" fill="#12171A"/>
<rect x="373" width="125" height="29" rx="10" fill="#EFF1F3"/>
<path d="M384.555 18.6797C384.555 18.8099 384.521 18.9297 384.453 19.0391C384.391 19.1484 384.294 19.2448 384.164 19.3281C384.029 19.4115 383.854 19.4792 383.641 19.5312C383.432 19.5781 383.188 19.6016 382.906 19.6016C382.672 19.6016 382.443 19.5781 382.219 19.5312C382 19.4844 381.805 19.4089 381.633 19.3047C381.461 19.2057 381.32 19.0755 381.211 18.9141C381.102 18.7474 381.039 18.5495 381.023 18.3203H378.953C378.953 18.6641 379.036 19.0078 379.203 19.3516C379.375 19.6901 379.625 19.9922 379.953 20.2578C380.281 20.5286 380.688 20.7474 381.172 20.9141C381.661 21.0807 382.224 21.1641 382.859 21.1641C383.438 21.1641 383.961 21.1016 384.43 20.9766C384.898 20.8464 385.299 20.6667 385.633 20.4375C385.961 20.2083 386.214 19.9375 386.391 19.625C386.573 19.3073 386.664 18.9609 386.664 18.5859C386.664 18.1797 386.573 17.8307 386.391 17.5391C386.214 17.2422 385.966 16.9896 385.648 16.7812C385.331 16.5781 384.953 16.4115 384.516 16.2812C384.078 16.151 383.604 16.0443 383.094 15.9609C382.74 15.9089 382.448 15.849 382.219 15.7812C381.99 15.7083 381.81 15.6276 381.68 15.5391C381.544 15.4557 381.451 15.362 381.398 15.2578C381.346 15.1484 381.32 15.0312 381.32 14.9062C381.32 14.7812 381.349 14.6641 381.406 14.5547C381.469 14.4401 381.557 14.3411 381.672 14.2578C381.797 14.1641 381.958 14.0911 382.156 14.0391C382.354 13.987 382.586 13.9609 382.852 13.9609C383.164 13.9609 383.43 14 383.648 14.0781C383.872 14.1562 384.049 14.2604 384.18 14.3906C384.273 14.4896 384.344 14.6016 384.391 14.7266C384.438 14.8464 384.461 14.9766 384.461 15.1172H386.633C386.633 14.7266 386.547 14.3646 386.375 14.0312C386.203 13.6979 385.956 13.4089 385.633 13.1641C385.305 12.9245 384.906 12.737 384.438 12.6016C383.969 12.4609 383.44 12.3906 382.852 12.3906C382.289 12.3906 381.784 12.4609 381.336 12.6016C380.888 12.7422 380.508 12.9323 380.195 13.1719C379.883 13.4115 379.643 13.6901 379.477 14.0078C379.31 14.3255 379.227 14.6589 379.227 15.0078C379.227 15.3672 379.307 15.6849 379.469 15.9609C379.635 16.237 379.865 16.4792 380.156 16.6875C380.448 16.901 380.797 17.0833 381.203 17.2344C381.615 17.3802 382.068 17.5026 382.562 17.6016C382.953 17.6745 383.276 17.7474 383.531 17.8203C383.786 17.8932 383.992 17.9714 384.148 18.0547C384.299 18.1432 384.404 18.237 384.461 18.3359C384.523 18.4349 384.555 18.5495 384.555 18.6797ZM388.742 24.25H390.914V20.2656C391.013 20.375 391.117 20.474 391.227 20.5625C391.336 20.651 391.451 20.7318 391.57 20.8047C391.773 20.9193 391.992 21.0052 392.227 21.0625C392.466 21.125 392.727 21.1562 393.008 21.1562C393.539 21.1562 394.01 21.0469 394.422 20.8281C394.833 20.6094 395.18 20.3073 395.461 19.9219C395.737 19.5417 395.945 19.0885 396.086 18.5625C396.232 18.0365 396.305 17.4661 396.305 16.8516V16.6875C396.305 16.0469 396.232 15.4635 396.086 14.9375C395.945 14.4063 395.734 13.9505 395.453 13.5703C395.172 13.1953 394.826 12.9063 394.414 12.7031C394.003 12.4948 393.529 12.3906 392.992 12.3906C392.732 12.3906 392.487 12.4193 392.258 12.4766C392.034 12.5286 391.828 12.6042 391.641 12.7031C391.484 12.7865 391.339 12.8854 391.203 13C391.068 13.1094 390.943 13.2344 390.828 13.375L390.75 12.5469H388.742V24.25ZM394.133 16.6875V16.8516C394.133 17.2005 394.102 17.5312 394.039 17.8438C393.977 18.151 393.878 18.4219 393.742 18.6562C393.607 18.8906 393.43 19.0755 393.211 19.2109C392.997 19.3464 392.737 19.4141 392.43 19.4141C392.237 19.4141 392.062 19.3958 391.906 19.3594C391.75 19.3177 391.612 19.2604 391.492 19.1875C391.367 19.1094 391.255 19.0156 391.156 18.9062C391.062 18.7969 390.982 18.6745 390.914 18.5391V15.0078C390.987 14.862 391.073 14.7344 391.172 14.625C391.276 14.5156 391.396 14.4245 391.531 14.3516C391.651 14.2891 391.784 14.2422 391.93 14.2109C392.076 14.1745 392.237 14.1562 392.414 14.1562C392.721 14.1562 392.982 14.2214 393.195 14.3516C393.414 14.4818 393.594 14.6589 393.734 14.8828C393.87 15.112 393.969 15.3828 394.031 15.6953C394.099 16.0026 394.133 16.3333 394.133 16.6875ZM403.602 21H405.805V20.8672C405.695 20.6536 405.612 20.3984 405.555 20.1016C405.497 19.8047 405.469 19.4297 405.469 18.9766V15.3516C405.469 14.862 405.378 14.4323 405.195 14.0625C405.013 13.6875 404.76 13.3776 404.438 13.1328C404.115 12.888 403.732 12.7031 403.289 12.5781C402.852 12.4531 402.378 12.3906 401.867 12.3906C401.299 12.3906 400.794 12.4635 400.352 12.6094C399.914 12.75 399.544 12.9427 399.242 13.1875C398.935 13.4323 398.701 13.7161 398.539 14.0391C398.383 14.362 398.305 14.7031 398.305 15.0625H400.477C400.477 14.9115 400.497 14.7734 400.539 14.6484C400.586 14.5234 400.656 14.4167 400.75 14.3281C400.854 14.2292 400.99 14.1536 401.156 14.1016C401.323 14.0443 401.521 14.0156 401.75 14.0156C402.01 14.0156 402.237 14.0495 402.43 14.1172C402.628 14.1797 402.792 14.2708 402.922 14.3906C403.047 14.5052 403.141 14.6432 403.203 14.8047C403.266 14.9609 403.297 15.138 403.297 15.3359V15.8359H402.086C401.461 15.8359 400.906 15.8932 400.422 16.0078C399.943 16.1172 399.539 16.2786 399.211 16.4922C398.846 16.7266 398.573 17.026 398.391 17.3906C398.208 17.75 398.117 18.1641 398.117 18.6328C398.117 18.9974 398.19 19.3359 398.336 19.6484C398.482 19.9557 398.685 20.2214 398.945 20.4453C399.206 20.6693 399.516 20.8438 399.875 20.9688C400.24 21.0938 400.638 21.1562 401.07 21.1562C401.336 21.1562 401.583 21.1302 401.812 21.0781C402.042 21.0312 402.253 20.9635 402.445 20.875C402.633 20.7917 402.805 20.6927 402.961 20.5781C403.117 20.4635 403.255 20.3411 403.375 20.2109C403.401 20.362 403.432 20.5052 403.469 20.6406C403.505 20.776 403.549 20.8958 403.602 21ZM401.531 19.4766C401.328 19.4766 401.148 19.4531 400.992 19.4062C400.841 19.3542 400.714 19.2865 400.609 19.2031C400.505 19.1146 400.424 19.0078 400.367 18.8828C400.315 18.7526 400.289 18.612 400.289 18.4609C400.289 18.2682 400.326 18.0911 400.398 17.9297C400.471 17.763 400.583 17.6198 400.734 17.5C400.885 17.3854 401.081 17.2969 401.32 17.2344C401.56 17.1667 401.849 17.1328 402.188 17.1328H403.297V18.5859C403.234 18.6953 403.148 18.8047 403.039 18.9141C402.93 19.0182 402.799 19.112 402.648 19.1953C402.497 19.2786 402.328 19.3464 402.141 19.3984C401.953 19.4505 401.75 19.4766 401.531 19.4766ZM411.672 19.4219C411.323 19.4219 411.034 19.3516 410.805 19.2109C410.581 19.0703 410.404 18.8828 410.273 18.6484C410.138 18.4193 410.044 18.1536 409.992 17.8516C409.94 17.5443 409.914 17.2266 409.914 16.8984V16.6641C409.914 16.3411 409.94 16.0286 409.992 15.7266C410.049 15.4245 410.146 15.1563 410.281 14.9219C410.411 14.6875 410.589 14.5 410.812 14.3594C411.036 14.2188 411.32 14.1484 411.664 14.1484C411.898 14.1484 412.115 14.1901 412.312 14.2734C412.51 14.3516 412.68 14.4583 412.82 14.5938C412.961 14.7292 413.068 14.8906 413.141 15.0781C413.214 15.2656 413.245 15.4635 413.234 15.6719H415.281C415.292 15.1719 415.208 14.7214 415.031 14.3203C414.854 13.9141 414.607 13.5677 414.289 13.2813C413.966 13 413.583 12.7813 413.141 12.625C412.698 12.4688 412.216 12.3906 411.695 12.3906C411.044 12.3906 410.471 12.5026 409.977 12.7266C409.487 12.9505 409.076 13.2552 408.742 13.6406C408.409 14.026 408.159 14.4792 407.992 15C407.826 15.5156 407.742 16.0703 407.742 16.6641V16.8984C407.742 17.4922 407.826 18.0495 407.992 18.5703C408.164 19.0859 408.417 19.5365 408.75 19.9219C409.078 20.3073 409.49 20.612 409.984 20.8359C410.479 21.0547 411.055 21.1641 411.711 21.1641C412.195 21.1641 412.654 21.0885 413.086 20.9375C413.523 20.7813 413.906 20.5677 414.234 20.2969C414.562 20.026 414.82 19.7031 415.008 19.3281C415.201 18.9531 415.292 18.5469 415.281 18.1094H413.234C413.245 18.3073 413.208 18.487 413.125 18.6484C413.047 18.8099 412.935 18.9479 412.789 19.0625C412.643 19.1771 412.474 19.2656 412.281 19.3281C412.089 19.3906 411.885 19.4219 411.672 19.4219ZM421.641 21.1563C422.458 21.1563 423.167 20.9974 423.766 20.6797C424.365 20.362 424.802 20.0078 425.078 19.6172L423.992 18.4453C423.742 18.7682 423.417 19.0104 423.016 19.1719C422.615 19.3333 422.201 19.4141 421.773 19.4141C421.471 19.4141 421.193 19.3672 420.938 19.2734C420.682 19.1797 420.456 19.0469 420.258 18.875C420.065 18.7083 419.911 18.5234 419.797 18.3203C419.682 18.112 419.589 17.8385 419.516 17.5V17.4766H425.25V16.5547C425.25 15.9349 425.164 15.3698 424.992 14.8594C424.82 14.3438 424.57 13.9036 424.242 13.5391C423.909 13.1745 423.503 12.8932 423.023 12.6953C422.549 12.4922 422.008 12.3906 421.398 12.3906C420.81 12.3906 420.266 12.4974 419.766 12.7109C419.266 12.9245 418.833 13.224 418.469 13.6094C418.104 13.9948 417.82 14.4557 417.617 14.9922C417.414 15.5234 417.312 16.112 417.312 16.7578V17.0703C417.312 17.638 417.414 18.1719 417.617 18.6719C417.826 19.1667 418.12 19.5964 418.5 19.9609C418.88 20.3307 419.336 20.6224 419.867 20.8359C420.398 21.0495 420.99 21.1563 421.641 21.1563ZM421.383 14.1484C421.659 14.1484 421.901 14.1927 422.109 14.2813C422.323 14.3646 422.503 14.4792 422.648 14.625C422.794 14.776 422.909 14.9531 422.992 15.1563C423.076 15.3594 423.117 15.5755 423.117 15.8047V15.9766H419.555C419.607 15.7005 419.685 15.4505 419.789 15.2266C419.893 15.0026 420.023 14.8099 420.18 14.6484C420.331 14.487 420.508 14.3646 420.711 14.2813C420.914 14.1927 421.138 14.1484 421.383 14.1484ZM434.758 16.8594V15.1016H428.25V16.8594H434.758ZM440.859 21.1563C441.677 21.1563 442.385 20.9974 442.984 20.6797C443.583 20.362 444.021 20.0078 444.297 19.6172L443.211 18.4453C442.961 18.7682 442.635 19.0104 442.234 19.1719C441.833 19.3333 441.419 19.4141 440.992 19.4141C440.69 19.4141 440.411 19.3672 440.156 19.2734C439.901 19.1797 439.674 19.0469 439.477 18.875C439.284 18.7083 439.13 18.5234 439.016 18.3203C438.901 18.112 438.807 17.8385 438.734 17.5V17.4766H444.469V16.5547C444.469 15.9349 444.383 15.3698 444.211 14.8594C444.039 14.3438 443.789 13.9036 443.461 13.5391C443.128 13.1745 442.721 12.8932 442.242 12.6953C441.768 12.4922 441.227 12.3906 440.617 12.3906C440.029 12.3906 439.484 12.4974 438.984 12.7109C438.484 12.9245 438.052 13.224 437.688 13.6094C437.323 13.9948 437.039 14.4557 436.836 14.9922C436.633 15.5234 436.531 16.112 436.531 16.7578V17.0703C436.531 17.638 436.633 18.1719 436.836 18.6719C437.044 19.1667 437.339 19.5964 437.719 19.9609C438.099 20.3307 438.555 20.6224 439.086 20.8359C439.617 21.0495 440.208 21.1563 440.859 21.1563ZM440.602 14.1484C440.878 14.1484 441.12 14.1927 441.328 14.2813C441.542 14.3646 441.721 14.4792 441.867 14.625C442.013 14.776 442.128 14.9531 442.211 15.1563C442.294 15.3594 442.336 15.5755 442.336 15.8047V15.9766H438.773C438.826 15.7005 438.904 15.4505 439.008 15.2266C439.112 15.0026 439.242 14.8099 439.398 14.6484C439.549 14.487 439.727 14.3646 439.93 14.2813C440.133 14.1927 440.357 14.1484 440.602 14.1484ZM449.055 21H451.094L454.305 12.5469H452.039L450.188 18.5078L450.07 19.1016L449.953 18.5078L448.094 12.5469H445.828L449.055 21ZM460.078 21.1563C460.896 21.1563 461.604 20.9974 462.203 20.6797C462.802 20.362 463.24 20.0078 463.516 19.6172L462.43 18.4453C462.18 18.7682 461.854 19.0104 461.453 19.1719C461.052 19.3333 460.638 19.4141 460.211 19.4141C459.909 19.4141 459.63 19.3672 459.375 19.2734C459.12 19.1797 458.893 19.0469 458.695 18.875C458.503 18.7083 458.349 18.5234 458.234 18.3203C458.12 18.112 458.026 17.8385 457.953 17.5V17.4766L463.688 17.4766V16.5547C463.688 15.9349 463.602 15.3698 463.43 14.8594C463.258 14.3438 463.008 13.9036 462.68 13.5391C462.346 13.1745 461.94 12.8932 461.461 12.6953C460.987 12.4922 460.445 12.3906 459.836 12.3906C459.247 12.3906 458.703 12.4974 458.203 12.7109C457.703 12.9245 457.271 13.224 456.906 13.6094C456.542 13.9948 456.258 14.4557 456.055 14.9922C455.852 15.5234 455.75 16.112 455.75 16.7578V17.0703C455.75 17.638 455.852 18.1719 456.055 18.6719C456.263 19.1667 456.557 19.5964 456.938 19.9609C457.318 20.3307 457.773 20.6224 458.305 20.8359C458.836 21.0495 459.427 21.1563 460.078 21.1563ZM459.82 14.1484C460.096 14.1484 460.339 14.1927 460.547 14.2813C460.76 14.3646 460.94 14.4792 461.086 14.625C461.232 14.776 461.346 14.9531 461.43 15.1563C461.513 15.3594 461.555 15.5755 461.555 15.8047V15.9766L457.992 15.9766C458.044 15.7005 458.122 15.4505 458.227 15.2266C458.331 15.0026 458.461 14.8099 458.617 14.6484C458.768 14.487 458.945 14.3646 459.148 14.2813C459.352 14.1927 459.576 14.1484 459.82 14.1484ZM465.586 21H467.766V14.9922C467.839 14.8776 467.919 14.7734 468.008 14.6797C468.096 14.5859 468.195 14.5052 468.305 14.4375C468.44 14.3438 468.594 14.2734 468.766 14.2266C468.943 14.1797 469.135 14.1563 469.344 14.1563C469.594 14.1563 469.818 14.1823 470.016 14.2344C470.214 14.2813 470.383 14.3672 470.523 14.4922C470.664 14.6172 470.771 14.7891 470.844 15.0078C470.922 15.2214 470.961 15.4948 470.961 15.8281V21H473.133V15.7969C473.133 15.1823 473.06 14.6615 472.914 14.2344C472.773 13.8021 472.576 13.4479 472.32 13.1719C472.06 12.901 471.753 12.7031 471.398 12.5781C471.044 12.4531 470.654 12.3906 470.227 12.3906C469.893 12.3906 469.578 12.4375 469.281 12.5313C468.984 12.625 468.711 12.7604 468.461 12.9375C468.315 13.0417 468.177 13.1589 468.047 13.2891C467.917 13.4193 467.797 13.5625 467.688 13.7188L467.555 12.5469H465.586V21ZM475.648 9V10.7734H478.18V19.2344H475.648V21H482.797V19.2344H480.375V9H475.648ZM486.141 24.4141C486.578 24.4141 486.956 24.3411 487.273 24.1953C487.596 24.0495 487.87 23.8698 488.094 23.6563C488.318 23.4427 488.503 23.2109 488.648 22.9609C488.799 22.7109 488.922 22.4792 489.016 22.2656L493.305 12.5469H490.906L488.977 17.5156L488.656 18.3594L488.422 17.5L486.484 12.5469H484.109L487.688 20.6406L487.188 21.5703C487.125 21.6849 487.07 21.7734 487.023 21.8359C486.982 21.8984 486.914 21.9922 486.82 22.1172C486.727 22.2422 486.612 22.3568 486.477 22.4609C486.346 22.5703 486.195 22.625 486.023 22.625C485.94 22.625 485.828 22.6198 485.688 22.6094C485.552 22.6042 485.44 22.6016 485.352 22.6016L485.086 24.2578C485.273 24.3099 485.443 24.349 485.594 24.375C485.75 24.401 485.932 24.4141 486.141 24.4141Z" fill="#12171A"/>
<rect x="186" width="125" height="29" rx="10" fill="#EFF1F3"/>
<path d="M197.555 18.6797C197.555 18.8099 197.521 18.9297 197.453 19.0391C197.391 19.1484 197.294 19.2448 197.164 19.3281C197.029 19.4115 196.854 19.4792 196.641 19.5312C196.432 19.5781 196.188 19.6016 195.906 19.6016C195.672 19.6016 195.443 19.5781 195.219 19.5312C195 19.4844 194.805 19.4089 194.633 19.3047C194.461 19.2057 194.32 19.0755 194.211 18.9141C194.102 18.7474 194.039 18.5495 194.023 18.3203H191.953C191.953 18.6641 192.036 19.0078 192.203 19.3516C192.375 19.6901 192.625 19.9922 192.953 20.2578C193.281 20.5286 193.688 20.7474 194.172 20.9141C194.661 21.0807 195.224 21.1641 195.859 21.1641C196.438 21.1641 196.961 21.1016 197.43 20.9766C197.898 20.8464 198.299 20.6667 198.633 20.4375C198.961 20.2083 199.214 19.9375 199.391 19.625C199.573 19.3073 199.664 18.9609 199.664 18.5859C199.664 18.1797 199.573 17.8307 199.391 17.5391C199.214 17.2422 198.966 16.9896 198.648 16.7812C198.331 16.5781 197.953 16.4115 197.516 16.2812C197.078 16.151 196.604 16.0443 196.094 15.9609C195.74 15.9089 195.448 15.849 195.219 15.7812C194.99 15.7083 194.81 15.6276 194.68 15.5391C194.544 15.4557 194.451 15.362 194.398 15.2578C194.346 15.1484 194.32 15.0312 194.32 14.9062C194.32 14.7812 194.349 14.6641 194.406 14.5547C194.469 14.4401 194.557 14.3411 194.672 14.2578C194.797 14.1641 194.958 14.0911 195.156 14.0391C195.354 13.987 195.586 13.9609 195.852 13.9609C196.164 13.9609 196.43 14 196.648 14.0781C196.872 14.1562 197.049 14.2604 197.18 14.3906C197.273 14.4896 197.344 14.6016 197.391 14.7266C197.438 14.8464 197.461 14.9766 197.461 15.1172H199.633C199.633 14.7266 199.547 14.3646 199.375 14.0312C199.203 13.6979 198.956 13.4089 198.633 13.1641C198.305 12.9245 197.906 12.737 197.438 12.6016C196.969 12.4609 196.44 12.3906 195.852 12.3906C195.289 12.3906 194.784 12.4609 194.336 12.6016C193.888 12.7422 193.508 12.9323 193.195 13.1719C192.883 13.4115 192.643 13.6901 192.477 14.0078C192.31 14.3255 192.227 14.6589 192.227 15.0078C192.227 15.3672 192.307 15.6849 192.469 15.9609C192.635 16.237 192.865 16.4792 193.156 16.6875C193.448 16.901 193.797 17.0833 194.203 17.2344C194.615 17.3802 195.068 17.5026 195.562 17.6016C195.953 17.6745 196.276 17.7474 196.531 17.8203C196.786 17.8932 196.992 17.9714 197.148 18.0547C197.299 18.1432 197.404 18.237 197.461 18.3359C197.523 18.4349 197.555 18.5495 197.555 18.6797ZM201.742 24.25H203.914V20.2656C204.013 20.375 204.117 20.474 204.227 20.5625C204.336 20.651 204.451 20.7318 204.57 20.8047C204.773 20.9193 204.992 21.0052 205.227 21.0625C205.466 21.125 205.727 21.1562 206.008 21.1562C206.539 21.1562 207.01 21.0469 207.422 20.8281C207.833 20.6094 208.18 20.3073 208.461 19.9219C208.737 19.5417 208.945 19.0885 209.086 18.5625C209.232 18.0365 209.305 17.4661 209.305 16.8516V16.6875C209.305 16.0469 209.232 15.4635 209.086 14.9375C208.945 14.4063 208.734 13.9505 208.453 13.5703C208.172 13.1953 207.826 12.9063 207.414 12.7031C207.003 12.4948 206.529 12.3906 205.992 12.3906C205.732 12.3906 205.487 12.4193 205.258 12.4766C205.034 12.5286 204.828 12.6042 204.641 12.7031C204.484 12.7865 204.339 12.8854 204.203 13C204.068 13.1094 203.943 13.2344 203.828 13.375L203.75 12.5469H201.742V24.25ZM207.133 16.6875V16.8516C207.133 17.2005 207.102 17.5312 207.039 17.8438C206.977 18.151 206.878 18.4219 206.742 18.6562C206.607 18.8906 206.43 19.0755 206.211 19.2109C205.997 19.3464 205.737 19.4141 205.43 19.4141C205.237 19.4141 205.062 19.3958 204.906 19.3594C204.75 19.3177 204.612 19.2604 204.492 19.1875C204.367 19.1094 204.255 19.0156 204.156 18.9062C204.062 18.7969 203.982 18.6745 203.914 18.5391V15.0078C203.987 14.862 204.073 14.7344 204.172 14.625C204.276 14.5156 204.396 14.4245 204.531 14.3516C204.651 14.2891 204.784 14.2422 204.93 14.2109C205.076 14.1745 205.237 14.1562 205.414 14.1562C205.721 14.1562 205.982 14.2214 206.195 14.3516C206.414 14.4818 206.594 14.6589 206.734 14.8828C206.87 15.112 206.969 15.3828 207.031 15.6953C207.099 16.0026 207.133 16.3333 207.133 16.6875ZM216.602 21H218.805V20.8672C218.695 20.6536 218.612 20.3984 218.555 20.1016C218.497 19.8047 218.469 19.4297 218.469 18.9766V15.3516C218.469 14.862 218.378 14.4323 218.195 14.0625C218.013 13.6875 217.76 13.3776 217.438 13.1328C217.115 12.888 216.732 12.7031 216.289 12.5781C215.852 12.4531 215.378 12.3906 214.867 12.3906C214.299 12.3906 213.794 12.4635 213.352 12.6094C212.914 12.75 212.544 12.9427 212.242 13.1875C211.935 13.4323 211.701 13.7161 211.539 14.0391C211.383 14.362 211.305 14.7031 211.305 15.0625H213.477C213.477 14.9115 213.497 14.7734 213.539 14.6484C213.586 14.5234 213.656 14.4167 213.75 14.3281C213.854 14.2292 213.99 14.1536 214.156 14.1016C214.323 14.0443 214.521 14.0156 214.75 14.0156C215.01 14.0156 215.237 14.0495 215.43 14.1172C215.628 14.1797 215.792 14.2708 215.922 14.3906C216.047 14.5052 216.141 14.6432 216.203 14.8047C216.266 14.9609 216.297 15.138 216.297 15.3359V15.8359H215.086C214.461 15.8359 213.906 15.8932 213.422 16.0078C212.943 16.1172 212.539 16.2786 212.211 16.4922C211.846 16.7266 211.573 17.026 211.391 17.3906C211.208 17.75 211.117 18.1641 211.117 18.6328C211.117 18.9974 211.19 19.3359 211.336 19.6484C211.482 19.9557 211.685 20.2214 211.945 20.4453C212.206 20.6693 212.516 20.8438 212.875 20.9688C213.24 21.0938 213.638 21.1562 214.07 21.1562C214.336 21.1562 214.583 21.1302 214.812 21.0781C215.042 21.0312 215.253 20.9635 215.445 20.875C215.633 20.7917 215.805 20.6927 215.961 20.5781C216.117 20.4635 216.255 20.3411 216.375 20.2109C216.401 20.362 216.432 20.5052 216.469 20.6406C216.505 20.776 216.549 20.8958 216.602 21ZM214.531 19.4766C214.328 19.4766 214.148 19.4531 213.992 19.4062C213.841 19.3542 213.714 19.2865 213.609 19.2031C213.505 19.1146 213.424 19.0078 213.367 18.8828C213.315 18.7526 213.289 18.612 213.289 18.4609C213.289 18.2682 213.326 18.0911 213.398 17.9297C213.471 17.763 213.583 17.6198 213.734 17.5C213.885 17.3854 214.081 17.2969 214.32 17.2344C214.56 17.1667 214.849 17.1328 215.188 17.1328H216.297V18.5859C216.234 18.6953 216.148 18.8047 216.039 18.9141C215.93 19.0182 215.799 19.112 215.648 19.1953C215.497 19.2786 215.328 19.3464 215.141 19.3984C214.953 19.4505 214.75 19.4766 214.531 19.4766ZM224.672 19.4219C224.323 19.4219 224.034 19.3516 223.805 19.2109C223.581 19.0703 223.404 18.8828 223.273 18.6484C223.138 18.4193 223.044 18.1536 222.992 17.8516C222.94 17.5443 222.914 17.2266 222.914 16.8984V16.6641C222.914 16.3411 222.94 16.0286 222.992 15.7266C223.049 15.4245 223.146 15.1563 223.281 14.9219C223.411 14.6875 223.589 14.5 223.812 14.3594C224.036 14.2188 224.32 14.1484 224.664 14.1484C224.898 14.1484 225.115 14.1901 225.312 14.2734C225.51 14.3516 225.68 14.4583 225.82 14.5938C225.961 14.7292 226.068 14.8906 226.141 15.0781C226.214 15.2656 226.245 15.4635 226.234 15.6719H228.281C228.292 15.1719 228.208 14.7214 228.031 14.3203C227.854 13.9141 227.607 13.5677 227.289 13.2813C226.966 13 226.583 12.7813 226.141 12.625C225.698 12.4688 225.216 12.3906 224.695 12.3906C224.044 12.3906 223.471 12.5026 222.977 12.7266C222.487 12.9505 222.076 13.2552 221.742 13.6406C221.409 14.026 221.159 14.4792 220.992 15C220.826 15.5156 220.742 16.0703 220.742 16.6641V16.8984C220.742 17.4922 220.826 18.0495 220.992 18.5703C221.164 19.0859 221.417 19.5365 221.75 19.9219C222.078 20.3073 222.49 20.612 222.984 20.8359C223.479 21.0547 224.055 21.1641 224.711 21.1641C225.195 21.1641 225.654 21.0885 226.086 20.9375C226.523 20.7813 226.906 20.5677 227.234 20.2969C227.562 20.026 227.82 19.7031 228.008 19.3281C228.201 18.9531 228.292 18.5469 228.281 18.1094H226.234C226.245 18.3073 226.208 18.487 226.125 18.6484C226.047 18.8099 225.935 18.9479 225.789 19.0625C225.643 19.1771 225.474 19.2656 225.281 19.3281C225.089 19.3906 224.885 19.4219 224.672 19.4219ZM234.641 21.1563C235.458 21.1563 236.167 20.9974 236.766 20.6797C237.365 20.362 237.802 20.0078 238.078 19.6172L236.992 18.4453C236.742 18.7682 236.417 19.0104 236.016 19.1719C235.615 19.3333 235.201 19.4141 234.773 19.4141C234.471 19.4141 234.193 19.3672 233.938 19.2734C233.682 19.1797 233.456 19.0469 233.258 18.875C233.065 18.7083 232.911 18.5234 232.797 18.3203C232.682 18.112 232.589 17.8385 232.516 17.5V17.4766H238.25V16.5547C238.25 15.9349 238.164 15.3698 237.992 14.8594C237.82 14.3438 237.57 13.9036 237.242 13.5391C236.909 13.1745 236.503 12.8932 236.023 12.6953C235.549 12.4922 235.008 12.3906 234.398 12.3906C233.81 12.3906 233.266 12.4974 232.766 12.7109C232.266 12.9245 231.833 13.224 231.469 13.6094C231.104 13.9948 230.82 14.4557 230.617 14.9922C230.414 15.5234 230.312 16.112 230.312 16.7578V17.0703C230.312 17.638 230.414 18.1719 230.617 18.6719C230.826 19.1667 231.12 19.5964 231.5 19.9609C231.88 20.3307 232.336 20.6224 232.867 20.8359C233.398 21.0495 233.99 21.1563 234.641 21.1563ZM234.383 14.1484C234.659 14.1484 234.901 14.1927 235.109 14.2813C235.323 14.3646 235.503 14.4792 235.648 14.625C235.794 14.776 235.909 14.9531 235.992 15.1563C236.076 15.3594 236.117 15.5755 236.117 15.8047V15.9766H232.555C232.607 15.7005 232.685 15.4505 232.789 15.2266C232.893 15.0026 233.023 14.8099 233.18 14.6484C233.331 14.487 233.508 14.3646 233.711 14.2813C233.914 14.1927 234.138 14.1484 234.383 14.1484ZM247.758 16.8594V15.1016H241.25V16.8594H247.758ZM255.039 21H257.242V20.8672C257.133 20.6536 257.049 20.3984 256.992 20.1016C256.935 19.8047 256.906 19.4297 256.906 18.9766V15.3516C256.906 14.862 256.815 14.4323 256.633 14.0625C256.451 13.6875 256.198 13.3776 255.875 13.1328C255.552 12.888 255.169 12.7031 254.727 12.5781C254.289 12.4531 253.815 12.3906 253.305 12.3906C252.737 12.3906 252.232 12.4635 251.789 12.6094C251.352 12.75 250.982 12.9427 250.68 13.1875C250.372 13.4323 250.138 13.7161 249.977 14.0391C249.82 14.362 249.742 14.7031 249.742 15.0625H251.914C251.914 14.9115 251.935 14.7734 251.977 14.6484C252.023 14.5234 252.094 14.4167 252.188 14.3281C252.292 14.2292 252.427 14.1536 252.594 14.1016C252.76 14.0443 252.958 14.0156 253.188 14.0156C253.448 14.0156 253.674 14.0495 253.867 14.1172C254.065 14.1797 254.229 14.2708 254.359 14.3906C254.484 14.5052 254.578 14.6432 254.641 14.8047C254.703 14.9609 254.734 15.138 254.734 15.3359V15.8359H253.523C252.898 15.8359 252.344 15.8932 251.859 16.0078C251.38 16.1172 250.977 16.2786 250.648 16.4922C250.284 16.7266 250.01 17.026 249.828 17.3906C249.646 17.75 249.555 18.1641 249.555 18.6328C249.555 18.9974 249.628 19.3359 249.773 19.6484C249.919 19.9557 250.122 20.2214 250.383 20.4453C250.643 20.6693 250.953 20.8438 251.312 20.9688C251.677 21.0938 252.076 21.1563 252.508 21.1563C252.773 21.1563 253.021 21.1302 253.25 21.0781C253.479 21.0313 253.69 20.9635 253.883 20.875C254.07 20.7917 254.242 20.6927 254.398 20.5781C254.555 20.4635 254.693 20.3411 254.812 20.2109C254.839 20.362 254.87 20.5052 254.906 20.6406C254.943 20.776 254.987 20.8958 255.039 21ZM252.969 19.4766C252.766 19.4766 252.586 19.4531 252.43 19.4063C252.279 19.3542 252.151 19.2865 252.047 19.2031C251.943 19.1146 251.862 19.0078 251.805 18.8828C251.753 18.7526 251.727 18.612 251.727 18.4609C251.727 18.2682 251.763 18.0911 251.836 17.9297C251.909 17.763 252.021 17.6198 252.172 17.5C252.323 17.3854 252.518 17.2969 252.758 17.2344C252.997 17.1667 253.286 17.1328 253.625 17.1328H254.734V18.5859C254.672 18.6953 254.586 18.8047 254.477 18.9141C254.367 19.0182 254.237 19.112 254.086 19.1953C253.935 19.2786 253.766 19.3464 253.578 19.3984C253.391 19.4505 253.188 19.4766 252.969 19.4766ZM265.438 12.3906C264.87 12.3906 264.346 12.5286 263.867 12.8047C263.388 13.0755 262.977 13.4505 262.633 13.9297L262.617 13.7422L262.531 12.5469H260.508V21H262.68V15.9219C262.779 15.6823 262.904 15.474 263.055 15.2969C263.206 15.1198 263.388 14.974 263.602 14.8594C263.779 14.7604 263.979 14.6875 264.203 14.6406C264.432 14.5885 264.688 14.5625 264.969 14.5625C265.24 14.5625 265.523 14.5807 265.82 14.6172C266.122 14.6484 266.417 14.6979 266.703 14.7656L267.023 12.6016C266.852 12.5495 266.625 12.5026 266.344 12.4609C266.068 12.4141 265.766 12.3906 265.438 12.3906ZM268.68 16.6953V16.8594C268.68 17.4792 268.768 18.0521 268.945 18.5781C269.122 19.099 269.383 19.5521 269.727 19.9375C270.065 20.3229 270.482 20.625 270.977 20.8438C271.477 21.0573 272.044 21.1641 272.68 21.1641C273.31 21.1641 273.872 21.0573 274.367 20.8438C274.862 20.625 275.279 20.3229 275.617 19.9375C275.956 19.5521 276.214 19.099 276.391 18.5781C276.568 18.0521 276.656 17.4792 276.656 16.8594V16.6953C276.656 16.0807 276.568 15.513 276.391 14.9922C276.214 14.4661 275.956 14.0104 275.617 13.625C275.273 13.2396 274.854 12.9375 274.359 12.7188C273.865 12.5 273.299 12.3906 272.664 12.3906C272.029 12.3906 271.464 12.5 270.969 12.7188C270.479 12.9375 270.065 13.2396 269.727 13.625C269.383 14.0104 269.122 14.4661 268.945 14.9922C268.768 15.513 268.68 16.0807 268.68 16.6953ZM270.852 16.8594V16.6953C270.852 16.3516 270.885 16.026 270.953 15.7188C271.021 15.4115 271.128 15.1406 271.273 14.9063C271.419 14.6719 271.607 14.487 271.836 14.3516C272.065 14.2161 272.341 14.1484 272.664 14.1484C272.992 14.1484 273.271 14.2161 273.5 14.3516C273.729 14.487 273.917 14.6719 274.062 14.9063C274.203 15.1406 274.307 15.4115 274.375 15.7188C274.443 16.026 274.477 16.3516 274.477 16.6953V16.8594C274.477 17.2135 274.443 17.5469 274.375 17.8594C274.307 18.1667 274.203 18.4349 274.062 18.6641C273.917 18.8984 273.729 19.0833 273.5 19.2188C273.271 19.3542 272.997 19.4219 272.68 19.4219C272.352 19.4219 272.07 19.3542 271.836 19.2188C271.607 19.0833 271.419 18.8984 271.273 18.6641C271.128 18.4349 271.021 18.1667 270.953 17.8594C270.885 17.5469 270.852 17.2135 270.852 16.8594ZM284.102 21H286.07V12.5469H283.891V18.4766C283.823 18.612 283.742 18.7344 283.648 18.8438C283.555 18.9531 283.448 19.0469 283.328 19.125C283.188 19.2135 283.023 19.2813 282.836 19.3281C282.654 19.375 282.448 19.3984 282.219 19.3984C281.964 19.3984 281.747 19.3672 281.57 19.3047C281.393 19.2422 281.25 19.138 281.141 18.9922C281.031 18.8516 280.951 18.6641 280.898 18.4297C280.852 18.1953 280.828 17.9063 280.828 17.5625V12.5469H278.656V17.5469C278.656 18.1875 278.727 18.737 278.867 19.1953C279.013 19.6484 279.216 20.0208 279.477 20.3125C279.737 20.6094 280.049 20.8255 280.414 20.9609C280.779 21.0964 281.18 21.1641 281.617 21.1641C282.096 21.1641 282.536 21.0443 282.938 20.8047C283.344 20.5651 283.69 20.2344 283.977 19.8125L284.102 21ZM288.195 21H290.375V14.9922C290.448 14.8776 290.529 14.7734 290.617 14.6797C290.706 14.5859 290.805 14.5052 290.914 14.4375C291.049 14.3438 291.203 14.2734 291.375 14.2266C291.552 14.1797 291.745 14.1563 291.953 14.1563C292.203 14.1563 292.427 14.1823 292.625 14.2344C292.823 14.2813 292.992 14.3672 293.133 14.4922C293.273 14.6172 293.38 14.7891 293.453 15.0078C293.531 15.2214 293.57 15.4948 293.57 15.8281V21H295.742V15.7969C295.742 15.1823 295.669 14.6615 295.523 14.2344C295.383 13.8021 295.185 13.4479 294.93 13.1719C294.669 12.901 294.362 12.7031 294.008 12.5781C293.654 12.4531 293.263 12.3906 292.836 12.3906C292.503 12.3906 292.188 12.4375 291.891 12.5313C291.594 12.625 291.32 12.7604 291.07 12.9375C290.924 13.0417 290.786 13.1589 290.656 13.2891C290.526 13.4193 290.406 13.5625 290.297 13.7188L290.164 12.5469H288.195V21ZM297.578 16.7109V16.875C297.578 17.4896 297.654 18.0599 297.805 18.5859C297.956 19.1068 298.174 19.5573 298.461 19.9375C298.742 20.3177 299.086 20.6172 299.492 20.8359C299.904 21.0495 300.367 21.1563 300.883 21.1563C301.357 21.1563 301.773 21.0651 302.133 20.8828C302.492 20.7005 302.805 20.4453 303.07 20.1172L303.18 21H305.141V9H302.961V13.3047C302.701 13.013 302.401 12.7891 302.062 12.6328C301.729 12.4714 301.341 12.3906 300.898 12.3906C300.372 12.3906 299.904 12.4948 299.492 12.7031C299.086 12.9115 298.74 13.2057 298.453 13.5859C298.167 13.9661 297.948 14.4219 297.797 14.9531C297.651 15.4844 297.578 16.0703 297.578 16.7109ZM299.75 16.875V16.7109C299.75 16.3568 299.781 16.026 299.844 15.7188C299.906 15.4063 300.005 15.1328 300.141 14.8984C300.276 14.6693 300.451 14.4896 300.664 14.3594C300.883 14.224 301.146 14.1563 301.453 14.1563C301.823 14.1563 302.13 14.237 302.375 14.3984C302.62 14.5547 302.815 14.776 302.961 15.0625V18.4844C302.815 18.7656 302.617 18.987 302.367 19.1484C302.122 19.3099 301.812 19.3906 301.438 19.3906C301.13 19.3906 300.87 19.3255 300.656 19.1953C300.443 19.0651 300.268 18.8854 300.133 18.6563C299.997 18.4323 299.898 18.1693 299.836 17.8672C299.779 17.5599 299.75 17.2292 299.75 16.875Z" fill="#12171A"/>
<rect x="374" y="35" width="177" height="106" rx="9" fill="#EFF1F3" stroke="#DADFE2" stroke-width="2"/>
<rect x="187" y="35" width="177" height="106" rx="9" fill="#EFF1F3" stroke="#DADFE2" stroke-width="2"/>
<rect x="1" y="35" width="177" height="106" rx="9" fill="#EFF1F3" stroke="#DADFE2" stroke-width="2"/>
<rect x="375" y="47" width="101" height="83" fill="#EAD6F8"/>
<rect x="188" y="44" width="101" height="89" fill="#EAD6F8"/>
<path d="M2 44C2 39.5817 5.58172 36 10 36H103V140H10C5.58172 140 2 136.418 2 132V44Z" fill="#EAD6F8"/>
<line x1="375" y1="67.5" x2="476" y2="67.5" stroke="#6E33A6"/>
<line x1="188" y1="63.5" x2="289" y2="63.5" stroke="#6E33A6"/>
<line x1="2" y1="56.5" x2="103" y2="56.5" stroke="#6E33A6"/>
<line x1="375" y1="78.5" x2="476" y2="78.5" stroke="#6E33A6"/>
<line x1="188" y1="78.5" x2="289" y2="78.5" stroke="#6E33A6"/>
<line x1="2" y1="78.5" x2="103" y2="78.5" stroke="#6E33A6"/>
<line x1="375" y1="97.5" x2="476" y2="97.5" stroke="#6E33A6"/>
<line x1="188" y1="97.5" x2="289" y2="97.5" stroke="#6E33A6"/>
<line x1="2" y1="97.5" x2="103" y2="97.5" stroke="#6E33A6"/>
<line x1="375" y1="109.5" x2="476" y2="109.5" stroke="#6E33A6"/>
<line x1="188" y1="113.5" x2="289" y2="113.5" stroke="#6E33A6"/>
<line x1="2" y1="121.5" x2="103" y2="121.5" stroke="#6E33A6"/>
<rect x="425.5" y="47.5" width="24" height="19" rx="4.5" fill="#B688E0" stroke="#6E33A6"/>
<rect x="238.5" y="44.5" width="24" height="19" rx="4.5" fill="#B688E0" stroke="#6E33A6"/>
<rect x="52.5" y="36.5" width="24" height="19" rx="4.5" fill="#B688E0" stroke="#6E33A6"/>
<rect x="425.5" y="78.5" width="24" height="19" rx="4.5" fill="#B688E0" stroke="#6E33A6"/>
<rect x="238.5" y="78.5" width="24" height="19" rx="4.5" fill="#B688E0" stroke="#6E33A6"/>
<rect x="52.5" y="78.5" width="24" height="19" rx="4.5" fill="#B688E0" stroke="#6E33A6"/>
<rect x="425.5" y="109.5" width="24" height="19" rx="4.5" fill="#B688E0" stroke="#6E33A6"/>
<rect x="238.5" y="113.5" width="24" height="19" rx="4.5" fill="#B688E0" stroke="#6E33A6"/>
<rect x="52.5" y="121.5" width="24" height="19" rx="4.5" fill="#B688E0" stroke="#6E33A6"/>
<rect x="375.5" y="47.5" width="24" height="19" rx="3.5" fill="#B688E0" stroke="#6E33A6"/>
<rect x="188.5" y="44.5" width="24" height="19" rx="3.5" fill="#B688E0" stroke="#6E33A6"/>
<rect x="2.5" y="36.5" width="24" height="19" rx="3.5" fill="#B688E0" stroke="#6E33A6"/>
<rect x="375.5" y="78.5" width="24" height="19" rx="4.5" fill="#B688E0" stroke="#6E33A6"/>
<rect x="188.5" y="78.5" width="24" height="19" rx="4.5" fill="#B688E0" stroke="#6E33A6"/>
<rect x="2.5" y="78.5" width="24" height="19" rx="4.5" fill="#B688E0" stroke="#6E33A6"/>
<rect x="375.5" y="109.5" width="24" height="19" rx="4.5" fill="#B688E0" stroke="#6E33A6"/>
<rect x="188.5" y="113.5" width="24" height="19" rx="4.5" fill="#B688E0" stroke="#6E33A6"/>
<rect x="2.5" y="121.5" width="24" height="19" rx="4.5" fill="#B688E0" stroke="#6E33A6"/>
<rect x="375" y="68" width="101" height="10" fill="#5ED4B9"/>
<rect x="188" y="64" width="101" height="14" fill="#5ED4B9"/>
<rect x="2" y="57" width="101" height="21" fill="#5ED4B9"/>
<rect x="375" y="98" width="101" height="11" fill="#5ED4B9"/>
<rect x="188" y="98" width="101" height="15" fill="#5ED4B9"/>
<rect x="2" y="98" width="101" height="23" fill="#5ED4B9"/>
<line x1="425.5" y1="47" x2="425.5" y2="130" stroke="#6E33A6"/>
<line x1="238.5" y1="44" x2="238.5" y2="133" stroke="#6E33A6"/>
<line x1="52.5" y1="47" x2="52.5" y2="130" stroke="#6E33A6"/>
</svg>
