<svg width="736" height="137" viewBox="0 0 736 137" fill="none" xmlns="http://www.w3.org/2000/svg">
<rect width="77" height="29" rx="10" fill="#EFF1F3"/>
<path d="M11.5547 18.6797C11.5547 18.8099 11.5208 18.9297 11.4531 19.0391C11.3906 19.1484 11.2943 19.2448 11.1641 19.3281C11.0286 19.4115 10.8542 19.4792 10.6406 19.5312C10.4323 19.5781 10.1875 19.6016 9.90625 19.6016C9.67188 19.6016 9.44271 19.5781 9.21875 19.5312C9 19.4844 8.80469 19.4089 8.63281 19.3047C8.46094 19.2057 8.32031 19.0755 8.21094 18.9141C8.10156 18.7474 8.03906 18.5495 8.02344 18.3203H5.95312C5.95312 18.6641 6.03646 19.0078 6.20312 19.3516C6.375 19.6901 6.625 19.9922 6.95312 20.2578C7.28125 20.5286 7.6875 20.7474 8.17188 20.9141C8.66146 21.0807 9.22396 21.1641 9.85938 21.1641C10.4375 21.1641 10.9609 21.1016 11.4297 20.9766C11.8984 20.8464 12.2995 20.6667 12.6328 20.4375C12.9609 20.2083 13.2135 19.9375 13.3906 19.625C13.5729 19.3073 13.6641 18.9609 13.6641 18.5859C13.6641 18.1797 13.5729 17.8307 13.3906 17.5391C13.2135 17.2422 12.9661 16.9896 12.6484 16.7812C12.3307 16.5781 11.9531 16.4115 11.5156 16.2812C11.0781 16.151 10.6042 16.0443 10.0938 15.9609C9.73958 15.9089 9.44792 15.849 9.21875 15.7812C8.98958 15.7083 8.8099 15.6276 8.67969 15.5391C8.54427 15.4557 8.45052 15.362 8.39844 15.2578C8.34635 15.1484 8.32031 15.0312 8.32031 14.9062C8.32031 14.7812 8.34896 14.6641 8.40625 14.5547C8.46875 14.4401 8.55729 14.3411 8.67188 14.2578C8.79688 14.1641 8.95833 14.0911 9.15625 14.0391C9.35417 13.987 9.58594 13.9609 9.85156 13.9609C10.1641 13.9609 10.4297 14 10.6484 14.0781C10.8724 14.1562 11.0495 14.2604 11.1797 14.3906C11.2734 14.4896 11.3438 14.6016 11.3906 14.7266C11.4375 14.8464 11.4609 14.9766 11.4609 15.1172H13.6328C13.6328 14.7266 13.5469 14.3646 13.375 14.0312C13.2031 13.6979 12.9557 13.4089 12.6328 13.1641C12.3047 12.9245 11.9062 12.737 11.4375 12.6016C10.9688 12.4609 10.4401 12.3906 9.85156 12.3906C9.28906 12.3906 8.78385 12.4609 8.33594 12.6016C7.88802 12.7422 7.50781 12.9323 7.19531 13.1719C6.88281 13.4115 6.64323 13.6901 6.47656 14.0078C6.3099 14.3255 6.22656 14.6589 6.22656 15.0078C6.22656 15.3672 6.30729 15.6849 6.46875 15.9609C6.63542 16.237 6.86458 16.4792 7.15625 16.6875C7.44792 16.901 7.79687 17.0833 8.20312 17.2344C8.61458 17.3802 9.06771 17.5026 9.5625 17.6016C9.95312 17.6745 10.276 17.7474 10.5312 17.8203C10.7865 17.8932 10.9922 17.9714 11.1484 18.0547C11.2995 18.1432 11.4036 18.237 11.4609 18.3359C11.5234 18.4349 11.5547 18.5495 11.5547 18.6797ZM19.6953 10.4766H17.5234V12.5469H15.5938V14.1484H17.5234V17.9922C17.5234 18.5495 17.5964 19.0286 17.7422 19.4297C17.888 19.8255 18.0964 20.151 18.3672 20.4062C18.6328 20.6667 18.9531 20.8594 19.3281 20.9844C19.7083 21.1042 20.1302 21.1641 20.5938 21.1641C20.8333 21.1641 21.0755 21.151 21.3203 21.125C21.5703 21.1042 21.8099 21.0729 22.0391 21.0312C22.2682 20.9896 22.4844 20.9375 22.6875 20.875C22.8906 20.8073 23.0677 20.7292 23.2188 20.6406L23.0078 19.1484C22.9089 19.1745 22.7891 19.2005 22.6484 19.2266C22.513 19.2526 22.3672 19.276 22.2109 19.2969C22.0495 19.3229 21.8802 19.3438 21.7031 19.3594C21.5312 19.375 21.362 19.3828 21.1953 19.3828C20.9661 19.3828 20.7578 19.3568 20.5703 19.3047C20.388 19.2526 20.2318 19.1641 20.1016 19.0391C19.9714 18.9193 19.8698 18.7578 19.7969 18.5547C19.7292 18.3464 19.6953 18.0885 19.6953 17.7812V14.1484L22.8516 14.1484V12.5469L19.6953 12.5469V10.4766ZM31.3906 12.3906C30.8229 12.3906 30.2995 12.5286 29.8203 12.8047C29.3411 13.0755 28.9297 13.4505 28.5859 13.9297L28.5703 13.7422L28.4844 12.5469H26.4609V21H28.6328V15.9219C28.7318 15.6823 28.8568 15.474 29.0078 15.2969C29.1589 15.1198 29.3411 14.974 29.5547 14.8594C29.7318 14.7604 29.9323 14.6875 30.1562 14.6406C30.3854 14.5885 30.6406 14.5625 30.9219 14.5625C31.1927 14.5625 31.4766 14.5807 31.7734 14.6172C32.0755 14.6484 32.3698 14.6979 32.6562 14.7656L32.9766 12.6016C32.8047 12.5495 32.5781 12.5026 32.2969 12.4609C32.0208 12.4141 31.7188 12.3906 31.3906 12.3906ZM39.0312 21.1563C39.849 21.1563 40.5573 20.9974 41.1562 20.6797C41.7552 20.362 42.1927 20.0078 42.4688 19.6172L41.3828 18.4453C41.1328 18.7682 40.8073 19.0104 40.4062 19.1719C40.0052 19.3333 39.5911 19.4141 39.1641 19.4141C38.862 19.4141 38.5833 19.3672 38.3281 19.2734C38.0729 19.1797 37.8464 19.0469 37.6484 18.875C37.4557 18.7083 37.3021 18.5234 37.1875 18.3203C37.0729 18.112 36.9792 17.8385 36.9062 17.5V17.4766H42.6406V16.5547C42.6406 15.9349 42.5547 15.3698 42.3828 14.8594C42.2109 14.3438 41.9609 13.9036 41.6328 13.5391C41.2995 13.1745 40.8932 12.8932 40.4141 12.6953C39.9401 12.4922 39.3984 12.3906 38.7891 12.3906C38.2005 12.3906 37.6562 12.4974 37.1562 12.7109C36.6562 12.9245 36.224 13.224 35.8594 13.6094C35.4948 13.9948 35.2109 14.4557 35.0078 14.9922C34.8047 15.5234 34.7031 16.112 34.7031 16.7578V17.0703C34.7031 17.638 34.8047 18.1719 35.0078 18.6719C35.2161 19.1667 35.5104 19.5964 35.8906 19.9609C36.2708 20.3307 36.7266 20.6224 37.2578 20.8359C37.7891 21.0495 38.3802 21.1563 39.0312 21.1563ZM38.7734 14.1484C39.0495 14.1484 39.2917 14.1927 39.5 14.2813C39.7135 14.3646 39.8932 14.4792 40.0391 14.625C40.1849 14.776 40.2995 14.9531 40.3828 15.1563C40.4661 15.3594 40.5078 15.5755 40.5078 15.8047V15.9766H36.9453C36.9974 15.7005 37.0755 15.4505 37.1797 15.2266C37.2839 15.0026 37.4141 14.8099 37.5703 14.6484C37.7214 14.487 37.8984 14.3646 38.1016 14.2813C38.3047 14.1927 38.5286 14.1484 38.7734 14.1484ZM48.5234 10.4766H46.3516V12.5469H44.4219V14.1484H46.3516V17.9922C46.3516 18.5495 46.4245 19.0286 46.5703 19.4297C46.7161 19.8255 46.9245 20.151 47.1953 20.4063C47.4609 20.6667 47.7812 20.8594 48.1562 20.9844C48.5365 21.1042 48.9583 21.1641 49.4219 21.1641C49.6615 21.1641 49.9036 21.151 50.1484 21.125C50.3984 21.1042 50.638 21.0729 50.8672 21.0313C51.0964 20.9896 51.3125 20.9375 51.5156 20.875C51.7188 20.8073 51.8958 20.7292 52.0469 20.6406L51.8359 19.1484C51.737 19.1745 51.6172 19.2005 51.4766 19.2266C51.3411 19.2526 51.1953 19.276 51.0391 19.2969C50.8776 19.3229 50.7083 19.3438 50.5312 19.3594C50.3594 19.375 50.1901 19.3828 50.0234 19.3828C49.7943 19.3828 49.5859 19.3568 49.3984 19.3047C49.2161 19.2526 49.0599 19.1641 48.9297 19.0391C48.7995 18.9193 48.6979 18.7578 48.625 18.5547C48.5573 18.3464 48.5234 18.0885 48.5234 17.7812V14.1484H51.6797V12.5469H48.5234V10.4766ZM57.8906 19.4219C57.5417 19.4219 57.2526 19.3516 57.0234 19.2109C56.7995 19.0703 56.6224 18.8828 56.4922 18.6484C56.3568 18.4193 56.263 18.1536 56.2109 17.8516C56.1589 17.5443 56.1328 17.2266 56.1328 16.8984V16.6641C56.1328 16.3411 56.1589 16.0286 56.2109 15.7266C56.2682 15.4245 56.3646 15.1563 56.5 14.9219C56.6302 14.6875 56.8073 14.5 57.0312 14.3594C57.2552 14.2188 57.5391 14.1484 57.8828 14.1484C58.1172 14.1484 58.3333 14.1901 58.5312 14.2734C58.7292 14.3516 58.8984 14.4583 59.0391 14.5938C59.1797 14.7292 59.2865 14.8906 59.3594 15.0781C59.4323 15.2656 59.4635 15.4635 59.4531 15.6719H61.5C61.5104 15.1719 61.4271 14.7214 61.25 14.3203C61.0729 13.9141 60.8255 13.5677 60.5078 13.2813C60.1849 13 59.8021 12.7813 59.3594 12.625C58.9167 12.4688 58.4349 12.3906 57.9141 12.3906C57.263 12.3906 56.6901 12.5026 56.1953 12.7266C55.7057 12.9505 55.2943 13.2552 54.9609 13.6406C54.6276 14.026 54.3776 14.4792 54.2109 15C54.0443 15.5156 53.9609 16.0703 53.9609 16.6641V16.8984C53.9609 17.4922 54.0443 18.0495 54.2109 18.5703C54.3828 19.0859 54.6354 19.5365 54.9688 19.9219C55.2969 20.3073 55.7083 20.612 56.2031 20.8359C56.6979 21.0547 57.2734 21.1641 57.9297 21.1641C58.4141 21.1641 58.8724 21.0885 59.3047 20.9375C59.7422 20.7813 60.125 20.5677 60.4531 20.2969C60.7812 20.026 61.0391 19.7031 61.2266 19.3281C61.4193 18.9531 61.5104 18.5469 61.5 18.1094H59.4531C59.4635 18.3073 59.4271 18.487 59.3438 18.6484C59.2656 18.8099 59.1536 18.9479 59.0078 19.0625C58.862 19.1771 58.6927 19.2656 58.5 19.3281C58.3073 19.3906 58.1042 19.4219 57.8906 19.4219ZM65.9297 13.7109V9H63.7578V21H65.9297V14.8984C66.013 14.7891 66.1042 14.6901 66.2031 14.6016C66.3073 14.513 66.4219 14.4375 66.5469 14.375C66.6823 14.3021 66.8333 14.2474 67 14.2109C67.1667 14.1745 67.3464 14.1563 67.5391 14.1563C67.7891 14.1563 68.013 14.1901 68.2109 14.2578C68.4089 14.3203 68.5781 14.4193 68.7188 14.5547C68.8594 14.6901 68.9661 14.8672 69.0391 15.0859C69.1172 15.3047 69.1562 15.5651 69.1562 15.8672V21H71.3281V15.8828C71.3281 15.263 71.2526 14.7344 71.1016 14.2969C70.9557 13.8542 70.75 13.4922 70.4844 13.2109C70.2188 12.9297 69.901 12.724 69.5312 12.5938C69.1615 12.4583 68.7552 12.3906 68.3125 12.3906C68.0104 12.3906 67.724 12.4349 67.4531 12.5234C67.1823 12.612 66.9349 12.737 66.7109 12.8984C66.5651 13.0026 66.4245 13.125 66.2891 13.2656C66.1589 13.401 66.0391 13.5495 65.9297 13.7109Z" fill="#12171A"/>
<rect x="373" width="59" height="29" rx="10" fill="#EFF1F3"/>
<path d="M384.555 18.6797C384.555 18.8099 384.521 18.9297 384.453 19.0391C384.391 19.1484 384.294 19.2448 384.164 19.3281C384.029 19.4115 383.854 19.4792 383.641 19.5312C383.432 19.5781 383.188 19.6016 382.906 19.6016C382.672 19.6016 382.443 19.5781 382.219 19.5312C382 19.4844 381.805 19.4089 381.633 19.3047C381.461 19.2057 381.32 19.0755 381.211 18.9141C381.102 18.7474 381.039 18.5495 381.023 18.3203H378.953C378.953 18.6641 379.036 19.0078 379.203 19.3516C379.375 19.6901 379.625 19.9922 379.953 20.2578C380.281 20.5286 380.688 20.7474 381.172 20.9141C381.661 21.0807 382.224 21.1641 382.859 21.1641C383.438 21.1641 383.961 21.1016 384.43 20.9766C384.898 20.8464 385.299 20.6667 385.633 20.4375C385.961 20.2083 386.214 19.9375 386.391 19.625C386.573 19.3073 386.664 18.9609 386.664 18.5859C386.664 18.1797 386.573 17.8307 386.391 17.5391C386.214 17.2422 385.966 16.9896 385.648 16.7812C385.331 16.5781 384.953 16.4115 384.516 16.2812C384.078 16.151 383.604 16.0443 383.094 15.9609C382.74 15.9089 382.448 15.849 382.219 15.7812C381.99 15.7083 381.81 15.6276 381.68 15.5391C381.544 15.4557 381.451 15.362 381.398 15.2578C381.346 15.1484 381.32 15.0312 381.32 14.9062C381.32 14.7812 381.349 14.6641 381.406 14.5547C381.469 14.4401 381.557 14.3411 381.672 14.2578C381.797 14.1641 381.958 14.0911 382.156 14.0391C382.354 13.987 382.586 13.9609 382.852 13.9609C383.164 13.9609 383.43 14 383.648 14.0781C383.872 14.1562 384.049 14.2604 384.18 14.3906C384.273 14.4896 384.344 14.6016 384.391 14.7266C384.438 14.8464 384.461 14.9766 384.461 15.1172H386.633C386.633 14.7266 386.547 14.3646 386.375 14.0312C386.203 13.6979 385.956 13.4089 385.633 13.1641C385.305 12.9245 384.906 12.737 384.438 12.6016C383.969 12.4609 383.44 12.3906 382.852 12.3906C382.289 12.3906 381.784 12.4609 381.336 12.6016C380.888 12.7422 380.508 12.9323 380.195 13.1719C379.883 13.4115 379.643 13.6901 379.477 14.0078C379.31 14.3255 379.227 14.6589 379.227 15.0078C379.227 15.3672 379.307 15.6849 379.469 15.9609C379.635 16.237 379.865 16.4792 380.156 16.6875C380.448 16.901 380.797 17.0833 381.203 17.2344C381.615 17.3802 382.068 17.5026 382.562 17.6016C382.953 17.6745 383.276 17.7474 383.531 17.8203C383.786 17.8932 383.992 17.9714 384.148 18.0547C384.299 18.1432 384.404 18.237 384.461 18.3359C384.523 18.4349 384.555 18.5495 384.555 18.6797ZM392.695 10.4766H390.523V12.5469H388.594V14.1484H390.523V17.9922C390.523 18.5495 390.596 19.0286 390.742 19.4297C390.888 19.8255 391.096 20.151 391.367 20.4062C391.633 20.6667 391.953 20.8594 392.328 20.9844C392.708 21.1042 393.13 21.1641 393.594 21.1641C393.833 21.1641 394.076 21.151 394.32 21.125C394.57 21.1042 394.81 21.0729 395.039 21.0312C395.268 20.9896 395.484 20.9375 395.688 20.875C395.891 20.8073 396.068 20.7292 396.219 20.6406L396.008 19.1484C395.909 19.1745 395.789 19.2005 395.648 19.2266C395.513 19.2526 395.367 19.276 395.211 19.2969C395.049 19.3229 394.88 19.3438 394.703 19.3594C394.531 19.375 394.362 19.3828 394.195 19.3828C393.966 19.3828 393.758 19.3568 393.57 19.3047C393.388 19.2526 393.232 19.1641 393.102 19.0391C392.971 18.9193 392.87 18.7578 392.797 18.5547C392.729 18.3464 392.695 18.0885 392.695 17.7812V14.1484L395.852 14.1484V12.5469L392.695 12.5469V10.4766ZM403.602 21H405.805V20.8672C405.695 20.6536 405.612 20.3984 405.555 20.1016C405.497 19.8047 405.469 19.4297 405.469 18.9766V15.3516C405.469 14.862 405.378 14.4323 405.195 14.0625C405.013 13.6875 404.76 13.3776 404.438 13.1328C404.115 12.888 403.732 12.7031 403.289 12.5781C402.852 12.4531 402.378 12.3906 401.867 12.3906C401.299 12.3906 400.794 12.4635 400.352 12.6094C399.914 12.75 399.544 12.9427 399.242 13.1875C398.935 13.4323 398.701 13.7161 398.539 14.0391C398.383 14.362 398.305 14.7031 398.305 15.0625H400.477C400.477 14.9115 400.497 14.7734 400.539 14.6484C400.586 14.5234 400.656 14.4167 400.75 14.3281C400.854 14.2292 400.99 14.1536 401.156 14.1016C401.323 14.0443 401.521 14.0156 401.75 14.0156C402.01 14.0156 402.237 14.0495 402.43 14.1172C402.628 14.1797 402.792 14.2708 402.922 14.3906C403.047 14.5052 403.141 14.6432 403.203 14.8047C403.266 14.9609 403.297 15.138 403.297 15.3359V15.8359H402.086C401.461 15.8359 400.906 15.8932 400.422 16.0078C399.943 16.1172 399.539 16.2786 399.211 16.4922C398.846 16.7266 398.573 17.026 398.391 17.3906C398.208 17.75 398.117 18.1641 398.117 18.6328C398.117 18.9974 398.19 19.3359 398.336 19.6484C398.482 19.9557 398.685 20.2214 398.945 20.4453C399.206 20.6693 399.516 20.8438 399.875 20.9688C400.24 21.0938 400.638 21.1562 401.07 21.1562C401.336 21.1562 401.583 21.1302 401.812 21.0781C402.042 21.0312 402.253 20.9635 402.445 20.875C402.633 20.7917 402.805 20.6927 402.961 20.5781C403.117 20.4635 403.255 20.3411 403.375 20.2109C403.401 20.362 403.432 20.5052 403.469 20.6406C403.505 20.776 403.549 20.8958 403.602 21ZM401.531 19.4766C401.328 19.4766 401.148 19.4531 400.992 19.4062C400.841 19.3542 400.714 19.2865 400.609 19.2031C400.505 19.1146 400.424 19.0078 400.367 18.8828C400.315 18.7526 400.289 18.612 400.289 18.4609C400.289 18.2682 400.326 18.0911 400.398 17.9297C400.471 17.763 400.583 17.6198 400.734 17.5C400.885 17.3854 401.081 17.2969 401.32 17.2344C401.56 17.1667 401.849 17.1328 402.188 17.1328H403.297V18.5859C403.234 18.6953 403.148 18.8047 403.039 18.9141C402.93 19.0182 402.799 19.112 402.648 19.1953C402.497 19.2786 402.328 19.3464 402.141 19.3984C401.953 19.4505 401.75 19.4766 401.531 19.4766ZM414 12.3906C413.432 12.3906 412.909 12.5286 412.43 12.8047C411.951 13.0755 411.539 13.4505 411.195 13.9297L411.18 13.7422L411.094 12.5469H409.07V21L411.242 21V15.9219C411.341 15.6823 411.466 15.474 411.617 15.2969C411.768 15.1198 411.951 14.974 412.164 14.8594C412.341 14.7604 412.542 14.6875 412.766 14.6406C412.995 14.5885 413.25 14.5625 413.531 14.5625C413.802 14.5625 414.086 14.5807 414.383 14.6172C414.685 14.6484 414.979 14.6979 415.266 14.7656L415.586 12.6016C415.414 12.5495 415.188 12.5026 414.906 12.4609C414.63 12.4141 414.328 12.3906 414 12.3906ZM421.523 10.4766H419.352V12.5469H417.422V14.1484H419.352V17.9922C419.352 18.5495 419.424 19.0286 419.57 19.4297C419.716 19.8255 419.924 20.151 420.195 20.4063C420.461 20.6667 420.781 20.8594 421.156 20.9844C421.536 21.1042 421.958 21.1641 422.422 21.1641C422.661 21.1641 422.904 21.151 423.148 21.125C423.398 21.1042 423.638 21.0729 423.867 21.0313C424.096 20.9896 424.312 20.9375 424.516 20.875C424.719 20.8073 424.896 20.7292 425.047 20.6406L424.836 19.1484C424.737 19.1745 424.617 19.2005 424.477 19.2266C424.341 19.2526 424.195 19.276 424.039 19.2969C423.878 19.3229 423.708 19.3438 423.531 19.3594C423.359 19.375 423.19 19.3828 423.023 19.3828C422.794 19.3828 422.586 19.3568 422.398 19.3047C422.216 19.2526 422.06 19.1641 421.93 19.0391C421.799 18.9193 421.698 18.7578 421.625 18.5547C421.557 18.3464 421.523 18.0885 421.523 17.7812V14.1484H424.68V12.5469H421.523V10.4766Z" fill="#12171A"/>
<rect x="557" width="39" height="29" rx="10" fill="#EFF1F3"/>
<path d="M567.203 21.1562C568.021 21.1562 568.729 20.9974 569.328 20.6797C569.927 20.362 570.365 20.0078 570.641 19.6172L569.555 18.4453C569.305 18.7682 568.979 19.0104 568.578 19.1719C568.177 19.3333 567.763 19.4141 567.336 19.4141C567.034 19.4141 566.755 19.3672 566.5 19.2734C566.245 19.1797 566.018 19.0469 565.82 18.875C565.628 18.7083 565.474 18.5234 565.359 18.3203C565.245 18.112 565.151 17.8385 565.078 17.5V17.4766H570.812V16.5547C570.812 15.9349 570.727 15.3698 570.555 14.8594C570.383 14.3438 570.133 13.9036 569.805 13.5391C569.471 13.1745 569.065 12.8932 568.586 12.6953C568.112 12.4922 567.57 12.3906 566.961 12.3906C566.372 12.3906 565.828 12.4974 565.328 12.7109C564.828 12.9245 564.396 13.224 564.031 13.6094C563.667 13.9948 563.383 14.4557 563.18 14.9922C562.977 15.5234 562.875 16.112 562.875 16.7578V17.0703C562.875 17.638 562.977 18.1719 563.18 18.6719C563.388 19.1667 563.682 19.5964 564.062 19.9609C564.443 20.3307 564.898 20.6224 565.43 20.8359C565.961 21.0495 566.552 21.1562 567.203 21.1562ZM566.945 14.1484C567.221 14.1484 567.464 14.1927 567.672 14.2812C567.885 14.3646 568.065 14.4792 568.211 14.625C568.357 14.776 568.471 14.9531 568.555 15.1562C568.638 15.3594 568.68 15.5755 568.68 15.8047V15.9766H565.117C565.169 15.7005 565.247 15.4505 565.352 15.2266C565.456 15.0026 565.586 14.8099 565.742 14.6484C565.893 14.487 566.07 14.3646 566.273 14.2812C566.477 14.1927 566.701 14.1484 566.945 14.1484ZM572.711 21H574.891V14.9922C574.964 14.8776 575.044 14.7734 575.133 14.6797C575.221 14.5859 575.32 14.5052 575.43 14.4375C575.565 14.3438 575.719 14.2734 575.891 14.2266C576.068 14.1797 576.26 14.1562 576.469 14.1562C576.719 14.1562 576.943 14.1823 577.141 14.2344C577.339 14.2812 577.508 14.3672 577.648 14.4922C577.789 14.6172 577.896 14.7891 577.969 15.0078C578.047 15.2214 578.086 15.4948 578.086 15.8281V21H580.258V15.7969C580.258 15.1823 580.185 14.6615 580.039 14.2344C579.898 13.8021 579.701 13.4479 579.445 13.1719C579.185 12.901 578.878 12.7031 578.523 12.5781C578.169 12.4531 577.779 12.3906 577.352 12.3906C577.018 12.3906 576.703 12.4375 576.406 12.5312C576.109 12.625 575.836 12.7604 575.586 12.9375C575.44 13.0417 575.302 13.1589 575.172 13.2891C575.042 13.4193 574.922 13.5625 574.812 13.7188L574.68 12.5469H572.711V21ZM582.094 16.7109V16.875C582.094 17.4896 582.169 18.0599 582.32 18.5859C582.471 19.1068 582.69 19.5573 582.977 19.9375C583.258 20.3177 583.602 20.6172 584.008 20.8359C584.419 21.0495 584.883 21.1562 585.398 21.1562C585.872 21.1562 586.289 21.0651 586.648 20.8828C587.008 20.7005 587.32 20.4453 587.586 20.1172L587.695 21H589.656V9H587.477V13.3047C587.216 13.013 586.917 12.7891 586.578 12.6328C586.245 12.4714 585.857 12.3906 585.414 12.3906C584.888 12.3906 584.419 12.4948 584.008 12.7031C583.602 12.9115 583.255 13.2057 582.969 13.5859C582.682 13.9661 582.464 14.4219 582.312 14.9531C582.167 15.4844 582.094 16.0703 582.094 16.7109ZM584.266 16.875V16.7109C584.266 16.3568 584.297 16.026 584.359 15.7188C584.422 15.4063 584.521 15.1328 584.656 14.8984C584.792 14.6693 584.966 14.4896 585.18 14.3594C585.398 14.224 585.661 14.1563 585.969 14.1563C586.339 14.1563 586.646 14.237 586.891 14.3984C587.135 14.5547 587.331 14.776 587.477 15.0625V18.4844C587.331 18.7656 587.133 18.987 586.883 19.1484C586.638 19.3099 586.328 19.3906 585.953 19.3906C585.646 19.3906 585.385 19.3255 585.172 19.1953C584.958 19.0651 584.784 18.8854 584.648 18.6562C584.513 18.4323 584.414 18.1693 584.352 17.8672C584.294 17.5599 584.266 17.2292 584.266 16.875Z" fill="#12171A"/>
<rect x="186" width="68" height="29" rx="10" fill="#EFF1F3"/>
<path d="M195.844 19.4219C195.495 19.4219 195.206 19.3516 194.977 19.2109C194.753 19.0703 194.576 18.8828 194.445 18.6484C194.31 18.4193 194.216 18.1536 194.164 17.8516C194.112 17.5443 194.086 17.2266 194.086 16.8984V16.6641C194.086 16.3411 194.112 16.0286 194.164 15.7266C194.221 15.4245 194.318 15.1562 194.453 14.9219C194.583 14.6875 194.76 14.5 194.984 14.3594C195.208 14.2188 195.492 14.1484 195.836 14.1484C196.07 14.1484 196.286 14.1901 196.484 14.2734C196.682 14.3516 196.852 14.4583 196.992 14.5938C197.133 14.7292 197.24 14.8906 197.312 15.0781C197.385 15.2656 197.417 15.4635 197.406 15.6719H199.453C199.464 15.1719 199.38 14.7214 199.203 14.3203C199.026 13.9141 198.779 13.5677 198.461 13.2812C198.138 13 197.755 12.7812 197.312 12.625C196.87 12.4688 196.388 12.3906 195.867 12.3906C195.216 12.3906 194.643 12.5026 194.148 12.7266C193.659 12.9505 193.247 13.2552 192.914 13.6406C192.581 14.026 192.331 14.4792 192.164 15C191.997 15.5156 191.914 16.0703 191.914 16.6641V16.8984C191.914 17.4922 191.997 18.0495 192.164 18.5703C192.336 19.0859 192.589 19.5365 192.922 19.9219C193.25 20.3073 193.661 20.612 194.156 20.8359C194.651 21.0547 195.227 21.1641 195.883 21.1641C196.367 21.1641 196.826 21.0885 197.258 20.9375C197.695 20.7812 198.078 20.5677 198.406 20.2969C198.734 20.026 198.992 19.7031 199.18 19.3281C199.372 18.9531 199.464 18.5469 199.453 18.1094H197.406C197.417 18.3073 197.38 18.487 197.297 18.6484C197.219 18.8099 197.107 18.9479 196.961 19.0625C196.815 19.1771 196.646 19.2656 196.453 19.3281C196.26 19.3906 196.057 19.4219 195.844 19.4219ZM205.812 21.1562C206.63 21.1562 207.339 20.9974 207.938 20.6797C208.536 20.362 208.974 20.0078 209.25 19.6172L208.164 18.4453C207.914 18.7682 207.589 19.0104 207.188 19.1719C206.786 19.3333 206.372 19.4141 205.945 19.4141C205.643 19.4141 205.365 19.3672 205.109 19.2734C204.854 19.1797 204.628 19.0469 204.43 18.875C204.237 18.7083 204.083 18.5234 203.969 18.3203C203.854 18.112 203.76 17.8385 203.688 17.5V17.4766H209.422V16.5547C209.422 15.9349 209.336 15.3698 209.164 14.8594C208.992 14.3438 208.742 13.9036 208.414 13.5391C208.081 13.1745 207.674 12.8932 207.195 12.6953C206.721 12.4922 206.18 12.3906 205.57 12.3906C204.982 12.3906 204.438 12.4974 203.938 12.7109C203.438 12.9245 203.005 13.224 202.641 13.6094C202.276 13.9948 201.992 14.4557 201.789 14.9922C201.586 15.5234 201.484 16.112 201.484 16.7578V17.0703C201.484 17.638 201.586 18.1719 201.789 18.6719C201.997 19.1667 202.292 19.5964 202.672 19.9609C203.052 20.3307 203.508 20.6224 204.039 20.8359C204.57 21.0495 205.161 21.1562 205.812 21.1562ZM205.555 14.1484C205.831 14.1484 206.073 14.1927 206.281 14.2812C206.495 14.3646 206.674 14.4792 206.82 14.625C206.966 14.776 207.081 14.9531 207.164 15.1563C207.247 15.3594 207.289 15.5755 207.289 15.8047V15.9766L203.727 15.9766C203.779 15.7005 203.857 15.4505 203.961 15.2266C204.065 15.0026 204.195 14.8099 204.352 14.6484C204.503 14.487 204.68 14.3646 204.883 14.2812C205.086 14.1927 205.31 14.1484 205.555 14.1484ZM211.32 21H213.5V14.9922C213.573 14.8776 213.654 14.7734 213.742 14.6797C213.831 14.5859 213.93 14.5052 214.039 14.4375C214.174 14.3438 214.328 14.2734 214.5 14.2266C214.677 14.1797 214.87 14.1563 215.078 14.1563C215.328 14.1563 215.552 14.1823 215.75 14.2344C215.948 14.2813 216.117 14.3672 216.258 14.4922C216.398 14.6172 216.505 14.7891 216.578 15.0078C216.656 15.2214 216.695 15.4948 216.695 15.8281V21H218.867V15.7969C218.867 15.1823 218.794 14.6615 218.648 14.2344C218.508 13.8021 218.31 13.4479 218.055 13.1719C217.794 12.901 217.487 12.7031 217.133 12.5781C216.779 12.4531 216.388 12.3906 215.961 12.3906C215.628 12.3906 215.312 12.4375 215.016 12.5313C214.719 12.625 214.445 12.7604 214.195 12.9375C214.049 13.0417 213.911 13.1589 213.781 13.2891C213.651 13.4193 213.531 13.5625 213.422 13.7188L213.289 12.5469H211.32V21ZM224.914 10.4766H222.742V12.5469H220.812V14.1484H222.742V17.9922C222.742 18.5495 222.815 19.0286 222.961 19.4297C223.107 19.8255 223.315 20.151 223.586 20.4063C223.852 20.6667 224.172 20.8594 224.547 20.9844C224.927 21.1042 225.349 21.1641 225.812 21.1641C226.052 21.1641 226.294 21.151 226.539 21.125C226.789 21.1042 227.029 21.0729 227.258 21.0313C227.487 20.9896 227.703 20.9375 227.906 20.875C228.109 20.8073 228.286 20.7292 228.438 20.6406L228.227 19.1484C228.128 19.1745 228.008 19.2005 227.867 19.2266C227.732 19.2526 227.586 19.276 227.43 19.2969C227.268 19.3229 227.099 19.3438 226.922 19.3594C226.75 19.375 226.581 19.3828 226.414 19.3828C226.185 19.3828 225.977 19.3568 225.789 19.3047C225.607 19.2526 225.451 19.1641 225.32 19.0391C225.19 18.9193 225.089 18.7578 225.016 18.5547C224.948 18.3464 224.914 18.0885 224.914 17.7812V14.1484H228.07V12.5469H224.914V10.4766ZM234.641 21.1563C235.458 21.1563 236.167 20.9974 236.766 20.6797C237.365 20.362 237.802 20.0078 238.078 19.6172L236.992 18.4453C236.742 18.7682 236.417 19.0104 236.016 19.1719C235.615 19.3333 235.201 19.4141 234.773 19.4141C234.471 19.4141 234.193 19.3672 233.938 19.2734C233.682 19.1797 233.456 19.0469 233.258 18.875C233.065 18.7083 232.911 18.5234 232.797 18.3203C232.682 18.112 232.589 17.8385 232.516 17.5V17.4766H238.25V16.5547C238.25 15.9349 238.164 15.3698 237.992 14.8594C237.82 14.3438 237.57 13.9036 237.242 13.5391C236.909 13.1745 236.503 12.8932 236.023 12.6953C235.549 12.4922 235.008 12.3906 234.398 12.3906C233.81 12.3906 233.266 12.4974 232.766 12.7109C232.266 12.9245 231.833 13.224 231.469 13.6094C231.104 13.9948 230.82 14.4557 230.617 14.9922C230.414 15.5234 230.312 16.112 230.312 16.7578V17.0703C230.312 17.638 230.414 18.1719 230.617 18.6719C230.826 19.1667 231.12 19.5964 231.5 19.9609C231.88 20.3307 232.336 20.6224 232.867 20.8359C233.398 21.0495 233.99 21.1563 234.641 21.1563ZM234.383 14.1484C234.659 14.1484 234.901 14.1927 235.109 14.2813C235.323 14.3646 235.503 14.4792 235.648 14.625C235.794 14.776 235.909 14.9531 235.992 15.1563C236.076 15.3594 236.117 15.5755 236.117 15.8047V15.9766H232.555C232.607 15.7005 232.685 15.4505 232.789 15.2266C232.893 15.0026 233.023 14.8099 233.18 14.6484C233.331 14.487 233.508 14.3646 233.711 14.2813C233.914 14.1927 234.138 14.1484 234.383 14.1484ZM246.219 12.3906C245.651 12.3906 245.128 12.5286 244.648 12.8047C244.169 13.0755 243.758 13.4505 243.414 13.9297L243.398 13.7422L243.312 12.5469H241.289V21H243.461V15.9219C243.56 15.6823 243.685 15.474 243.836 15.2969C243.987 15.1198 244.169 14.974 244.383 14.8594C244.56 14.7604 244.76 14.6875 244.984 14.6406C245.214 14.5885 245.469 14.5625 245.75 14.5625C246.021 14.5625 246.305 14.5807 246.602 14.6172C246.904 14.6484 247.198 14.6979 247.484 14.7656L247.805 12.6016C247.633 12.5495 247.406 12.5026 247.125 12.4609C246.849 12.4141 246.547 12.3906 246.219 12.3906Z" fill="#12171A"/>
<rect x="1" y="35" width="177" height="101" rx="9" fill="#EFF1F3" stroke="#DADFE2" stroke-width="2"/>
<rect x="2" y="36" width="175" height="87" rx="8" fill="#EAD6F8"/>
<line x1="2" y1="79.5" x2="177" y2="79.5" stroke="#6E33A6"/>
<line x1="65.5" y1="36" x2="65.5" y2="123" stroke="#6E33A6"/>
<rect x="67.5" y="41.5" width="108" height="32" rx="7.5" fill="#5ED4B9" stroke="#147264"/>
<rect x="67.5" y="85.5" width="108" height="32" rx="7.5" fill="#5ED4B9" stroke="#147264"/>
<rect x="3.5" y="41.5" width="60" height="32" rx="7.5" fill="#B688E0" stroke="#6E33A6"/>
<rect x="3.5" y="85.5" width="60" height="32" rx="7.5" fill="#B688E0" stroke="#6E33A6"/>
<rect x="187" y="35" width="177" height="101" rx="9" fill="#EFF1F3" stroke="#DADFE2" stroke-width="2"/>
<rect x="233" y="36" width="85" height="71" rx="8" fill="#EAD6F8"/>
<line x1="233" y1="71.5" x2="318" y2="71.5" stroke="#6E33A6"/>
<line x1="275.5" y1="36" x2="275.5" y2="107" stroke="#6E33A6"/>
<rect x="277.5" y="37.5" width="39" height="32" rx="7.5" fill="#B688E0" stroke="#6E33A6"/>
<rect x="277.5" y="73.5" width="39" height="32" rx="7.5" fill="#B688E0" stroke="#6E33A6"/>
<rect x="234.5" y="37.5" width="39" height="32" rx="7.5" fill="#B688E0" stroke="#6E33A6"/>
<rect x="234.5" y="73.5" width="39" height="32" rx="7.5" fill="#B688E0" stroke="#6E33A6"/>
<rect x="373" y="35" width="177" height="101" rx="9" fill="#EFF1F3" stroke="#DADFE2" stroke-width="2"/>
<rect x="558" y="35" width="177" height="101" rx="9" fill="#EFF1F3" stroke="#DADFE2" stroke-width="2"/>
<rect x="649" y="36" width="85" height="71" rx="8" fill="#EAD6F8"/>
<rect x="374" y="36" width="85" height="71" rx="8" fill="#EAD6F8"/>
<line x1="649" y1="71.5" x2="734" y2="71.5" stroke="#6E33A6"/>
<line x1="374" y1="71.5" x2="459" y2="71.5" stroke="#6E33A6"/>
<line x1="691.5" y1="36" x2="691.5" y2="107" stroke="#6E33A6"/>
<line x1="416.5" y1="36" x2="416.5" y2="107" stroke="#6E33A6"/>
<rect x="693.5" y="37.5" width="39" height="32" rx="7.5" fill="#B688E0" stroke="#6E33A6"/>
<rect x="418.5" y="37.5" width="39" height="32" rx="7.5" fill="#B688E0" stroke="#6E33A6"/>
<rect x="693.5" y="73.5" width="39" height="32" rx="7.5" fill="#B688E0" stroke="#6E33A6"/>
<rect x="418.5" y="73.5" width="39" height="32" rx="7.5" fill="#B688E0" stroke="#6E33A6"/>
<rect x="650.5" y="37.5" width="39" height="32" rx="7.5" fill="#B688E0" stroke="#6E33A6"/>
<rect x="375.5" y="37.5" width="39" height="32" rx="7.5" fill="#B688E0" stroke="#6E33A6"/>
<rect x="650.5" y="73.5" width="39" height="32" rx="7.5" fill="#B688E0" stroke="#6E33A6"/>
<rect x="375.5" y="73.5" width="39" height="32" rx="7.5" fill="#B688E0" stroke="#6E33A6"/>
</svg>
