<svg width="600" height="344" viewBox="0 0 600 344" fill="none" xmlns="http://www.w3.org/2000/svg">
<rect x="1" y="35" width="191" height="126" rx="9" fill="#EFF1F3" stroke="#6E33A6" stroke-width="2"/>
<rect x="1" y="217" width="191" height="126" rx="9" fill="#EFF1F3" stroke="#DADFE2" stroke-width="2"/>
<rect x="204" y="35" width="192" height="126" rx="9" fill="#EFF1F3" stroke="#DADFE2" stroke-width="2"/>
<rect x="408" y="35" width="191" height="126" rx="9" fill="#EFF1F3" stroke="#DADFE2" stroke-width="2"/>
<rect x="408" y="217" width="191" height="126" rx="9" fill="#EFF1F3" stroke="#DADFE2" stroke-width="2"/>
<rect x="204" y="217" width="191" height="126" rx="9" fill="#EFF1F3" stroke="#DADFE2" stroke-width="2"/>
<rect x="213.5" y="43.5" width="100" height="49" rx="9.5" fill="#B688E0" stroke="#6E33A6"/>
<rect x="9" y="43" width="102" height="50" rx="10" fill="#DADFE2"/>
<rect x="9.5" y="225.5" width="101" height="49" rx="9.5" fill="#B688E0" stroke="#6E33A6"/>
<rect x="324.5" y="43.5" width="63" height="49" rx="9.5" fill="#B688E0" stroke="#6E33A6"/>
<rect x="416" y="43" width="101" height="50" rx="10" fill="#DADFE2"/>
<rect x="416" y="225" width="50" height="50" rx="10" fill="#DADFE2"/>
<rect x="212" y="225" width="50" height="50" rx="10" fill="#DADFE2"/>
<rect x="416" y="285" width="50" height="50" rx="10" fill="#DADFE2"/>
<rect x="212" y="285" width="50" height="50" rx="10" fill="#DADFE2"/>
<rect x="479" y="225" width="49" height="50" rx="10" fill="#DADFE2"/>
<rect x="275" y="225" width="49" height="50" rx="10" fill="#DADFE2"/>
<rect x="479" y="285" width="49" height="50" rx="10" fill="#DADFE2"/>
<rect x="275" y="285" width="49" height="50" rx="10" fill="#DADFE2"/>
<rect x="541" y="225" width="50" height="50" rx="10" fill="#DADFE2"/>
<rect x="337" y="225" width="50" height="50" rx="10" fill="#DADFE2"/>
<rect x="541" y="285" width="50" height="50" rx="10" fill="#DADFE2"/>
<rect x="337" y="285" width="50" height="50" rx="10" fill="#DADFE2"/>
<rect x="324.5" y="103.5" width="63" height="49" rx="9.5" fill="#B688E0" stroke="#6E33A6"/>
<rect x="119" y="43" width="65" height="50" rx="10" fill="#DADFE2"/>
<rect x="119" y="225" width="65" height="50" rx="10" fill="#DADFE2"/>
<rect x="213.5" y="103.5" width="100" height="49" rx="9.5" fill="#B688E0" stroke="#6E33A6"/>
<rect x="527" y="43" width="64" height="50" rx="10" fill="#DADFE2"/>
<rect x="119" y="103" width="65" height="50" rx="10" fill="#DADFE2"/>
<rect x="119" y="285" width="65" height="50" rx="10" fill="#DADFE2"/>
<rect x="527" y="103" width="64" height="50" rx="10" fill="#DADFE2"/>
<rect x="9" y="103" width="102" height="50" rx="10" fill="#DADFE2"/>
<rect x="9" y="285" width="102" height="50" rx="10" fill="#DADFE2"/>
<rect x="416" y="103" width="101" height="50" rx="10" fill="#DADFE2"/>
<line x1="522.5" y1="34" x2="522.5" y2="162" stroke="#6E33A6"/>
<line x1="534.5" y1="216" x2="534.5" y2="344" stroke="#6E33A6"/>
<line x1="330.5" y1="216" x2="330.5" y2="344" stroke="#6E33A6"/>
<line x1="472.5" y1="216" x2="472.5" y2="344" stroke="#6E33A6"/>
<line x1="268.5" y1="216" x2="268.5" y2="344" stroke="#6E33A6"/>
<line x1="600" y1="98.5" x2="407" y2="98.5" stroke="#6E33A6"/>
<line x1="600" y1="280.5" x2="407" y2="280.5" stroke="#6E33A6"/>
<line x1="396" y1="280.5" x2="203" y2="280.5" stroke="#6E33A6"/>
<path opacity="0.2" d="M472 218H590C594.418 218 598 221.582 598 226V334C598 338.418 594.418 342 590 342H472V218Z" fill="#6E33A6"/>
<path opacity="0.2" d="M268 216H330V344H268V216Z" fill="#6E33A6"/>
<rect width="145" height="29" rx="10" fill="#EFF1F3"/>
<rect y="182" width="145" height="29" rx="10" fill="#EFF1F3"/>
<rect x="203" width="96" height="29" rx="10" fill="#EFF1F3"/>
<rect x="203" y="182" width="154" height="29" rx="10" fill="#EFF1F3"/>
<rect x="407" width="135" height="29" rx="10" fill="#EFF1F3"/>
<rect x="407" y="182" width="126" height="29" rx="10" fill="#EFF1F3"/>
<path d="M13.9219 17.4375H11.7266C11.7057 17.7812 11.6484 18.0755 11.5547 18.3203C11.4609 18.5651 11.3333 18.7656 11.1719 18.9219C11.0104 19.0781 10.8151 19.1927 10.5859 19.2656C10.3568 19.3385 10.099 19.375 9.8125 19.375C9.59896 19.375 9.40365 19.3516 9.22656 19.3047C9.05469 19.2526 8.89844 19.1745 8.75781 19.0703C8.6276 18.9766 8.51042 18.8594 8.40625 18.7188C8.30729 18.5781 8.22135 18.4167 8.14844 18.2344C8.04427 17.9688 7.96615 17.6589 7.91406 17.3047C7.86719 16.9453 7.84375 16.5391 7.84375 16.0859L7.84375 14.5391C7.84375 14.2057 7.85938 13.8958 7.89062 13.6094C7.92188 13.3177 7.97135 13.0521 8.03906 12.8125C8.1276 12.5052 8.24479 12.237 8.39062 12.0078C8.54167 11.7734 8.72396 11.5938 8.9375 11.4688C9.0625 11.3958 9.19792 11.3411 9.34375 11.3047C9.49479 11.2682 9.65625 11.25 9.82812 11.25C10.151 11.25 10.4271 11.2943 10.6562 11.3828C10.8906 11.4661 11.0859 11.5911 11.2422 11.7578C11.3932 11.9297 11.5078 12.1432 11.5859 12.3984C11.6693 12.6536 11.7214 12.9505 11.7422 13.2891H13.9297C13.8776 12.6953 13.7526 12.1615 13.5547 11.6875C13.3568 11.2135 13.0859 10.8125 12.7422 10.4844C12.3984 10.1562 11.9818 9.90365 11.4922 9.72656C11.0078 9.54948 10.4531 9.46094 9.82812 9.46094C9.40625 9.46094 9.01042 9.51562 8.64062 9.625C8.27604 9.72917 7.9401 9.88021 7.63281 10.0781C7.28906 10.3125 6.98177 10.599 6.71094 10.9375C6.4401 11.276 6.22135 11.6615 6.05469 12.0938C5.90885 12.4479 5.79948 12.8333 5.72656 13.25C5.65365 13.6615 5.61719 14.0964 5.61719 14.5547V16.0859C5.61719 16.5755 5.65625 17.0391 5.73437 17.4766C5.81771 17.9141 5.9349 18.3151 6.08594 18.6797C6.24219 19.0443 6.43229 19.3776 6.65625 19.6797C6.88542 19.9818 7.14583 20.2396 7.4375 20.4531C7.75521 20.6823 8.11198 20.8594 8.50781 20.9844C8.90885 21.1042 9.34375 21.1641 9.8125 21.1641C10.4062 21.1641 10.9479 21.0781 11.4375 20.9062C11.9271 20.7292 12.349 20.4792 12.7031 20.1562C13.0573 19.8333 13.3385 19.4427 13.5469 18.9844C13.7604 18.526 13.8854 18.0104 13.9219 17.4375ZM15.4141 16.6953V16.8594C15.4141 17.4792 15.5026 18.0521 15.6797 18.5781C15.8568 19.099 16.1172 19.5521 16.4609 19.9375C16.7995 20.3229 17.2161 20.625 17.7109 20.8438C18.2109 21.0573 18.7786 21.1641 19.4141 21.1641C20.0443 21.1641 20.6068 21.0573 21.1016 20.8438C21.5964 20.625 22.013 20.3229 22.3516 19.9375C22.6901 19.5521 22.9479 19.099 23.125 18.5781C23.3021 18.0521 23.3906 17.4792 23.3906 16.8594V16.6953C23.3906 16.0807 23.3021 15.513 23.125 14.9922C22.9479 14.4661 22.6901 14.0104 22.3516 13.625C22.0078 13.2396 21.5885 12.9375 21.0938 12.7188C20.599 12.5 20.0339 12.3906 19.3984 12.3906C18.763 12.3906 18.1979 12.5 17.7031 12.7188C17.2135 12.9375 16.7995 13.2396 16.4609 13.625C16.1172 14.0104 15.8568 14.4661 15.6797 14.9922C15.5026 15.513 15.4141 16.0807 15.4141 16.6953ZM17.5859 16.8594V16.6953C17.5859 16.3516 17.6198 16.026 17.6875 15.7188C17.7552 15.4115 17.862 15.1406 18.0078 14.9062C18.1536 14.6719 18.3411 14.487 18.5703 14.3516C18.7995 14.2161 19.0755 14.1484 19.3984 14.1484C19.7266 14.1484 20.0052 14.2161 20.2344 14.3516C20.4635 14.487 20.651 14.6719 20.7969 14.9062C20.9375 15.1406 21.0417 15.4115 21.1094 15.7188C21.1771 16.026 21.2109 16.3516 21.2109 16.6953V16.8594C21.2109 17.2135 21.1771 17.5469 21.1094 17.8594C21.0417 18.1667 20.9375 18.4349 20.7969 18.6641C20.651 18.8984 20.4635 19.0833 20.2344 19.2188C20.0052 19.3542 19.7318 19.4219 19.4141 19.4219C19.0859 19.4219 18.8047 19.3542 18.5703 19.2188C18.3411 19.0833 18.1536 18.8984 18.0078 18.6641C17.862 18.4349 17.7552 18.1667 17.6875 17.8594C17.6198 17.5469 17.5859 17.2135 17.5859 16.8594ZM25.3203 21H27.5V14.9922C27.5729 14.8776 27.6536 14.7734 27.7422 14.6797C27.8307 14.5859 27.9297 14.5052 28.0391 14.4375C28.1745 14.3438 28.3281 14.2734 28.5 14.2266C28.6771 14.1797 28.8698 14.1563 29.0781 14.1563C29.3281 14.1563 29.5521 14.1823 29.75 14.2344C29.9479 14.2813 30.1172 14.3672 30.2578 14.4922C30.3984 14.6172 30.5052 14.7891 30.5781 15.0078C30.6562 15.2214 30.6953 15.4948 30.6953 15.8281V21H32.8672V15.7969C32.8672 15.1823 32.7943 14.6615 32.6484 14.2344C32.5078 13.8021 32.3099 13.4479 32.0547 13.1719C31.7943 12.901 31.487 12.7031 31.1328 12.5781C30.7786 12.4531 30.388 12.3906 29.9609 12.3906C29.6276 12.3906 29.3125 12.4375 29.0156 12.5313C28.7188 12.625 28.4453 12.7604 28.1953 12.9375C28.0495 13.0417 27.9115 13.1589 27.7812 13.2891C27.651 13.4193 27.5312 13.5625 27.4219 13.7188L27.2891 12.5469H25.3203V21ZM38.9141 10.4766H36.7422V12.5469H34.8125V14.1484H36.7422V17.9922C36.7422 18.5495 36.8151 19.0286 36.9609 19.4297C37.1068 19.8255 37.3151 20.151 37.5859 20.4063C37.8516 20.6667 38.1719 20.8594 38.5469 20.9844C38.9271 21.1042 39.349 21.1641 39.8125 21.1641C40.0521 21.1641 40.2943 21.151 40.5391 21.125C40.7891 21.1042 41.0286 21.0729 41.2578 21.0313C41.487 20.9896 41.7031 20.9375 41.9062 20.875C42.1094 20.8073 42.2865 20.7292 42.4375 20.6406L42.2266 19.1484C42.1276 19.1745 42.0078 19.2005 41.8672 19.2266C41.7318 19.2526 41.5859 19.276 41.4297 19.2969C41.2682 19.3229 41.099 19.3438 40.9219 19.3594C40.75 19.375 40.5807 19.3828 40.4141 19.3828C40.1849 19.3828 39.9766 19.3568 39.7891 19.3047C39.6068 19.2526 39.4505 19.1641 39.3203 19.0391C39.1901 18.9193 39.0885 18.7578 39.0156 18.5547C38.9479 18.3464 38.9141 18.0885 38.9141 17.7812V14.1484H42.0703V12.5469H38.9141V10.4766ZM48.6406 21.1563C49.4583 21.1563 50.1667 20.9974 50.7656 20.6797C51.3646 20.362 51.8021 20.0078 52.0781 19.6172L50.9922 18.4453C50.7422 18.7682 50.4167 19.0104 50.0156 19.1719C49.6146 19.3333 49.2005 19.4141 48.7734 19.4141C48.4714 19.4141 48.1927 19.3672 47.9375 19.2734C47.6823 19.1797 47.4557 19.0469 47.2578 18.875C47.0651 18.7083 46.9115 18.5234 46.7969 18.3203C46.6823 18.112 46.5885 17.8385 46.5156 17.5V17.4766H52.25V16.5547C52.25 15.9349 52.1641 15.3698 51.9922 14.8594C51.8203 14.3438 51.5703 13.9036 51.2422 13.5391C50.9089 13.1745 50.5026 12.8932 50.0234 12.6953C49.5495 12.4922 49.0078 12.3906 48.3984 12.3906C47.8099 12.3906 47.2656 12.4974 46.7656 12.7109C46.2656 12.9245 45.8333 13.224 45.4688 13.6094C45.1042 13.9948 44.8203 14.4557 44.6172 14.9922C44.4141 15.5234 44.3125 16.112 44.3125 16.7578V17.0703C44.3125 17.638 44.4141 18.1719 44.6172 18.6719C44.8255 19.1667 45.1198 19.5964 45.5 19.9609C45.8802 20.3307 46.3359 20.6224 46.8672 20.8359C47.3984 21.0495 47.9896 21.1563 48.6406 21.1563ZM48.3828 14.1484C48.6589 14.1484 48.901 14.1927 49.1094 14.2813C49.3229 14.3646 49.5026 14.4792 49.6484 14.625C49.7943 14.776 49.9089 14.9531 49.9922 15.1563C50.0755 15.3594 50.1172 15.5755 50.1172 15.8047V15.9766H46.5547C46.6068 15.7005 46.6849 15.4505 46.7891 15.2266C46.8932 15.0026 47.0234 14.8099 47.1797 14.6484C47.3307 14.487 47.5078 14.3646 47.7109 14.2813C47.9141 14.1927 48.138 14.1484 48.3828 14.1484ZM51.0625 10.8359L48.7656 8.9375H47.5078L45.2422 10.8203V11.0547H46.9375L48.1328 10.0625L49.3359 11.0547H51.0625V10.8359ZM54.7266 12.5469V14.3203H57.1328V19.2344H54.7266V21H61.6172V19.2344H59.3281V12.5469H54.7266ZM56.9766 10.3828C56.9766 10.5495 57.0052 10.7057 57.0625 10.8516C57.125 10.9922 57.2109 11.112 57.3203 11.2109C57.4297 11.3151 57.5599 11.3958 57.7109 11.4531C57.8672 11.5104 58.0391 11.5391 58.2266 11.5391C58.612 11.5391 58.9167 11.4323 59.1406 11.2188C59.3698 11 59.4844 10.7214 59.4844 10.3828C59.4844 10.0443 59.3698 9.76823 59.1406 9.55469C58.9167 9.33594 58.612 9.22656 58.2266 9.22656C58.0391 9.22656 57.8672 9.25521 57.7109 9.3125C57.5599 9.36979 57.4297 9.44792 57.3203 9.54688C57.2109 9.65104 57.125 9.77604 57.0625 9.92188C57.0052 10.0625 56.9766 10.2161 56.9766 10.3828ZM63.7578 21H65.9375V14.9922C66.0104 14.8776 66.0911 14.7734 66.1797 14.6797C66.2682 14.5859 66.3672 14.5052 66.4766 14.4375C66.612 14.3438 66.7656 14.2734 66.9375 14.2266C67.1146 14.1797 67.3073 14.1563 67.5156 14.1563C67.7656 14.1563 67.9896 14.1823 68.1875 14.2344C68.3854 14.2813 68.5547 14.3672 68.6953 14.4922C68.8359 14.6172 68.9427 14.7891 69.0156 15.0078C69.0938 15.2214 69.1328 15.4948 69.1328 15.8281V21H71.3047V15.7969C71.3047 15.1823 71.2318 14.6615 71.0859 14.2344C70.9453 13.8021 70.7474 13.4479 70.4922 13.1719C70.2318 12.901 69.9245 12.7031 69.5703 12.5781C69.2161 12.4531 68.8255 12.3906 68.3984 12.3906C68.0651 12.3906 67.75 12.4375 67.4531 12.5313C67.1562 12.625 66.8828 12.7604 66.6328 12.9375C66.487 13.0417 66.349 13.1589 66.2188 13.2891C66.0885 13.4193 65.9688 13.5625 65.8594 13.7188L65.7266 12.5469H63.7578V21ZM77.4688 21.1563C78.2865 21.1563 78.9948 20.9974 79.5938 20.6797C80.1927 20.362 80.6302 20.0078 80.9062 19.6172L79.8203 18.4453C79.5703 18.7682 79.2448 19.0104 78.8438 19.1719C78.4427 19.3333 78.0286 19.4141 77.6016 19.4141C77.2995 19.4141 77.0208 19.3672 76.7656 19.2734C76.5104 19.1797 76.2839 19.0469 76.0859 18.875C75.8932 18.7083 75.7396 18.5234 75.625 18.3203C75.5104 18.112 75.4167 17.8385 75.3438 17.5V17.4766H81.0781V16.5547C81.0781 15.9349 80.9922 15.3698 80.8203 14.8594C80.6484 14.3438 80.3984 13.9036 80.0703 13.5391C79.737 13.1745 79.3307 12.8932 78.8516 12.6953C78.3776 12.4922 77.8359 12.3906 77.2266 12.3906C76.638 12.3906 76.0938 12.4974 75.5938 12.7109C75.0938 12.9245 74.6615 13.224 74.2969 13.6094C73.9323 13.9948 73.6484 14.4557 73.4453 14.9922C73.2422 15.5234 73.1406 16.112 73.1406 16.7578V17.0703C73.1406 17.638 73.2422 18.1719 73.4453 18.6719C73.6536 19.1667 73.9479 19.5964 74.3281 19.9609C74.7083 20.3307 75.1641 20.6224 75.6953 20.8359C76.2266 21.0495 76.8177 21.1563 77.4688 21.1563ZM77.2109 14.1484C77.487 14.1484 77.7292 14.1927 77.9375 14.2813C78.151 14.3646 78.3307 14.4792 78.4766 14.625C78.6224 14.776 78.737 14.9531 78.8203 15.1563C78.9036 15.3594 78.9453 15.5755 78.9453 15.8047V15.9766H75.3828C75.4349 15.7005 75.513 15.4505 75.6172 15.2266C75.7214 15.0026 75.8516 14.8099 76.0078 14.6484C76.1589 14.487 76.3359 14.3646 76.5391 14.2813C76.7422 14.1927 76.9661 14.1484 77.2109 14.1484ZM89.0469 12.3906C88.4792 12.3906 87.9557 12.5286 87.4766 12.8047C86.9974 13.0755 86.5859 13.4505 86.2422 13.9297L86.2266 13.7422L86.1406 12.5469L84.1172 12.5469V21H86.2891V15.9219C86.388 15.6823 86.513 15.474 86.6641 15.2969C86.8151 15.1198 86.9974 14.974 87.2109 14.8594C87.388 14.7604 87.5885 14.6875 87.8125 14.6406C88.0417 14.5885 88.2969 14.5625 88.5781 14.5625C88.849 14.5625 89.1328 14.5807 89.4297 14.6172C89.7318 14.6484 90.026 14.6979 90.3125 14.7656L90.6328 12.6016C90.4609 12.5495 90.2344 12.5026 89.9531 12.4609C89.6771 12.4141 89.375 12.3906 89.0469 12.3906ZM101.977 16.7109V16.875C101.977 17.4896 102.055 18.0599 102.211 18.5859C102.372 19.1068 102.602 19.5573 102.898 19.9375C103.195 20.3177 103.552 20.6172 103.969 20.8359C104.391 21.0495 104.865 21.1563 105.391 21.1563C105.656 21.1563 105.904 21.1276 106.133 21.0703C106.367 21.013 106.581 20.9323 106.773 20.8281C106.904 20.7552 107.026 20.6719 107.141 20.5781C107.255 20.4844 107.365 20.3802 107.469 20.2656V20.75C107.469 21.0365 107.427 21.2943 107.344 21.5234C107.266 21.7526 107.151 21.9453 107 22.1016C106.833 22.2734 106.625 22.4036 106.375 22.4922C106.13 22.5807 105.849 22.625 105.531 22.625C105.333 22.625 105.141 22.6042 104.953 22.5625C104.771 22.526 104.594 22.4688 104.422 22.3906C104.245 22.3125 104.076 22.2109 103.914 22.0859C103.753 21.9661 103.602 21.8255 103.461 21.6641L102.484 22.9844C102.667 23.2188 102.885 23.4193 103.141 23.5859C103.396 23.7578 103.667 23.8984 103.953 24.0078C104.24 24.1172 104.529 24.1979 104.82 24.25C105.112 24.3021 105.385 24.3281 105.641 24.3281C106.234 24.3281 106.776 24.2474 107.266 24.0859C107.76 23.9297 108.185 23.6979 108.539 23.3906C108.888 23.0833 109.159 22.7057 109.352 22.2578C109.549 21.8099 109.648 21.2995 109.648 20.7266V12.5469H107.672L107.586 13.3516C107.482 13.2214 107.367 13.1042 107.242 13C107.117 12.8906 106.982 12.7969 106.836 12.7188C106.643 12.6094 106.427 12.5286 106.188 12.4766C105.953 12.4193 105.693 12.3906 105.406 12.3906C104.875 12.3906 104.398 12.4948 103.977 12.7031C103.555 12.9115 103.195 13.2057 102.898 13.5859C102.602 13.9661 102.372 14.4219 102.211 14.9531C102.055 15.4844 101.977 16.0703 101.977 16.7109ZM104.156 16.875V16.7109C104.156 16.3568 104.193 16.026 104.266 15.7188C104.339 15.4063 104.451 15.1328 104.602 14.8984C104.747 14.6693 104.932 14.4896 105.156 14.3594C105.38 14.224 105.646 14.1563 105.953 14.1563C106.12 14.1563 106.273 14.1719 106.414 14.2031C106.56 14.2344 106.693 14.2786 106.812 14.3359C106.953 14.4036 107.078 14.4922 107.188 14.6016C107.297 14.7109 107.391 14.8385 107.469 14.9844V18.5625C107.396 18.6927 107.31 18.8099 107.211 18.9141C107.112 19.0182 106.997 19.1068 106.867 19.1797C106.742 19.2474 106.602 19.2995 106.445 19.3359C106.294 19.3724 106.125 19.3906 105.938 19.3906C105.63 19.3906 105.365 19.3255 105.141 19.1953C104.917 19.0651 104.732 18.8854 104.586 18.6563C104.44 18.4323 104.331 18.1693 104.258 17.8672C104.19 17.5599 104.156 17.2292 104.156 16.875ZM117.875 12.3906C117.307 12.3906 116.784 12.5286 116.305 12.8047C115.826 13.0755 115.414 13.4505 115.07 13.9297L115.055 13.7422L114.969 12.5469H112.945V21H115.117V15.9219C115.216 15.6823 115.341 15.474 115.492 15.2969C115.643 15.1198 115.826 14.974 116.039 14.8594C116.216 14.7604 116.417 14.6875 116.641 14.6406C116.87 14.5885 117.125 14.5625 117.406 14.5625C117.677 14.5625 117.961 14.5807 118.258 14.6172C118.56 14.6484 118.854 14.6979 119.141 14.7656L119.461 12.6016C119.289 12.5495 119.062 12.5026 118.781 12.4609C118.505 12.4141 118.203 12.3906 117.875 12.3906ZM121.992 12.5469V14.3203H124.398V19.2344H121.992V21H128.883V19.2344H126.594V12.5469H121.992ZM124.242 10.3828C124.242 10.5495 124.271 10.7057 124.328 10.8516C124.391 10.9922 124.477 11.112 124.586 11.2109C124.695 11.3151 124.826 11.3958 124.977 11.4531C125.133 11.5104 125.305 11.5391 125.492 11.5391C125.878 11.5391 126.182 11.4323 126.406 11.2188C126.635 11 126.75 10.7214 126.75 10.3828C126.75 10.0443 126.635 9.76823 126.406 9.55469C126.182 9.33594 125.878 9.22656 125.492 9.22656C125.305 9.22656 125.133 9.25521 124.977 9.3125C124.826 9.36979 124.695 9.44792 124.586 9.54688C124.477 9.65104 124.391 9.77604 124.328 9.92188C124.271 10.0625 124.242 10.2161 124.242 10.3828ZM130.797 16.7109V16.875C130.797 17.4896 130.872 18.0599 131.023 18.5859C131.174 19.1068 131.393 19.5573 131.68 19.9375C131.961 20.3177 132.305 20.6172 132.711 20.8359C133.122 21.0495 133.586 21.1563 134.102 21.1563C134.576 21.1563 134.992 21.0651 135.352 20.8828C135.711 20.7005 136.023 20.4453 136.289 20.1172L136.398 21H138.359V9H136.18V13.3047C135.919 13.013 135.62 12.7891 135.281 12.6328C134.948 12.4714 134.56 12.3906 134.117 12.3906C133.591 12.3906 133.122 12.4948 132.711 12.7031C132.305 12.9115 131.958 13.2057 131.672 13.5859C131.385 13.9661 131.167 14.4219 131.016 14.9531C130.87 15.4844 130.797 16.0703 130.797 16.7109ZM132.969 16.875V16.7109C132.969 16.3568 133 16.026 133.062 15.7188C133.125 15.4063 133.224 15.1328 133.359 14.8984C133.495 14.6693 133.669 14.4896 133.883 14.3594C134.102 14.224 134.365 14.1563 134.672 14.1563C135.042 14.1563 135.349 14.237 135.594 14.3984C135.839 14.5547 136.034 14.776 136.18 15.0625V18.4844C136.034 18.7656 135.836 18.987 135.586 19.1484C135.341 19.3099 135.031 19.3906 134.656 19.3906C134.349 19.3906 134.089 19.3255 133.875 19.1953C133.661 19.0651 133.487 18.8854 133.352 18.6563C133.216 18.4323 133.117 18.1693 133.055 17.8672C132.997 17.5599 132.969 17.2292 132.969 16.875Z" fill="#12171A"/>
<path d="M13.9219 199.438H11.7266C11.7057 199.781 11.6484 200.076 11.5547 200.32C11.4609 200.565 11.3333 200.766 11.1719 200.922C11.0104 201.078 10.8151 201.193 10.5859 201.266C10.3568 201.339 10.099 201.375 9.8125 201.375C9.59896 201.375 9.40365 201.352 9.22656 201.305C9.05469 201.253 8.89844 201.174 8.75781 201.07C8.6276 200.977 8.51042 200.859 8.40625 200.719C8.30729 200.578 8.22135 200.417 8.14844 200.234C8.04427 199.969 7.96615 199.659 7.91406 199.305C7.86719 198.945 7.84375 198.539 7.84375 198.086L7.84375 196.539C7.84375 196.206 7.85938 195.896 7.89062 195.609C7.92188 195.318 7.97135 195.052 8.03906 194.812C8.1276 194.505 8.24479 194.237 8.39062 194.008C8.54167 193.773 8.72396 193.594 8.9375 193.469C9.0625 193.396 9.19792 193.341 9.34375 193.305C9.49479 193.268 9.65625 193.25 9.82812 193.25C10.151 193.25 10.4271 193.294 10.6562 193.383C10.8906 193.466 11.0859 193.591 11.2422 193.758C11.3932 193.93 11.5078 194.143 11.5859 194.398C11.6693 194.654 11.7214 194.951 11.7422 195.289H13.9297C13.8776 194.695 13.7526 194.161 13.5547 193.688C13.3568 193.214 13.0859 192.812 12.7422 192.484C12.3984 192.156 11.9818 191.904 11.4922 191.727C11.0078 191.549 10.4531 191.461 9.82812 191.461C9.40625 191.461 9.01042 191.516 8.64062 191.625C8.27604 191.729 7.9401 191.88 7.63281 192.078C7.28906 192.312 6.98177 192.599 6.71094 192.938C6.4401 193.276 6.22135 193.661 6.05469 194.094C5.90885 194.448 5.79948 194.833 5.72656 195.25C5.65365 195.661 5.61719 196.096 5.61719 196.555V198.086C5.61719 198.576 5.65625 199.039 5.73437 199.477C5.81771 199.914 5.9349 200.315 6.08594 200.68C6.24219 201.044 6.43229 201.378 6.65625 201.68C6.88542 201.982 7.14583 202.24 7.4375 202.453C7.75521 202.682 8.11198 202.859 8.50781 202.984C8.90885 203.104 9.34375 203.164 9.8125 203.164C10.4062 203.164 10.9479 203.078 11.4375 202.906C11.9271 202.729 12.349 202.479 12.7031 202.156C13.0573 201.833 13.3385 201.443 13.5469 200.984C13.7604 200.526 13.8854 200.01 13.9219 199.438ZM19.8125 203.156C20.6302 203.156 21.3385 202.997 21.9375 202.68C22.5365 202.362 22.974 202.008 23.25 201.617L22.1641 200.445C21.9141 200.768 21.5885 201.01 21.1875 201.172C20.7865 201.333 20.3724 201.414 19.9453 201.414C19.6432 201.414 19.3646 201.367 19.1094 201.273C18.8542 201.18 18.6276 201.047 18.4297 200.875C18.237 200.708 18.0833 200.523 17.9688 200.32C17.8542 200.112 17.7604 199.839 17.6875 199.5V199.477H23.4219V198.555C23.4219 197.935 23.3359 197.37 23.1641 196.859C22.9922 196.344 22.7422 195.904 22.4141 195.539C22.0807 195.174 21.6745 194.893 21.1953 194.695C20.7214 194.492 20.1797 194.391 19.5703 194.391C18.9818 194.391 18.4375 194.497 17.9375 194.711C17.4375 194.924 17.0052 195.224 16.6406 195.609C16.276 195.995 15.9922 196.456 15.7891 196.992C15.5859 197.523 15.4844 198.112 15.4844 198.758V199.07C15.4844 199.638 15.5859 200.172 15.7891 200.672C15.9974 201.167 16.2917 201.596 16.6719 201.961C17.0521 202.331 17.5078 202.622 18.0391 202.836C18.5703 203.049 19.1615 203.156 19.8125 203.156ZM19.5547 196.148C19.8307 196.148 20.0729 196.193 20.2812 196.281C20.4948 196.365 20.6745 196.479 20.8203 196.625C20.9661 196.776 21.0807 196.953 21.1641 197.156C21.2474 197.359 21.2891 197.576 21.2891 197.805V197.977H17.7266C17.7786 197.701 17.8568 197.451 17.9609 197.227C18.0651 197.003 18.1953 196.81 18.3516 196.648C18.5026 196.487 18.6797 196.365 18.8828 196.281C19.0859 196.193 19.3099 196.148 19.5547 196.148ZM19.8516 191.266L18.3906 193.445H20.0781L22.2422 191.266H19.8516ZM25.7734 191V192.773H28.3047V201.234H25.7734V203H32.9219V201.234H30.5V191H25.7734ZM40.4453 203H42.4141V194.547H40.2344V200.477C40.1667 200.612 40.0859 200.734 39.9922 200.844C39.8984 200.953 39.7917 201.047 39.6719 201.125C39.5312 201.214 39.3672 201.281 39.1797 201.328C38.9974 201.375 38.7917 201.398 38.5625 201.398C38.3073 201.398 38.0911 201.367 37.9141 201.305C37.737 201.242 37.5938 201.138 37.4844 200.992C37.375 200.852 37.2943 200.664 37.2422 200.43C37.1953 200.195 37.1719 199.906 37.1719 199.562V194.547H35V199.547C35 200.188 35.0703 200.737 35.2109 201.195C35.3568 201.648 35.5599 202.021 35.8203 202.312C36.0807 202.609 36.3932 202.826 36.7578 202.961C37.1224 203.096 37.5234 203.164 37.9609 203.164C38.4401 203.164 38.8802 203.044 39.2812 202.805C39.6875 202.565 40.0339 202.234 40.3203 201.812L40.4453 203ZM44.9922 191V192.773H47.5234V201.234H44.9922V203H52.1406V201.234H49.7188V191H44.9922ZM59.4297 203H61.6328V202.867C61.5234 202.654 61.4401 202.398 61.3828 202.102C61.3255 201.805 61.2969 201.43 61.2969 200.977V197.352C61.2969 196.862 61.2057 196.432 61.0234 196.062C60.8411 195.688 60.5885 195.378 60.2656 195.133C59.9427 194.888 59.5599 194.703 59.1172 194.578C58.6797 194.453 58.2057 194.391 57.6953 194.391C57.1276 194.391 56.6224 194.464 56.1797 194.609C55.7422 194.75 55.3724 194.943 55.0703 195.188C54.763 195.432 54.5286 195.716 54.3672 196.039C54.2109 196.362 54.1328 196.703 54.1328 197.062H56.3047C56.3047 196.911 56.3255 196.773 56.3672 196.648C56.4141 196.523 56.4844 196.417 56.5781 196.328C56.6823 196.229 56.8177 196.154 56.9844 196.102C57.151 196.044 57.349 196.016 57.5781 196.016C57.8385 196.016 58.0651 196.049 58.2578 196.117C58.4557 196.18 58.6198 196.271 58.75 196.391C58.875 196.505 58.9688 196.643 59.0312 196.805C59.0938 196.961 59.125 197.138 59.125 197.336V197.836H57.9141C57.2891 197.836 56.7344 197.893 56.25 198.008C55.7708 198.117 55.3672 198.279 55.0391 198.492C54.6745 198.727 54.401 199.026 54.2188 199.391C54.0365 199.75 53.9453 200.164 53.9453 200.633C53.9453 200.997 54.0182 201.336 54.1641 201.648C54.3099 201.956 54.513 202.221 54.7734 202.445C55.0339 202.669 55.3438 202.844 55.7031 202.969C56.0677 203.094 56.4661 203.156 56.8984 203.156C57.1641 203.156 57.4115 203.13 57.6406 203.078C57.8698 203.031 58.0807 202.964 58.2734 202.875C58.4609 202.792 58.6328 202.693 58.7891 202.578C58.9453 202.464 59.0833 202.341 59.2031 202.211C59.2292 202.362 59.2604 202.505 59.2969 202.641C59.3333 202.776 59.3776 202.896 59.4297 203ZM57.3594 201.477C57.1562 201.477 56.9766 201.453 56.8203 201.406C56.6693 201.354 56.5417 201.286 56.4375 201.203C56.3333 201.115 56.2526 201.008 56.1953 200.883C56.1432 200.753 56.1172 200.612 56.1172 200.461C56.1172 200.268 56.1536 200.091 56.2266 199.93C56.2995 199.763 56.4115 199.62 56.5625 199.5C56.7135 199.385 56.9089 199.297 57.1484 199.234C57.388 199.167 57.6771 199.133 58.0156 199.133H59.125V200.586C59.0625 200.695 58.9766 200.805 58.8672 200.914C58.7578 201.018 58.6276 201.112 58.4766 201.195C58.3255 201.279 58.1562 201.346 57.9688 201.398C57.7812 201.451 57.5781 201.477 57.3594 201.477ZM73.1406 198.711V198.875C73.1406 199.49 73.2161 200.06 73.3672 200.586C73.5182 201.107 73.737 201.557 74.0234 201.938C74.3047 202.318 74.6484 202.617 75.0547 202.836C75.4661 203.049 75.9297 203.156 76.4453 203.156C76.9193 203.156 77.3359 203.065 77.6953 202.883C78.0547 202.701 78.3672 202.445 78.6328 202.117L78.7422 203H80.7031V191H78.5234V195.305C78.263 195.013 77.9635 194.789 77.625 194.633C77.2917 194.471 76.9036 194.391 76.4609 194.391C75.9349 194.391 75.4661 194.495 75.0547 194.703C74.6484 194.911 74.3021 195.206 74.0156 195.586C73.7292 195.966 73.5104 196.422 73.3594 196.953C73.2135 197.484 73.1406 198.07 73.1406 198.711ZM75.3125 198.875V198.711C75.3125 198.357 75.3438 198.026 75.4062 197.719C75.4688 197.406 75.5677 197.133 75.7031 196.898C75.8385 196.669 76.013 196.49 76.2266 196.359C76.4453 196.224 76.7083 196.156 77.0156 196.156C77.3854 196.156 77.6927 196.237 77.9375 196.398C78.1823 196.555 78.3776 196.776 78.5234 197.062V200.484C78.3776 200.766 78.1797 200.987 77.9297 201.148C77.6849 201.31 77.375 201.391 77 201.391C76.6927 201.391 76.4323 201.326 76.2188 201.195C76.0052 201.065 75.8307 200.885 75.6953 200.656C75.5599 200.432 75.4609 200.169 75.3984 199.867C75.3411 199.56 75.3125 199.229 75.3125 198.875ZM82.6797 198.695V198.859C82.6797 199.479 82.7682 200.052 82.9453 200.578C83.1224 201.099 83.3828 201.552 83.7266 201.938C84.0651 202.323 84.4818 202.625 84.9766 202.844C85.4766 203.057 86.0443 203.164 86.6797 203.164C87.3099 203.164 87.8724 203.057 88.3672 202.844C88.862 202.625 89.2786 202.323 89.6172 201.938C89.9557 201.552 90.2135 201.099 90.3906 200.578C90.5677 200.052 90.6562 199.479 90.6562 198.859V198.695C90.6562 198.081 90.5677 197.513 90.3906 196.992C90.2135 196.466 89.9557 196.01 89.6172 195.625C89.2734 195.24 88.8542 194.938 88.3594 194.719C87.8646 194.5 87.2995 194.391 86.6641 194.391C86.0286 194.391 85.4635 194.5 84.9688 194.719C84.4792 194.938 84.0651 195.24 83.7266 195.625C83.3828 196.01 83.1224 196.466 82.9453 196.992C82.7682 197.513 82.6797 198.081 82.6797 198.695ZM84.8516 198.859V198.695C84.8516 198.352 84.8854 198.026 84.9531 197.719C85.0208 197.411 85.1276 197.141 85.2734 196.906C85.4193 196.672 85.6068 196.487 85.8359 196.352C86.0651 196.216 86.3411 196.148 86.6641 196.148C86.9922 196.148 87.2708 196.216 87.5 196.352C87.7292 196.487 87.9167 196.672 88.0625 196.906C88.2031 197.141 88.3073 197.411 88.375 197.719C88.4427 198.026 88.4766 198.352 88.4766 198.695V198.859C88.4766 199.214 88.4427 199.547 88.375 199.859C88.3073 200.167 88.2031 200.435 88.0625 200.664C87.9167 200.898 87.7292 201.083 87.5 201.219C87.2708 201.354 86.9974 201.422 86.6797 201.422C86.3516 201.422 86.0703 201.354 85.8359 201.219C85.6068 201.083 85.4193 200.898 85.2734 200.664C85.1276 200.435 85.0208 200.167 84.9531 199.859C84.8854 199.547 84.8516 199.214 84.8516 198.859ZM101.977 198.711V198.875C101.977 199.49 102.055 200.06 102.211 200.586C102.372 201.107 102.602 201.557 102.898 201.938C103.195 202.318 103.552 202.617 103.969 202.836C104.391 203.049 104.865 203.156 105.391 203.156C105.656 203.156 105.904 203.128 106.133 203.07C106.367 203.013 106.581 202.932 106.773 202.828C106.904 202.755 107.026 202.672 107.141 202.578C107.255 202.484 107.365 202.38 107.469 202.266V202.75C107.469 203.036 107.427 203.294 107.344 203.523C107.266 203.753 107.151 203.945 107 204.102C106.833 204.273 106.625 204.404 106.375 204.492C106.13 204.581 105.849 204.625 105.531 204.625C105.333 204.625 105.141 204.604 104.953 204.562C104.771 204.526 104.594 204.469 104.422 204.391C104.245 204.312 104.076 204.211 103.914 204.086C103.753 203.966 103.602 203.826 103.461 203.664L102.484 204.984C102.667 205.219 102.885 205.419 103.141 205.586C103.396 205.758 103.667 205.898 103.953 206.008C104.24 206.117 104.529 206.198 104.82 206.25C105.112 206.302 105.385 206.328 105.641 206.328C106.234 206.328 106.776 206.247 107.266 206.086C107.76 205.93 108.185 205.698 108.539 205.391C108.888 205.083 109.159 204.706 109.352 204.258C109.549 203.81 109.648 203.299 109.648 202.727V194.547H107.672L107.586 195.352C107.482 195.221 107.367 195.104 107.242 195C107.117 194.891 106.982 194.797 106.836 194.719C106.643 194.609 106.427 194.529 106.188 194.477C105.953 194.419 105.693 194.391 105.406 194.391C104.875 194.391 104.398 194.495 103.977 194.703C103.555 194.911 103.195 195.206 102.898 195.586C102.602 195.966 102.372 196.422 102.211 196.953C102.055 197.484 101.977 198.07 101.977 198.711ZM104.156 198.875V198.711C104.156 198.357 104.193 198.026 104.266 197.719C104.339 197.406 104.451 197.133 104.602 196.898C104.747 196.669 104.932 196.49 105.156 196.359C105.38 196.224 105.646 196.156 105.953 196.156C106.12 196.156 106.273 196.172 106.414 196.203C106.56 196.234 106.693 196.279 106.812 196.336C106.953 196.404 107.078 196.492 107.188 196.602C107.297 196.711 107.391 196.839 107.469 196.984V200.562C107.396 200.693 107.31 200.81 107.211 200.914C107.112 201.018 106.997 201.107 106.867 201.18C106.742 201.247 106.602 201.299 106.445 201.336C106.294 201.372 106.125 201.391 105.938 201.391C105.63 201.391 105.365 201.326 105.141 201.195C104.917 201.065 104.732 200.885 104.586 200.656C104.44 200.432 104.331 200.169 104.258 199.867C104.19 199.56 104.156 199.229 104.156 198.875ZM117.875 194.391C117.307 194.391 116.784 194.529 116.305 194.805C115.826 195.076 115.414 195.451 115.07 195.93L115.055 195.742L114.969 194.547H112.945V203H115.117V197.922C115.216 197.682 115.341 197.474 115.492 197.297C115.643 197.12 115.826 196.974 116.039 196.859C116.216 196.76 116.417 196.688 116.641 196.641C116.87 196.589 117.125 196.562 117.406 196.562C117.677 196.562 117.961 196.581 118.258 196.617C118.56 196.648 118.854 196.698 119.141 196.766L119.461 194.602C119.289 194.549 119.062 194.503 118.781 194.461C118.505 194.414 118.203 194.391 117.875 194.391ZM121.992 194.547V196.32H124.398V201.234H121.992V203H128.883V201.234H126.594V194.547H121.992ZM124.242 192.383C124.242 192.549 124.271 192.706 124.328 192.852C124.391 192.992 124.477 193.112 124.586 193.211C124.695 193.315 124.826 193.396 124.977 193.453C125.133 193.51 125.305 193.539 125.492 193.539C125.878 193.539 126.182 193.432 126.406 193.219C126.635 193 126.75 192.721 126.75 192.383C126.75 192.044 126.635 191.768 126.406 191.555C126.182 191.336 125.878 191.227 125.492 191.227C125.305 191.227 125.133 191.255 124.977 191.312C124.826 191.37 124.695 191.448 124.586 191.547C124.477 191.651 124.391 191.776 124.328 191.922C124.271 192.062 124.242 192.216 124.242 192.383ZM130.797 198.711V198.875C130.797 199.49 130.872 200.06 131.023 200.586C131.174 201.107 131.393 201.557 131.68 201.938C131.961 202.318 132.305 202.617 132.711 202.836C133.122 203.049 133.586 203.156 134.102 203.156C134.576 203.156 134.992 203.065 135.352 202.883C135.711 202.701 136.023 202.445 136.289 202.117L136.398 203H138.359V191H136.18V195.305C135.919 195.013 135.62 194.789 135.281 194.633C134.948 194.471 134.56 194.391 134.117 194.391C133.591 194.391 133.122 194.495 132.711 194.703C132.305 194.911 131.958 195.206 131.672 195.586C131.385 195.966 131.167 196.422 131.016 196.953C130.87 197.484 130.797 198.07 130.797 198.711ZM132.969 198.875V198.711C132.969 198.357 133 198.026 133.062 197.719C133.125 197.406 133.224 197.133 133.359 196.898C133.495 196.669 133.669 196.49 133.883 196.359C134.102 196.224 134.365 196.156 134.672 196.156C135.042 196.156 135.349 196.237 135.594 196.398C135.839 196.555 136.034 196.776 136.18 197.062V200.484C136.034 200.766 135.836 200.987 135.586 201.148C135.341 201.31 135.031 201.391 134.656 201.391C134.349 201.391 134.089 201.326 133.875 201.195C133.661 201.065 133.487 200.885 133.352 200.656C133.216 200.432 133.117 200.169 133.055 199.867C132.997 199.56 132.969 199.229 132.969 198.875Z" fill="#12171A"/>
<path d="M209.508 9.625V11.3984H211.672V19.2344H209.508V21H216.086V19.2344H213.867V11.3984H216.086V9.625H209.508ZM222.695 10.4766H220.523V12.5469H218.594V14.1484H220.523V17.9922C220.523 18.5495 220.596 19.0286 220.742 19.4297C220.888 19.8255 221.096 20.151 221.367 20.4062C221.633 20.6667 221.953 20.8594 222.328 20.9844C222.708 21.1042 223.13 21.1641 223.594 21.1641C223.833 21.1641 224.076 21.151 224.32 21.125C224.57 21.1042 224.81 21.0729 225.039 21.0312C225.268 20.9896 225.484 20.9375 225.688 20.875C225.891 20.8073 226.068 20.7292 226.219 20.6406L226.008 19.1484C225.909 19.1745 225.789 19.2005 225.648 19.2266C225.513 19.2526 225.367 19.276 225.211 19.2969C225.049 19.3229 224.88 19.3438 224.703 19.3594C224.531 19.375 224.362 19.3828 224.195 19.3828C223.966 19.3828 223.758 19.3568 223.57 19.3047C223.388 19.2526 223.232 19.1641 223.102 19.0391C222.971 18.9193 222.87 18.7578 222.797 18.5547C222.729 18.3464 222.695 18.0885 222.695 17.7812V14.1484L225.852 14.1484V12.5469L222.695 12.5469V10.4766ZM232.422 21.1562C233.24 21.1562 233.948 20.9974 234.547 20.6797C235.146 20.362 235.583 20.0078 235.859 19.6172L234.773 18.4453C234.523 18.7682 234.198 19.0104 233.797 19.1719C233.396 19.3333 232.982 19.4141 232.555 19.4141C232.253 19.4141 231.974 19.3672 231.719 19.2734C231.464 19.1797 231.237 19.0469 231.039 18.875C230.846 18.7083 230.693 18.5234 230.578 18.3203C230.464 18.112 230.37 17.8385 230.297 17.5V17.4766H236.031V16.5547C236.031 15.9349 235.945 15.3698 235.773 14.8594C235.602 14.3438 235.352 13.9036 235.023 13.5391C234.69 13.1745 234.284 12.8932 233.805 12.6953C233.331 12.4922 232.789 12.3906 232.18 12.3906C231.591 12.3906 231.047 12.4974 230.547 12.7109C230.047 12.9245 229.615 13.224 229.25 13.6094C228.885 13.9948 228.602 14.4557 228.398 14.9922C228.195 15.5234 228.094 16.112 228.094 16.7578V17.0703C228.094 17.638 228.195 18.1719 228.398 18.6719C228.607 19.1667 228.901 19.5964 229.281 19.9609C229.661 20.3307 230.117 20.6224 230.648 20.8359C231.18 21.0495 231.771 21.1562 232.422 21.1562ZM232.164 14.1484C232.44 14.1484 232.682 14.1927 232.891 14.2813C233.104 14.3646 233.284 14.4792 233.43 14.625C233.576 14.776 233.69 14.9531 233.773 15.1563C233.857 15.3594 233.898 15.5755 233.898 15.8047V15.9766H230.336C230.388 15.7005 230.466 15.4505 230.57 15.2266C230.674 15.0026 230.805 14.8099 230.961 14.6484C231.112 14.487 231.289 14.3646 231.492 14.2813C231.695 14.1927 231.919 14.1484 232.164 14.1484ZM239.281 12.5469H237.414V21H239.391V14.6719C239.417 14.6042 239.445 14.5417 239.477 14.4844C239.508 14.4271 239.544 14.3776 239.586 14.3359C239.643 14.2786 239.708 14.2344 239.781 14.2031C239.854 14.1719 239.938 14.1563 240.031 14.1563C240.115 14.1563 240.193 14.1693 240.266 14.1953C240.339 14.2161 240.404 14.2552 240.461 14.3125C240.513 14.3698 240.555 14.4505 240.586 14.5547C240.617 14.6589 240.633 14.7917 240.633 14.9531V21H242.547V14.7656C242.547 14.7031 242.547 14.6536 242.547 14.6172C242.547 14.5807 242.547 14.5573 242.547 14.5469C242.573 14.4896 242.604 14.4401 242.641 14.3984C242.677 14.3516 242.719 14.3099 242.766 14.2734C242.823 14.237 242.883 14.2083 242.945 14.1875C243.013 14.1667 243.089 14.1563 243.172 14.1563C243.25 14.1563 243.326 14.1693 243.398 14.1953C243.477 14.2161 243.544 14.2552 243.602 14.3125C243.659 14.375 243.703 14.4583 243.734 14.5625C243.771 14.6667 243.789 14.7995 243.789 14.9609V21H245.766V14.9688C245.766 14.5 245.719 14.1042 245.625 13.7813C245.536 13.4531 245.411 13.1849 245.25 12.9766C245.083 12.7734 244.888 12.625 244.664 12.5313C244.445 12.4375 244.208 12.3906 243.953 12.3906C243.75 12.3906 243.562 12.4167 243.391 12.4688C243.219 12.5208 243.065 12.5938 242.93 12.6875C242.82 12.7604 242.719 12.849 242.625 12.9531C242.536 13.0521 242.456 13.1641 242.383 13.2891C242.336 13.1589 242.279 13.0443 242.211 12.9453C242.148 12.8411 242.073 12.7526 241.984 12.6797C241.87 12.5807 241.734 12.5078 241.578 12.4609C241.422 12.4141 241.245 12.3906 241.047 12.3906C240.641 12.3906 240.294 12.4974 240.008 12.7109C239.727 12.9193 239.505 13.2057 239.344 13.5703L239.281 12.5469ZM256.93 16.7109V16.875C256.93 17.4896 257.008 18.0599 257.164 18.5859C257.326 19.1068 257.555 19.5573 257.852 19.9375C258.148 20.3177 258.505 20.6172 258.922 20.8359C259.344 21.0495 259.818 21.1563 260.344 21.1563C260.609 21.1563 260.857 21.1276 261.086 21.0703C261.32 21.013 261.534 20.9323 261.727 20.8281C261.857 20.7552 261.979 20.6719 262.094 20.5781C262.208 20.4844 262.318 20.3802 262.422 20.2656V20.75C262.422 21.0365 262.38 21.2943 262.297 21.5234C262.219 21.7526 262.104 21.9453 261.953 22.1016C261.786 22.2734 261.578 22.4036 261.328 22.4922C261.083 22.5807 260.802 22.625 260.484 22.625C260.286 22.625 260.094 22.6042 259.906 22.5625C259.724 22.526 259.547 22.4688 259.375 22.3906C259.198 22.3125 259.029 22.2109 258.867 22.0859C258.706 21.9661 258.555 21.8255 258.414 21.6641L257.438 22.9844C257.62 23.2188 257.839 23.4193 258.094 23.5859C258.349 23.7578 258.62 23.8984 258.906 24.0078C259.193 24.1172 259.482 24.1979 259.773 24.25C260.065 24.3021 260.339 24.3281 260.594 24.3281C261.188 24.3281 261.729 24.2474 262.219 24.0859C262.714 23.9297 263.138 23.6979 263.492 23.3906C263.841 23.0833 264.112 22.7057 264.305 22.2578C264.503 21.8099 264.602 21.2995 264.602 20.7266V12.5469H262.625L262.539 13.3516C262.435 13.2214 262.32 13.1042 262.195 13C262.07 12.8906 261.935 12.7969 261.789 12.7188C261.596 12.6094 261.38 12.5286 261.141 12.4766C260.906 12.4193 260.646 12.3906 260.359 12.3906C259.828 12.3906 259.352 12.4948 258.93 12.7031C258.508 12.9115 258.148 13.2057 257.852 13.5859C257.555 13.9661 257.326 14.4219 257.164 14.9531C257.008 15.4844 256.93 16.0703 256.93 16.7109ZM259.109 16.875V16.7109C259.109 16.3568 259.146 16.026 259.219 15.7188C259.292 15.4063 259.404 15.1328 259.555 14.8984C259.701 14.6693 259.885 14.4896 260.109 14.3594C260.333 14.224 260.599 14.1563 260.906 14.1563C261.073 14.1563 261.227 14.1719 261.367 14.2031C261.513 14.2344 261.646 14.2786 261.766 14.3359C261.906 14.4036 262.031 14.4922 262.141 14.6016C262.25 14.7109 262.344 14.8385 262.422 14.9844V18.5625C262.349 18.6927 262.263 18.8099 262.164 18.9141C262.065 19.0182 261.951 19.1068 261.82 19.1797C261.695 19.2474 261.555 19.2995 261.398 19.3359C261.247 19.3724 261.078 19.3906 260.891 19.3906C260.583 19.3906 260.318 19.3255 260.094 19.1953C259.87 19.0651 259.685 18.8854 259.539 18.6563C259.393 18.4323 259.284 18.1693 259.211 17.8672C259.143 17.5599 259.109 17.2292 259.109 16.875ZM272.828 12.3906C272.26 12.3906 271.737 12.5286 271.258 12.8047C270.779 13.0755 270.367 13.4505 270.023 13.9297L270.008 13.7422L269.922 12.5469H267.898V21H270.07V15.9219C270.169 15.6823 270.294 15.474 270.445 15.2969C270.596 15.1198 270.779 14.974 270.992 14.8594C271.169 14.7604 271.37 14.6875 271.594 14.6406C271.823 14.5885 272.078 14.5625 272.359 14.5625C272.63 14.5625 272.914 14.5807 273.211 14.6172C273.513 14.6484 273.807 14.6979 274.094 14.7656L274.414 12.6016C274.242 12.5495 274.016 12.5026 273.734 12.4609C273.458 12.4141 273.156 12.3906 272.828 12.3906ZM276.945 12.5469V14.3203H279.352V19.2344H276.945V21H283.836V19.2344H281.547V12.5469H276.945ZM279.195 10.3828C279.195 10.5495 279.224 10.7057 279.281 10.8516C279.344 10.9922 279.43 11.112 279.539 11.2109C279.648 11.3151 279.779 11.3958 279.93 11.4531C280.086 11.5104 280.258 11.5391 280.445 11.5391C280.831 11.5391 281.135 11.4323 281.359 11.2188C281.589 11 281.703 10.7214 281.703 10.3828C281.703 10.0443 281.589 9.76823 281.359 9.55469C281.135 9.33594 280.831 9.22656 280.445 9.22656C280.258 9.22656 280.086 9.25521 279.93 9.3125C279.779 9.36979 279.648 9.44792 279.539 9.54688C279.43 9.65104 279.344 9.77604 279.281 9.92188C279.224 10.0625 279.195 10.2161 279.195 10.3828ZM285.75 16.7109V16.875C285.75 17.4896 285.826 18.0599 285.977 18.5859C286.128 19.1068 286.346 19.5573 286.633 19.9375C286.914 20.3177 287.258 20.6172 287.664 20.8359C288.076 21.0495 288.539 21.1563 289.055 21.1563C289.529 21.1563 289.945 21.0651 290.305 20.8828C290.664 20.7005 290.977 20.4453 291.242 20.1172L291.352 21H293.312V9H291.133V13.3047C290.872 13.013 290.573 12.7891 290.234 12.6328C289.901 12.4714 289.513 12.3906 289.07 12.3906C288.544 12.3906 288.076 12.4948 287.664 12.7031C287.258 12.9115 286.911 13.2057 286.625 13.5859C286.339 13.9661 286.12 14.4219 285.969 14.9531C285.823 15.4844 285.75 16.0703 285.75 16.7109ZM287.922 16.875V16.7109C287.922 16.3568 287.953 16.026 288.016 15.7188C288.078 15.4063 288.177 15.1328 288.312 14.8984C288.448 14.6693 288.622 14.4896 288.836 14.3594C289.055 14.224 289.318 14.1563 289.625 14.1563C289.995 14.1563 290.302 14.237 290.547 14.3984C290.792 14.5547 290.987 14.776 291.133 15.0625V18.4844C290.987 18.7656 290.789 18.987 290.539 19.1484C290.294 19.3099 289.984 19.3906 289.609 19.3906C289.302 19.3906 289.042 19.3255 288.828 19.1953C288.615 19.0651 288.44 18.8854 288.305 18.6563C288.169 18.4323 288.07 18.1693 288.008 17.8672C287.951 17.5599 287.922 17.2292 287.922 16.875Z" fill="#12171A"/>
<path d="M217.383 193.414V191.625H208.211V193.414H211.672V203H213.875V193.414H217.383ZM224.781 194.391C224.214 194.391 223.69 194.529 223.211 194.805C222.732 195.076 222.32 195.451 221.977 195.93L221.961 195.742L221.875 194.547H219.852V203H222.023V197.922C222.122 197.682 222.247 197.474 222.398 197.297C222.549 197.12 222.732 196.974 222.945 196.859C223.122 196.76 223.323 196.688 223.547 196.641C223.776 196.589 224.031 196.562 224.312 196.562C224.583 196.562 224.867 196.581 225.164 196.617C225.466 196.648 225.76 196.698 226.047 196.766L226.367 194.602C226.195 194.549 225.969 194.503 225.688 194.461C225.411 194.414 225.109 194.391 224.781 194.391ZM228.898 194.547V196.32H231.305V201.234H228.898V203H235.789V201.234H233.5V194.547H228.898ZM231.148 192.383C231.148 192.549 231.177 192.706 231.234 192.852C231.297 192.992 231.383 193.112 231.492 193.211C231.602 193.315 231.732 193.396 231.883 193.453C232.039 193.51 232.211 193.539 232.398 193.539C232.784 193.539 233.089 193.432 233.312 193.219C233.542 193 233.656 192.721 233.656 192.383C233.656 192.044 233.542 191.768 233.312 191.555C233.089 191.336 232.784 191.227 232.398 191.227C232.211 191.227 232.039 191.255 231.883 191.312C231.732 191.37 231.602 191.448 231.492 191.547C231.383 191.651 231.297 191.776 231.234 191.922C231.177 192.062 231.148 192.216 231.148 192.383ZM238.383 191V192.773H240.914V201.234H238.383V203H245.531V201.234H243.109V191H238.383ZM249.711 195.711V191H247.539V203H249.711V196.898C249.794 196.789 249.885 196.69 249.984 196.602C250.089 196.513 250.203 196.438 250.328 196.375C250.464 196.302 250.615 196.247 250.781 196.211C250.948 196.174 251.128 196.156 251.32 196.156C251.57 196.156 251.794 196.19 251.992 196.258C252.19 196.32 252.359 196.419 252.5 196.555C252.641 196.69 252.747 196.867 252.82 197.086C252.898 197.305 252.938 197.565 252.938 197.867V203H255.109V197.883C255.109 197.263 255.034 196.734 254.883 196.297C254.737 195.854 254.531 195.492 254.266 195.211C254 194.93 253.682 194.724 253.312 194.594C252.943 194.458 252.536 194.391 252.094 194.391C251.792 194.391 251.505 194.435 251.234 194.523C250.964 194.612 250.716 194.737 250.492 194.898C250.346 195.003 250.206 195.125 250.07 195.266C249.94 195.401 249.82 195.549 249.711 195.711ZM262.43 203H264.633V202.867C264.523 202.654 264.44 202.398 264.383 202.102C264.326 201.805 264.297 201.43 264.297 200.977V197.352C264.297 196.862 264.206 196.432 264.023 196.062C263.841 195.688 263.589 195.378 263.266 195.133C262.943 194.888 262.56 194.703 262.117 194.578C261.68 194.453 261.206 194.391 260.695 194.391C260.128 194.391 259.622 194.464 259.18 194.609C258.742 194.75 258.372 194.943 258.07 195.188C257.763 195.432 257.529 195.716 257.367 196.039C257.211 196.362 257.133 196.703 257.133 197.062H259.305C259.305 196.911 259.326 196.773 259.367 196.648C259.414 196.523 259.484 196.417 259.578 196.328C259.682 196.229 259.818 196.154 259.984 196.102C260.151 196.044 260.349 196.016 260.578 196.016C260.839 196.016 261.065 196.049 261.258 196.117C261.456 196.18 261.62 196.271 261.75 196.391C261.875 196.505 261.969 196.643 262.031 196.805C262.094 196.961 262.125 197.138 262.125 197.336V197.836H260.914C260.289 197.836 259.734 197.893 259.25 198.008C258.771 198.117 258.367 198.279 258.039 198.492C257.674 198.727 257.401 199.026 257.219 199.391C257.036 199.75 256.945 200.164 256.945 200.633C256.945 200.997 257.018 201.336 257.164 201.648C257.31 201.956 257.513 202.221 257.773 202.445C258.034 202.669 258.344 202.844 258.703 202.969C259.068 203.094 259.466 203.156 259.898 203.156C260.164 203.156 260.411 203.13 260.641 203.078C260.87 203.031 261.081 202.964 261.273 202.875C261.461 202.792 261.633 202.693 261.789 202.578C261.945 202.464 262.083 202.341 262.203 202.211C262.229 202.362 262.26 202.505 262.297 202.641C262.333 202.776 262.378 202.896 262.43 203ZM260.359 201.477C260.156 201.477 259.977 201.453 259.82 201.406C259.669 201.354 259.542 201.286 259.438 201.203C259.333 201.115 259.253 201.008 259.195 200.883C259.143 200.753 259.117 200.612 259.117 200.461C259.117 200.268 259.154 200.091 259.227 199.93C259.299 199.763 259.411 199.62 259.562 199.5C259.714 199.385 259.909 199.297 260.148 199.234C260.388 199.167 260.677 199.133 261.016 199.133H262.125V200.586C262.062 200.695 261.977 200.805 261.867 200.914C261.758 201.018 261.628 201.112 261.477 201.195C261.326 201.279 261.156 201.346 260.969 201.398C260.781 201.451 260.578 201.477 260.359 201.477ZM272.211 200.68C272.211 200.81 272.177 200.93 272.109 201.039C272.047 201.148 271.951 201.245 271.82 201.328C271.685 201.411 271.51 201.479 271.297 201.531C271.089 201.578 270.844 201.602 270.562 201.602C270.328 201.602 270.099 201.578 269.875 201.531C269.656 201.484 269.461 201.409 269.289 201.305C269.117 201.206 268.977 201.076 268.867 200.914C268.758 200.747 268.695 200.549 268.68 200.32H266.609C266.609 200.664 266.693 201.008 266.859 201.352C267.031 201.69 267.281 201.992 267.609 202.258C267.938 202.529 268.344 202.747 268.828 202.914C269.318 203.081 269.88 203.164 270.516 203.164C271.094 203.164 271.617 203.102 272.086 202.977C272.555 202.846 272.956 202.667 273.289 202.438C273.617 202.208 273.87 201.938 274.047 201.625C274.229 201.307 274.32 200.961 274.32 200.586C274.32 200.18 274.229 199.831 274.047 199.539C273.87 199.242 273.622 198.99 273.305 198.781C272.987 198.578 272.609 198.411 272.172 198.281C271.734 198.151 271.26 198.044 270.75 197.961C270.396 197.909 270.104 197.849 269.875 197.781C269.646 197.708 269.466 197.628 269.336 197.539C269.201 197.456 269.107 197.362 269.055 197.258C269.003 197.148 268.977 197.031 268.977 196.906C268.977 196.781 269.005 196.664 269.062 196.555C269.125 196.44 269.214 196.341 269.328 196.258C269.453 196.164 269.615 196.091 269.812 196.039C270.01 195.987 270.242 195.961 270.508 195.961C270.82 195.961 271.086 196 271.305 196.078C271.529 196.156 271.706 196.26 271.836 196.391C271.93 196.49 272 196.602 272.047 196.727C272.094 196.846 272.117 196.977 272.117 197.117H274.289C274.289 196.727 274.203 196.365 274.031 196.031C273.859 195.698 273.612 195.409 273.289 195.164C272.961 194.924 272.562 194.737 272.094 194.602C271.625 194.461 271.096 194.391 270.508 194.391C269.945 194.391 269.44 194.461 268.992 194.602C268.544 194.742 268.164 194.932 267.852 195.172C267.539 195.411 267.299 195.69 267.133 196.008C266.966 196.326 266.883 196.659 266.883 197.008C266.883 197.367 266.964 197.685 267.125 197.961C267.292 198.237 267.521 198.479 267.812 198.688C268.104 198.901 268.453 199.083 268.859 199.234C269.271 199.38 269.724 199.503 270.219 199.602C270.609 199.674 270.932 199.747 271.188 199.82C271.443 199.893 271.648 199.971 271.805 200.055C271.956 200.143 272.06 200.237 272.117 200.336C272.18 200.435 272.211 200.549 272.211 200.68ZM285.75 198.711V198.875C285.75 199.49 285.826 200.06 285.977 200.586C286.128 201.107 286.346 201.557 286.633 201.938C286.914 202.318 287.258 202.617 287.664 202.836C288.076 203.049 288.539 203.156 289.055 203.156C289.529 203.156 289.945 203.065 290.305 202.883C290.664 202.701 290.977 202.445 291.242 202.117L291.352 203H293.312V191H291.133V195.305C290.872 195.013 290.573 194.789 290.234 194.633C289.901 194.471 289.513 194.391 289.07 194.391C288.544 194.391 288.076 194.495 287.664 194.703C287.258 194.911 286.911 195.206 286.625 195.586C286.339 195.966 286.12 196.422 285.969 196.953C285.823 197.484 285.75 198.07 285.75 198.711ZM287.922 198.875V198.711C287.922 198.357 287.953 198.026 288.016 197.719C288.078 197.406 288.177 197.133 288.312 196.898C288.448 196.669 288.622 196.49 288.836 196.359C289.055 196.224 289.318 196.156 289.625 196.156C289.995 196.156 290.302 196.237 290.547 196.398C290.792 196.555 290.987 196.776 291.133 197.062V200.484C290.987 200.766 290.789 200.987 290.539 201.148C290.294 201.31 289.984 201.391 289.609 201.391C289.302 201.391 289.042 201.326 288.828 201.195C288.615 201.065 288.44 200.885 288.305 200.656C288.169 200.432 288.07 200.169 288.008 199.867C287.951 199.56 287.922 199.229 287.922 198.875ZM295.289 198.695V198.859C295.289 199.479 295.378 200.052 295.555 200.578C295.732 201.099 295.992 201.552 296.336 201.938C296.674 202.323 297.091 202.625 297.586 202.844C298.086 203.057 298.654 203.164 299.289 203.164C299.919 203.164 300.482 203.057 300.977 202.844C301.471 202.625 301.888 202.323 302.227 201.938C302.565 201.552 302.823 201.099 303 200.578C303.177 200.052 303.266 199.479 303.266 198.859V198.695C303.266 198.081 303.177 197.513 303 196.992C302.823 196.466 302.565 196.01 302.227 195.625C301.883 195.24 301.464 194.938 300.969 194.719C300.474 194.5 299.909 194.391 299.273 194.391C298.638 194.391 298.073 194.5 297.578 194.719C297.089 194.938 296.674 195.24 296.336 195.625C295.992 196.01 295.732 196.466 295.555 196.992C295.378 197.513 295.289 198.081 295.289 198.695ZM297.461 198.859V198.695C297.461 198.352 297.495 198.026 297.562 197.719C297.63 197.411 297.737 197.141 297.883 196.906C298.029 196.672 298.216 196.487 298.445 196.352C298.674 196.216 298.951 196.148 299.273 196.148C299.602 196.148 299.88 196.216 300.109 196.352C300.339 196.487 300.526 196.672 300.672 196.906C300.812 197.141 300.917 197.411 300.984 197.719C301.052 198.026 301.086 198.352 301.086 198.695V198.859C301.086 199.214 301.052 199.547 300.984 199.859C300.917 200.167 300.812 200.435 300.672 200.664C300.526 200.898 300.339 201.083 300.109 201.219C299.88 201.354 299.607 201.422 299.289 201.422C298.961 201.422 298.68 201.354 298.445 201.219C298.216 201.083 298.029 200.898 297.883 200.664C297.737 200.435 297.63 200.167 297.562 199.859C297.495 199.547 297.461 199.214 297.461 198.859ZM314.586 198.711V198.875C314.586 199.49 314.664 200.06 314.82 200.586C314.982 201.107 315.211 201.557 315.508 201.938C315.805 202.318 316.161 202.617 316.578 202.836C317 203.049 317.474 203.156 318 203.156C318.266 203.156 318.513 203.128 318.742 203.07C318.977 203.013 319.19 202.932 319.383 202.828C319.513 202.755 319.635 202.672 319.75 202.578C319.865 202.484 319.974 202.38 320.078 202.266V202.75C320.078 203.036 320.036 203.294 319.953 203.523C319.875 203.753 319.76 203.945 319.609 204.102C319.443 204.273 319.234 204.404 318.984 204.492C318.74 204.581 318.458 204.625 318.141 204.625C317.943 204.625 317.75 204.604 317.562 204.562C317.38 204.526 317.203 204.469 317.031 204.391C316.854 204.312 316.685 204.211 316.523 204.086C316.362 203.966 316.211 203.826 316.07 203.664L315.094 204.984C315.276 205.219 315.495 205.419 315.75 205.586C316.005 205.758 316.276 205.898 316.562 206.008C316.849 206.117 317.138 206.198 317.43 206.25C317.721 206.302 317.995 206.328 318.25 206.328C318.844 206.328 319.385 206.247 319.875 206.086C320.37 205.93 320.794 205.698 321.148 205.391C321.497 205.083 321.768 204.706 321.961 204.258C322.159 203.81 322.258 203.299 322.258 202.727V194.547H320.281L320.195 195.352C320.091 195.221 319.977 195.104 319.852 195C319.727 194.891 319.591 194.797 319.445 194.719C319.253 194.609 319.036 194.529 318.797 194.477C318.562 194.419 318.302 194.391 318.016 194.391C317.484 194.391 317.008 194.495 316.586 194.703C316.164 194.911 315.805 195.206 315.508 195.586C315.211 195.966 314.982 196.422 314.82 196.953C314.664 197.484 314.586 198.07 314.586 198.711ZM316.766 198.875V198.711C316.766 198.357 316.802 198.026 316.875 197.719C316.948 197.406 317.06 197.133 317.211 196.898C317.357 196.669 317.542 196.49 317.766 196.359C317.99 196.224 318.255 196.156 318.562 196.156C318.729 196.156 318.883 196.172 319.023 196.203C319.169 196.234 319.302 196.279 319.422 196.336C319.562 196.404 319.688 196.492 319.797 196.602C319.906 196.711 320 196.839 320.078 196.984V200.562C320.005 200.693 319.919 200.81 319.82 200.914C319.721 201.018 319.607 201.107 319.477 201.18C319.352 201.247 319.211 201.299 319.055 201.336C318.904 201.372 318.734 201.391 318.547 201.391C318.24 201.391 317.974 201.326 317.75 201.195C317.526 201.065 317.341 200.885 317.195 200.656C317.049 200.432 316.94 200.169 316.867 199.867C316.799 199.56 316.766 199.229 316.766 198.875ZM330.484 194.391C329.917 194.391 329.393 194.529 328.914 194.805C328.435 195.076 328.023 195.451 327.68 195.93L327.664 195.742L327.578 194.547H325.555V203H327.727V197.922C327.826 197.682 327.951 197.474 328.102 197.297C328.253 197.12 328.435 196.974 328.648 196.859C328.826 196.76 329.026 196.688 329.25 196.641C329.479 196.589 329.734 196.562 330.016 196.562C330.286 196.562 330.57 196.581 330.867 196.617C331.169 196.648 331.464 196.698 331.75 196.766L332.07 194.602C331.898 194.549 331.672 194.503 331.391 194.461C331.115 194.414 330.812 194.391 330.484 194.391ZM334.602 194.547V196.32H337.008V201.234H334.602V203H341.492V201.234H339.203V194.547H334.602ZM336.852 192.383C336.852 192.549 336.88 192.706 336.938 192.852C337 192.992 337.086 193.112 337.195 193.211C337.305 193.315 337.435 193.396 337.586 193.453C337.742 193.51 337.914 193.539 338.102 193.539C338.487 193.539 338.792 193.432 339.016 193.219C339.245 193 339.359 192.721 339.359 192.383C339.359 192.044 339.245 191.768 339.016 191.555C338.792 191.336 338.487 191.227 338.102 191.227C337.914 191.227 337.742 191.255 337.586 191.312C337.435 191.37 337.305 191.448 337.195 191.547C337.086 191.651 337 191.776 336.938 191.922C336.88 192.062 336.852 192.216 336.852 192.383ZM343.406 198.711V198.875C343.406 199.49 343.482 200.06 343.633 200.586C343.784 201.107 344.003 201.557 344.289 201.938C344.57 202.318 344.914 202.617 345.32 202.836C345.732 203.049 346.195 203.156 346.711 203.156C347.185 203.156 347.602 203.065 347.961 202.883C348.32 202.701 348.633 202.445 348.898 202.117L349.008 203H350.969V191H348.789V195.305C348.529 195.013 348.229 194.789 347.891 194.633C347.557 194.471 347.169 194.391 346.727 194.391C346.201 194.391 345.732 194.495 345.32 194.703C344.914 194.911 344.568 195.206 344.281 195.586C343.995 195.966 343.776 196.422 343.625 196.953C343.479 197.484 343.406 198.07 343.406 198.711ZM345.578 198.875V198.711C345.578 198.357 345.609 198.026 345.672 197.719C345.734 197.406 345.833 197.133 345.969 196.898C346.104 196.669 346.279 196.49 346.492 196.359C346.711 196.224 346.974 196.156 347.281 196.156C347.651 196.156 347.958 196.237 348.203 196.398C348.448 196.555 348.643 196.776 348.789 197.062V200.484C348.643 200.766 348.445 200.987 348.195 201.148C347.951 201.31 347.641 201.391 347.266 201.391C346.958 201.391 346.698 201.326 346.484 201.195C346.271 201.065 346.096 200.885 345.961 200.656C345.826 200.432 345.727 200.169 345.664 199.867C345.607 199.56 345.578 199.229 345.578 198.875Z" fill="#12171A"/>
<path d="M415.375 19.2266V9.625H413.172V21H420.703V19.2266H415.375ZM423.289 12.5469V14.3203H425.695V19.2344H423.289V21H430.18V19.2344H427.891V12.5469H423.289ZM425.539 10.3828C425.539 10.5495 425.568 10.7057 425.625 10.8516C425.688 10.9922 425.773 11.112 425.883 11.2109C425.992 11.3151 426.122 11.3958 426.273 11.4531C426.43 11.5104 426.602 11.5391 426.789 11.5391C427.174 11.5391 427.479 11.4323 427.703 11.2188C427.932 11 428.047 10.7214 428.047 10.3828C428.047 10.0443 427.932 9.76823 427.703 9.55469C427.479 9.33594 427.174 9.22656 426.789 9.22656C426.602 9.22656 426.43 9.25521 426.273 9.3125C426.122 9.36979 425.992 9.44792 425.883 9.54688C425.773 9.65104 425.688 9.77604 425.625 9.92188C425.568 10.0625 425.539 10.2161 425.539 10.3828ZM432.32 21H434.5V14.9922C434.573 14.8776 434.654 14.7734 434.742 14.6797C434.831 14.5859 434.93 14.5052 435.039 14.4375C435.174 14.3438 435.328 14.2734 435.5 14.2266C435.677 14.1797 435.87 14.1563 436.078 14.1563C436.328 14.1563 436.552 14.1823 436.75 14.2344C436.948 14.2813 437.117 14.3672 437.258 14.4922C437.398 14.6172 437.505 14.7891 437.578 15.0078C437.656 15.2214 437.695 15.4948 437.695 15.8281V21H439.867V15.7969C439.867 15.1823 439.794 14.6615 439.648 14.2344C439.508 13.8021 439.31 13.4479 439.055 13.1719C438.794 12.901 438.487 12.7031 438.133 12.5781C437.779 12.4531 437.388 12.3906 436.961 12.3906C436.628 12.3906 436.312 12.4375 436.016 12.5313C435.719 12.625 435.445 12.7604 435.195 12.9375C435.049 13.0417 434.911 13.1589 434.781 13.2891C434.651 13.4193 434.531 13.5625 434.422 13.7188L434.289 12.5469H432.32V21ZM444.102 13.7109V9H441.93V21L444.102 21V14.8984C444.185 14.7891 444.276 14.6901 444.375 14.6016C444.479 14.513 444.594 14.4375 444.719 14.375C444.854 14.3021 445.005 14.2474 445.172 14.2109C445.339 14.1745 445.518 14.1563 445.711 14.1563C445.961 14.1563 446.185 14.1901 446.383 14.2578C446.581 14.3203 446.75 14.4193 446.891 14.5547C447.031 14.6901 447.138 14.8672 447.211 15.0859C447.289 15.3047 447.328 15.5651 447.328 15.8672V21H449.5V15.8828C449.5 15.263 449.424 14.7344 449.273 14.2969C449.128 13.8542 448.922 13.4922 448.656 13.2109C448.391 12.9297 448.073 12.724 447.703 12.5938C447.333 12.4583 446.927 12.3906 446.484 12.3906C446.182 12.3906 445.896 12.4349 445.625 12.5234C445.354 12.612 445.107 12.737 444.883 12.8984C444.737 13.0026 444.596 13.125 444.461 13.2656C444.331 13.401 444.211 13.5495 444.102 13.7109ZM456.82 21H459.023V20.8672C458.914 20.6536 458.831 20.3984 458.773 20.1016C458.716 19.8047 458.688 19.4297 458.688 18.9766V15.3516C458.688 14.862 458.596 14.4323 458.414 14.0625C458.232 13.6875 457.979 13.3776 457.656 13.1328C457.333 12.888 456.951 12.7031 456.508 12.5781C456.07 12.4531 455.596 12.3906 455.086 12.3906C454.518 12.3906 454.013 12.4635 453.57 12.6094C453.133 12.75 452.763 12.9427 452.461 13.1875C452.154 13.4323 451.919 13.7161 451.758 14.0391C451.602 14.362 451.523 14.7031 451.523 15.0625H453.695C453.695 14.9115 453.716 14.7734 453.758 14.6484C453.805 14.5234 453.875 14.4167 453.969 14.3281C454.073 14.2292 454.208 14.1536 454.375 14.1016C454.542 14.0443 454.74 14.0156 454.969 14.0156C455.229 14.0156 455.456 14.0495 455.648 14.1172C455.846 14.1797 456.01 14.2708 456.141 14.3906C456.266 14.5052 456.359 14.6432 456.422 14.8047C456.484 14.9609 456.516 15.138 456.516 15.3359V15.8359H455.305C454.68 15.8359 454.125 15.8932 453.641 16.0078C453.161 16.1172 452.758 16.2786 452.43 16.4922C452.065 16.7266 451.792 17.026 451.609 17.3906C451.427 17.75 451.336 18.1641 451.336 18.6328C451.336 18.9974 451.409 19.3359 451.555 19.6484C451.701 19.9557 451.904 20.2214 452.164 20.4453C452.424 20.6693 452.734 20.8438 453.094 20.9688C453.458 21.0938 453.857 21.1563 454.289 21.1563C454.555 21.1563 454.802 21.1302 455.031 21.0781C455.26 21.0313 455.471 20.9635 455.664 20.875C455.852 20.7917 456.023 20.6927 456.18 20.5781C456.336 20.4635 456.474 20.3411 456.594 20.2109C456.62 20.362 456.651 20.5052 456.688 20.6406C456.724 20.776 456.768 20.8958 456.82 21ZM454.75 19.4766C454.547 19.4766 454.367 19.4531 454.211 19.4062C454.06 19.3542 453.932 19.2865 453.828 19.2031C453.724 19.1146 453.643 19.0078 453.586 18.8828C453.534 18.7526 453.508 18.612 453.508 18.4609C453.508 18.2682 453.544 18.0911 453.617 17.9297C453.69 17.763 453.802 17.6198 453.953 17.5C454.104 17.3854 454.299 17.2969 454.539 17.2344C454.779 17.1667 455.068 17.1328 455.406 17.1328H456.516V18.5859C456.453 18.6953 456.367 18.8047 456.258 18.9141C456.148 19.0182 456.018 19.112 455.867 19.1953C455.716 19.2786 455.547 19.3464 455.359 19.3984C455.172 19.4505 454.969 19.4766 454.75 19.4766ZM470.531 16.7109V16.875C470.531 17.4896 470.607 18.0599 470.758 18.5859C470.909 19.1068 471.128 19.5573 471.414 19.9375C471.695 20.3177 472.039 20.6172 472.445 20.8359C472.857 21.0495 473.32 21.1563 473.836 21.1563C474.31 21.1563 474.727 21.0651 475.086 20.8828C475.445 20.7005 475.758 20.4453 476.023 20.1172L476.133 21H478.094V9H475.914V13.3047C475.654 13.013 475.354 12.7891 475.016 12.6328C474.682 12.4714 474.294 12.3906 473.852 12.3906C473.326 12.3906 472.857 12.4948 472.445 12.7031C472.039 12.9115 471.693 13.2057 471.406 13.5859C471.12 13.9661 470.901 14.4219 470.75 14.9531C470.604 15.4844 470.531 16.0703 470.531 16.7109ZM472.703 16.875V16.7109C472.703 16.3568 472.734 16.026 472.797 15.7188C472.859 15.4063 472.958 15.1328 473.094 14.8984C473.229 14.6693 473.404 14.4896 473.617 14.3594C473.836 14.224 474.099 14.1563 474.406 14.1563C474.776 14.1563 475.083 14.237 475.328 14.3984C475.573 14.5547 475.768 14.776 475.914 15.0625V18.4844C475.768 18.7656 475.57 18.987 475.32 19.1484C475.076 19.3099 474.766 19.3906 474.391 19.3906C474.083 19.3906 473.823 19.3255 473.609 19.1953C473.396 19.0651 473.221 18.8854 473.086 18.6563C472.951 18.4323 472.852 18.1693 472.789 17.8672C472.732 17.5599 472.703 17.2292 472.703 16.875ZM480.07 16.6953V16.8594C480.07 17.4792 480.159 18.0521 480.336 18.5781C480.513 19.099 480.773 19.5521 481.117 19.9375C481.456 20.3229 481.872 20.625 482.367 20.8438C482.867 21.0573 483.435 21.1641 484.07 21.1641C484.701 21.1641 485.263 21.0573 485.758 20.8438C486.253 20.625 486.669 20.3229 487.008 19.9375C487.346 19.5521 487.604 19.099 487.781 18.5781C487.958 18.0521 488.047 17.4792 488.047 16.8594V16.6953C488.047 16.0807 487.958 15.513 487.781 14.9922C487.604 14.4661 487.346 14.0104 487.008 13.625C486.664 13.2396 486.245 12.9375 485.75 12.7188C485.255 12.5 484.69 12.3906 484.055 12.3906C483.419 12.3906 482.854 12.5 482.359 12.7188C481.87 12.9375 481.456 13.2396 481.117 13.625C480.773 14.0104 480.513 14.4661 480.336 14.9922C480.159 15.513 480.07 16.0807 480.07 16.6953ZM482.242 16.8594V16.6953C482.242 16.3516 482.276 16.026 482.344 15.7188C482.411 15.4115 482.518 15.1406 482.664 14.9063C482.81 14.6719 482.997 14.487 483.227 14.3516C483.456 14.2161 483.732 14.1484 484.055 14.1484C484.383 14.1484 484.661 14.2161 484.891 14.3516C485.12 14.487 485.307 14.6719 485.453 14.9063C485.594 15.1406 485.698 15.4115 485.766 15.7188C485.833 16.026 485.867 16.3516 485.867 16.6953V16.8594C485.867 17.2135 485.833 17.5469 485.766 17.8594C485.698 18.1667 485.594 18.4349 485.453 18.6641C485.307 18.8984 485.12 19.0833 484.891 19.2188C484.661 19.3542 484.388 19.4219 484.07 19.4219C483.742 19.4219 483.461 19.3542 483.227 19.2188C482.997 19.0833 482.81 18.8984 482.664 18.6641C482.518 18.4349 482.411 18.1667 482.344 17.8594C482.276 17.5469 482.242 17.2135 482.242 16.8594ZM499.367 16.7109V16.875C499.367 17.4896 499.445 18.0599 499.602 18.5859C499.763 19.1068 499.992 19.5573 500.289 19.9375C500.586 20.3177 500.943 20.6172 501.359 20.8359C501.781 21.0495 502.255 21.1563 502.781 21.1563C503.047 21.1563 503.294 21.1276 503.523 21.0703C503.758 21.013 503.971 20.9323 504.164 20.8281C504.294 20.7552 504.417 20.6719 504.531 20.5781C504.646 20.4844 504.755 20.3802 504.859 20.2656V20.75C504.859 21.0365 504.818 21.2943 504.734 21.5234C504.656 21.7526 504.542 21.9453 504.391 22.1016C504.224 22.2734 504.016 22.4036 503.766 22.4922C503.521 22.5807 503.24 22.625 502.922 22.625C502.724 22.625 502.531 22.6042 502.344 22.5625C502.161 22.526 501.984 22.4688 501.812 22.3906C501.635 22.3125 501.466 22.2109 501.305 22.0859C501.143 21.9661 500.992 21.8255 500.852 21.6641L499.875 22.9844C500.057 23.2188 500.276 23.4193 500.531 23.5859C500.786 23.7578 501.057 23.8984 501.344 24.0078C501.63 24.1172 501.919 24.1979 502.211 24.25C502.503 24.3021 502.776 24.3281 503.031 24.3281C503.625 24.3281 504.167 24.2474 504.656 24.0859C505.151 23.9297 505.576 23.6979 505.93 23.3906C506.279 23.0833 506.549 22.7057 506.742 22.2578C506.94 21.8099 507.039 21.2995 507.039 20.7266V12.5469H505.062L504.977 13.3516C504.872 13.2214 504.758 13.1042 504.633 13C504.508 12.8906 504.372 12.7969 504.227 12.7188C504.034 12.6094 503.818 12.5286 503.578 12.4766C503.344 12.4193 503.083 12.3906 502.797 12.3906C502.266 12.3906 501.789 12.4948 501.367 12.7031C500.945 12.9115 500.586 13.2057 500.289 13.5859C499.992 13.9661 499.763 14.4219 499.602 14.9531C499.445 15.4844 499.367 16.0703 499.367 16.7109ZM501.547 16.875V16.7109C501.547 16.3568 501.583 16.026 501.656 15.7188C501.729 15.4063 501.841 15.1328 501.992 14.8984C502.138 14.6693 502.323 14.4896 502.547 14.3594C502.771 14.224 503.036 14.1563 503.344 14.1563C503.51 14.1563 503.664 14.1719 503.805 14.2031C503.951 14.2344 504.083 14.2786 504.203 14.3359C504.344 14.4036 504.469 14.4922 504.578 14.6016C504.688 14.7109 504.781 14.8385 504.859 14.9844V18.5625C504.786 18.6927 504.701 18.8099 504.602 18.9141C504.503 19.0182 504.388 19.1068 504.258 19.1797C504.133 19.2474 503.992 19.2995 503.836 19.3359C503.685 19.3724 503.516 19.3906 503.328 19.3906C503.021 19.3906 502.755 19.3255 502.531 19.1953C502.307 19.0651 502.122 18.8854 501.977 18.6563C501.831 18.4323 501.721 18.1693 501.648 17.8672C501.581 17.5599 501.547 17.2292 501.547 16.875ZM515.266 12.3906C514.698 12.3906 514.174 12.5286 513.695 12.8047C513.216 13.0755 512.805 13.4505 512.461 13.9297L512.445 13.7422L512.359 12.5469H510.336V21H512.508V15.9219C512.607 15.6823 512.732 15.474 512.883 15.2969C513.034 15.1198 513.216 14.974 513.43 14.8594C513.607 14.7604 513.807 14.6875 514.031 14.6406C514.26 14.5885 514.516 14.5625 514.797 14.5625C515.068 14.5625 515.352 14.5807 515.648 14.6172C515.951 14.6484 516.245 14.6979 516.531 14.7656L516.852 12.6016C516.68 12.5495 516.453 12.5026 516.172 12.4609C515.896 12.4141 515.594 12.3906 515.266 12.3906ZM519.383 12.5469V14.3203H521.789V19.2344H519.383V21H526.273V19.2344H523.984V12.5469H519.383ZM521.633 10.3828C521.633 10.5495 521.661 10.7057 521.719 10.8516C521.781 10.9922 521.867 11.112 521.977 11.2109C522.086 11.3151 522.216 11.3958 522.367 11.4531C522.523 11.5104 522.695 11.5391 522.883 11.5391C523.268 11.5391 523.573 11.4323 523.797 11.2188C524.026 11 524.141 10.7214 524.141 10.3828C524.141 10.0443 524.026 9.76823 523.797 9.55469C523.573 9.33594 523.268 9.22656 522.883 9.22656C522.695 9.22656 522.523 9.25521 522.367 9.3125C522.216 9.36979 522.086 9.44792 521.977 9.54688C521.867 9.65104 521.781 9.77604 521.719 9.92188C521.661 10.0625 521.633 10.2161 521.633 10.3828ZM528.188 16.7109V16.875C528.188 17.4896 528.263 18.0599 528.414 18.5859C528.565 19.1068 528.784 19.5573 529.07 19.9375C529.352 20.3177 529.695 20.6172 530.102 20.8359C530.513 21.0495 530.977 21.1563 531.492 21.1563C531.966 21.1563 532.383 21.0651 532.742 20.8828C533.102 20.7005 533.414 20.4453 533.68 20.1172L533.789 21H535.75V9H533.57V13.3047C533.31 13.013 533.01 12.7891 532.672 12.6328C532.339 12.4714 531.951 12.3906 531.508 12.3906C530.982 12.3906 530.513 12.4948 530.102 12.7031C529.695 12.9115 529.349 13.2057 529.062 13.5859C528.776 13.9661 528.557 14.4219 528.406 14.9531C528.26 15.4844 528.188 16.0703 528.188 16.7109ZM530.359 16.875V16.7109C530.359 16.3568 530.391 16.026 530.453 15.7188C530.516 15.4063 530.615 15.1328 530.75 14.8984C530.885 14.6693 531.06 14.4896 531.273 14.3594C531.492 14.224 531.755 14.1563 532.062 14.1563C532.432 14.1563 532.74 14.237 532.984 14.3984C533.229 14.5547 533.424 14.776 533.57 15.0625V18.4844C533.424 18.7656 533.227 18.987 532.977 19.1484C532.732 19.3099 532.422 19.3906 532.047 19.3906C531.74 19.3906 531.479 19.3255 531.266 19.1953C531.052 19.0651 530.878 18.8854 530.742 18.6563C530.607 18.4323 530.508 18.1693 530.445 17.8672C530.388 17.5599 530.359 17.2292 530.359 16.875Z" fill="#12171A"/>
<path d="M418.617 200.625L419.281 203H421.594L417.938 191.625H415.945L412.219 203H414.531L415.203 200.625H418.617ZM415.742 198.758L416.938 194.57L418.102 198.758H415.742ZM417.492 188.758L416.031 190.938H417.719L419.883 188.758H417.492ZM428.781 194.391C428.214 194.391 427.69 194.529 427.211 194.805C426.732 195.076 426.32 195.451 425.977 195.93L425.961 195.742L425.875 194.547H423.852V203H426.023V197.922C426.122 197.682 426.247 197.474 426.398 197.297C426.549 197.12 426.732 196.974 426.945 196.859C427.122 196.76 427.323 196.688 427.547 196.641C427.776 196.589 428.031 196.562 428.312 196.562C428.583 196.562 428.867 196.581 429.164 196.617C429.466 196.648 429.76 196.698 430.047 196.766L430.367 194.602C430.195 194.549 429.969 194.503 429.688 194.461C429.411 194.414 429.109 194.391 428.781 194.391ZM436.422 203.156C437.24 203.156 437.948 202.997 438.547 202.68C439.146 202.362 439.583 202.008 439.859 201.617L438.773 200.445C438.523 200.768 438.198 201.01 437.797 201.172C437.396 201.333 436.982 201.414 436.555 201.414C436.253 201.414 435.974 201.367 435.719 201.273C435.464 201.18 435.237 201.047 435.039 200.875C434.846 200.708 434.693 200.523 434.578 200.32C434.464 200.112 434.37 199.839 434.297 199.5V199.477H440.031V198.555C440.031 197.935 439.945 197.37 439.773 196.859C439.602 196.344 439.352 195.904 439.023 195.539C438.69 195.174 438.284 194.893 437.805 194.695C437.331 194.492 436.789 194.391 436.18 194.391C435.591 194.391 435.047 194.497 434.547 194.711C434.047 194.924 433.615 195.224 433.25 195.609C432.885 195.995 432.602 196.456 432.398 196.992C432.195 197.523 432.094 198.112 432.094 198.758V199.07C432.094 199.638 432.195 200.172 432.398 200.672C432.607 201.167 432.901 201.596 433.281 201.961C433.661 202.331 434.117 202.622 434.648 202.836C435.18 203.049 435.771 203.156 436.422 203.156ZM436.164 196.148C436.44 196.148 436.682 196.193 436.891 196.281C437.104 196.365 437.284 196.479 437.43 196.625C437.576 196.776 437.69 196.953 437.773 197.156C437.857 197.359 437.898 197.576 437.898 197.805V197.977H434.336C434.388 197.701 434.466 197.451 434.57 197.227C434.674 197.003 434.805 196.81 434.961 196.648C435.112 196.487 435.289 196.365 435.492 196.281C435.695 196.193 435.919 196.148 436.164 196.148ZM447.211 203H449.414V202.867C449.305 202.654 449.221 202.398 449.164 202.102C449.107 201.805 449.078 201.43 449.078 200.977V197.352C449.078 196.862 448.987 196.432 448.805 196.062C448.622 195.688 448.37 195.378 448.047 195.133C447.724 194.888 447.341 194.703 446.898 194.578C446.461 194.453 445.987 194.391 445.477 194.391C444.909 194.391 444.404 194.464 443.961 194.609C443.523 194.75 443.154 194.943 442.852 195.188C442.544 195.432 442.31 195.716 442.148 196.039C441.992 196.362 441.914 196.703 441.914 197.062H444.086C444.086 196.911 444.107 196.773 444.148 196.648C444.195 196.523 444.266 196.417 444.359 196.328C444.464 196.229 444.599 196.154 444.766 196.102C444.932 196.044 445.13 196.016 445.359 196.016C445.62 196.016 445.846 196.049 446.039 196.117C446.237 196.18 446.401 196.271 446.531 196.391C446.656 196.505 446.75 196.643 446.812 196.805C446.875 196.961 446.906 197.138 446.906 197.336V197.836H445.695C445.07 197.836 444.516 197.893 444.031 198.008C443.552 198.117 443.148 198.279 442.82 198.492C442.456 198.727 442.182 199.026 442 199.391C441.818 199.75 441.727 200.164 441.727 200.633C441.727 200.997 441.799 201.336 441.945 201.648C442.091 201.956 442.294 202.221 442.555 202.445C442.815 202.669 443.125 202.844 443.484 202.969C443.849 203.094 444.247 203.156 444.68 203.156C444.945 203.156 445.193 203.13 445.422 203.078C445.651 203.031 445.862 202.964 446.055 202.875C446.242 202.792 446.414 202.693 446.57 202.578C446.727 202.464 446.865 202.341 446.984 202.211C447.01 202.362 447.042 202.505 447.078 202.641C447.115 202.776 447.159 202.896 447.211 203ZM445.141 201.477C444.938 201.477 444.758 201.453 444.602 201.406C444.451 201.354 444.323 201.286 444.219 201.203C444.115 201.115 444.034 201.008 443.977 200.883C443.924 200.753 443.898 200.612 443.898 200.461C443.898 200.268 443.935 200.091 444.008 199.93C444.081 199.763 444.193 199.62 444.344 199.5C444.495 199.385 444.69 199.297 444.93 199.234C445.169 199.167 445.458 199.133 445.797 199.133H446.906V200.586C446.844 200.695 446.758 200.805 446.648 200.914C446.539 201.018 446.409 201.112 446.258 201.195C446.107 201.279 445.938 201.346 445.75 201.398C445.562 201.451 445.359 201.477 445.141 201.477ZM460.922 198.711V198.875C460.922 199.49 460.997 200.06 461.148 200.586C461.299 201.107 461.518 201.557 461.805 201.938C462.086 202.318 462.43 202.617 462.836 202.836C463.247 203.049 463.711 203.156 464.227 203.156C464.701 203.156 465.117 203.065 465.477 202.883C465.836 202.701 466.148 202.445 466.414 202.117L466.523 203H468.484V191H466.305V195.305C466.044 195.013 465.745 194.789 465.406 194.633C465.073 194.471 464.685 194.391 464.242 194.391C463.716 194.391 463.247 194.495 462.836 194.703C462.43 194.911 462.083 195.206 461.797 195.586C461.51 195.966 461.292 196.422 461.141 196.953C460.995 197.484 460.922 198.07 460.922 198.711ZM463.094 198.875V198.711C463.094 198.357 463.125 198.026 463.188 197.719C463.25 197.406 463.349 197.133 463.484 196.898C463.62 196.669 463.794 196.49 464.008 196.359C464.227 196.224 464.49 196.156 464.797 196.156C465.167 196.156 465.474 196.237 465.719 196.398C465.964 196.555 466.159 196.776 466.305 197.062V200.484C466.159 200.766 465.961 200.987 465.711 201.148C465.466 201.31 465.156 201.391 464.781 201.391C464.474 201.391 464.214 201.326 464 201.195C463.786 201.065 463.612 200.885 463.477 200.656C463.341 200.432 463.242 200.169 463.18 199.867C463.122 199.56 463.094 199.229 463.094 198.875ZM470.461 198.695V198.859C470.461 199.479 470.549 200.052 470.727 200.578C470.904 201.099 471.164 201.552 471.508 201.938C471.846 202.323 472.263 202.625 472.758 202.844C473.258 203.057 473.826 203.164 474.461 203.164C475.091 203.164 475.654 203.057 476.148 202.844C476.643 202.625 477.06 202.323 477.398 201.938C477.737 201.552 477.995 201.099 478.172 200.578C478.349 200.052 478.438 199.479 478.438 198.859V198.695C478.438 198.081 478.349 197.513 478.172 196.992C477.995 196.466 477.737 196.01 477.398 195.625C477.055 195.24 476.635 194.938 476.141 194.719C475.646 194.5 475.081 194.391 474.445 194.391C473.81 194.391 473.245 194.5 472.75 194.719C472.26 194.938 471.846 195.24 471.508 195.625C471.164 196.01 470.904 196.466 470.727 196.992C470.549 197.513 470.461 198.081 470.461 198.695ZM472.633 198.859V198.695C472.633 198.352 472.667 198.026 472.734 197.719C472.802 197.411 472.909 197.141 473.055 196.906C473.201 196.672 473.388 196.487 473.617 196.352C473.846 196.216 474.122 196.148 474.445 196.148C474.773 196.148 475.052 196.216 475.281 196.352C475.51 196.487 475.698 196.672 475.844 196.906C475.984 197.141 476.089 197.411 476.156 197.719C476.224 198.026 476.258 198.352 476.258 198.695V198.859C476.258 199.214 476.224 199.547 476.156 199.859C476.089 200.167 475.984 200.435 475.844 200.664C475.698 200.898 475.51 201.083 475.281 201.219C475.052 201.354 474.779 201.422 474.461 201.422C474.133 201.422 473.852 201.354 473.617 201.219C473.388 201.083 473.201 200.898 473.055 200.664C472.909 200.435 472.802 200.167 472.734 199.859C472.667 199.547 472.633 199.214 472.633 198.859ZM489.758 198.711V198.875C489.758 199.49 489.836 200.06 489.992 200.586C490.154 201.107 490.383 201.557 490.68 201.938C490.977 202.318 491.333 202.617 491.75 202.836C492.172 203.049 492.646 203.156 493.172 203.156C493.438 203.156 493.685 203.128 493.914 203.07C494.148 203.013 494.362 202.932 494.555 202.828C494.685 202.755 494.807 202.672 494.922 202.578C495.036 202.484 495.146 202.38 495.25 202.266V202.75C495.25 203.036 495.208 203.294 495.125 203.523C495.047 203.753 494.932 203.945 494.781 204.102C494.615 204.273 494.406 204.404 494.156 204.492C493.911 204.581 493.63 204.625 493.312 204.625C493.115 204.625 492.922 204.604 492.734 204.562C492.552 204.526 492.375 204.469 492.203 204.391C492.026 204.312 491.857 204.211 491.695 204.086C491.534 203.966 491.383 203.826 491.242 203.664L490.266 204.984C490.448 205.219 490.667 205.419 490.922 205.586C491.177 205.758 491.448 205.898 491.734 206.008C492.021 206.117 492.31 206.198 492.602 206.25C492.893 206.302 493.167 206.328 493.422 206.328C494.016 206.328 494.557 206.247 495.047 206.086C495.542 205.93 495.966 205.698 496.32 205.391C496.669 205.083 496.94 204.706 497.133 204.258C497.331 203.81 497.43 203.299 497.43 202.727V194.547H495.453L495.367 195.352C495.263 195.221 495.148 195.104 495.023 195C494.898 194.891 494.763 194.797 494.617 194.719C494.424 194.609 494.208 194.529 493.969 194.477C493.734 194.419 493.474 194.391 493.188 194.391C492.656 194.391 492.18 194.495 491.758 194.703C491.336 194.911 490.977 195.206 490.68 195.586C490.383 195.966 490.154 196.422 489.992 196.953C489.836 197.484 489.758 198.07 489.758 198.711ZM491.938 198.875V198.711C491.938 198.357 491.974 198.026 492.047 197.719C492.12 197.406 492.232 197.133 492.383 196.898C492.529 196.669 492.714 196.49 492.938 196.359C493.161 196.224 493.427 196.156 493.734 196.156C493.901 196.156 494.055 196.172 494.195 196.203C494.341 196.234 494.474 196.279 494.594 196.336C494.734 196.404 494.859 196.492 494.969 196.602C495.078 196.711 495.172 196.839 495.25 196.984V200.562C495.177 200.693 495.091 200.81 494.992 200.914C494.893 201.018 494.779 201.107 494.648 201.18C494.523 201.247 494.383 201.299 494.227 201.336C494.076 201.372 493.906 201.391 493.719 201.391C493.411 201.391 493.146 201.326 492.922 201.195C492.698 201.065 492.513 200.885 492.367 200.656C492.221 200.432 492.112 200.169 492.039 199.867C491.971 199.56 491.938 199.229 491.938 198.875ZM505.656 194.391C505.089 194.391 504.565 194.529 504.086 194.805C503.607 195.076 503.195 195.451 502.852 195.93L502.836 195.742L502.75 194.547H500.727V203H502.898V197.922C502.997 197.682 503.122 197.474 503.273 197.297C503.424 197.12 503.607 196.974 503.82 196.859C503.997 196.76 504.198 196.688 504.422 196.641C504.651 196.589 504.906 196.562 505.188 196.562C505.458 196.562 505.742 196.581 506.039 196.617C506.341 196.648 506.635 196.698 506.922 196.766L507.242 194.602C507.07 194.549 506.844 194.503 506.562 194.461C506.286 194.414 505.984 194.391 505.656 194.391ZM509.773 194.547V196.32H512.18V201.234H509.773V203H516.664V201.234H514.375V194.547H509.773ZM512.023 192.383C512.023 192.549 512.052 192.706 512.109 192.852C512.172 192.992 512.258 193.112 512.367 193.211C512.477 193.315 512.607 193.396 512.758 193.453C512.914 193.51 513.086 193.539 513.273 193.539C513.659 193.539 513.964 193.432 514.188 193.219C514.417 193 514.531 192.721 514.531 192.383C514.531 192.044 514.417 191.768 514.188 191.555C513.964 191.336 513.659 191.227 513.273 191.227C513.086 191.227 512.914 191.255 512.758 191.312C512.607 191.37 512.477 191.448 512.367 191.547C512.258 191.651 512.172 191.776 512.109 191.922C512.052 192.062 512.023 192.216 512.023 192.383ZM518.578 198.711V198.875C518.578 199.49 518.654 200.06 518.805 200.586C518.956 201.107 519.174 201.557 519.461 201.938C519.742 202.318 520.086 202.617 520.492 202.836C520.904 203.049 521.367 203.156 521.883 203.156C522.357 203.156 522.773 203.065 523.133 202.883C523.492 202.701 523.805 202.445 524.07 202.117L524.18 203H526.141V191H523.961V195.305C523.701 195.013 523.401 194.789 523.062 194.633C522.729 194.471 522.341 194.391 521.898 194.391C521.372 194.391 520.904 194.495 520.492 194.703C520.086 194.911 519.74 195.206 519.453 195.586C519.167 195.966 518.948 196.422 518.797 196.953C518.651 197.484 518.578 198.07 518.578 198.711ZM520.75 198.875V198.711C520.75 198.357 520.781 198.026 520.844 197.719C520.906 197.406 521.005 197.133 521.141 196.898C521.276 196.669 521.451 196.49 521.664 196.359C521.883 196.224 522.146 196.156 522.453 196.156C522.823 196.156 523.13 196.237 523.375 196.398C523.62 196.555 523.815 196.776 523.961 197.062V200.484C523.815 200.766 523.617 200.987 523.367 201.148C523.122 201.31 522.812 201.391 522.438 201.391C522.13 201.391 521.87 201.326 521.656 201.195C521.443 201.065 521.268 200.885 521.133 200.656C520.997 200.432 520.898 200.169 520.836 199.867C520.779 199.56 520.75 199.229 520.75 198.875Z" fill="#12171A"/>
</svg>
