<svg width="365" height="137" viewBox="0 0 365 137" fill="none" xmlns="http://www.w3.org/2000/svg">
<rect width="68" height="29" rx="10" fill="#EFF1F3"/>
<path d="M9.84375 19.4219C9.49479 19.4219 9.20573 19.3516 8.97656 19.2109C8.7526 19.0703 8.57552 18.8828 8.44531 18.6484C8.3099 18.4193 8.21615 18.1536 8.16406 17.8516C8.11198 17.5443 8.08594 17.2266 8.08594 16.8984V16.6641C8.08594 16.3411 8.11198 16.0286 8.16406 15.7266C8.22135 15.4245 8.31771 15.1562 8.45312 14.9219C8.58333 14.6875 8.76042 14.5 8.98438 14.3594C9.20833 14.2188 9.49219 14.1484 9.83594 14.1484C10.0703 14.1484 10.2865 14.1901 10.4844 14.2734C10.6823 14.3516 10.8516 14.4583 10.9922 14.5938C11.1328 14.7292 11.2396 14.8906 11.3125 15.0781C11.3854 15.2656 11.4167 15.4635 11.4062 15.6719H13.4531C13.4635 15.1719 13.3802 14.7214 13.2031 14.3203C13.026 13.9141 12.7786 13.5677 12.4609 13.2812C12.138 13 11.7552 12.7812 11.3125 12.625C10.8698 12.4688 10.388 12.3906 9.86719 12.3906C9.21615 12.3906 8.64323 12.5026 8.14844 12.7266C7.65885 12.9505 7.2474 13.2552 6.91406 13.6406C6.58073 14.026 6.33073 14.4792 6.16406 15C5.9974 15.5156 5.91406 16.0703 5.91406 16.6641V16.8984C5.91406 17.4922 5.9974 18.0495 6.16406 18.5703C6.33594 19.0859 6.58854 19.5365 6.92187 19.9219C7.25 20.3073 7.66146 20.612 8.15625 20.8359C8.65104 21.0547 9.22656 21.1641 9.88281 21.1641C10.3672 21.1641 10.8255 21.0885 11.2578 20.9375C11.6953 20.7812 12.0781 20.5677 12.4062 20.2969C12.7344 20.026 12.9922 19.7031 13.1797 19.3281C13.3724 18.9531 13.4635 18.5469 13.4531 18.1094H11.4062C11.4167 18.3073 11.3802 18.487 11.2969 18.6484C11.2188 18.8099 11.1068 18.9479 10.9609 19.0625C10.8151 19.1771 10.6458 19.2656 10.4531 19.3281C10.2604 19.3906 10.0573 19.4219 9.84375 19.4219ZM19.8125 21.1562C20.6302 21.1562 21.3385 20.9974 21.9375 20.6797C22.5365 20.362 22.974 20.0078 23.25 19.6172L22.1641 18.4453C21.9141 18.7682 21.5885 19.0104 21.1875 19.1719C20.7865 19.3333 20.3724 19.4141 19.9453 19.4141C19.6432 19.4141 19.3646 19.3672 19.1094 19.2734C18.8542 19.1797 18.6276 19.0469 18.4297 18.875C18.237 18.7083 18.0833 18.5234 17.9688 18.3203C17.8542 18.112 17.7604 17.8385 17.6875 17.5V17.4766H23.4219V16.5547C23.4219 15.9349 23.3359 15.3698 23.1641 14.8594C22.9922 14.3438 22.7422 13.9036 22.4141 13.5391C22.0807 13.1745 21.6745 12.8932 21.1953 12.6953C20.7214 12.4922 20.1797 12.3906 19.5703 12.3906C18.9818 12.3906 18.4375 12.4974 17.9375 12.7109C17.4375 12.9245 17.0052 13.224 16.6406 13.6094C16.276 13.9948 15.9922 14.4557 15.7891 14.9922C15.5859 15.5234 15.4844 16.112 15.4844 16.7578V17.0703C15.4844 17.638 15.5859 18.1719 15.7891 18.6719C15.9974 19.1667 16.2917 19.5964 16.6719 19.9609C17.0521 20.3307 17.5078 20.6224 18.0391 20.8359C18.5703 21.0495 19.1615 21.1562 19.8125 21.1562ZM19.5547 14.1484C19.8307 14.1484 20.0729 14.1927 20.2812 14.2812C20.4948 14.3646 20.6745 14.4792 20.8203 14.625C20.9661 14.776 21.0807 14.9531 21.1641 15.1563C21.2474 15.3594 21.2891 15.5755 21.2891 15.8047V15.9766L17.7266 15.9766C17.7786 15.7005 17.8568 15.4505 17.9609 15.2266C18.0651 15.0026 18.1953 14.8099 18.3516 14.6484C18.5026 14.487 18.6797 14.3646 18.8828 14.2812C19.0859 14.1927 19.3099 14.1484 19.5547 14.1484ZM25.3203 21H27.5V14.9922C27.5729 14.8776 27.6536 14.7734 27.7422 14.6797C27.8307 14.5859 27.9297 14.5052 28.0391 14.4375C28.1745 14.3438 28.3281 14.2734 28.5 14.2266C28.6771 14.1797 28.8698 14.1563 29.0781 14.1563C29.3281 14.1563 29.5521 14.1823 29.75 14.2344C29.9479 14.2813 30.1172 14.3672 30.2578 14.4922C30.3984 14.6172 30.5052 14.7891 30.5781 15.0078C30.6562 15.2214 30.6953 15.4948 30.6953 15.8281V21H32.8672V15.7969C32.8672 15.1823 32.7943 14.6615 32.6484 14.2344C32.5078 13.8021 32.3099 13.4479 32.0547 13.1719C31.7943 12.901 31.487 12.7031 31.1328 12.5781C30.7786 12.4531 30.388 12.3906 29.9609 12.3906C29.6276 12.3906 29.3125 12.4375 29.0156 12.5313C28.7188 12.625 28.4453 12.7604 28.1953 12.9375C28.0495 13.0417 27.9115 13.1589 27.7812 13.2891C27.651 13.4193 27.5312 13.5625 27.4219 13.7188L27.2891 12.5469H25.3203V21ZM38.9141 10.4766H36.7422V12.5469H34.8125V14.1484H36.7422V17.9922C36.7422 18.5495 36.8151 19.0286 36.9609 19.4297C37.1068 19.8255 37.3151 20.151 37.5859 20.4063C37.8516 20.6667 38.1719 20.8594 38.5469 20.9844C38.9271 21.1042 39.349 21.1641 39.8125 21.1641C40.0521 21.1641 40.2943 21.151 40.5391 21.125C40.7891 21.1042 41.0286 21.0729 41.2578 21.0313C41.487 20.9896 41.7031 20.9375 41.9062 20.875C42.1094 20.8073 42.2865 20.7292 42.4375 20.6406L42.2266 19.1484C42.1276 19.1745 42.0078 19.2005 41.8672 19.2266C41.7318 19.2526 41.5859 19.276 41.4297 19.2969C41.2682 19.3229 41.099 19.3438 40.9219 19.3594C40.75 19.375 40.5807 19.3828 40.4141 19.3828C40.1849 19.3828 39.9766 19.3568 39.7891 19.3047C39.6068 19.2526 39.4505 19.1641 39.3203 19.0391C39.1901 18.9193 39.0885 18.7578 39.0156 18.5547C38.9479 18.3464 38.9141 18.0885 38.9141 17.7812V14.1484H42.0703V12.5469H38.9141V10.4766ZM48.6406 21.1563C49.4583 21.1563 50.1667 20.9974 50.7656 20.6797C51.3646 20.362 51.8021 20.0078 52.0781 19.6172L50.9922 18.4453C50.7422 18.7682 50.4167 19.0104 50.0156 19.1719C49.6146 19.3333 49.2005 19.4141 48.7734 19.4141C48.4714 19.4141 48.1927 19.3672 47.9375 19.2734C47.6823 19.1797 47.4557 19.0469 47.2578 18.875C47.0651 18.7083 46.9115 18.5234 46.7969 18.3203C46.6823 18.112 46.5885 17.8385 46.5156 17.5V17.4766H52.25V16.5547C52.25 15.9349 52.1641 15.3698 51.9922 14.8594C51.8203 14.3438 51.5703 13.9036 51.2422 13.5391C50.9089 13.1745 50.5026 12.8932 50.0234 12.6953C49.5495 12.4922 49.0078 12.3906 48.3984 12.3906C47.8099 12.3906 47.2656 12.4974 46.7656 12.7109C46.2656 12.9245 45.8333 13.224 45.4688 13.6094C45.1042 13.9948 44.8203 14.4557 44.6172 14.9922C44.4141 15.5234 44.3125 16.112 44.3125 16.7578V17.0703C44.3125 17.638 44.4141 18.1719 44.6172 18.6719C44.8255 19.1667 45.1198 19.5964 45.5 19.9609C45.8802 20.3307 46.3359 20.6224 46.8672 20.8359C47.3984 21.0495 47.9896 21.1563 48.6406 21.1563ZM48.3828 14.1484C48.6589 14.1484 48.901 14.1927 49.1094 14.2813C49.3229 14.3646 49.5026 14.4792 49.6484 14.625C49.7943 14.776 49.9089 14.9531 49.9922 15.1563C50.0755 15.3594 50.1172 15.5755 50.1172 15.8047V15.9766H46.5547C46.6068 15.7005 46.6849 15.4505 46.7891 15.2266C46.8932 15.0026 47.0234 14.8099 47.1797 14.6484C47.3307 14.487 47.5078 14.3646 47.7109 14.2813C47.9141 14.1927 48.138 14.1484 48.3828 14.1484ZM60.2188 12.3906C59.651 12.3906 59.1276 12.5286 58.6484 12.8047C58.1693 13.0755 57.7578 13.4505 57.4141 13.9297L57.3984 13.7422L57.3125 12.5469H55.2891V21H57.4609V15.9219C57.5599 15.6823 57.6849 15.474 57.8359 15.2969C57.987 15.1198 58.1693 14.974 58.3828 14.8594C58.5599 14.7604 58.7604 14.6875 58.9844 14.6406C59.2135 14.5885 59.4688 14.5625 59.75 14.5625C60.0208 14.5625 60.3047 14.5807 60.6016 14.6172C60.9036 14.6484 61.1979 14.6979 61.4844 14.7656L61.8047 12.6016C61.6328 12.5495 61.4062 12.5026 61.125 12.4609C60.849 12.4141 60.5469 12.3906 60.2188 12.3906Z" fill="#12171A"/>
<rect x="186" width="135" height="29" rx="10" fill="#EFF1F3"/>
<path d="M197.555 18.6797C197.555 18.8099 197.521 18.9297 197.453 19.0391C197.391 19.1484 197.294 19.2448 197.164 19.3281C197.029 19.4115 196.854 19.4792 196.641 19.5312C196.432 19.5781 196.188 19.6016 195.906 19.6016C195.672 19.6016 195.443 19.5781 195.219 19.5312C195 19.4844 194.805 19.4089 194.633 19.3047C194.461 19.2057 194.32 19.0755 194.211 18.9141C194.102 18.7474 194.039 18.5495 194.023 18.3203H191.953C191.953 18.6641 192.036 19.0078 192.203 19.3516C192.375 19.6901 192.625 19.9922 192.953 20.2578C193.281 20.5286 193.688 20.7474 194.172 20.9141C194.661 21.0807 195.224 21.1641 195.859 21.1641C196.438 21.1641 196.961 21.1016 197.43 20.9766C197.898 20.8464 198.299 20.6667 198.633 20.4375C198.961 20.2083 199.214 19.9375 199.391 19.625C199.573 19.3073 199.664 18.9609 199.664 18.5859C199.664 18.1797 199.573 17.8307 199.391 17.5391C199.214 17.2422 198.966 16.9896 198.648 16.7812C198.331 16.5781 197.953 16.4115 197.516 16.2812C197.078 16.151 196.604 16.0443 196.094 15.9609C195.74 15.9089 195.448 15.849 195.219 15.7812C194.99 15.7083 194.81 15.6276 194.68 15.5391C194.544 15.4557 194.451 15.362 194.398 15.2578C194.346 15.1484 194.32 15.0312 194.32 14.9062C194.32 14.7812 194.349 14.6641 194.406 14.5547C194.469 14.4401 194.557 14.3411 194.672 14.2578C194.797 14.1641 194.958 14.0911 195.156 14.0391C195.354 13.987 195.586 13.9609 195.852 13.9609C196.164 13.9609 196.43 14 196.648 14.0781C196.872 14.1562 197.049 14.2604 197.18 14.3906C197.273 14.4896 197.344 14.6016 197.391 14.7266C197.438 14.8464 197.461 14.9766 197.461 15.1172H199.633C199.633 14.7266 199.547 14.3646 199.375 14.0312C199.203 13.6979 198.956 13.4089 198.633 13.1641C198.305 12.9245 197.906 12.737 197.438 12.6016C196.969 12.4609 196.44 12.3906 195.852 12.3906C195.289 12.3906 194.784 12.4609 194.336 12.6016C193.888 12.7422 193.508 12.9323 193.195 13.1719C192.883 13.4115 192.643 13.6901 192.477 14.0078C192.31 14.3255 192.227 14.6589 192.227 15.0078C192.227 15.3672 192.307 15.6849 192.469 15.9609C192.635 16.237 192.865 16.4792 193.156 16.6875C193.448 16.901 193.797 17.0833 194.203 17.2344C194.615 17.3802 195.068 17.5026 195.562 17.6016C195.953 17.6745 196.276 17.7474 196.531 17.8203C196.786 17.8932 196.992 17.9714 197.148 18.0547C197.299 18.1432 197.404 18.237 197.461 18.3359C197.523 18.4349 197.555 18.5495 197.555 18.6797ZM205.695 10.4766H203.523V12.5469H201.594V14.1484H203.523V17.9922C203.523 18.5495 203.596 19.0286 203.742 19.4297C203.888 19.8255 204.096 20.151 204.367 20.4062C204.633 20.6667 204.953 20.8594 205.328 20.9844C205.708 21.1042 206.13 21.1641 206.594 21.1641C206.833 21.1641 207.076 21.151 207.32 21.125C207.57 21.1042 207.81 21.0729 208.039 21.0312C208.268 20.9896 208.484 20.9375 208.688 20.875C208.891 20.8073 209.068 20.7292 209.219 20.6406L209.008 19.1484C208.909 19.1745 208.789 19.2005 208.648 19.2266C208.513 19.2526 208.367 19.276 208.211 19.2969C208.049 19.3229 207.88 19.3438 207.703 19.3594C207.531 19.375 207.362 19.3828 207.195 19.3828C206.966 19.3828 206.758 19.3568 206.57 19.3047C206.388 19.2526 206.232 19.1641 206.102 19.0391C205.971 18.9193 205.87 18.7578 205.797 18.5547C205.729 18.3464 205.695 18.0885 205.695 17.7812V14.1484L208.852 14.1484V12.5469L205.695 12.5469V10.4766ZM217.391 12.3906C216.823 12.3906 216.299 12.5286 215.82 12.8047C215.341 13.0755 214.93 13.4505 214.586 13.9297L214.57 13.7422L214.484 12.5469H212.461V21H214.633V15.9219C214.732 15.6823 214.857 15.474 215.008 15.2969C215.159 15.1198 215.341 14.974 215.555 14.8594C215.732 14.7604 215.932 14.6875 216.156 14.6406C216.385 14.5885 216.641 14.5625 216.922 14.5625C217.193 14.5625 217.477 14.5807 217.773 14.6172C218.076 14.6484 218.37 14.6979 218.656 14.7656L218.977 12.6016C218.805 12.5495 218.578 12.5026 218.297 12.4609C218.021 12.4141 217.719 12.3906 217.391 12.3906ZM225.031 21.1563C225.849 21.1563 226.557 20.9974 227.156 20.6797C227.755 20.362 228.193 20.0078 228.469 19.6172L227.383 18.4453C227.133 18.7682 226.807 19.0104 226.406 19.1719C226.005 19.3333 225.591 19.4141 225.164 19.4141C224.862 19.4141 224.583 19.3672 224.328 19.2734C224.073 19.1797 223.846 19.0469 223.648 18.875C223.456 18.7083 223.302 18.5234 223.188 18.3203C223.073 18.112 222.979 17.8385 222.906 17.5V17.4766H228.641V16.5547C228.641 15.9349 228.555 15.3698 228.383 14.8594C228.211 14.3438 227.961 13.9036 227.633 13.5391C227.299 13.1745 226.893 12.8932 226.414 12.6953C225.94 12.4922 225.398 12.3906 224.789 12.3906C224.201 12.3906 223.656 12.4974 223.156 12.7109C222.656 12.9245 222.224 13.224 221.859 13.6094C221.495 13.9948 221.211 14.4557 221.008 14.9922C220.805 15.5234 220.703 16.112 220.703 16.7578V17.0703C220.703 17.638 220.805 18.1719 221.008 18.6719C221.216 19.1667 221.51 19.5964 221.891 19.9609C222.271 20.3307 222.727 20.6224 223.258 20.8359C223.789 21.0495 224.38 21.1563 225.031 21.1563ZM224.773 14.1484C225.049 14.1484 225.292 14.1927 225.5 14.2813C225.714 14.3646 225.893 14.4792 226.039 14.625C226.185 14.776 226.299 14.9531 226.383 15.1563C226.466 15.3594 226.508 15.5755 226.508 15.8047V15.9766H222.945C222.997 15.7005 223.076 15.4505 223.18 15.2266C223.284 15.0026 223.414 14.8099 223.57 14.6484C223.721 14.487 223.898 14.3646 224.102 14.2813C224.305 14.1927 224.529 14.1484 224.773 14.1484ZM234.523 10.4766H232.352V12.5469H230.422V14.1484H232.352V17.9922C232.352 18.5495 232.424 19.0286 232.57 19.4297C232.716 19.8255 232.924 20.151 233.195 20.4063C233.461 20.6667 233.781 20.8594 234.156 20.9844C234.536 21.1042 234.958 21.1641 235.422 21.1641C235.661 21.1641 235.904 21.151 236.148 21.125C236.398 21.1042 236.638 21.0729 236.867 21.0313C237.096 20.9896 237.312 20.9375 237.516 20.875C237.719 20.8073 237.896 20.7292 238.047 20.6406L237.836 19.1484C237.737 19.1745 237.617 19.2005 237.477 19.2266C237.341 19.2526 237.195 19.276 237.039 19.2969C236.878 19.3229 236.708 19.3438 236.531 19.3594C236.359 19.375 236.19 19.3828 236.023 19.3828C235.794 19.3828 235.586 19.3568 235.398 19.3047C235.216 19.2526 235.06 19.1641 234.93 19.0391C234.799 18.9193 234.698 18.7578 234.625 18.5547C234.557 18.3464 234.523 18.0885 234.523 17.7812V14.1484H237.68V12.5469H234.523V10.4766ZM243.891 19.4219C243.542 19.4219 243.253 19.3516 243.023 19.2109C242.799 19.0703 242.622 18.8828 242.492 18.6484C242.357 18.4193 242.263 18.1536 242.211 17.8516C242.159 17.5443 242.133 17.2266 242.133 16.8984V16.6641C242.133 16.3411 242.159 16.0286 242.211 15.7266C242.268 15.4245 242.365 15.1563 242.5 14.9219C242.63 14.6875 242.807 14.5 243.031 14.3594C243.255 14.2188 243.539 14.1484 243.883 14.1484C244.117 14.1484 244.333 14.1901 244.531 14.2734C244.729 14.3516 244.898 14.4583 245.039 14.5938C245.18 14.7292 245.286 14.8906 245.359 15.0781C245.432 15.2656 245.464 15.4635 245.453 15.6719H247.5C247.51 15.1719 247.427 14.7214 247.25 14.3203C247.073 13.9141 246.826 13.5677 246.508 13.2813C246.185 13 245.802 12.7813 245.359 12.625C244.917 12.4688 244.435 12.3906 243.914 12.3906C243.263 12.3906 242.69 12.5026 242.195 12.7266C241.706 12.9505 241.294 13.2552 240.961 13.6406C240.628 14.026 240.378 14.4792 240.211 15C240.044 15.5156 239.961 16.0703 239.961 16.6641V16.8984C239.961 17.4922 240.044 18.0495 240.211 18.5703C240.383 19.0859 240.635 19.5365 240.969 19.9219C241.297 20.3073 241.708 20.612 242.203 20.8359C242.698 21.0547 243.273 21.1641 243.93 21.1641C244.414 21.1641 244.872 21.0885 245.305 20.9375C245.742 20.7813 246.125 20.5677 246.453 20.2969C246.781 20.026 247.039 19.7031 247.227 19.3281C247.419 18.9531 247.51 18.5469 247.5 18.1094H245.453C245.464 18.3073 245.427 18.487 245.344 18.6484C245.266 18.8099 245.154 18.9479 245.008 19.0625C244.862 19.1771 244.693 19.2656 244.5 19.3281C244.307 19.3906 244.104 19.4219 243.891 19.4219ZM251.93 13.7109V9H249.758V21H251.93V14.8984C252.013 14.7891 252.104 14.6901 252.203 14.6016C252.307 14.513 252.422 14.4375 252.547 14.375C252.682 14.3021 252.833 14.2474 253 14.2109C253.167 14.1745 253.346 14.1563 253.539 14.1563C253.789 14.1563 254.013 14.1901 254.211 14.2578C254.409 14.3203 254.578 14.4193 254.719 14.5547C254.859 14.6901 254.966 14.8672 255.039 15.0859C255.117 15.3047 255.156 15.5651 255.156 15.8672V21H257.328V15.8828C257.328 15.263 257.253 14.7344 257.102 14.2969C256.956 13.8542 256.75 13.4922 256.484 13.2109C256.219 12.9297 255.901 12.724 255.531 12.5938C255.161 12.4583 254.755 12.3906 254.312 12.3906C254.01 12.3906 253.724 12.4349 253.453 12.5234C253.182 12.612 252.935 12.737 252.711 12.8984C252.565 13.0026 252.424 13.125 252.289 13.2656C252.159 13.401 252.039 13.5495 251.93 13.7109ZM271.617 21.9766L275.875 9.625H273.852L269.594 21.9766H271.617ZM292.297 21.1563C293.115 21.1563 293.823 20.9974 294.422 20.6797C295.021 20.362 295.458 20.0078 295.734 19.6172L294.648 18.4453C294.398 18.7682 294.073 19.0104 293.672 19.1719C293.271 19.3333 292.857 19.4141 292.43 19.4141C292.128 19.4141 291.849 19.3672 291.594 19.2734C291.339 19.1797 291.112 19.0469 290.914 18.875C290.721 18.7083 290.568 18.5234 290.453 18.3203C290.339 18.112 290.245 17.8385 290.172 17.5V17.4766H295.906V16.5547C295.906 15.9349 295.82 15.3698 295.648 14.8594C295.477 14.3438 295.227 13.9036 294.898 13.5391C294.565 13.1745 294.159 12.8932 293.68 12.6953C293.206 12.4922 292.664 12.3906 292.055 12.3906C291.466 12.3906 290.922 12.4974 290.422 12.7109C289.922 12.9245 289.49 13.224 289.125 13.6094C288.76 13.9948 288.477 14.4557 288.273 14.9922C288.07 15.5234 287.969 16.112 287.969 16.7578V17.0703C287.969 17.638 288.07 18.1719 288.273 18.6719C288.482 19.1667 288.776 19.5964 289.156 19.9609C289.536 20.3307 289.992 20.6224 290.523 20.8359C291.055 21.0495 291.646 21.1563 292.297 21.1563ZM292.039 14.1484C292.315 14.1484 292.557 14.1927 292.766 14.2813C292.979 14.3646 293.159 14.4792 293.305 14.625C293.451 14.776 293.565 14.9531 293.648 15.1563C293.732 15.3594 293.773 15.5755 293.773 15.8047V15.9766H290.211C290.263 15.7005 290.341 15.4505 290.445 15.2266C290.549 15.0026 290.68 14.8099 290.836 14.6484C290.987 14.487 291.164 14.3646 291.367 14.2813C291.57 14.1927 291.794 14.1484 292.039 14.1484ZM297.805 21H299.984V14.9922C300.057 14.8776 300.138 14.7734 300.227 14.6797C300.315 14.5859 300.414 14.5052 300.523 14.4375C300.659 14.3438 300.812 14.2734 300.984 14.2266C301.161 14.1797 301.354 14.1563 301.562 14.1563C301.812 14.1563 302.036 14.1823 302.234 14.2344C302.432 14.2813 302.602 14.3672 302.742 14.4922C302.883 14.6172 302.99 14.7891 303.062 15.0078C303.141 15.2214 303.18 15.4948 303.18 15.8281V21H305.352V15.7969C305.352 15.1823 305.279 14.6615 305.133 14.2344C304.992 13.8021 304.794 13.4479 304.539 13.1719C304.279 12.901 303.971 12.7031 303.617 12.5781C303.263 12.4531 302.872 12.3906 302.445 12.3906C302.112 12.3906 301.797 12.4375 301.5 12.5313C301.203 12.625 300.93 12.7604 300.68 12.9375C300.534 13.0417 300.396 13.1589 300.266 13.2891C300.135 13.4193 300.016 13.5625 299.906 13.7188L299.773 12.5469H297.805V21ZM307.188 16.7109V16.875C307.188 17.4896 307.263 18.0599 307.414 18.5859C307.565 19.1068 307.784 19.5573 308.07 19.9375C308.352 20.3177 308.695 20.6172 309.102 20.8359C309.513 21.0495 309.977 21.1563 310.492 21.1563C310.966 21.1563 311.383 21.0651 311.742 20.8828C312.102 20.7005 312.414 20.4453 312.68 20.1172L312.789 21H314.75V9H312.57V13.3047C312.31 13.013 312.01 12.7891 311.672 12.6328C311.339 12.4714 310.951 12.3906 310.508 12.3906C309.982 12.3906 309.513 12.4948 309.102 12.7031C308.695 12.9115 308.349 13.2057 308.062 13.5859C307.776 13.9661 307.557 14.4219 307.406 14.9531C307.26 15.4844 307.188 16.0703 307.188 16.7109ZM309.359 16.875V16.7109C309.359 16.3568 309.391 16.026 309.453 15.7188C309.516 15.4063 309.615 15.1328 309.75 14.8984C309.885 14.6693 310.06 14.4896 310.273 14.3594C310.492 14.224 310.755 14.1563 311.062 14.1563C311.432 14.1563 311.74 14.237 311.984 14.3984C312.229 14.5547 312.424 14.776 312.57 15.0625V18.4844C312.424 18.7656 312.227 18.987 311.977 19.1484C311.732 19.3099 311.422 19.3906 311.047 19.3906C310.74 19.3906 310.479 19.3255 310.266 19.1953C310.052 19.0651 309.878 18.8854 309.742 18.6563C309.607 18.4323 309.508 18.1693 309.445 17.8672C309.388 17.5599 309.359 17.2292 309.359 16.875Z" fill="#12171A"/>
<rect x="1" y="35" width="177" height="101" rx="9" fill="#EFF1F3" stroke="#DADFE2" stroke-width="2"/>
<rect x="187" y="35" width="177" height="101" rx="9" fill="#EFF1F3" stroke="#DADFE2" stroke-width="2"/>
<rect x="33" y="44" width="113" height="83" rx="8" fill="#EAD6F8"/>
<line x1="33" y1="85.5" x2="146" y2="85.5" stroke="#6E33A6"/>
<line x1="89.5" y1="44" x2="89.5" y2="127" stroke="#6E33A6"/>
<rect x="105.5" y="55.5" width="24" height="19" rx="4.5" fill="#5ED4B9" stroke="#147264"/>
<rect x="92.5" y="88.5" width="24" height="19" rx="4.5" fill="#B688E0" stroke="#6E33A6"/>
<rect x="35.5" y="46.5" width="24" height="19" rx="3.5" fill="#B688E0" stroke="#6E33A6"/>
<rect x="35.5" y="88.5" width="24" height="19" rx="4.5" fill="#B688E0" stroke="#6E33A6"/>
<rect x="219" y="44" width="113" height="83" rx="8" fill="#EAD6F8"/>
<line x1="219" y1="85.5" x2="332" y2="85.5" stroke="#6E33A6"/>
<line x1="275.5" y1="44" x2="275.5" y2="127" stroke="#6E33A6"/>
<rect x="305.5" y="46.5" width="24" height="36" rx="4.5" fill="#5ED4B9" stroke="#147264"/>
<rect x="278.5" y="88.5" width="24" height="19" rx="4.5" fill="#B688E0" stroke="#6E33A6"/>
<rect x="221.5" y="46.5" width="24" height="19" rx="3.5" fill="#B688E0" stroke="#6E33A6"/>
<rect x="221.5" y="88.5" width="24" height="19" rx="4.5" fill="#B688E0" stroke="#6E33A6"/>
</svg>
