<svg width="382" height="137" viewBox="0 0 382 137" fill="none" xmlns="http://www.w3.org/2000/svg">
<rect x="1" y="35" width="177" height="101" rx="9" fill="#EFF1F3" stroke="#DADFE2" stroke-width="2"/>
<rect x="204" y="35" width="177" height="101" rx="9" fill="#EFF1F3" stroke="#DADFE2" stroke-width="2"/>
<rect x="34.5" y="41.5" width="44" height="38" rx="7.5" fill="#B688E0" stroke="#6E33A6"/>
<rect x="268.5" y="37.5" width="44" height="38" rx="7.5" fill="#B688E0" stroke="#6E33A6"/>
<rect x="34.5" y="91.5" width="44" height="38" rx="7.5" fill="#B688E0" stroke="#6E33A6"/>
<rect x="268.5" y="87.5" width="44" height="38" rx="7.5" fill="#B688E0" stroke="#6E33A6"/>
<rect x="122.5" y="41.5" width="44" height="38" rx="7.5" fill="#B688E0" stroke="#6E33A6"/>
<rect x="334.5" y="37.5" width="44" height="38" rx="7.5" fill="#B688E0" stroke="#6E33A6"/>
<rect x="122.5" y="91.5" width="44" height="38" rx="7.5" fill="#B688E0" stroke="#6E33A6"/>
<rect x="334.5" y="87.5" width="44" height="38" rx="7.5" fill="#B688E0" stroke="#6E33A6"/>
<rect width="68" height="29" rx="10" fill="#EFF1F3"/>
<rect x="203" width="116" height="29" rx="10" fill="#EFF1F3"/>
<path d="M9.84375 19.4219C9.49479 19.4219 9.20573 19.3516 8.97656 19.2109C8.7526 19.0703 8.57552 18.8828 8.44531 18.6484C8.3099 18.4193 8.21615 18.1536 8.16406 17.8516C8.11198 17.5443 8.08594 17.2266 8.08594 16.8984V16.6641C8.08594 16.3411 8.11198 16.0286 8.16406 15.7266C8.22135 15.4245 8.31771 15.1562 8.45312 14.9219C8.58333 14.6875 8.76042 14.5 8.98438 14.3594C9.20833 14.2188 9.49219 14.1484 9.83594 14.1484C10.0703 14.1484 10.2865 14.1901 10.4844 14.2734C10.6823 14.3516 10.8516 14.4583 10.9922 14.5938C11.1328 14.7292 11.2396 14.8906 11.3125 15.0781C11.3854 15.2656 11.4167 15.4635 11.4062 15.6719H13.4531C13.4635 15.1719 13.3802 14.7214 13.2031 14.3203C13.026 13.9141 12.7786 13.5677 12.4609 13.2812C12.138 13 11.7552 12.7812 11.3125 12.625C10.8698 12.4688 10.388 12.3906 9.86719 12.3906C9.21615 12.3906 8.64323 12.5026 8.14844 12.7266C7.65885 12.9505 7.2474 13.2552 6.91406 13.6406C6.58073 14.026 6.33073 14.4792 6.16406 15C5.9974 15.5156 5.91406 16.0703 5.91406 16.6641V16.8984C5.91406 17.4922 5.9974 18.0495 6.16406 18.5703C6.33594 19.0859 6.58854 19.5365 6.92187 19.9219C7.25 20.3073 7.66146 20.612 8.15625 20.8359C8.65104 21.0547 9.22656 21.1641 9.88281 21.1641C10.3672 21.1641 10.8255 21.0885 11.2578 20.9375C11.6953 20.7812 12.0781 20.5677 12.4062 20.2969C12.7344 20.026 12.9922 19.7031 13.1797 19.3281C13.3724 18.9531 13.4635 18.5469 13.4531 18.1094H11.4062C11.4167 18.3073 11.3802 18.487 11.2969 18.6484C11.2188 18.8099 11.1068 18.9479 10.9609 19.0625C10.8151 19.1771 10.6458 19.2656 10.4531 19.3281C10.2604 19.3906 10.0573 19.4219 9.84375 19.4219ZM19.8125 21.1562C20.6302 21.1562 21.3385 20.9974 21.9375 20.6797C22.5365 20.362 22.974 20.0078 23.25 19.6172L22.1641 18.4453C21.9141 18.7682 21.5885 19.0104 21.1875 19.1719C20.7865 19.3333 20.3724 19.4141 19.9453 19.4141C19.6432 19.4141 19.3646 19.3672 19.1094 19.2734C18.8542 19.1797 18.6276 19.0469 18.4297 18.875C18.237 18.7083 18.0833 18.5234 17.9688 18.3203C17.8542 18.112 17.7604 17.8385 17.6875 17.5V17.4766H23.4219V16.5547C23.4219 15.9349 23.3359 15.3698 23.1641 14.8594C22.9922 14.3438 22.7422 13.9036 22.4141 13.5391C22.0807 13.1745 21.6745 12.8932 21.1953 12.6953C20.7214 12.4922 20.1797 12.3906 19.5703 12.3906C18.9818 12.3906 18.4375 12.4974 17.9375 12.7109C17.4375 12.9245 17.0052 13.224 16.6406 13.6094C16.276 13.9948 15.9922 14.4557 15.7891 14.9922C15.5859 15.5234 15.4844 16.112 15.4844 16.7578V17.0703C15.4844 17.638 15.5859 18.1719 15.7891 18.6719C15.9974 19.1667 16.2917 19.5964 16.6719 19.9609C17.0521 20.3307 17.5078 20.6224 18.0391 20.8359C18.5703 21.0495 19.1615 21.1562 19.8125 21.1562ZM19.5547 14.1484C19.8307 14.1484 20.0729 14.1927 20.2812 14.2812C20.4948 14.3646 20.6745 14.4792 20.8203 14.625C20.9661 14.776 21.0807 14.9531 21.1641 15.1563C21.2474 15.3594 21.2891 15.5755 21.2891 15.8047V15.9766L17.7266 15.9766C17.7786 15.7005 17.8568 15.4505 17.9609 15.2266C18.0651 15.0026 18.1953 14.8099 18.3516 14.6484C18.5026 14.487 18.6797 14.3646 18.8828 14.2812C19.0859 14.1927 19.3099 14.1484 19.5547 14.1484ZM25.3203 21H27.5V14.9922C27.5729 14.8776 27.6536 14.7734 27.7422 14.6797C27.8307 14.5859 27.9297 14.5052 28.0391 14.4375C28.1745 14.3438 28.3281 14.2734 28.5 14.2266C28.6771 14.1797 28.8698 14.1563 29.0781 14.1563C29.3281 14.1563 29.5521 14.1823 29.75 14.2344C29.9479 14.2813 30.1172 14.3672 30.2578 14.4922C30.3984 14.6172 30.5052 14.7891 30.5781 15.0078C30.6562 15.2214 30.6953 15.4948 30.6953 15.8281V21H32.8672V15.7969C32.8672 15.1823 32.7943 14.6615 32.6484 14.2344C32.5078 13.8021 32.3099 13.4479 32.0547 13.1719C31.7943 12.901 31.487 12.7031 31.1328 12.5781C30.7786 12.4531 30.388 12.3906 29.9609 12.3906C29.6276 12.3906 29.3125 12.4375 29.0156 12.5313C28.7188 12.625 28.4453 12.7604 28.1953 12.9375C28.0495 13.0417 27.9115 13.1589 27.7812 13.2891C27.651 13.4193 27.5312 13.5625 27.4219 13.7188L27.2891 12.5469H25.3203V21ZM38.9141 10.4766H36.7422V12.5469H34.8125V14.1484H36.7422V17.9922C36.7422 18.5495 36.8151 19.0286 36.9609 19.4297C37.1068 19.8255 37.3151 20.151 37.5859 20.4063C37.8516 20.6667 38.1719 20.8594 38.5469 20.9844C38.9271 21.1042 39.349 21.1641 39.8125 21.1641C40.0521 21.1641 40.2943 21.151 40.5391 21.125C40.7891 21.1042 41.0286 21.0729 41.2578 21.0313C41.487 20.9896 41.7031 20.9375 41.9062 20.875C42.1094 20.8073 42.2865 20.7292 42.4375 20.6406L42.2266 19.1484C42.1276 19.1745 42.0078 19.2005 41.8672 19.2266C41.7318 19.2526 41.5859 19.276 41.4297 19.2969C41.2682 19.3229 41.099 19.3438 40.9219 19.3594C40.75 19.375 40.5807 19.3828 40.4141 19.3828C40.1849 19.3828 39.9766 19.3568 39.7891 19.3047C39.6068 19.2526 39.4505 19.1641 39.3203 19.0391C39.1901 18.9193 39.0885 18.7578 39.0156 18.5547C38.9479 18.3464 38.9141 18.0885 38.9141 17.7812V14.1484H42.0703V12.5469H38.9141V10.4766ZM48.6406 21.1563C49.4583 21.1563 50.1667 20.9974 50.7656 20.6797C51.3646 20.362 51.8021 20.0078 52.0781 19.6172L50.9922 18.4453C50.7422 18.7682 50.4167 19.0104 50.0156 19.1719C49.6146 19.3333 49.2005 19.4141 48.7734 19.4141C48.4714 19.4141 48.1927 19.3672 47.9375 19.2734C47.6823 19.1797 47.4557 19.0469 47.2578 18.875C47.0651 18.7083 46.9115 18.5234 46.7969 18.3203C46.6823 18.112 46.5885 17.8385 46.5156 17.5V17.4766H52.25V16.5547C52.25 15.9349 52.1641 15.3698 51.9922 14.8594C51.8203 14.3438 51.5703 13.9036 51.2422 13.5391C50.9089 13.1745 50.5026 12.8932 50.0234 12.6953C49.5495 12.4922 49.0078 12.3906 48.3984 12.3906C47.8099 12.3906 47.2656 12.4974 46.7656 12.7109C46.2656 12.9245 45.8333 13.224 45.4688 13.6094C45.1042 13.9948 44.8203 14.4557 44.6172 14.9922C44.4141 15.5234 44.3125 16.112 44.3125 16.7578V17.0703C44.3125 17.638 44.4141 18.1719 44.6172 18.6719C44.8255 19.1667 45.1198 19.5964 45.5 19.9609C45.8802 20.3307 46.3359 20.6224 46.8672 20.8359C47.3984 21.0495 47.9896 21.1563 48.6406 21.1563ZM48.3828 14.1484C48.6589 14.1484 48.901 14.1927 49.1094 14.2813C49.3229 14.3646 49.5026 14.4792 49.6484 14.625C49.7943 14.776 49.9089 14.9531 49.9922 15.1563C50.0755 15.3594 50.1172 15.5755 50.1172 15.8047V15.9766H46.5547C46.6068 15.7005 46.6849 15.4505 46.7891 15.2266C46.8932 15.0026 47.0234 14.8099 47.1797 14.6484C47.3307 14.487 47.5078 14.3646 47.7109 14.2813C47.9141 14.1927 48.138 14.1484 48.3828 14.1484ZM60.2188 12.3906C59.651 12.3906 59.1276 12.5286 58.6484 12.8047C58.1693 13.0755 57.7578 13.4505 57.4141 13.9297L57.3984 13.7422L57.3125 12.5469H55.2891V21H57.4609V15.9219C57.5599 15.6823 57.6849 15.474 57.8359 15.2969C57.987 15.1198 58.1693 14.974 58.3828 14.8594C58.5599 14.7604 58.7604 14.6875 58.9844 14.6406C59.2135 14.5885 59.4688 14.5625 59.75 14.5625C60.0208 14.5625 60.3047 14.5807 60.6016 14.6172C60.9036 14.6484 61.1979 14.6979 61.4844 14.7656L61.8047 12.6016C61.6328 12.5495 61.4062 12.5026 61.125 12.4609C60.849 12.4141 60.5469 12.3906 60.2188 12.3906Z" fill="#12171A"/>
<path d="M214.555 18.6797C214.555 18.8099 214.521 18.9297 214.453 19.0391C214.391 19.1484 214.294 19.2448 214.164 19.3281C214.029 19.4115 213.854 19.4792 213.641 19.5312C213.432 19.5781 213.188 19.6016 212.906 19.6016C212.672 19.6016 212.443 19.5781 212.219 19.5312C212 19.4844 211.805 19.4089 211.633 19.3047C211.461 19.2057 211.32 19.0755 211.211 18.9141C211.102 18.7474 211.039 18.5495 211.023 18.3203H208.953C208.953 18.6641 209.036 19.0078 209.203 19.3516C209.375 19.6901 209.625 19.9922 209.953 20.2578C210.281 20.5286 210.688 20.7474 211.172 20.9141C211.661 21.0807 212.224 21.1641 212.859 21.1641C213.438 21.1641 213.961 21.1016 214.43 20.9766C214.898 20.8464 215.299 20.6667 215.633 20.4375C215.961 20.2083 216.214 19.9375 216.391 19.625C216.573 19.3073 216.664 18.9609 216.664 18.5859C216.664 18.1797 216.573 17.8307 216.391 17.5391C216.214 17.2422 215.966 16.9896 215.648 16.7812C215.331 16.5781 214.953 16.4115 214.516 16.2812C214.078 16.151 213.604 16.0443 213.094 15.9609C212.74 15.9089 212.448 15.849 212.219 15.7812C211.99 15.7083 211.81 15.6276 211.68 15.5391C211.544 15.4557 211.451 15.362 211.398 15.2578C211.346 15.1484 211.32 15.0312 211.32 14.9062C211.32 14.7812 211.349 14.6641 211.406 14.5547C211.469 14.4401 211.557 14.3411 211.672 14.2578C211.797 14.1641 211.958 14.0911 212.156 14.0391C212.354 13.987 212.586 13.9609 212.852 13.9609C213.164 13.9609 213.43 14 213.648 14.0781C213.872 14.1562 214.049 14.2604 214.18 14.3906C214.273 14.4896 214.344 14.6016 214.391 14.7266C214.438 14.8464 214.461 14.9766 214.461 15.1172H216.633C216.633 14.7266 216.547 14.3646 216.375 14.0312C216.203 13.6979 215.956 13.4089 215.633 13.1641C215.305 12.9245 214.906 12.737 214.438 12.6016C213.969 12.4609 213.44 12.3906 212.852 12.3906C212.289 12.3906 211.784 12.4609 211.336 12.6016C210.888 12.7422 210.508 12.9323 210.195 13.1719C209.883 13.4115 209.643 13.6901 209.477 14.0078C209.31 14.3255 209.227 14.6589 209.227 15.0078C209.227 15.3672 209.307 15.6849 209.469 15.9609C209.635 16.237 209.865 16.4792 210.156 16.6875C210.448 16.901 210.797 17.0833 211.203 17.2344C211.615 17.3802 212.068 17.5026 212.562 17.6016C212.953 17.6745 213.276 17.7474 213.531 17.8203C213.786 17.8932 213.992 17.9714 214.148 18.0547C214.299 18.1432 214.404 18.237 214.461 18.3359C214.523 18.4349 214.555 18.5495 214.555 18.6797ZM222.695 10.4766H220.523V12.5469H218.594V14.1484H220.523V17.9922C220.523 18.5495 220.596 19.0286 220.742 19.4297C220.888 19.8255 221.096 20.151 221.367 20.4062C221.633 20.6667 221.953 20.8594 222.328 20.9844C222.708 21.1042 223.13 21.1641 223.594 21.1641C223.833 21.1641 224.076 21.151 224.32 21.125C224.57 21.1042 224.81 21.0729 225.039 21.0312C225.268 20.9896 225.484 20.9375 225.688 20.875C225.891 20.8073 226.068 20.7292 226.219 20.6406L226.008 19.1484C225.909 19.1745 225.789 19.2005 225.648 19.2266C225.513 19.2526 225.367 19.276 225.211 19.2969C225.049 19.3229 224.88 19.3438 224.703 19.3594C224.531 19.375 224.362 19.3828 224.195 19.3828C223.966 19.3828 223.758 19.3568 223.57 19.3047C223.388 19.2526 223.232 19.1641 223.102 19.0391C222.971 18.9193 222.87 18.7578 222.797 18.5547C222.729 18.3464 222.695 18.0885 222.695 17.7812V14.1484L225.852 14.1484V12.5469L222.695 12.5469V10.4766ZM233.602 21H235.805V20.8672C235.695 20.6536 235.612 20.3984 235.555 20.1016C235.497 19.8047 235.469 19.4297 235.469 18.9766V15.3516C235.469 14.862 235.378 14.4323 235.195 14.0625C235.013 13.6875 234.76 13.3776 234.438 13.1328C234.115 12.888 233.732 12.7031 233.289 12.5781C232.852 12.4531 232.378 12.3906 231.867 12.3906C231.299 12.3906 230.794 12.4635 230.352 12.6094C229.914 12.75 229.544 12.9427 229.242 13.1875C228.935 13.4323 228.701 13.7161 228.539 14.0391C228.383 14.362 228.305 14.7031 228.305 15.0625H230.477C230.477 14.9115 230.497 14.7734 230.539 14.6484C230.586 14.5234 230.656 14.4167 230.75 14.3281C230.854 14.2292 230.99 14.1536 231.156 14.1016C231.323 14.0443 231.521 14.0156 231.75 14.0156C232.01 14.0156 232.237 14.0495 232.43 14.1172C232.628 14.1797 232.792 14.2708 232.922 14.3906C233.047 14.5052 233.141 14.6432 233.203 14.8047C233.266 14.9609 233.297 15.138 233.297 15.3359V15.8359H232.086C231.461 15.8359 230.906 15.8932 230.422 16.0078C229.943 16.1172 229.539 16.2786 229.211 16.4922C228.846 16.7266 228.573 17.026 228.391 17.3906C228.208 17.75 228.117 18.1641 228.117 18.6328C228.117 18.9974 228.19 19.3359 228.336 19.6484C228.482 19.9557 228.685 20.2214 228.945 20.4453C229.206 20.6693 229.516 20.8438 229.875 20.9688C230.24 21.0938 230.638 21.1562 231.07 21.1562C231.336 21.1562 231.583 21.1302 231.812 21.0781C232.042 21.0312 232.253 20.9635 232.445 20.875C232.633 20.7917 232.805 20.6927 232.961 20.5781C233.117 20.4635 233.255 20.3411 233.375 20.2109C233.401 20.362 233.432 20.5052 233.469 20.6406C233.505 20.776 233.549 20.8958 233.602 21ZM231.531 19.4766C231.328 19.4766 231.148 19.4531 230.992 19.4062C230.841 19.3542 230.714 19.2865 230.609 19.2031C230.505 19.1146 230.424 19.0078 230.367 18.8828C230.315 18.7526 230.289 18.612 230.289 18.4609C230.289 18.2682 230.326 18.0911 230.398 17.9297C230.471 17.763 230.583 17.6198 230.734 17.5C230.885 17.3854 231.081 17.2969 231.32 17.2344C231.56 17.1667 231.849 17.1328 232.188 17.1328H233.297V18.5859C233.234 18.6953 233.148 18.8047 233.039 18.9141C232.93 19.0182 232.799 19.112 232.648 19.1953C232.497 19.2786 232.328 19.3464 232.141 19.3984C231.953 19.4505 231.75 19.4766 231.531 19.4766ZM244 12.3906C243.432 12.3906 242.909 12.5286 242.43 12.8047C241.951 13.0755 241.539 13.4505 241.195 13.9297L241.18 13.7422L241.094 12.5469H239.07V21L241.242 21V15.9219C241.341 15.6823 241.466 15.474 241.617 15.2969C241.768 15.1198 241.951 14.974 242.164 14.8594C242.341 14.7604 242.542 14.6875 242.766 14.6406C242.995 14.5885 243.25 14.5625 243.531 14.5625C243.802 14.5625 244.086 14.5807 244.383 14.6172C244.685 14.6484 244.979 14.6979 245.266 14.7656L245.586 12.6016C245.414 12.5495 245.188 12.5026 244.906 12.4609C244.63 12.4141 244.328 12.3906 244 12.3906ZM251.523 10.4766H249.352V12.5469H247.422V14.1484H249.352V17.9922C249.352 18.5495 249.424 19.0286 249.57 19.4297C249.716 19.8255 249.924 20.151 250.195 20.4063C250.461 20.6667 250.781 20.8594 251.156 20.9844C251.536 21.1042 251.958 21.1641 252.422 21.1641C252.661 21.1641 252.904 21.151 253.148 21.125C253.398 21.1042 253.638 21.0729 253.867 21.0313C254.096 20.9896 254.312 20.9375 254.516 20.875C254.719 20.8073 254.896 20.7292 255.047 20.6406L254.836 19.1484C254.737 19.1745 254.617 19.2005 254.477 19.2266C254.341 19.2526 254.195 19.276 254.039 19.2969C253.878 19.3229 253.708 19.3438 253.531 19.3594C253.359 19.375 253.19 19.3828 253.023 19.3828C252.794 19.3828 252.586 19.3568 252.398 19.3047C252.216 19.2526 252.06 19.1641 251.93 19.0391C251.799 18.9193 251.698 18.7578 251.625 18.5547C251.557 18.3464 251.523 18.0885 251.523 17.7812V14.1484H254.68V12.5469H251.523V10.4766ZM269.398 21.9766L273.656 9.625H271.633L267.375 21.9766H269.398ZM290.078 21.1563C290.896 21.1563 291.604 20.9974 292.203 20.6797C292.802 20.362 293.24 20.0078 293.516 19.6172L292.43 18.4453C292.18 18.7682 291.854 19.0104 291.453 19.1719C291.052 19.3333 290.638 19.4141 290.211 19.4141C289.909 19.4141 289.63 19.3672 289.375 19.2734C289.12 19.1797 288.893 19.0469 288.695 18.875C288.503 18.7083 288.349 18.5234 288.234 18.3203C288.12 18.112 288.026 17.8385 287.953 17.5V17.4766L293.688 17.4766V16.5547C293.688 15.9349 293.602 15.3698 293.43 14.8594C293.258 14.3438 293.008 13.9036 292.68 13.5391C292.346 13.1745 291.94 12.8932 291.461 12.6953C290.987 12.4922 290.445 12.3906 289.836 12.3906C289.247 12.3906 288.703 12.4974 288.203 12.7109C287.703 12.9245 287.271 13.224 286.906 13.6094C286.542 13.9948 286.258 14.4557 286.055 14.9922C285.852 15.5234 285.75 16.112 285.75 16.7578V17.0703C285.75 17.638 285.852 18.1719 286.055 18.6719C286.263 19.1667 286.557 19.5964 286.938 19.9609C287.318 20.3307 287.773 20.6224 288.305 20.8359C288.836 21.0495 289.427 21.1563 290.078 21.1563ZM289.82 14.1484C290.096 14.1484 290.339 14.1927 290.547 14.2813C290.76 14.3646 290.94 14.4792 291.086 14.625C291.232 14.776 291.346 14.9531 291.43 15.1563C291.513 15.3594 291.555 15.5755 291.555 15.8047V15.9766L287.992 15.9766C288.044 15.7005 288.122 15.4505 288.227 15.2266C288.331 15.0026 288.461 14.8099 288.617 14.6484C288.768 14.487 288.945 14.3646 289.148 14.2813C289.352 14.1927 289.576 14.1484 289.82 14.1484ZM295.586 21H297.766V14.9922C297.839 14.8776 297.919 14.7734 298.008 14.6797C298.096 14.5859 298.195 14.5052 298.305 14.4375C298.44 14.3438 298.594 14.2734 298.766 14.2266C298.943 14.1797 299.135 14.1563 299.344 14.1563C299.594 14.1563 299.818 14.1823 300.016 14.2344C300.214 14.2813 300.383 14.3672 300.523 14.4922C300.664 14.6172 300.771 14.7891 300.844 15.0078C300.922 15.2214 300.961 15.4948 300.961 15.8281V21H303.133V15.7969C303.133 15.1823 303.06 14.6615 302.914 14.2344C302.773 13.8021 302.576 13.4479 302.32 13.1719C302.06 12.901 301.753 12.7031 301.398 12.5781C301.044 12.4531 300.654 12.3906 300.227 12.3906C299.893 12.3906 299.578 12.4375 299.281 12.5313C298.984 12.625 298.711 12.7604 298.461 12.9375C298.315 13.0417 298.177 13.1589 298.047 13.2891C297.917 13.4193 297.797 13.5625 297.688 13.7188L297.555 12.5469H295.586V21ZM304.969 16.7109V16.875C304.969 17.4896 305.044 18.0599 305.195 18.5859C305.346 19.1068 305.565 19.5573 305.852 19.9375C306.133 20.3177 306.477 20.6172 306.883 20.8359C307.294 21.0495 307.758 21.1563 308.273 21.1563C308.747 21.1563 309.164 21.0651 309.523 20.8828C309.883 20.7005 310.195 20.4453 310.461 20.1172L310.57 21H312.531V9L310.352 9V13.3047C310.091 13.013 309.792 12.7891 309.453 12.6328C309.12 12.4714 308.732 12.3906 308.289 12.3906C307.763 12.3906 307.294 12.4948 306.883 12.7031C306.477 12.9115 306.13 13.2057 305.844 13.5859C305.557 13.9661 305.339 14.4219 305.188 14.9531C305.042 15.4844 304.969 16.0703 304.969 16.7109ZM307.141 16.875V16.7109C307.141 16.3568 307.172 16.026 307.234 15.7188C307.297 15.4063 307.396 15.1328 307.531 14.8984C307.667 14.6693 307.841 14.4896 308.055 14.3594C308.273 14.224 308.536 14.1563 308.844 14.1563C309.214 14.1563 309.521 14.237 309.766 14.3984C310.01 14.5547 310.206 14.776 310.352 15.0625V18.4844C310.206 18.7656 310.008 18.987 309.758 19.1484C309.513 19.3099 309.203 19.3906 308.828 19.3906C308.521 19.3906 308.26 19.3255 308.047 19.1953C307.833 19.0651 307.659 18.8854 307.523 18.6563C307.388 18.4323 307.289 18.1693 307.227 17.8672C307.169 17.5599 307.141 17.2292 307.141 16.875Z" fill="#12171A"/>
<line x1="111.5" y1="34" x2="111.5" y2="137" stroke="#6E33A6"/>
<line x1="314.5" y1="34" x2="314.5" y2="137" stroke="#6E33A6"/>
<line y1="85.5" x2="179" y2="85.5" stroke="#6E33A6"/>
<line x1="203" y1="85.5" x2="382" y2="85.5" stroke="#6E33A6"/>
</svg>
