<svg width="159" height="28" viewBox="0 0 159 28" fill="none" xmlns="http://www.w3.org/2000/svg">
<path d="M42.3563 5.70398V22H46.7523V5.70398H52.7443V2.00798H36.3643V5.70398H42.3563Z" fill="black"/>
<path d="M52.0591 7.52398V22H56.0351V15.476C56.0351 14.8226 56.1005 14.216 56.2311 13.656C56.3618 13.096 56.5765 12.6106 56.8751 12.2C57.1925 11.7706 57.6031 11.4346 58.1071 11.192C58.6111 10.9493 59.2271 10.828 59.9551 10.828C60.1978 10.828 60.4498 10.8466 60.7111 10.884C60.9725 10.9026 61.1965 10.9306 61.3831 10.968V7.27198C61.0658 7.17865 60.7765 7.13198 60.5151 7.13198C60.0111 7.13198 59.5258 7.20665 59.0591 7.35598C58.5925 7.50532 58.1538 7.71998 57.7431 7.99998C57.3325 8.26132 56.9685 8.58798 56.6511 8.97998C56.3338 9.35332 56.0818 9.76398 55.8951 10.212H55.8391V7.52398H52.0591Z" fill="black"/>
<path d="M67.0299 5.28398V2.00798H63.0539V5.28398H67.0299ZM63.0539 7.52398V22H67.0299V7.52398H63.0539Z" fill="black"/>
<path d="M69.9927 11.976C70.0487 11.0426 70.282 10.268 70.6927 9.65198C71.1034 9.03598 71.626 8.54132 72.2607 8.16798C72.8954 7.79465 73.6047 7.53332 74.3887 7.38398C75.1914 7.21598 75.994 7.13198 76.7967 7.13198C77.5247 7.13198 78.262 7.18798 79.0087 7.29998C79.7554 7.39332 80.4367 7.58931 81.0527 7.88798C81.6687 8.18665 82.1727 8.60665 82.5647 9.14798C82.9567 9.67065 83.1527 10.3706 83.1527 11.248V18.78C83.1527 19.4333 83.19 20.0586 83.2647 20.656C83.3394 21.2533 83.47 21.7013 83.6567 22H79.6247C79.55 21.776 79.4847 21.552 79.4287 21.328C79.3914 21.0853 79.3634 20.8426 79.3447 20.6C78.71 21.2533 77.9634 21.7106 77.1047 21.972C76.246 22.2333 75.3687 22.364 74.4727 22.364C73.782 22.364 73.138 22.28 72.5407 22.112C71.9434 21.944 71.4207 21.6826 70.9727 21.328C70.5247 20.9733 70.17 20.5253 69.9087 19.984C69.666 19.4426 69.5447 18.7986 69.5447 18.052C69.5447 17.2306 69.6847 16.5586 69.9647 16.036C70.2634 15.4946 70.6367 15.0653 71.0847 14.748C71.5514 14.4306 72.074 14.1973 72.6527 14.048C73.25 13.88 73.8474 13.7493 74.4447 13.656C75.042 13.5626 75.63 13.488 76.2087 13.432C76.7874 13.376 77.3007 13.292 77.7487 13.18C78.1967 13.068 78.5514 12.9093 78.8127 12.704C79.074 12.48 79.1954 12.1626 79.1767 11.752C79.1767 11.3226 79.102 10.9866 78.9527 10.744C78.822 10.4826 78.6354 10.2866 78.3927 10.156C78.1687 10.0066 77.898 9.91332 77.5807 9.87598C77.282 9.81998 76.9554 9.79198 76.6007 9.79198C75.8167 9.79198 75.2007 9.95998 74.7527 10.296C74.3047 10.632 74.0434 11.192 73.9687 11.976H69.9927ZM79.1767 14.916C79.0087 15.0653 78.794 15.1866 78.5327 15.28C78.29 15.3546 78.0194 15.42 77.7207 15.476C77.4407 15.532 77.142 15.5786 76.8247 15.616C76.5074 15.6533 76.19 15.7 75.8727 15.756C75.574 15.812 75.2754 15.8866 74.9767 15.98C74.6967 16.0733 74.4447 16.204 74.2207 16.372C74.0154 16.5213 73.8474 16.7173 73.7167 16.96C73.586 17.2026 73.5207 17.5106 73.5207 17.884C73.5207 18.2386 73.586 18.5373 73.7167 18.78C73.8474 19.0226 74.0247 19.2186 74.2487 19.368C74.4727 19.4986 74.734 19.592 75.0327 19.648C75.3314 19.704 75.6394 19.732 75.9567 19.732C76.7407 19.732 77.3474 19.6013 77.7767 19.34C78.206 19.0786 78.5234 18.7706 78.7287 18.416C78.934 18.0427 79.0554 17.6693 79.0927 17.296C79.1487 16.9226 79.1767 16.624 79.1767 16.4V14.916ZM74.7807 1.75598L71.7007 5.73198H74.6967L76.4887 3.46398L78.2247 5.73198H81.5007L78.4207 1.75598H74.7807Z" fill="black"/>
<path d="M86.2388 7.52398V22H90.2148V14.412C90.2148 12.9373 90.4575 11.8826 90.9428 11.248C91.4282 10.5946 92.2122 10.268 93.2948 10.268C94.2468 10.268 94.9095 10.5666 95.2828 11.164C95.6562 11.7426 95.8428 12.6293 95.8428 13.824V22H99.8188V13.096C99.8188 12.2 99.7348 11.388 99.5668 10.66C99.4175 9.91332 99.1468 9.28798 98.7548 8.78398C98.3628 8.26132 97.8215 7.85998 97.1308 7.57998C96.4588 7.28132 95.5908 7.13198 94.5268 7.13198C93.6868 7.13198 92.8655 7.32798 92.0628 7.71998C91.2602 8.09332 90.6068 8.69998 90.1028 9.53998H90.0188V7.52398H86.2388Z" fill="black"/>
<path d="M109.584 18.584C108.968 18.584 108.455 18.4533 108.044 18.192C107.634 17.9306 107.298 17.5946 107.036 17.184C106.794 16.7733 106.616 16.316 106.504 15.812C106.411 15.2893 106.364 14.7666 106.364 14.244C106.364 13.7026 106.42 13.1893 106.532 12.704C106.663 12.2 106.859 11.7613 107.12 11.388C107.4 10.996 107.736 10.688 108.128 10.464C108.539 10.24 109.024 10.128 109.584 10.128C110.238 10.128 110.779 10.2493 111.208 10.492C111.638 10.7346 111.983 11.0613 112.244 11.472C112.506 11.8827 112.692 12.3586 112.804 12.9C112.916 13.4226 112.972 13.9826 112.972 14.58C112.972 15.1026 112.898 15.6066 112.748 16.092C112.618 16.5586 112.412 16.9786 112.132 17.352C111.852 17.7253 111.498 18.024 111.068 18.248C110.639 18.472 110.144 18.584 109.584 18.584ZM116.752 21.076V7.52398H112.972V9.45598H112.916C112.431 8.61598 111.824 8.01865 111.096 7.66398C110.387 7.30932 109.556 7.13198 108.604 7.13198C107.596 7.13198 106.7 7.32798 105.916 7.71998C105.151 8.11198 104.507 8.64398 103.984 9.31598C103.462 9.96932 103.06 10.7346 102.78 11.612C102.519 12.4706 102.388 13.3666 102.388 14.3C102.388 15.2893 102.5 16.232 102.724 17.128C102.967 18.0053 103.34 18.78 103.844 19.452C104.348 20.1053 104.992 20.628 105.776 21.02C106.56 21.3933 107.494 21.58 108.576 21.58C109.454 21.58 110.284 21.4026 111.068 21.048C111.871 20.6747 112.487 20.1053 112.916 19.34H112.972V21.244C112.991 22.2706 112.739 23.12 112.216 23.792C111.712 24.464 110.9 24.8 109.78 24.8C109.071 24.8 108.446 24.6506 107.904 24.352C107.363 24.072 106.999 23.5586 106.812 22.812H102.864C102.92 23.6333 103.144 24.3333 103.536 24.912C103.947 25.5093 104.451 25.9946 105.048 26.368C105.664 26.7413 106.336 27.012 107.064 27.18C107.811 27.3666 108.539 27.46 109.248 27.46C110.91 27.46 112.235 27.236 113.224 26.788C114.214 26.34 114.97 25.7893 115.492 25.136C116.015 24.5013 116.351 23.8106 116.5 23.064C116.668 22.3173 116.752 21.6546 116.752 21.076Z" fill="black"/>
<path d="M133.534 22V7.52398H129.558V15.112C129.558 16.5866 129.315 17.6507 128.83 18.304C128.344 18.9387 127.56 19.256 126.478 19.256C125.526 19.256 124.863 18.9667 124.49 18.388C124.116 17.7906 123.93 16.8946 123.93 15.7V7.52398H119.954V16.428C119.954 17.324 120.028 18.1453 120.178 18.892C120.346 19.62 120.626 20.2453 121.018 20.768C121.41 21.272 121.942 21.664 122.614 21.944C123.304 22.224 124.182 22.364 125.246 22.364C126.086 22.364 126.907 22.1773 127.71 21.804C128.512 21.4307 129.166 20.824 129.67 19.984H129.754V22H133.534Z" fill="black"/>
<path d="M136.663 2.00798V22H140.639V2.00798H136.663Z" fill="black"/>
<path d="M147.298 14.776C147.298 14.1973 147.354 13.628 147.466 13.068C147.578 12.508 147.765 12.0133 148.026 11.584C148.306 11.1546 148.67 10.8093 149.118 10.548C149.566 10.268 150.126 10.128 150.798 10.128C151.47 10.128 152.03 10.268 152.478 10.548C152.945 10.8093 153.309 11.1546 153.57 11.584C153.85 12.0133 154.046 12.508 154.158 13.068C154.27 13.628 154.326 14.1973 154.326 14.776C154.326 15.3546 154.27 15.924 154.158 16.484C154.046 17.0253 153.85 17.52 153.57 17.968C153.309 18.3973 152.945 18.7426 152.478 19.004C152.03 19.2653 151.47 19.396 150.798 19.396C150.126 19.396 149.566 19.2653 149.118 19.004C148.67 18.7426 148.306 18.3973 148.026 17.968C147.765 17.52 147.578 17.0253 147.466 16.484C147.354 15.924 147.298 15.3546 147.298 14.776ZM143.322 14.776C143.322 15.9333 143.499 16.9786 143.854 17.912C144.209 18.8453 144.713 19.648 145.366 20.32C146.019 20.9733 146.803 21.4773 147.718 21.832C148.633 22.1866 149.659 22.364 150.798 22.364C151.937 22.364 152.963 22.1866 153.878 21.832C154.811 21.4773 155.605 20.9733 156.258 20.32C156.911 19.648 157.415 18.8453 157.77 17.912C158.125 16.9786 158.302 15.9333 158.302 14.776C158.302 13.6186 158.125 12.5733 157.77 11.64C157.415 10.688 156.911 9.88532 156.258 9.23198C155.605 8.55998 154.811 8.04665 153.878 7.69198C152.963 7.31865 151.937 7.13198 150.798 7.13198C149.659 7.13198 148.633 7.31865 147.718 7.69198C146.803 8.04665 146.019 8.55998 145.366 9.23198C144.713 9.88532 144.209 10.688 143.854 11.64C143.499 12.5733 143.322 13.6186 143.322 14.776Z" fill="black"/>
<path d="M17.5133 18.8417C16.0209 21.439 15.2746 22.7376 14.3004 23.1734C13.4506 23.5535 12.4802 23.5535 11.6304 23.1734C10.6562 22.7376 9.90996 21.439 8.4175 18.8417L2.13828 7.91442C0.645822 5.31719 -0.100407 4.01857 0.0110663 2.95296C0.108297 2.02348 0.593502 1.17911 1.34605 0.629776C2.20882 -2.68694e-05 3.70128 -2.48315e-05 6.68619 -2.45706e-05L19.2446 -2.34727e-05C22.2296 -2.32117e-05 23.722 -2.49886e-05 24.5848 0.629778C25.3373 1.17912 25.8225 2.02349 25.9198 2.95296C26.0312 4.01857 25.285 5.31719 23.7926 7.91442L17.5133 18.8417Z" fill="black"/>
</svg>
