<svg width="598" height="222" viewBox="0 0 598 222" fill="none" xmlns="http://www.w3.org/2000/svg">
<rect x="1" y="35" width="191" height="186" rx="9" fill="#EFF1F3" stroke="#DADFE2" stroke-width="2"/>
<rect x="204" y="35" width="191" height="186" rx="9" fill="#EFF1F3" stroke="#DADFE2" stroke-width="2"/>
<rect x="406" y="35" width="191" height="186" rx="9" fill="#EFF1F3" stroke="#DADFE2" stroke-width="2"/>
<rect x="9" y="43" width="50" height="50" rx="10" fill="#DADFE2"/>
<rect x="212" y="43" width="50" height="50" rx="10" fill="#DADFE2"/>
<rect x="414" y="43" width="50" height="50" rx="10" fill="#DADFE2"/>
<rect x="9" y="103" width="50" height="50" rx="10" fill="#DADFE2"/>
<rect x="212" y="103" width="50" height="50" rx="10" fill="#DADFE2"/>
<rect x="414" y="103" width="50" height="50" rx="10" fill="#DADFE2"/>
<rect x="9" y="163" width="50" height="50" rx="10" fill="#DADFE2"/>
<rect x="212" y="163" width="50" height="50" rx="10" fill="#DADFE2"/>
<rect x="414" y="163" width="50" height="50" rx="10" fill="#DADFE2"/>
<rect x="72" y="163" width="50" height="50" rx="10" fill="#DADFE2"/>
<rect x="275" y="163" width="50" height="50" rx="10" fill="#DADFE2"/>
<rect x="477" y="163" width="50" height="50" rx="10" fill="#DADFE2"/>
<rect x="134" y="163" width="50" height="50" rx="10" fill="#DADFE2"/>
<rect x="337" y="163" width="50" height="50" rx="10" fill="#DADFE2"/>
<rect x="539" y="163" width="50" height="50" rx="10" fill="#DADFE2"/>
<rect x="72" y="103" width="49" height="50" rx="10" fill="#DADFE2"/>
<rect x="275" y="103" width="49" height="50" rx="10" fill="#DADFE2"/>
<rect x="477" y="103" width="49" height="50" rx="10" fill="#DADFE2"/>
<rect x="134" y="43" width="50" height="50" rx="10" fill="#DADFE2"/>
<rect x="337" y="43" width="50" height="50" rx="10" fill="#DADFE2"/>
<rect x="539" y="43" width="50" height="50" rx="10" fill="#DADFE2"/>
<rect x="134" y="103" width="50" height="50" rx="10" fill="#DADFE2"/>
<rect x="337" y="103" width="50" height="50" rx="10" fill="#DADFE2"/>
<rect x="539" y="103" width="50" height="50" rx="10" fill="#DADFE2"/>
<rect x="72" y="43" width="49" height="50" rx="10" fill="#DADFE2"/>
<rect x="275" y="43" width="49" height="50" rx="10" fill="#DADFE2"/>
<rect x="477" y="43" width="49" height="50" rx="10" fill="#DADFE2"/>
<line x1="127.5" y1="34" x2="127.5" y2="222" stroke="#DADFE2"/>
<line x1="330.5" y1="34" x2="330.5" y2="222" stroke="#DADFE2"/>
<line x1="532.5" y1="34" x2="532.5" y2="222" stroke="#DADFE2"/>
<line x1="65.5" y1="34" x2="65.5" y2="222" stroke="#DADFE2"/>
<line x1="268.5" y1="34" x2="268.5" y2="222" stroke="#DADFE2"/>
<line x1="470.5" y1="34" x2="470.5" y2="222" stroke="#DADFE2"/>
<line x1="193" y1="98.5" x2="-4.37114e-08" y2="98.5" stroke="#DADFE2"/>
<line x1="396" y1="98.5" x2="203" y2="98.5" stroke="#DADFE2"/>
<line x1="598" y1="98.5" x2="405" y2="98.5" stroke="#DADFE2"/>
<line x1="193" y1="158.5" x2="-4.37114e-08" y2="158.5" stroke="#DADFE2"/>
<line x1="396" y1="158.5" x2="203" y2="158.5" stroke="#DADFE2"/>
<line x1="598" y1="158.5" x2="405" y2="158.5" stroke="#DADFE2"/>
<rect width="365" height="29" rx="10" fill="#EFF1F3"/>
<path d="M6.28 21L6.28 9.832H13.688V11.8H8.68V14.36H13.16V16.328H8.68V21H6.28ZM19.3938 21.192C18.1031 21.192 17.0898 20.808 16.3538 20.04C15.6178 19.2613 15.2498 18.2053 15.2498 16.872C15.2498 15.5387 15.6178 14.488 16.3538 13.72C17.0898 12.9413 18.1031 12.552 19.3938 12.552C20.6844 12.552 21.6978 12.9413 22.4338 13.72C23.1698 14.488 23.5378 15.5387 23.5378 16.872C23.5378 18.2053 23.1698 19.2613 22.4338 20.04C21.6978 20.808 20.6844 21.192 19.3938 21.192ZM19.3938 19.432C19.9271 19.432 20.3431 19.2667 20.6418 18.936C20.9404 18.6053 21.0898 18.136 21.0898 17.528V16.216C21.0898 15.608 20.9404 15.1387 20.6418 14.808C20.3431 14.4773 19.9271 14.312 19.3938 14.312C18.8604 14.312 18.4444 14.4773 18.1458 14.808C17.8471 15.1387 17.6978 15.608 17.6978 16.216V17.528C17.6978 18.136 17.8471 18.6053 18.1458 18.936C18.4444 19.2667 18.8604 19.432 19.3938 19.432ZM25.3715 19.16H27.2755V14.584H25.3715V12.744H29.6435V15.08H29.7555C30.1502 13.5227 31.0302 12.744 32.3955 12.744H33.1795V14.92H31.4195C30.8542 14.92 30.4168 15.0907 30.1075 15.432C29.7982 15.7627 29.6435 16.1893 29.6435 16.712V19.16H32.3635V21H25.3715V19.16ZM34.2613 21V12.744H36.1653V13.96H36.2773C36.4266 13.5227 36.6239 13.1813 36.8693 12.936C37.1146 12.68 37.4399 12.552 37.8453 12.552C38.2399 12.552 38.5599 12.6747 38.8053 12.92C39.0613 13.1547 39.2319 13.5013 39.3173 13.96H39.4133C39.5733 13.5227 39.7866 13.1813 40.0533 12.936C40.3306 12.68 40.7039 12.552 41.1733 12.552C42.3253 12.552 42.9013 13.4 42.9013 15.096V21H40.9973V15.336C40.9973 14.6427 40.7573 14.296 40.2773 14.296C40.0639 14.296 39.8879 14.3653 39.7493 14.504C39.6106 14.6427 39.5413 14.8453 39.5413 15.112V21H37.6213V15.336C37.6213 14.6427 37.3919 14.296 36.9333 14.296C36.7093 14.296 36.5226 14.3653 36.3733 14.504C36.2346 14.6427 36.1653 14.8453 36.1653 15.112V21H34.2613ZM51.167 21C50.6763 21 50.2763 20.872 49.967 20.616C49.6683 20.36 49.4977 20.0027 49.455 19.544H49.375C49.2363 20.0773 48.943 20.488 48.495 20.776C48.047 21.0533 47.503 21.192 46.863 21.192C46.0523 21.192 45.407 20.9733 44.927 20.536C44.447 20.0987 44.207 19.496 44.207 18.728C44.207 17.032 45.4443 16.184 47.919 16.184H49.247V15.768C49.247 15.2667 49.1297 14.8933 48.895 14.648C48.6603 14.4027 48.2763 14.28 47.743 14.28C47.2737 14.28 46.879 14.3707 46.559 14.552C46.2497 14.7333 45.9723 14.9893 45.727 15.32L44.431 14.168C44.719 13.6773 45.167 13.288 45.775 13C46.383 12.7013 47.1297 12.552 48.015 12.552C49.1563 12.552 50.0417 12.8187 50.671 13.352C51.3003 13.8747 51.615 14.648 51.615 15.672V18.744C51.615 18.8933 51.6683 19.0213 51.775 19.128C51.8817 19.2347 52.0097 19.288 52.159 19.288H52.527V21H51.167ZM47.759 19.64C48.1963 19.64 48.5537 19.5387 48.831 19.336C49.1083 19.1227 49.247 18.8293 49.247 18.456V17.464H47.983C47.5137 17.464 47.151 17.5493 46.895 17.72C46.6497 17.88 46.527 18.12 46.527 18.44V18.76C46.527 19.048 46.6337 19.2667 46.847 19.416C47.071 19.5653 47.375 19.64 47.759 19.64ZM58.2488 18.616C58.2488 18.7653 58.3021 18.8933 58.4088 19C58.5154 19.1067 58.6434 19.16 58.7928 19.16H61.4648V21H58.4088C57.5768 21 56.9474 20.7867 56.5208 20.36C56.0941 19.9227 55.8808 19.3413 55.8808 18.616V14.584H53.6408V12.744H55.8808V9.832H58.2488V12.744H61.4648V14.584H58.2488V18.616ZM67.3625 21.192C66.0718 21.192 65.0585 20.808 64.3225 20.04C63.5865 19.2613 63.2185 18.2053 63.2185 16.872C63.2185 15.5387 63.5865 14.488 64.3225 13.72C65.0585 12.9413 66.0718 12.552 67.3625 12.552C68.6532 12.552 69.6665 12.9413 70.4025 13.72C71.1385 14.488 71.5065 15.5387 71.5065 16.872C71.5065 18.2053 71.1385 19.2613 70.4025 20.04C69.6665 20.808 68.6532 21.192 67.3625 21.192ZM67.3625 19.432C67.8958 19.432 68.3118 19.2667 68.6105 18.936C68.9092 18.6053 69.0585 18.136 69.0585 17.528V16.216C69.0585 15.608 68.9092 15.1387 68.6105 14.808C68.3118 14.4773 67.8958 14.312 67.3625 14.312C66.8292 14.312 66.4132 14.4773 66.1145 14.808C65.8158 15.1387 65.6665 15.608 65.6665 16.216V17.528C65.6665 18.136 65.8158 18.6053 66.1145 18.936C66.4132 19.2667 66.8292 19.432 67.3625 19.432ZM76.8602 21.192C75.9536 21.192 75.1589 21.0533 74.4763 20.776C73.7936 20.4987 73.2816 20.12 72.9403 19.64L74.2682 18.408C74.9509 19.1547 75.8203 19.528 76.8763 19.528C77.3456 19.528 77.7136 19.4533 77.9803 19.304C78.2469 19.1547 78.3803 18.936 78.3803 18.648C78.3803 18.4347 78.2949 18.28 78.1243 18.184C77.9643 18.0773 77.7083 17.9973 77.3563 17.944L76.0283 17.736C75.2176 17.608 74.5723 17.3573 74.0923 16.984C73.6229 16.6107 73.3883 16.056 73.3883 15.32C73.3883 14.456 73.7189 13.7787 74.3803 13.288C75.0523 12.7973 75.9803 12.552 77.1643 12.552C78.7323 12.552 79.8789 12.9733 80.6042 13.816L79.4203 15.16C79.1643 14.872 78.8389 14.6427 78.4443 14.472C78.0496 14.3013 77.5963 14.216 77.0843 14.216C76.6363 14.216 76.2949 14.2907 76.0603 14.44C75.8256 14.5787 75.7083 14.7813 75.7083 15.048C75.7083 15.272 75.7883 15.4373 75.9483 15.544C76.1189 15.64 76.3803 15.7147 76.7323 15.768L78.0443 15.976C78.8656 16.104 79.5109 16.3547 79.9803 16.728C80.4603 17.1013 80.7003 17.656 80.7003 18.392C80.7003 19.256 80.3643 19.9387 79.6923 20.44C79.0203 20.9413 78.0763 21.192 76.8602 21.192ZM97.9198 9.08V11.608H95.3758V9.08H97.9198ZM92.8478 19.16H95.4718V14.584H92.8478V12.744H97.8398V19.16H100.272V21H92.8478V19.16ZM101.978 21V12.744H104.346V14.248H104.442C104.644 13.736 104.943 13.3253 105.338 13.016C105.743 12.7067 106.255 12.552 106.874 12.552C107.684 12.552 108.335 12.824 108.826 13.368C109.316 13.912 109.562 14.6747 109.562 15.656V21H107.194V15.976C107.194 15.4533 107.076 15.0587 106.842 14.792C106.607 14.5147 106.26 14.376 105.802 14.376C105.407 14.376 105.066 14.4827 104.778 14.696C104.49 14.9093 104.346 15.2027 104.346 15.576V21H101.978ZM113.923 21L110.963 12.744H113.459L114.531 16.28L115.315 19.032H115.443L116.227 16.28L117.299 12.744H119.699L116.739 21H113.923ZM127.917 21C127.426 21 127.026 20.872 126.717 20.616C126.418 20.36 126.248 20.0027 126.205 19.544H126.125C125.986 20.0773 125.693 20.488 125.245 20.776C124.797 21.0533 124.253 21.192 123.613 21.192C122.802 21.192 122.157 20.9733 121.677 20.536C121.197 20.0987 120.957 19.496 120.957 18.728C120.957 17.032 122.194 16.184 124.669 16.184H125.997V15.768C125.997 15.2667 125.88 14.8933 125.645 14.648C125.41 14.4027 125.026 14.28 124.493 14.28C124.024 14.28 123.629 14.3707 123.309 14.552C123 14.7333 122.722 14.9893 122.477 15.32L121.181 14.168C121.469 13.6773 121.917 13.288 122.525 13C123.133 12.7013 123.88 12.552 124.765 12.552C125.906 12.552 126.792 12.8187 127.421 13.352C128.05 13.8747 128.365 14.648 128.365 15.672V18.744C128.365 18.8933 128.418 19.0213 128.525 19.128C128.632 19.2347 128.76 19.288 128.909 19.288H129.277V21H127.917ZM124.509 19.64C124.946 19.64 125.304 19.5387 125.581 19.336C125.858 19.1227 125.997 18.8293 125.997 18.456V17.464H124.733C124.264 17.464 123.901 17.5493 123.645 17.72C123.4 17.88 123.277 18.12 123.277 18.44V18.76C123.277 19.048 123.384 19.2667 123.597 19.416C123.821 19.5653 124.125 19.64 124.509 19.64ZM125.053 12.04L123.645 11.352L125.549 7.768L127.517 8.744L125.053 12.04ZM130.807 19.16H133.335V11H130.807V9.16H135.703V19.16H138.231V21H130.807V19.16ZM145.889 9.08V11.608H143.345V9.08H145.889ZM140.817 19.16H143.441V14.584H140.817V12.744H145.809V19.16H148.241V21H140.817V19.16ZM155.194 19.496H155.082C154.858 20.0293 154.549 20.4453 154.154 20.744C153.77 21.0427 153.264 21.192 152.634 21.192C151.685 21.192 150.928 20.8347 150.362 20.12C149.808 19.3947 149.53 18.312 149.53 16.872C149.53 15.432 149.808 14.3547 150.362 13.64C150.928 12.9147 151.685 12.552 152.634 12.552C153.264 12.552 153.77 12.7013 154.154 13C154.549 13.2987 154.858 13.7147 155.082 14.248H155.194V9.16L157.562 9.16V21H155.194V19.496ZM153.658 19.352C154.106 19.352 154.474 19.2453 154.762 19.032C155.05 18.8187 155.194 18.504 155.194 18.088V15.656C155.194 15.24 155.05 14.9253 154.762 14.712C154.474 14.4987 154.106 14.392 153.658 14.392C153.136 14.392 152.725 14.5573 152.426 14.888C152.138 15.208 151.994 15.656 151.994 16.232V17.512C151.994 18.088 152.138 18.5413 152.426 18.872C152.725 19.192 153.136 19.352 153.658 19.352ZM163.3 21.192C162.009 21.192 160.996 20.808 160.26 20.04C159.524 19.2613 159.156 18.2053 159.156 16.872C159.156 15.5387 159.524 14.488 160.26 13.72C160.996 12.9413 162.009 12.552 163.3 12.552C164.591 12.552 165.604 12.9413 166.34 13.72C167.076 14.488 167.444 15.5387 167.444 16.872C167.444 18.2053 167.076 19.2613 166.34 20.04C165.604 20.808 164.591 21.192 163.3 21.192ZM163.3 19.432C163.833 19.432 164.249 19.2667 164.548 18.936C164.847 18.6053 164.996 18.136 164.996 17.528V16.216C164.996 15.608 164.847 15.1387 164.548 14.808C164.249 14.4773 163.833 14.312 163.3 14.312C162.767 14.312 162.351 14.4773 162.052 14.808C161.753 15.1387 161.604 15.608 161.604 16.216V17.528C161.604 18.136 161.753 18.6053 162.052 18.936C162.351 19.2667 162.767 19.432 163.3 19.432ZM172.798 21.192C171.891 21.192 171.096 21.0533 170.414 20.776C169.731 20.4987 169.219 20.12 168.878 19.64L170.206 18.408C170.888 19.1547 171.758 19.528 172.814 19.528C173.283 19.528 173.651 19.4533 173.918 19.304C174.184 19.1547 174.318 18.936 174.318 18.648C174.318 18.4347 174.232 18.28 174.062 18.184C173.902 18.0773 173.646 17.9973 173.294 17.944L171.966 17.736C171.155 17.608 170.51 17.3573 170.03 16.984C169.56 16.6107 169.326 16.056 169.326 15.32C169.326 14.456 169.656 13.7787 170.318 13.288C170.99 12.7973 171.918 12.552 173.102 12.552C174.67 12.552 175.816 12.9733 176.542 13.816L175.358 15.16C175.102 14.872 174.776 14.6427 174.382 14.472C173.987 14.3013 173.534 14.216 173.022 14.216C172.574 14.216 172.232 14.2907 171.998 14.44C171.763 14.5787 171.646 14.7813 171.646 15.048C171.646 15.272 171.726 15.4373 171.886 15.544C172.056 15.64 172.318 15.7147 172.67 15.768L173.982 15.976C174.803 16.104 175.448 16.3547 175.918 16.728C176.398 17.1013 176.638 17.656 176.638 18.392C176.638 19.256 176.302 19.9387 175.63 20.44C174.958 20.9413 174.014 21.192 172.798 21.192ZM188.225 12.744H190.593V14.248H190.705C190.929 13.7147 191.233 13.2987 191.617 13C192.012 12.7013 192.524 12.552 193.153 12.552C194.103 12.552 194.855 12.9147 195.409 13.64C195.975 14.3547 196.257 15.432 196.257 16.872C196.257 18.312 195.975 19.3947 195.409 20.12C194.855 20.8347 194.103 21.192 193.153 21.192C192.524 21.192 192.012 21.0427 191.617 20.744C191.233 20.4453 190.929 20.0293 190.705 19.496H190.593V24.2H188.225V12.744ZM192.129 19.352C192.652 19.352 193.057 19.192 193.345 18.872C193.644 18.5413 193.793 18.088 193.793 17.512V16.232C193.793 15.656 193.644 15.208 193.345 14.888C193.057 14.5573 192.652 14.392 192.129 14.392C191.681 14.392 191.313 14.4987 191.025 14.712C190.737 14.9253 190.593 15.24 190.593 15.656V18.088C190.593 18.504 190.737 18.8187 191.025 19.032C191.313 19.2453 191.681 19.352 192.129 19.352ZM204.667 21C204.176 21 203.776 20.872 203.467 20.616C203.168 20.36 202.998 20.0027 202.955 19.544H202.875C202.736 20.0773 202.443 20.488 201.995 20.776C201.547 21.0533 201.003 21.192 200.363 21.192C199.552 21.192 198.907 20.9733 198.427 20.536C197.947 20.0987 197.707 19.496 197.707 18.728C197.707 17.032 198.944 16.184 201.419 16.184H202.747V15.768C202.747 15.2667 202.63 14.8933 202.395 14.648C202.16 14.4027 201.776 14.28 201.243 14.28C200.774 14.28 200.379 14.3707 200.059 14.552C199.75 14.7333 199.472 14.9893 199.227 15.32L197.931 14.168C198.219 13.6773 198.667 13.288 199.275 13C199.883 12.7013 200.63 12.552 201.515 12.552C202.656 12.552 203.542 12.8187 204.171 13.352C204.8 13.8747 205.115 14.648 205.115 15.672V18.744C205.115 18.8933 205.168 19.0213 205.275 19.128C205.382 19.2347 205.51 19.288 205.659 19.288H206.027V21H204.667ZM201.259 19.64C201.696 19.64 202.054 19.5387 202.331 19.336C202.608 19.1227 202.747 18.8293 202.747 18.456V17.464H201.483C201.014 17.464 200.651 17.5493 200.395 17.72C200.15 17.88 200.027 18.12 200.027 18.44V18.76C200.027 19.048 200.134 19.2667 200.347 19.416C200.571 19.5653 200.875 19.64 201.259 19.64ZM207.653 19.16H209.557V14.584H207.653V12.744H211.925V15.08H212.037C212.431 13.5227 213.311 12.744 214.677 12.744H215.461V14.92H213.701C213.135 14.92 212.698 15.0907 212.389 15.432C212.079 15.7627 211.925 16.1893 211.925 16.712V19.16L214.645 19.16V21H207.653V19.16ZM223.855 21C223.364 21 222.964 20.872 222.655 20.616C222.356 20.36 222.185 20.0027 222.143 19.544H222.063C221.924 20.0773 221.631 20.488 221.183 20.776C220.735 21.0533 220.191 21.192 219.551 21.192C218.74 21.192 218.095 20.9733 217.615 20.536C217.135 20.0987 216.895 19.496 216.895 18.728C216.895 17.032 218.132 16.184 220.607 16.184H221.935V15.768C221.935 15.2667 221.817 14.8933 221.583 14.648C221.348 14.4027 220.964 14.28 220.431 14.28C219.961 14.28 219.567 14.3707 219.247 14.552C218.937 14.7333 218.66 14.9893 218.414 15.32L217.118 14.168C217.407 13.6773 217.855 13.288 218.463 13C219.071 12.7013 219.817 12.552 220.703 12.552C221.844 12.552 222.729 12.8187 223.359 13.352C223.988 13.8747 224.303 14.648 224.303 15.672V18.744C224.303 18.8933 224.356 19.0213 224.463 19.128C224.569 19.2347 224.697 19.288 224.847 19.288H225.215V21H223.855ZM220.447 19.64C220.884 19.64 221.241 19.5387 221.519 19.336C221.796 19.1227 221.935 18.8293 221.935 18.456V17.464H220.671C220.201 17.464 219.839 17.5493 219.583 17.72C219.337 17.88 219.215 18.12 219.215 18.44V18.76C219.215 19.048 219.321 19.2667 219.535 19.416C219.759 19.5653 220.063 19.64 220.447 19.64ZM243.042 21C242.551 21 242.151 20.872 241.842 20.616C241.543 20.36 241.373 20.0027 241.33 19.544H241.25C241.111 20.0773 240.818 20.488 240.37 20.776C239.922 21.0533 239.378 21.192 238.738 21.192C237.927 21.192 237.282 20.9733 236.802 20.536C236.322 20.0987 236.082 19.496 236.082 18.728C236.082 17.032 237.319 16.184 239.794 16.184H241.122V15.768C241.122 15.2667 241.005 14.8933 240.77 14.648C240.535 14.4027 240.151 14.28 239.618 14.28C239.149 14.28 238.754 14.3707 238.434 14.552C238.125 14.7333 237.847 14.9893 237.602 15.32L236.306 14.168C236.594 13.6773 237.042 13.288 237.65 13C238.258 12.7013 239.005 12.552 239.89 12.552C241.031 12.552 241.917 12.8187 242.546 13.352C243.175 13.8747 243.49 14.648 243.49 15.672V18.744C243.49 18.8933 243.543 19.0213 243.65 19.128C243.757 19.2347 243.885 19.288 244.034 19.288H244.402V21H243.042ZM239.634 19.64C240.071 19.64 240.429 19.5387 240.706 19.336C240.983 19.1227 241.122 18.8293 241.122 18.456V17.464H239.858C239.389 17.464 239.026 17.5493 238.77 17.72C238.525 17.88 238.402 18.12 238.402 18.44V18.76C238.402 19.048 238.509 19.2667 238.722 19.416C238.946 19.5653 239.25 19.64 239.634 19.64ZM240.178 12.04L238.77 11.352L240.674 7.768L242.642 8.744L240.178 12.04ZM246.028 19.16H247.932V14.584H246.028V12.744H250.3V15.08H250.412C250.806 13.5227 251.686 12.744 253.052 12.744H253.836V14.92H252.076C251.51 14.92 251.073 15.0907 250.764 15.432C250.454 15.7627 250.3 16.1893 250.3 16.712V19.16H253.02V21H246.028V19.16ZM259.462 21.192C258.096 21.192 257.051 20.8133 256.326 20.056C255.6 19.2987 255.238 18.248 255.238 16.904C255.238 15.5493 255.595 14.488 256.31 13.72C257.035 12.9413 258.016 12.552 259.254 12.552C260.48 12.552 261.451 12.9307 262.166 13.688C262.88 14.4347 263.238 15.4533 263.238 16.744V17.448H257.59V17.592C257.59 18.136 257.76 18.568 258.102 18.888C258.443 19.208 258.923 19.368 259.542 19.368C260.416 19.368 261.142 19.0267 261.718 18.344L262.998 19.736C262.646 20.1733 262.176 20.5253 261.59 20.792C261.003 21.0587 260.294 21.192 259.462 21.192ZM259.27 14.248C258.758 14.248 258.347 14.408 258.038 14.728C257.739 15.0373 257.59 15.4587 257.59 15.992V16.12H260.918V15.992C260.918 15.4587 260.768 15.0373 260.47 14.728C260.182 14.408 259.782 14.248 259.27 14.248ZM271.823 21C271.333 21 270.933 20.872 270.623 20.616C270.325 20.36 270.154 20.0027 270.111 19.544H270.031C269.893 20.0773 269.599 20.488 269.151 20.776C268.703 21.0533 268.159 21.192 267.519 21.192C266.709 21.192 266.063 20.9733 265.583 20.536C265.103 20.0987 264.863 19.496 264.863 18.728C264.863 17.032 266.101 16.184 268.575 16.184H269.903V15.768C269.903 15.2667 269.786 14.8933 269.551 14.648C269.317 14.4027 268.933 14.28 268.399 14.28C267.93 14.28 267.535 14.3707 267.215 14.552C266.906 14.7333 266.629 14.9893 266.383 15.32L265.087 14.168C265.375 13.6773 265.823 13.288 266.431 13C267.039 12.7013 267.786 12.552 268.671 12.552C269.813 12.552 270.698 12.8187 271.327 13.352C271.957 13.8747 272.271 14.648 272.271 15.672V18.744C272.271 18.8933 272.325 19.0213 272.431 19.128C272.538 19.2347 272.666 19.288 272.815 19.288H273.183V21H271.823ZM268.415 19.64C268.853 19.64 269.21 19.5387 269.487 19.336C269.765 19.1227 269.903 18.8293 269.903 18.456V17.464H268.639C268.17 17.464 267.807 17.5493 267.551 17.72C267.306 17.88 267.183 18.12 267.183 18.44V18.76C267.183 19.048 267.29 19.2667 267.503 19.416C267.727 19.5653 268.031 19.64 268.415 19.64ZM278.329 21.192C277.422 21.192 276.628 21.0533 275.945 20.776C275.262 20.4987 274.75 20.12 274.409 19.64L275.737 18.408C276.42 19.1547 277.289 19.528 278.345 19.528C278.814 19.528 279.182 19.4533 279.449 19.304C279.716 19.1547 279.849 18.936 279.849 18.648C279.849 18.4347 279.764 18.28 279.593 18.184C279.433 18.0773 279.177 17.9973 278.825 17.944L277.497 17.736C276.686 17.608 276.041 17.3573 275.561 16.984C275.092 16.6107 274.857 16.056 274.857 15.32C274.857 14.456 275.188 13.7787 275.849 13.288C276.521 12.7973 277.449 12.552 278.633 12.552C280.201 12.552 281.348 12.9733 282.073 13.816L280.889 15.16C280.633 14.872 280.308 14.6427 279.913 14.472C279.518 14.3013 279.065 14.216 278.553 14.216C278.105 14.216 277.764 14.2907 277.529 14.44C277.294 14.5787 277.177 14.7813 277.177 15.048C277.177 15.272 277.257 15.4373 277.417 15.544C277.588 15.64 277.849 15.7147 278.201 15.768L279.513 15.976C280.334 16.104 280.98 16.3547 281.449 16.728C281.929 17.1013 282.169 17.656 282.169 18.392C282.169 19.256 281.833 19.9387 281.161 20.44C280.489 20.9413 279.545 21.192 278.329 21.192ZM293.853 21V12.744H296.221V14.248H296.317C296.519 13.736 296.818 13.3253 297.213 13.016C297.618 12.7067 298.13 12.552 298.749 12.552C299.559 12.552 300.21 12.824 300.701 13.368C301.191 13.912 301.437 14.6747 301.437 15.656V21H299.069V15.976C299.069 15.4533 298.951 15.0587 298.717 14.792C298.482 14.5147 298.135 14.376 297.677 14.376C297.282 14.376 296.941 14.4827 296.653 14.696C296.365 14.9093 296.221 15.2027 296.221 15.576V21H293.853ZM307.206 21.192C305.916 21.192 304.902 20.808 304.166 20.04C303.43 19.2613 303.062 18.2053 303.062 16.872C303.062 15.5387 303.43 14.488 304.166 13.72C304.902 12.9413 305.916 12.552 307.206 12.552C308.497 12.552 309.51 12.9413 310.246 13.72C310.982 14.488 311.35 15.5387 311.35 16.872C311.35 18.2053 310.982 19.2613 310.246 20.04C309.51 20.808 308.497 21.192 307.206 21.192ZM307.206 19.432C307.74 19.432 308.156 19.2667 308.454 18.936C308.753 18.6053 308.902 18.136 308.902 17.528V16.216C308.902 15.608 308.753 15.1387 308.454 14.808C308.156 14.4773 307.74 14.312 307.206 14.312C306.673 14.312 306.257 14.4773 305.958 14.808C305.66 15.1387 305.51 15.608 305.51 16.216V17.528C305.51 18.136 305.66 18.6053 305.958 18.936C306.257 19.2667 306.673 19.432 307.206 19.432ZM330.25 20.504C330.25 21.7413 329.892 22.696 329.178 23.368C328.474 24.0507 327.439 24.392 326.074 24.392C324.602 24.392 323.482 23.992 322.714 23.192L323.978 21.688C324.522 22.2533 325.199 22.536 326.01 22.536C326.639 22.536 327.108 22.376 327.418 22.056C327.727 21.7467 327.882 21.2987 327.882 20.712V19.064H327.77C327.546 19.608 327.236 20.0293 326.842 20.328C326.458 20.6267 325.951 20.776 325.322 20.776C324.372 20.776 323.615 20.4293 323.05 19.736C322.495 19.032 322.218 18.008 322.218 16.664C322.218 15.32 322.495 14.3013 323.05 13.608C323.615 12.904 324.372 12.552 325.322 12.552C325.951 12.552 326.458 12.7013 326.842 13C327.236 13.2987 327.546 13.7147 327.77 14.248H327.882V12.744H330.25V20.504ZM326.346 18.936C326.794 18.936 327.162 18.8293 327.45 18.616C327.738 18.4027 327.882 18.088 327.882 17.672V15.656C327.882 15.24 327.738 14.9253 327.45 14.712C327.162 14.4987 326.794 14.392 326.346 14.392C325.823 14.392 325.412 14.5573 325.114 14.888C324.826 15.208 324.682 15.656 324.682 16.232V17.08C324.682 17.656 324.826 18.1093 325.114 18.44C325.412 18.7707 325.823 18.936 326.346 18.936ZM332.372 19.16H334.276V14.584H332.372V12.744H336.644V15.08H336.756C337.15 13.5227 338.03 12.744 339.396 12.744H340.18V14.92H338.42C337.854 14.92 337.417 15.0907 337.108 15.432C336.798 15.7627 336.644 16.1893 336.644 16.712V19.16H339.364V21H332.372V19.16ZM347.357 9.08V11.608H344.813V9.08H347.357ZM342.285 19.16H344.909V14.584H342.285V12.744H347.277V19.16H349.709V21H342.285V19.16ZM356.663 19.496H356.551C356.327 20.0293 356.018 20.4453 355.623 20.744C355.239 21.0427 354.732 21.192 354.103 21.192C353.154 21.192 352.396 20.8347 351.831 20.12C351.276 19.3947 350.999 18.312 350.999 16.872C350.999 15.432 351.276 14.3547 351.831 13.64C352.396 12.9147 353.154 12.552 354.103 12.552C354.732 12.552 355.239 12.7013 355.623 13C356.018 13.2987 356.327 13.7147 356.551 14.248H356.663V9.16H359.031V21L356.663 21V19.496ZM355.127 19.352C355.575 19.352 355.943 19.2453 356.231 19.032C356.519 18.8187 356.663 18.504 356.663 18.088V15.656C356.663 15.24 356.519 14.9253 356.231 14.712C355.943 14.4987 355.575 14.392 355.127 14.392C354.604 14.392 354.194 14.5573 353.895 14.888C353.607 15.208 353.463 15.656 353.463 16.232V17.512C353.463 18.088 353.607 18.5413 353.895 18.872C354.194 19.192 354.604 19.352 355.127 19.352Z" fill="#12171A"/>
<path opacity="0.5" d="M66 36H127V158H66V36Z" fill="#E5484D"/>
<path opacity="0.5" d="M269 36H330V220H269V36Z" fill="#E5484D"/>
<path opacity="0.5" d="M471 36H532V220H471V36Z" fill="#E5484D"/>
<path opacity="0.5" d="M205 99H269V158H205V99Z" fill="#E5484D"/>
<path opacity="0.5" d="M407 36H471V95H407V36Z" fill="#E5484D"/>
<path opacity="0.5" d="M330 99H394V158H330V99Z" fill="#E5484D"/>
<path opacity="0.5" d="M532 36H596V95H532V36Z" fill="#E5484D"/>
<path opacity="0.5" d="M128 99H191V212C191 216.418 187.418 220 183 220H128V99Z" fill="#E5484D"/>
<path opacity="0.5" d="M127 99H128V158H127V99Z" fill="#E5484D"/>
</svg>
