<svg width="159" height="28" viewBox="0 0 531 94" fill="none" xmlns="http://www.w3.org/2000/svg">
<path d="M47.2772 62.1569C43.2483 69.132 41.2338 72.6196 38.6038 73.79C36.3098 74.8109 33.6902 74.8109 31.3962 73.79C28.7662 72.6196 26.7517 69.132 22.7228 62.1569L5.7719 32.8106C1.74296 25.8355 -0.271507 22.348 0.0294195 19.4862C0.2919 16.99 1.60172 14.7223 3.63323 13.247C5.9623 11.5557 9.99123 11.5557 18.0491 11.5557L51.9509 11.5557C60.0088 11.5557 64.0377 11.5557 66.3668 13.2471C68.3983 14.7224 69.7081 16.99 69.9706 19.4862C70.2715 22.348 68.257 25.8355 64.2281 32.8106L47.2772 62.1569Z" fill="white"/>
<path d="M132.846 19.834V73.884H118.746V19.834H99.8521V8.272H151.74V19.834H132.846Z" fill="white"/>
<path d="M160.633 25.38H174.545V39.104H175.203C177.522 29.9547 182.692 25.38 190.713 25.38H192.499V38.164H184.979C181.658 38.164 179.089 39.1667 177.271 41.172C175.454 43.1147 174.545 45.6213 174.545 48.692V73.884H160.633V25.38Z" fill="white"/>
<path d="M217.898 3.85399V18.706H202.952V3.85399H217.898ZM203.422 25.38H217.334V73.884H203.422V25.38Z" fill="white"/>
<path d="M270.237 73.884C267.355 73.884 265.005 73.132 263.187 71.628C261.433 70.124 260.43 68.0247 260.179 65.33H259.709C258.895 68.4633 257.171 70.876 254.539 72.568C251.907 74.1973 248.711 75.012 244.951 75.012C240.189 75.012 236.397 73.7273 233.577 71.158C230.757 68.5887 229.347 65.048 229.347 60.536C229.347 50.572 236.617 45.59 251.155 45.59H258.957V43.146C258.957 40.2007 258.268 38.0073 256.889 36.566C255.511 35.1247 253.255 34.404 250.121 34.404C247.364 34.404 245.045 34.9367 243.165 36.002C241.348 37.0673 239.719 38.5713 238.277 40.514L230.663 33.746C232.355 30.8633 234.987 28.576 238.559 26.884C242.131 25.1293 246.518 24.252 251.719 24.252C258.425 24.252 263.626 25.8187 267.323 28.952C271.021 32.0227 272.869 36.566 272.869 42.582V60.63C272.869 61.5073 273.183 62.2593 273.809 62.886C274.436 63.5127 275.188 63.826 276.065 63.826H278.227V73.884H270.237ZM250.215 65.894C252.785 65.894 254.884 65.2987 256.513 64.108C258.143 62.8547 258.957 61.1313 258.957 58.938V53.11H251.531C248.774 53.11 246.643 53.6113 245.139 54.614C243.698 55.554 242.977 56.964 242.977 58.844V60.724C242.977 62.416 243.604 63.7007 244.857 64.578C246.173 65.4553 247.959 65.894 250.215 65.894ZM257.735 0L270.143 14.946L263.093 20.398L251.719 9.588L240.345 20.398L233.671 14.946L246.079 0H257.735Z" fill="white"/>
<path d="M286.933 73.884V25.38H300.845V34.216H301.409C302.599 31.208 304.354 28.7953 306.673 26.978C309.054 25.1607 312.062 24.252 315.697 24.252C320.459 24.252 324.282 25.85 327.165 29.046C330.047 32.242 331.489 36.7227 331.489 42.488V73.884H317.577V44.368C317.577 41.2973 316.887 38.9787 315.509 37.412C314.13 35.7827 312.093 34.968 309.399 34.968C307.08 34.968 305.075 35.5947 303.383 36.848C301.691 38.1013 300.845 39.8247 300.845 42.018V73.884H286.933Z" fill="white"/>
<path d="M388.04 70.97C388.04 78.2393 385.941 83.848 381.742 87.796C377.606 91.8067 371.527 93.812 363.506 93.812C354.858 93.812 348.278 91.462 343.766 86.762L351.192 77.926C354.388 81.2473 358.367 82.908 363.13 82.908C366.827 82.908 369.585 81.968 371.402 80.088C373.219 78.2707 374.128 75.6387 374.128 72.192V62.51H373.47C372.154 65.706 370.337 68.1813 368.018 69.936C365.762 71.6907 362.785 72.568 359.088 72.568C353.511 72.568 349.061 70.5313 345.74 66.458C342.481 62.322 340.852 56.306 340.852 48.41C340.852 40.514 342.481 34.5293 345.74 30.456C349.061 26.32 353.511 24.252 359.088 24.252C362.785 24.252 365.762 25.1293 368.018 26.884C370.337 28.6387 372.154 31.0827 373.47 34.216H374.128V25.38H388.04V70.97ZM365.104 61.758C367.736 61.758 369.898 61.1313 371.59 59.878C373.282 58.6247 374.128 56.776 374.128 54.332V42.488C374.128 40.044 373.282 38.1953 371.59 36.942C369.898 35.6887 367.736 35.062 365.104 35.062C362.033 35.062 359.621 36.0333 357.866 37.976C356.174 39.856 355.328 42.488 355.328 45.872V50.854C355.328 54.238 356.174 56.9013 357.866 58.844C359.621 60.7867 362.033 61.758 365.104 61.758Z" fill="white"/>
<path d="M429.927 65.048H429.363C428.172 68.056 426.386 70.4687 424.005 72.286C421.686 74.1033 418.71 75.012 415.075 75.012C410.312 75.012 406.49 73.414 403.607 70.218C400.725 67.022 399.283 62.5413 399.283 56.776V25.38H413.195V54.896C413.195 57.9667 413.884 60.3167 415.263 61.946C416.642 63.5127 418.679 64.296 421.373 64.296C423.692 64.296 425.697 63.6693 427.389 62.416C429.081 61.1627 429.927 59.4393 429.927 57.246V25.38H443.839V73.884H429.927V65.048Z" fill="white"/>
<path d="M469.84 73.884C460.628 73.884 456.022 69.372 456.022 60.348V4.324H469.934V59.972C469.934 60.9747 470.185 61.758 470.686 62.322C471.25 62.8233 472.034 63.074 473.036 63.074H476.138V73.884H469.84Z" fill="white"/>
<path d="M506.294 75.012C498.711 75.012 492.758 72.756 488.434 68.244C484.11 63.6693 481.948 57.4653 481.948 49.632C481.948 41.7987 484.11 35.626 488.434 31.114C492.758 26.5393 498.711 24.252 506.294 24.252C513.877 24.252 519.83 26.5393 524.154 31.114C528.478 35.626 530.64 41.7987 530.64 49.632C530.64 57.4653 528.478 63.6693 524.154 68.244C519.83 72.756 513.877 75.012 506.294 75.012ZM506.294 64.672C509.427 64.672 511.871 63.7007 513.626 61.758C515.381 59.8153 516.258 57.058 516.258 53.486V45.778C516.258 42.206 515.381 39.4487 513.626 37.506C511.871 35.5633 509.427 34.592 506.294 34.592C503.161 34.592 500.717 35.5633 498.962 37.506C497.207 39.4487 496.33 42.206 496.33 45.778V53.486C496.33 57.058 497.207 59.8153 498.962 61.758C500.717 63.7007 503.161 64.672 506.294 64.672Z" fill="white"/>
</svg>
