<svg width="159" height="28" viewBox="0 0 159 28" fill="none" xmlns="http://www.w3.org/2000/svg">
<path d="M42.5431 5.81617V22.4326H46.9585V5.81617H52.9769V2.04748H36.5247V5.81617H42.5431Z" fill="#EDEDED"/>
<path d="M52.2887 7.67196V22.4326H56.2823V15.7803C56.2823 15.1142 56.3479 14.4956 56.4791 13.9245C56.6104 13.3535 56.826 12.8587 57.126 12.4399C57.4447 12.0021 57.8572 11.6595 58.3634 11.4121C58.8696 11.1647 59.4883 11.0409 60.2195 11.0409C60.4633 11.0409 60.7164 11.06 60.9789 11.098C61.2414 11.1171 61.4663 11.1456 61.6538 11.1837V7.415C61.3351 7.31983 61.0445 7.27225 60.782 7.27225C60.2758 7.27225 59.7883 7.34839 59.3196 7.50066C58.8509 7.65293 58.4103 7.87181 57.9978 8.15732C57.5853 8.42379 57.2197 8.75688 56.901 9.15659C56.5822 9.53727 56.3291 9.95601 56.1416 10.4128H56.0854V7.67196H52.2887Z" fill="#EDEDED"/>
<path d="M67.3255 5.38791V2.04748H63.332V5.38791H67.3255ZM63.332 7.67196V22.4326H67.3255V7.67196H63.332Z" fill="#EDEDED"/>
<path d="M70.3014 12.2115C70.3576 11.2598 70.592 10.4699 71.0044 9.84181C71.4169 9.21369 71.9419 8.7093 72.5794 8.32862C73.2168 7.94795 73.9293 7.68148 74.7167 7.52921C75.5229 7.3579 76.3292 7.27225 77.1354 7.27225C77.8666 7.27225 78.6072 7.32935 79.3571 7.44355C80.1071 7.53872 80.7914 7.73858 81.4101 8.04312C82.0288 8.34766 82.5351 8.77592 82.9288 9.3279C83.3225 9.86084 83.5194 10.5746 83.5194 11.4692V19.1493C83.5194 19.8155 83.5569 20.4531 83.6319 21.0622C83.7069 21.6713 83.8381 22.1281 84.0256 22.4326H79.9758C79.9008 22.2042 79.8352 21.9758 79.779 21.7474C79.7415 21.5 79.7133 21.2525 79.6946 21.0051C79.0571 21.6713 78.3072 22.1376 77.4447 22.4041C76.5823 22.6706 75.7011 22.8038 74.8011 22.8038C74.1074 22.8038 73.4606 22.7181 72.8606 22.5468C72.2606 22.3755 71.7357 22.1091 71.2857 21.7474C70.8357 21.3858 70.4795 20.929 70.217 20.377C69.9733 19.825 69.8514 19.1683 69.8514 18.407C69.8514 17.5695 69.992 16.8843 70.2732 16.3514C70.5732 15.7994 70.9482 15.3616 71.3982 15.038C71.8669 14.7144 72.3919 14.4765 72.9731 14.3243C73.5731 14.153 74.173 14.0197 74.773 13.9245C75.373 13.8294 75.9635 13.7532 76.5448 13.6961C77.126 13.639 77.6416 13.5534 78.0916 13.4392C78.5415 13.325 78.8978 13.1632 79.1602 12.9538C79.4227 12.7254 79.5446 12.4018 79.5259 11.9831C79.5259 11.5453 79.4509 11.2027 79.3009 10.9553C79.1696 10.6888 78.9821 10.489 78.7384 10.3557C78.5134 10.2034 78.2415 10.1083 77.9228 10.0702C77.6228 10.0131 77.2947 9.98456 76.9385 9.98456C76.151 9.98456 75.5323 10.1559 75.0823 10.4985C74.6324 10.8411 74.3699 11.4121 74.2949 12.2115H70.3014ZM79.5259 15.2093C79.3571 15.3616 79.1415 15.4853 78.879 15.5805C78.6353 15.6566 78.3634 15.7232 78.0634 15.7803C77.7822 15.8374 77.4822 15.885 77.1635 15.9231C76.8448 15.9612 76.526 16.0087 76.2073 16.0658C75.9073 16.1229 75.6073 16.1991 75.3073 16.2943C75.0261 16.3894 74.773 16.5227 74.548 16.694C74.3418 16.8462 74.173 17.0461 74.0418 17.2935C73.9105 17.541 73.8449 17.855 73.8449 18.2357C73.8449 18.5973 73.9105 18.9019 74.0418 19.1493C74.173 19.3968 74.3511 19.5966 74.5761 19.7489C74.8011 19.8821 75.0636 19.9773 75.3636 20.0344C75.6636 20.0915 75.9729 20.12 76.2917 20.12C77.0791 20.12 77.6885 19.9868 78.1197 19.7203C78.5509 19.4539 78.8696 19.1398 79.0759 18.7782C79.2821 18.3975 79.404 18.0168 79.4415 17.6361C79.4977 17.2555 79.5259 16.9509 79.5259 16.7225V15.2093ZM75.1105 1.79053L72.0169 5.84472H75.0261L76.826 3.53212L78.5697 5.84472H81.8601L78.7665 1.79053H75.1105Z" fill="#EDEDED"/>
<path d="M86.6191 7.67196V22.4326H90.6126V14.6954C90.6126 13.1917 90.8564 12.1163 91.3438 11.4692C91.8313 10.803 92.6188 10.4699 93.7062 10.4699C94.6624 10.4699 95.328 10.7745 95.703 11.3835C96.078 11.9736 96.2655 12.8777 96.2655 14.0959V22.4326H100.259V13.3535C100.259 12.4399 100.175 11.6119 100.006 10.8696C99.8559 10.1083 99.584 9.47065 99.1903 8.95674C98.7966 8.42379 98.2528 8.01457 97.5591 7.72906C96.8842 7.42452 96.0123 7.27225 94.9437 7.27225C94.0999 7.27225 93.275 7.4721 92.4688 7.87181C91.6626 8.25249 91.0064 8.87109 90.5001 9.7276H90.4158V7.67196H86.6191Z" fill="#EDEDED"/>
<path d="M110.068 18.9495C109.449 18.9495 108.933 18.8162 108.521 18.5498C108.108 18.2833 107.771 17.9407 107.508 17.5219C107.265 17.1032 107.087 16.6369 106.974 16.1229C106.88 15.59 106.833 15.0571 106.833 14.5241C106.833 13.9721 106.89 13.4487 107.002 12.9538C107.133 12.4399 107.33 11.9926 107.593 11.6119C107.874 11.2122 108.212 10.8982 108.605 10.6698C109.018 10.4414 109.505 10.3272 110.068 10.3272C110.724 10.3272 111.268 10.4509 111.699 10.6983C112.13 10.9458 112.477 11.2789 112.739 11.6976C113.002 12.1163 113.189 12.6017 113.302 13.1537C113.414 13.6866 113.471 14.2576 113.471 14.8667C113.471 15.3997 113.396 15.9136 113.246 16.4085C113.114 16.8843 112.908 17.3126 112.627 17.6932C112.346 18.0739 111.989 18.3784 111.558 18.6069C111.127 18.8353 110.63 18.9495 110.068 18.9495ZM117.267 21.4905V7.67196H113.471V9.64195H113.414C112.927 8.78543 112.318 8.17635 111.586 7.81471C110.874 7.45307 110.04 7.27225 109.083 7.27225C108.071 7.27225 107.171 7.4721 106.384 7.87181C105.615 8.27152 104.968 8.81399 104.443 9.4992C103.918 10.1654 103.515 10.9458 103.234 11.8404C102.971 12.7159 102.84 13.6295 102.84 14.5812C102.84 15.59 102.952 16.5512 103.177 17.4648C103.421 18.3594 103.796 19.1493 104.302 19.8345C104.809 20.5007 105.455 21.0337 106.243 21.4334C107.03 21.814 107.968 22.0044 109.055 22.0044C109.936 22.0044 110.771 21.8236 111.558 21.4619C112.364 21.0812 112.983 20.5007 113.414 19.7203H113.471V21.6618C113.489 22.7086 113.236 23.5747 112.711 24.2599C112.205 24.9451 111.389 25.2877 110.265 25.2877C109.552 25.2877 108.924 25.1354 108.38 24.8309C107.837 24.5454 107.471 24.022 107.283 23.2606H103.318C103.374 24.0981 103.599 24.8119 103.993 25.4019C104.406 26.011 104.912 26.5059 105.512 26.8865C106.13 27.2672 106.805 27.5432 107.537 27.7145C108.287 27.9048 109.018 28 109.73 28C111.399 28 112.73 27.7716 113.724 27.3148C114.717 26.858 115.477 26.2965 116.002 25.6303C116.527 24.9832 116.864 24.2789 117.014 23.5176C117.183 22.7562 117.267 22.0805 117.267 21.4905Z" fill="#EDEDED"/>
<path d="M134.122 22.4326V7.67196H130.129V15.4092C130.129 16.9128 129.885 17.9978 129.398 18.664C128.91 19.3111 128.123 19.6347 127.035 19.6347C126.079 19.6347 125.414 19.3397 125.039 18.7496C124.664 18.1405 124.476 17.2269 124.476 16.0087V7.67196H120.483V16.7511C120.483 17.6647 120.558 18.5022 120.708 19.2635C120.876 20.0058 121.158 20.6435 121.551 21.1764C121.945 21.6903 122.479 22.09 123.154 22.3755C123.848 22.661 124.729 22.8038 125.798 22.8038C126.642 22.8038 127.467 22.6135 128.273 22.2328C129.079 21.8521 129.735 21.2335 130.241 20.377H130.326V22.4326H134.122Z" fill="#EDEDED"/>
<path d="M137.266 2.04748V22.4326H141.259V2.04748H137.266Z" fill="#EDEDED"/>
<path d="M147.948 15.0666C147.948 14.4765 148.004 13.896 148.116 13.325C148.229 12.754 148.416 12.2496 148.679 11.8118C148.96 11.374 149.326 11.0219 149.776 10.7554C150.226 10.4699 150.788 10.3272 151.463 10.3272C152.138 10.3272 152.7 10.4699 153.15 10.7554C153.619 11.0219 153.985 11.374 154.247 11.8118C154.528 12.2496 154.725 12.754 154.838 13.325C154.95 13.896 155.007 14.4765 155.007 15.0666C155.007 15.6566 154.95 16.2372 154.838 16.8082C154.725 17.3601 154.528 17.8645 154.247 18.3213C153.985 18.7591 153.619 19.1112 153.15 19.3777C152.7 19.6442 152.138 19.7774 151.463 19.7774C150.788 19.7774 150.226 19.6442 149.776 19.3777C149.326 19.1112 148.96 18.7591 148.679 18.3213C148.416 17.8645 148.229 17.3601 148.116 16.8082C148.004 16.2372 147.948 15.6566 147.948 15.0666ZM143.954 15.0666C143.954 16.2467 144.132 17.3126 144.488 18.2642C144.845 19.2159 145.351 20.0344 146.007 20.7196C146.663 21.3858 147.451 21.8997 148.369 22.2613C149.288 22.623 150.319 22.8038 151.463 22.8038C152.607 22.8038 153.638 22.623 154.557 22.2613C155.494 21.8997 156.291 21.3858 156.947 20.7196C157.603 20.0344 158.11 19.2159 158.466 18.2642C158.822 17.3126 159 16.2467 159 15.0666C159 13.8865 158.822 12.8206 158.466 11.8689C158.11 10.8982 157.603 10.0797 156.947 9.41355C156.291 8.72833 155.494 8.20491 154.557 7.84326C153.638 7.46259 152.607 7.27225 151.463 7.27225C150.319 7.27225 149.288 7.46259 148.369 7.84326C147.451 8.20491 146.663 8.72833 146.007 9.41355C145.351 10.0797 144.845 10.8982 144.488 11.8689C144.132 12.8206 143.954 13.8865 143.954 15.0666Z" fill="#EDEDED"/>
<path d="M17.5902 19.2124C16.0912 21.8607 15.3417 23.1848 14.3631 23.6292C13.5096 24.0168 12.5349 24.0168 11.6814 23.6292C10.7029 23.1848 9.95334 21.8607 8.45431 19.2124L2.1474 8.07016C0.648361 5.42185 -0.101159 4.0977 0.0108058 3.01113C0.108467 2.06338 0.59581 1.2024 1.35167 0.642262C2.21825 7.51277e-05 3.71729 7.63296e-05 6.71536 7.65957e-05L19.3292 7.77152e-05C22.3273 7.79813e-05 23.8263 7.70454e-05 24.6929 0.642264C25.4487 1.20241 25.9361 2.06338 26.0337 3.01113C26.1457 4.0977 25.3962 5.42185 23.8971 8.07016L17.5902 19.2124Z" fill="#EDEDED"/>
</svg>
