<svg width="736" height="410" viewBox="0 0 736 410" fill="none" xmlns="http://www.w3.org/2000/svg">
<rect x="252" y="39" width="484" height="42" fill="#0088FF"/>
<rect x="252" y="368" width="484" height="42" fill="#FF802E"/>
<rect x="252" y="81" width="323" height="287" fill="#6BC9BB"/>
<rect x="575" y="81" width="161" height="287" fill="#00B3A1"/>
<path d="M267.056 66.192C265.584 66.192 264.48 65.696 263.744 64.704C263.019 63.712 262.656 62.2827 262.656 60.416C262.656 58.5493 263.019 57.12 263.744 56.128C264.48 55.136 265.584 54.64 267.056 54.64C269.2 54.64 270.517 55.712 271.008 57.856L268.768 58.4C268.629 57.8027 268.432 57.3493 268.176 57.04C267.92 56.7307 267.531 56.576 267.008 56.576C266.379 56.576 265.92 56.8213 265.632 57.312C265.355 57.8027 265.216 58.512 265.216 59.44V61.392C265.216 62.32 265.355 63.0293 265.632 63.52C265.92 64.0107 266.379 64.256 267.008 64.256C267.531 64.256 267.92 64.1013 268.176 63.792C268.432 63.4827 268.629 63.0293 268.768 62.432L271.008 62.976C270.517 65.12 269.2 66.192 267.056 66.192ZM279.386 66C278.895 66 278.495 65.872 278.186 65.616C277.887 65.36 277.716 65.0027 277.674 64.544H277.594C277.455 65.0773 277.162 65.488 276.714 65.776C276.266 66.0533 275.722 66.192 275.082 66.192C274.271 66.192 273.626 65.9733 273.146 65.536C272.666 65.0987 272.426 64.496 272.426 63.728C272.426 62.032 273.663 61.184 276.138 61.184H277.466V60.768C277.466 60.2667 277.348 59.8933 277.114 59.648C276.879 59.4027 276.495 59.28 275.962 59.28C275.492 59.28 275.098 59.3707 274.778 59.552C274.468 59.7333 274.191 59.9893 273.946 60.32L272.65 59.168C272.938 58.6773 273.386 58.288 273.994 58C274.602 57.7013 275.348 57.552 276.234 57.552C277.375 57.552 278.26 57.8187 278.89 58.352C279.519 58.8747 279.834 59.648 279.834 60.672V63.744C279.834 63.8933 279.887 64.0213 279.994 64.128C280.1 64.2347 280.228 64.288 280.378 64.288H280.746V66H279.386ZM275.978 64.64C276.415 64.64 276.772 64.5387 277.05 64.336C277.327 64.1227 277.466 63.8293 277.466 63.456V62.464H276.202C275.732 62.464 275.37 62.5493 275.114 62.72C274.868 62.88 274.746 63.12 274.746 63.44V63.76C274.746 64.048 274.852 64.2667 275.066 64.416C275.29 64.5653 275.594 64.64 275.978 64.64ZM282.132 54.16H284.5V59.248H284.612C284.836 58.7147 285.14 58.2987 285.524 58C285.918 57.7013 286.43 57.552 287.06 57.552C288.009 57.552 288.761 57.9147 289.316 58.64C289.881 59.3547 290.164 60.432 290.164 61.872C290.164 63.312 289.881 64.3947 289.316 65.12C288.761 65.8347 288.009 66.192 287.06 66.192C286.43 66.192 285.918 66.0427 285.524 65.744C285.14 65.4453 284.836 65.0293 284.612 64.496H284.5V66H282.132V54.16ZM286.036 64.352C286.558 64.352 286.964 64.192 287.252 63.872C287.55 63.5413 287.7 63.088 287.7 62.512V61.232C287.7 60.656 287.55 60.208 287.252 59.888C286.964 59.5573 286.558 59.392 286.036 59.392C285.588 59.392 285.22 59.4987 284.932 59.712C284.644 59.9253 284.5 60.24 284.5 60.656V63.088C284.5 63.504 284.644 63.8187 284.932 64.032C285.22 64.2453 285.588 64.352 286.036 64.352ZM295.805 66.192C294.44 66.192 293.395 65.8133 292.669 65.056C291.944 64.2987 291.581 63.248 291.581 61.904C291.581 60.5493 291.939 59.488 292.653 58.72C293.379 57.9413 294.36 57.552 295.597 57.552C296.824 57.552 297.795 57.9307 298.509 58.688C299.224 59.4347 299.581 60.4533 299.581 61.744V62.448H293.933V62.592C293.933 63.136 294.104 63.568 294.445 63.888C294.787 64.208 295.267 64.368 295.885 64.368C296.76 64.368 297.485 64.0267 298.061 63.344L299.341 64.736C298.989 65.1733 298.52 65.5253 297.933 65.792C297.347 66.0587 296.637 66.192 295.805 66.192ZM295.613 59.248C295.101 59.248 294.691 59.408 294.381 59.728C294.083 60.0373 293.933 60.4587 293.933 60.992V61.12H297.261V60.992C297.261 60.4587 297.112 60.0373 296.813 59.728C296.525 59.408 296.125 59.248 295.613 59.248ZM305.495 57.552C307.148 57.552 308.295 58.224 308.935 59.568L307.111 60.56C306.951 60.208 306.743 59.936 306.487 59.744C306.242 59.5413 305.911 59.44 305.495 59.44C304.962 59.44 304.546 59.6 304.247 59.92C303.948 60.2293 303.799 60.656 303.799 61.2V62.544C303.799 63.0987 303.948 63.5307 304.247 63.84C304.546 64.1493 304.972 64.304 305.527 64.304C305.954 64.304 306.3 64.208 306.567 64.016C306.844 63.8133 307.079 63.5253 307.271 63.152L309.063 64.176C308.764 64.7947 308.332 65.28 307.767 65.632C307.212 65.984 306.514 66.1707 305.671 66.192L305.527 66.88L305.591 66.944C305.89 66.8693 306.146 66.832 306.359 66.832C306.7 66.832 306.978 66.9227 307.191 67.104C307.415 67.2853 307.527 67.5627 307.527 67.936C307.527 68.4373 307.324 68.8053 306.919 69.04C306.524 69.2747 306.023 69.392 305.415 69.392C304.914 69.392 304.498 69.3227 304.167 69.184C303.836 69.0453 303.591 68.88 303.431 68.688L304.167 67.792C304.423 68.1013 304.775 68.256 305.223 68.256C305.436 68.256 305.607 68.2187 305.735 68.144C305.863 68.08 305.927 67.984 305.927 67.856C305.927 67.504 305.527 67.2907 304.727 67.216L304.391 67.184L304.615 66.112C303.58 65.9413 302.775 65.488 302.199 64.752C301.623 64.0053 301.335 63.0453 301.335 61.872C301.335 60.5387 301.703 59.488 302.439 58.72C303.186 57.9413 304.204 57.552 305.495 57.552ZM317.761 66C317.27 66 316.87 65.872 316.561 65.616C316.262 65.36 316.091 65.0027 316.049 64.544H315.969C315.83 65.0773 315.537 65.488 315.089 65.776C314.641 66.0533 314.097 66.192 313.457 66.192C312.646 66.192 312.001 65.9733 311.521 65.536C311.041 65.0987 310.801 64.496 310.801 63.728C310.801 62.032 312.038 61.184 314.513 61.184H315.841V60.768C315.841 60.2667 315.723 59.8933 315.489 59.648C315.254 59.4027 314.87 59.28 314.337 59.28C313.867 59.28 313.473 59.3707 313.153 59.552C312.843 59.7333 312.566 59.9893 312.321 60.32L311.025 59.168C311.313 58.6773 311.761 58.288 312.369 58C312.977 57.7013 313.723 57.552 314.609 57.552C315.75 57.552 316.635 57.8187 317.265 58.352C317.894 58.8747 318.209 59.648 318.209 60.672V63.744C318.209 63.8933 318.262 64.0213 318.369 64.128C318.475 64.2347 318.603 64.288 318.753 64.288H319.121V66H317.761ZM314.353 64.64C314.79 64.64 315.147 64.5387 315.425 64.336C315.702 64.1227 315.841 63.8293 315.841 63.456V62.464H314.577C314.107 62.464 313.745 62.5493 313.489 62.72C313.243 62.88 313.121 63.12 313.121 63.44V63.76C313.121 64.048 313.227 64.2667 313.441 64.416C313.665 64.5653 313.969 64.64 314.353 64.64ZM320.651 64.16H323.179V56H320.651V54.16H325.547V64.16H328.075V66H320.651V64.16ZM330.196 54.16H332.564V59.248H332.66C332.863 58.736 333.162 58.3253 333.556 58.016C333.962 57.7067 334.474 57.552 335.092 57.552C335.903 57.552 336.554 57.824 337.044 58.368C337.535 58.912 337.78 59.6747 337.78 60.656V66H335.412V60.976C335.412 60.4533 335.295 60.0587 335.06 59.792C334.826 59.5147 334.479 59.376 334.02 59.376C333.626 59.376 333.284 59.4827 332.996 59.696C332.708 59.9093 332.564 60.2027 332.564 60.576V66H330.196V54.16ZM343.55 66.192C342.259 66.192 341.246 65.808 340.51 65.04C339.774 64.2613 339.406 63.2053 339.406 61.872C339.406 60.5387 339.774 59.488 340.51 58.72C341.246 57.9413 342.259 57.552 343.55 57.552C344.841 57.552 345.854 57.9413 346.59 58.72C347.326 59.488 347.694 60.5387 347.694 61.872C347.694 63.2053 347.326 64.2613 346.59 65.04C345.854 65.808 344.841 66.192 343.55 66.192ZM343.55 64.432C344.083 64.432 344.499 64.2667 344.798 63.936C345.097 63.6053 345.246 63.136 345.246 62.528V61.216C345.246 60.608 345.097 60.1387 344.798 59.808C344.499 59.4773 344.083 59.312 343.55 59.312C343.017 59.312 342.601 59.4773 342.302 59.808C342.003 60.1387 341.854 60.608 341.854 61.216V62.528C341.854 63.136 342.003 63.6053 342.302 63.936C342.601 64.2667 343.017 64.432 343.55 64.432Z" fill="black"/>
<path d="M267.056 108.192C265.584 108.192 264.48 107.696 263.744 106.704C263.019 105.712 262.656 104.283 262.656 102.416C262.656 100.549 263.019 99.12 263.744 98.128C264.48 97.136 265.584 96.64 267.056 96.64C269.2 96.64 270.517 97.712 271.008 99.856L268.768 100.4C268.629 99.8027 268.432 99.3493 268.176 99.04C267.92 98.7307 267.531 98.576 267.008 98.576C266.379 98.576 265.92 98.8213 265.632 99.312C265.355 99.8027 265.216 100.512 265.216 101.44V103.392C265.216 104.32 265.355 105.029 265.632 105.52C265.92 106.011 266.379 106.256 267.008 106.256C267.531 106.256 267.92 106.101 268.176 105.792C268.432 105.483 268.629 105.029 268.768 104.432L271.008 104.976C270.517 107.12 269.2 108.192 267.056 108.192ZM276.394 108.192C275.103 108.192 274.09 107.808 273.354 107.04C272.618 106.261 272.25 105.205 272.25 103.872C272.25 102.539 272.618 101.488 273.354 100.72C274.09 99.9413 275.103 99.552 276.394 99.552C277.684 99.552 278.698 99.9413 279.434 100.72C280.17 101.488 280.538 102.539 280.538 103.872C280.538 105.205 280.17 106.261 279.434 107.04C278.698 107.808 277.684 108.192 276.394 108.192ZM276.394 106.432C276.927 106.432 277.343 106.267 277.642 105.936C277.94 105.605 278.09 105.136 278.09 104.528V103.216C278.09 102.608 277.94 102.139 277.642 101.808C277.343 101.477 276.927 101.312 276.394 101.312C275.86 101.312 275.444 101.477 275.146 101.808C274.847 102.139 274.698 102.608 274.698 103.216V104.528C274.698 105.136 274.847 105.605 275.146 105.936C275.444 106.267 275.86 106.432 276.394 106.432ZM282.228 108V99.744H284.596V101.248H284.692C284.894 100.736 285.193 100.325 285.588 100.016C285.993 99.7067 286.505 99.552 287.124 99.552C287.934 99.552 288.585 99.824 289.076 100.368C289.566 100.912 289.812 101.675 289.812 102.656V108H287.444V102.976C287.444 102.453 287.326 102.059 287.092 101.792C286.857 101.515 286.51 101.376 286.052 101.376C285.657 101.376 285.316 101.483 285.028 101.696C284.74 101.909 284.596 102.203 284.596 102.576V108H282.228ZM296.061 105.616C296.061 105.765 296.115 105.893 296.221 106C296.328 106.107 296.456 106.16 296.605 106.16H299.277V108H296.221C295.389 108 294.76 107.787 294.333 107.36C293.907 106.923 293.693 106.341 293.693 105.616V101.584H291.453V99.744H293.693V96.832H296.061V99.744H299.277V101.584H296.061V105.616ZM305.399 108.192C304.034 108.192 302.988 107.813 302.263 107.056C301.538 106.299 301.175 105.248 301.175 103.904C301.175 102.549 301.532 101.488 302.247 100.72C302.972 99.9413 303.954 99.552 305.191 99.552C306.418 99.552 307.388 99.9307 308.103 100.688C308.818 101.435 309.175 102.453 309.175 103.744V104.448H303.527V104.592C303.527 105.136 303.698 105.568 304.039 105.888C304.38 106.208 304.86 106.368 305.479 106.368C306.354 106.368 307.079 106.027 307.655 105.344L308.935 106.736C308.583 107.173 308.114 107.525 307.527 107.792C306.94 108.059 306.231 108.192 305.399 108.192ZM305.207 101.248C304.695 101.248 304.284 101.408 303.975 101.728C303.676 102.037 303.527 102.459 303.527 102.992V103.12H306.855V102.992C306.855 102.459 306.706 102.037 306.407 101.728C306.119 101.408 305.719 101.248 305.207 101.248ZM316.161 106.496H316.065C315.862 107.008 315.558 107.419 315.153 107.728C314.758 108.037 314.251 108.192 313.633 108.192C312.822 108.192 312.171 107.92 311.681 107.376C311.19 106.832 310.945 106.069 310.945 105.088V99.744H313.313V104.768C313.313 105.291 313.43 105.691 313.665 105.968C313.899 106.235 314.246 106.368 314.705 106.368C315.099 106.368 315.441 106.261 315.729 106.048C316.017 105.835 316.161 105.541 316.161 105.168V99.744H318.529V108H316.161V106.496ZM314.993 99.04L313.585 98.352L315.489 94.768L317.457 95.744L314.993 99.04ZM325.851 106.496H325.739C325.515 107.029 325.205 107.445 324.811 107.744C324.427 108.043 323.92 108.192 323.291 108.192C322.341 108.192 321.584 107.835 321.019 107.12C320.464 106.395 320.187 105.312 320.187 103.872C320.187 102.432 320.464 101.355 321.019 100.64C321.584 99.9147 322.341 99.552 323.291 99.552C323.92 99.552 324.427 99.7013 324.811 100C325.205 100.299 325.515 100.715 325.739 101.248H325.851V96.16H328.219V108H325.851V106.496ZM324.315 106.352C324.763 106.352 325.131 106.245 325.419 106.032C325.707 105.819 325.851 105.504 325.851 105.088V102.656C325.851 102.24 325.707 101.925 325.419 101.712C325.131 101.499 324.763 101.392 324.315 101.392C323.792 101.392 323.381 101.557 323.083 101.888C322.795 102.208 322.651 102.656 322.651 103.232V104.512C322.651 105.088 322.795 105.541 323.083 105.872C323.381 106.192 323.792 106.352 324.315 106.352ZM333.956 108.192C332.666 108.192 331.652 107.808 330.916 107.04C330.18 106.261 329.812 105.205 329.812 103.872C329.812 102.539 330.18 101.488 330.916 100.72C331.652 99.9413 332.666 99.552 333.956 99.552C335.247 99.552 336.26 99.9413 336.996 100.72C337.732 101.488 338.1 102.539 338.1 103.872C338.1 105.205 337.732 106.261 336.996 107.04C336.26 107.808 335.247 108.192 333.956 108.192ZM333.956 106.432C334.49 106.432 334.906 106.267 335.204 105.936C335.503 105.605 335.652 105.136 335.652 104.528V103.216C335.652 102.608 335.503 102.139 335.204 101.808C334.906 101.477 334.49 101.312 333.956 101.312C333.423 101.312 333.007 101.477 332.708 101.808C332.41 102.139 332.26 102.608 332.26 103.216V104.528C332.26 105.136 332.41 105.605 332.708 105.936C333.007 106.267 333.423 106.432 333.956 106.432Z" fill="black"/>
<path d="M586.232 96.832H590.152C591.229 96.832 592.061 97.0987 592.648 97.632C593.245 98.1653 593.544 98.8907 593.544 99.808C593.544 101.024 592.936 101.808 591.72 102.16V102.256C593.171 102.608 593.896 103.499 593.896 104.928C593.896 105.867 593.592 106.613 592.984 107.168C592.387 107.723 591.565 108 590.52 108H586.232V96.832ZM589.48 101.568C590.056 101.568 590.467 101.472 590.712 101.28C590.968 101.088 591.096 100.752 591.096 100.272V99.792C591.096 99.312 590.968 98.9813 590.712 98.8C590.467 98.608 590.056 98.512 589.48 98.512H588.568V101.568H589.48ZM589.784 106.32C590.371 106.32 590.792 106.224 591.048 106.032C591.315 105.829 591.448 105.477 591.448 104.976V104.512C591.448 104.021 591.315 103.675 591.048 103.472C590.792 103.269 590.371 103.168 589.784 103.168H588.568V106.32H589.784ZM602.386 108C601.895 108 601.495 107.872 601.186 107.616C600.887 107.36 600.716 107.003 600.674 106.544H600.594C600.455 107.077 600.162 107.488 599.714 107.776C599.266 108.053 598.722 108.192 598.082 108.192C597.271 108.192 596.626 107.973 596.146 107.536C595.666 107.099 595.426 106.496 595.426 105.728C595.426 104.032 596.663 103.184 599.138 103.184H600.466V102.768C600.466 102.267 600.348 101.893 600.114 101.648C599.879 101.403 599.495 101.28 598.962 101.28C598.492 101.28 598.098 101.371 597.778 101.552C597.468 101.733 597.191 101.989 596.946 102.32L595.65 101.168C595.938 100.677 596.386 100.288 596.994 100C597.602 99.7013 598.348 99.552 599.234 99.552C600.375 99.552 601.26 99.8187 601.89 100.352C602.519 100.875 602.834 101.648 602.834 102.672V105.744C602.834 105.893 602.887 106.021 602.994 106.128C603.1 106.235 603.228 106.288 603.378 106.288H603.746V108H602.386ZM598.978 106.64C599.415 106.64 599.772 106.539 600.05 106.336C600.327 106.123 600.466 105.829 600.466 105.456V104.464H599.202C598.732 104.464 598.37 104.549 598.114 104.72C597.868 104.88 597.746 105.12 597.746 105.44V105.76C597.746 106.048 597.852 106.267 598.066 106.416C598.29 106.565 598.594 106.64 598.978 106.64ZM605.372 106.16H607.276V101.584H605.372V99.744H609.644V102.08H609.756C610.15 100.523 611.03 99.744 612.396 99.744H613.18V101.92H611.42C610.854 101.92 610.417 102.091 610.108 102.432C609.798 102.763 609.644 103.189 609.644 103.712V106.16H612.364V108H605.372V106.16ZM614.965 106.16H616.869V101.584H614.965V99.744H619.237V102.08H619.349C619.744 100.523 620.624 99.744 621.989 99.744H622.773V101.92H621.013C620.448 101.92 620.011 102.091 619.701 102.432C619.392 102.763 619.237 103.189 619.237 103.712V106.16H621.957V108H614.965V106.16ZM631.167 108C630.676 108 630.276 107.872 629.967 107.616C629.668 107.36 629.498 107.003 629.455 106.544H629.375C629.236 107.077 628.943 107.488 628.495 107.776C628.047 108.053 627.503 108.192 626.863 108.192C626.052 108.192 625.407 107.973 624.927 107.536C624.447 107.099 624.207 106.496 624.207 105.728C624.207 104.032 625.444 103.184 627.919 103.184H629.247V102.768C629.247 102.267 629.13 101.893 628.895 101.648C628.66 101.403 628.276 101.28 627.743 101.28C627.274 101.28 626.879 101.371 626.559 101.552C626.25 101.733 625.972 101.989 625.727 102.32L624.431 101.168C624.719 100.677 625.167 100.288 625.775 100C626.383 99.7013 627.13 99.552 628.015 99.552C629.156 99.552 630.042 99.8187 630.671 100.352C631.3 100.875 631.615 101.648 631.615 102.672V105.744C631.615 105.893 631.668 106.021 631.775 106.128C631.882 106.235 632.01 106.288 632.159 106.288H632.527V108H631.167ZM627.759 106.64C628.196 106.64 628.554 106.539 628.831 106.336C629.108 106.123 629.247 105.829 629.247 105.456V104.464H627.983C627.514 104.464 627.151 104.549 626.895 104.72C626.65 104.88 626.527 105.12 626.527 105.44V105.76C626.527 106.048 626.634 106.267 626.847 106.416C627.071 106.565 627.375 106.64 627.759 106.64ZM643.651 106.16H646.179V98H643.651V96.16H648.547V106.16H651.075V108H643.651V106.16ZM659.948 108C659.458 108 659.058 107.872 658.748 107.616C658.45 107.36 658.279 107.003 658.236 106.544H658.156C658.018 107.077 657.724 107.488 657.276 107.776C656.828 108.053 656.284 108.192 655.644 108.192C654.834 108.192 654.188 107.973 653.708 107.536C653.228 107.099 652.988 106.496 652.988 105.728C652.988 104.032 654.226 103.184 656.7 103.184H658.028V102.768C658.028 102.267 657.911 101.893 657.676 101.648C657.442 101.403 657.058 101.28 656.524 101.28C656.055 101.28 655.66 101.371 655.34 101.552C655.031 101.733 654.754 101.989 654.508 102.32L653.212 101.168C653.5 100.677 653.948 100.288 654.556 100C655.164 99.7013 655.911 99.552 656.796 99.552C657.938 99.552 658.823 99.8187 659.452 100.352C660.082 100.875 660.396 101.648 660.396 102.672V105.744C660.396 105.893 660.45 106.021 660.556 106.128C660.663 106.235 660.791 106.288 660.94 106.288H661.308V108H659.948ZM656.54 106.64C656.978 106.64 657.335 106.539 657.612 106.336C657.89 106.123 658.028 105.829 658.028 105.456V104.464H656.764C656.295 104.464 655.932 104.549 655.676 104.72C655.431 104.88 655.308 105.12 655.308 105.44V105.76C655.308 106.048 655.415 106.267 655.628 106.416C655.852 106.565 656.156 106.64 656.54 106.64ZM667.03 105.616C667.03 105.765 667.083 105.893 667.19 106C667.297 106.107 667.425 106.16 667.574 106.16H670.246V108H667.19C666.358 108 665.729 107.787 665.302 107.36C664.875 106.923 664.662 106.341 664.662 105.616V101.584H662.422V99.744H664.662V96.832H667.03V99.744H670.246V101.584H667.03V105.616ZM676.368 108.192C675.002 108.192 673.957 107.813 673.232 107.056C672.506 106.299 672.144 105.248 672.144 103.904C672.144 102.549 672.501 101.488 673.216 100.72C673.941 99.9413 674.922 99.552 676.16 99.552C677.386 99.552 678.357 99.9307 679.072 100.688C679.786 101.435 680.144 102.453 680.144 103.744V104.448H674.496V104.592C674.496 105.136 674.666 105.568 675.008 105.888C675.349 106.208 675.829 106.368 676.448 106.368C677.322 106.368 678.048 106.027 678.624 105.344L679.904 106.736C679.552 107.173 679.082 107.525 678.496 107.792C677.909 108.059 677.2 108.192 676.368 108.192ZM676.176 101.248C675.664 101.248 675.253 101.408 674.944 101.728C674.645 102.037 674.496 102.459 674.496 102.992V103.12H677.824V102.992C677.824 102.459 677.674 102.037 677.376 101.728C677.088 101.408 676.688 101.248 676.176 101.248ZM682.122 106.16H684.026V101.584H682.122V99.744H686.394V102.08H686.506C686.9 100.523 687.78 99.744 689.146 99.744H689.93V101.92H688.17C687.604 101.92 687.167 102.091 686.858 102.432C686.548 102.763 686.394 103.189 686.394 103.712V106.16H689.114V108H682.122V106.16ZM698.323 108C697.833 108 697.433 107.872 697.123 107.616C696.825 107.36 696.654 107.003 696.611 106.544H696.531C696.393 107.077 696.099 107.488 695.651 107.776C695.203 108.053 694.659 108.192 694.019 108.192C693.209 108.192 692.563 107.973 692.083 107.536C691.603 107.099 691.363 106.496 691.363 105.728C691.363 104.032 692.601 103.184 695.075 103.184H696.403V102.768C696.403 102.267 696.286 101.893 696.051 101.648C695.817 101.403 695.433 101.28 694.899 101.28C694.43 101.28 694.035 101.371 693.715 101.552C693.406 101.733 693.129 101.989 692.883 102.32L691.587 101.168C691.875 100.677 692.323 100.288 692.931 100C693.539 99.7013 694.286 99.552 695.171 99.552C696.313 99.552 697.198 99.8187 697.827 100.352C698.457 100.875 698.771 101.648 698.771 102.672V105.744C698.771 105.893 698.825 106.021 698.931 106.128C699.038 106.235 699.166 106.288 699.315 106.288H699.683V108H698.323ZM694.915 106.64C695.353 106.64 695.71 106.539 695.987 106.336C696.265 106.123 696.403 105.829 696.403 105.456V104.464H695.139C694.67 104.464 694.307 104.549 694.051 104.72C693.806 104.88 693.683 105.12 693.683 105.44V105.76C693.683 106.048 693.79 106.267 694.003 106.416C694.227 106.565 694.531 106.64 694.915 106.64ZM701.213 106.16H703.741V98H701.213V96.16H706.109V106.16H708.637V108H701.213V106.16Z" fill="black"/>
<path d="M265.584 395H263.216V383.832H267.536C268.624 383.832 269.467 384.152 270.064 384.792C270.661 385.421 270.96 386.285 270.96 387.384C270.96 388.173 270.784 388.856 270.432 389.432C270.091 389.997 269.611 390.365 268.992 390.536L271.184 395H268.56L266.688 390.856H265.584V395ZM266.96 389C267.515 389 267.904 388.893 268.128 388.68C268.352 388.467 268.464 388.115 268.464 387.624V387.144C268.464 386.653 268.352 386.301 268.128 386.088C267.904 385.875 267.515 385.768 266.96 385.768H265.584V389H266.96ZM276.394 395.192C275.103 395.192 274.09 394.808 273.354 394.04C272.618 393.261 272.25 392.205 272.25 390.872C272.25 389.539 272.618 388.488 273.354 387.72C274.09 386.941 275.103 386.552 276.394 386.552C277.684 386.552 278.698 386.941 279.434 387.72C280.17 388.488 280.538 389.539 280.538 390.872C280.538 392.205 280.17 393.261 279.434 394.04C278.698 394.808 277.684 395.192 276.394 395.192ZM276.394 393.432C276.927 393.432 277.343 393.267 277.642 392.936C277.94 392.605 278.09 392.136 278.09 391.528V390.216C278.09 389.608 277.94 389.139 277.642 388.808C277.343 388.477 276.927 388.312 276.394 388.312C275.86 388.312 275.444 388.477 275.146 388.808C274.847 389.139 274.698 389.608 274.698 390.216V391.528C274.698 392.136 274.847 392.605 275.146 392.936C275.444 393.267 275.86 393.432 276.394 393.432ZM287.476 393.496H287.364C287.14 394.029 286.83 394.445 286.436 394.744C286.052 395.043 285.545 395.192 284.916 395.192C283.966 395.192 283.209 394.835 282.644 394.12C282.089 393.395 281.812 392.312 281.812 390.872C281.812 389.432 282.089 388.355 282.644 387.64C283.209 386.915 283.966 386.552 284.916 386.552C285.545 386.552 286.052 386.701 286.436 387C286.83 387.299 287.14 387.715 287.364 388.248H287.476V383.16H289.844V395H287.476V393.496ZM285.94 393.352C286.388 393.352 286.756 393.245 287.044 393.032C287.332 392.819 287.476 392.504 287.476 392.088V389.656C287.476 389.24 287.332 388.925 287.044 388.712C286.756 388.499 286.388 388.392 285.94 388.392C285.417 388.392 285.006 388.557 284.708 388.888C284.42 389.208 284.276 389.656 284.276 390.232V391.512C284.276 392.088 284.42 392.541 284.708 392.872C285.006 393.192 285.417 393.352 285.94 393.352ZM298.573 395C298.083 395 297.683 394.872 297.373 394.616C297.075 394.36 296.904 394.003 296.861 393.544H296.781C296.643 394.077 296.349 394.488 295.901 394.776C295.453 395.053 294.909 395.192 294.269 395.192C293.459 395.192 292.813 394.973 292.333 394.536C291.853 394.099 291.613 393.496 291.613 392.728C291.613 391.032 292.851 390.184 295.325 390.184H296.653V389.768C296.653 389.267 296.536 388.893 296.301 388.648C296.067 388.403 295.683 388.28 295.149 388.28C294.68 388.28 294.285 388.371 293.965 388.552C293.656 388.733 293.379 388.989 293.133 389.32L291.837 388.168C292.125 387.677 292.573 387.288 293.181 387C293.789 386.701 294.536 386.552 295.421 386.552C296.563 386.552 297.448 386.819 298.077 387.352C298.707 387.875 299.021 388.648 299.021 389.672V392.744C299.021 392.893 299.075 393.021 299.181 393.128C299.288 393.235 299.416 393.288 299.565 393.288H299.933V395H298.573ZM295.165 393.64C295.603 393.64 295.96 393.539 296.237 393.336C296.515 393.123 296.653 392.829 296.653 392.456V391.464H295.389C294.92 391.464 294.557 391.549 294.301 391.72C294.056 391.88 293.933 392.12 293.933 392.44V392.76C293.933 393.048 294.04 393.267 294.253 393.416C294.477 393.565 294.781 393.64 295.165 393.64ZM301.319 386.744H303.687V388.248H303.799C304.023 387.715 304.327 387.299 304.711 387C305.106 386.701 305.618 386.552 306.247 386.552C307.196 386.552 307.948 386.915 308.503 387.64C309.068 388.355 309.351 389.432 309.351 390.872C309.351 392.312 309.068 393.395 308.503 394.12C307.948 394.835 307.196 395.192 306.247 395.192C305.618 395.192 305.106 395.043 304.711 394.744C304.327 394.445 304.023 394.029 303.799 393.496H303.687V398.2H301.319V386.744ZM305.223 393.352C305.746 393.352 306.151 393.192 306.439 392.872C306.738 392.541 306.887 392.088 306.887 391.512V390.232C306.887 389.656 306.738 389.208 306.439 388.888C306.151 388.557 305.746 388.392 305.223 388.392C304.775 388.392 304.407 388.499 304.119 388.712C303.831 388.925 303.687 389.24 303.687 389.656V392.088C303.687 392.504 303.831 392.819 304.119 393.032C304.407 393.245 304.775 393.352 305.223 393.352ZM314.993 395.192C313.627 395.192 312.582 394.813 311.857 394.056C311.131 393.299 310.769 392.248 310.769 390.904C310.769 389.549 311.126 388.488 311.841 387.72C312.566 386.941 313.547 386.552 314.785 386.552C316.011 386.552 316.982 386.931 317.697 387.688C318.411 388.435 318.769 389.453 318.769 390.744V391.448H313.121V391.592C313.121 392.136 313.291 392.568 313.633 392.888C313.974 393.208 314.454 393.368 315.073 393.368C315.947 393.368 316.673 393.027 317.249 392.344L318.529 393.736C318.177 394.173 317.707 394.525 317.121 394.792C316.534 395.059 315.825 395.192 314.993 395.192ZM314.801 388.248C314.289 388.248 313.878 388.408 313.569 388.728C313.27 389.037 313.121 389.459 313.121 389.992V390.12H316.449V389.992C316.449 389.459 316.299 389.037 316.001 388.728C315.713 388.408 315.313 388.248 314.801 388.248ZM315.041 386.04L313.633 385.352L315.537 381.768L317.505 382.744L315.041 386.04Z" fill="black"/>
<rect x="252" width="145" height="29" rx="10" fill="#EFF1F3"/>
<path d="M257.112 12.744H259.08L259.672 19.432H259.832L260.808 12.744H262.888L263.848 19.432H264.008L264.616 12.744H266.488L265.512 21H262.696L261.88 15.304H261.72L260.904 21H258.088L257.112 12.744ZM273.17 9.08V11.608H270.626V9.08H273.17ZM268.098 19.16H270.722V14.584H268.098V12.744L273.09 12.744V19.16H275.522V21H268.098V19.16ZM282.476 19.496H282.364C282.14 20.0293 281.83 20.4453 281.436 20.744C281.052 21.0427 280.545 21.192 279.916 21.192C278.966 21.192 278.209 20.8347 277.644 20.12C277.089 19.3947 276.812 18.312 276.812 16.872C276.812 15.432 277.089 14.3547 277.644 13.64C278.209 12.9147 278.966 12.552 279.916 12.552C280.545 12.552 281.052 12.7013 281.436 13C281.83 13.2987 282.14 13.7147 282.364 14.248H282.476V9.16H284.844V21H282.476V19.496ZM280.94 19.352C281.388 19.352 281.756 19.2453 282.044 19.032C282.332 18.8187 282.476 18.504 282.476 18.088V15.656C282.476 15.24 282.332 14.9253 282.044 14.712C281.756 14.4987 281.388 14.392 280.94 14.392C280.417 14.392 280.006 14.5573 279.708 14.888C279.42 15.208 279.276 15.656 279.276 16.232V17.512C279.276 18.088 279.42 18.5413 279.708 18.872C280.006 19.192 280.417 19.352 280.94 19.352ZM291.061 18.616C291.061 18.7653 291.115 18.8933 291.221 19C291.328 19.1067 291.456 19.16 291.605 19.16H294.277V21H291.221C290.389 21 289.76 20.7867 289.333 20.36C288.907 19.9227 288.693 19.3413 288.693 18.616V14.584H286.453V12.744H288.693V9.832H291.061V12.744H294.277V14.584H291.061V18.616ZM296.415 9.16L298.783 9.16V14.248H298.879C299.082 13.736 299.38 13.3253 299.775 13.016C300.18 12.7067 300.692 12.552 301.311 12.552C302.122 12.552 302.772 12.824 303.263 13.368C303.754 13.912 303.999 14.6747 303.999 15.656V21H301.631V15.976C301.631 15.4533 301.514 15.0587 301.279 14.792C301.044 14.5147 300.698 14.376 300.239 14.376C299.844 14.376 299.503 14.4827 299.215 14.696C298.927 14.9093 298.783 15.2027 298.783 15.576V21H296.415V9.16ZM315.923 18.696L320.675 16.184V16.056L315.923 13.544V11.336L322.803 15.016V17.224L315.923 20.904V18.696ZM325.148 15.224V13.336H332.764V15.224H325.148ZM325.148 18.904V17.016H332.764V18.904H325.148ZM351.744 11.928H346.576L346.32 15.464H346.464C346.72 14.8987 347.045 14.4667 347.44 14.168C347.834 13.8587 348.357 13.704 349.008 13.704C349.626 13.704 350.192 13.848 350.704 14.136C351.226 14.4133 351.642 14.824 351.952 15.368C352.261 15.9013 352.416 16.5307 352.416 17.256C352.416 18.0133 352.245 18.6907 351.904 19.288C351.562 19.8853 351.061 20.3547 350.4 20.696C349.749 21.0267 348.97 21.192 348.064 21.192C346.24 21.192 344.89 20.4773 344.016 19.048L345.76 17.672C346.048 18.1627 346.368 18.5467 346.72 18.824C347.082 19.1013 347.536 19.24 348.08 19.24C348.666 19.24 349.114 19.08 349.424 18.76C349.733 18.44 349.888 18.0027 349.888 17.448V17.32C349.888 16.7973 349.728 16.3867 349.408 16.088C349.098 15.7893 348.677 15.64 348.144 15.64C347.429 15.64 346.837 15.9013 346.368 16.424L344.4 16.152L344.816 9.832L351.744 9.832V11.928ZM357.738 21.192C356.266 21.192 355.167 20.696 354.442 19.704C353.727 18.712 353.37 17.2827 353.37 15.416C353.37 13.5493 353.727 12.12 354.442 11.128C355.167 10.136 356.266 9.64 357.738 9.64C359.21 9.64 360.303 10.136 361.017 11.128C361.743 12.12 362.106 13.5493 362.106 15.416C362.106 17.2827 361.743 18.712 361.017 19.704C360.303 20.696 359.21 21.192 357.738 21.192ZM357.738 19.304C358.42 19.304 358.911 19.064 359.21 18.584C359.508 18.0933 359.658 17.384 359.658 16.456V14.376C359.658 13.448 359.508 12.744 359.21 12.264C358.911 11.7733 358.42 11.528 357.738 11.528C357.055 11.528 356.564 11.7733 356.266 12.264C355.967 12.744 355.818 13.448 355.818 14.376V16.456C355.818 17.384 355.967 18.0933 356.266 18.584C356.564 19.064 357.055 19.304 357.738 19.304ZM357.738 16.36C357.076 16.36 356.746 16.104 356.746 15.592V15.24C356.746 14.728 357.076 14.472 357.738 14.472C358.399 14.472 358.73 14.728 358.73 15.24V15.592C358.73 16.104 358.399 16.36 357.738 16.36ZM367.331 21.192C365.859 21.192 364.761 20.696 364.035 19.704C363.321 18.712 362.963 17.2827 362.963 15.416C362.963 13.5493 363.321 12.12 364.035 11.128C364.761 10.136 365.859 9.64 367.331 9.64C368.803 9.64 369.897 10.136 370.611 11.128C371.337 12.12 371.699 13.5493 371.699 15.416C371.699 17.2827 371.337 18.712 370.611 19.704C369.897 20.696 368.803 21.192 367.331 21.192ZM367.331 19.304C368.014 19.304 368.505 19.064 368.803 18.584C369.102 18.0933 369.251 17.384 369.251 16.456V14.376C369.251 13.448 369.102 12.744 368.803 12.264C368.505 11.7733 368.014 11.528 367.331 11.528C366.649 11.528 366.158 11.7733 365.859 12.264C365.561 12.744 365.411 13.448 365.411 14.376V16.456C365.411 17.384 365.561 18.0933 365.859 18.584C366.158 19.064 366.649 19.304 367.331 19.304ZM367.331 16.36C366.67 16.36 366.339 16.104 366.339 15.592V15.24C366.339 14.728 366.67 14.472 367.331 14.472C367.993 14.472 368.323 14.728 368.323 15.24V15.592C368.323 16.104 367.993 16.36 367.331 16.36ZM373.069 12.744H375.437V14.248H375.549C375.773 13.7147 376.077 13.2987 376.461 13C376.856 12.7013 377.368 12.552 377.997 12.552C378.946 12.552 379.698 12.9147 380.253 13.64C380.818 14.3547 381.101 15.432 381.101 16.872C381.101 18.312 380.818 19.3947 380.253 20.12C379.698 20.8347 378.946 21.192 377.997 21.192C377.368 21.192 376.856 21.0427 376.461 20.744C376.077 20.4453 375.773 20.0293 375.549 19.496H375.437V24.2H373.069V12.744ZM376.973 19.352C377.496 19.352 377.901 19.192 378.189 18.872C378.488 18.5413 378.637 18.088 378.637 17.512V16.232C378.637 15.656 378.488 15.208 378.189 14.888C377.901 14.5573 377.496 14.392 376.973 14.392C376.525 14.392 376.157 14.4987 375.869 14.712C375.581 14.9253 375.437 15.24 375.437 15.656V18.088C375.437 18.504 375.581 18.8187 375.869 19.032C376.157 19.2453 376.525 19.352 376.973 19.352ZM382.087 21L385.175 16.808L382.295 12.744H384.999L385.879 14.072L386.551 15.144H386.679L387.367 14.072L388.263 12.744H390.743L387.863 16.68L390.951 21H388.231L387.191 19.448L386.471 18.344H386.343L385.639 19.448L384.583 21H382.087Z" fill="#12171A"/>
<rect y="39" width="242" height="42" fill="#0088FF"/>
<rect y="368" width="242" height="42" fill="#FF802E"/>
<rect y="326" width="242" height="42" fill="#00B3A1"/>
<rect y="81" width="242" height="245" fill="#6BC9BB"/>
<path d="M15.056 66.192C13.584 66.192 12.48 65.696 11.744 64.704C11.0187 63.712 10.656 62.2827 10.656 60.416C10.656 58.5493 11.0187 57.12 11.744 56.128C12.48 55.136 13.584 54.64 15.056 54.64C17.2 54.64 18.5173 55.712 19.008 57.856L16.768 58.4C16.6293 57.8027 16.432 57.3493 16.176 57.04C15.92 56.7307 15.5307 56.576 15.008 56.576C14.3787 56.576 13.92 56.8213 13.632 57.312C13.3547 57.8027 13.216 58.512 13.216 59.44V61.392C13.216 62.32 13.3547 63.0293 13.632 63.52C13.92 64.0107 14.3787 64.256 15.008 64.256C15.5307 64.256 15.92 64.1013 16.176 63.792C16.432 63.4827 16.6293 63.0293 16.768 62.432L19.008 62.976C18.5173 65.12 17.2 66.192 15.056 66.192ZM27.3858 66C26.8951 66 26.4951 65.872 26.1858 65.616C25.8871 65.36 25.7164 65.0027 25.6738 64.544H25.5938C25.4551 65.0773 25.1618 65.488 24.7138 65.776C24.2658 66.0533 23.7218 66.192 23.0818 66.192C22.2711 66.192 21.6258 65.9733 21.1458 65.536C20.6658 65.0987 20.4258 64.496 20.4258 63.728C20.4258 62.032 21.6631 61.184 24.1378 61.184H25.4658V60.768C25.4658 60.2667 25.3484 59.8933 25.1138 59.648C24.8791 59.4027 24.4951 59.28 23.9618 59.28C23.4924 59.28 23.0978 59.3707 22.7778 59.552C22.4684 59.7333 22.1911 59.9893 21.9457 60.32L20.6497 59.168C20.9378 58.6773 21.3858 58.288 21.9938 58C22.6018 57.7013 23.3484 57.552 24.2338 57.552C25.3751 57.552 26.2604 57.8187 26.8898 58.352C27.5191 58.8747 27.8338 59.648 27.8338 60.672V63.744C27.8338 63.8933 27.8871 64.0213 27.9938 64.128C28.1004 64.2347 28.2284 64.288 28.3778 64.288H28.7458V66H27.3858ZM23.9778 64.64C24.4151 64.64 24.7724 64.5387 25.0498 64.336C25.3271 64.1227 25.4658 63.8293 25.4658 63.456V62.464H24.2018C23.7324 62.464 23.3698 62.5493 23.1138 62.72C22.8684 62.88 22.7458 63.12 22.7458 63.44V63.76C22.7458 64.048 22.8524 64.2667 23.0658 64.416C23.2898 64.5653 23.5938 64.64 23.9778 64.64ZM30.1315 54.16H32.4995V59.248H32.6115C32.8355 58.7147 33.1395 58.2987 33.5235 58C33.9182 57.7013 34.4302 57.552 35.0595 57.552C36.0088 57.552 36.7608 57.9147 37.3155 58.64C37.8808 59.3547 38.1635 60.432 38.1635 61.872C38.1635 63.312 37.8808 64.3947 37.3155 65.12C36.7608 65.8347 36.0088 66.192 35.0595 66.192C34.4302 66.192 33.9182 66.0427 33.5235 65.744C33.1395 65.4453 32.8355 65.0293 32.6115 64.496H32.4995V66H30.1315V54.16ZM34.0355 64.352C34.5582 64.352 34.9635 64.192 35.2515 63.872C35.5502 63.5413 35.6995 63.088 35.6995 62.512V61.232C35.6995 60.656 35.5502 60.208 35.2515 59.888C34.9635 59.5573 34.5582 59.392 34.0355 59.392C33.5875 59.392 33.2195 59.4987 32.9315 59.712C32.6435 59.9253 32.4995 60.24 32.4995 60.656V63.088C32.4995 63.504 32.6435 63.8187 32.9315 64.032C33.2195 64.2453 33.5875 64.352 34.0355 64.352ZM43.8053 66.192C42.4399 66.192 41.3946 65.8133 40.6693 65.056C39.9439 64.2987 39.5813 63.248 39.5813 61.904C39.5813 60.5493 39.9386 59.488 40.6533 58.72C41.3786 57.9413 42.3599 57.552 43.5973 57.552C44.8239 57.552 45.7946 57.9307 46.5093 58.688C47.2239 59.4347 47.5813 60.4533 47.5813 61.744V62.448H41.9333V62.592C41.9333 63.136 42.1039 63.568 42.4453 63.888C42.7866 64.208 43.2666 64.368 43.8853 64.368C44.7599 64.368 45.4853 64.0267 46.0613 63.344L47.3413 64.736C46.9893 65.1733 46.5199 65.5253 45.9333 65.792C45.3466 66.0587 44.6373 66.192 43.8053 66.192ZM43.6133 59.248C43.1013 59.248 42.6906 59.408 42.3813 59.728C42.0826 60.0373 41.9333 60.4587 41.9333 60.992V61.12H45.2613V60.992C45.2613 60.4587 45.1119 60.0373 44.8133 59.728C44.5253 59.408 44.1253 59.248 43.6133 59.248ZM53.495 57.552C55.1483 57.552 56.295 58.224 56.935 59.568L55.111 60.56C54.951 60.208 54.743 59.936 54.487 59.744C54.2417 59.5413 53.911 59.44 53.495 59.44C52.9617 59.44 52.5457 59.6 52.247 59.92C51.9483 60.2293 51.799 60.656 51.799 61.2V62.544C51.799 63.0987 51.9483 63.5307 52.247 63.84C52.5457 64.1493 52.9723 64.304 53.527 64.304C53.9537 64.304 54.3003 64.208 54.567 64.016C54.8443 63.8133 55.079 63.5253 55.271 63.152L57.063 64.176C56.7643 64.7947 56.3323 65.28 55.767 65.632C55.2123 65.984 54.5137 66.1707 53.671 66.192L53.527 66.88L53.591 66.944C53.8897 66.8693 54.1457 66.832 54.359 66.832C54.7003 66.832 54.9777 66.9227 55.191 67.104C55.415 67.2853 55.527 67.5627 55.527 67.936C55.527 68.4373 55.3243 68.8053 54.919 69.04C54.5243 69.2747 54.023 69.392 53.415 69.392C52.9137 69.392 52.4977 69.3227 52.167 69.184C51.8363 69.0453 51.591 68.88 51.431 68.688L52.167 67.792C52.423 68.1013 52.775 68.256 53.223 68.256C53.4363 68.256 53.607 68.2187 53.735 68.144C53.863 68.08 53.927 67.984 53.927 67.856C53.927 67.504 53.527 67.2907 52.727 67.216L52.391 67.184L52.615 66.112C51.5803 65.9413 50.775 65.488 50.199 64.752C49.623 64.0053 49.335 63.0453 49.335 61.872C49.335 60.5387 49.703 59.488 50.439 58.72C51.1857 57.9413 52.2043 57.552 53.495 57.552ZM65.7608 66C65.2701 66 64.8701 65.872 64.5608 65.616C64.2621 65.36 64.0914 65.0027 64.0488 64.544H63.9688C63.8301 65.0773 63.5368 65.488 63.0888 65.776C62.6408 66.0533 62.0968 66.192 61.4568 66.192C60.6461 66.192 60.0008 65.9733 59.5208 65.536C59.0408 65.0987 58.8008 64.496 58.8008 63.728C58.8008 62.032 60.0381 61.184 62.5128 61.184H63.8408V60.768C63.8408 60.2667 63.7234 59.8933 63.4888 59.648C63.2541 59.4027 62.8701 59.28 62.3368 59.28C61.8674 59.28 61.4728 59.3707 61.1528 59.552C60.8434 59.7333 60.5661 59.9893 60.3207 60.32L59.0247 59.168C59.3128 58.6773 59.7608 58.288 60.3688 58C60.9768 57.7013 61.7234 57.552 62.6088 57.552C63.7501 57.552 64.6354 57.8187 65.2648 58.352C65.8941 58.8747 66.2088 59.648 66.2088 60.672V63.744C66.2088 63.8933 66.2621 64.0213 66.3688 64.128C66.4754 64.2347 66.6034 64.288 66.7528 64.288H67.1208V66H65.7608ZM62.3528 64.64C62.7901 64.64 63.1474 64.5387 63.4248 64.336C63.7021 64.1227 63.8408 63.8293 63.8408 63.456V62.464H62.5768C62.1074 62.464 61.7448 62.5493 61.4888 62.72C61.2434 62.88 61.1208 63.12 61.1208 63.44V63.76C61.1208 64.048 61.2274 64.2667 61.4408 64.416C61.6648 64.5653 61.9688 64.64 62.3528 64.64ZM68.6505 64.16H71.1785V56H68.6505V54.16H73.5465V64.16H76.0745V66H68.6505V64.16ZM78.1963 54.16H80.5643V59.248H80.6603C80.8629 58.736 81.1616 58.3253 81.5563 58.016C81.9616 57.7067 82.4736 57.552 83.0923 57.552C83.9029 57.552 84.5536 57.824 85.0443 58.368C85.5349 58.912 85.7803 59.6747 85.7803 60.656V66H83.4123V60.976C83.4123 60.4533 83.2949 60.0587 83.0603 59.792C82.8256 59.5147 82.4789 59.376 82.0203 59.376C81.6256 59.376 81.2843 59.4827 80.9963 59.696C80.7083 59.9093 80.5643 60.2027 80.5643 60.576V66H78.1963V54.16ZM91.55 66.192C90.2593 66.192 89.246 65.808 88.51 65.04C87.774 64.2613 87.406 63.2053 87.406 61.872C87.406 60.5387 87.774 59.488 88.51 58.72C89.246 57.9413 90.2593 57.552 91.55 57.552C92.8407 57.552 93.854 57.9413 94.59 58.72C95.326 59.488 95.694 60.5387 95.694 61.872C95.694 63.2053 95.326 64.2613 94.59 65.04C93.854 65.808 92.8407 66.192 91.55 66.192ZM91.55 64.432C92.0833 64.432 92.4993 64.2667 92.798 63.936C93.0967 63.6053 93.246 63.136 93.246 62.528V61.216C93.246 60.608 93.0967 60.1387 92.798 59.808C92.4993 59.4773 92.0833 59.312 91.55 59.312C91.0167 59.312 90.6007 59.4773 90.302 59.808C90.0033 60.1387 89.854 60.608 89.854 61.216V62.528C89.854 63.136 90.0033 63.6053 90.302 63.936C90.6007 64.2667 91.0167 64.432 91.55 64.432Z" fill="black"/>
<path d="M15.056 108.192C13.584 108.192 12.48 107.696 11.744 106.704C11.0187 105.712 10.656 104.283 10.656 102.416C10.656 100.549 11.0187 99.12 11.744 98.128C12.48 97.136 13.584 96.64 15.056 96.64C17.2 96.64 18.5173 97.712 19.008 99.856L16.768 100.4C16.6293 99.8027 16.432 99.3493 16.176 99.04C15.92 98.7307 15.5307 98.576 15.008 98.576C14.3787 98.576 13.92 98.8213 13.632 99.312C13.3547 99.8027 13.216 100.512 13.216 101.44V103.392C13.216 104.32 13.3547 105.029 13.632 105.52C13.92 106.011 14.3787 106.256 15.008 106.256C15.5307 106.256 15.92 106.101 16.176 105.792C16.432 105.483 16.6293 105.029 16.768 104.432L19.008 104.976C18.5173 107.12 17.2 108.192 15.056 108.192ZM24.3938 108.192C23.1031 108.192 22.0898 107.808 21.3538 107.04C20.6178 106.261 20.2498 105.205 20.2498 103.872C20.2498 102.539 20.6178 101.488 21.3538 100.72C22.0898 99.9413 23.1031 99.552 24.3938 99.552C25.6844 99.552 26.6978 99.9413 27.4338 100.72C28.1698 101.488 28.5378 102.539 28.5378 103.872C28.5378 105.205 28.1698 106.261 27.4338 107.04C26.6978 107.808 25.6844 108.192 24.3938 108.192ZM24.3938 106.432C24.9271 106.432 25.3431 106.267 25.6418 105.936C25.9404 105.605 26.0898 105.136 26.0898 104.528V103.216C26.0898 102.608 25.9404 102.139 25.6418 101.808C25.3431 101.477 24.9271 101.312 24.3938 101.312C23.8604 101.312 23.4444 101.477 23.1458 101.808C22.8471 102.139 22.6978 102.608 22.6978 103.216V104.528C22.6978 105.136 22.8471 105.605 23.1458 105.936C23.4444 106.267 23.8604 106.432 24.3938 106.432ZM30.2275 108V99.744H32.5955V101.248H32.6915C32.8942 100.736 33.1928 100.325 33.5875 100.016C33.9928 99.7067 34.5048 99.552 35.1235 99.552C35.9342 99.552 36.5848 99.824 37.0755 100.368C37.5662 100.912 37.8115 101.675 37.8115 102.656V108H35.4435V102.976C35.4435 102.453 35.3262 102.059 35.0915 101.792C34.8568 101.515 34.5102 101.376 34.0515 101.376C33.6568 101.376 33.3155 101.483 33.0275 101.696C32.7395 101.909 32.5955 102.203 32.5955 102.576V108H30.2275ZM44.0613 105.616C44.0613 105.765 44.1146 105.893 44.2213 106C44.3279 106.107 44.4559 106.16 44.6053 106.16H47.2773V108H44.2213C43.3893 108 42.7599 107.787 42.3333 107.36C41.9066 106.923 41.6933 106.341 41.6933 105.616V101.584H39.4533V99.744H41.6933V96.832H44.0613V99.744H47.2773V101.584H44.0613V105.616ZM53.399 108.192C52.0337 108.192 50.9883 107.813 50.263 107.056C49.5377 106.299 49.175 105.248 49.175 103.904C49.175 102.549 49.5323 101.488 50.247 100.72C50.9723 99.9413 51.9537 99.552 53.191 99.552C54.4177 99.552 55.3883 99.9307 56.103 100.688C56.8177 101.435 57.175 102.453 57.175 103.744V104.448H51.527V104.592C51.527 105.136 51.6977 105.568 52.039 105.888C52.3803 106.208 52.8603 106.368 53.479 106.368C54.3537 106.368 55.079 106.027 55.655 105.344L56.935 106.736C56.583 107.173 56.1137 107.525 55.527 107.792C54.9403 108.059 54.231 108.192 53.399 108.192ZM53.207 101.248C52.695 101.248 52.2843 101.408 51.975 101.728C51.6763 102.037 51.527 102.459 51.527 102.992V103.12H54.855V102.992C54.855 102.459 54.7057 102.037 54.407 101.728C54.119 101.408 53.719 101.248 53.207 101.248ZM64.1608 106.496H64.0648C63.8621 107.008 63.5581 107.419 63.1528 107.728C62.7581 108.037 62.2514 108.192 61.6328 108.192C60.8221 108.192 60.1714 107.92 59.6808 107.376C59.1901 106.832 58.9448 106.069 58.9448 105.088V99.744H61.3128V104.768C61.3128 105.291 61.4301 105.691 61.6648 105.968C61.8994 106.235 62.2461 106.368 62.7048 106.368C63.0994 106.368 63.4408 106.261 63.7288 106.048C64.0168 105.835 64.1608 105.541 64.1608 105.168V99.744H66.5288V108H64.1608V106.496ZM62.9928 99.04L61.5848 98.352L63.4888 94.768L65.4568 95.744L62.9928 99.04ZM73.8505 106.496H73.7385C73.5145 107.029 73.2052 107.445 72.8105 107.744C72.4265 108.043 71.9198 108.192 71.2905 108.192C70.3412 108.192 69.5838 107.835 69.0185 107.12C68.4638 106.395 68.1865 105.312 68.1865 103.872C68.1865 102.432 68.4638 101.355 69.0185 100.64C69.5838 99.9147 70.3412 99.552 71.2905 99.552C71.9198 99.552 72.4265 99.7013 72.8105 100C73.2052 100.299 73.5145 100.715 73.7385 101.248H73.8505V96.16H76.2185V108H73.8505V106.496ZM72.3145 106.352C72.7625 106.352 73.1305 106.245 73.4185 106.032C73.7065 105.819 73.8505 105.504 73.8505 105.088V102.656C73.8505 102.24 73.7065 101.925 73.4185 101.712C73.1305 101.499 72.7625 101.392 72.3145 101.392C71.7918 101.392 71.3812 101.557 71.0825 101.888C70.7945 102.208 70.6505 102.656 70.6505 103.232V104.512C70.6505 105.088 70.7945 105.541 71.0825 105.872C71.3812 106.192 71.7918 106.352 72.3145 106.352ZM81.9563 108.192C80.6656 108.192 79.6523 107.808 78.9163 107.04C78.1803 106.261 77.8123 105.205 77.8123 103.872C77.8123 102.539 78.1803 101.488 78.9163 100.72C79.6523 99.9413 80.6656 99.552 81.9563 99.552C83.2469 99.552 84.2603 99.9413 84.9963 100.72C85.7323 101.488 86.1003 102.539 86.1003 103.872C86.1003 105.205 85.7323 106.261 84.9963 107.04C84.2603 107.808 83.2469 108.192 81.9563 108.192ZM81.9563 106.432C82.4896 106.432 82.9056 106.267 83.2043 105.936C83.5029 105.605 83.6523 105.136 83.6523 104.528V103.216C83.6523 102.608 83.5029 102.139 83.2043 101.808C82.9056 101.477 82.4896 101.312 81.9563 101.312C81.4229 101.312 81.0069 101.477 80.7083 101.808C80.4096 102.139 80.2603 102.608 80.2603 103.216V104.528C80.2603 105.136 80.4096 105.605 80.7083 105.936C81.0069 106.267 81.4229 106.432 81.9563 106.432Z" fill="black"/>
<path d="M11.232 341.832H15.152C16.2293 341.832 17.0613 342.099 17.648 342.632C18.2453 343.165 18.544 343.891 18.544 344.808C18.544 346.024 17.936 346.808 16.72 347.16V347.256C18.1707 347.608 18.896 348.499 18.896 349.928C18.896 350.867 18.592 351.613 17.984 352.168C17.3867 352.723 16.5653 353 15.52 353H11.232V341.832ZM14.48 346.568C15.056 346.568 15.4667 346.472 15.712 346.28C15.968 346.088 16.096 345.752 16.096 345.272V344.792C16.096 344.312 15.968 343.981 15.712 343.8C15.4667 343.608 15.056 343.512 14.48 343.512H13.568V346.568H14.48ZM14.784 351.32C15.3707 351.32 15.792 351.224 16.048 351.032C16.3147 350.829 16.448 350.477 16.448 349.976V349.512C16.448 349.021 16.3147 348.675 16.048 348.472C15.792 348.269 15.3707 348.168 14.784 348.168H13.568V351.32H14.784ZM27.3858 353C26.8951 353 26.4951 352.872 26.1858 352.616C25.8871 352.36 25.7164 352.003 25.6738 351.544H25.5938C25.4551 352.077 25.1618 352.488 24.7138 352.776C24.2658 353.053 23.7218 353.192 23.0818 353.192C22.2711 353.192 21.6258 352.973 21.1458 352.536C20.6658 352.099 20.4258 351.496 20.4258 350.728C20.4258 349.032 21.6631 348.184 24.1378 348.184H25.4658V347.768C25.4658 347.267 25.3484 346.893 25.1138 346.648C24.8791 346.403 24.4951 346.28 23.9618 346.28C23.4924 346.28 23.0978 346.371 22.7778 346.552C22.4684 346.733 22.1911 346.989 21.9457 347.32L20.6497 346.168C20.9378 345.677 21.3858 345.288 21.9938 345C22.6018 344.701 23.3484 344.552 24.2338 344.552C25.3751 344.552 26.2604 344.819 26.8898 345.352C27.5191 345.875 27.8338 346.648 27.8338 347.672V350.744C27.8338 350.893 27.8871 351.021 27.9938 351.128C28.1004 351.235 28.2284 351.288 28.3778 351.288H28.7458V353H27.3858ZM23.9778 351.64C24.4151 351.64 24.7724 351.539 25.0498 351.336C25.3271 351.123 25.4658 350.829 25.4658 350.456V349.464H24.2018C23.7324 349.464 23.3698 349.549 23.1138 349.72C22.8684 349.88 22.7458 350.12 22.7458 350.44V350.76C22.7458 351.048 22.8524 351.267 23.0658 351.416C23.2898 351.565 23.5938 351.64 23.9778 351.64ZM30.3715 351.16H32.2755V346.584H30.3715V344.744H34.6435V347.08H34.7555C35.1502 345.523 36.0302 344.744 37.3955 344.744H38.1795V346.92H36.4195C35.8542 346.92 35.4168 347.091 35.1075 347.432C34.7982 347.763 34.6435 348.189 34.6435 348.712V351.16H37.3635V353H30.3715V351.16ZM39.9653 351.16H41.8693V346.584H39.9653V344.744H44.2373V347.08H44.3493C44.7439 345.523 45.6239 344.744 46.9893 344.744H47.7733V346.92H46.0133C45.4479 346.92 45.0106 347.091 44.7013 347.432C44.3919 347.763 44.2373 348.189 44.2373 348.712V351.16H46.9573V353H39.9653V351.16ZM56.167 353C55.6763 353 55.2763 352.872 54.967 352.616C54.6683 352.36 54.4977 352.003 54.455 351.544H54.375C54.2363 352.077 53.943 352.488 53.495 352.776C53.047 353.053 52.503 353.192 51.863 353.192C51.0523 353.192 50.407 352.973 49.927 352.536C49.447 352.099 49.207 351.496 49.207 350.728C49.207 349.032 50.4443 348.184 52.919 348.184H54.247V347.768C54.247 347.267 54.1297 346.893 53.895 346.648C53.6603 346.403 53.2763 346.28 52.743 346.28C52.2737 346.28 51.879 346.371 51.559 346.552C51.2497 346.733 50.9723 346.989 50.727 347.32L49.431 346.168C49.719 345.677 50.167 345.288 50.775 345C51.383 344.701 52.1297 344.552 53.015 344.552C54.1563 344.552 55.0417 344.819 55.671 345.352C56.3003 345.875 56.615 346.648 56.615 347.672V350.744C56.615 350.893 56.6683 351.021 56.775 351.128C56.8817 351.235 57.0097 351.288 57.159 351.288H57.527V353H56.167ZM52.759 351.64C53.1963 351.64 53.5537 351.539 53.831 351.336C54.1083 351.123 54.247 350.829 54.247 350.456V349.464H52.983C52.5137 349.464 52.151 349.549 51.895 349.72C51.6497 349.88 51.527 350.12 51.527 350.44V350.76C51.527 351.048 51.6337 351.267 51.847 351.416C52.071 351.565 52.375 351.64 52.759 351.64ZM68.6505 351.16H71.1785V343H68.6505V341.16H73.5465V351.16H76.0745V353H68.6505V351.16ZM84.9483 353C84.4576 353 84.0576 352.872 83.7483 352.616C83.4496 352.36 83.2789 352.003 83.2363 351.544H83.1563C83.0176 352.077 82.7243 352.488 82.2763 352.776C81.8283 353.053 81.2843 353.192 80.6443 353.192C79.8336 353.192 79.1883 352.973 78.7083 352.536C78.2283 352.099 77.9883 351.496 77.9883 350.728C77.9883 349.032 79.2256 348.184 81.7003 348.184H83.0283V347.768C83.0283 347.267 82.9109 346.893 82.6763 346.648C82.4416 346.403 82.0576 346.28 81.5243 346.28C81.0549 346.28 80.6603 346.371 80.3403 346.552C80.0309 346.733 79.7536 346.989 79.5082 347.32L78.2122 346.168C78.5003 345.677 78.9483 345.288 79.5563 345C80.1643 344.701 80.9109 344.552 81.7963 344.552C82.9376 344.552 83.8229 344.819 84.4523 345.352C85.0816 345.875 85.3963 346.648 85.3963 347.672V350.744C85.3963 350.893 85.4496 351.021 85.5563 351.128C85.6629 351.235 85.7909 351.288 85.9403 351.288H86.3083V353H84.9483ZM81.5403 351.64C81.9776 351.64 82.3349 351.539 82.6123 351.336C82.8896 351.123 83.0283 350.829 83.0283 350.456V349.464H81.7643C81.2949 349.464 80.9323 349.549 80.6763 349.72C80.4309 349.88 80.3083 350.12 80.3083 350.44V350.76C80.3083 351.048 80.4149 351.267 80.6283 351.416C80.8523 351.565 81.1563 351.64 81.5403 351.64ZM92.03 350.616C92.03 350.765 92.0833 350.893 92.19 351C92.2967 351.107 92.4247 351.16 92.574 351.16H95.246V353H92.19C91.358 353 90.7287 352.787 90.302 352.36C89.8753 351.923 89.662 351.341 89.662 350.616V346.584H87.422V344.744H89.662V341.832H92.03V344.744H95.246V346.584H92.03V350.616ZM101.368 353.192C100.002 353.192 98.9571 352.813 98.2318 352.056C97.5064 351.299 97.1438 350.248 97.1438 348.904C97.1438 347.549 97.5011 346.488 98.2158 345.72C98.9411 344.941 99.9224 344.552 101.16 344.552C102.386 344.552 103.357 344.931 104.072 345.688C104.786 346.435 105.144 347.453 105.144 348.744V349.448H99.4958V349.592C99.4958 350.136 99.6664 350.568 100.008 350.888C100.349 351.208 100.829 351.368 101.448 351.368C102.322 351.368 103.048 351.027 103.624 350.344L104.904 351.736C104.552 352.173 104.082 352.525 103.496 352.792C102.909 353.059 102.2 353.192 101.368 353.192ZM101.176 346.248C100.664 346.248 100.253 346.408 99.9438 346.728C99.6451 347.037 99.4958 347.459 99.4958 347.992V348.12H102.824V347.992C102.824 347.459 102.674 347.037 102.376 346.728C102.088 346.408 101.688 346.248 101.176 346.248ZM107.122 351.16H109.026V346.584H107.122V344.744H111.394V347.08H111.506C111.9 345.523 112.78 344.744 114.146 344.744H114.93V346.92H113.17C112.604 346.92 112.167 347.091 111.858 347.432C111.548 347.763 111.394 348.189 111.394 348.712V351.16H114.114V353H107.122V351.16ZM123.323 353C122.833 353 122.433 352.872 122.123 352.616C121.825 352.36 121.654 352.003 121.611 351.544H121.531C121.393 352.077 121.099 352.488 120.651 352.776C120.203 353.053 119.659 353.192 119.019 353.192C118.209 353.192 117.563 352.973 117.083 352.536C116.603 352.099 116.363 351.496 116.363 350.728C116.363 349.032 117.601 348.184 120.075 348.184H121.403V347.768C121.403 347.267 121.286 346.893 121.051 346.648C120.817 346.403 120.433 346.28 119.899 346.28C119.43 346.28 119.035 346.371 118.715 346.552C118.406 346.733 118.129 346.989 117.883 347.32L116.587 346.168C116.875 345.677 117.323 345.288 117.931 345C118.539 344.701 119.286 344.552 120.171 344.552C121.313 344.552 122.198 344.819 122.827 345.352C123.457 345.875 123.771 346.648 123.771 347.672V350.744C123.771 350.893 123.825 351.021 123.931 351.128C124.038 351.235 124.166 351.288 124.315 351.288H124.683V353H123.323ZM119.915 351.64C120.353 351.64 120.71 351.539 120.987 351.336C121.265 351.123 121.403 350.829 121.403 350.456V349.464H120.139C119.67 349.464 119.307 349.549 119.051 349.72C118.806 349.88 118.683 350.12 118.683 350.44V350.76C118.683 351.048 118.79 351.267 119.003 351.416C119.227 351.565 119.531 351.64 119.915 351.64ZM126.213 351.16H128.741V343H126.213V341.16H131.109V351.16H133.637V353H126.213V351.16Z" fill="black"/>
<path d="M13.584 395H11.216V383.832H15.536C16.624 383.832 17.4667 384.152 18.064 384.792C18.6613 385.421 18.96 386.285 18.96 387.384C18.96 388.173 18.784 388.856 18.432 389.432C18.0907 389.997 17.6107 390.365 16.992 390.536L19.184 395H16.56L14.688 390.856H13.584V395ZM14.96 389C15.5147 389 15.904 388.893 16.128 388.68C16.352 388.467 16.464 388.115 16.464 387.624V387.144C16.464 386.653 16.352 386.301 16.128 386.088C15.904 385.875 15.5147 385.768 14.96 385.768H13.584V389H14.96ZM24.3938 395.192C23.1031 395.192 22.0898 394.808 21.3538 394.04C20.6178 393.261 20.2498 392.205 20.2498 390.872C20.2498 389.539 20.6178 388.488 21.3538 387.72C22.0898 386.941 23.1031 386.552 24.3938 386.552C25.6844 386.552 26.6978 386.941 27.4338 387.72C28.1698 388.488 28.5378 389.539 28.5378 390.872C28.5378 392.205 28.1698 393.261 27.4338 394.04C26.6978 394.808 25.6844 395.192 24.3938 395.192ZM24.3938 393.432C24.9271 393.432 25.3431 393.267 25.6418 392.936C25.9404 392.605 26.0898 392.136 26.0898 391.528V390.216C26.0898 389.608 25.9404 389.139 25.6418 388.808C25.3431 388.477 24.9271 388.312 24.3938 388.312C23.8604 388.312 23.4444 388.477 23.1458 388.808C22.8471 389.139 22.6978 389.608 22.6978 390.216V391.528C22.6978 392.136 22.8471 392.605 23.1458 392.936C23.4444 393.267 23.8604 393.432 24.3938 393.432ZM35.4755 393.496H35.3635C35.1395 394.029 34.8302 394.445 34.4355 394.744C34.0515 395.043 33.5448 395.192 32.9155 395.192C31.9662 395.192 31.2088 394.835 30.6435 394.12C30.0888 393.395 29.8115 392.312 29.8115 390.872C29.8115 389.432 30.0888 388.355 30.6435 387.64C31.2088 386.915 31.9662 386.552 32.9155 386.552C33.5448 386.552 34.0515 386.701 34.4355 387C34.8302 387.299 35.1395 387.715 35.3635 388.248H35.4755V383.16H37.8435V395H35.4755V393.496ZM33.9395 393.352C34.3875 393.352 34.7555 393.245 35.0435 393.032C35.3315 392.819 35.4755 392.504 35.4755 392.088V389.656C35.4755 389.24 35.3315 388.925 35.0435 388.712C34.7555 388.499 34.3875 388.392 33.9395 388.392C33.4168 388.392 33.0062 388.557 32.7075 388.888C32.4195 389.208 32.2755 389.656 32.2755 390.232V391.512C32.2755 392.088 32.4195 392.541 32.7075 392.872C33.0062 393.192 33.4168 393.352 33.9395 393.352ZM46.5733 395C46.0826 395 45.6826 394.872 45.3733 394.616C45.0746 394.36 44.9039 394.003 44.8613 393.544H44.7813C44.6426 394.077 44.3493 394.488 43.9013 394.776C43.4533 395.053 42.9093 395.192 42.2693 395.192C41.4586 395.192 40.8133 394.973 40.3333 394.536C39.8533 394.099 39.6133 393.496 39.6133 392.728C39.6133 391.032 40.8506 390.184 43.3253 390.184H44.6533V389.768C44.6533 389.267 44.5359 388.893 44.3013 388.648C44.0666 388.403 43.6826 388.28 43.1493 388.28C42.6799 388.28 42.2853 388.371 41.9653 388.552C41.6559 388.733 41.3786 388.989 41.1332 389.32L39.8372 388.168C40.1253 387.677 40.5733 387.288 41.1813 387C41.7893 386.701 42.5359 386.552 43.4213 386.552C44.5626 386.552 45.4479 386.819 46.0773 387.352C46.7066 387.875 47.0213 388.648 47.0213 389.672V392.744C47.0213 392.893 47.0746 393.021 47.1813 393.128C47.2879 393.235 47.4159 393.288 47.5653 393.288H47.9333V395H46.5733ZM43.1653 393.64C43.6026 393.64 43.9599 393.539 44.2373 393.336C44.5146 393.123 44.6533 392.829 44.6533 392.456V391.464H43.3893C42.9199 391.464 42.5573 391.549 42.3013 391.72C42.0559 391.88 41.9333 392.12 41.9333 392.44V392.76C41.9333 393.048 42.0399 393.267 42.2533 393.416C42.4773 393.565 42.7813 393.64 43.1653 393.64ZM49.319 386.744H51.687V388.248H51.799C52.023 387.715 52.327 387.299 52.711 387C53.1057 386.701 53.6177 386.552 54.247 386.552C55.1963 386.552 55.9483 386.915 56.503 387.64C57.0683 388.355 57.351 389.432 57.351 390.872C57.351 392.312 57.0683 393.395 56.503 394.12C55.9483 394.835 55.1963 395.192 54.247 395.192C53.6177 395.192 53.1057 395.043 52.711 394.744C52.327 394.445 52.023 394.029 51.799 393.496H51.687V398.2H49.319V386.744ZM53.223 393.352C53.7457 393.352 54.151 393.192 54.439 392.872C54.7377 392.541 54.887 392.088 54.887 391.512V390.232C54.887 389.656 54.7377 389.208 54.439 388.888C54.151 388.557 53.7457 388.392 53.223 388.392C52.775 388.392 52.407 388.499 52.119 388.712C51.831 388.925 51.687 389.24 51.687 389.656V392.088C51.687 392.504 51.831 392.819 52.119 393.032C52.407 393.245 52.775 393.352 53.223 393.352ZM62.9928 395.192C61.6274 395.192 60.5821 394.813 59.8568 394.056C59.1314 393.299 58.7688 392.248 58.7688 390.904C58.7688 389.549 59.1261 388.488 59.8408 387.72C60.5661 386.941 61.5474 386.552 62.7848 386.552C64.0114 386.552 64.9821 386.931 65.6968 387.688C66.4114 388.435 66.7688 389.453 66.7688 390.744V391.448H61.1208V391.592C61.1208 392.136 61.2914 392.568 61.6328 392.888C61.9741 393.208 62.4541 393.368 63.0728 393.368C63.9474 393.368 64.6728 393.027 65.2488 392.344L66.5288 393.736C66.1768 394.173 65.7074 394.525 65.1208 394.792C64.5341 395.059 63.8248 395.192 62.9928 395.192ZM62.8008 388.248C62.2888 388.248 61.8781 388.408 61.5688 388.728C61.2701 389.037 61.1208 389.459 61.1208 389.992V390.12H64.4488V389.992C64.4488 389.459 64.2994 389.037 64.0008 388.728C63.7128 388.408 63.3128 388.248 62.8008 388.248ZM63.0408 386.04L61.6328 385.352L63.5368 381.768L65.5048 382.744L63.0408 386.04Z" fill="black"/>
<rect width="135" height="29" rx="10" fill="#EFF1F3"/>
<path d="M5.112 12.744H7.08L7.672 19.432H7.832L8.808 12.744H10.888L11.848 19.432H12.008L12.616 12.744H14.488L13.512 21H10.696L9.88 15.304H9.72L8.904 21H6.088L5.112 12.744ZM21.1698 9.08V11.608H18.6258V9.08H21.1698ZM16.0978 19.16H18.7218V14.584H16.0978V12.744L21.0898 12.744V19.16H23.5218V21H16.0978V19.16ZM30.4755 19.496H30.3635C30.1395 20.0293 29.8302 20.4453 29.4355 20.744C29.0515 21.0427 28.5448 21.192 27.9155 21.192C26.9662 21.192 26.2088 20.8347 25.6435 20.12C25.0888 19.3947 24.8115 18.312 24.8115 16.872C24.8115 15.432 25.0888 14.3547 25.6435 13.64C26.2088 12.9147 26.9662 12.552 27.9155 12.552C28.5448 12.552 29.0515 12.7013 29.4355 13C29.8302 13.2987 30.1395 13.7147 30.3635 14.248H30.4755V9.16H32.8435V21H30.4755V19.496ZM28.9395 19.352C29.3875 19.352 29.7555 19.2453 30.0435 19.032C30.3315 18.8187 30.4755 18.504 30.4755 18.088V15.656C30.4755 15.24 30.3315 14.9253 30.0435 14.712C29.7555 14.4987 29.3875 14.392 28.9395 14.392C28.4168 14.392 28.0062 14.5573 27.7075 14.888C27.4195 15.208 27.2755 15.656 27.2755 16.232V17.512C27.2755 18.088 27.4195 18.5413 27.7075 18.872C28.0062 19.192 28.4168 19.352 28.9395 19.352ZM39.0613 18.616C39.0613 18.7653 39.1146 18.8933 39.2213 19C39.3279 19.1067 39.4559 19.16 39.6053 19.16H42.2773V21H39.2213C38.3893 21 37.7599 20.7867 37.3333 20.36C36.9066 19.9227 36.6933 19.3413 36.6933 18.616V14.584H34.4533V12.744H36.6933V9.832H39.0613V12.744H42.2773V14.584H39.0613V18.616ZM44.415 9.16L46.783 9.16V14.248H46.879C47.0817 13.736 47.3803 13.3253 47.775 13.016C48.1803 12.7067 48.6923 12.552 49.311 12.552C50.1217 12.552 50.7723 12.824 51.263 13.368C51.7537 13.912 51.999 14.6747 51.999 15.656V21H49.631V15.976C49.631 15.4533 49.5137 15.0587 49.279 14.792C49.0443 14.5147 48.6977 14.376 48.239 14.376C47.8443 14.376 47.503 14.4827 47.215 14.696C46.927 14.9093 46.783 15.2027 46.783 15.576V21H44.415V9.16ZM63.9225 17.224V15.016L70.8025 11.336V13.544L66.0505 16.056V16.184L70.8025 18.696V20.904L63.9225 17.224ZM90.15 11.928H84.982L84.726 15.464H84.87C85.126 14.8987 85.4513 14.4667 85.846 14.168C86.2407 13.8587 86.7633 13.704 87.414 13.704C88.0327 13.704 88.598 13.848 89.11 14.136C89.6327 14.4133 90.0487 14.824 90.358 15.368C90.6673 15.9013 90.822 16.5307 90.822 17.256C90.822 18.0133 90.6513 18.6907 90.31 19.288C89.9687 19.8853 89.4673 20.3547 88.806 20.696C88.1553 21.0267 87.3767 21.192 86.47 21.192C84.646 21.192 83.2967 20.4773 82.422 19.048L84.166 17.672C84.454 18.1627 84.774 18.5467 85.126 18.824C85.4887 19.1013 85.942 19.24 86.486 19.24C87.0727 19.24 87.5207 19.08 87.83 18.76C88.1393 18.44 88.294 18.0027 88.294 17.448V17.32C88.294 16.7973 88.134 16.3867 87.814 16.088C87.5047 15.7893 87.0833 15.64 86.55 15.64C85.8353 15.64 85.2433 15.9013 84.774 16.424L82.806 16.152L83.222 9.832H90.15V11.928ZM96.1438 21.192C94.6718 21.192 93.5731 20.696 92.8478 19.704C92.1331 18.712 91.7758 17.2827 91.7758 15.416C91.7758 13.5493 92.1331 12.12 92.8478 11.128C93.5731 10.136 94.6718 9.64 96.1438 9.64C97.6158 9.64 98.7091 10.136 99.4237 11.128C100.149 12.12 100.512 13.5493 100.512 15.416C100.512 17.2827 100.149 18.712 99.4237 19.704C98.7091 20.696 97.6158 21.192 96.1438 21.192ZM96.1438 19.304C96.8264 19.304 97.3171 19.064 97.6158 18.584C97.9144 18.0933 98.0638 17.384 98.0638 16.456V14.376C98.0638 13.448 97.9144 12.744 97.6158 12.264C97.3171 11.7733 96.8264 11.528 96.1438 11.528C95.4611 11.528 94.9704 11.7733 94.6718 12.264C94.3731 12.744 94.2238 13.448 94.2238 14.376V16.456C94.2238 17.384 94.3731 18.0933 94.6718 18.584C94.9704 19.064 95.4611 19.304 96.1438 19.304ZM96.1438 16.36C95.4824 16.36 95.1518 16.104 95.1518 15.592V15.24C95.1518 14.728 95.4824 14.472 96.1438 14.472C96.8051 14.472 97.1358 14.728 97.1358 15.24V15.592C97.1358 16.104 96.8051 16.36 96.1438 16.36ZM105.738 21.192C104.266 21.192 103.167 20.696 102.442 19.704C101.727 18.712 101.37 17.2827 101.37 15.416C101.37 13.5493 101.727 12.12 102.442 11.128C103.167 10.136 104.266 9.64 105.738 9.64C107.21 9.64 108.303 10.136 109.017 11.128C109.743 12.12 110.106 13.5493 110.106 15.416C110.106 17.2827 109.743 18.712 109.017 19.704C108.303 20.696 107.21 21.192 105.738 21.192ZM105.738 19.304C106.42 19.304 106.911 19.064 107.21 18.584C107.508 18.0933 107.658 17.384 107.658 16.456V14.376C107.658 13.448 107.508 12.744 107.21 12.264C106.911 11.7733 106.42 11.528 105.738 11.528C105.055 11.528 104.564 11.7733 104.266 12.264C103.967 12.744 103.818 13.448 103.818 14.376V16.456C103.818 17.384 103.967 18.0933 104.266 18.584C104.564 19.064 105.055 19.304 105.738 19.304ZM105.738 16.36C105.076 16.36 104.746 16.104 104.746 15.592V15.24C104.746 14.728 105.076 14.472 105.738 14.472C106.399 14.472 106.73 14.728 106.73 15.24V15.592C106.73 16.104 106.399 16.36 105.738 16.36ZM111.475 12.744H113.843V14.248H113.955C114.179 13.7147 114.483 13.2987 114.867 13C115.262 12.7013 115.774 12.552 116.403 12.552C117.353 12.552 118.105 12.9147 118.659 13.64C119.225 14.3547 119.507 15.432 119.507 16.872C119.507 18.312 119.225 19.3947 118.659 20.12C118.105 20.8347 117.353 21.192 116.403 21.192C115.774 21.192 115.262 21.0427 114.867 20.744C114.483 20.4453 114.179 20.0293 113.955 19.496H113.843V24.2H111.475V12.744ZM115.379 19.352C115.902 19.352 116.307 19.192 116.595 18.872C116.894 18.5413 117.043 18.088 117.043 17.512V16.232C117.043 15.656 116.894 15.208 116.595 14.888C116.307 14.5573 115.902 14.392 115.379 14.392C114.931 14.392 114.563 14.4987 114.275 14.712C113.987 14.9253 113.843 15.24 113.843 15.656V18.088C113.843 18.504 113.987 18.8187 114.275 19.032C114.563 19.2453 114.931 19.352 115.379 19.352ZM120.493 21L123.581 16.808L120.701 12.744H123.405L124.285 14.072L124.957 15.144H125.085L125.773 14.072L126.669 12.744H129.149L126.269 16.68L129.357 21H126.637L125.597 19.448L124.877 18.344H124.749L124.045 19.448L122.989 21H120.493Z" fill="#12171A"/>
</svg>
