<svg width="600" height="405" viewBox="0 0 600 405" fill="none" xmlns="http://www.w3.org/2000/svg">
<rect y="17" width="600" height="371" fill="white"/>
<rect y="17" width="600" height="42" fill="#0088FF"/>
<rect y="346" width="600" height="42" fill="#FF802E"/>
<rect y="59" width="400" height="287" fill="#6BC9BB"/>
<rect x="400" y="59" width="200" height="287" fill="#00B3A1"/>
<path d="M16.056 45.192C14.584 45.192 13.48 44.696 12.744 43.704C12.0187 42.712 11.656 41.2827 11.656 39.416C11.656 37.5493 12.0187 36.12 12.744 35.128C13.48 34.136 14.584 33.64 16.056 33.64C18.2 33.64 19.5173 34.712 20.008 36.856L17.768 37.4C17.6293 36.8027 17.432 36.3493 17.176 36.04C16.92 35.7307 16.5307 35.576 16.008 35.576C15.3787 35.576 14.92 35.8213 14.632 36.312C14.3547 36.8027 14.216 37.512 14.216 38.44V40.392C14.216 41.32 14.3547 42.0293 14.632 42.52C14.92 43.0107 15.3787 43.256 16.008 43.256C16.5307 43.256 16.92 43.1013 17.176 42.792C17.432 42.4827 17.6293 42.0293 17.768 41.432L20.008 41.976C19.5173 44.12 18.2 45.192 16.056 45.192ZM28.3858 45C27.8951 45 27.4951 44.872 27.1858 44.616C26.8871 44.36 26.7164 44.0027 26.6738 43.544H26.5938C26.4551 44.0773 26.1618 44.488 25.7138 44.776C25.2658 45.0533 24.7218 45.192 24.0818 45.192C23.2711 45.192 22.6258 44.9733 22.1458 44.536C21.6658 44.0987 21.4258 43.496 21.4258 42.728C21.4258 41.032 22.6631 40.184 25.1378 40.184H26.4658V39.768C26.4658 39.2667 26.3484 38.8933 26.1138 38.648C25.8791 38.4027 25.4951 38.28 24.9618 38.28C24.4924 38.28 24.0978 38.3707 23.7778 38.552C23.4684 38.7333 23.1911 38.9893 22.9457 39.32L21.6497 38.168C21.9378 37.6773 22.3858 37.288 22.9938 37C23.6018 36.7013 24.3484 36.552 25.2338 36.552C26.3751 36.552 27.2604 36.8187 27.8898 37.352C28.5191 37.8747 28.8338 38.648 28.8338 39.672V42.744C28.8338 42.8933 28.8871 43.0213 28.9938 43.128C29.1004 43.2347 29.2284 43.288 29.3778 43.288H29.7458V45H28.3858ZM24.9778 43.64C25.4151 43.64 25.7724 43.5387 26.0498 43.336C26.3271 43.1227 26.4658 42.8293 26.4658 42.456V41.464H25.2018C24.7324 41.464 24.3698 41.5493 24.1138 41.72C23.8684 41.88 23.7458 42.12 23.7458 42.44V42.76C23.7458 43.048 23.8524 43.2667 24.0658 43.416C24.2898 43.5653 24.5938 43.64 24.9778 43.64ZM31.1315 33.16H33.4995V38.248H33.6115C33.8355 37.7147 34.1395 37.2987 34.5235 37C34.9182 36.7013 35.4302 36.552 36.0595 36.552C37.0088 36.552 37.7608 36.9147 38.3155 37.64C38.8808 38.3547 39.1635 39.432 39.1635 40.872C39.1635 42.312 38.8808 43.3947 38.3155 44.12C37.7608 44.8347 37.0088 45.192 36.0595 45.192C35.4302 45.192 34.9182 45.0427 34.5235 44.744C34.1395 44.4453 33.8355 44.0293 33.6115 43.496H33.4995V45H31.1315V33.16ZM35.0355 43.352C35.5582 43.352 35.9635 43.192 36.2515 42.872C36.5502 42.5413 36.6995 42.088 36.6995 41.512V40.232C36.6995 39.656 36.5502 39.208 36.2515 38.888C35.9635 38.5573 35.5582 38.392 35.0355 38.392C34.5875 38.392 34.2195 38.4987 33.9315 38.712C33.6435 38.9253 33.4995 39.24 33.4995 39.656V42.088C33.4995 42.504 33.6435 42.8187 33.9315 43.032C34.2195 43.2453 34.5875 43.352 35.0355 43.352ZM44.8053 45.192C43.4399 45.192 42.3946 44.8133 41.6693 44.056C40.9439 43.2987 40.5813 42.248 40.5813 40.904C40.5813 39.5493 40.9386 38.488 41.6533 37.72C42.3786 36.9413 43.3599 36.552 44.5973 36.552C45.8239 36.552 46.7946 36.9307 47.5093 37.688C48.2239 38.4347 48.5813 39.4533 48.5813 40.744V41.448H42.9333V41.592C42.9333 42.136 43.1039 42.568 43.4453 42.888C43.7866 43.208 44.2666 43.368 44.8853 43.368C45.7599 43.368 46.4853 43.0267 47.0613 42.344L48.3413 43.736C47.9893 44.1733 47.5199 44.5253 46.9333 44.792C46.3466 45.0587 45.6373 45.192 44.8053 45.192ZM44.6133 38.248C44.1013 38.248 43.6906 38.408 43.3813 38.728C43.0826 39.0373 42.9333 39.4587 42.9333 39.992V40.12H46.2613V39.992C46.2613 39.4587 46.1119 39.0373 45.8133 38.728C45.5253 38.408 45.1253 38.248 44.6133 38.248ZM54.495 36.552C56.1483 36.552 57.295 37.224 57.935 38.568L56.111 39.56C55.951 39.208 55.743 38.936 55.487 38.744C55.2417 38.5413 54.911 38.44 54.495 38.44C53.9617 38.44 53.5457 38.6 53.247 38.92C52.9483 39.2293 52.799 39.656 52.799 40.2V41.544C52.799 42.0987 52.9483 42.5307 53.247 42.84C53.5457 43.1493 53.9723 43.304 54.527 43.304C54.9537 43.304 55.3003 43.208 55.567 43.016C55.8443 42.8133 56.079 42.5253 56.271 42.152L58.063 43.176C57.7643 43.7947 57.3323 44.28 56.767 44.632C56.2123 44.984 55.5137 45.1707 54.671 45.192L54.527 45.88L54.591 45.944C54.8897 45.8693 55.1457 45.832 55.359 45.832C55.7003 45.832 55.9777 45.9227 56.191 46.104C56.415 46.2853 56.527 46.5627 56.527 46.936C56.527 47.4373 56.3243 47.8053 55.919 48.04C55.5243 48.2747 55.023 48.392 54.415 48.392C53.9137 48.392 53.4977 48.3227 53.167 48.184C52.8363 48.0453 52.591 47.88 52.431 47.688L53.167 46.792C53.423 47.1013 53.775 47.256 54.223 47.256C54.4363 47.256 54.607 47.2187 54.735 47.144C54.863 47.08 54.927 46.984 54.927 46.856C54.927 46.504 54.527 46.2907 53.727 46.216L53.391 46.184L53.615 45.112C52.5803 44.9413 51.775 44.488 51.199 43.752C50.623 43.0053 50.335 42.0453 50.335 40.872C50.335 39.5387 50.703 38.488 51.439 37.72C52.1857 36.9413 53.2043 36.552 54.495 36.552ZM66.7608 45C66.2701 45 65.8701 44.872 65.5608 44.616C65.2621 44.36 65.0914 44.0027 65.0488 43.544H64.9688C64.8301 44.0773 64.5368 44.488 64.0888 44.776C63.6408 45.0533 63.0968 45.192 62.4568 45.192C61.6461 45.192 61.0008 44.9733 60.5208 44.536C60.0408 44.0987 59.8008 43.496 59.8008 42.728C59.8008 41.032 61.0381 40.184 63.5128 40.184H64.8408V39.768C64.8408 39.2667 64.7234 38.8933 64.4888 38.648C64.2541 38.4027 63.8701 38.28 63.3368 38.28C62.8674 38.28 62.4728 38.3707 62.1528 38.552C61.8434 38.7333 61.5661 38.9893 61.3207 39.32L60.0247 38.168C60.3128 37.6773 60.7608 37.288 61.3688 37C61.9768 36.7013 62.7234 36.552 63.6088 36.552C64.7501 36.552 65.6354 36.8187 66.2648 37.352C66.8941 37.8747 67.2088 38.648 67.2088 39.672V42.744C67.2088 42.8933 67.2621 43.0213 67.3688 43.128C67.4754 43.2347 67.6034 43.288 67.7528 43.288H68.1208V45H66.7608ZM63.3528 43.64C63.7901 43.64 64.1474 43.5387 64.4248 43.336C64.7021 43.1227 64.8408 42.8293 64.8408 42.456V41.464H63.5768C63.1074 41.464 62.7448 41.5493 62.4888 41.72C62.2434 41.88 62.1208 42.12 62.1208 42.44V42.76C62.1208 43.048 62.2274 43.2667 62.4408 43.416C62.6648 43.5653 62.9688 43.64 63.3528 43.64ZM69.6505 43.16H72.1785V35H69.6505V33.16H74.5465V43.16H77.0745V45H69.6505V43.16ZM79.1963 33.16H81.5643V38.248H81.6603C81.8629 37.736 82.1616 37.3253 82.5563 37.016C82.9616 36.7067 83.4736 36.552 84.0923 36.552C84.9029 36.552 85.5536 36.824 86.0443 37.368C86.5349 37.912 86.7803 38.6747 86.7803 39.656V45H84.4123V39.976C84.4123 39.4533 84.2949 39.0587 84.0603 38.792C83.8256 38.5147 83.4789 38.376 83.0203 38.376C82.6256 38.376 82.2843 38.4827 81.9963 38.696C81.7083 38.9093 81.5643 39.2027 81.5643 39.576V45H79.1963V33.16ZM92.55 45.192C91.2593 45.192 90.246 44.808 89.51 44.04C88.774 43.2613 88.406 42.2053 88.406 40.872C88.406 39.5387 88.774 38.488 89.51 37.72C90.246 36.9413 91.2593 36.552 92.55 36.552C93.8407 36.552 94.854 36.9413 95.59 37.72C96.326 38.488 96.694 39.5387 96.694 40.872C96.694 42.2053 96.326 43.2613 95.59 44.04C94.854 44.808 93.8407 45.192 92.55 45.192ZM92.55 43.432C93.0833 43.432 93.4993 43.2667 93.798 42.936C94.0967 42.6053 94.246 42.136 94.246 41.528V40.216C94.246 39.608 94.0967 39.1387 93.798 38.808C93.4993 38.4773 93.0833 38.312 92.55 38.312C92.0167 38.312 91.6007 38.4773 91.302 38.808C91.0033 39.1387 90.854 39.608 90.854 40.216V41.528C90.854 42.136 91.0033 42.6053 91.302 42.936C91.6007 43.2667 92.0167 43.432 92.55 43.432Z" fill="black"/>
<path d="M16.056 87.192C14.584 87.192 13.48 86.696 12.744 85.704C12.0187 84.712 11.656 83.2827 11.656 81.416C11.656 79.5493 12.0187 78.12 12.744 77.128C13.48 76.136 14.584 75.64 16.056 75.64C18.2 75.64 19.5173 76.712 20.008 78.856L17.768 79.4C17.6293 78.8027 17.432 78.3493 17.176 78.04C16.92 77.7307 16.5307 77.576 16.008 77.576C15.3787 77.576 14.92 77.8213 14.632 78.312C14.3547 78.8027 14.216 79.512 14.216 80.44V82.392C14.216 83.32 14.3547 84.0293 14.632 84.52C14.92 85.0107 15.3787 85.256 16.008 85.256C16.5307 85.256 16.92 85.1013 17.176 84.792C17.432 84.4827 17.6293 84.0293 17.768 83.432L20.008 83.976C19.5173 86.12 18.2 87.192 16.056 87.192ZM25.3938 87.192C24.1031 87.192 23.0898 86.808 22.3538 86.04C21.6178 85.2613 21.2498 84.2053 21.2498 82.872C21.2498 81.5387 21.6178 80.488 22.3538 79.72C23.0898 78.9413 24.1031 78.552 25.3938 78.552C26.6844 78.552 27.6978 78.9413 28.4338 79.72C29.1698 80.488 29.5378 81.5387 29.5378 82.872C29.5378 84.2053 29.1698 85.2613 28.4338 86.04C27.6978 86.808 26.6844 87.192 25.3938 87.192ZM25.3938 85.432C25.9271 85.432 26.3431 85.2667 26.6418 84.936C26.9404 84.6053 27.0898 84.136 27.0898 83.528V82.216C27.0898 81.608 26.9404 81.1387 26.6418 80.808C26.3431 80.4773 25.9271 80.312 25.3938 80.312C24.8604 80.312 24.4444 80.4773 24.1458 80.808C23.8471 81.1387 23.6978 81.608 23.6978 82.216V83.528C23.6978 84.136 23.8471 84.6053 24.1458 84.936C24.4444 85.2667 24.8604 85.432 25.3938 85.432ZM31.2275 87V78.744H33.5955V80.248H33.6915C33.8942 79.736 34.1928 79.3253 34.5875 79.016C34.9928 78.7067 35.5048 78.552 36.1235 78.552C36.9342 78.552 37.5848 78.824 38.0755 79.368C38.5662 79.912 38.8115 80.6747 38.8115 81.656V87H36.4435V81.976C36.4435 81.4533 36.3262 81.0587 36.0915 80.792C35.8568 80.5147 35.5102 80.376 35.0515 80.376C34.6568 80.376 34.3155 80.4827 34.0275 80.696C33.7395 80.9093 33.5955 81.2027 33.5955 81.576V87H31.2275ZM45.0613 84.616C45.0613 84.7653 45.1146 84.8933 45.2213 85C45.3279 85.1067 45.4559 85.16 45.6053 85.16H48.2773V87H45.2213C44.3893 87 43.7599 86.7867 43.3333 86.36C42.9066 85.9227 42.6933 85.3413 42.6933 84.616V80.584H40.4533V78.744H42.6933V75.832H45.0613V78.744H48.2773V80.584H45.0613V84.616ZM54.399 87.192C53.0337 87.192 51.9883 86.8133 51.263 86.056C50.5377 85.2987 50.175 84.248 50.175 82.904C50.175 81.5493 50.5323 80.488 51.247 79.72C51.9723 78.9413 52.9537 78.552 54.191 78.552C55.4177 78.552 56.3883 78.9307 57.103 79.688C57.8177 80.4347 58.175 81.4533 58.175 82.744V83.448H52.527V83.592C52.527 84.136 52.6977 84.568 53.039 84.888C53.3803 85.208 53.8603 85.368 54.479 85.368C55.3537 85.368 56.079 85.0267 56.655 84.344L57.935 85.736C57.583 86.1733 57.1137 86.5253 56.527 86.792C55.9403 87.0587 55.231 87.192 54.399 87.192ZM54.207 80.248C53.695 80.248 53.2843 80.408 52.975 80.728C52.6763 81.0373 52.527 81.4587 52.527 81.992V82.12H55.855V81.992C55.855 81.4587 55.7057 81.0373 55.407 80.728C55.119 80.408 54.719 80.248 54.207 80.248ZM65.1608 85.496H65.0648C64.8621 86.008 64.5581 86.4187 64.1528 86.728C63.7581 87.0373 63.2514 87.192 62.6328 87.192C61.8221 87.192 61.1714 86.92 60.6808 86.376C60.1901 85.832 59.9448 85.0693 59.9448 84.088V78.744H62.3128V83.768C62.3128 84.2907 62.4301 84.6907 62.6648 84.968C62.8994 85.2347 63.2461 85.368 63.7048 85.368C64.0994 85.368 64.4408 85.2613 64.7288 85.048C65.0168 84.8347 65.1608 84.5413 65.1608 84.168V78.744H67.5288V87H65.1608V85.496ZM63.9928 78.04L62.5848 77.352L64.4888 73.768L66.4568 74.744L63.9928 78.04ZM74.8505 85.496H74.7385C74.5145 86.0293 74.2052 86.4453 73.8105 86.744C73.4265 87.0427 72.9198 87.192 72.2905 87.192C71.3412 87.192 70.5838 86.8347 70.0185 86.12C69.4638 85.3947 69.1865 84.312 69.1865 82.872C69.1865 81.432 69.4638 80.3547 70.0185 79.64C70.5838 78.9147 71.3412 78.552 72.2905 78.552C72.9198 78.552 73.4265 78.7013 73.8105 79C74.2052 79.2987 74.5145 79.7147 74.7385 80.248H74.8505V75.16H77.2185V87H74.8505V85.496ZM73.3145 85.352C73.7625 85.352 74.1305 85.2453 74.4185 85.032C74.7065 84.8187 74.8505 84.504 74.8505 84.088V81.656C74.8505 81.24 74.7065 80.9253 74.4185 80.712C74.1305 80.4987 73.7625 80.392 73.3145 80.392C72.7918 80.392 72.3812 80.5573 72.0825 80.888C71.7945 81.208 71.6505 81.656 71.6505 82.232V83.512C71.6505 84.088 71.7945 84.5413 72.0825 84.872C72.3812 85.192 72.7918 85.352 73.3145 85.352ZM82.9563 87.192C81.6656 87.192 80.6523 86.808 79.9163 86.04C79.1803 85.2613 78.8123 84.2053 78.8123 82.872C78.8123 81.5387 79.1803 80.488 79.9163 79.72C80.6523 78.9413 81.6656 78.552 82.9563 78.552C84.2469 78.552 85.2603 78.9413 85.9963 79.72C86.7323 80.488 87.1003 81.5387 87.1003 82.872C87.1003 84.2053 86.7323 85.2613 85.9963 86.04C85.2603 86.808 84.2469 87.192 82.9563 87.192ZM82.9563 85.432C83.4896 85.432 83.9056 85.2667 84.2043 84.936C84.5029 84.6053 84.6523 84.136 84.6523 83.528V82.216C84.6523 81.608 84.5029 81.1387 84.2043 80.808C83.9056 80.4773 83.4896 80.312 82.9563 80.312C82.4229 80.312 82.0069 80.4773 81.7083 80.808C81.4096 81.1387 81.2603 81.608 81.2603 82.216V83.528C81.2603 84.136 81.4096 84.6053 81.7083 84.936C82.0069 85.2667 82.4229 85.432 82.9563 85.432Z" fill="black"/>
<path d="M412.232 75.832H416.152C417.229 75.832 418.061 76.0987 418.648 76.632C419.245 77.1653 419.544 77.8907 419.544 78.808C419.544 80.024 418.936 80.808 417.72 81.16V81.256C419.171 81.608 419.896 82.4987 419.896 83.928C419.896 84.8667 419.592 85.6133 418.984 86.168C418.387 86.7227 417.565 87 416.52 87H412.232V75.832ZM415.48 80.568C416.056 80.568 416.467 80.472 416.712 80.28C416.968 80.088 417.096 79.752 417.096 79.272V78.792C417.096 78.312 416.968 77.9813 416.712 77.8C416.467 77.608 416.056 77.512 415.48 77.512H414.568V80.568H415.48ZM415.784 85.32C416.371 85.32 416.792 85.224 417.048 85.032C417.315 84.8293 417.448 84.4773 417.448 83.976V83.512C417.448 83.0213 417.315 82.6747 417.048 82.472C416.792 82.2693 416.371 82.168 415.784 82.168H414.568V85.32H415.784ZM428.386 87C427.895 87 427.495 86.872 427.186 86.616C426.887 86.36 426.716 86.0027 426.674 85.544H426.594C426.455 86.0773 426.162 86.488 425.714 86.776C425.266 87.0533 424.722 87.192 424.082 87.192C423.271 87.192 422.626 86.9733 422.146 86.536C421.666 86.0987 421.426 85.496 421.426 84.728C421.426 83.032 422.663 82.184 425.138 82.184H426.466V81.768C426.466 81.2667 426.348 80.8933 426.114 80.648C425.879 80.4027 425.495 80.28 424.962 80.28C424.492 80.28 424.098 80.3707 423.778 80.552C423.468 80.7333 423.191 80.9893 422.946 81.32L421.65 80.168C421.938 79.6773 422.386 79.288 422.994 79C423.602 78.7013 424.348 78.552 425.234 78.552C426.375 78.552 427.26 78.8187 427.89 79.352C428.519 79.8747 428.834 80.648 428.834 81.672V84.744C428.834 84.8933 428.887 85.0213 428.994 85.128C429.1 85.2347 429.228 85.288 429.378 85.288H429.746V87H428.386ZM424.978 85.64C425.415 85.64 425.772 85.5387 426.05 85.336C426.327 85.1227 426.466 84.8293 426.466 84.456V83.464H425.202C424.732 83.464 424.37 83.5493 424.114 83.72C423.868 83.88 423.746 84.12 423.746 84.44V84.76C423.746 85.048 423.852 85.2667 424.066 85.416C424.29 85.5653 424.594 85.64 424.978 85.64ZM431.372 85.16H433.276V80.584H431.372V78.744H435.644V81.08H435.756C436.15 79.5227 437.03 78.744 438.396 78.744H439.18V80.92H437.42C436.854 80.92 436.417 81.0907 436.108 81.432C435.798 81.7627 435.644 82.1893 435.644 82.712V85.16H438.364V87H431.372V85.16ZM440.965 85.16H442.869V80.584H440.965V78.744H445.237V81.08H445.349C445.744 79.5227 446.624 78.744 447.989 78.744H448.773V80.92H447.013C446.448 80.92 446.011 81.0907 445.701 81.432C445.392 81.7627 445.237 82.1893 445.237 82.712V85.16H447.957V87H440.965V85.16ZM457.167 87C456.676 87 456.276 86.872 455.967 86.616C455.668 86.36 455.498 86.0027 455.455 85.544H455.375C455.236 86.0773 454.943 86.488 454.495 86.776C454.047 87.0533 453.503 87.192 452.863 87.192C452.052 87.192 451.407 86.9733 450.927 86.536C450.447 86.0987 450.207 85.496 450.207 84.728C450.207 83.032 451.444 82.184 453.919 82.184H455.247V81.768C455.247 81.2667 455.13 80.8933 454.895 80.648C454.66 80.4027 454.276 80.28 453.743 80.28C453.274 80.28 452.879 80.3707 452.559 80.552C452.25 80.7333 451.972 80.9893 451.727 81.32L450.431 80.168C450.719 79.6773 451.167 79.288 451.775 79C452.383 78.7013 453.13 78.552 454.015 78.552C455.156 78.552 456.042 78.8187 456.671 79.352C457.3 79.8747 457.615 80.648 457.615 81.672V84.744C457.615 84.8933 457.668 85.0213 457.775 85.128C457.882 85.2347 458.01 85.288 458.159 85.288H458.527V87H457.167ZM453.759 85.64C454.196 85.64 454.554 85.5387 454.831 85.336C455.108 85.1227 455.247 84.8293 455.247 84.456V83.464H453.983C453.514 83.464 453.151 83.5493 452.895 83.72C452.65 83.88 452.527 84.12 452.527 84.44V84.76C452.527 85.048 452.634 85.2667 452.847 85.416C453.071 85.5653 453.375 85.64 453.759 85.64ZM469.651 85.16H472.179V77H469.651V75.16H474.547V85.16H477.075V87H469.651V85.16ZM485.948 87C485.458 87 485.058 86.872 484.748 86.616C484.45 86.36 484.279 86.0027 484.236 85.544H484.156C484.018 86.0773 483.724 86.488 483.276 86.776C482.828 87.0533 482.284 87.192 481.644 87.192C480.834 87.192 480.188 86.9733 479.708 86.536C479.228 86.0987 478.988 85.496 478.988 84.728C478.988 83.032 480.226 82.184 482.7 82.184H484.028V81.768C484.028 81.2667 483.911 80.8933 483.676 80.648C483.442 80.4027 483.058 80.28 482.524 80.28C482.055 80.28 481.66 80.3707 481.34 80.552C481.031 80.7333 480.754 80.9893 480.508 81.32L479.212 80.168C479.5 79.6773 479.948 79.288 480.556 79C481.164 78.7013 481.911 78.552 482.796 78.552C483.938 78.552 484.823 78.8187 485.452 79.352C486.082 79.8747 486.396 80.648 486.396 81.672V84.744C486.396 84.8933 486.45 85.0213 486.556 85.128C486.663 85.2347 486.791 85.288 486.94 85.288H487.308V87H485.948ZM482.54 85.64C482.978 85.64 483.335 85.5387 483.612 85.336C483.89 85.1227 484.028 84.8293 484.028 84.456V83.464H482.764C482.295 83.464 481.932 83.5493 481.676 83.72C481.431 83.88 481.308 84.12 481.308 84.44V84.76C481.308 85.048 481.415 85.2667 481.628 85.416C481.852 85.5653 482.156 85.64 482.54 85.64ZM493.03 84.616C493.03 84.7653 493.083 84.8933 493.19 85C493.297 85.1067 493.425 85.16 493.574 85.16H496.246V87H493.19C492.358 87 491.729 86.7867 491.302 86.36C490.875 85.9227 490.662 85.3413 490.662 84.616V80.584H488.422V78.744H490.662V75.832H493.03V78.744H496.246V80.584H493.03V84.616ZM502.368 87.192C501.002 87.192 499.957 86.8133 499.232 86.056C498.506 85.2987 498.144 84.248 498.144 82.904C498.144 81.5493 498.501 80.488 499.216 79.72C499.941 78.9413 500.922 78.552 502.16 78.552C503.386 78.552 504.357 78.9307 505.072 79.688C505.786 80.4347 506.144 81.4533 506.144 82.744V83.448H500.496V83.592C500.496 84.136 500.666 84.568 501.008 84.888C501.349 85.208 501.829 85.368 502.448 85.368C503.322 85.368 504.048 85.0267 504.624 84.344L505.904 85.736C505.552 86.1733 505.082 86.5253 504.496 86.792C503.909 87.0587 503.2 87.192 502.368 87.192ZM502.176 80.248C501.664 80.248 501.253 80.408 500.944 80.728C500.645 81.0373 500.496 81.4587 500.496 81.992V82.12H503.824V81.992C503.824 81.4587 503.674 81.0373 503.376 80.728C503.088 80.408 502.688 80.248 502.176 80.248ZM508.122 85.16H510.026V80.584H508.122V78.744H512.394V81.08H512.506C512.9 79.5227 513.78 78.744 515.146 78.744H515.93V80.92H514.17C513.604 80.92 513.167 81.0907 512.858 81.432C512.548 81.7627 512.394 82.1893 512.394 82.712V85.16H515.114V87H508.122V85.16ZM524.323 87C523.833 87 523.433 86.872 523.123 86.616C522.825 86.36 522.654 86.0027 522.611 85.544H522.531C522.393 86.0773 522.099 86.488 521.651 86.776C521.203 87.0533 520.659 87.192 520.019 87.192C519.209 87.192 518.563 86.9733 518.083 86.536C517.603 86.0987 517.363 85.496 517.363 84.728C517.363 83.032 518.601 82.184 521.075 82.184H522.403V81.768C522.403 81.2667 522.286 80.8933 522.051 80.648C521.817 80.4027 521.433 80.28 520.899 80.28C520.43 80.28 520.035 80.3707 519.715 80.552C519.406 80.7333 519.129 80.9893 518.883 81.32L517.587 80.168C517.875 79.6773 518.323 79.288 518.931 79C519.539 78.7013 520.286 78.552 521.171 78.552C522.313 78.552 523.198 78.8187 523.827 79.352C524.457 79.8747 524.771 80.648 524.771 81.672V84.744C524.771 84.8933 524.825 85.0213 524.931 85.128C525.038 85.2347 525.166 85.288 525.315 85.288H525.683V87H524.323ZM520.915 85.64C521.353 85.64 521.71 85.5387 521.987 85.336C522.265 85.1227 522.403 84.8293 522.403 84.456V83.464H521.139C520.67 83.464 520.307 83.5493 520.051 83.72C519.806 83.88 519.683 84.12 519.683 84.44V84.76C519.683 85.048 519.79 85.2667 520.003 85.416C520.227 85.5653 520.531 85.64 520.915 85.64ZM527.213 85.16H529.741V77H527.213V75.16H532.109V85.16H534.637V87H527.213V85.16Z" fill="black"/>
<path d="M14.584 374H12.216V362.832H16.536C17.624 362.832 18.4667 363.152 19.064 363.792C19.6613 364.421 19.96 365.285 19.96 366.384C19.96 367.173 19.784 367.856 19.432 368.432C19.0907 368.997 18.6107 369.365 17.992 369.536L20.184 374H17.56L15.688 369.856H14.584V374ZM15.96 368C16.5147 368 16.904 367.893 17.128 367.68C17.352 367.467 17.464 367.115 17.464 366.624V366.144C17.464 365.653 17.352 365.301 17.128 365.088C16.904 364.875 16.5147 364.768 15.96 364.768H14.584V368H15.96ZM25.3938 374.192C24.1031 374.192 23.0898 373.808 22.3538 373.04C21.6178 372.261 21.2498 371.205 21.2498 369.872C21.2498 368.539 21.6178 367.488 22.3538 366.72C23.0898 365.941 24.1031 365.552 25.3938 365.552C26.6844 365.552 27.6978 365.941 28.4338 366.72C29.1698 367.488 29.5378 368.539 29.5378 369.872C29.5378 371.205 29.1698 372.261 28.4338 373.04C27.6978 373.808 26.6844 374.192 25.3938 374.192ZM25.3938 372.432C25.9271 372.432 26.3431 372.267 26.6418 371.936C26.9404 371.605 27.0898 371.136 27.0898 370.528V369.216C27.0898 368.608 26.9404 368.139 26.6418 367.808C26.3431 367.477 25.9271 367.312 25.3938 367.312C24.8604 367.312 24.4444 367.477 24.1458 367.808C23.8471 368.139 23.6978 368.608 23.6978 369.216V370.528C23.6978 371.136 23.8471 371.605 24.1458 371.936C24.4444 372.267 24.8604 372.432 25.3938 372.432ZM36.4755 372.496H36.3635C36.1395 373.029 35.8302 373.445 35.4355 373.744C35.0515 374.043 34.5448 374.192 33.9155 374.192C32.9662 374.192 32.2088 373.835 31.6435 373.12C31.0888 372.395 30.8115 371.312 30.8115 369.872C30.8115 368.432 31.0888 367.355 31.6435 366.64C32.2088 365.915 32.9662 365.552 33.9155 365.552C34.5448 365.552 35.0515 365.701 35.4355 366C35.8302 366.299 36.1395 366.715 36.3635 367.248H36.4755V362.16H38.8435V374H36.4755V372.496ZM34.9395 372.352C35.3875 372.352 35.7555 372.245 36.0435 372.032C36.3315 371.819 36.4755 371.504 36.4755 371.088V368.656C36.4755 368.24 36.3315 367.925 36.0435 367.712C35.7555 367.499 35.3875 367.392 34.9395 367.392C34.4168 367.392 34.0062 367.557 33.7075 367.888C33.4195 368.208 33.2755 368.656 33.2755 369.232V370.512C33.2755 371.088 33.4195 371.541 33.7075 371.872C34.0062 372.192 34.4168 372.352 34.9395 372.352ZM47.5733 374C47.0826 374 46.6826 373.872 46.3733 373.616C46.0746 373.36 45.9039 373.003 45.8613 372.544H45.7813C45.6426 373.077 45.3493 373.488 44.9013 373.776C44.4533 374.053 43.9093 374.192 43.2693 374.192C42.4586 374.192 41.8133 373.973 41.3333 373.536C40.8533 373.099 40.6133 372.496 40.6133 371.728C40.6133 370.032 41.8506 369.184 44.3253 369.184H45.6533V368.768C45.6533 368.267 45.5359 367.893 45.3013 367.648C45.0666 367.403 44.6826 367.28 44.1493 367.28C43.6799 367.28 43.2853 367.371 42.9653 367.552C42.6559 367.733 42.3786 367.989 42.1332 368.32L40.8372 367.168C41.1253 366.677 41.5733 366.288 42.1813 366C42.7893 365.701 43.5359 365.552 44.4213 365.552C45.5626 365.552 46.4479 365.819 47.0773 366.352C47.7066 366.875 48.0213 367.648 48.0213 368.672V371.744C48.0213 371.893 48.0746 372.021 48.1813 372.128C48.2879 372.235 48.4159 372.288 48.5653 372.288H48.9333V374H47.5733ZM44.1653 372.64C44.6026 372.64 44.9599 372.539 45.2373 372.336C45.5146 372.123 45.6533 371.829 45.6533 371.456V370.464H44.3893C43.9199 370.464 43.5573 370.549 43.3013 370.72C43.0559 370.88 42.9333 371.12 42.9333 371.44V371.76C42.9333 372.048 43.0399 372.267 43.2533 372.416C43.4773 372.565 43.7813 372.64 44.1653 372.64ZM50.319 365.744H52.687V367.248H52.799C53.023 366.715 53.327 366.299 53.711 366C54.1057 365.701 54.6177 365.552 55.247 365.552C56.1963 365.552 56.9483 365.915 57.503 366.64C58.0683 367.355 58.351 368.432 58.351 369.872C58.351 371.312 58.0683 372.395 57.503 373.12C56.9483 373.835 56.1963 374.192 55.247 374.192C54.6177 374.192 54.1057 374.043 53.711 373.744C53.327 373.445 53.023 373.029 52.799 372.496H52.687V377.2H50.319V365.744ZM54.223 372.352C54.7457 372.352 55.151 372.192 55.439 371.872C55.7377 371.541 55.887 371.088 55.887 370.512V369.232C55.887 368.656 55.7377 368.208 55.439 367.888C55.151 367.557 54.7457 367.392 54.223 367.392C53.775 367.392 53.407 367.499 53.119 367.712C52.831 367.925 52.687 368.24 52.687 368.656V371.088C52.687 371.504 52.831 371.819 53.119 372.032C53.407 372.245 53.775 372.352 54.223 372.352ZM63.9928 374.192C62.6274 374.192 61.5821 373.813 60.8568 373.056C60.1314 372.299 59.7688 371.248 59.7688 369.904C59.7688 368.549 60.1261 367.488 60.8408 366.72C61.5661 365.941 62.5474 365.552 63.7848 365.552C65.0114 365.552 65.9821 365.931 66.6968 366.688C67.4114 367.435 67.7688 368.453 67.7688 369.744V370.448H62.1208V370.592C62.1208 371.136 62.2914 371.568 62.6328 371.888C62.9741 372.208 63.4541 372.368 64.0728 372.368C64.9474 372.368 65.6728 372.027 66.2488 371.344L67.5288 372.736C67.1768 373.173 66.7074 373.525 66.1208 373.792C65.5341 374.059 64.8248 374.192 63.9928 374.192ZM63.8008 367.248C63.2888 367.248 62.8781 367.408 62.5688 367.728C62.2701 368.037 62.1208 368.459 62.1208 368.992V369.12H65.4488V368.992C65.4488 368.459 65.2994 368.037 65.0008 367.728C64.7128 367.408 64.3128 367.248 63.8008 367.248ZM64.0408 365.04L62.6328 364.352L64.5368 360.768L66.5048 361.744L64.0408 365.04Z" fill="black"/>
<rect opacity="0.7" y="59" width="600" height="287" fill="white"/>
<path d="M12.216 86V74.832H16.536C17.624 74.832 18.4667 75.152 19.064 75.792C19.6613 76.4213 19.96 77.2853 19.96 78.384C19.96 79.4827 19.6613 80.352 19.064 80.992C18.4667 81.6213 17.624 81.936 16.536 81.936H14.632V86H12.216ZM14.632 80H15.928C16.4827 80 16.872 79.8933 17.096 79.68C17.32 79.4667 17.432 79.1147 17.432 78.624V78.144C17.432 77.6533 17.32 77.3013 17.096 77.088C16.872 76.8747 16.4827 76.768 15.928 76.768H14.632V80ZM25.3938 86.192C24.1031 86.192 23.0898 85.808 22.3538 85.04C21.6178 84.2613 21.2498 83.2053 21.2498 81.872C21.2498 80.5387 21.6178 79.488 22.3538 78.72C23.0898 77.9413 24.1031 77.552 25.3938 77.552C26.6844 77.552 27.6978 77.9413 28.4338 78.72C29.1698 79.488 29.5378 80.5387 29.5378 81.872C29.5378 83.2053 29.1698 84.2613 28.4338 85.04C27.6978 85.808 26.6844 86.192 25.3938 86.192ZM25.3938 84.432C25.9271 84.432 26.3431 84.2667 26.6418 83.936C26.9404 83.6053 27.0898 83.136 27.0898 82.528V81.216C27.0898 80.608 26.9404 80.1387 26.6418 79.808C26.3431 79.4773 25.9271 79.312 25.3938 79.312C24.8604 79.312 24.4444 79.4773 24.1458 79.808C23.8471 80.1387 23.6978 80.608 23.6978 81.216V82.528C23.6978 83.136 23.8471 83.6053 24.1458 83.936C24.4444 84.2667 24.8604 84.432 25.3938 84.432ZM31.1315 77.744H33.4995V79.248H33.6115C33.8355 78.7147 34.1395 78.2987 34.5235 78C34.9182 77.7013 35.4302 77.552 36.0595 77.552C37.0088 77.552 37.7608 77.9147 38.3155 78.64C38.8808 79.3547 39.1635 80.432 39.1635 81.872C39.1635 83.312 38.8808 84.3947 38.3155 85.12C37.7608 85.8347 37.0088 86.192 36.0595 86.192C35.4302 86.192 34.9182 86.0427 34.5235 85.744C34.1395 85.4453 33.8355 85.0293 33.6115 84.496H33.4995V89.2H31.1315V77.744ZM35.0355 84.352C35.5582 84.352 35.9635 84.192 36.2515 83.872C36.5502 83.5413 36.6995 83.088 36.6995 82.512V81.232C36.6995 80.656 36.5502 80.208 36.2515 79.888C35.9635 79.5573 35.5582 79.392 35.0355 79.392C34.5875 79.392 34.2195 79.4987 33.9315 79.712C33.6435 79.9253 33.4995 80.24 33.4995 80.656V83.088C33.4995 83.504 33.6435 83.8187 33.9315 84.032C34.2195 84.2453 34.5875 84.352 35.0355 84.352ZM45.9733 84.496H45.8773C45.6746 85.008 45.3706 85.4187 44.9653 85.728C44.5706 86.0373 44.0639 86.192 43.4453 86.192C42.6346 86.192 41.9839 85.92 41.4933 85.376C41.0026 84.832 40.7573 84.0693 40.7573 83.088V77.744H43.1253V82.768C43.1253 83.2907 43.2426 83.6907 43.4773 83.968C43.7119 84.2347 44.0586 84.368 44.5173 84.368C44.9119 84.368 45.2533 84.2613 45.5413 84.048C45.8293 83.8347 45.9733 83.5413 45.9733 83.168V77.744H48.3413V86H45.9733V84.496ZM50.319 77.744H52.687V79.248H52.799C53.023 78.7147 53.327 78.2987 53.711 78C54.1057 77.7013 54.6177 77.552 55.247 77.552C56.1963 77.552 56.9483 77.9147 57.503 78.64C58.0683 79.3547 58.351 80.432 58.351 81.872C58.351 83.312 58.0683 84.3947 57.503 85.12C56.9483 85.8347 56.1963 86.192 55.247 86.192C54.6177 86.192 54.1057 86.0427 53.711 85.744C53.327 85.4453 53.023 85.0293 52.799 84.496H52.687V89.2H50.319V77.744ZM54.223 84.352C54.7457 84.352 55.151 84.192 55.439 83.872C55.7377 83.5413 55.887 83.088 55.887 82.512V81.232C55.887 80.656 55.7377 80.208 55.439 79.888C55.151 79.5573 54.7457 79.392 54.223 79.392C53.775 79.392 53.407 79.4987 53.119 79.712C52.831 79.9253 52.687 80.24 52.687 80.656V83.088C52.687 83.504 52.831 83.8187 53.119 84.032C53.407 84.2453 53.775 84.352 54.223 84.352Z" fill="black"/>
<rect x="174" y="326" width="86" height="20" rx="6" fill="#FFEDED"/>
<path d="M180.528 341.144C179.848 341.144 179.252 341.04 178.74 340.832C178.228 340.624 177.844 340.34 177.588 339.98L178.584 339.056C179.096 339.616 179.748 339.896 180.54 339.896C180.892 339.896 181.168 339.84 181.368 339.728C181.568 339.616 181.668 339.452 181.668 339.236C181.668 339.076 181.604 338.96 181.476 338.888C181.356 338.808 181.164 338.748 180.9 338.708L179.904 338.552C179.296 338.456 178.812 338.268 178.452 337.988C178.1 337.708 177.924 337.292 177.924 336.74C177.924 336.092 178.172 335.584 178.668 335.216C179.172 334.848 179.868 334.664 180.756 334.664C181.932 334.664 182.792 334.98 183.336 335.612L182.448 336.62C182.256 336.404 182.012 336.232 181.716 336.104C181.42 335.976 181.08 335.912 180.696 335.912C180.36 335.912 180.104 335.968 179.928 336.08C179.752 336.184 179.664 336.336 179.664 336.536C179.664 336.704 179.724 336.828 179.844 336.908C179.972 336.98 180.168 337.036 180.432 337.076L181.416 337.232C182.032 337.328 182.516 337.516 182.868 337.796C183.228 338.076 183.408 338.492 183.408 339.044C183.408 339.692 183.156 340.204 182.652 340.58C182.148 340.956 181.44 341.144 180.528 341.144ZM189.127 332.06V333.956H187.219V332.06H189.127ZM185.323 339.62H187.291V336.188H185.323V334.808H189.067V339.62H190.891V341H185.323V339.62ZM196.107 339.872H196.023C195.855 340.272 195.623 340.584 195.327 340.808C195.039 341.032 194.659 341.144 194.187 341.144C193.475 341.144 192.907 340.876 192.483 340.34C192.067 339.796 191.859 338.984 191.859 337.904C191.859 336.824 192.067 336.016 192.483 335.48C192.907 334.936 193.475 334.664 194.187 334.664C194.659 334.664 195.039 334.776 195.327 335C195.623 335.224 195.855 335.536 196.023 335.936H196.107V332.12H197.883V341H196.107V339.872ZM194.955 339.764C195.291 339.764 195.567 339.684 195.783 339.524C195.999 339.364 196.107 339.128 196.107 338.816V336.992C196.107 336.68 195.999 336.444 195.783 336.284C195.567 336.124 195.291 336.044 194.955 336.044C194.563 336.044 194.255 336.168 194.031 336.416C193.815 336.656 193.707 336.992 193.707 337.424V338.384C193.707 338.816 193.815 339.156 194.031 339.404C194.255 339.644 194.563 339.764 194.955 339.764ZM202.354 341.144C201.33 341.144 200.546 340.86 200.002 340.292C199.458 339.724 199.186 338.936 199.186 337.928C199.186 336.912 199.454 336.116 199.99 335.54C200.534 334.956 201.27 334.664 202.198 334.664C203.118 334.664 203.846 334.948 204.382 335.516C204.918 336.076 205.186 336.84 205.186 337.808V338.336H200.95V338.444C200.95 338.852 201.078 339.176 201.334 339.416C201.59 339.656 201.95 339.776 202.414 339.776C203.07 339.776 203.614 339.52 204.046 339.008L205.006 340.052C204.742 340.38 204.39 340.644 203.95 340.844C203.51 341.044 202.978 341.144 202.354 341.144ZM202.21 335.936C201.826 335.936 201.518 336.056 201.286 336.296C201.062 336.528 200.95 336.844 200.95 337.244V337.34H203.446V337.244C203.446 336.844 203.334 336.528 203.11 336.296C202.894 336.056 202.594 335.936 202.21 335.936ZM206.489 332.12H208.265V335.936H208.349C208.517 335.536 208.745 335.224 209.033 335C209.329 334.776 209.713 334.664 210.185 334.664C210.897 334.664 211.461 334.936 211.877 335.48C212.301 336.016 212.513 336.824 212.513 337.904C212.513 338.984 212.301 339.796 211.877 340.34C211.461 340.876 210.897 341.144 210.185 341.144C209.713 341.144 209.329 341.032 209.033 340.808C208.745 340.584 208.517 340.272 208.349 339.872H208.265V341H206.489V332.12ZM209.417 339.764C209.809 339.764 210.113 339.644 210.329 339.404C210.553 339.156 210.665 338.816 210.665 338.384V337.424C210.665 336.992 210.553 336.656 210.329 336.416C210.113 336.168 209.809 336.044 209.417 336.044C209.081 336.044 208.805 336.124 208.589 336.284C208.373 336.444 208.265 336.68 208.265 336.992V338.816C208.265 339.128 208.373 339.364 208.589 339.524C208.805 339.684 209.081 339.764 209.417 339.764ZM218.821 341C218.453 341 218.153 340.904 217.921 340.712C217.697 340.52 217.569 340.252 217.537 339.908H217.477C217.373 340.308 217.153 340.616 216.817 340.832C216.481 341.04 216.073 341.144 215.593 341.144C214.985 341.144 214.501 340.98 214.141 340.652C213.781 340.324 213.601 339.872 213.601 339.296C213.601 338.024 214.529 337.388 216.385 337.388H217.381V337.076C217.381 336.7 217.293 336.42 217.117 336.236C216.941 336.052 216.653 335.96 216.253 335.96C215.901 335.96 215.605 336.028 215.365 336.164C215.133 336.3 214.925 336.492 214.741 336.74L213.769 335.876C213.985 335.508 214.321 335.216 214.777 335C215.233 334.776 215.793 334.664 216.457 334.664C217.313 334.664 217.977 334.864 218.449 335.264C218.921 335.656 219.157 336.236 219.157 337.004V339.308C219.157 339.42 219.197 339.516 219.277 339.596C219.357 339.676 219.453 339.716 219.565 339.716H219.841V341H218.821ZM216.265 339.98C216.593 339.98 216.861 339.904 217.069 339.752C217.277 339.592 217.381 339.372 217.381 339.092V338.348H216.433C216.081 338.348 215.809 338.412 215.617 338.54C215.433 338.66 215.341 338.84 215.341 339.08V339.32C215.341 339.536 215.421 339.7 215.581 339.812C215.749 339.924 215.977 339.98 216.265 339.98ZM221.06 339.62H222.488V336.188H221.06V334.808H224.264V336.56H224.348C224.644 335.392 225.304 334.808 226.328 334.808H226.916V336.44H225.596C225.172 336.44 224.844 336.568 224.612 336.824C224.38 337.072 224.264 337.392 224.264 337.784V339.62H226.304V341H221.06V339.62ZM229.047 338.192V336.488H232.887V338.192H229.047ZM238.331 341.144C237.307 341.144 236.523 340.86 235.979 340.292C235.435 339.724 235.163 338.936 235.163 337.928C235.163 336.912 235.431 336.116 235.967 335.54C236.511 334.956 237.247 334.664 238.175 334.664C239.095 334.664 239.823 334.948 240.359 335.516C240.895 336.076 241.163 336.84 241.163 337.808V338.336H236.927V338.444C236.927 338.852 237.055 339.176 237.311 339.416C237.567 339.656 237.927 339.776 238.391 339.776C239.047 339.776 239.591 339.52 240.023 339.008L240.983 340.052C240.719 340.38 240.367 340.644 239.927 340.844C239.487 341.044 238.955 341.144 238.331 341.144ZM238.187 335.936C237.803 335.936 237.495 336.056 237.263 336.296C237.039 336.528 236.927 336.844 236.927 337.244V337.34H239.423V337.244C239.423 336.844 239.311 336.528 239.087 336.296C238.871 336.056 238.571 335.936 238.187 335.936ZM242.538 341V334.808H244.314V335.936H244.386C244.538 335.552 244.762 335.244 245.058 335.012C245.362 334.78 245.746 334.664 246.21 334.664C246.818 334.664 247.306 334.868 247.674 335.276C248.042 335.684 248.226 336.256 248.226 336.992V341H246.45V337.232C246.45 336.84 246.362 336.544 246.186 336.344C246.01 336.136 245.75 336.032 245.406 336.032C245.11 336.032 244.854 336.112 244.638 336.272C244.422 336.432 244.314 336.652 244.314 336.932V341H242.538ZM253.669 339.872H253.585C253.417 340.272 253.185 340.584 252.889 340.808C252.601 341.032 252.221 341.144 251.749 341.144C251.037 341.144 250.469 340.876 250.045 340.34C249.629 339.796 249.421 338.984 249.421 337.904C249.421 336.824 249.629 336.016 250.045 335.48C250.469 334.936 251.037 334.664 251.749 334.664C252.221 334.664 252.601 334.776 252.889 335C253.185 335.224 253.417 335.536 253.585 335.936H253.669V332.12H255.445V341H253.669V339.872ZM252.517 339.764C252.853 339.764 253.129 339.684 253.345 339.524C253.561 339.364 253.669 339.128 253.669 338.816V336.992C253.669 336.68 253.561 336.444 253.345 336.284C253.129 336.124 252.853 336.044 252.517 336.044C252.125 336.044 251.817 336.168 251.593 336.416C251.377 336.656 251.269 336.992 251.269 337.424V338.384C251.269 338.816 251.377 339.156 251.593 339.404C251.817 339.644 252.125 339.764 252.517 339.764Z" fill="#C6262B"/>
<line x1="170.5" y1="2.18557e-08" x2="170.5" y2="405" stroke="#E13F44"/>
<line y1="202.5" x2="600" y2="202.5" stroke="#E13F44"/>
<rect x="174" y="59" width="100" height="20" rx="6" fill="#FFEDED"/>
<path d="M180.852 74.144C179.876 74.144 179.108 73.856 178.548 73.28C177.996 72.704 177.72 71.912 177.72 70.904C177.72 69.904 177.996 69.116 178.548 68.54C179.108 67.956 179.872 67.664 180.84 67.664C182.08 67.664 182.94 68.168 183.42 69.176L182.052 69.92C181.932 69.656 181.776 69.452 181.584 69.308C181.4 69.156 181.152 69.08 180.84 69.08C180.44 69.08 180.128 69.2 179.904 69.44C179.68 69.672 179.568 69.992 179.568 70.4V71.408C179.568 71.824 179.68 72.148 179.904 72.38C180.128 72.612 180.448 72.728 180.864 72.728C181.184 72.728 181.444 72.656 181.644 72.512C181.852 72.36 182.028 72.144 182.172 71.864L183.516 72.632C183.284 73.104 182.948 73.476 182.508 73.748C182.068 74.012 181.516 74.144 180.852 74.144ZM187.795 74.144C186.827 74.144 186.067 73.856 185.515 73.28C184.963 72.696 184.687 71.904 184.687 70.904C184.687 69.904 184.963 69.116 185.515 68.54C186.067 67.956 186.827 67.664 187.795 67.664C188.763 67.664 189.523 67.956 190.075 68.54C190.627 69.116 190.903 69.904 190.903 70.904C190.903 71.904 190.627 72.696 190.075 73.28C189.523 73.856 188.763 74.144 187.795 74.144ZM187.795 72.824C188.195 72.824 188.507 72.7 188.731 72.452C188.955 72.204 189.067 71.852 189.067 71.396V70.412C189.067 69.956 188.955 69.604 188.731 69.356C188.507 69.108 188.195 68.984 187.795 68.984C187.395 68.984 187.083 69.108 186.859 69.356C186.635 69.604 186.523 69.956 186.523 70.412V71.396C186.523 71.852 186.635 72.204 186.859 72.452C187.083 72.7 187.395 72.824 187.795 72.824ZM192.171 74V67.808H193.947V68.936H194.019C194.171 68.552 194.395 68.244 194.691 68.012C194.995 67.78 195.379 67.664 195.843 67.664C196.451 67.664 196.939 67.868 197.307 68.276C197.675 68.684 197.859 69.256 197.859 69.992V74H196.083V70.232C196.083 69.84 195.995 69.544 195.819 69.344C195.643 69.136 195.383 69.032 195.039 69.032C194.743 69.032 194.487 69.112 194.271 69.272C194.055 69.432 193.947 69.652 193.947 69.932V74H192.171ZM202.546 72.212C202.546 72.324 202.586 72.42 202.666 72.5C202.746 72.58 202.842 72.62 202.954 72.62H204.958V74H202.666C202.042 74 201.57 73.84 201.25 73.52C200.93 73.192 200.77 72.756 200.77 72.212V69.188H199.09V67.808H200.77V65.624H202.546V67.808H204.958V69.188H202.546V72.212ZM209.549 74.144C208.525 74.144 207.741 73.86 207.197 73.292C206.653 72.724 206.381 71.936 206.381 70.928C206.381 69.912 206.649 69.116 207.185 68.54C207.729 67.956 208.465 67.664 209.393 67.664C210.313 67.664 211.041 67.948 211.577 68.516C212.113 69.076 212.381 69.84 212.381 70.808V71.336H208.145V71.444C208.145 71.852 208.273 72.176 208.529 72.416C208.785 72.656 209.145 72.776 209.609 72.776C210.265 72.776 210.809 72.52 211.241 72.008L212.201 73.052C211.937 73.38 211.585 73.644 211.145 73.844C210.705 74.044 210.173 74.144 209.549 74.144ZM209.405 68.936C209.021 68.936 208.713 69.056 208.481 69.296C208.257 69.528 208.145 69.844 208.145 70.244V70.34H210.641V70.244C210.641 69.844 210.529 69.528 210.305 69.296C210.089 69.056 209.789 68.936 209.405 68.936ZM213.757 74V67.808H215.533V68.936H215.605C215.757 68.552 215.981 68.244 216.277 68.012C216.581 67.78 216.965 67.664 217.429 67.664C218.037 67.664 218.525 67.868 218.893 68.276C219.261 68.684 219.445 69.256 219.445 69.992V74H217.669V70.232C217.669 69.84 217.581 69.544 217.405 69.344C217.229 69.136 216.969 69.032 216.625 69.032C216.329 69.032 216.073 69.112 215.857 69.272C215.641 69.432 215.533 69.652 215.533 69.932V74H213.757ZM224.132 72.212C224.132 72.324 224.172 72.42 224.252 72.5C224.332 72.58 224.428 72.62 224.54 72.62H226.544V74H224.252C223.628 74 223.156 73.84 222.836 73.52C222.516 73.192 222.356 72.756 222.356 72.212V69.188H220.676V67.808H222.356V65.624H224.132V67.808H226.544V69.188H224.132V72.212ZM229.047 71.192V69.488H232.887V71.192H229.047ZM238.09 74.144C237.411 74.144 236.815 74.04 236.303 73.832C235.791 73.624 235.407 73.34 235.151 72.98L236.146 72.056C236.659 72.616 237.311 72.896 238.103 72.896C238.455 72.896 238.731 72.84 238.931 72.728C239.131 72.616 239.231 72.452 239.231 72.236C239.231 72.076 239.167 71.96 239.039 71.888C238.919 71.808 238.727 71.748 238.463 71.708L237.467 71.552C236.859 71.456 236.375 71.268 236.015 70.988C235.663 70.708 235.487 70.292 235.487 69.74C235.487 69.092 235.735 68.584 236.231 68.216C236.735 67.848 237.431 67.664 238.319 67.664C239.495 67.664 240.355 67.98 240.898 68.612L240.011 69.62C239.819 69.404 239.575 69.232 239.279 69.104C238.983 68.976 238.643 68.912 238.259 68.912C237.923 68.912 237.667 68.968 237.491 69.08C237.315 69.184 237.227 69.336 237.227 69.536C237.227 69.704 237.287 69.828 237.407 69.908C237.535 69.98 237.731 70.036 237.995 70.076L238.979 70.232C239.595 70.328 240.079 70.516 240.431 70.796C240.791 71.076 240.971 71.492 240.971 72.044C240.971 72.692 240.719 73.204 240.215 73.58C239.711 73.956 239.003 74.144 238.09 74.144ZM245.718 72.212C245.718 72.324 245.758 72.42 245.838 72.5C245.918 72.58 246.014 72.62 246.126 72.62H248.13V74H245.838C245.214 74 244.742 73.84 244.422 73.52C244.102 73.192 243.942 72.756 243.942 72.212V69.188H242.262V67.808H243.942V65.624H245.718V67.808H248.13V69.188H245.718V72.212ZM254.797 74C254.429 74 254.129 73.904 253.897 73.712C253.673 73.52 253.545 73.252 253.513 72.908H253.453C253.349 73.308 253.129 73.616 252.793 73.832C252.457 74.04 252.049 74.144 251.569 74.144C250.961 74.144 250.477 73.98 250.117 73.652C249.757 73.324 249.577 72.872 249.577 72.296C249.577 71.024 250.505 70.388 252.361 70.388H253.357V70.076C253.357 69.7 253.269 69.42 253.093 69.236C252.917 69.052 252.629 68.96 252.229 68.96C251.877 68.96 251.581 69.028 251.341 69.164C251.109 69.3 250.901 69.492 250.717 69.74L249.745 68.876C249.961 68.508 250.297 68.216 250.753 68C251.209 67.776 251.769 67.664 252.433 67.664C253.289 67.664 253.953 67.864 254.425 68.264C254.897 68.656 255.133 69.236 255.133 70.004V72.308C255.133 72.42 255.173 72.516 255.253 72.596C255.333 72.676 255.429 72.716 255.541 72.716H255.817V74H254.797ZM252.241 72.98C252.569 72.98 252.837 72.904 253.045 72.752C253.253 72.592 253.357 72.372 253.357 72.092V71.348H252.409C252.057 71.348 251.785 71.412 251.593 71.54C251.409 71.66 251.317 71.84 251.317 72.08V72.32C251.317 72.536 251.397 72.7 251.557 72.812C251.725 72.924 251.953 72.98 252.241 72.98ZM257.036 72.62H258.464V69.188H257.036V67.808H260.24V69.56H260.324C260.62 68.392 261.28 67.808 262.304 67.808H262.892V69.44H261.572C261.148 69.44 260.82 69.568 260.588 69.824C260.356 70.072 260.24 70.392 260.24 70.784V72.62H262.28V74H257.036V72.62ZM267.304 72.212C267.304 72.324 267.344 72.42 267.424 72.5C267.504 72.58 267.6 72.62 267.712 72.62H269.716V74H267.424C266.8 74 266.328 73.84 266.008 73.52C265.688 73.192 265.528 72.756 265.528 72.212V69.188H263.848V67.808H265.528V65.624H267.304V67.808H269.716V69.188H267.304V72.212Z" fill="#C6262B"/>
<rect x="5" y="178" width="100" height="20" rx="6" fill="#FFEDED"/>
<path d="M11.852 193.144C10.876 193.144 10.108 192.856 9.548 192.28C8.996 191.704 8.72 190.912 8.72 189.904C8.72 188.904 8.996 188.116 9.548 187.54C10.108 186.956 10.872 186.664 11.84 186.664C13.08 186.664 13.94 187.168 14.42 188.176L13.052 188.92C12.932 188.656 12.776 188.452 12.584 188.308C12.4 188.156 12.152 188.08 11.84 188.08C11.44 188.08 11.128 188.2 10.904 188.44C10.68 188.672 10.568 188.992 10.568 189.4V190.408C10.568 190.824 10.68 191.148 10.904 191.38C11.128 191.612 11.448 191.728 11.864 191.728C12.184 191.728 12.444 191.656 12.644 191.512C12.852 191.36 13.028 191.144 13.172 190.864L14.516 191.632C14.284 192.104 13.948 192.476 13.508 192.748C13.068 193.012 12.516 193.144 11.852 193.144ZM18.7953 193.144C17.8273 193.144 17.0673 192.856 16.5153 192.28C15.9633 191.696 15.6873 190.904 15.6873 189.904C15.6873 188.904 15.9633 188.116 16.5153 187.54C17.0673 186.956 17.8273 186.664 18.7953 186.664C19.7633 186.664 20.5233 186.956 21.0753 187.54C21.6273 188.116 21.9033 188.904 21.9033 189.904C21.9033 190.904 21.6273 191.696 21.0753 192.28C20.5233 192.856 19.7633 193.144 18.7953 193.144ZM18.7953 191.824C19.1953 191.824 19.5073 191.7 19.7313 191.452C19.9553 191.204 20.0673 190.852 20.0673 190.396V189.412C20.0673 188.956 19.9553 188.604 19.7313 188.356C19.5073 188.108 19.1953 187.984 18.7953 187.984C18.3953 187.984 18.0833 188.108 17.8593 188.356C17.6353 188.604 17.5233 188.956 17.5233 189.412V190.396C17.5233 190.852 17.6353 191.204 17.8593 191.452C18.0833 191.7 18.3953 191.824 18.7953 191.824ZM23.1706 193V186.808H24.9466V187.936H25.0186C25.1706 187.552 25.3946 187.244 25.6906 187.012C25.9946 186.78 26.3786 186.664 26.8426 186.664C27.4506 186.664 27.9386 186.868 28.3066 187.276C28.6746 187.684 28.8586 188.256 28.8586 188.992V193H27.0826V189.232C27.0826 188.84 26.9946 188.544 26.8186 188.344C26.6426 188.136 26.3826 188.032 26.0386 188.032C25.7426 188.032 25.4866 188.112 25.2706 188.272C25.0546 188.432 24.9466 188.652 24.9466 188.932V193H23.1706ZM33.5459 191.212C33.5459 191.324 33.5859 191.42 33.6659 191.5C33.7459 191.58 33.8419 191.62 33.9539 191.62H35.9579V193H33.6659C33.0419 193 32.5699 192.84 32.2499 192.52C31.9299 192.192 31.7699 191.756 31.7699 191.212V188.188H30.0899V186.808H31.7699V184.624H33.5459V186.808H35.9579V188.188H33.5459V191.212ZM40.5493 193.144C39.5253 193.144 38.7413 192.86 38.1973 192.292C37.6533 191.724 37.3813 190.936 37.3813 189.928C37.3813 188.912 37.6493 188.116 38.1853 187.54C38.7293 186.956 39.4653 186.664 40.3933 186.664C41.3133 186.664 42.0413 186.948 42.5773 187.516C43.1133 188.076 43.3813 188.84 43.3813 189.808V190.336H39.1453V190.444C39.1453 190.852 39.2733 191.176 39.5293 191.416C39.7853 191.656 40.1453 191.776 40.6093 191.776C41.2653 191.776 41.8093 191.52 42.2413 191.008L43.2013 192.052C42.9373 192.38 42.5853 192.644 42.1453 192.844C41.7053 193.044 41.1733 193.144 40.5493 193.144ZM40.4053 187.936C40.0213 187.936 39.7133 188.056 39.4813 188.296C39.2573 188.528 39.1453 188.844 39.1453 189.244V189.34H41.6413V189.244C41.6413 188.844 41.5293 188.528 41.3053 188.296C41.0893 188.056 40.7893 187.936 40.4053 187.936ZM44.7566 193V186.808H46.5326V187.936H46.6046C46.7566 187.552 46.9806 187.244 47.2766 187.012C47.5806 186.78 47.9646 186.664 48.4286 186.664C49.0366 186.664 49.5246 186.868 49.8926 187.276C50.2606 187.684 50.4446 188.256 50.4446 188.992V193H48.6686V189.232C48.6686 188.84 48.5806 188.544 48.4046 188.344C48.2286 188.136 47.9686 188.032 47.6246 188.032C47.3286 188.032 47.0726 188.112 46.8566 188.272C46.6406 188.432 46.5326 188.652 46.5326 188.932V193H44.7566ZM55.1319 191.212C55.1319 191.324 55.1719 191.42 55.2519 191.5C55.3319 191.58 55.4279 191.62 55.5399 191.62H57.5439V193H55.2519C54.6279 193 54.1559 192.84 53.8359 192.52C53.5159 192.192 53.3559 191.756 53.3559 191.212V188.188H51.6759V186.808H53.3559V184.624H55.1319V186.808H57.5439V188.188H55.1319V191.212ZM60.0472 190.192V188.488H63.8872V190.192H60.0472ZM69.0905 193.144C68.4105 193.144 67.8145 193.04 67.3025 192.832C66.7905 192.624 66.4065 192.34 66.1505 191.98L67.1465 191.056C67.6585 191.616 68.3105 191.896 69.1025 191.896C69.4545 191.896 69.7305 191.84 69.9305 191.728C70.1305 191.616 70.2305 191.452 70.2305 191.236C70.2305 191.076 70.1665 190.96 70.0385 190.888C69.9185 190.808 69.7265 190.748 69.4625 190.708L68.4665 190.552C67.8585 190.456 67.3745 190.268 67.0145 189.988C66.6625 189.708 66.4865 189.292 66.4865 188.74C66.4865 188.092 66.7345 187.584 67.2305 187.216C67.7345 186.848 68.4305 186.664 69.3185 186.664C70.4945 186.664 71.3545 186.98 71.8985 187.612L71.0105 188.62C70.8185 188.404 70.5745 188.232 70.2785 188.104C69.9825 187.976 69.6425 187.912 69.2585 187.912C68.9225 187.912 68.6665 187.968 68.4905 188.08C68.3145 188.184 68.2265 188.336 68.2265 188.536C68.2265 188.704 68.2865 188.828 68.4065 188.908C68.5345 188.98 68.7305 189.036 68.9945 189.076L69.9785 189.232C70.5945 189.328 71.0785 189.516 71.4305 189.796C71.7905 190.076 71.9705 190.492 71.9705 191.044C71.9705 191.692 71.7185 192.204 71.2145 192.58C70.7105 192.956 70.0025 193.144 69.0905 193.144ZM76.7178 191.212C76.7178 191.324 76.7578 191.42 76.8378 191.5C76.9178 191.58 77.0138 191.62 77.1258 191.62H79.1298V193H76.8378C76.2138 193 75.7418 192.84 75.4218 192.52C75.1018 192.192 74.9418 191.756 74.9418 191.212V188.188H73.2618V186.808H74.9418V184.624H76.7178V186.808H79.1298V188.188H76.7178V191.212ZM85.7971 193C85.4291 193 85.1291 192.904 84.8971 192.712C84.6731 192.52 84.5451 192.252 84.5131 191.908H84.4531C84.3491 192.308 84.1291 192.616 83.7931 192.832C83.4571 193.04 83.0491 193.144 82.5691 193.144C81.9611 193.144 81.4771 192.98 81.1171 192.652C80.7571 192.324 80.5771 191.872 80.5771 191.296C80.5771 190.024 81.5051 189.388 83.3611 189.388H84.3571V189.076C84.3571 188.7 84.2691 188.42 84.0931 188.236C83.9171 188.052 83.6291 187.96 83.2291 187.96C82.8771 187.96 82.5811 188.028 82.3411 188.164C82.1091 188.3 81.9011 188.492 81.7171 188.74L80.7451 187.876C80.9611 187.508 81.2971 187.216 81.7531 187C82.2091 186.776 82.7691 186.664 83.4331 186.664C84.2891 186.664 84.9531 186.864 85.4251 187.264C85.8971 187.656 86.1331 188.236 86.1331 189.004V191.308C86.1331 191.42 86.1731 191.516 86.2531 191.596C86.3331 191.676 86.4291 191.716 86.5411 191.716H86.8171V193H85.7971ZM83.2411 191.98C83.5691 191.98 83.8371 191.904 84.0451 191.752C84.2531 191.592 84.3571 191.372 84.3571 191.092V190.348H83.4091C83.0571 190.348 82.7851 190.412 82.5931 190.54C82.4091 190.66 82.3171 190.84 82.3171 191.08V191.32C82.3171 191.536 82.3971 191.7 82.5571 191.812C82.7251 191.924 82.9531 191.98 83.2411 191.98ZM88.0364 191.62H89.4644V188.188H88.0364V186.808H91.2404V188.56H91.3244C91.6204 187.392 92.2804 186.808 93.3044 186.808H93.8924V188.44H92.5724C92.1484 188.44 91.8204 188.568 91.5884 188.824C91.3564 189.072 91.2404 189.392 91.2404 189.784V191.62H93.2804V193H88.0364V191.62ZM98.3038 191.212C98.3038 191.324 98.3438 191.42 98.4238 191.5C98.5038 191.58 98.5998 191.62 98.7118 191.62H100.716V193H98.4238C97.7998 193 97.3278 192.84 97.0078 192.52C96.6878 192.192 96.5278 191.756 96.5278 191.212V188.188H94.8478V186.808H96.5278V184.624H98.3038V186.808H100.716V188.188H98.3038V191.212Z" fill="#C6262B"/>
<rect x="545" y="178" width="50" height="20" rx="6" fill="#FFEDED"/>
<path d="M551.528 193.144C550.848 193.144 550.252 193.04 549.74 192.832C549.228 192.624 548.844 192.34 548.588 191.98L549.584 191.056C550.096 191.616 550.748 191.896 551.54 191.896C551.892 191.896 552.168 191.84 552.368 191.728C552.568 191.616 552.668 191.452 552.668 191.236C552.668 191.076 552.604 190.96 552.476 190.888C552.356 190.808 552.164 190.748 551.9 190.708L550.904 190.552C550.296 190.456 549.812 190.268 549.452 189.988C549.1 189.708 548.924 189.292 548.924 188.74C548.924 188.092 549.172 187.584 549.668 187.216C550.172 186.848 550.868 186.664 551.756 186.664C552.932 186.664 553.792 186.98 554.336 187.612L553.448 188.62C553.256 188.404 553.012 188.232 552.716 188.104C552.42 187.976 552.08 187.912 551.696 187.912C551.36 187.912 551.104 187.968 550.928 188.08C550.752 188.184 550.664 188.336 550.664 188.536C550.664 188.704 550.724 188.828 550.844 188.908C550.972 188.98 551.168 189.036 551.432 189.076L552.416 189.232C553.032 189.328 553.516 189.516 553.868 189.796C554.228 190.076 554.408 190.492 554.408 191.044C554.408 191.692 554.156 192.204 553.652 192.58C553.148 192.956 552.44 193.144 551.528 193.144ZM555.903 186.808H557.679V187.936H557.763C557.931 187.536 558.159 187.224 558.447 187C558.743 186.776 559.127 186.664 559.599 186.664C560.311 186.664 560.875 186.936 561.291 187.48C561.715 188.016 561.927 188.824 561.927 189.904C561.927 190.984 561.715 191.796 561.291 192.34C560.875 192.876 560.311 193.144 559.599 193.144C559.127 193.144 558.743 193.032 558.447 192.808C558.159 192.584 557.931 192.272 557.763 191.872H557.679V195.4H555.903V186.808ZM558.831 191.764C559.223 191.764 559.527 191.644 559.743 191.404C559.967 191.156 560.079 190.816 560.079 190.384V189.424C560.079 188.992 559.967 188.656 559.743 188.416C559.527 188.168 559.223 188.044 558.831 188.044C558.495 188.044 558.219 188.124 558.003 188.284C557.787 188.444 557.679 188.68 557.679 188.992V190.816C557.679 191.128 557.787 191.364 558.003 191.524C558.219 191.684 558.495 191.764 558.831 191.764ZM568.235 193C567.867 193 567.567 192.904 567.335 192.712C567.111 192.52 566.983 192.252 566.951 191.908H566.891C566.787 192.308 566.567 192.616 566.231 192.832C565.895 193.04 565.487 193.144 565.007 193.144C564.399 193.144 563.915 192.98 563.555 192.652C563.195 192.324 563.015 191.872 563.015 191.296C563.015 190.024 563.943 189.388 565.799 189.388H566.795V189.076C566.795 188.7 566.707 188.42 566.531 188.236C566.355 188.052 566.067 187.96 565.667 187.96C565.315 187.96 565.019 188.028 564.779 188.164C564.547 188.3 564.339 188.492 564.155 188.74L563.183 187.876C563.399 187.508 563.735 187.216 564.191 187C564.647 186.776 565.207 186.664 565.871 186.664C566.727 186.664 567.391 186.864 567.863 187.264C568.335 187.656 568.571 188.236 568.571 189.004V191.308C568.571 191.42 568.611 191.516 568.691 191.596C568.771 191.676 568.867 191.716 568.979 191.716H569.255V193H568.235ZM565.679 191.98C566.007 191.98 566.275 191.904 566.483 191.752C566.691 191.592 566.795 191.372 566.795 191.092V190.348H565.847C565.495 190.348 565.223 190.412 565.031 190.54C564.847 190.66 564.755 190.84 564.755 191.08V191.32C564.755 191.536 564.835 191.7 564.995 191.812C565.163 191.924 565.391 191.98 565.679 191.98ZM570.366 193V186.808H572.142V187.936H572.214C572.366 187.552 572.59 187.244 572.886 187.012C573.19 186.78 573.574 186.664 574.038 186.664C574.646 186.664 575.134 186.868 575.502 187.276C575.87 187.684 576.054 188.256 576.054 188.992V193H574.278V189.232C574.278 188.84 574.19 188.544 574.014 188.344C573.838 188.136 573.578 188.032 573.234 188.032C572.938 188.032 572.682 188.112 572.466 188.272C572.25 188.432 572.142 188.652 572.142 188.932V193H570.366ZM585.105 193V191.548H587.361V185.932H587.253L585.549 188.164L584.397 187.264L586.401 184.624H589.161V191.548H590.937V193H585.105Z" fill="#C6262B"/>
</svg>
