<svg width="600" height="405" viewBox="0 0 600 405" fill="none" xmlns="http://www.w3.org/2000/svg">
<rect y="17" width="600" height="371" fill="white"/>
<rect y="17" width="600" height="42" fill="#0088FF"/>
<rect y="346" width="600" height="42" fill="#FF802E"/>
<rect y="59" width="400" height="287" fill="#6BC9BB"/>
<rect x="400" y="59" width="200" height="287" fill="#00B3A1"/>
<line x1="170.5" y1="2.18557e-08" x2="170.5" y2="405" stroke="#E13F44"/>
<rect x="174" width="93" height="20" rx="6" fill="#FFEDED"/>
<path d="M177.78 6.12H179.556V9.936H179.628C179.78 9.552 180.004 9.244 180.3 9.012C180.604 8.78 180.988 8.664 181.452 8.664C182.06 8.664 182.548 8.868 182.916 9.276C183.284 9.684 183.468 10.256 183.468 10.992V15H181.692V11.232C181.692 10.84 181.604 10.544 181.428 10.344C181.252 10.136 180.992 10.032 180.648 10.032C180.352 10.032 180.096 10.112 179.88 10.272C179.664 10.432 179.556 10.652 179.556 10.932V15H177.78V6.12ZM187.963 15.144C186.939 15.144 186.155 14.86 185.611 14.292C185.067 13.724 184.795 12.936 184.795 11.928C184.795 10.912 185.063 10.116 185.599 9.54C186.143 8.956 186.879 8.664 187.807 8.664C188.727 8.664 189.455 8.948 189.991 9.516C190.527 10.076 190.795 10.84 190.795 11.808V12.336H186.559V12.444C186.559 12.852 186.687 13.176 186.943 13.416C187.199 13.656 187.559 13.776 188.023 13.776C188.679 13.776 189.223 13.52 189.655 13.008L190.615 14.052C190.351 14.38 189.999 14.644 189.559 14.844C189.119 15.044 188.587 15.144 187.963 15.144ZM187.819 9.936C187.435 9.936 187.127 10.056 186.895 10.296C186.671 10.528 186.559 10.844 186.559 11.244V11.34H189.055V11.244C189.055 10.844 188.943 10.528 188.719 10.296C188.503 10.056 188.203 9.936 187.819 9.936ZM197.235 15C196.867 15 196.567 14.904 196.335 14.712C196.111 14.52 195.983 14.252 195.951 13.908H195.891C195.787 14.308 195.567 14.616 195.231 14.832C194.895 15.04 194.487 15.144 194.007 15.144C193.399 15.144 192.915 14.98 192.555 14.652C192.195 14.324 192.015 13.872 192.015 13.296C192.015 12.024 192.943 11.388 194.799 11.388H195.795V11.076C195.795 10.7 195.707 10.42 195.531 10.236C195.355 10.052 195.067 9.96 194.667 9.96C194.315 9.96 194.019 10.028 193.779 10.164C193.547 10.3 193.339 10.492 193.155 10.74L192.183 9.876C192.399 9.508 192.735 9.216 193.191 9C193.647 8.776 194.207 8.664 194.871 8.664C195.727 8.664 196.391 8.864 196.863 9.264C197.335 9.656 197.571 10.236 197.571 11.004V13.308C197.571 13.42 197.611 13.516 197.691 13.596C197.771 13.676 197.867 13.716 197.979 13.716H198.255V15H197.235ZM194.679 13.98C195.007 13.98 195.275 13.904 195.483 13.752C195.691 13.592 195.795 13.372 195.795 13.092V12.348H194.847C194.495 12.348 194.223 12.412 194.031 12.54C193.847 12.66 193.755 12.84 193.755 13.08V13.32C193.755 13.536 193.835 13.7 193.995 13.812C194.163 13.924 194.391 13.98 194.679 13.98ZM203.302 13.872H203.218C203.05 14.272 202.818 14.584 202.522 14.808C202.234 15.032 201.854 15.144 201.382 15.144C200.67 15.144 200.102 14.876 199.678 14.34C199.262 13.796 199.054 12.984 199.054 11.904C199.054 10.824 199.262 10.016 199.678 9.48C200.102 8.936 200.67 8.664 201.382 8.664C201.854 8.664 202.234 8.776 202.522 9C202.818 9.224 203.05 9.536 203.218 9.936H203.302V6.12H205.078V15H203.302V13.872ZM202.15 13.764C202.486 13.764 202.762 13.684 202.978 13.524C203.194 13.364 203.302 13.128 203.302 12.816V10.992C203.302 10.68 203.194 10.444 202.978 10.284C202.762 10.124 202.486 10.044 202.15 10.044C201.758 10.044 201.45 10.168 201.226 10.416C201.01 10.656 200.902 10.992 200.902 11.424V12.384C200.902 12.816 201.01 13.156 201.226 13.404C201.45 13.644 201.758 13.764 202.15 13.764ZM209.549 15.144C208.525 15.144 207.741 14.86 207.197 14.292C206.653 13.724 206.381 12.936 206.381 11.928C206.381 10.912 206.649 10.116 207.185 9.54C207.729 8.956 208.465 8.664 209.393 8.664C210.313 8.664 211.041 8.948 211.577 9.516C212.113 10.076 212.381 10.84 212.381 11.808V12.336H208.145V12.444C208.145 12.852 208.273 13.176 208.529 13.416C208.785 13.656 209.145 13.776 209.609 13.776C210.265 13.776 210.809 13.52 211.241 13.008L212.201 14.052C211.937 14.38 211.585 14.644 211.145 14.844C210.705 15.044 210.173 15.144 209.549 15.144ZM209.405 9.936C209.021 9.936 208.713 10.056 208.481 10.296C208.257 10.528 208.145 10.844 208.145 11.244V11.34H210.641V11.244C210.641 10.844 210.529 10.528 210.305 10.296C210.089 10.056 209.789 9.936 209.405 9.936ZM213.865 13.62H215.293V10.188H213.865V8.808L217.069 8.808V10.56H217.153C217.449 9.392 218.109 8.808 219.133 8.808H219.721V10.44H218.401C217.977 10.44 217.649 10.568 217.417 10.824C217.185 11.072 217.069 11.392 217.069 11.784V13.62H219.109V15H213.865V13.62ZM221.852 12.192V10.488L225.692 10.488V12.192L221.852 12.192ZM230.895 15.144C230.215 15.144 229.619 15.04 229.107 14.832C228.595 14.624 228.211 14.34 227.955 13.98L228.951 13.056C229.463 13.616 230.115 13.896 230.907 13.896C231.259 13.896 231.535 13.84 231.735 13.728C231.935 13.616 232.035 13.452 232.035 13.236C232.035 13.076 231.971 12.96 231.843 12.888C231.723 12.808 231.531 12.748 231.267 12.708L230.271 12.552C229.663 12.456 229.179 12.268 228.819 11.988C228.467 11.708 228.291 11.292 228.291 10.74C228.291 10.092 228.539 9.584 229.035 9.216C229.539 8.848 230.235 8.664 231.123 8.664C232.299 8.664 233.159 8.98 233.703 9.612L232.815 10.62C232.623 10.404 232.379 10.232 232.083 10.104C231.787 9.976 231.447 9.912 231.063 9.912C230.727 9.912 230.471 9.968 230.295 10.08C230.119 10.184 230.031 10.336 230.031 10.536C230.031 10.704 230.091 10.828 230.211 10.908C230.339 10.98 230.535 11.036 230.799 11.076L231.783 11.232C232.399 11.328 232.883 11.516 233.235 11.796C233.595 12.076 233.775 12.492 233.775 13.044C233.775 13.692 233.523 14.204 233.019 14.58C232.515 14.956 231.807 15.144 230.895 15.144ZM238.523 13.212C238.523 13.324 238.563 13.42 238.643 13.5C238.723 13.58 238.819 13.62 238.931 13.62H240.935V15H238.643C238.019 15 237.547 14.84 237.227 14.52C236.907 14.192 236.747 13.756 236.747 13.212V10.188H235.067V8.808H236.747V6.624H238.523V8.808H240.935V10.188H238.523V13.212ZM247.602 15C247.234 15 246.934 14.904 246.702 14.712C246.478 14.52 246.35 14.252 246.318 13.908H246.258C246.154 14.308 245.934 14.616 245.598 14.832C245.262 15.04 244.854 15.144 244.374 15.144C243.766 15.144 243.282 14.98 242.922 14.652C242.562 14.324 242.382 13.872 242.382 13.296C242.382 12.024 243.31 11.388 245.166 11.388H246.162V11.076C246.162 10.7 246.074 10.42 245.898 10.236C245.722 10.052 245.434 9.96 245.034 9.96C244.682 9.96 244.386 10.028 244.146 10.164C243.914 10.3 243.706 10.492 243.522 10.74L242.55 9.876C242.766 9.508 243.102 9.216 243.558 9C244.014 8.776 244.574 8.664 245.238 8.664C246.094 8.664 246.758 8.864 247.23 9.264C247.702 9.656 247.938 10.236 247.938 11.004V13.308C247.938 13.42 247.978 13.516 248.058 13.596C248.138 13.676 248.234 13.716 248.346 13.716H248.622V15H247.602ZM245.046 13.98C245.374 13.98 245.642 13.904 245.85 13.752C246.058 13.592 246.162 13.372 246.162 13.092V12.348H245.214C244.862 12.348 244.59 12.412 244.398 12.54C244.214 12.66 244.122 12.84 244.122 13.08V13.32C244.122 13.536 244.202 13.7 244.362 13.812C244.53 13.924 244.758 13.98 245.046 13.98ZM249.841 13.62H251.269V10.188H249.841V8.808H253.045V10.56H253.129C253.425 9.392 254.085 8.808 255.109 8.808H255.697V10.44H254.377C253.953 10.44 253.625 10.568 253.393 10.824C253.161 11.072 253.045 11.392 253.045 11.784V13.62H255.085V15H249.841V13.62ZM260.108 13.212C260.108 13.324 260.148 13.42 260.228 13.5C260.308 13.58 260.404 13.62 260.516 13.62H262.52V15H260.228C259.604 15 259.132 14.84 258.812 14.52C258.492 14.192 258.332 13.756 258.332 13.212V10.188L256.652 10.188V8.808H258.332V6.624H260.108V8.808H262.52V10.188H260.108V13.212Z" fill="#C6262B"/>
<rect x="174" y="59" width="100" height="20" rx="6" fill="#FFEDED"/>
<path d="M180.852 74.144C179.876 74.144 179.108 73.856 178.548 73.28C177.996 72.704 177.72 71.912 177.72 70.904C177.72 69.904 177.996 69.116 178.548 68.54C179.108 67.956 179.872 67.664 180.84 67.664C182.08 67.664 182.94 68.168 183.42 69.176L182.052 69.92C181.932 69.656 181.776 69.452 181.584 69.308C181.4 69.156 181.152 69.08 180.84 69.08C180.44 69.08 180.128 69.2 179.904 69.44C179.68 69.672 179.568 69.992 179.568 70.4V71.408C179.568 71.824 179.68 72.148 179.904 72.38C180.128 72.612 180.448 72.728 180.864 72.728C181.184 72.728 181.444 72.656 181.644 72.512C181.852 72.36 182.028 72.144 182.172 71.864L183.516 72.632C183.284 73.104 182.948 73.476 182.508 73.748C182.068 74.012 181.516 74.144 180.852 74.144ZM187.795 74.144C186.827 74.144 186.067 73.856 185.515 73.28C184.963 72.696 184.687 71.904 184.687 70.904C184.687 69.904 184.963 69.116 185.515 68.54C186.067 67.956 186.827 67.664 187.795 67.664C188.763 67.664 189.523 67.956 190.075 68.54C190.627 69.116 190.903 69.904 190.903 70.904C190.903 71.904 190.627 72.696 190.075 73.28C189.523 73.856 188.763 74.144 187.795 74.144ZM187.795 72.824C188.195 72.824 188.507 72.7 188.731 72.452C188.955 72.204 189.067 71.852 189.067 71.396V70.412C189.067 69.956 188.955 69.604 188.731 69.356C188.507 69.108 188.195 68.984 187.795 68.984C187.395 68.984 187.083 69.108 186.859 69.356C186.635 69.604 186.523 69.956 186.523 70.412V71.396C186.523 71.852 186.635 72.204 186.859 72.452C187.083 72.7 187.395 72.824 187.795 72.824ZM192.171 74V67.808H193.947V68.936H194.019C194.171 68.552 194.395 68.244 194.691 68.012C194.995 67.78 195.379 67.664 195.843 67.664C196.451 67.664 196.939 67.868 197.307 68.276C197.675 68.684 197.859 69.256 197.859 69.992V74H196.083V70.232C196.083 69.84 195.995 69.544 195.819 69.344C195.643 69.136 195.383 69.032 195.039 69.032C194.743 69.032 194.487 69.112 194.271 69.272C194.055 69.432 193.947 69.652 193.947 69.932V74H192.171ZM202.546 72.212C202.546 72.324 202.586 72.42 202.666 72.5C202.746 72.58 202.842 72.62 202.954 72.62H204.958V74H202.666C202.042 74 201.57 73.84 201.25 73.52C200.93 73.192 200.77 72.756 200.77 72.212V69.188H199.09V67.808H200.77V65.624H202.546V67.808H204.958V69.188H202.546V72.212ZM209.549 74.144C208.525 74.144 207.741 73.86 207.197 73.292C206.653 72.724 206.381 71.936 206.381 70.928C206.381 69.912 206.649 69.116 207.185 68.54C207.729 67.956 208.465 67.664 209.393 67.664C210.313 67.664 211.041 67.948 211.577 68.516C212.113 69.076 212.381 69.84 212.381 70.808V71.336H208.145V71.444C208.145 71.852 208.273 72.176 208.529 72.416C208.785 72.656 209.145 72.776 209.609 72.776C210.265 72.776 210.809 72.52 211.241 72.008L212.201 73.052C211.937 73.38 211.585 73.644 211.145 73.844C210.705 74.044 210.173 74.144 209.549 74.144ZM209.405 68.936C209.021 68.936 208.713 69.056 208.481 69.296C208.257 69.528 208.145 69.844 208.145 70.244V70.34H210.641V70.244C210.641 69.844 210.529 69.528 210.305 69.296C210.089 69.056 209.789 68.936 209.405 68.936ZM213.757 74V67.808H215.533V68.936H215.605C215.757 68.552 215.981 68.244 216.277 68.012C216.581 67.78 216.965 67.664 217.429 67.664C218.037 67.664 218.525 67.868 218.893 68.276C219.261 68.684 219.445 69.256 219.445 69.992V74H217.669V70.232C217.669 69.84 217.581 69.544 217.405 69.344C217.229 69.136 216.969 69.032 216.625 69.032C216.329 69.032 216.073 69.112 215.857 69.272C215.641 69.432 215.533 69.652 215.533 69.932V74H213.757ZM224.132 72.212C224.132 72.324 224.172 72.42 224.252 72.5C224.332 72.58 224.428 72.62 224.54 72.62H226.544V74H224.252C223.628 74 223.156 73.84 222.836 73.52C222.516 73.192 222.356 72.756 222.356 72.212V69.188H220.676V67.808H222.356V65.624H224.132V67.808H226.544V69.188H224.132V72.212ZM229.047 71.192V69.488H232.887V71.192H229.047ZM238.09 74.144C237.411 74.144 236.815 74.04 236.303 73.832C235.791 73.624 235.407 73.34 235.151 72.98L236.146 72.056C236.659 72.616 237.311 72.896 238.103 72.896C238.455 72.896 238.731 72.84 238.931 72.728C239.131 72.616 239.231 72.452 239.231 72.236C239.231 72.076 239.167 71.96 239.039 71.888C238.919 71.808 238.727 71.748 238.463 71.708L237.467 71.552C236.859 71.456 236.375 71.268 236.015 70.988C235.663 70.708 235.487 70.292 235.487 69.74C235.487 69.092 235.735 68.584 236.231 68.216C236.735 67.848 237.431 67.664 238.319 67.664C239.495 67.664 240.355 67.98 240.898 68.612L240.011 69.62C239.819 69.404 239.575 69.232 239.279 69.104C238.983 68.976 238.643 68.912 238.259 68.912C237.923 68.912 237.667 68.968 237.491 69.08C237.315 69.184 237.227 69.336 237.227 69.536C237.227 69.704 237.287 69.828 237.407 69.908C237.535 69.98 237.731 70.036 237.995 70.076L238.979 70.232C239.595 70.328 240.079 70.516 240.431 70.796C240.791 71.076 240.971 71.492 240.971 72.044C240.971 72.692 240.719 73.204 240.215 73.58C239.711 73.956 239.003 74.144 238.09 74.144ZM245.718 72.212C245.718 72.324 245.758 72.42 245.838 72.5C245.918 72.58 246.014 72.62 246.126 72.62H248.13V74H245.838C245.214 74 244.742 73.84 244.422 73.52C244.102 73.192 243.942 72.756 243.942 72.212V69.188H242.262V67.808H243.942V65.624H245.718V67.808H248.13V69.188H245.718V72.212ZM254.797 74C254.429 74 254.129 73.904 253.897 73.712C253.673 73.52 253.545 73.252 253.513 72.908H253.453C253.349 73.308 253.129 73.616 252.793 73.832C252.457 74.04 252.049 74.144 251.569 74.144C250.961 74.144 250.477 73.98 250.117 73.652C249.757 73.324 249.577 72.872 249.577 72.296C249.577 71.024 250.505 70.388 252.361 70.388H253.357V70.076C253.357 69.7 253.269 69.42 253.093 69.236C252.917 69.052 252.629 68.96 252.229 68.96C251.877 68.96 251.581 69.028 251.341 69.164C251.109 69.3 250.901 69.492 250.717 69.74L249.745 68.876C249.961 68.508 250.297 68.216 250.753 68C251.209 67.776 251.769 67.664 252.433 67.664C253.289 67.664 253.953 67.864 254.425 68.264C254.897 68.656 255.133 69.236 255.133 70.004V72.308C255.133 72.42 255.173 72.516 255.253 72.596C255.333 72.676 255.429 72.716 255.541 72.716H255.817V74H254.797ZM252.241 72.98C252.569 72.98 252.837 72.904 253.045 72.752C253.253 72.592 253.357 72.372 253.357 72.092V71.348H252.409C252.057 71.348 251.785 71.412 251.593 71.54C251.409 71.66 251.317 71.84 251.317 72.08V72.32C251.317 72.536 251.397 72.7 251.557 72.812C251.725 72.924 251.953 72.98 252.241 72.98ZM257.036 72.62H258.464V69.188H257.036V67.808H260.24V69.56H260.324C260.62 68.392 261.28 67.808 262.304 67.808H262.892V69.44H261.572C261.148 69.44 260.82 69.568 260.588 69.824C260.356 70.072 260.24 70.392 260.24 70.784V72.62H262.28V74H257.036V72.62ZM267.304 72.212C267.304 72.324 267.344 72.42 267.424 72.5C267.504 72.58 267.6 72.62 267.712 72.62H269.716V74H267.424C266.8 74 266.328 73.84 266.008 73.52C265.688 73.192 265.528 72.756 265.528 72.212V69.188H263.848V67.808H265.528V65.624H267.304V67.808H269.716V69.188H267.304V72.212Z" fill="#C6262B"/>
<rect x="174" y="326" width="86" height="20" rx="6" fill="#FFEDED"/>
<path d="M180.852 341.144C179.876 341.144 179.108 340.856 178.548 340.28C177.996 339.704 177.72 338.912 177.72 337.904C177.72 336.904 177.996 336.116 178.548 335.54C179.108 334.956 179.872 334.664 180.84 334.664C182.08 334.664 182.94 335.168 183.42 336.176L182.052 336.92C181.932 336.656 181.776 336.452 181.584 336.308C181.4 336.156 181.152 336.08 180.84 336.08C180.44 336.08 180.128 336.2 179.904 336.44C179.68 336.672 179.568 336.992 179.568 337.4V338.408C179.568 338.824 179.68 339.148 179.904 339.38C180.128 339.612 180.448 339.728 180.864 339.728C181.184 339.728 181.444 339.656 181.644 339.512C181.852 339.36 182.028 339.144 182.172 338.864L183.516 339.632C183.284 340.104 182.948 340.476 182.508 340.748C182.068 341.012 181.516 341.144 180.852 341.144ZM187.795 341.144C186.827 341.144 186.067 340.856 185.515 340.28C184.963 339.696 184.687 338.904 184.687 337.904C184.687 336.904 184.963 336.116 185.515 335.54C186.067 334.956 186.827 334.664 187.795 334.664C188.763 334.664 189.523 334.956 190.075 335.54C190.627 336.116 190.903 336.904 190.903 337.904C190.903 338.904 190.627 339.696 190.075 340.28C189.523 340.856 188.763 341.144 187.795 341.144ZM187.795 339.824C188.195 339.824 188.507 339.7 188.731 339.452C188.955 339.204 189.067 338.852 189.067 338.396V337.412C189.067 336.956 188.955 336.604 188.731 336.356C188.507 336.108 188.195 335.984 187.795 335.984C187.395 335.984 187.083 336.108 186.859 336.356C186.635 336.604 186.523 336.956 186.523 337.412V338.396C186.523 338.852 186.635 339.204 186.859 339.452C187.083 339.7 187.395 339.824 187.795 339.824ZM192.171 341V334.808H193.947V335.936H194.019C194.171 335.552 194.395 335.244 194.691 335.012C194.995 334.78 195.379 334.664 195.843 334.664C196.451 334.664 196.939 334.868 197.307 335.276C197.675 335.684 197.859 336.256 197.859 336.992V341H196.083V337.232C196.083 336.84 195.995 336.544 195.819 336.344C195.643 336.136 195.383 336.032 195.039 336.032C194.743 336.032 194.487 336.112 194.271 336.272C194.055 336.432 193.947 336.652 193.947 336.932V341H192.171ZM202.546 339.212C202.546 339.324 202.586 339.42 202.666 339.5C202.746 339.58 202.842 339.62 202.954 339.62H204.958V341H202.666C202.042 341 201.57 340.84 201.25 340.52C200.93 340.192 200.77 339.756 200.77 339.212V336.188H199.09V334.808H200.77V332.624H202.546V334.808H204.958V336.188H202.546V339.212ZM209.549 341.144C208.525 341.144 207.741 340.86 207.197 340.292C206.653 339.724 206.381 338.936 206.381 337.928C206.381 336.912 206.649 336.116 207.185 335.54C207.729 334.956 208.465 334.664 209.393 334.664C210.313 334.664 211.041 334.948 211.577 335.516C212.113 336.076 212.381 336.84 212.381 337.808V338.336H208.145V338.444C208.145 338.852 208.273 339.176 208.529 339.416C208.785 339.656 209.145 339.776 209.609 339.776C210.265 339.776 210.809 339.52 211.241 339.008L212.201 340.052C211.937 340.38 211.585 340.644 211.145 340.844C210.705 341.044 210.173 341.144 209.549 341.144ZM209.405 335.936C209.021 335.936 208.713 336.056 208.481 336.296C208.257 336.528 208.145 336.844 208.145 337.244V337.34H210.641V337.244C210.641 336.844 210.529 336.528 210.305 336.296C210.089 336.056 209.789 335.936 209.405 335.936ZM213.757 341V334.808H215.533V335.936H215.605C215.757 335.552 215.981 335.244 216.277 335.012C216.581 334.78 216.965 334.664 217.429 334.664C218.037 334.664 218.525 334.868 218.893 335.276C219.261 335.684 219.445 336.256 219.445 336.992V341H217.669V337.232C217.669 336.84 217.581 336.544 217.405 336.344C217.229 336.136 216.969 336.032 216.625 336.032C216.329 336.032 216.073 336.112 215.857 336.272C215.641 336.432 215.533 336.652 215.533 336.932V341H213.757ZM224.132 339.212C224.132 339.324 224.172 339.42 224.252 339.5C224.332 339.58 224.428 339.62 224.54 339.62H226.544V341H224.252C223.628 341 223.156 340.84 222.836 340.52C222.516 340.192 222.356 339.756 222.356 339.212V336.188H220.676V334.808H222.356V332.624H224.132V334.808H226.544V336.188H224.132V339.212ZM229.047 338.192V336.488H232.887V338.192H229.047ZM238.331 341.144C237.307 341.144 236.523 340.86 235.979 340.292C235.435 339.724 235.163 338.936 235.163 337.928C235.163 336.912 235.431 336.116 235.967 335.54C236.511 334.956 237.247 334.664 238.175 334.664C239.095 334.664 239.823 334.948 240.359 335.516C240.895 336.076 241.163 336.84 241.163 337.808V338.336H236.927V338.444C236.927 338.852 237.055 339.176 237.311 339.416C237.567 339.656 237.927 339.776 238.391 339.776C239.047 339.776 239.591 339.52 240.023 339.008L240.983 340.052C240.719 340.38 240.367 340.644 239.927 340.844C239.487 341.044 238.955 341.144 238.331 341.144ZM238.187 335.936C237.803 335.936 237.495 336.056 237.263 336.296C237.039 336.528 236.927 336.844 236.927 337.244V337.34H239.423V337.244C239.423 336.844 239.311 336.528 239.087 336.296C238.871 336.056 238.571 335.936 238.187 335.936ZM242.538 341V334.808H244.314V335.936H244.386C244.538 335.552 244.762 335.244 245.058 335.012C245.362 334.78 245.746 334.664 246.21 334.664C246.818 334.664 247.306 334.868 247.674 335.276C248.042 335.684 248.226 336.256 248.226 336.992V341H246.45V337.232C246.45 336.84 246.362 336.544 246.186 336.344C246.01 336.136 245.75 336.032 245.406 336.032C245.11 336.032 244.854 336.112 244.638 336.272C244.422 336.432 244.314 336.652 244.314 336.932V341H242.538ZM253.669 339.872H253.585C253.417 340.272 253.185 340.584 252.889 340.808C252.601 341.032 252.221 341.144 251.749 341.144C251.037 341.144 250.469 340.876 250.045 340.34C249.629 339.796 249.421 338.984 249.421 337.904C249.421 336.824 249.629 336.016 250.045 335.48C250.469 334.936 251.037 334.664 251.749 334.664C252.221 334.664 252.601 334.776 252.889 335C253.185 335.224 253.417 335.536 253.585 335.936H253.669V332.12H255.445V341H253.669V339.872ZM252.517 339.764C252.853 339.764 253.129 339.684 253.345 339.524C253.561 339.364 253.669 339.128 253.669 338.816V336.992C253.669 336.68 253.561 336.444 253.345 336.284C253.129 336.124 252.853 336.044 252.517 336.044C252.125 336.044 251.817 336.168 251.593 336.416C251.377 336.656 251.269 336.992 251.269 337.424V338.384C251.269 338.816 251.377 339.156 251.593 339.404C251.817 339.644 252.125 339.764 252.517 339.764Z" fill="#C6262B"/>
<rect x="174" y="346" width="93" height="20" rx="6" fill="#FFEDED"/>
<path d="M177.852 359.62H179.676V356.188H177.732V354.808H179.676V353.908C179.676 353.364 179.836 352.932 180.156 352.612C180.476 352.284 180.948 352.12 181.572 352.12H183.672V353.5H181.86C181.748 353.5 181.652 353.54 181.572 353.62C181.492 353.7 181.452 353.796 181.452 353.908V354.808H183.672V356.188H181.452V359.62H183.396V361H177.852V359.62ZM187.795 361.144C186.827 361.144 186.067 360.856 185.515 360.28C184.963 359.696 184.687 358.904 184.687 357.904C184.687 356.904 184.963 356.116 185.515 355.54C186.067 354.956 186.827 354.664 187.795 354.664C188.763 354.664 189.523 354.956 190.075 355.54C190.627 356.116 190.903 356.904 190.903 357.904C190.903 358.904 190.627 359.696 190.075 360.28C189.523 360.856 188.763 361.144 187.795 361.144ZM187.795 359.824C188.195 359.824 188.507 359.7 188.731 359.452C188.955 359.204 189.067 358.852 189.067 358.396V357.412C189.067 356.956 188.955 356.604 188.731 356.356C188.507 356.108 188.195 355.984 187.795 355.984C187.395 355.984 187.083 356.108 186.859 356.356C186.635 356.604 186.523 356.956 186.523 357.412V358.396C186.523 358.852 186.635 359.204 186.859 359.452C187.083 359.7 187.395 359.824 187.795 359.824ZM194.991 361.144C194.023 361.144 193.263 360.856 192.711 360.28C192.159 359.696 191.883 358.904 191.883 357.904C191.883 356.904 192.159 356.116 192.711 355.54C193.263 354.956 194.023 354.664 194.991 354.664C195.959 354.664 196.719 354.956 197.271 355.54C197.823 356.116 198.099 356.904 198.099 357.904C198.099 358.904 197.823 359.696 197.271 360.28C196.719 360.856 195.959 361.144 194.991 361.144ZM194.991 359.824C195.391 359.824 195.703 359.7 195.927 359.452C196.151 359.204 196.263 358.852 196.263 358.396V357.412C196.263 356.956 196.151 356.604 195.927 356.356C195.703 356.108 195.391 355.984 194.991 355.984C194.591 355.984 194.279 356.108 194.055 356.356C193.831 356.604 193.719 356.956 193.719 357.412V358.396C193.719 358.852 193.831 359.204 194.055 359.452C194.279 359.7 194.591 359.824 194.991 359.824ZM202.546 359.212C202.546 359.324 202.586 359.42 202.666 359.5C202.746 359.58 202.842 359.62 202.954 359.62H204.958V361H202.666C202.042 361 201.57 360.84 201.25 360.52C200.93 360.192 200.77 359.756 200.77 359.212V356.188H199.09V354.808H200.77V352.624H202.546V354.808H204.958V356.188H202.546V359.212ZM209.549 361.144C208.525 361.144 207.741 360.86 207.197 360.292C206.653 359.724 206.381 358.936 206.381 357.928C206.381 356.912 206.649 356.116 207.185 355.54C207.729 354.956 208.465 354.664 209.393 354.664C210.313 354.664 211.041 354.948 211.577 355.516C212.113 356.076 212.381 356.84 212.381 357.808V358.336H208.145V358.444C208.145 358.852 208.273 359.176 208.529 359.416C208.785 359.656 209.145 359.776 209.609 359.776C210.265 359.776 210.809 359.52 211.241 359.008L212.201 360.052C211.937 360.38 211.585 360.644 211.145 360.844C210.705 361.044 210.173 361.144 209.549 361.144ZM209.405 355.936C209.021 355.936 208.713 356.056 208.481 356.296C208.257 356.528 208.145 356.844 208.145 357.244V357.34H210.641V357.244C210.641 356.844 210.529 356.528 210.305 356.296C210.089 356.056 209.789 355.936 209.405 355.936ZM213.865 359.62H215.293V356.188H213.865V354.808H217.069V356.56H217.153C217.449 355.392 218.109 354.808 219.133 354.808H219.721V356.44H218.401C217.977 356.44 217.649 356.568 217.417 356.824C217.185 357.072 217.069 357.392 217.069 357.784V359.62H219.109V361H213.865V359.62ZM221.852 358.192V356.488H225.692V358.192H221.852ZM230.895 361.144C230.215 361.144 229.619 361.04 229.107 360.832C228.595 360.624 228.211 360.34 227.955 359.98L228.951 359.056C229.463 359.616 230.115 359.896 230.907 359.896C231.259 359.896 231.535 359.84 231.735 359.728C231.935 359.616 232.035 359.452 232.035 359.236C232.035 359.076 231.971 358.96 231.843 358.888C231.723 358.808 231.531 358.748 231.267 358.708L230.271 358.552C229.663 358.456 229.179 358.268 228.819 357.988C228.467 357.708 228.291 357.292 228.291 356.74C228.291 356.092 228.539 355.584 229.035 355.216C229.539 354.848 230.235 354.664 231.123 354.664C232.299 354.664 233.159 354.98 233.703 355.612L232.815 356.62C232.623 356.404 232.379 356.232 232.083 356.104C231.787 355.976 231.447 355.912 231.063 355.912C230.727 355.912 230.471 355.968 230.295 356.08C230.119 356.184 230.031 356.336 230.031 356.536C230.031 356.704 230.091 356.828 230.211 356.908C230.339 356.98 230.535 357.036 230.799 357.076L231.783 357.232C232.399 357.328 232.883 357.516 233.235 357.796C233.595 358.076 233.775 358.492 233.775 359.044C233.775 359.692 233.523 360.204 233.019 360.58C232.515 360.956 231.807 361.144 230.895 361.144ZM238.523 359.212C238.523 359.324 238.563 359.42 238.643 359.5C238.723 359.58 238.819 359.62 238.931 359.62H240.935V361H238.643C238.019 361 237.547 360.84 237.227 360.52C236.907 360.192 236.747 359.756 236.747 359.212V356.188H235.067V354.808H236.747V352.624H238.523V354.808H240.935V356.188H238.523V359.212ZM247.602 361C247.234 361 246.934 360.904 246.702 360.712C246.478 360.52 246.35 360.252 246.318 359.908H246.258C246.154 360.308 245.934 360.616 245.598 360.832C245.262 361.04 244.854 361.144 244.374 361.144C243.766 361.144 243.282 360.98 242.922 360.652C242.562 360.324 242.382 359.872 242.382 359.296C242.382 358.024 243.31 357.388 245.166 357.388H246.162V357.076C246.162 356.7 246.074 356.42 245.898 356.236C245.722 356.052 245.434 355.96 245.034 355.96C244.682 355.96 244.386 356.028 244.146 356.164C243.914 356.3 243.706 356.492 243.522 356.74L242.55 355.876C242.766 355.508 243.102 355.216 243.558 355C244.014 354.776 244.574 354.664 245.238 354.664C246.094 354.664 246.758 354.864 247.23 355.264C247.702 355.656 247.938 356.236 247.938 357.004V359.308C247.938 359.42 247.978 359.516 248.058 359.596C248.138 359.676 248.234 359.716 248.346 359.716H248.622V361H247.602ZM245.046 359.98C245.374 359.98 245.642 359.904 245.85 359.752C246.058 359.592 246.162 359.372 246.162 359.092V358.348H245.214C244.862 358.348 244.59 358.412 244.398 358.54C244.214 358.66 244.122 358.84 244.122 359.08V359.32C244.122 359.536 244.202 359.7 244.362 359.812C244.53 359.924 244.758 359.98 245.046 359.98ZM249.841 359.62H251.269V356.188H249.841V354.808H253.045V356.56H253.129C253.425 355.392 254.085 354.808 255.109 354.808H255.697V356.44H254.377C253.953 356.44 253.625 356.568 253.393 356.824C253.161 357.072 253.045 357.392 253.045 357.784V359.62H255.085V361H249.841V359.62ZM260.108 359.212C260.108 359.324 260.148 359.42 260.228 359.5C260.308 359.58 260.404 359.62 260.516 359.62H262.52V361H260.228C259.604 361 259.132 360.84 258.812 360.52C258.492 360.192 258.332 359.756 258.332 359.212V356.188H256.652V354.808H258.332V352.624H260.108V354.808H262.52V356.188H260.108V359.212Z" fill="#C6262B"/>
<rect x="174" y="385" width="78" height="20" rx="6" fill="#FFEDED"/>
<path d="M177.852 398.62H179.676V395.188H177.732V393.808H179.676V392.908C179.676 392.364 179.836 391.932 180.156 391.612C180.476 391.284 180.948 391.12 181.572 391.12H183.672V392.5H181.86C181.748 392.5 181.652 392.54 181.572 392.62C181.492 392.7 181.452 392.796 181.452 392.908V393.808H183.672V395.188H181.452V398.62H183.396V400H177.852V398.62ZM187.795 400.144C186.827 400.144 186.067 399.856 185.515 399.28C184.963 398.696 184.687 397.904 184.687 396.904C184.687 395.904 184.963 395.116 185.515 394.54C186.067 393.956 186.827 393.664 187.795 393.664C188.763 393.664 189.523 393.956 190.075 394.54C190.627 395.116 190.903 395.904 190.903 396.904C190.903 397.904 190.627 398.696 190.075 399.28C189.523 399.856 188.763 400.144 187.795 400.144ZM187.795 398.824C188.195 398.824 188.507 398.7 188.731 398.452C188.955 398.204 189.067 397.852 189.067 397.396V396.412C189.067 395.956 188.955 395.604 188.731 395.356C188.507 395.108 188.195 394.984 187.795 394.984C187.395 394.984 187.083 395.108 186.859 395.356C186.635 395.604 186.523 395.956 186.523 396.412V397.396C186.523 397.852 186.635 398.204 186.859 398.452C187.083 398.7 187.395 398.824 187.795 398.824ZM194.991 400.144C194.023 400.144 193.263 399.856 192.711 399.28C192.159 398.696 191.883 397.904 191.883 396.904C191.883 395.904 192.159 395.116 192.711 394.54C193.263 393.956 194.023 393.664 194.991 393.664C195.959 393.664 196.719 393.956 197.271 394.54C197.823 395.116 198.099 395.904 198.099 396.904C198.099 397.904 197.823 398.696 197.271 399.28C196.719 399.856 195.959 400.144 194.991 400.144ZM194.991 398.824C195.391 398.824 195.703 398.7 195.927 398.452C196.151 398.204 196.263 397.852 196.263 397.396V396.412C196.263 395.956 196.151 395.604 195.927 395.356C195.703 395.108 195.391 394.984 194.991 394.984C194.591 394.984 194.279 395.108 194.055 395.356C193.831 395.604 193.719 395.956 193.719 396.412V397.396C193.719 397.852 193.831 398.204 194.055 398.452C194.279 398.7 194.591 398.824 194.991 398.824ZM202.546 398.212C202.546 398.324 202.586 398.42 202.666 398.5C202.746 398.58 202.842 398.62 202.954 398.62H204.958V400H202.666C202.042 400 201.57 399.84 201.25 399.52C200.93 399.192 200.77 398.756 200.77 398.212V395.188H199.09V393.808H200.77V391.624H202.546V393.808H204.958V395.188H202.546V398.212ZM209.549 400.144C208.525 400.144 207.741 399.86 207.197 399.292C206.653 398.724 206.381 397.936 206.381 396.928C206.381 395.912 206.649 395.116 207.185 394.54C207.729 393.956 208.465 393.664 209.393 393.664C210.313 393.664 211.041 393.948 211.577 394.516C212.113 395.076 212.381 395.84 212.381 396.808V397.336H208.145V397.444C208.145 397.852 208.273 398.176 208.529 398.416C208.785 398.656 209.145 398.776 209.609 398.776C210.265 398.776 210.809 398.52 211.241 398.008L212.201 399.052C211.937 399.38 211.585 399.644 211.145 399.844C210.705 400.044 210.173 400.144 209.549 400.144ZM209.405 394.936C209.021 394.936 208.713 395.056 208.481 395.296C208.257 395.528 208.145 395.844 208.145 396.244V396.34H210.641V396.244C210.641 395.844 210.529 395.528 210.305 395.296C210.089 395.056 209.789 394.936 209.405 394.936ZM213.865 398.62H215.293V395.188H213.865V393.808H217.069V395.56H217.153C217.449 394.392 218.109 393.808 219.133 393.808H219.721V395.44H218.401C217.977 395.44 217.649 395.568 217.417 395.824C217.185 396.072 217.069 396.392 217.069 396.784V398.62H219.109V400H213.865V398.62ZM221.852 397.192V395.488H225.692V397.192H221.852ZM231.135 400.144C230.111 400.144 229.327 399.86 228.783 399.292C228.239 398.724 227.967 397.936 227.967 396.928C227.967 395.912 228.235 395.116 228.771 394.54C229.315 393.956 230.051 393.664 230.979 393.664C231.899 393.664 232.627 393.948 233.163 394.516C233.699 395.076 233.967 395.84 233.967 396.808V397.336H229.731V397.444C229.731 397.852 229.859 398.176 230.115 398.416C230.371 398.656 230.731 398.776 231.195 398.776C231.851 398.776 232.395 398.52 232.827 398.008L233.787 399.052C233.523 399.38 233.171 399.644 232.731 399.844C232.291 400.044 231.759 400.144 231.135 400.144ZM230.991 394.936C230.607 394.936 230.299 395.056 230.067 395.296C229.843 395.528 229.731 395.844 229.731 396.244V396.34H232.227V396.244C232.227 395.844 232.115 395.528 231.891 395.296C231.675 395.056 231.375 394.936 230.991 394.936ZM235.343 400V393.808H237.119V394.936H237.191C237.343 394.552 237.567 394.244 237.863 394.012C238.167 393.78 238.551 393.664 239.015 393.664C239.623 393.664 240.111 393.868 240.479 394.276C240.847 394.684 241.031 395.256 241.031 395.992V400H239.255V396.232C239.255 395.84 239.167 395.544 238.991 395.344C238.815 395.136 238.555 395.032 238.211 395.032C237.915 395.032 237.659 395.112 237.443 395.272C237.227 395.432 237.119 395.652 237.119 395.932V400H235.343ZM246.474 398.872H246.39C246.222 399.272 245.99 399.584 245.694 399.808C245.406 400.032 245.026 400.144 244.554 400.144C243.842 400.144 243.274 399.876 242.85 399.34C242.434 398.796 242.226 397.984 242.226 396.904C242.226 395.824 242.434 395.016 242.85 394.48C243.274 393.936 243.842 393.664 244.554 393.664C245.026 393.664 245.406 393.776 245.694 394C245.99 394.224 246.222 394.536 246.39 394.936H246.474V391.12H248.25V400H246.474V398.872ZM245.322 398.764C245.658 398.764 245.934 398.684 246.15 398.524C246.366 398.364 246.474 398.128 246.474 397.816V395.992C246.474 395.68 246.366 395.444 246.15 395.284C245.934 395.124 245.658 395.044 245.322 395.044C244.93 395.044 244.622 395.168 244.398 395.416C244.182 395.656 244.074 395.992 244.074 396.424V397.384C244.074 397.816 244.182 398.156 244.398 398.404C244.622 398.644 244.93 398.764 245.322 398.764Z" fill="#C6262B"/>
<rect x="174" y="39" width="78" height="20" rx="6" fill="#FFEDED"/>
<path d="M177.78 45.12H179.556V48.936H179.628C179.78 48.552 180.004 48.244 180.3 48.012C180.604 47.78 180.988 47.664 181.452 47.664C182.06 47.664 182.548 47.868 182.916 48.276C183.284 48.684 183.468 49.256 183.468 49.992V54H181.692V50.232C181.692 49.84 181.604 49.544 181.428 49.344C181.252 49.136 180.992 49.032 180.648 49.032C180.352 49.032 180.096 49.112 179.88 49.272C179.664 49.432 179.556 49.652 179.556 49.932V54H177.78V45.12ZM187.963 54.144C186.939 54.144 186.155 53.86 185.611 53.292C185.067 52.724 184.795 51.936 184.795 50.928C184.795 49.912 185.063 49.116 185.599 48.54C186.143 47.956 186.879 47.664 187.807 47.664C188.727 47.664 189.455 47.948 189.991 48.516C190.527 49.076 190.795 49.84 190.795 50.808V51.336H186.559V51.444C186.559 51.852 186.687 52.176 186.943 52.416C187.199 52.656 187.559 52.776 188.023 52.776C188.679 52.776 189.223 52.52 189.655 52.008L190.615 53.052C190.351 53.38 189.999 53.644 189.559 53.844C189.119 54.044 188.587 54.144 187.963 54.144ZM187.819 48.936C187.435 48.936 187.127 49.056 186.895 49.296C186.671 49.528 186.559 49.844 186.559 50.244V50.34H189.055V50.244C189.055 49.844 188.943 49.528 188.719 49.296C188.503 49.056 188.203 48.936 187.819 48.936ZM197.235 54C196.867 54 196.567 53.904 196.335 53.712C196.111 53.52 195.983 53.252 195.951 52.908H195.891C195.787 53.308 195.567 53.616 195.231 53.832C194.895 54.04 194.487 54.144 194.007 54.144C193.399 54.144 192.915 53.98 192.555 53.652C192.195 53.324 192.015 52.872 192.015 52.296C192.015 51.024 192.943 50.388 194.799 50.388H195.795V50.076C195.795 49.7 195.707 49.42 195.531 49.236C195.355 49.052 195.067 48.96 194.667 48.96C194.315 48.96 194.019 49.028 193.779 49.164C193.547 49.3 193.339 49.492 193.155 49.74L192.183 48.876C192.399 48.508 192.735 48.216 193.191 48C193.647 47.776 194.207 47.664 194.871 47.664C195.727 47.664 196.391 47.864 196.863 48.264C197.335 48.656 197.571 49.236 197.571 50.004V52.308C197.571 52.42 197.611 52.516 197.691 52.596C197.771 52.676 197.867 52.716 197.979 52.716H198.255V54H197.235ZM194.679 52.98C195.007 52.98 195.275 52.904 195.483 52.752C195.691 52.592 195.795 52.372 195.795 52.092V51.348H194.847C194.495 51.348 194.223 51.412 194.031 51.54C193.847 51.66 193.755 51.84 193.755 52.08V52.32C193.755 52.536 193.835 52.7 193.995 52.812C194.163 52.924 194.391 52.98 194.679 52.98ZM203.302 52.872H203.218C203.05 53.272 202.818 53.584 202.522 53.808C202.234 54.032 201.854 54.144 201.382 54.144C200.67 54.144 200.102 53.876 199.678 53.34C199.262 52.796 199.054 51.984 199.054 50.904C199.054 49.824 199.262 49.016 199.678 48.48C200.102 47.936 200.67 47.664 201.382 47.664C201.854 47.664 202.234 47.776 202.522 48C202.818 48.224 203.05 48.536 203.218 48.936H203.302V45.12H205.078V54H203.302V52.872ZM202.15 52.764C202.486 52.764 202.762 52.684 202.978 52.524C203.194 52.364 203.302 52.128 203.302 51.816V49.992C203.302 49.68 203.194 49.444 202.978 49.284C202.762 49.124 202.486 49.044 202.15 49.044C201.758 49.044 201.45 49.168 201.226 49.416C201.01 49.656 200.902 49.992 200.902 50.424V51.384C200.902 51.816 201.01 52.156 201.226 52.404C201.45 52.644 201.758 52.764 202.15 52.764ZM209.549 54.144C208.525 54.144 207.741 53.86 207.197 53.292C206.653 52.724 206.381 51.936 206.381 50.928C206.381 49.912 206.649 49.116 207.185 48.54C207.729 47.956 208.465 47.664 209.393 47.664C210.313 47.664 211.041 47.948 211.577 48.516C212.113 49.076 212.381 49.84 212.381 50.808V51.336H208.145V51.444C208.145 51.852 208.273 52.176 208.529 52.416C208.785 52.656 209.145 52.776 209.609 52.776C210.265 52.776 210.809 52.52 211.241 52.008L212.201 53.052C211.937 53.38 211.585 53.644 211.145 53.844C210.705 54.044 210.173 54.144 209.549 54.144ZM209.405 48.936C209.021 48.936 208.713 49.056 208.481 49.296C208.257 49.528 208.145 49.844 208.145 50.244V50.34H210.641V50.244C210.641 49.844 210.529 49.528 210.305 49.296C210.089 49.056 209.789 48.936 209.405 48.936ZM213.865 52.62H215.293V49.188H213.865V47.808H217.069V49.56H217.153C217.449 48.392 218.109 47.808 219.133 47.808H219.721V49.44H218.401C217.977 49.44 217.649 49.568 217.417 49.824C217.185 50.072 217.069 50.392 217.069 50.784V52.62H219.109V54H213.865V52.62ZM221.852 51.192V49.488H225.692V51.192H221.852ZM231.135 54.144C230.111 54.144 229.327 53.86 228.783 53.292C228.239 52.724 227.967 51.936 227.967 50.928C227.967 49.912 228.235 49.116 228.771 48.54C229.315 47.956 230.051 47.664 230.979 47.664C231.899 47.664 232.627 47.948 233.163 48.516C233.699 49.076 233.967 49.84 233.967 50.808V51.336H229.731V51.444C229.731 51.852 229.859 52.176 230.115 52.416C230.371 52.656 230.731 52.776 231.195 52.776C231.851 52.776 232.395 52.52 232.827 52.008L233.787 53.052C233.523 53.38 233.171 53.644 232.731 53.844C232.291 54.044 231.759 54.144 231.135 54.144ZM230.991 48.936C230.607 48.936 230.299 49.056 230.067 49.296C229.843 49.528 229.731 49.844 229.731 50.244V50.34H232.227V50.244C232.227 49.844 232.115 49.528 231.891 49.296C231.675 49.056 231.375 48.936 230.991 48.936ZM235.343 54V47.808H237.119V48.936H237.191C237.343 48.552 237.567 48.244 237.863 48.012C238.167 47.78 238.551 47.664 239.015 47.664C239.623 47.664 240.111 47.868 240.479 48.276C240.847 48.684 241.031 49.256 241.031 49.992V54H239.255V50.232C239.255 49.84 239.167 49.544 238.991 49.344C238.815 49.136 238.555 49.032 238.211 49.032C237.915 49.032 237.659 49.112 237.443 49.272C237.227 49.432 237.119 49.652 237.119 49.932V54H235.343ZM246.474 52.872H246.39C246.222 53.272 245.99 53.584 245.694 53.808C245.406 54.032 245.026 54.144 244.554 54.144C243.842 54.144 243.274 53.876 242.85 53.34C242.434 52.796 242.226 51.984 242.226 50.904C242.226 49.824 242.434 49.016 242.85 48.48C243.274 47.936 243.842 47.664 244.554 47.664C245.026 47.664 245.406 47.776 245.694 48C245.99 48.224 246.222 48.536 246.39 48.936H246.474V45.12H248.25V54H246.474V52.872ZM245.322 52.764C245.658 52.764 245.934 52.684 246.15 52.524C246.366 52.364 246.474 52.128 246.474 51.816V49.992C246.474 49.68 246.366 49.444 246.15 49.284C245.934 49.124 245.658 49.044 245.322 49.044C244.93 49.044 244.622 49.168 244.398 49.416C244.182 49.656 244.074 49.992 244.074 50.424V51.384C244.074 51.816 244.182 52.156 244.398 52.404C244.622 52.644 244.93 52.764 245.322 52.764Z" fill="#C6262B"/>
<path d="M16.056 45.192C14.584 45.192 13.48 44.696 12.744 43.704C12.0187 42.712 11.656 41.2827 11.656 39.416C11.656 37.5493 12.0187 36.12 12.744 35.128C13.48 34.136 14.584 33.64 16.056 33.64C18.2 33.64 19.5173 34.712 20.008 36.856L17.768 37.4C17.6293 36.8027 17.432 36.3493 17.176 36.04C16.92 35.7307 16.5307 35.576 16.008 35.576C15.3787 35.576 14.92 35.8213 14.632 36.312C14.3547 36.8027 14.216 37.512 14.216 38.44V40.392C14.216 41.32 14.3547 42.0293 14.632 42.52C14.92 43.0107 15.3787 43.256 16.008 43.256C16.5307 43.256 16.92 43.1013 17.176 42.792C17.432 42.4827 17.6293 42.0293 17.768 41.432L20.008 41.976C19.5173 44.12 18.2 45.192 16.056 45.192ZM28.3858 45C27.8951 45 27.4951 44.872 27.1858 44.616C26.8871 44.36 26.7164 44.0027 26.6738 43.544H26.5938C26.4551 44.0773 26.1618 44.488 25.7138 44.776C25.2658 45.0533 24.7218 45.192 24.0818 45.192C23.2711 45.192 22.6258 44.9733 22.1458 44.536C21.6658 44.0987 21.4258 43.496 21.4258 42.728C21.4258 41.032 22.6631 40.184 25.1378 40.184H26.4658V39.768C26.4658 39.2667 26.3484 38.8933 26.1138 38.648C25.8791 38.4027 25.4951 38.28 24.9618 38.28C24.4924 38.28 24.0978 38.3707 23.7778 38.552C23.4684 38.7333 23.1911 38.9893 22.9457 39.32L21.6497 38.168C21.9378 37.6773 22.3858 37.288 22.9938 37C23.6018 36.7013 24.3484 36.552 25.2338 36.552C26.3751 36.552 27.2604 36.8187 27.8898 37.352C28.5191 37.8747 28.8338 38.648 28.8338 39.672V42.744C28.8338 42.8933 28.8871 43.0213 28.9938 43.128C29.1004 43.2347 29.2284 43.288 29.3778 43.288H29.7458V45H28.3858ZM24.9778 43.64C25.4151 43.64 25.7724 43.5387 26.0498 43.336C26.3271 43.1227 26.4658 42.8293 26.4658 42.456V41.464H25.2018C24.7324 41.464 24.3698 41.5493 24.1138 41.72C23.8684 41.88 23.7458 42.12 23.7458 42.44V42.76C23.7458 43.048 23.8524 43.2667 24.0658 43.416C24.2898 43.5653 24.5938 43.64 24.9778 43.64ZM31.1315 33.16H33.4995V38.248H33.6115C33.8355 37.7147 34.1395 37.2987 34.5235 37C34.9182 36.7013 35.4302 36.552 36.0595 36.552C37.0088 36.552 37.7608 36.9147 38.3155 37.64C38.8808 38.3547 39.1635 39.432 39.1635 40.872C39.1635 42.312 38.8808 43.3947 38.3155 44.12C37.7608 44.8347 37.0088 45.192 36.0595 45.192C35.4302 45.192 34.9182 45.0427 34.5235 44.744C34.1395 44.4453 33.8355 44.0293 33.6115 43.496H33.4995V45H31.1315V33.16ZM35.0355 43.352C35.5582 43.352 35.9635 43.192 36.2515 42.872C36.5502 42.5413 36.6995 42.088 36.6995 41.512V40.232C36.6995 39.656 36.5502 39.208 36.2515 38.888C35.9635 38.5573 35.5582 38.392 35.0355 38.392C34.5875 38.392 34.2195 38.4987 33.9315 38.712C33.6435 38.9253 33.4995 39.24 33.4995 39.656V42.088C33.4995 42.504 33.6435 42.8187 33.9315 43.032C34.2195 43.2453 34.5875 43.352 35.0355 43.352ZM44.8053 45.192C43.4399 45.192 42.3946 44.8133 41.6693 44.056C40.9439 43.2987 40.5813 42.248 40.5813 40.904C40.5813 39.5493 40.9386 38.488 41.6533 37.72C42.3786 36.9413 43.3599 36.552 44.5973 36.552C45.8239 36.552 46.7946 36.9307 47.5093 37.688C48.2239 38.4347 48.5813 39.4533 48.5813 40.744V41.448H42.9333V41.592C42.9333 42.136 43.1039 42.568 43.4453 42.888C43.7866 43.208 44.2666 43.368 44.8853 43.368C45.7599 43.368 46.4853 43.0267 47.0613 42.344L48.3413 43.736C47.9893 44.1733 47.5199 44.5253 46.9333 44.792C46.3466 45.0587 45.6373 45.192 44.8053 45.192ZM44.6133 38.248C44.1013 38.248 43.6906 38.408 43.3813 38.728C43.0826 39.0373 42.9333 39.4587 42.9333 39.992V40.12H46.2613V39.992C46.2613 39.4587 46.1119 39.0373 45.8133 38.728C45.5253 38.408 45.1253 38.248 44.6133 38.248ZM54.495 36.552C56.1483 36.552 57.295 37.224 57.935 38.568L56.111 39.56C55.951 39.208 55.743 38.936 55.487 38.744C55.2417 38.5413 54.911 38.44 54.495 38.44C53.9617 38.44 53.5457 38.6 53.247 38.92C52.9483 39.2293 52.799 39.656 52.799 40.2V41.544C52.799 42.0987 52.9483 42.5307 53.247 42.84C53.5457 43.1493 53.9723 43.304 54.527 43.304C54.9537 43.304 55.3003 43.208 55.567 43.016C55.8443 42.8133 56.079 42.5253 56.271 42.152L58.063 43.176C57.7643 43.7947 57.3323 44.28 56.767 44.632C56.2123 44.984 55.5137 45.1707 54.671 45.192L54.527 45.88L54.591 45.944C54.8897 45.8693 55.1457 45.832 55.359 45.832C55.7003 45.832 55.9777 45.9227 56.191 46.104C56.415 46.2853 56.527 46.5627 56.527 46.936C56.527 47.4373 56.3243 47.8053 55.919 48.04C55.5243 48.2747 55.023 48.392 54.415 48.392C53.9137 48.392 53.4977 48.3227 53.167 48.184C52.8363 48.0453 52.591 47.88 52.431 47.688L53.167 46.792C53.423 47.1013 53.775 47.256 54.223 47.256C54.4363 47.256 54.607 47.2187 54.735 47.144C54.863 47.08 54.927 46.984 54.927 46.856C54.927 46.504 54.527 46.2907 53.727 46.216L53.391 46.184L53.615 45.112C52.5803 44.9413 51.775 44.488 51.199 43.752C50.623 43.0053 50.335 42.0453 50.335 40.872C50.335 39.5387 50.703 38.488 51.439 37.72C52.1857 36.9413 53.2043 36.552 54.495 36.552ZM66.7608 45C66.2701 45 65.8701 44.872 65.5608 44.616C65.2621 44.36 65.0914 44.0027 65.0488 43.544H64.9688C64.8301 44.0773 64.5368 44.488 64.0888 44.776C63.6408 45.0533 63.0968 45.192 62.4568 45.192C61.6461 45.192 61.0008 44.9733 60.5208 44.536C60.0408 44.0987 59.8008 43.496 59.8008 42.728C59.8008 41.032 61.0381 40.184 63.5128 40.184H64.8408V39.768C64.8408 39.2667 64.7234 38.8933 64.4888 38.648C64.2541 38.4027 63.8701 38.28 63.3368 38.28C62.8674 38.28 62.4728 38.3707 62.1528 38.552C61.8434 38.7333 61.5661 38.9893 61.3207 39.32L60.0247 38.168C60.3128 37.6773 60.7608 37.288 61.3688 37C61.9768 36.7013 62.7234 36.552 63.6088 36.552C64.7501 36.552 65.6354 36.8187 66.2648 37.352C66.8941 37.8747 67.2088 38.648 67.2088 39.672V42.744C67.2088 42.8933 67.2621 43.0213 67.3688 43.128C67.4754 43.2347 67.6034 43.288 67.7528 43.288H68.1208V45H66.7608ZM63.3528 43.64C63.7901 43.64 64.1474 43.5387 64.4248 43.336C64.7021 43.1227 64.8408 42.8293 64.8408 42.456V41.464H63.5768C63.1074 41.464 62.7448 41.5493 62.4888 41.72C62.2434 41.88 62.1208 42.12 62.1208 42.44V42.76C62.1208 43.048 62.2274 43.2667 62.4408 43.416C62.6648 43.5653 62.9688 43.64 63.3528 43.64ZM69.6505 43.16H72.1785V35H69.6505V33.16H74.5465V43.16H77.0745V45H69.6505V43.16ZM79.1963 33.16H81.5643V38.248H81.6603C81.8629 37.736 82.1616 37.3253 82.5563 37.016C82.9616 36.7067 83.4736 36.552 84.0923 36.552C84.9029 36.552 85.5536 36.824 86.0443 37.368C86.5349 37.912 86.7803 38.6747 86.7803 39.656V45H84.4123V39.976C84.4123 39.4533 84.2949 39.0587 84.0603 38.792C83.8256 38.5147 83.4789 38.376 83.0203 38.376C82.6256 38.376 82.2843 38.4827 81.9963 38.696C81.7083 38.9093 81.5643 39.2027 81.5643 39.576V45H79.1963V33.16ZM92.55 45.192C91.2593 45.192 90.246 44.808 89.51 44.04C88.774 43.2613 88.406 42.2053 88.406 40.872C88.406 39.5387 88.774 38.488 89.51 37.72C90.246 36.9413 91.2593 36.552 92.55 36.552C93.8407 36.552 94.854 36.9413 95.59 37.72C96.326 38.488 96.694 39.5387 96.694 40.872C96.694 42.2053 96.326 43.2613 95.59 44.04C94.854 44.808 93.8407 45.192 92.55 45.192ZM92.55 43.432C93.0833 43.432 93.4993 43.2667 93.798 42.936C94.0967 42.6053 94.246 42.136 94.246 41.528V40.216C94.246 39.608 94.0967 39.1387 93.798 38.808C93.4993 38.4773 93.0833 38.312 92.55 38.312C92.0167 38.312 91.6007 38.4773 91.302 38.808C91.0033 39.1387 90.854 39.608 90.854 40.216V41.528C90.854 42.136 91.0033 42.6053 91.302 42.936C91.6007 43.2667 92.0167 43.432 92.55 43.432Z" fill="black"/>
<path d="M16.056 87.192C14.584 87.192 13.48 86.696 12.744 85.704C12.0187 84.712 11.656 83.2827 11.656 81.416C11.656 79.5493 12.0187 78.12 12.744 77.128C13.48 76.136 14.584 75.64 16.056 75.64C18.2 75.64 19.5173 76.712 20.008 78.856L17.768 79.4C17.6293 78.8027 17.432 78.3493 17.176 78.04C16.92 77.7307 16.5307 77.576 16.008 77.576C15.3787 77.576 14.92 77.8213 14.632 78.312C14.3547 78.8027 14.216 79.512 14.216 80.44V82.392C14.216 83.32 14.3547 84.0293 14.632 84.52C14.92 85.0107 15.3787 85.256 16.008 85.256C16.5307 85.256 16.92 85.1013 17.176 84.792C17.432 84.4827 17.6293 84.0293 17.768 83.432L20.008 83.976C19.5173 86.12 18.2 87.192 16.056 87.192ZM25.3938 87.192C24.1031 87.192 23.0898 86.808 22.3538 86.04C21.6178 85.2613 21.2498 84.2053 21.2498 82.872C21.2498 81.5387 21.6178 80.488 22.3538 79.72C23.0898 78.9413 24.1031 78.552 25.3938 78.552C26.6844 78.552 27.6978 78.9413 28.4338 79.72C29.1698 80.488 29.5378 81.5387 29.5378 82.872C29.5378 84.2053 29.1698 85.2613 28.4338 86.04C27.6978 86.808 26.6844 87.192 25.3938 87.192ZM25.3938 85.432C25.9271 85.432 26.3431 85.2667 26.6418 84.936C26.9404 84.6053 27.0898 84.136 27.0898 83.528V82.216C27.0898 81.608 26.9404 81.1387 26.6418 80.808C26.3431 80.4773 25.9271 80.312 25.3938 80.312C24.8604 80.312 24.4444 80.4773 24.1458 80.808C23.8471 81.1387 23.6978 81.608 23.6978 82.216V83.528C23.6978 84.136 23.8471 84.6053 24.1458 84.936C24.4444 85.2667 24.8604 85.432 25.3938 85.432ZM31.2275 87V78.744H33.5955V80.248H33.6915C33.8942 79.736 34.1928 79.3253 34.5875 79.016C34.9928 78.7067 35.5048 78.552 36.1235 78.552C36.9342 78.552 37.5848 78.824 38.0755 79.368C38.5662 79.912 38.8115 80.6747 38.8115 81.656V87H36.4435V81.976C36.4435 81.4533 36.3262 81.0587 36.0915 80.792C35.8568 80.5147 35.5102 80.376 35.0515 80.376C34.6568 80.376 34.3155 80.4827 34.0275 80.696C33.7395 80.9093 33.5955 81.2027 33.5955 81.576V87H31.2275ZM45.0613 84.616C45.0613 84.7653 45.1146 84.8933 45.2213 85C45.3279 85.1067 45.4559 85.16 45.6053 85.16H48.2773V87H45.2213C44.3893 87 43.7599 86.7867 43.3333 86.36C42.9066 85.9227 42.6933 85.3413 42.6933 84.616V80.584H40.4533V78.744H42.6933V75.832H45.0613V78.744H48.2773V80.584H45.0613V84.616ZM54.399 87.192C53.0337 87.192 51.9883 86.8133 51.263 86.056C50.5377 85.2987 50.175 84.248 50.175 82.904C50.175 81.5493 50.5323 80.488 51.247 79.72C51.9723 78.9413 52.9537 78.552 54.191 78.552C55.4177 78.552 56.3883 78.9307 57.103 79.688C57.8177 80.4347 58.175 81.4533 58.175 82.744V83.448H52.527V83.592C52.527 84.136 52.6977 84.568 53.039 84.888C53.3803 85.208 53.8603 85.368 54.479 85.368C55.3537 85.368 56.079 85.0267 56.655 84.344L57.935 85.736C57.583 86.1733 57.1137 86.5253 56.527 86.792C55.9403 87.0587 55.231 87.192 54.399 87.192ZM54.207 80.248C53.695 80.248 53.2843 80.408 52.975 80.728C52.6763 81.0373 52.527 81.4587 52.527 81.992V82.12H55.855V81.992C55.855 81.4587 55.7057 81.0373 55.407 80.728C55.119 80.408 54.719 80.248 54.207 80.248ZM65.1608 85.496H65.0648C64.8621 86.008 64.5581 86.4187 64.1528 86.728C63.7581 87.0373 63.2514 87.192 62.6328 87.192C61.8221 87.192 61.1714 86.92 60.6808 86.376C60.1901 85.832 59.9448 85.0693 59.9448 84.088V78.744H62.3128V83.768C62.3128 84.2907 62.4301 84.6907 62.6648 84.968C62.8994 85.2347 63.2461 85.368 63.7048 85.368C64.0994 85.368 64.4408 85.2613 64.7288 85.048C65.0168 84.8347 65.1608 84.5413 65.1608 84.168V78.744H67.5288V87H65.1608V85.496ZM63.9928 78.04L62.5848 77.352L64.4888 73.768L66.4568 74.744L63.9928 78.04ZM74.8505 85.496H74.7385C74.5145 86.0293 74.2052 86.4453 73.8105 86.744C73.4265 87.0427 72.9198 87.192 72.2905 87.192C71.3412 87.192 70.5838 86.8347 70.0185 86.12C69.4638 85.3947 69.1865 84.312 69.1865 82.872C69.1865 81.432 69.4638 80.3547 70.0185 79.64C70.5838 78.9147 71.3412 78.552 72.2905 78.552C72.9198 78.552 73.4265 78.7013 73.8105 79C74.2052 79.2987 74.5145 79.7147 74.7385 80.248H74.8505V75.16H77.2185V87H74.8505V85.496ZM73.3145 85.352C73.7625 85.352 74.1305 85.2453 74.4185 85.032C74.7065 84.8187 74.8505 84.504 74.8505 84.088V81.656C74.8505 81.24 74.7065 80.9253 74.4185 80.712C74.1305 80.4987 73.7625 80.392 73.3145 80.392C72.7918 80.392 72.3812 80.5573 72.0825 80.888C71.7945 81.208 71.6505 81.656 71.6505 82.232V83.512C71.6505 84.088 71.7945 84.5413 72.0825 84.872C72.3812 85.192 72.7918 85.352 73.3145 85.352ZM82.9563 87.192C81.6656 87.192 80.6523 86.808 79.9163 86.04C79.1803 85.2613 78.8123 84.2053 78.8123 82.872C78.8123 81.5387 79.1803 80.488 79.9163 79.72C80.6523 78.9413 81.6656 78.552 82.9563 78.552C84.2469 78.552 85.2603 78.9413 85.9963 79.72C86.7323 80.488 87.1003 81.5387 87.1003 82.872C87.1003 84.2053 86.7323 85.2613 85.9963 86.04C85.2603 86.808 84.2469 87.192 82.9563 87.192ZM82.9563 85.432C83.4896 85.432 83.9056 85.2667 84.2043 84.936C84.5029 84.6053 84.6523 84.136 84.6523 83.528V82.216C84.6523 81.608 84.5029 81.1387 84.2043 80.808C83.9056 80.4773 83.4896 80.312 82.9563 80.312C82.4229 80.312 82.0069 80.4773 81.7083 80.808C81.4096 81.1387 81.2603 81.608 81.2603 82.216V83.528C81.2603 84.136 81.4096 84.6053 81.7083 84.936C82.0069 85.2667 82.4229 85.432 82.9563 85.432Z" fill="black"/>
<path d="M412.232 75.832H416.152C417.229 75.832 418.061 76.0987 418.648 76.632C419.245 77.1653 419.544 77.8907 419.544 78.808C419.544 80.024 418.936 80.808 417.72 81.16V81.256C419.171 81.608 419.896 82.4987 419.896 83.928C419.896 84.8667 419.592 85.6133 418.984 86.168C418.387 86.7227 417.565 87 416.52 87H412.232V75.832ZM415.48 80.568C416.056 80.568 416.467 80.472 416.712 80.28C416.968 80.088 417.096 79.752 417.096 79.272V78.792C417.096 78.312 416.968 77.9813 416.712 77.8C416.467 77.608 416.056 77.512 415.48 77.512H414.568V80.568H415.48ZM415.784 85.32C416.371 85.32 416.792 85.224 417.048 85.032C417.315 84.8293 417.448 84.4773 417.448 83.976V83.512C417.448 83.0213 417.315 82.6747 417.048 82.472C416.792 82.2693 416.371 82.168 415.784 82.168H414.568V85.32H415.784ZM428.386 87C427.895 87 427.495 86.872 427.186 86.616C426.887 86.36 426.716 86.0027 426.674 85.544H426.594C426.455 86.0773 426.162 86.488 425.714 86.776C425.266 87.0533 424.722 87.192 424.082 87.192C423.271 87.192 422.626 86.9733 422.146 86.536C421.666 86.0987 421.426 85.496 421.426 84.728C421.426 83.032 422.663 82.184 425.138 82.184H426.466V81.768C426.466 81.2667 426.348 80.8933 426.114 80.648C425.879 80.4027 425.495 80.28 424.962 80.28C424.492 80.28 424.098 80.3707 423.778 80.552C423.468 80.7333 423.191 80.9893 422.946 81.32L421.65 80.168C421.938 79.6773 422.386 79.288 422.994 79C423.602 78.7013 424.348 78.552 425.234 78.552C426.375 78.552 427.26 78.8187 427.89 79.352C428.519 79.8747 428.834 80.648 428.834 81.672V84.744C428.834 84.8933 428.887 85.0213 428.994 85.128C429.1 85.2347 429.228 85.288 429.378 85.288H429.746V87H428.386ZM424.978 85.64C425.415 85.64 425.772 85.5387 426.05 85.336C426.327 85.1227 426.466 84.8293 426.466 84.456V83.464H425.202C424.732 83.464 424.37 83.5493 424.114 83.72C423.868 83.88 423.746 84.12 423.746 84.44V84.76C423.746 85.048 423.852 85.2667 424.066 85.416C424.29 85.5653 424.594 85.64 424.978 85.64ZM431.372 85.16H433.276V80.584H431.372V78.744H435.644V81.08H435.756C436.15 79.5227 437.03 78.744 438.396 78.744H439.18V80.92H437.42C436.854 80.92 436.417 81.0907 436.108 81.432C435.798 81.7627 435.644 82.1893 435.644 82.712V85.16H438.364V87H431.372V85.16ZM440.965 85.16H442.869V80.584H440.965V78.744H445.237V81.08H445.349C445.744 79.5227 446.624 78.744 447.989 78.744H448.773V80.92H447.013C446.448 80.92 446.011 81.0907 445.701 81.432C445.392 81.7627 445.237 82.1893 445.237 82.712V85.16H447.957V87H440.965V85.16ZM457.167 87C456.676 87 456.276 86.872 455.967 86.616C455.668 86.36 455.498 86.0027 455.455 85.544H455.375C455.236 86.0773 454.943 86.488 454.495 86.776C454.047 87.0533 453.503 87.192 452.863 87.192C452.052 87.192 451.407 86.9733 450.927 86.536C450.447 86.0987 450.207 85.496 450.207 84.728C450.207 83.032 451.444 82.184 453.919 82.184H455.247V81.768C455.247 81.2667 455.13 80.8933 454.895 80.648C454.66 80.4027 454.276 80.28 453.743 80.28C453.274 80.28 452.879 80.3707 452.559 80.552C452.25 80.7333 451.972 80.9893 451.727 81.32L450.431 80.168C450.719 79.6773 451.167 79.288 451.775 79C452.383 78.7013 453.13 78.552 454.015 78.552C455.156 78.552 456.042 78.8187 456.671 79.352C457.3 79.8747 457.615 80.648 457.615 81.672V84.744C457.615 84.8933 457.668 85.0213 457.775 85.128C457.882 85.2347 458.01 85.288 458.159 85.288H458.527V87H457.167ZM453.759 85.64C454.196 85.64 454.554 85.5387 454.831 85.336C455.108 85.1227 455.247 84.8293 455.247 84.456V83.464H453.983C453.514 83.464 453.151 83.5493 452.895 83.72C452.65 83.88 452.527 84.12 452.527 84.44V84.76C452.527 85.048 452.634 85.2667 452.847 85.416C453.071 85.5653 453.375 85.64 453.759 85.64ZM469.651 85.16H472.179V77H469.651V75.16H474.547V85.16H477.075V87H469.651V85.16ZM485.948 87C485.458 87 485.058 86.872 484.748 86.616C484.45 86.36 484.279 86.0027 484.236 85.544H484.156C484.018 86.0773 483.724 86.488 483.276 86.776C482.828 87.0533 482.284 87.192 481.644 87.192C480.834 87.192 480.188 86.9733 479.708 86.536C479.228 86.0987 478.988 85.496 478.988 84.728C478.988 83.032 480.226 82.184 482.7 82.184H484.028V81.768C484.028 81.2667 483.911 80.8933 483.676 80.648C483.442 80.4027 483.058 80.28 482.524 80.28C482.055 80.28 481.66 80.3707 481.34 80.552C481.031 80.7333 480.754 80.9893 480.508 81.32L479.212 80.168C479.5 79.6773 479.948 79.288 480.556 79C481.164 78.7013 481.911 78.552 482.796 78.552C483.938 78.552 484.823 78.8187 485.452 79.352C486.082 79.8747 486.396 80.648 486.396 81.672V84.744C486.396 84.8933 486.45 85.0213 486.556 85.128C486.663 85.2347 486.791 85.288 486.94 85.288H487.308V87H485.948ZM482.54 85.64C482.978 85.64 483.335 85.5387 483.612 85.336C483.89 85.1227 484.028 84.8293 484.028 84.456V83.464H482.764C482.295 83.464 481.932 83.5493 481.676 83.72C481.431 83.88 481.308 84.12 481.308 84.44V84.76C481.308 85.048 481.415 85.2667 481.628 85.416C481.852 85.5653 482.156 85.64 482.54 85.64ZM493.03 84.616C493.03 84.7653 493.083 84.8933 493.19 85C493.297 85.1067 493.425 85.16 493.574 85.16H496.246V87H493.19C492.358 87 491.729 86.7867 491.302 86.36C490.875 85.9227 490.662 85.3413 490.662 84.616V80.584H488.422V78.744H490.662V75.832H493.03V78.744H496.246V80.584H493.03V84.616ZM502.368 87.192C501.002 87.192 499.957 86.8133 499.232 86.056C498.506 85.2987 498.144 84.248 498.144 82.904C498.144 81.5493 498.501 80.488 499.216 79.72C499.941 78.9413 500.922 78.552 502.16 78.552C503.386 78.552 504.357 78.9307 505.072 79.688C505.786 80.4347 506.144 81.4533 506.144 82.744V83.448H500.496V83.592C500.496 84.136 500.666 84.568 501.008 84.888C501.349 85.208 501.829 85.368 502.448 85.368C503.322 85.368 504.048 85.0267 504.624 84.344L505.904 85.736C505.552 86.1733 505.082 86.5253 504.496 86.792C503.909 87.0587 503.2 87.192 502.368 87.192ZM502.176 80.248C501.664 80.248 501.253 80.408 500.944 80.728C500.645 81.0373 500.496 81.4587 500.496 81.992V82.12H503.824V81.992C503.824 81.4587 503.674 81.0373 503.376 80.728C503.088 80.408 502.688 80.248 502.176 80.248ZM508.122 85.16H510.026V80.584H508.122V78.744H512.394V81.08H512.506C512.9 79.5227 513.78 78.744 515.146 78.744H515.93V80.92H514.17C513.604 80.92 513.167 81.0907 512.858 81.432C512.548 81.7627 512.394 82.1893 512.394 82.712V85.16H515.114V87H508.122V85.16ZM524.323 87C523.833 87 523.433 86.872 523.123 86.616C522.825 86.36 522.654 86.0027 522.611 85.544H522.531C522.393 86.0773 522.099 86.488 521.651 86.776C521.203 87.0533 520.659 87.192 520.019 87.192C519.209 87.192 518.563 86.9733 518.083 86.536C517.603 86.0987 517.363 85.496 517.363 84.728C517.363 83.032 518.601 82.184 521.075 82.184H522.403V81.768C522.403 81.2667 522.286 80.8933 522.051 80.648C521.817 80.4027 521.433 80.28 520.899 80.28C520.43 80.28 520.035 80.3707 519.715 80.552C519.406 80.7333 519.129 80.9893 518.883 81.32L517.587 80.168C517.875 79.6773 518.323 79.288 518.931 79C519.539 78.7013 520.286 78.552 521.171 78.552C522.313 78.552 523.198 78.8187 523.827 79.352C524.457 79.8747 524.771 80.648 524.771 81.672V84.744C524.771 84.8933 524.825 85.0213 524.931 85.128C525.038 85.2347 525.166 85.288 525.315 85.288H525.683V87H524.323ZM520.915 85.64C521.353 85.64 521.71 85.5387 521.987 85.336C522.265 85.1227 522.403 84.8293 522.403 84.456V83.464H521.139C520.67 83.464 520.307 83.5493 520.051 83.72C519.806 83.88 519.683 84.12 519.683 84.44V84.76C519.683 85.048 519.79 85.2667 520.003 85.416C520.227 85.5653 520.531 85.64 520.915 85.64ZM527.213 85.16H529.741V77H527.213V75.16H532.109V85.16H534.637V87H527.213V85.16Z" fill="black"/>
<path d="M14.584 374H12.216V362.832H16.536C17.624 362.832 18.4667 363.152 19.064 363.792C19.6613 364.421 19.96 365.285 19.96 366.384C19.96 367.173 19.784 367.856 19.432 368.432C19.0907 368.997 18.6107 369.365 17.992 369.536L20.184 374H17.56L15.688 369.856H14.584V374ZM15.96 368C16.5147 368 16.904 367.893 17.128 367.68C17.352 367.467 17.464 367.115 17.464 366.624V366.144C17.464 365.653 17.352 365.301 17.128 365.088C16.904 364.875 16.5147 364.768 15.96 364.768H14.584V368H15.96ZM25.3938 374.192C24.1031 374.192 23.0898 373.808 22.3538 373.04C21.6178 372.261 21.2498 371.205 21.2498 369.872C21.2498 368.539 21.6178 367.488 22.3538 366.72C23.0898 365.941 24.1031 365.552 25.3938 365.552C26.6844 365.552 27.6978 365.941 28.4338 366.72C29.1698 367.488 29.5378 368.539 29.5378 369.872C29.5378 371.205 29.1698 372.261 28.4338 373.04C27.6978 373.808 26.6844 374.192 25.3938 374.192ZM25.3938 372.432C25.9271 372.432 26.3431 372.267 26.6418 371.936C26.9404 371.605 27.0898 371.136 27.0898 370.528V369.216C27.0898 368.608 26.9404 368.139 26.6418 367.808C26.3431 367.477 25.9271 367.312 25.3938 367.312C24.8604 367.312 24.4444 367.477 24.1458 367.808C23.8471 368.139 23.6978 368.608 23.6978 369.216V370.528C23.6978 371.136 23.8471 371.605 24.1458 371.936C24.4444 372.267 24.8604 372.432 25.3938 372.432ZM36.4755 372.496H36.3635C36.1395 373.029 35.8302 373.445 35.4355 373.744C35.0515 374.043 34.5448 374.192 33.9155 374.192C32.9662 374.192 32.2088 373.835 31.6435 373.12C31.0888 372.395 30.8115 371.312 30.8115 369.872C30.8115 368.432 31.0888 367.355 31.6435 366.64C32.2088 365.915 32.9662 365.552 33.9155 365.552C34.5448 365.552 35.0515 365.701 35.4355 366C35.8302 366.299 36.1395 366.715 36.3635 367.248H36.4755V362.16H38.8435V374H36.4755V372.496ZM34.9395 372.352C35.3875 372.352 35.7555 372.245 36.0435 372.032C36.3315 371.819 36.4755 371.504 36.4755 371.088V368.656C36.4755 368.24 36.3315 367.925 36.0435 367.712C35.7555 367.499 35.3875 367.392 34.9395 367.392C34.4168 367.392 34.0062 367.557 33.7075 367.888C33.4195 368.208 33.2755 368.656 33.2755 369.232V370.512C33.2755 371.088 33.4195 371.541 33.7075 371.872C34.0062 372.192 34.4168 372.352 34.9395 372.352ZM47.5733 374C47.0826 374 46.6826 373.872 46.3733 373.616C46.0746 373.36 45.9039 373.003 45.8613 372.544H45.7813C45.6426 373.077 45.3493 373.488 44.9013 373.776C44.4533 374.053 43.9093 374.192 43.2693 374.192C42.4586 374.192 41.8133 373.973 41.3333 373.536C40.8533 373.099 40.6133 372.496 40.6133 371.728C40.6133 370.032 41.8506 369.184 44.3253 369.184H45.6533V368.768C45.6533 368.267 45.5359 367.893 45.3013 367.648C45.0666 367.403 44.6826 367.28 44.1493 367.28C43.6799 367.28 43.2853 367.371 42.9653 367.552C42.6559 367.733 42.3786 367.989 42.1332 368.32L40.8372 367.168C41.1253 366.677 41.5733 366.288 42.1813 366C42.7893 365.701 43.5359 365.552 44.4213 365.552C45.5626 365.552 46.4479 365.819 47.0773 366.352C47.7066 366.875 48.0213 367.648 48.0213 368.672V371.744C48.0213 371.893 48.0746 372.021 48.1813 372.128C48.2879 372.235 48.4159 372.288 48.5653 372.288H48.9333V374H47.5733ZM44.1653 372.64C44.6026 372.64 44.9599 372.539 45.2373 372.336C45.5146 372.123 45.6533 371.829 45.6533 371.456V370.464H44.3893C43.9199 370.464 43.5573 370.549 43.3013 370.72C43.0559 370.88 42.9333 371.12 42.9333 371.44V371.76C42.9333 372.048 43.0399 372.267 43.2533 372.416C43.4773 372.565 43.7813 372.64 44.1653 372.64ZM50.319 365.744H52.687V367.248H52.799C53.023 366.715 53.327 366.299 53.711 366C54.1057 365.701 54.6177 365.552 55.247 365.552C56.1963 365.552 56.9483 365.915 57.503 366.64C58.0683 367.355 58.351 368.432 58.351 369.872C58.351 371.312 58.0683 372.395 57.503 373.12C56.9483 373.835 56.1963 374.192 55.247 374.192C54.6177 374.192 54.1057 374.043 53.711 373.744C53.327 373.445 53.023 373.029 52.799 372.496H52.687V377.2H50.319V365.744ZM54.223 372.352C54.7457 372.352 55.151 372.192 55.439 371.872C55.7377 371.541 55.887 371.088 55.887 370.512V369.232C55.887 368.656 55.7377 368.208 55.439 367.888C55.151 367.557 54.7457 367.392 54.223 367.392C53.775 367.392 53.407 367.499 53.119 367.712C52.831 367.925 52.687 368.24 52.687 368.656V371.088C52.687 371.504 52.831 371.819 53.119 372.032C53.407 372.245 53.775 372.352 54.223 372.352ZM63.9928 374.192C62.6274 374.192 61.5821 373.813 60.8568 373.056C60.1314 372.299 59.7688 371.248 59.7688 369.904C59.7688 368.549 60.1261 367.488 60.8408 366.72C61.5661 365.941 62.5474 365.552 63.7848 365.552C65.0114 365.552 65.9821 365.931 66.6968 366.688C67.4114 367.435 67.7688 368.453 67.7688 369.744V370.448H62.1208V370.592C62.1208 371.136 62.2914 371.568 62.6328 371.888C62.9741 372.208 63.4541 372.368 64.0728 372.368C64.9474 372.368 65.6728 372.027 66.2488 371.344L67.5288 372.736C67.1768 373.173 66.7074 373.525 66.1208 373.792C65.5341 374.059 64.8248 374.192 63.9928 374.192ZM63.8008 367.248C63.2888 367.248 62.8781 367.408 62.5688 367.728C62.2701 368.037 62.1208 368.459 62.1208 368.992V369.12H65.4488V368.992C65.4488 368.459 65.2994 368.037 65.0008 367.728C64.7128 367.408 64.3128 367.248 63.8008 367.248ZM64.0408 365.04L62.6328 364.352L64.5368 360.768L66.5048 361.744L64.0408 365.04Z" fill="black"/>
</svg>
