<svg width="600" height="419" viewBox="0 0 600 419" fill="none" xmlns="http://www.w3.org/2000/svg">
<rect width="600" height="371" fill="white"/>
<rect x="400.5" y="329.5" width="199" height="41" fill="#F8F8F8" stroke="#BBBBBB" stroke-dasharray="4 4"/>
<rect width="600" height="42" fill="#0088FF"/>
<rect y="329" width="400" height="42" fill="#FF802E"/>
<rect y="42" width="400" height="287" fill="#6BC9BB"/>
<rect x="400" y="42" width="200" height="287" fill="#00B3A1"/>
<path d="M15.056 27.192C13.584 27.192 12.48 26.696 11.744 25.704C11.0187 24.712 10.656 23.2827 10.656 21.416C10.656 19.5493 11.0187 18.12 11.744 17.128C12.48 16.136 13.584 15.64 15.056 15.64C17.2 15.64 18.5173 16.712 19.008 18.856L16.768 19.4C16.6293 18.8027 16.432 18.3493 16.176 18.04C15.92 17.7307 15.5307 17.576 15.008 17.576C14.3787 17.576 13.92 17.8213 13.632 18.312C13.3547 18.8027 13.216 19.512 13.216 20.44V22.392C13.216 23.32 13.3547 24.0293 13.632 24.52C13.92 25.0107 14.3787 25.256 15.008 25.256C15.5307 25.256 15.92 25.1013 16.176 24.792C16.432 24.4827 16.6293 24.0293 16.768 23.432L19.008 23.976C18.5173 26.12 17.2 27.192 15.056 27.192ZM27.3858 27C26.8951 27 26.4951 26.872 26.1858 26.616C25.8871 26.36 25.7164 26.0027 25.6738 25.544H25.5938C25.4551 26.0773 25.1618 26.488 24.7138 26.776C24.2658 27.0533 23.7218 27.192 23.0818 27.192C22.2711 27.192 21.6258 26.9733 21.1458 26.536C20.6658 26.0987 20.4258 25.496 20.4258 24.728C20.4258 23.032 21.6631 22.184 24.1378 22.184H25.4658V21.768C25.4658 21.2667 25.3484 20.8933 25.1138 20.648C24.8791 20.4027 24.4951 20.28 23.9618 20.28C23.4924 20.28 23.0978 20.3707 22.7778 20.552C22.4684 20.7333 22.1911 20.9893 21.9457 21.32L20.6497 20.168C20.9378 19.6773 21.3858 19.288 21.9938 19C22.6018 18.7013 23.3484 18.552 24.2338 18.552C25.3751 18.552 26.2604 18.8187 26.8898 19.352C27.5191 19.8747 27.8338 20.648 27.8338 21.672V24.744C27.8338 24.8933 27.8871 25.0213 27.9938 25.128C28.1004 25.2347 28.2284 25.288 28.3778 25.288H28.7458V27H27.3858ZM23.9778 25.64C24.4151 25.64 24.7724 25.5387 25.0498 25.336C25.3271 25.1227 25.4658 24.8293 25.4658 24.456V23.464H24.2018C23.7324 23.464 23.3698 23.5493 23.1138 23.72C22.8684 23.88 22.7458 24.12 22.7458 24.44V24.76C22.7458 25.048 22.8524 25.2667 23.0658 25.416C23.2898 25.5653 23.5938 25.64 23.9778 25.64ZM30.1315 15.16H32.4995V20.248H32.6115C32.8355 19.7147 33.1395 19.2987 33.5235 19C33.9182 18.7013 34.4302 18.552 35.0595 18.552C36.0088 18.552 36.7608 18.9147 37.3155 19.64C37.8808 20.3547 38.1635 21.432 38.1635 22.872C38.1635 24.312 37.8808 25.3947 37.3155 26.12C36.7608 26.8347 36.0088 27.192 35.0595 27.192C34.4302 27.192 33.9182 27.0427 33.5235 26.744C33.1395 26.4453 32.8355 26.0293 32.6115 25.496H32.4995V27H30.1315V15.16ZM34.0355 25.352C34.5582 25.352 34.9635 25.192 35.2515 24.872C35.5502 24.5413 35.6995 24.088 35.6995 23.512V22.232C35.6995 21.656 35.5502 21.208 35.2515 20.888C34.9635 20.5573 34.5582 20.392 34.0355 20.392C33.5875 20.392 33.2195 20.4987 32.9315 20.712C32.6435 20.9253 32.4995 21.24 32.4995 21.656V24.088C32.4995 24.504 32.6435 24.8187 32.9315 25.032C33.2195 25.2453 33.5875 25.352 34.0355 25.352ZM43.8053 27.192C42.4399 27.192 41.3946 26.8133 40.6693 26.056C39.9439 25.2987 39.5813 24.248 39.5813 22.904C39.5813 21.5493 39.9386 20.488 40.6533 19.72C41.3786 18.9413 42.3599 18.552 43.5973 18.552C44.8239 18.552 45.7946 18.9307 46.5093 19.688C47.2239 20.4347 47.5813 21.4533 47.5813 22.744V23.448H41.9333V23.592C41.9333 24.136 42.1039 24.568 42.4453 24.888C42.7866 25.208 43.2666 25.368 43.8853 25.368C44.7599 25.368 45.4853 25.0267 46.0613 24.344L47.3413 25.736C46.9893 26.1733 46.5199 26.5253 45.9333 26.792C45.3466 27.0587 44.6373 27.192 43.8053 27.192ZM43.6133 20.248C43.1013 20.248 42.6906 20.408 42.3813 20.728C42.0826 21.0373 41.9333 21.4587 41.9333 21.992V22.12H45.2613V21.992C45.2613 21.4587 45.1119 21.0373 44.8133 20.728C44.5253 20.408 44.1253 20.248 43.6133 20.248ZM53.495 18.552C55.1483 18.552 56.295 19.224 56.935 20.568L55.111 21.56C54.951 21.208 54.743 20.936 54.487 20.744C54.2417 20.5413 53.911 20.44 53.495 20.44C52.9617 20.44 52.5457 20.6 52.247 20.92C51.9483 21.2293 51.799 21.656 51.799 22.2V23.544C51.799 24.0987 51.9483 24.5307 52.247 24.84C52.5457 25.1493 52.9723 25.304 53.527 25.304C53.9537 25.304 54.3003 25.208 54.567 25.016C54.8443 24.8133 55.079 24.5253 55.271 24.152L57.063 25.176C56.7643 25.7947 56.3323 26.28 55.767 26.632C55.2123 26.984 54.5137 27.1707 53.671 27.192L53.527 27.88L53.591 27.944C53.8897 27.8693 54.1457 27.832 54.359 27.832C54.7003 27.832 54.9777 27.9227 55.191 28.104C55.415 28.2853 55.527 28.5627 55.527 28.936C55.527 29.4373 55.3243 29.8053 54.919 30.04C54.5243 30.2747 54.023 30.392 53.415 30.392C52.9137 30.392 52.4977 30.3227 52.167 30.184C51.8363 30.0453 51.591 29.88 51.431 29.688L52.167 28.792C52.423 29.1013 52.775 29.256 53.223 29.256C53.4363 29.256 53.607 29.2187 53.735 29.144C53.863 29.08 53.927 28.984 53.927 28.856C53.927 28.504 53.527 28.2907 52.727 28.216L52.391 28.184L52.615 27.112C51.5803 26.9413 50.775 26.488 50.199 25.752C49.623 25.0053 49.335 24.0453 49.335 22.872C49.335 21.5387 49.703 20.488 50.439 19.72C51.1857 18.9413 52.2043 18.552 53.495 18.552ZM65.7608 27C65.2701 27 64.8701 26.872 64.5608 26.616C64.2621 26.36 64.0914 26.0027 64.0488 25.544H63.9688C63.8301 26.0773 63.5368 26.488 63.0888 26.776C62.6408 27.0533 62.0968 27.192 61.4568 27.192C60.6461 27.192 60.0008 26.9733 59.5208 26.536C59.0408 26.0987 58.8008 25.496 58.8008 24.728C58.8008 23.032 60.0381 22.184 62.5128 22.184H63.8408V21.768C63.8408 21.2667 63.7234 20.8933 63.4888 20.648C63.2541 20.4027 62.8701 20.28 62.3368 20.28C61.8674 20.28 61.4728 20.3707 61.1528 20.552C60.8434 20.7333 60.5661 20.9893 60.3207 21.32L59.0247 20.168C59.3128 19.6773 59.7608 19.288 60.3688 19C60.9768 18.7013 61.7234 18.552 62.6088 18.552C63.7501 18.552 64.6354 18.8187 65.2648 19.352C65.8941 19.8747 66.2088 20.648 66.2088 21.672V24.744C66.2088 24.8933 66.2621 25.0213 66.3688 25.128C66.4754 25.2347 66.6034 25.288 66.7528 25.288H67.1208V27H65.7608ZM62.3528 25.64C62.7901 25.64 63.1474 25.5387 63.4248 25.336C63.7021 25.1227 63.8408 24.8293 63.8408 24.456V23.464H62.5768C62.1074 23.464 61.7448 23.5493 61.4888 23.72C61.2434 23.88 61.1208 24.12 61.1208 24.44V24.76C61.1208 25.048 61.2274 25.2667 61.4408 25.416C61.6648 25.5653 61.9688 25.64 62.3528 25.64ZM68.6505 25.16H71.1785V17H68.6505V15.16H73.5465V25.16H76.0745V27H68.6505V25.16ZM78.1963 15.16H80.5643V20.248H80.6603C80.8629 19.736 81.1616 19.3253 81.5563 19.016C81.9616 18.7067 82.4736 18.552 83.0923 18.552C83.9029 18.552 84.5536 18.824 85.0443 19.368C85.5349 19.912 85.7803 20.6747 85.7803 21.656V27H83.4123V21.976C83.4123 21.4533 83.2949 21.0587 83.0603 20.792C82.8256 20.5147 82.4789 20.376 82.0203 20.376C81.6256 20.376 81.2843 20.4827 80.9963 20.696C80.7083 20.9093 80.5643 21.2027 80.5643 21.576V27H78.1963V15.16ZM91.55 27.192C90.2593 27.192 89.246 26.808 88.51 26.04C87.774 25.2613 87.406 24.2053 87.406 22.872C87.406 21.5387 87.774 20.488 88.51 19.72C89.246 18.9413 90.2593 18.552 91.55 18.552C92.8407 18.552 93.854 18.9413 94.59 19.72C95.326 20.488 95.694 21.5387 95.694 22.872C95.694 24.2053 95.326 25.2613 94.59 26.04C93.854 26.808 92.8407 27.192 91.55 27.192ZM91.55 25.432C92.0833 25.432 92.4993 25.2667 92.798 24.936C93.0967 24.6053 93.246 24.136 93.246 23.528V22.216C93.246 21.608 93.0967 21.1387 92.798 20.808C92.4993 20.4773 92.0833 20.312 91.55 20.312C91.0167 20.312 90.6007 20.4773 90.302 20.808C90.0033 21.1387 89.854 21.608 89.854 22.216V23.528C89.854 24.136 90.0033 24.6053 90.302 24.936C90.6007 25.2667 91.0167 25.432 91.55 25.432Z" fill="black"/>
<path d="M15.056 69.192C13.584 69.192 12.48 68.696 11.744 67.704C11.0187 66.712 10.656 65.2827 10.656 63.416C10.656 61.5493 11.0187 60.12 11.744 59.128C12.48 58.136 13.584 57.64 15.056 57.64C17.2 57.64 18.5173 58.712 19.008 60.856L16.768 61.4C16.6293 60.8027 16.432 60.3493 16.176 60.04C15.92 59.7307 15.5307 59.576 15.008 59.576C14.3787 59.576 13.92 59.8213 13.632 60.312C13.3547 60.8027 13.216 61.512 13.216 62.44V64.392C13.216 65.32 13.3547 66.0293 13.632 66.52C13.92 67.0107 14.3787 67.256 15.008 67.256C15.5307 67.256 15.92 67.1013 16.176 66.792C16.432 66.4827 16.6293 66.0293 16.768 65.432L19.008 65.976C18.5173 68.12 17.2 69.192 15.056 69.192ZM24.3938 69.192C23.1031 69.192 22.0898 68.808 21.3538 68.04C20.6178 67.2613 20.2498 66.2053 20.2498 64.872C20.2498 63.5387 20.6178 62.488 21.3538 61.72C22.0898 60.9413 23.1031 60.552 24.3938 60.552C25.6844 60.552 26.6978 60.9413 27.4338 61.72C28.1698 62.488 28.5378 63.5387 28.5378 64.872C28.5378 66.2053 28.1698 67.2613 27.4338 68.04C26.6978 68.808 25.6844 69.192 24.3938 69.192ZM24.3938 67.432C24.9271 67.432 25.3431 67.2667 25.6418 66.936C25.9404 66.6053 26.0898 66.136 26.0898 65.528V64.216C26.0898 63.608 25.9404 63.1387 25.6418 62.808C25.3431 62.4773 24.9271 62.312 24.3938 62.312C23.8604 62.312 23.4444 62.4773 23.1458 62.808C22.8471 63.1387 22.6978 63.608 22.6978 64.216V65.528C22.6978 66.136 22.8471 66.6053 23.1458 66.936C23.4444 67.2667 23.8604 67.432 24.3938 67.432ZM30.2275 69V60.744H32.5955V62.248H32.6915C32.8942 61.736 33.1928 61.3253 33.5875 61.016C33.9928 60.7067 34.5048 60.552 35.1235 60.552C35.9342 60.552 36.5848 60.824 37.0755 61.368C37.5662 61.912 37.8115 62.6747 37.8115 63.656V69H35.4435V63.976C35.4435 63.4533 35.3262 63.0587 35.0915 62.792C34.8568 62.5147 34.5102 62.376 34.0515 62.376C33.6568 62.376 33.3155 62.4827 33.0275 62.696C32.7395 62.9093 32.5955 63.2027 32.5955 63.576V69H30.2275ZM44.0613 66.616C44.0613 66.7653 44.1146 66.8933 44.2213 67C44.3279 67.1067 44.4559 67.16 44.6053 67.16H47.2773V69H44.2213C43.3893 69 42.7599 68.7867 42.3333 68.36C41.9066 67.9227 41.6933 67.3413 41.6933 66.616V62.584H39.4533V60.744H41.6933V57.832H44.0613V60.744H47.2773V62.584H44.0613V66.616ZM53.399 69.192C52.0337 69.192 50.9883 68.8133 50.263 68.056C49.5377 67.2987 49.175 66.248 49.175 64.904C49.175 63.5493 49.5323 62.488 50.247 61.72C50.9723 60.9413 51.9537 60.552 53.191 60.552C54.4177 60.552 55.3883 60.9307 56.103 61.688C56.8177 62.4347 57.175 63.4533 57.175 64.744V65.448H51.527V65.592C51.527 66.136 51.6977 66.568 52.039 66.888C52.3803 67.208 52.8603 67.368 53.479 67.368C54.3537 67.368 55.079 67.0267 55.655 66.344L56.935 67.736C56.583 68.1733 56.1137 68.5253 55.527 68.792C54.9403 69.0587 54.231 69.192 53.399 69.192ZM53.207 62.248C52.695 62.248 52.2843 62.408 51.975 62.728C51.6763 63.0373 51.527 63.4587 51.527 63.992V64.12H54.855V63.992C54.855 63.4587 54.7057 63.0373 54.407 62.728C54.119 62.408 53.719 62.248 53.207 62.248ZM64.1608 67.496H64.0648C63.8621 68.008 63.5581 68.4187 63.1528 68.728C62.7581 69.0373 62.2514 69.192 61.6328 69.192C60.8221 69.192 60.1714 68.92 59.6808 68.376C59.1901 67.832 58.9448 67.0693 58.9448 66.088V60.744H61.3128V65.768C61.3128 66.2907 61.4301 66.6907 61.6648 66.968C61.8994 67.2347 62.2461 67.368 62.7048 67.368C63.0994 67.368 63.4408 67.2613 63.7288 67.048C64.0168 66.8347 64.1608 66.5413 64.1608 66.168V60.744H66.5288V69H64.1608V67.496ZM62.9928 60.04L61.5848 59.352L63.4888 55.768L65.4568 56.744L62.9928 60.04ZM73.8505 67.496H73.7385C73.5145 68.0293 73.2052 68.4453 72.8105 68.744C72.4265 69.0427 71.9198 69.192 71.2905 69.192C70.3412 69.192 69.5838 68.8347 69.0185 68.12C68.4638 67.3947 68.1865 66.312 68.1865 64.872C68.1865 63.432 68.4638 62.3547 69.0185 61.64C69.5838 60.9147 70.3412 60.552 71.2905 60.552C71.9198 60.552 72.4265 60.7013 72.8105 61C73.2052 61.2987 73.5145 61.7147 73.7385 62.248H73.8505V57.16H76.2185V69H73.8505V67.496ZM72.3145 67.352C72.7625 67.352 73.1305 67.2453 73.4185 67.032C73.7065 66.8187 73.8505 66.504 73.8505 66.088V63.656C73.8505 63.24 73.7065 62.9253 73.4185 62.712C73.1305 62.4987 72.7625 62.392 72.3145 62.392C71.7918 62.392 71.3812 62.5573 71.0825 62.888C70.7945 63.208 70.6505 63.656 70.6505 64.232V65.512C70.6505 66.088 70.7945 66.5413 71.0825 66.872C71.3812 67.192 71.7918 67.352 72.3145 67.352ZM81.9563 69.192C80.6656 69.192 79.6523 68.808 78.9163 68.04C78.1803 67.2613 77.8123 66.2053 77.8123 64.872C77.8123 63.5387 78.1803 62.488 78.9163 61.72C79.6523 60.9413 80.6656 60.552 81.9563 60.552C83.2469 60.552 84.2603 60.9413 84.9963 61.72C85.7323 62.488 86.1003 63.5387 86.1003 64.872C86.1003 66.2053 85.7323 67.2613 84.9963 68.04C84.2603 68.808 83.2469 69.192 81.9563 69.192ZM81.9563 67.432C82.4896 67.432 82.9056 67.2667 83.2043 66.936C83.5029 66.6053 83.6523 66.136 83.6523 65.528V64.216C83.6523 63.608 83.5029 63.1387 83.2043 62.808C82.9056 62.4773 82.4896 62.312 81.9563 62.312C81.4229 62.312 81.0069 62.4773 80.7083 62.808C80.4096 63.1387 80.2603 63.608 80.2603 64.216V65.528C80.2603 66.136 80.4096 66.6053 80.7083 66.936C81.0069 67.2667 81.4229 67.432 81.9563 67.432Z" fill="black"/>
<path d="M411.232 57.832H415.152C416.229 57.832 417.061 58.0987 417.648 58.632C418.245 59.1653 418.544 59.8907 418.544 60.808C418.544 62.024 417.936 62.808 416.72 63.16V63.256C418.171 63.608 418.896 64.4987 418.896 65.928C418.896 66.8667 418.592 67.6133 417.984 68.168C417.387 68.7227 416.565 69 415.52 69H411.232V57.832ZM414.48 62.568C415.056 62.568 415.467 62.472 415.712 62.28C415.968 62.088 416.096 61.752 416.096 61.272V60.792C416.096 60.312 415.968 59.9813 415.712 59.8C415.467 59.608 415.056 59.512 414.48 59.512H413.568V62.568H414.48ZM414.784 67.32C415.371 67.32 415.792 67.224 416.048 67.032C416.315 66.8293 416.448 66.4773 416.448 65.976V65.512C416.448 65.0213 416.315 64.6747 416.048 64.472C415.792 64.2693 415.371 64.168 414.784 64.168H413.568V67.32H414.784ZM427.386 69C426.895 69 426.495 68.872 426.186 68.616C425.887 68.36 425.716 68.0027 425.674 67.544H425.594C425.455 68.0773 425.162 68.488 424.714 68.776C424.266 69.0533 423.722 69.192 423.082 69.192C422.271 69.192 421.626 68.9733 421.146 68.536C420.666 68.0987 420.426 67.496 420.426 66.728C420.426 65.032 421.663 64.184 424.138 64.184H425.466V63.768C425.466 63.2667 425.348 62.8933 425.114 62.648C424.879 62.4027 424.495 62.28 423.962 62.28C423.492 62.28 423.098 62.3707 422.778 62.552C422.468 62.7333 422.191 62.9893 421.946 63.32L420.65 62.168C420.938 61.6773 421.386 61.288 421.994 61C422.602 60.7013 423.348 60.552 424.234 60.552C425.375 60.552 426.26 60.8187 426.89 61.352C427.519 61.8747 427.834 62.648 427.834 63.672V66.744C427.834 66.8933 427.887 67.0213 427.994 67.128C428.1 67.2347 428.228 67.288 428.378 67.288H428.746V69H427.386ZM423.978 67.64C424.415 67.64 424.772 67.5387 425.05 67.336C425.327 67.1227 425.466 66.8293 425.466 66.456V65.464H424.202C423.732 65.464 423.37 65.5493 423.114 65.72C422.868 65.88 422.746 66.12 422.746 66.44V66.76C422.746 67.048 422.852 67.2667 423.066 67.416C423.29 67.5653 423.594 67.64 423.978 67.64ZM430.372 67.16H432.276V62.584H430.372V60.744H434.644V63.08H434.756C435.15 61.5227 436.03 60.744 437.396 60.744H438.18V62.92H436.42C435.854 62.92 435.417 63.0907 435.108 63.432C434.798 63.7627 434.644 64.1893 434.644 64.712V67.16H437.364V69H430.372V67.16ZM439.965 67.16H441.869V62.584H439.965V60.744H444.237V63.08H444.349C444.744 61.5227 445.624 60.744 446.989 60.744H447.773V62.92H446.013C445.448 62.92 445.011 63.0907 444.701 63.432C444.392 63.7627 444.237 64.1893 444.237 64.712V67.16H446.957V69H439.965V67.16ZM456.167 69C455.676 69 455.276 68.872 454.967 68.616C454.668 68.36 454.498 68.0027 454.455 67.544H454.375C454.236 68.0773 453.943 68.488 453.495 68.776C453.047 69.0533 452.503 69.192 451.863 69.192C451.052 69.192 450.407 68.9733 449.927 68.536C449.447 68.0987 449.207 67.496 449.207 66.728C449.207 65.032 450.444 64.184 452.919 64.184H454.247V63.768C454.247 63.2667 454.13 62.8933 453.895 62.648C453.66 62.4027 453.276 62.28 452.743 62.28C452.274 62.28 451.879 62.3707 451.559 62.552C451.25 62.7333 450.972 62.9893 450.727 63.32L449.431 62.168C449.719 61.6773 450.167 61.288 450.775 61C451.383 60.7013 452.13 60.552 453.015 60.552C454.156 60.552 455.042 60.8187 455.671 61.352C456.3 61.8747 456.615 62.648 456.615 63.672V66.744C456.615 66.8933 456.668 67.0213 456.775 67.128C456.882 67.2347 457.01 67.288 457.159 67.288H457.527V69H456.167ZM452.759 67.64C453.196 67.64 453.554 67.5387 453.831 67.336C454.108 67.1227 454.247 66.8293 454.247 66.456V65.464H452.983C452.514 65.464 452.151 65.5493 451.895 65.72C451.65 65.88 451.527 66.12 451.527 66.44V66.76C451.527 67.048 451.634 67.2667 451.847 67.416C452.071 67.5653 452.375 67.64 452.759 67.64ZM468.651 67.16H471.179V59H468.651V57.16H473.547V67.16H476.075V69H468.651V67.16ZM484.948 69C484.458 69 484.058 68.872 483.748 68.616C483.45 68.36 483.279 68.0027 483.236 67.544H483.156C483.018 68.0773 482.724 68.488 482.276 68.776C481.828 69.0533 481.284 69.192 480.644 69.192C479.834 69.192 479.188 68.9733 478.708 68.536C478.228 68.0987 477.988 67.496 477.988 66.728C477.988 65.032 479.226 64.184 481.7 64.184H483.028V63.768C483.028 63.2667 482.911 62.8933 482.676 62.648C482.442 62.4027 482.058 62.28 481.524 62.28C481.055 62.28 480.66 62.3707 480.34 62.552C480.031 62.7333 479.754 62.9893 479.508 63.32L478.212 62.168C478.5 61.6773 478.948 61.288 479.556 61C480.164 60.7013 480.911 60.552 481.796 60.552C482.938 60.552 483.823 60.8187 484.452 61.352C485.082 61.8747 485.396 62.648 485.396 63.672V66.744C485.396 66.8933 485.45 67.0213 485.556 67.128C485.663 67.2347 485.791 67.288 485.94 67.288H486.308V69H484.948ZM481.54 67.64C481.978 67.64 482.335 67.5387 482.612 67.336C482.89 67.1227 483.028 66.8293 483.028 66.456V65.464H481.764C481.295 65.464 480.932 65.5493 480.676 65.72C480.431 65.88 480.308 66.12 480.308 66.44V66.76C480.308 67.048 480.415 67.2667 480.628 67.416C480.852 67.5653 481.156 67.64 481.54 67.64ZM492.03 66.616C492.03 66.7653 492.083 66.8933 492.19 67C492.297 67.1067 492.425 67.16 492.574 67.16H495.246V69H492.19C491.358 69 490.729 68.7867 490.302 68.36C489.875 67.9227 489.662 67.3413 489.662 66.616V62.584H487.422V60.744H489.662V57.832H492.03V60.744H495.246V62.584H492.03V66.616ZM501.368 69.192C500.002 69.192 498.957 68.8133 498.232 68.056C497.506 67.2987 497.144 66.248 497.144 64.904C497.144 63.5493 497.501 62.488 498.216 61.72C498.941 60.9413 499.922 60.552 501.16 60.552C502.386 60.552 503.357 60.9307 504.072 61.688C504.786 62.4347 505.144 63.4533 505.144 64.744V65.448H499.496V65.592C499.496 66.136 499.666 66.568 500.008 66.888C500.349 67.208 500.829 67.368 501.448 67.368C502.322 67.368 503.048 67.0267 503.624 66.344L504.904 67.736C504.552 68.1733 504.082 68.5253 503.496 68.792C502.909 69.0587 502.2 69.192 501.368 69.192ZM501.176 62.248C500.664 62.248 500.253 62.408 499.944 62.728C499.645 63.0373 499.496 63.4587 499.496 63.992V64.12H502.824V63.992C502.824 63.4587 502.674 63.0373 502.376 62.728C502.088 62.408 501.688 62.248 501.176 62.248ZM507.122 67.16H509.026V62.584H507.122V60.744H511.394V63.08H511.506C511.9 61.5227 512.78 60.744 514.146 60.744H514.93V62.92H513.17C512.604 62.92 512.167 63.0907 511.858 63.432C511.548 63.7627 511.394 64.1893 511.394 64.712V67.16H514.114V69H507.122V67.16ZM523.323 69C522.833 69 522.433 68.872 522.123 68.616C521.825 68.36 521.654 68.0027 521.611 67.544H521.531C521.393 68.0773 521.099 68.488 520.651 68.776C520.203 69.0533 519.659 69.192 519.019 69.192C518.209 69.192 517.563 68.9733 517.083 68.536C516.603 68.0987 516.363 67.496 516.363 66.728C516.363 65.032 517.601 64.184 520.075 64.184H521.403V63.768C521.403 63.2667 521.286 62.8933 521.051 62.648C520.817 62.4027 520.433 62.28 519.899 62.28C519.43 62.28 519.035 62.3707 518.715 62.552C518.406 62.7333 518.129 62.9893 517.883 63.32L516.587 62.168C516.875 61.6773 517.323 61.288 517.931 61C518.539 60.7013 519.286 60.552 520.171 60.552C521.313 60.552 522.198 60.8187 522.827 61.352C523.457 61.8747 523.771 62.648 523.771 63.672V66.744C523.771 66.8933 523.825 67.0213 523.931 67.128C524.038 67.2347 524.166 67.288 524.315 67.288H524.683V69H523.323ZM519.915 67.64C520.353 67.64 520.71 67.5387 520.987 67.336C521.265 67.1227 521.403 66.8293 521.403 66.456V65.464H520.139C519.67 65.464 519.307 65.5493 519.051 65.72C518.806 65.88 518.683 66.12 518.683 66.44V66.76C518.683 67.048 518.79 67.2667 519.003 67.416C519.227 67.5653 519.531 67.64 519.915 67.64ZM526.213 67.16H528.741V59H526.213V57.16H531.109V67.16H533.637V69H526.213V67.16Z" fill="black"/>
<path d="M13.584 356H11.216V344.832H15.536C16.624 344.832 17.4667 345.152 18.064 345.792C18.6613 346.421 18.96 347.285 18.96 348.384C18.96 349.173 18.784 349.856 18.432 350.432C18.0907 350.997 17.6107 351.365 16.992 351.536L19.184 356H16.56L14.688 351.856H13.584V356ZM14.96 350C15.5147 350 15.904 349.893 16.128 349.68C16.352 349.467 16.464 349.115 16.464 348.624V348.144C16.464 347.653 16.352 347.301 16.128 347.088C15.904 346.875 15.5147 346.768 14.96 346.768H13.584V350H14.96ZM24.3938 356.192C23.1031 356.192 22.0898 355.808 21.3538 355.04C20.6178 354.261 20.2498 353.205 20.2498 351.872C20.2498 350.539 20.6178 349.488 21.3538 348.72C22.0898 347.941 23.1031 347.552 24.3938 347.552C25.6844 347.552 26.6978 347.941 27.4338 348.72C28.1698 349.488 28.5378 350.539 28.5378 351.872C28.5378 353.205 28.1698 354.261 27.4338 355.04C26.6978 355.808 25.6844 356.192 24.3938 356.192ZM24.3938 354.432C24.9271 354.432 25.3431 354.267 25.6418 353.936C25.9404 353.605 26.0898 353.136 26.0898 352.528V351.216C26.0898 350.608 25.9404 350.139 25.6418 349.808C25.3431 349.477 24.9271 349.312 24.3938 349.312C23.8604 349.312 23.4444 349.477 23.1458 349.808C22.8471 350.139 22.6978 350.608 22.6978 351.216V352.528C22.6978 353.136 22.8471 353.605 23.1458 353.936C23.4444 354.267 23.8604 354.432 24.3938 354.432ZM35.4755 354.496H35.3635C35.1395 355.029 34.8302 355.445 34.4355 355.744C34.0515 356.043 33.5448 356.192 32.9155 356.192C31.9662 356.192 31.2088 355.835 30.6435 355.12C30.0888 354.395 29.8115 353.312 29.8115 351.872C29.8115 350.432 30.0888 349.355 30.6435 348.64C31.2088 347.915 31.9662 347.552 32.9155 347.552C33.5448 347.552 34.0515 347.701 34.4355 348C34.8302 348.299 35.1395 348.715 35.3635 349.248H35.4755V344.16H37.8435V356H35.4755V354.496ZM33.9395 354.352C34.3875 354.352 34.7555 354.245 35.0435 354.032C35.3315 353.819 35.4755 353.504 35.4755 353.088V350.656C35.4755 350.24 35.3315 349.925 35.0435 349.712C34.7555 349.499 34.3875 349.392 33.9395 349.392C33.4168 349.392 33.0062 349.557 32.7075 349.888C32.4195 350.208 32.2755 350.656 32.2755 351.232V352.512C32.2755 353.088 32.4195 353.541 32.7075 353.872C33.0062 354.192 33.4168 354.352 33.9395 354.352ZM46.5733 356C46.0826 356 45.6826 355.872 45.3733 355.616C45.0746 355.36 44.9039 355.003 44.8613 354.544H44.7813C44.6426 355.077 44.3493 355.488 43.9013 355.776C43.4533 356.053 42.9093 356.192 42.2693 356.192C41.4586 356.192 40.8133 355.973 40.3333 355.536C39.8533 355.099 39.6133 354.496 39.6133 353.728C39.6133 352.032 40.8506 351.184 43.3253 351.184H44.6533V350.768C44.6533 350.267 44.5359 349.893 44.3013 349.648C44.0666 349.403 43.6826 349.28 43.1493 349.28C42.6799 349.28 42.2853 349.371 41.9653 349.552C41.6559 349.733 41.3786 349.989 41.1332 350.32L39.8372 349.168C40.1253 348.677 40.5733 348.288 41.1813 348C41.7893 347.701 42.5359 347.552 43.4213 347.552C44.5626 347.552 45.4479 347.819 46.0773 348.352C46.7066 348.875 47.0213 349.648 47.0213 350.672V353.744C47.0213 353.893 47.0746 354.021 47.1813 354.128C47.2879 354.235 47.4159 354.288 47.5653 354.288H47.9333V356H46.5733ZM43.1653 354.64C43.6026 354.64 43.9599 354.539 44.2373 354.336C44.5146 354.123 44.6533 353.829 44.6533 353.456V352.464H43.3893C42.9199 352.464 42.5573 352.549 42.3013 352.72C42.0559 352.88 41.9333 353.12 41.9333 353.44V353.76C41.9333 354.048 42.0399 354.267 42.2533 354.416C42.4773 354.565 42.7813 354.64 43.1653 354.64ZM49.319 347.744H51.687V349.248H51.799C52.023 348.715 52.327 348.299 52.711 348C53.1057 347.701 53.6177 347.552 54.247 347.552C55.1963 347.552 55.9483 347.915 56.503 348.64C57.0683 349.355 57.351 350.432 57.351 351.872C57.351 353.312 57.0683 354.395 56.503 355.12C55.9483 355.835 55.1963 356.192 54.247 356.192C53.6177 356.192 53.1057 356.043 52.711 355.744C52.327 355.445 52.023 355.029 51.799 354.496H51.687V359.2H49.319V347.744ZM53.223 354.352C53.7457 354.352 54.151 354.192 54.439 353.872C54.7377 353.541 54.887 353.088 54.887 352.512V351.232C54.887 350.656 54.7377 350.208 54.439 349.888C54.151 349.557 53.7457 349.392 53.223 349.392C52.775 349.392 52.407 349.499 52.119 349.712C51.831 349.925 51.687 350.24 51.687 350.656V353.088C51.687 353.504 51.831 353.819 52.119 354.032C52.407 354.245 52.775 354.352 53.223 354.352ZM62.9928 356.192C61.6274 356.192 60.5821 355.813 59.8568 355.056C59.1314 354.299 58.7688 353.248 58.7688 351.904C58.7688 350.549 59.1261 349.488 59.8408 348.72C60.5661 347.941 61.5474 347.552 62.7848 347.552C64.0114 347.552 64.9821 347.931 65.6968 348.688C66.4114 349.435 66.7688 350.453 66.7688 351.744V352.448H61.1208V352.592C61.1208 353.136 61.2914 353.568 61.6328 353.888C61.9741 354.208 62.4541 354.368 63.0728 354.368C63.9474 354.368 64.6728 354.027 65.2488 353.344L66.5288 354.736C66.1768 355.173 65.7074 355.525 65.1208 355.792C64.5341 356.059 63.8248 356.192 62.9928 356.192ZM62.8008 349.248C62.2888 349.248 61.8781 349.408 61.5688 349.728C61.2701 350.037 61.1208 350.459 61.1208 350.992V351.12H64.4488V350.992C64.4488 350.459 64.2994 350.037 64.0008 349.728C63.7128 349.408 63.3128 349.248 62.8008 349.248ZM63.0408 347.04L61.6328 346.352L63.5368 342.768L65.5048 343.744L63.0408 347.04Z" fill="black"/>
<path d="M324.28 415V403.832H331.416V405.8H326.68V408.36H331.256V410.328H326.68V413.032H331.416V415H324.28ZM337.298 415.192C336.391 415.192 335.596 415.053 334.914 414.776C334.231 414.499 333.719 414.12 333.378 413.64L334.706 412.408C335.388 413.155 336.258 413.528 337.314 413.528C337.783 413.528 338.151 413.453 338.418 413.304C338.684 413.155 338.818 412.936 338.818 412.648C338.818 412.435 338.732 412.28 338.562 412.184C338.402 412.077 338.146 411.997 337.794 411.944L336.466 411.736C335.655 411.608 335.01 411.357 334.53 410.984C334.06 410.611 333.826 410.056 333.826 409.32C333.826 408.456 334.156 407.779 334.818 407.288C335.49 406.797 336.418 406.552 337.602 406.552C339.17 406.552 340.316 406.973 341.042 407.816L339.858 409.16C339.602 408.872 339.276 408.643 338.882 408.472C338.487 408.301 338.034 408.216 337.522 408.216C337.074 408.216 336.732 408.291 336.498 408.44C336.263 408.579 336.146 408.781 336.146 409.048C336.146 409.272 336.226 409.437 336.386 409.544C336.556 409.64 336.818 409.715 337.17 409.768L338.482 409.976C339.303 410.104 339.948 410.355 340.418 410.728C340.898 411.101 341.138 411.656 341.138 412.392C341.138 413.256 340.802 413.939 340.13 414.44C339.458 414.941 338.514 415.192 337.298 415.192ZM343.132 406.744H345.5V408.248H345.612C345.836 407.715 346.14 407.299 346.524 407C346.918 406.701 347.43 406.552 348.06 406.552C349.009 406.552 349.761 406.915 350.316 407.64C350.881 408.355 351.164 409.432 351.164 410.872C351.164 412.312 350.881 413.395 350.316 414.12C349.761 414.835 349.009 415.192 348.06 415.192C347.43 415.192 346.918 415.043 346.524 414.744C346.14 414.445 345.836 414.029 345.612 413.496H345.5V418.2H343.132V406.744ZM347.036 413.352C347.558 413.352 347.964 413.192 348.252 412.872C348.55 412.541 348.7 412.088 348.7 411.512V410.232C348.7 409.656 348.55 409.208 348.252 408.888C347.964 408.557 347.558 408.392 347.036 408.392C346.588 408.392 346.22 408.499 345.932 408.712C345.644 408.925 345.5 409.24 345.5 409.656V412.088C345.5 412.504 345.644 412.819 345.932 413.032C346.22 413.245 346.588 413.352 347.036 413.352ZM359.573 415C359.083 415 358.683 414.872 358.373 414.616C358.075 414.36 357.904 414.003 357.861 413.544H357.781C357.643 414.077 357.349 414.488 356.901 414.776C356.453 415.053 355.909 415.192 355.269 415.192C354.459 415.192 353.813 414.973 353.333 414.536C352.853 414.099 352.613 413.496 352.613 412.728C352.613 411.032 353.851 410.184 356.325 410.184H357.653V409.768C357.653 409.267 357.536 408.893 357.301 408.648C357.067 408.403 356.683 408.28 356.149 408.28C355.68 408.28 355.285 408.371 354.965 408.552C354.656 408.733 354.379 408.989 354.133 409.32L352.837 408.168C353.125 407.677 353.573 407.288 354.181 407C354.789 406.701 355.536 406.552 356.421 406.552C357.563 406.552 358.448 406.819 359.077 407.352C359.707 407.875 360.021 408.648 360.021 409.672V412.744C360.021 412.893 360.075 413.021 360.181 413.128C360.288 413.235 360.416 413.288 360.565 413.288H360.933V415H359.573ZM356.165 413.64C356.603 413.64 356.96 413.539 357.237 413.336C357.515 413.123 357.653 412.829 357.653 412.456V411.464H356.389C355.92 411.464 355.557 411.549 355.301 411.72C355.056 411.88 354.933 412.12 354.933 412.44V412.76C354.933 413.048 355.04 413.267 355.253 413.416C355.477 413.565 355.781 413.64 356.165 413.64ZM366.495 406.552C368.148 406.552 369.295 407.224 369.935 408.568L368.111 409.56C367.951 409.208 367.743 408.936 367.487 408.744C367.242 408.541 366.911 408.44 366.495 408.44C365.962 408.44 365.546 408.6 365.247 408.92C364.948 409.229 364.799 409.656 364.799 410.2V411.544C364.799 412.099 364.948 412.531 365.247 412.84C365.546 413.149 365.972 413.304 366.527 413.304C366.954 413.304 367.3 413.208 367.567 413.016C367.844 412.813 368.079 412.525 368.271 412.152L370.063 413.176C369.764 413.795 369.332 414.28 368.767 414.632C368.212 414.984 367.514 415.171 366.671 415.192L366.527 415.88L366.591 415.944C366.89 415.869 367.146 415.832 367.359 415.832C367.7 415.832 367.978 415.923 368.191 416.104C368.415 416.285 368.527 416.563 368.527 416.936C368.527 417.437 368.324 417.805 367.919 418.04C367.524 418.275 367.023 418.392 366.415 418.392C365.914 418.392 365.498 418.323 365.167 418.184C364.836 418.045 364.591 417.88 364.431 417.688L365.167 416.792C365.423 417.101 365.775 417.256 366.223 417.256C366.436 417.256 366.607 417.219 366.735 417.144C366.863 417.08 366.927 416.984 366.927 416.856C366.927 416.504 366.527 416.291 365.727 416.216L365.391 416.184L365.615 415.112C364.58 414.941 363.775 414.488 363.199 413.752C362.623 413.005 362.335 412.045 362.335 410.872C362.335 409.539 362.703 408.488 363.439 407.72C364.186 406.941 365.204 406.552 366.495 406.552ZM375.769 415.192C374.478 415.192 373.465 414.808 372.729 414.04C371.993 413.261 371.625 412.205 371.625 410.872C371.625 409.539 371.993 408.488 372.729 407.72C373.465 406.941 374.478 406.552 375.769 406.552C377.059 406.552 378.073 406.941 378.809 407.72C379.545 408.488 379.913 409.539 379.913 410.872C379.913 412.205 379.545 413.261 378.809 414.04C378.073 414.808 377.059 415.192 375.769 415.192ZM375.769 413.432C376.302 413.432 376.718 413.267 377.017 412.936C377.315 412.605 377.465 412.136 377.465 411.528V410.216C377.465 409.608 377.315 409.139 377.017 408.808C376.718 408.477 376.302 408.312 375.769 408.312C375.235 408.312 374.819 408.477 374.521 408.808C374.222 409.139 374.073 409.608 374.073 410.216V411.528C374.073 412.136 374.222 412.605 374.521 412.936C374.819 413.267 375.235 413.432 375.769 413.432ZM395.18 415.192C393.815 415.192 392.77 414.813 392.044 414.056C391.319 413.299 390.956 412.248 390.956 410.904C390.956 409.549 391.314 408.488 392.028 407.72C392.754 406.941 393.735 406.552 394.972 406.552C396.199 406.552 397.17 406.931 397.884 407.688C398.599 408.435 398.956 409.453 398.956 410.744V411.448H393.308V411.592C393.308 412.136 393.479 412.568 393.82 412.888C394.162 413.208 394.642 413.368 395.26 413.368C396.135 413.368 396.86 413.027 397.436 412.344L398.716 413.736C398.364 414.173 397.895 414.525 397.308 414.792C396.722 415.059 396.012 415.192 395.18 415.192ZM394.988 408.248C394.476 408.248 394.066 408.408 393.756 408.728C393.458 409.037 393.308 409.459 393.308 409.992V410.12H396.636V409.992C396.636 409.459 396.487 409.037 396.188 408.728C395.9 408.408 395.5 408.248 394.988 408.248ZM400.23 415V406.744H402.134V407.96H402.246C402.395 407.523 402.593 407.181 402.838 406.936C403.083 406.68 403.409 406.552 403.814 406.552C404.209 406.552 404.529 406.675 404.774 406.92C405.03 407.155 405.201 407.501 405.286 407.96H405.382C405.542 407.523 405.755 407.181 406.022 406.936C406.299 406.68 406.673 406.552 407.142 406.552C408.294 406.552 408.87 407.4 408.87 409.096V415H406.966V409.336C406.966 408.643 406.726 408.296 406.246 408.296C406.033 408.296 405.857 408.365 405.718 408.504C405.579 408.643 405.51 408.845 405.51 409.112V415H403.59V409.336C403.59 408.643 403.361 408.296 402.902 408.296C402.678 408.296 402.491 408.365 402.342 408.504C402.203 408.643 402.134 408.845 402.134 409.112V415H400.23ZM419.882 403.16H422.25V408.248H422.362C422.586 407.715 422.89 407.299 423.274 407C423.668 406.701 424.18 406.552 424.81 406.552C425.759 406.552 426.511 406.915 427.066 407.64C427.631 408.355 427.914 409.432 427.914 410.872C427.914 412.312 427.631 413.395 427.066 414.12C426.511 414.835 425.759 415.192 424.81 415.192C424.18 415.192 423.668 415.043 423.274 414.744C422.89 414.445 422.586 414.029 422.362 413.496H422.25V415H419.882V403.16ZM423.786 413.352C424.308 413.352 424.714 413.192 425.002 412.872C425.3 412.541 425.45 412.088 425.45 411.512V410.232C425.45 409.656 425.3 409.208 425.002 408.888C424.714 408.557 424.308 408.392 423.786 408.392C423.338 408.392 422.97 408.499 422.682 408.712C422.394 408.925 422.25 409.24 422.25 409.656V412.088C422.25 412.504 422.394 412.819 422.682 413.032C422.97 413.245 423.338 413.352 423.786 413.352ZM429.715 413.16H431.619V408.584H429.715V406.744H433.987V409.08H434.099C434.494 407.523 435.374 406.744 436.739 406.744H437.523V408.92H435.763C435.198 408.92 434.761 409.091 434.451 409.432C434.142 409.763 433.987 410.189 433.987 410.712V413.16H436.707V415H429.715V413.16ZM445.917 415C445.426 415 445.026 414.872 444.717 414.616C444.418 414.36 444.248 414.003 444.205 413.544H444.125C443.986 414.077 443.693 414.488 443.245 414.776C442.797 415.053 442.253 415.192 441.613 415.192C440.802 415.192 440.157 414.973 439.677 414.536C439.197 414.099 438.957 413.496 438.957 412.728C438.957 411.032 440.194 410.184 442.669 410.184H443.997V409.768C443.997 409.267 443.88 408.893 443.645 408.648C443.41 408.403 443.026 408.28 442.493 408.28C442.024 408.28 441.629 408.371 441.309 408.552C441 408.733 440.722 408.989 440.477 409.32L439.181 408.168C439.469 407.677 439.917 407.288 440.525 407C441.133 406.701 441.88 406.552 442.765 406.552C443.906 406.552 444.792 406.819 445.421 407.352C446.05 407.875 446.365 408.648 446.365 409.672V412.744C446.365 412.893 446.418 413.021 446.525 413.128C446.632 413.235 446.76 413.288 446.909 413.288H447.277V415H445.917ZM442.509 413.64C442.946 413.64 443.304 413.539 443.581 413.336C443.858 413.123 443.997 412.829 443.997 412.456V411.464H442.733C442.264 411.464 441.901 411.549 441.645 411.72C441.4 411.88 441.277 412.12 441.277 412.44V412.76C441.277 413.048 441.384 413.267 441.597 413.416C441.821 413.565 442.125 413.64 442.509 413.64ZM448.759 415V406.744H451.127V408.248H451.223C451.425 407.736 451.724 407.325 452.119 407.016C452.524 406.707 453.036 406.552 453.655 406.552C454.465 406.552 455.116 406.824 455.607 407.368C456.097 407.912 456.343 408.675 456.343 409.656V415H453.975V409.976C453.975 409.453 453.857 409.059 453.623 408.792C453.388 408.515 453.041 408.376 452.583 408.376C452.188 408.376 451.847 408.483 451.559 408.696C451.271 408.909 451.127 409.203 451.127 409.576V415H448.759ZM462.449 415.192C461.147 415.192 460.123 414.808 459.377 414.04C458.641 413.272 458.273 412.216 458.273 410.872C458.273 409.539 458.641 408.488 459.377 407.72C460.123 406.941 461.142 406.552 462.433 406.552C464.086 406.552 465.233 407.224 465.873 408.568L464.049 409.56C463.889 409.208 463.681 408.936 463.425 408.744C463.179 408.541 462.849 408.44 462.433 408.44C461.899 408.44 461.483 408.6 461.185 408.92C460.886 409.229 460.737 409.656 460.737 410.2V411.544C460.737 412.099 460.886 412.531 461.185 412.84C461.483 413.149 461.91 413.304 462.465 413.304C462.891 413.304 463.238 413.208 463.505 413.016C463.782 412.813 464.017 412.525 464.209 412.152L466.001 413.176C465.691 413.805 465.243 414.301 464.657 414.664C464.07 415.016 463.334 415.192 462.449 415.192ZM471.706 415.192C470.416 415.192 469.402 414.808 468.666 414.04C467.93 413.261 467.562 412.205 467.562 410.872C467.562 409.539 467.93 408.488 468.666 407.72C469.402 406.941 470.416 406.552 471.706 406.552C472.997 406.552 474.01 406.941 474.746 407.72C475.482 408.488 475.85 409.539 475.85 410.872C475.85 412.205 475.482 413.261 474.746 414.04C474.01 414.808 472.997 415.192 471.706 415.192ZM471.706 413.432C472.24 413.432 472.656 413.267 472.954 412.936C473.253 412.605 473.402 412.136 473.402 411.528V410.216C473.402 409.608 473.253 409.139 472.954 408.808C472.656 408.477 472.24 408.312 471.706 408.312C471.173 408.312 470.757 408.477 470.458 408.808C470.16 409.139 470.01 409.608 470.01 410.216V411.528C470.01 412.136 470.16 412.605 470.458 412.936C470.757 413.267 471.173 413.432 471.706 413.432Z" fill="black"/>
<path d="M487.642 359.144C486.893 358.79 485.999 359.109 485.644 359.858L479.865 372.058C479.511 372.807 479.83 373.701 480.579 374.056C481.327 374.411 482.222 374.091 482.576 373.343L487.713 362.498L498.558 367.635C499.307 367.989 500.201 367.67 500.556 366.921C500.911 366.173 500.591 365.278 499.843 364.924L487.642 359.144ZM475.809 403.763C487.114 396.524 491.73 389.179 492.661 381.62C493.572 374.221 490.882 366.909 488.413 359.995L485.587 361.005C488.118 368.091 490.491 374.694 489.683 381.253C488.895 387.652 485.011 394.308 474.191 401.237L475.809 403.763Z" fill="black"/>
</svg>
