<svg width="600" height="344" viewBox="0 0 600 344" fill="none" xmlns="http://www.w3.org/2000/svg">
<rect x="408" y="217" width="191" height="126" rx="9" fill="#EFF1F3" stroke="#DADFE2" stroke-width="2"/>
<rect x="416" y="225" width="50" height="50" rx="10" fill="#DADFE2"/>
<rect x="416" y="285" width="50" height="50" rx="10" fill="#DADFE2"/>
<rect x="479" y="225" width="49" height="50" rx="10" fill="#DADFE2"/>
<rect x="479" y="285" width="49" height="50" rx="10" fill="#DADFE2"/>
<rect x="541" y="225" width="50" height="50" rx="10" fill="#DADFE2"/>
<rect x="541" y="285" width="50" height="50" rx="10" fill="#DADFE2"/>
<line x1="534.5" y1="216" x2="534.5" y2="344" stroke="#6E33A6"/>
<line x1="472.5" y1="216" x2="472.5" y2="344" stroke="#6E33A6"/>
<line x1="600" y1="280.5" x2="407" y2="280.5" stroke="#6E33A6"/>
<path opacity="0.2" d="M472 218H590C594.418 218 598 221.582 598 226V334C598 338.418 594.418 342 590 342H472V218Z" fill="#6E33A6"/>
<rect x="407" y="182" width="126" height="29" rx="10" fill="#6E33A6"/>
<g opacity="0.6">
<rect x="1" y="35" width="191" height="126" rx="9" fill="#EFF1F3" stroke="#6E33A6" stroke-width="2"/>
<rect x="1" y="217" width="191" height="126" rx="9" fill="#EFF1F3" stroke="#DADFE2" stroke-width="2"/>
<rect x="204" y="35" width="192" height="126" rx="9" fill="#EFF1F3" stroke="#DADFE2" stroke-width="2"/>
<rect x="408" y="35" width="191" height="126" rx="9" fill="#EFF1F3" stroke="#DADFE2" stroke-width="2"/>
<rect x="204" y="217" width="191" height="126" rx="9" fill="#EFF1F3" stroke="#DADFE2" stroke-width="2"/>
<rect x="213.5" y="43.5" width="100" height="49" rx="9.5" fill="#B688E0" stroke="#6E33A6"/>
<rect x="9" y="43" width="102" height="50" rx="10" fill="#DADFE2"/>
<rect x="9.5" y="225.5" width="101" height="49" rx="9.5" fill="#B688E0" stroke="#6E33A6"/>
<rect x="324.5" y="43.5" width="63" height="49" rx="9.5" fill="#B688E0" stroke="#6E33A6"/>
<rect x="416" y="43" width="101" height="50" rx="10" fill="#DADFE2"/>
<rect x="212" y="225" width="50" height="50" rx="10" fill="#DADFE2"/>
<rect x="212" y="285" width="50" height="50" rx="10" fill="#DADFE2"/>
<rect x="275" y="285" width="49" height="50" rx="10" fill="#DADFE2"/>
<rect x="337" y="225" width="50" height="50" rx="10" fill="#DADFE2"/>
<rect x="337" y="285" width="50" height="50" rx="10" fill="#DADFE2"/>
<rect x="324.5" y="103.5" width="63" height="49" rx="9.5" fill="#B688E0" stroke="#6E33A6"/>
<rect x="119" y="43" width="65" height="50" rx="10" fill="#DADFE2"/>
<rect x="119" y="225" width="65" height="50" rx="10" fill="#DADFE2"/>
<rect x="213.5" y="103.5" width="100" height="49" rx="9.5" fill="#B688E0" stroke="#6E33A6"/>
<rect x="527" y="43" width="64" height="50" rx="10" fill="#DADFE2"/>
<rect x="119" y="103" width="65" height="50" rx="10" fill="#DADFE2"/>
<rect x="119" y="285" width="65" height="50" rx="10" fill="#DADFE2"/>
<rect x="527" y="103" width="64" height="50" rx="10" fill="#DADFE2"/>
<rect x="275" y="225" width="49" height="50" rx="10" fill="#DADFE2"/>
<rect x="9" y="103" width="102" height="50" rx="10" fill="#DADFE2"/>
<rect x="9" y="285" width="102" height="50" rx="10" fill="#DADFE2"/>
<rect x="416" y="103" width="101" height="50" rx="10" fill="#DADFE2"/>
<line x1="522.5" y1="34" x2="522.5" y2="162" stroke="#6E33A6"/>
<line x1="330.5" y1="216" x2="330.5" y2="344" stroke="#6E33A6"/>
<line x1="268.5" y1="216" x2="268.5" y2="344" stroke="#6E33A6"/>
<line x1="600" y1="98.5" x2="407" y2="98.5" stroke="#6E33A6"/>
<line x1="396" y1="280.5" x2="203" y2="280.5" stroke="#6E33A6"/>
<path opacity="0.2" d="M268 216H330V344H268V216Z" fill="#6E33A6"/>
<rect width="145" height="29" rx="10" fill="#EFF1F3"/>
<rect y="182" width="145" height="29" rx="10" fill="#EFF1F3"/>
<rect x="203" width="96" height="29" rx="10" fill="#EFF1F3"/>
<rect x="203" y="182" width="154" height="29" rx="10" fill="#EFF1F3"/>
<rect x="407" width="135" height="29" rx="10" fill="#EFF1F3"/>
<path d="M10.056 21.192C8.584 21.192 7.48 20.696 6.744 19.704C6.01867 18.712 5.656 17.2827 5.656 15.416C5.656 13.5493 6.01867 12.12 6.744 11.128C7.48 10.136 8.584 9.64 10.056 9.64C12.2 9.64 13.5173 10.712 14.008 12.856L11.768 13.4C11.6293 12.8027 11.432 12.3493 11.176 12.04C10.92 11.7307 10.5307 11.576 10.008 11.576C9.37867 11.576 8.92 11.8213 8.632 12.312C8.35467 12.8027 8.216 13.512 8.216 14.44V16.392C8.216 17.32 8.35467 18.0293 8.632 18.52C8.92 19.0107 9.37867 19.256 10.008 19.256C10.5307 19.256 10.92 19.1013 11.176 18.792C11.432 18.4827 11.6293 18.0293 11.768 17.432L14.008 17.976C13.5173 20.12 12.2 21.192 10.056 21.192ZM19.3938 21.192C18.1031 21.192 17.0898 20.808 16.3538 20.04C15.6178 19.2613 15.2498 18.2053 15.2498 16.872C15.2498 15.5387 15.6178 14.488 16.3538 13.72C17.0898 12.9413 18.1031 12.552 19.3938 12.552C20.6844 12.552 21.6978 12.9413 22.4338 13.72C23.1698 14.488 23.5378 15.5387 23.5378 16.872C23.5378 18.2053 23.1698 19.2613 22.4338 20.04C21.6978 20.808 20.6844 21.192 19.3938 21.192ZM19.3938 19.432C19.9271 19.432 20.3431 19.2667 20.6418 18.936C20.9404 18.6053 21.0898 18.136 21.0898 17.528V16.216C21.0898 15.608 20.9404 15.1387 20.6418 14.808C20.3431 14.4773 19.9271 14.312 19.3938 14.312C18.8604 14.312 18.4444 14.4773 18.1458 14.808C17.8471 15.1387 17.6978 15.608 17.6978 16.216V17.528C17.6978 18.136 17.8471 18.6053 18.1458 18.936C18.4444 19.2667 18.8604 19.432 19.3938 19.432ZM25.2275 21V12.744H27.5955V14.248H27.6915C27.8942 13.736 28.1928 13.3253 28.5875 13.016C28.9928 12.7067 29.5048 12.552 30.1235 12.552C30.9342 12.552 31.5848 12.824 32.0755 13.368C32.5662 13.912 32.8115 14.6747 32.8115 15.656V21H30.4435V15.976C30.4435 15.4533 30.3262 15.0587 30.0915 14.792C29.8568 14.5147 29.5102 14.376 29.0515 14.376C28.6568 14.376 28.3155 14.4827 28.0275 14.696C27.7395 14.9093 27.5955 15.2027 27.5955 15.576V21H25.2275ZM39.0613 18.616C39.0613 18.7653 39.1146 18.8933 39.2213 19C39.3279 19.1067 39.4559 19.16 39.6053 19.16H42.2773V21H39.2213C38.3893 21 37.7599 20.7867 37.3333 20.36C36.9066 19.9227 36.6933 19.3413 36.6933 18.616V14.584H34.4533V12.744H36.6933V9.832H39.0613V12.744H42.2773V14.584H39.0613V18.616ZM48.399 21.192C47.0337 21.192 45.9883 20.8133 45.263 20.056C44.5377 19.2987 44.175 18.248 44.175 16.904C44.175 15.5493 44.5323 14.488 45.247 13.72C45.9723 12.9413 46.9537 12.552 48.191 12.552C49.4177 12.552 50.3883 12.9307 51.103 13.688C51.8177 14.4347 52.175 15.4533 52.175 16.744V17.448H46.527V17.592C46.527 18.136 46.6977 18.568 47.039 18.888C47.3803 19.208 47.8603 19.368 48.479 19.368C49.3537 19.368 50.079 19.0267 50.655 18.344L51.935 19.736C51.583 20.1733 51.1137 20.5253 50.527 20.792C49.9403 21.0587 49.231 21.192 48.399 21.192ZM48.207 14.248C47.695 14.248 47.2843 14.408 46.975 14.728C46.6763 15.0373 46.527 15.4587 46.527 15.992V16.12H49.855V15.992C49.855 15.4587 49.7057 15.0373 49.407 14.728C49.119 14.408 48.719 14.248 48.207 14.248ZM49.183 8.424L51.295 10.968L50.095 11.896L48.159 10.056L46.223 11.896L45.087 10.968L47.199 8.424H49.183ZM59.5448 9.08V11.608H57.0008V9.08H59.5448ZM54.4728 19.16H57.0968V14.584H54.4728V12.744H59.4648V19.16H61.8968V21H54.4728V19.16ZM63.6025 21V12.744H65.9705V14.248H66.0665C66.2692 13.736 66.5678 13.3253 66.9625 13.016C67.3678 12.7067 67.8798 12.552 68.4985 12.552C69.3092 12.552 69.9598 12.824 70.4505 13.368C70.9412 13.912 71.1865 14.6747 71.1865 15.656V21H68.8185V15.976C68.8185 15.4533 68.7012 15.0587 68.4665 14.792C68.2318 14.5147 67.8852 14.376 67.4265 14.376C67.0318 14.376 66.6905 14.4827 66.4025 14.696C66.1145 14.9093 65.9705 15.2027 65.9705 15.576V21H63.6025ZM77.1803 21.192C75.8149 21.192 74.7696 20.8133 74.0443 20.056C73.3189 19.2987 72.9563 18.248 72.9563 16.904C72.9563 15.5493 73.3136 14.488 74.0283 13.72C74.7536 12.9413 75.7349 12.552 76.9723 12.552C78.1989 12.552 79.1696 12.9307 79.8843 13.688C80.5989 14.4347 80.9563 15.4533 80.9563 16.744V17.448H75.3083V17.592C75.3083 18.136 75.4789 18.568 75.8203 18.888C76.1616 19.208 76.6416 19.368 77.2603 19.368C78.1349 19.368 78.8603 19.0267 79.4363 18.344L80.7163 19.736C80.3643 20.1733 79.8949 20.5253 79.3083 20.792C78.7216 21.0587 78.0123 21.192 77.1803 21.192ZM76.9883 14.248C76.4763 14.248 76.0656 14.408 75.7563 14.728C75.4576 15.0373 75.3083 15.4587 75.3083 15.992V16.12H78.6363V15.992C78.6363 15.4587 78.4869 15.0373 78.1883 14.728C77.9003 14.408 77.5003 14.248 76.9883 14.248ZM82.934 19.16H84.838V14.584H82.934V12.744L87.206 12.744V15.08H87.318C87.7127 13.5227 88.5927 12.744 89.958 12.744H90.742V14.92H88.982C88.4167 14.92 87.9793 15.0907 87.67 15.432C87.3607 15.7627 87.206 16.1893 87.206 16.712V19.16H89.926V21H82.934V19.16ZM109.594 20.504C109.594 21.7413 109.236 22.696 108.522 23.368C107.818 24.0507 106.783 24.392 105.418 24.392C103.946 24.392 102.826 23.992 102.058 23.192L103.322 21.688C103.866 22.2533 104.543 22.536 105.354 22.536C105.983 22.536 106.452 22.376 106.762 22.056C107.071 21.7467 107.226 21.2987 107.226 20.712V19.064H107.114C106.89 19.608 106.58 20.0293 106.186 20.328C105.802 20.6267 105.295 20.776 104.666 20.776C103.716 20.776 102.959 20.4293 102.394 19.736C101.839 19.032 101.562 18.008 101.562 16.664C101.562 15.32 101.839 14.3013 102.394 13.608C102.959 12.904 103.716 12.552 104.666 12.552C105.295 12.552 105.802 12.7013 106.186 13C106.58 13.2987 106.89 13.7147 107.114 14.248H107.226V12.744H109.594V20.504ZM105.69 18.936C106.138 18.936 106.506 18.8293 106.794 18.616C107.082 18.4027 107.226 18.088 107.226 17.672V15.656C107.226 15.24 107.082 14.9253 106.794 14.712C106.506 14.4987 106.138 14.392 105.69 14.392C105.167 14.392 104.756 14.5573 104.458 14.888C104.17 15.208 104.026 15.656 104.026 16.232V17.08C104.026 17.656 104.17 18.1093 104.458 18.44C104.756 18.7707 105.167 18.936 105.69 18.936ZM111.715 19.16H113.619V14.584H111.715V12.744H115.987V15.08H116.099C116.494 13.5227 117.374 12.744 118.739 12.744H119.523V14.92H117.763C117.198 14.92 116.761 15.0907 116.451 15.432C116.142 15.7627 115.987 16.1893 115.987 16.712V19.16H118.707V21H111.715V19.16ZM126.701 9.08V11.608H124.157V9.08H126.701ZM121.629 19.16H124.253V14.584H121.629V12.744H126.621V19.16H129.053V21H121.629V19.16ZM136.007 19.496H135.895C135.671 20.0293 135.361 20.4453 134.967 20.744C134.583 21.0427 134.076 21.192 133.447 21.192C132.497 21.192 131.74 20.8347 131.175 20.12C130.62 19.3947 130.343 18.312 130.343 16.872C130.343 15.432 130.62 14.3547 131.175 13.64C131.74 12.9147 132.497 12.552 133.447 12.552C134.076 12.552 134.583 12.7013 134.967 13C135.361 13.2987 135.671 13.7147 135.895 14.248H136.007V9.16H138.375V21H136.007V19.496ZM134.471 19.352C134.919 19.352 135.287 19.2453 135.575 19.032C135.863 18.8187 136.007 18.504 136.007 18.088V15.656C136.007 15.24 135.863 14.9253 135.575 14.712C135.287 14.4987 134.919 14.392 134.471 14.392C133.948 14.392 133.537 14.5573 133.239 14.888C132.951 15.208 132.807 15.656 132.807 16.232V17.512C132.807 18.088 132.951 18.5413 133.239 18.872C133.537 19.192 133.948 19.352 134.471 19.352Z" fill="#12171A"/>
<path d="M10.056 203.192C8.584 203.192 7.48 202.696 6.744 201.704C6.01867 200.712 5.656 199.283 5.656 197.416C5.656 195.549 6.01867 194.12 6.744 193.128C7.48 192.136 8.584 191.64 10.056 191.64C12.2 191.64 13.5173 192.712 14.008 194.856L11.768 195.4C11.6293 194.803 11.432 194.349 11.176 194.04C10.92 193.731 10.5307 193.576 10.008 193.576C9.37867 193.576 8.92 193.821 8.632 194.312C8.35467 194.803 8.216 195.512 8.216 196.44V198.392C8.216 199.32 8.35467 200.029 8.632 200.52C8.92 201.011 9.37867 201.256 10.008 201.256C10.5307 201.256 10.92 201.101 11.176 200.792C11.432 200.483 11.6293 200.029 11.768 199.432L14.008 199.976C13.5173 202.12 12.2 203.192 10.056 203.192ZM19.6178 203.192C18.2524 203.192 17.2071 202.813 16.4818 202.056C15.7564 201.299 15.3938 200.248 15.3938 198.904C15.3938 197.549 15.7511 196.488 16.4658 195.72C17.1911 194.941 18.1724 194.552 19.4098 194.552C20.6364 194.552 21.6071 194.931 22.3218 195.688C23.0364 196.435 23.3938 197.453 23.3938 198.744V199.448H17.7458V199.592C17.7458 200.136 17.9164 200.568 18.2578 200.888C18.5991 201.208 19.0791 201.368 19.6978 201.368C20.5724 201.368 21.2978 201.027 21.8738 200.344L23.1538 201.736C22.8018 202.173 22.3324 202.525 21.7458 202.792C21.1591 203.059 20.4498 203.192 19.6178 203.192ZM19.4258 196.248C18.9138 196.248 18.5031 196.408 18.1938 196.728C17.8951 197.037 17.7458 197.459 17.7458 197.992V198.12H21.0738V197.992C21.0738 197.459 20.9244 197.037 20.6258 196.728C20.3378 196.408 19.9378 196.248 19.4258 196.248ZM19.6658 194.04L18.2578 193.352L20.1618 189.768L22.1298 190.744L19.6658 194.04ZM25.2755 201.16H27.8035V193H25.2755V191.16H30.1715V201.16H32.6995V203H25.2755V201.16ZM39.9733 201.496H39.8773C39.6746 202.008 39.3706 202.419 38.9653 202.728C38.5706 203.037 38.0639 203.192 37.4453 203.192C36.6346 203.192 35.9839 202.92 35.4933 202.376C35.0026 201.832 34.7573 201.069 34.7573 200.088V194.744H37.1253V199.768C37.1253 200.291 37.2426 200.691 37.4773 200.968C37.7119 201.235 38.0586 201.368 38.5173 201.368C38.9119 201.368 39.2533 201.261 39.5413 201.048C39.8293 200.835 39.9733 200.541 39.9733 200.168V194.744H42.3413V203H39.9733V201.496ZM44.463 201.16H46.991V193H44.463V191.16H49.359V201.16H51.887V203H44.463V201.16ZM60.7608 203C60.2701 203 59.8701 202.872 59.5608 202.616C59.2621 202.36 59.0914 202.003 59.0488 201.544H58.9688C58.8301 202.077 58.5368 202.488 58.0888 202.776C57.6408 203.053 57.0968 203.192 56.4568 203.192C55.6461 203.192 55.0008 202.973 54.5208 202.536C54.0408 202.099 53.8008 201.496 53.8008 200.728C53.8008 199.032 55.0381 198.184 57.5128 198.184H58.8408V197.768C58.8408 197.267 58.7234 196.893 58.4888 196.648C58.2541 196.403 57.8701 196.28 57.3368 196.28C56.8674 196.28 56.4728 196.371 56.1528 196.552C55.8434 196.733 55.5661 196.989 55.3207 197.32L54.0247 196.168C54.3128 195.677 54.7608 195.288 55.3688 195C55.9768 194.701 56.7234 194.552 57.6088 194.552C58.7501 194.552 59.6354 194.819 60.2648 195.352C60.8941 195.875 61.2088 196.648 61.2088 197.672V200.744C61.2088 200.893 61.2621 201.021 61.3688 201.128C61.4754 201.235 61.6034 201.288 61.7528 201.288H62.1208V203H60.7608ZM57.3528 201.64C57.7901 201.64 58.1474 201.539 58.4248 201.336C58.7021 201.123 58.8408 200.829 58.8408 200.456V199.464H57.5768C57.1074 199.464 56.7448 199.549 56.4888 199.72C56.2434 199.88 56.1208 200.12 56.1208 200.44V200.76C56.1208 201.048 56.2274 201.267 56.4408 201.416C56.6648 201.565 56.9688 201.64 57.3528 201.64ZM78.4443 201.496H78.3323C78.1083 202.029 77.7989 202.445 77.4043 202.744C77.0203 203.043 76.5136 203.192 75.8843 203.192C74.9349 203.192 74.1776 202.835 73.6123 202.12C73.0576 201.395 72.7803 200.312 72.7803 198.872C72.7803 197.432 73.0576 196.355 73.6123 195.64C74.1776 194.915 74.9349 194.552 75.8843 194.552C76.5136 194.552 77.0203 194.701 77.4043 195C77.7989 195.299 78.1083 195.715 78.3323 196.248H78.4443V191.16H80.8123V203H78.4443V201.496ZM76.9083 201.352C77.3563 201.352 77.7243 201.245 78.0123 201.032C78.3003 200.819 78.4443 200.504 78.4443 200.088V197.656C78.4443 197.24 78.3003 196.925 78.0123 196.712C77.7243 196.499 77.3563 196.392 76.9083 196.392C76.3856 196.392 75.9749 196.557 75.6763 196.888C75.3883 197.208 75.2443 197.656 75.2443 198.232V199.512C75.2443 200.088 75.3883 200.541 75.6763 200.872C75.9749 201.192 76.3856 201.352 76.9083 201.352ZM86.55 203.192C85.2593 203.192 84.246 202.808 83.51 202.04C82.774 201.261 82.406 200.205 82.406 198.872C82.406 197.539 82.774 196.488 83.51 195.72C84.246 194.941 85.2593 194.552 86.55 194.552C87.8407 194.552 88.854 194.941 89.59 195.72C90.326 196.488 90.694 197.539 90.694 198.872C90.694 200.205 90.326 201.261 89.59 202.04C88.854 202.808 87.8407 203.192 86.55 203.192ZM86.55 201.432C87.0833 201.432 87.4993 201.267 87.798 200.936C88.0967 200.605 88.246 200.136 88.246 199.528V198.216C88.246 197.608 88.0967 197.139 87.798 196.808C87.4993 196.477 87.0833 196.312 86.55 196.312C86.0167 196.312 85.6007 196.477 85.302 196.808C85.0033 197.139 84.854 197.608 84.854 198.216V199.528C84.854 200.136 85.0033 200.605 85.302 200.936C85.6007 201.267 86.0167 201.432 86.55 201.432ZM109.594 202.504C109.594 203.741 109.236 204.696 108.522 205.368C107.818 206.051 106.783 206.392 105.418 206.392C103.946 206.392 102.826 205.992 102.058 205.192L103.322 203.688C103.866 204.253 104.543 204.536 105.354 204.536C105.983 204.536 106.452 204.376 106.762 204.056C107.071 203.747 107.226 203.299 107.226 202.712V201.064H107.114C106.89 201.608 106.58 202.029 106.186 202.328C105.802 202.627 105.295 202.776 104.666 202.776C103.716 202.776 102.959 202.429 102.394 201.736C101.839 201.032 101.562 200.008 101.562 198.664C101.562 197.32 101.839 196.301 102.394 195.608C102.959 194.904 103.716 194.552 104.666 194.552C105.295 194.552 105.802 194.701 106.186 195C106.58 195.299 106.89 195.715 107.114 196.248H107.226V194.744H109.594V202.504ZM105.69 200.936C106.138 200.936 106.506 200.829 106.794 200.616C107.082 200.403 107.226 200.088 107.226 199.672V197.656C107.226 197.24 107.082 196.925 106.794 196.712C106.506 196.499 106.138 196.392 105.69 196.392C105.167 196.392 104.756 196.557 104.458 196.888C104.17 197.208 104.026 197.656 104.026 198.232V199.08C104.026 199.656 104.17 200.109 104.458 200.44C104.756 200.771 105.167 200.936 105.69 200.936ZM111.715 201.16H113.619V196.584H111.715V194.744H115.987V197.08H116.099C116.494 195.523 117.374 194.744 118.739 194.744H119.523V196.92H117.763C117.198 196.92 116.761 197.091 116.451 197.432C116.142 197.763 115.987 198.189 115.987 198.712V201.16H118.707V203H111.715V201.16ZM126.701 191.08V193.608H124.157V191.08H126.701ZM121.629 201.16H124.253V196.584H121.629V194.744H126.621V201.16H129.053V203H121.629V201.16ZM136.007 201.496H135.895C135.671 202.029 135.361 202.445 134.967 202.744C134.583 203.043 134.076 203.192 133.447 203.192C132.497 203.192 131.74 202.835 131.175 202.12C130.62 201.395 130.343 200.312 130.343 198.872C130.343 197.432 130.62 196.355 131.175 195.64C131.74 194.915 132.497 194.552 133.447 194.552C134.076 194.552 134.583 194.701 134.967 195C135.361 195.299 135.671 195.715 135.895 196.248H136.007V191.16H138.375V203H136.007V201.496ZM134.471 201.352C134.919 201.352 135.287 201.245 135.575 201.032C135.863 200.819 136.007 200.504 136.007 200.088V197.656C136.007 197.24 135.863 196.925 135.575 196.712C135.287 196.499 134.919 196.392 134.471 196.392C133.948 196.392 133.537 196.557 133.239 196.888C132.951 197.208 132.807 197.656 132.807 198.232V199.512C132.807 200.088 132.951 200.541 133.239 200.872C133.537 201.192 133.948 201.352 134.471 201.352Z" fill="#12171A"/>
<path d="M209.2 21V19.224H211.6V11.608H209.2V9.832H216.4V11.608H214V19.224H216.4V21H209.2ZM222.874 18.616C222.874 18.7653 222.927 18.8933 223.034 19C223.14 19.1067 223.268 19.16 223.418 19.16H226.09V21H223.034C222.202 21 221.572 20.7867 221.146 20.36C220.719 19.9227 220.506 19.3413 220.506 18.616V14.584H218.266V12.744H220.506V9.832H222.874V12.744L226.09 12.744V14.584L222.874 14.584V18.616ZM232.212 21.192C230.846 21.192 229.801 20.8133 229.076 20.056C228.35 19.2987 227.988 18.248 227.988 16.904C227.988 15.5493 228.345 14.488 229.06 13.72C229.785 12.9413 230.766 12.552 232.004 12.552C233.23 12.552 234.201 12.9307 234.916 13.688C235.63 14.4347 235.988 15.4533 235.988 16.744V17.448H230.34V17.592C230.34 18.136 230.51 18.568 230.852 18.888C231.193 19.208 231.673 19.368 232.292 19.368C233.166 19.368 233.892 19.0267 234.468 18.344L235.748 19.736C235.396 20.1733 234.926 20.5253 234.34 20.792C233.753 21.0587 233.044 21.192 232.212 21.192ZM232.02 14.248C231.508 14.248 231.097 14.408 230.788 14.728C230.489 15.0373 230.34 15.4587 230.34 15.992V16.12H233.668V15.992C233.668 15.4587 233.518 15.0373 233.22 14.728C232.932 14.408 232.532 14.248 232.02 14.248ZM237.261 21V12.744H239.165V13.96H239.277C239.427 13.5227 239.624 13.1813 239.869 12.936C240.115 12.68 240.44 12.552 240.845 12.552C241.24 12.552 241.56 12.6747 241.805 12.92C242.061 13.1547 242.232 13.5013 242.317 13.96H242.413C242.573 13.5227 242.787 13.1813 243.053 12.936C243.331 12.68 243.704 12.552 244.173 12.552C245.325 12.552 245.901 13.4 245.901 15.096V21H243.997V15.336C243.997 14.6427 243.757 14.296 243.277 14.296C243.064 14.296 242.888 14.3653 242.749 14.504C242.611 14.6427 242.541 14.8453 242.541 15.112V21H240.621V15.336C240.621 14.6427 240.392 14.296 239.933 14.296C239.709 14.296 239.523 14.3653 239.373 14.504C239.235 14.6427 239.165 14.8453 239.165 15.112V21H237.261ZM264.625 20.504C264.625 21.7413 264.267 22.696 263.553 23.368C262.849 24.0507 261.814 24.392 260.449 24.392C258.977 24.392 257.857 23.992 257.089 23.192L258.353 21.688C258.897 22.2533 259.574 22.536 260.385 22.536C261.014 22.536 261.483 22.376 261.793 22.056C262.102 21.7467 262.257 21.2987 262.257 20.712V19.064H262.145C261.921 19.608 261.611 20.0293 261.217 20.328C260.833 20.6267 260.326 20.776 259.697 20.776C258.747 20.776 257.99 20.4293 257.425 19.736C256.87 19.032 256.593 18.008 256.593 16.664C256.593 15.32 256.87 14.3013 257.425 13.608C257.99 12.904 258.747 12.552 259.697 12.552C260.326 12.552 260.833 12.7013 261.217 13C261.611 13.2987 261.921 13.7147 262.145 14.248H262.257V12.744H264.625V20.504ZM260.721 18.936C261.169 18.936 261.537 18.8293 261.825 18.616C262.113 18.4027 262.257 18.088 262.257 17.672V15.656C262.257 15.24 262.113 14.9253 261.825 14.712C261.537 14.4987 261.169 14.392 260.721 14.392C260.198 14.392 259.787 14.5573 259.489 14.888C259.201 15.208 259.057 15.656 259.057 16.232V17.08C259.057 17.656 259.201 18.1093 259.489 18.44C259.787 18.7707 260.198 18.936 260.721 18.936ZM266.747 19.16H268.651V14.584H266.747V12.744H271.019V15.08H271.131C271.525 13.5227 272.405 12.744 273.771 12.744H274.555V14.92H272.795C272.229 14.92 271.792 15.0907 271.483 15.432C271.173 15.7627 271.019 16.1893 271.019 16.712V19.16H273.739V21H266.747V19.16ZM281.732 9.08V11.608H279.188V9.08H281.732ZM276.66 19.16H279.284V14.584H276.66V12.744H281.652V19.16H284.084V21H276.66V19.16ZM291.038 19.496H290.926C290.702 20.0293 290.393 20.4453 289.998 20.744C289.614 21.0427 289.107 21.192 288.478 21.192C287.529 21.192 286.771 20.8347 286.206 20.12C285.651 19.3947 285.374 18.312 285.374 16.872C285.374 15.432 285.651 14.3547 286.206 13.64C286.771 12.9147 287.529 12.552 288.478 12.552C289.107 12.552 289.614 12.7013 289.998 13C290.393 13.2987 290.702 13.7147 290.926 14.248H291.038V9.16H293.406V21H291.038V19.496ZM289.502 19.352C289.95 19.352 290.318 19.2453 290.606 19.032C290.894 18.8187 291.038 18.504 291.038 18.088V15.656C291.038 15.24 290.894 14.9253 290.606 14.712C290.318 14.4987 289.95 14.392 289.502 14.392C288.979 14.392 288.569 14.5573 288.27 14.888C287.982 15.208 287.838 15.656 287.838 16.232V17.512C287.838 18.088 287.982 18.5413 288.27 18.872C288.569 19.192 288.979 19.352 289.502 19.352Z" fill="#12171A"/>
<path d="M214 193.8V203H211.6V193.8H208.384V191.832H217.216V193.8H214ZM218.778 201.16H220.682V196.584H218.778V194.744H223.05V197.08H223.162C223.556 195.523 224.436 194.744 225.802 194.744H226.586V196.92H224.826C224.26 196.92 223.823 197.091 223.514 197.432C223.204 197.763 223.05 198.189 223.05 198.712V201.16H225.77V203H218.778V201.16ZM233.764 191.08V193.608H231.22V191.08H233.764ZM228.692 201.16H231.316V196.584H228.692V194.744H233.684V201.16H236.116V203H228.692V201.16ZM237.869 201.16H240.397V193H237.869V191.16H242.765V201.16H245.293V203H237.869V201.16ZM247.415 191.16H249.783V196.248H249.879C250.082 195.736 250.38 195.325 250.775 195.016C251.18 194.707 251.692 194.552 252.311 194.552C253.122 194.552 253.772 194.824 254.263 195.368C254.754 195.912 254.999 196.675 254.999 197.656V203H252.631V197.976C252.631 197.453 252.514 197.059 252.279 196.792C252.044 196.515 251.698 196.376 251.239 196.376C250.844 196.376 250.503 196.483 250.215 196.696C249.927 196.909 249.783 197.203 249.783 197.576V203H247.415V191.16ZM263.761 203C263.27 203 262.87 202.872 262.561 202.616C262.262 202.36 262.091 202.003 262.049 201.544H261.969C261.83 202.077 261.537 202.488 261.089 202.776C260.641 203.053 260.097 203.192 259.457 203.192C258.646 203.192 258.001 202.973 257.521 202.536C257.041 202.099 256.801 201.496 256.801 200.728C256.801 199.032 258.038 198.184 260.513 198.184H261.841V197.768C261.841 197.267 261.723 196.893 261.489 196.648C261.254 196.403 260.87 196.28 260.337 196.28C259.867 196.28 259.473 196.371 259.153 196.552C258.843 196.733 258.566 196.989 258.321 197.32L257.025 196.168C257.313 195.677 257.761 195.288 258.369 195C258.977 194.701 259.723 194.552 260.609 194.552C261.75 194.552 262.635 194.819 263.265 195.352C263.894 195.875 264.209 196.648 264.209 197.672V200.744C264.209 200.893 264.262 201.021 264.369 201.128C264.475 201.235 264.603 201.288 264.753 201.288H265.121V203H263.761ZM260.353 201.64C260.79 201.64 261.147 201.539 261.425 201.336C261.702 201.123 261.841 200.829 261.841 200.456V199.464H260.577C260.107 199.464 259.745 199.549 259.489 199.72C259.243 199.88 259.121 200.12 259.121 200.44V200.76C259.121 201.048 259.227 201.267 259.441 201.416C259.665 201.565 259.969 201.64 260.353 201.64ZM270.266 203.192C269.36 203.192 268.565 203.053 267.883 202.776C267.2 202.499 266.688 202.12 266.347 201.64L267.674 200.408C268.357 201.155 269.227 201.528 270.283 201.528C270.752 201.528 271.12 201.453 271.387 201.304C271.653 201.155 271.787 200.936 271.787 200.648C271.787 200.435 271.701 200.28 271.531 200.184C271.371 200.077 271.115 199.997 270.763 199.944L269.435 199.736C268.624 199.608 267.979 199.357 267.499 198.984C267.029 198.611 266.795 198.056 266.795 197.32C266.795 196.456 267.125 195.779 267.787 195.288C268.459 194.797 269.387 194.552 270.571 194.552C272.139 194.552 273.285 194.973 274.01 195.816L272.827 197.16C272.571 196.872 272.245 196.643 271.851 196.472C271.456 196.301 271.003 196.216 270.491 196.216C270.043 196.216 269.701 196.291 269.467 196.44C269.232 196.579 269.115 196.781 269.115 197.048C269.115 197.272 269.195 197.437 269.355 197.544C269.525 197.64 269.787 197.715 270.139 197.768L271.451 197.976C272.272 198.104 272.917 198.355 273.387 198.728C273.867 199.101 274.107 199.656 274.107 200.392C274.107 201.256 273.771 201.939 273.099 202.44C272.427 202.941 271.483 203.192 270.266 203.192ZM291.038 201.496H290.926C290.702 202.029 290.393 202.445 289.998 202.744C289.614 203.043 289.107 203.192 288.478 203.192C287.529 203.192 286.771 202.835 286.206 202.12C285.651 201.395 285.374 200.312 285.374 198.872C285.374 197.432 285.651 196.355 286.206 195.64C286.771 194.915 287.529 194.552 288.478 194.552C289.107 194.552 289.614 194.701 289.998 195C290.393 195.299 290.702 195.715 290.926 196.248H291.038V191.16H293.406V203H291.038V201.496ZM289.502 201.352C289.95 201.352 290.318 201.245 290.606 201.032C290.894 200.819 291.038 200.504 291.038 200.088V197.656C291.038 197.24 290.894 196.925 290.606 196.712C290.318 196.499 289.95 196.392 289.502 196.392C288.979 196.392 288.569 196.557 288.27 196.888C287.982 197.208 287.838 197.656 287.838 198.232V199.512C287.838 200.088 287.982 200.541 288.27 200.872C288.569 201.192 288.979 201.352 289.502 201.352ZM299.144 203.192C297.853 203.192 296.84 202.808 296.104 202.04C295.368 201.261 295 200.205 295 198.872C295 197.539 295.368 196.488 296.104 195.72C296.84 194.941 297.853 194.552 299.144 194.552C300.434 194.552 301.448 194.941 302.184 195.72C302.92 196.488 303.288 197.539 303.288 198.872C303.288 200.205 302.92 201.261 302.184 202.04C301.448 202.808 300.434 203.192 299.144 203.192ZM299.144 201.432C299.677 201.432 300.093 201.267 300.392 200.936C300.69 200.605 300.84 200.136 300.84 199.528V198.216C300.84 197.608 300.69 197.139 300.392 196.808C300.093 196.477 299.677 196.312 299.144 196.312C298.61 196.312 298.194 196.477 297.896 196.808C297.597 197.139 297.448 197.608 297.448 198.216V199.528C297.448 200.136 297.597 200.605 297.896 200.936C298.194 201.267 298.61 201.432 299.144 201.432ZM322.187 202.504C322.187 203.741 321.83 204.696 321.115 205.368C320.411 206.051 319.377 206.392 318.011 206.392C316.539 206.392 315.419 205.992 314.651 205.192L315.915 203.688C316.459 204.253 317.137 204.536 317.947 204.536C318.577 204.536 319.046 204.376 319.355 204.056C319.665 203.747 319.819 203.299 319.819 202.712V201.064H319.707C319.483 201.608 319.174 202.029 318.779 202.328C318.395 202.627 317.889 202.776 317.259 202.776C316.31 202.776 315.553 202.429 314.987 201.736C314.433 201.032 314.155 200.008 314.155 198.664C314.155 197.32 314.433 196.301 314.987 195.608C315.553 194.904 316.31 194.552 317.259 194.552C317.889 194.552 318.395 194.701 318.779 195C319.174 195.299 319.483 195.715 319.707 196.248H319.819V194.744H322.187V202.504ZM318.283 200.936C318.731 200.936 319.099 200.829 319.387 200.616C319.675 200.403 319.819 200.088 319.819 199.672V197.656C319.819 197.24 319.675 196.925 319.387 196.712C319.099 196.499 318.731 196.392 318.283 196.392C317.761 196.392 317.35 196.557 317.051 196.888C316.763 197.208 316.619 197.656 316.619 198.232V199.08C316.619 199.656 316.763 200.109 317.051 200.44C317.35 200.771 317.761 200.936 318.283 200.936ZM324.309 201.16H326.213V196.584H324.309V194.744H328.581V197.08H328.693C329.088 195.523 329.968 194.744 331.333 194.744H332.117V196.92H330.357C329.792 196.92 329.354 197.091 329.045 197.432C328.736 197.763 328.581 198.189 328.581 198.712V201.16H331.301V203H324.309V201.16ZM339.295 191.08V193.608H336.751V191.08H339.295ZM334.223 201.16H336.847V196.584H334.223V194.744H339.215V201.16H341.647V203H334.223V201.16ZM348.601 201.496H348.489C348.265 202.029 347.955 202.445 347.561 202.744C347.177 203.043 346.67 203.192 346.041 203.192C345.091 203.192 344.334 202.835 343.769 202.12C343.214 201.395 342.937 200.312 342.937 198.872C342.937 197.432 343.214 196.355 343.769 195.64C344.334 194.915 345.091 194.552 346.041 194.552C346.67 194.552 347.177 194.701 347.561 195C347.955 195.299 348.265 195.715 348.489 196.248H348.601V191.16H350.969V203H348.601V201.496ZM347.065 201.352C347.513 201.352 347.881 201.245 348.169 201.032C348.457 200.819 348.601 200.504 348.601 200.088V197.656C348.601 197.24 348.457 196.925 348.169 196.712C347.881 196.499 347.513 196.392 347.065 196.392C346.542 196.392 346.131 196.557 345.833 196.888C345.545 197.208 345.401 197.656 345.401 198.232V199.512C345.401 200.088 345.545 200.541 345.833 200.872C346.131 201.192 346.542 201.352 347.065 201.352Z" fill="#12171A"/>
<path d="M413.472 21V9.832H415.888V19.032H420.688V21H413.472ZM428.17 9.08V11.608H425.626V9.08H428.17ZM423.098 19.16H425.722V14.584H423.098V12.744L428.09 12.744V19.16H430.522V21H423.098V19.16ZM432.228 21V12.744H434.596V14.248H434.692C434.894 13.736 435.193 13.3253 435.588 13.016C435.993 12.7067 436.505 12.552 437.124 12.552C437.934 12.552 438.585 12.824 439.076 13.368C439.566 13.912 439.812 14.6747 439.812 15.656V21H437.444V15.976C437.444 15.4533 437.326 15.0587 437.092 14.792C436.857 14.5147 436.51 14.376 436.052 14.376C435.657 14.376 435.316 14.4827 435.028 14.696C434.74 14.9093 434.596 15.2027 434.596 15.576V21H432.228ZM441.821 9.16H444.189V14.248H444.285C444.488 13.736 444.787 13.3253 445.181 13.016C445.587 12.7067 446.099 12.552 446.717 12.552C447.528 12.552 448.179 12.824 448.669 13.368C449.16 13.912 449.405 14.6747 449.405 15.656V21H447.037V15.976C447.037 15.4533 446.92 15.0587 446.685 14.792C446.451 14.5147 446.104 14.376 445.645 14.376C445.251 14.376 444.909 14.4827 444.621 14.696C444.333 14.9093 444.189 15.2027 444.189 15.576V21L441.821 21V9.16ZM458.167 21C457.676 21 457.276 20.872 456.967 20.616C456.668 20.36 456.498 20.0027 456.455 19.544H456.375C456.236 20.0773 455.943 20.488 455.495 20.776C455.047 21.0533 454.503 21.192 453.863 21.192C453.052 21.192 452.407 20.9733 451.927 20.536C451.447 20.0987 451.207 19.496 451.207 18.728C451.207 17.032 452.444 16.184 454.919 16.184H456.247V15.768C456.247 15.2667 456.13 14.8933 455.895 14.648C455.66 14.4027 455.276 14.28 454.743 14.28C454.274 14.28 453.879 14.3707 453.559 14.552C453.25 14.7333 452.972 14.9893 452.727 15.32L451.431 14.168C451.719 13.6773 452.167 13.288 452.775 13C453.383 12.7013 454.13 12.552 455.015 12.552C456.156 12.552 457.042 12.8187 457.671 13.352C458.3 13.8747 458.615 14.648 458.615 15.672V18.744C458.615 18.8933 458.668 19.0213 458.775 19.128C458.882 19.2347 459.01 19.288 459.159 19.288H459.527V21H458.167ZM454.759 19.64C455.196 19.64 455.554 19.5387 455.831 19.336C456.108 19.1227 456.247 18.8293 456.247 18.456V17.464H454.983C454.514 17.464 454.151 17.5493 453.895 17.72C453.65 17.88 453.527 18.12 453.527 18.44V18.76C453.527 19.048 453.634 19.2667 453.847 19.416C454.071 19.5653 454.375 19.64 454.759 19.64ZM475.851 19.496H475.739C475.515 20.0293 475.205 20.4453 474.811 20.744C474.427 21.0427 473.92 21.192 473.291 21.192C472.341 21.192 471.584 20.8347 471.019 20.12C470.464 19.3947 470.187 18.312 470.187 16.872C470.187 15.432 470.464 14.3547 471.019 13.64C471.584 12.9147 472.341 12.552 473.291 12.552C473.92 12.552 474.427 12.7013 474.811 13C475.205 13.2987 475.515 13.7147 475.739 14.248H475.851V9.16H478.219V21H475.851V19.496ZM474.315 19.352C474.763 19.352 475.131 19.2453 475.419 19.032C475.707 18.8187 475.851 18.504 475.851 18.088V15.656C475.851 15.24 475.707 14.9253 475.419 14.712C475.131 14.4987 474.763 14.392 474.315 14.392C473.792 14.392 473.381 14.5573 473.083 14.888C472.795 15.208 472.651 15.656 472.651 16.232V17.512C472.651 18.088 472.795 18.5413 473.083 18.872C473.381 19.192 473.792 19.352 474.315 19.352ZM483.956 21.192C482.666 21.192 481.652 20.808 480.916 20.04C480.18 19.2613 479.812 18.2053 479.812 16.872C479.812 15.5387 480.18 14.488 480.916 13.72C481.652 12.9413 482.666 12.552 483.956 12.552C485.247 12.552 486.26 12.9413 486.996 13.72C487.732 14.488 488.1 15.5387 488.1 16.872C488.1 18.2053 487.732 19.2613 486.996 20.04C486.26 20.808 485.247 21.192 483.956 21.192ZM483.956 19.432C484.49 19.432 484.906 19.2667 485.204 18.936C485.503 18.6053 485.652 18.136 485.652 17.528V16.216C485.652 15.608 485.503 15.1387 485.204 14.808C484.906 14.4773 484.49 14.312 483.956 14.312C483.423 14.312 483.007 14.4773 482.708 14.808C482.41 15.1387 482.26 15.608 482.26 16.216V17.528C482.26 18.136 482.41 18.6053 482.708 18.936C483.007 19.2667 483.423 19.432 483.956 19.432ZM507 20.504C507 21.7413 506.642 22.696 505.928 23.368C505.224 24.0507 504.189 24.392 502.824 24.392C501.352 24.392 500.232 23.992 499.464 23.192L500.728 21.688C501.272 22.2533 501.949 22.536 502.76 22.536C503.389 22.536 503.858 22.376 504.168 22.056C504.477 21.7467 504.632 21.2987 504.632 20.712V19.064H504.52C504.296 19.608 503.986 20.0293 503.592 20.328C503.208 20.6267 502.701 20.776 502.072 20.776C501.122 20.776 500.365 20.4293 499.8 19.736C499.245 19.032 498.968 18.008 498.968 16.664C498.968 15.32 499.245 14.3013 499.8 13.608C500.365 12.904 501.122 12.552 502.072 12.552C502.701 12.552 503.208 12.7013 503.592 13C503.986 13.2987 504.296 13.7147 504.52 14.248H504.632V12.744H507V20.504ZM503.096 18.936C503.544 18.936 503.912 18.8293 504.2 18.616C504.488 18.4027 504.632 18.088 504.632 17.672V15.656C504.632 15.24 504.488 14.9253 504.2 14.712C503.912 14.4987 503.544 14.392 503.096 14.392C502.573 14.392 502.162 14.5573 501.864 14.888C501.576 15.208 501.432 15.656 501.432 16.232V17.08C501.432 17.656 501.576 18.1093 501.864 18.44C502.162 18.7707 502.573 18.936 503.096 18.936ZM509.122 19.16H511.026V14.584H509.122V12.744H513.394V15.08H513.506C513.9 13.5227 514.78 12.744 516.146 12.744H516.93V14.92H515.17C514.604 14.92 514.167 15.0907 513.858 15.432C513.548 15.7627 513.394 16.1893 513.394 16.712V19.16H516.114V21H509.122V19.16ZM524.107 9.08V11.608H521.563V9.08H524.107ZM519.035 19.16H521.659V14.584H519.035V12.744L524.027 12.744V19.16H526.459V21H519.035V19.16ZM533.413 19.496H533.301C533.077 20.0293 532.768 20.4453 532.373 20.744C531.989 21.0427 531.482 21.192 530.853 21.192C529.904 21.192 529.146 20.8347 528.581 20.12C528.026 19.3947 527.749 18.312 527.749 16.872C527.749 15.432 528.026 14.3547 528.581 13.64C529.146 12.9147 529.904 12.552 530.853 12.552C531.482 12.552 531.989 12.7013 532.373 13C532.768 13.2987 533.077 13.7147 533.301 14.248H533.413V9.16H535.781V21H533.413V19.496ZM531.877 19.352C532.325 19.352 532.693 19.2453 532.981 19.032C533.269 18.8187 533.413 18.504 533.413 18.088V15.656C533.413 15.24 533.269 14.9253 532.981 14.712C532.693 14.4987 532.325 14.392 531.877 14.392C531.354 14.392 530.944 14.5573 530.645 14.888C530.357 15.208 530.213 15.656 530.213 16.232V17.512C530.213 18.088 530.357 18.5413 530.645 18.872C530.944 19.192 531.354 19.352 531.877 19.352Z" fill="#12171A"/>
</g>
<path d="M418.96 203L418.256 200.312H415.2L414.512 203H412.08L415.104 191.832H418.496L421.52 203H418.96ZM416.8 194.152H416.672L415.584 198.376H417.888L416.8 194.152ZM417.008 191.32L415.6 190.632L417.504 186.888L419.472 187.864L417.008 191.32ZM422.778 201.16H424.682V196.584H422.778V194.744H427.05V197.08H427.162C427.556 195.523 428.436 194.744 429.802 194.744H430.586V196.92H428.826C428.26 196.92 427.823 197.091 427.514 197.432C427.204 197.763 427.05 198.189 427.05 198.712V201.16H429.77V203H422.778V201.16ZM436.212 203.192C434.846 203.192 433.801 202.813 433.076 202.056C432.35 201.299 431.988 200.248 431.988 198.904C431.988 197.549 432.345 196.488 433.06 195.72C433.785 194.941 434.766 194.552 436.004 194.552C437.23 194.552 438.201 194.931 438.916 195.688C439.63 196.435 439.988 197.453 439.988 198.744V199.448H434.34V199.592C434.34 200.136 434.51 200.568 434.852 200.888C435.193 201.208 435.673 201.368 436.292 201.368C437.166 201.368 437.892 201.027 438.468 200.344L439.748 201.736C439.396 202.173 438.926 202.525 438.34 202.792C437.753 203.059 437.044 203.192 436.212 203.192ZM436.02 196.248C435.508 196.248 435.097 196.408 434.788 196.728C434.489 197.037 434.34 197.459 434.34 197.992V198.12H437.668V197.992C437.668 197.459 437.518 197.037 437.22 196.728C436.932 196.408 436.532 196.248 436.02 196.248ZM448.573 203C448.083 203 447.683 202.872 447.373 202.616C447.075 202.36 446.904 202.003 446.861 201.544H446.781C446.643 202.077 446.349 202.488 445.901 202.776C445.453 203.053 444.909 203.192 444.269 203.192C443.459 203.192 442.813 202.973 442.333 202.536C441.853 202.099 441.613 201.496 441.613 200.728C441.613 199.032 442.851 198.184 445.325 198.184H446.653V197.768C446.653 197.267 446.536 196.893 446.301 196.648C446.067 196.403 445.683 196.28 445.149 196.28C444.68 196.28 444.285 196.371 443.965 196.552C443.656 196.733 443.379 196.989 443.133 197.32L441.837 196.168C442.125 195.677 442.573 195.288 443.181 195C443.789 194.701 444.536 194.552 445.421 194.552C446.563 194.552 447.448 194.819 448.077 195.352C448.707 195.875 449.021 196.648 449.021 197.672V200.744C449.021 200.893 449.075 201.021 449.181 201.128C449.288 201.235 449.416 201.288 449.565 201.288H449.933V203H448.573ZM445.165 201.64C445.603 201.64 445.96 201.539 446.237 201.336C446.515 201.123 446.653 200.829 446.653 200.456V199.464H445.389C444.92 199.464 444.557 199.549 444.301 199.72C444.056 199.88 443.933 200.12 443.933 200.44V200.76C443.933 201.048 444.04 201.267 444.253 201.416C444.477 201.565 444.781 201.64 445.165 201.64ZM466.257 201.496H466.145C465.921 202.029 465.611 202.445 465.217 202.744C464.833 203.043 464.326 203.192 463.697 203.192C462.747 203.192 461.99 202.835 461.425 202.12C460.87 201.395 460.593 200.312 460.593 198.872C460.593 197.432 460.87 196.355 461.425 195.64C461.99 194.915 462.747 194.552 463.697 194.552C464.326 194.552 464.833 194.701 465.217 195C465.611 195.299 465.921 195.715 466.145 196.248H466.257V191.16H468.625V203H466.257V201.496ZM464.721 201.352C465.169 201.352 465.537 201.245 465.825 201.032C466.113 200.819 466.257 200.504 466.257 200.088V197.656C466.257 197.24 466.113 196.925 465.825 196.712C465.537 196.499 465.169 196.392 464.721 196.392C464.198 196.392 463.787 196.557 463.489 196.888C463.201 197.208 463.057 197.656 463.057 198.232V199.512C463.057 200.088 463.201 200.541 463.489 200.872C463.787 201.192 464.198 201.352 464.721 201.352ZM474.363 203.192C473.072 203.192 472.059 202.808 471.323 202.04C470.587 201.261 470.219 200.205 470.219 198.872C470.219 197.539 470.587 196.488 471.323 195.72C472.059 194.941 473.072 194.552 474.363 194.552C475.653 194.552 476.667 194.941 477.403 195.72C478.139 196.488 478.507 197.539 478.507 198.872C478.507 200.205 478.139 201.261 477.403 202.04C476.667 202.808 475.653 203.192 474.363 203.192ZM474.363 201.432C474.896 201.432 475.312 201.267 475.611 200.936C475.909 200.605 476.059 200.136 476.059 199.528V198.216C476.059 197.608 475.909 197.139 475.611 196.808C475.312 196.477 474.896 196.312 474.363 196.312C473.829 196.312 473.413 196.477 473.115 196.808C472.816 197.139 472.667 197.608 472.667 198.216V199.528C472.667 200.136 472.816 200.605 473.115 200.936C473.413 201.267 473.829 201.432 474.363 201.432ZM497.406 202.504C497.406 203.741 497.049 204.696 496.334 205.368C495.63 206.051 494.595 206.392 493.23 206.392C491.758 206.392 490.638 205.992 489.87 205.192L491.134 203.688C491.678 204.253 492.355 204.536 493.166 204.536C493.795 204.536 494.265 204.376 494.574 204.056C494.883 203.747 495.038 203.299 495.038 202.712V201.064H494.926C494.702 201.608 494.393 202.029 493.998 202.328C493.614 202.627 493.107 202.776 492.478 202.776C491.529 202.776 490.771 202.429 490.206 201.736C489.651 201.032 489.374 200.008 489.374 198.664C489.374 197.32 489.651 196.301 490.206 195.608C490.771 194.904 491.529 194.552 492.478 194.552C493.107 194.552 493.614 194.701 493.998 195C494.393 195.299 494.702 195.715 494.926 196.248H495.038V194.744H497.406V202.504ZM493.502 200.936C493.95 200.936 494.318 200.829 494.606 200.616C494.894 200.403 495.038 200.088 495.038 199.672V197.656C495.038 197.24 494.894 196.925 494.606 196.712C494.318 196.499 493.95 196.392 493.502 196.392C492.979 196.392 492.569 196.557 492.27 196.888C491.982 197.208 491.838 197.656 491.838 198.232V199.08C491.838 199.656 491.982 200.109 492.27 200.44C492.569 200.771 492.979 200.936 493.502 200.936ZM499.528 201.16H501.432V196.584H499.528V194.744H503.8V197.08H503.912C504.306 195.523 505.186 194.744 506.552 194.744H507.336V196.92H505.576C505.01 196.92 504.573 197.091 504.264 197.432C503.954 197.763 503.8 198.189 503.8 198.712V201.16H506.52V203H499.528V201.16ZM514.514 191.08V193.608H511.97V191.08H514.514ZM509.442 201.16H512.066V196.584H509.442V194.744H514.434V201.16H516.866V203H509.442V201.16ZM523.819 201.496H523.707C523.483 202.029 523.174 202.445 522.779 202.744C522.395 203.043 521.889 203.192 521.259 203.192C520.31 203.192 519.553 202.835 518.987 202.12C518.433 201.395 518.155 200.312 518.155 198.872C518.155 197.432 518.433 196.355 518.987 195.64C519.553 194.915 520.31 194.552 521.259 194.552C521.889 194.552 522.395 194.701 522.779 195C523.174 195.299 523.483 195.715 523.707 196.248H523.819V191.16H526.187V203H523.819V201.496ZM522.283 201.352C522.731 201.352 523.099 201.245 523.387 201.032C523.675 200.819 523.819 200.504 523.819 200.088V197.656C523.819 197.24 523.675 196.925 523.387 196.712C523.099 196.499 522.731 196.392 522.283 196.392C521.761 196.392 521.35 196.557 521.051 196.888C520.763 197.208 520.619 197.656 520.619 198.232V199.512C520.619 200.088 520.763 200.541 521.051 200.872C521.35 201.192 521.761 201.352 522.283 201.352Z" fill="#EFF1F3"/>
</svg>
