<svg width="600" height="83" viewBox="0 0 600 83" fill="none" xmlns="http://www.w3.org/2000/svg">
<rect width="600" height="83" fill="white"/>
<path d="M15.056 27.192C13.584 27.192 12.48 26.696 11.744 25.704C11.0187 24.712 10.656 23.2827 10.656 21.416C10.656 19.5493 11.0187 18.12 11.744 17.128C12.48 16.136 13.584 15.64 15.056 15.64C17.2 15.64 18.5173 16.712 19.008 18.856L16.768 19.4C16.6293 18.8027 16.432 18.3493 16.176 18.04C15.92 17.7307 15.5307 17.576 15.008 17.576C14.3787 17.576 13.92 17.8213 13.632 18.312C13.3547 18.8027 13.216 19.512 13.216 20.44V22.392C13.216 23.32 13.3547 24.0293 13.632 24.52C13.92 25.0107 14.3787 25.256 15.008 25.256C15.5307 25.256 15.92 25.1013 16.176 24.792C16.432 24.4827 16.6293 24.0293 16.768 23.432L19.008 23.976C18.5173 26.12 17.2 27.192 15.056 27.192ZM27.3858 27C26.8951 27 26.4951 26.872 26.1858 26.616C25.8871 26.36 25.7164 26.0027 25.6738 25.544H25.5938C25.4551 26.0773 25.1618 26.488 24.7138 26.776C24.2658 27.0533 23.7218 27.192 23.0818 27.192C22.2711 27.192 21.6258 26.9733 21.1458 26.536C20.6658 26.0987 20.4258 25.496 20.4258 24.728C20.4258 23.032 21.6631 22.184 24.1378 22.184H25.4658V21.768C25.4658 21.2667 25.3484 20.8933 25.1138 20.648C24.8791 20.4027 24.4951 20.28 23.9618 20.28C23.4924 20.28 23.0978 20.3707 22.7778 20.552C22.4684 20.7333 22.1911 20.9893 21.9457 21.32L20.6497 20.168C20.9378 19.6773 21.3858 19.288 21.9938 19C22.6018 18.7013 23.3484 18.552 24.2338 18.552C25.3751 18.552 26.2604 18.8187 26.8898 19.352C27.5191 19.8747 27.8338 20.648 27.8338 21.672V24.744C27.8338 24.8933 27.8871 25.0213 27.9938 25.128C28.1004 25.2347 28.2284 25.288 28.3778 25.288H28.7458V27H27.3858ZM23.9778 25.64C24.4151 25.64 24.7724 25.5387 25.0498 25.336C25.3271 25.1227 25.4658 24.8293 25.4658 24.456V23.464H24.2018C23.7324 23.464 23.3698 23.5493 23.1138 23.72C22.8684 23.88 22.7458 24.12 22.7458 24.44V24.76C22.7458 25.048 22.8524 25.2667 23.0658 25.416C23.2898 25.5653 23.5938 25.64 23.9778 25.64ZM30.1315 15.16H32.4995V20.248H32.6115C32.8355 19.7147 33.1395 19.2987 33.5235 19C33.9182 18.7013 34.4302 18.552 35.0595 18.552C36.0088 18.552 36.7608 18.9147 37.3155 19.64C37.8808 20.3547 38.1635 21.432 38.1635 22.872C38.1635 24.312 37.8808 25.3947 37.3155 26.12C36.7608 26.8347 36.0088 27.192 35.0595 27.192C34.4302 27.192 33.9182 27.0427 33.5235 26.744C33.1395 26.4453 32.8355 26.0293 32.6115 25.496H32.4995V27H30.1315V15.16ZM34.0355 25.352C34.5582 25.352 34.9635 25.192 35.2515 24.872C35.5502 24.5413 35.6995 24.088 35.6995 23.512V22.232C35.6995 21.656 35.5502 21.208 35.2515 20.888C34.9635 20.5573 34.5582 20.392 34.0355 20.392C33.5875 20.392 33.2195 20.4987 32.9315 20.712C32.6435 20.9253 32.4995 21.24 32.4995 21.656V24.088C32.4995 24.504 32.6435 24.8187 32.9315 25.032C33.2195 25.2453 33.5875 25.352 34.0355 25.352ZM43.8053 27.192C42.4399 27.192 41.3946 26.8133 40.6693 26.056C39.9439 25.2987 39.5813 24.248 39.5813 22.904C39.5813 21.5493 39.9386 20.488 40.6533 19.72C41.3786 18.9413 42.3599 18.552 43.5973 18.552C44.8239 18.552 45.7946 18.9307 46.5093 19.688C47.2239 20.4347 47.5813 21.4533 47.5813 22.744V23.448H41.9333V23.592C41.9333 24.136 42.1039 24.568 42.4453 24.888C42.7866 25.208 43.2666 25.368 43.8853 25.368C44.7599 25.368 45.4853 25.0267 46.0613 24.344L47.3413 25.736C46.9893 26.1733 46.5199 26.5253 45.9333 26.792C45.3466 27.0587 44.6373 27.192 43.8053 27.192ZM43.6133 20.248C43.1013 20.248 42.6906 20.408 42.3813 20.728C42.0826 21.0373 41.9333 21.4587 41.9333 21.992V22.12H45.2613V21.992C45.2613 21.4587 45.1119 21.0373 44.8133 20.728C44.5253 20.408 44.1253 20.248 43.6133 20.248ZM53.495 18.552C55.1483 18.552 56.295 19.224 56.935 20.568L55.111 21.56C54.951 21.208 54.743 20.936 54.487 20.744C54.2417 20.5413 53.911 20.44 53.495 20.44C52.9617 20.44 52.5457 20.6 52.247 20.92C51.9483 21.2293 51.799 21.656 51.799 22.2V23.544C51.799 24.0987 51.9483 24.5307 52.247 24.84C52.5457 25.1493 52.9723 25.304 53.527 25.304C53.9537 25.304 54.3003 25.208 54.567 25.016C54.8443 24.8133 55.079 24.5253 55.271 24.152L57.063 25.176C56.7643 25.7947 56.3323 26.28 55.767 26.632C55.2123 26.984 54.5137 27.1707 53.671 27.192L53.527 27.88L53.591 27.944C53.8897 27.8693 54.1457 27.832 54.359 27.832C54.7003 27.832 54.9777 27.9227 55.191 28.104C55.415 28.2853 55.527 28.5627 55.527 28.936C55.527 29.4373 55.3243 29.8053 54.919 30.04C54.5243 30.2747 54.023 30.392 53.415 30.392C52.9137 30.392 52.4977 30.3227 52.167 30.184C51.8363 30.0453 51.591 29.88 51.431 29.688L52.167 28.792C52.423 29.1013 52.775 29.256 53.223 29.256C53.4363 29.256 53.607 29.2187 53.735 29.144C53.863 29.08 53.927 28.984 53.927 28.856C53.927 28.504 53.527 28.2907 52.727 28.216L52.391 28.184L52.615 27.112C51.5803 26.9413 50.775 26.488 50.199 25.752C49.623 25.0053 49.335 24.0453 49.335 22.872C49.335 21.5387 49.703 20.488 50.439 19.72C51.1857 18.9413 52.2043 18.552 53.495 18.552ZM65.7608 27C65.2701 27 64.8701 26.872 64.5608 26.616C64.2621 26.36 64.0914 26.0027 64.0488 25.544H63.9688C63.8301 26.0773 63.5368 26.488 63.0888 26.776C62.6408 27.0533 62.0968 27.192 61.4568 27.192C60.6461 27.192 60.0008 26.9733 59.5208 26.536C59.0408 26.0987 58.8008 25.496 58.8008 24.728C58.8008 23.032 60.0381 22.184 62.5128 22.184H63.8408V21.768C63.8408 21.2667 63.7234 20.8933 63.4888 20.648C63.2541 20.4027 62.8701 20.28 62.3368 20.28C61.8674 20.28 61.4728 20.3707 61.1528 20.552C60.8434 20.7333 60.5661 20.9893 60.3207 21.32L59.0247 20.168C59.3128 19.6773 59.7608 19.288 60.3688 19C60.9768 18.7013 61.7234 18.552 62.6088 18.552C63.7501 18.552 64.6354 18.8187 65.2648 19.352C65.8941 19.8747 66.2088 20.648 66.2088 21.672V24.744C66.2088 24.8933 66.2621 25.0213 66.3688 25.128C66.4754 25.2347 66.6034 25.288 66.7528 25.288H67.1208V27H65.7608ZM62.3528 25.64C62.7901 25.64 63.1474 25.5387 63.4248 25.336C63.7021 25.1227 63.8408 24.8293 63.8408 24.456V23.464H62.5768C62.1074 23.464 61.7448 23.5493 61.4888 23.72C61.2434 23.88 61.1208 24.12 61.1208 24.44V24.76C61.1208 25.048 61.2274 25.2667 61.4408 25.416C61.6648 25.5653 61.9688 25.64 62.3528 25.64ZM68.6505 25.16H71.1785V17H68.6505V15.16H73.5465V25.16H76.0745V27H68.6505V25.16ZM78.1963 15.16H80.5643V20.248H80.6603C80.8629 19.736 81.1616 19.3253 81.5563 19.016C81.9616 18.7067 82.4736 18.552 83.0923 18.552C83.9029 18.552 84.5536 18.824 85.0443 19.368C85.5349 19.912 85.7803 20.6747 85.7803 21.656V27H83.4123V21.976C83.4123 21.4533 83.2949 21.0587 83.0603 20.792C82.8256 20.5147 82.4789 20.376 82.0203 20.376C81.6256 20.376 81.2843 20.4827 80.9963 20.696C80.7083 20.9093 80.5643 21.2027 80.5643 21.576V27H78.1963V15.16ZM91.55 27.192C90.2593 27.192 89.246 26.808 88.51 26.04C87.774 25.2613 87.406 24.2053 87.406 22.872C87.406 21.5387 87.774 20.488 88.51 19.72C89.246 18.9413 90.2593 18.552 91.55 18.552C92.8407 18.552 93.854 18.9413 94.59 19.72C95.326 20.488 95.694 21.5387 95.694 22.872C95.694 24.2053 95.326 25.2613 94.59 26.04C93.854 26.808 92.8407 27.192 91.55 27.192ZM91.55 25.432C92.0833 25.432 92.4993 25.2667 92.798 24.936C93.0967 24.6053 93.246 24.136 93.246 23.528V22.216C93.246 21.608 93.0967 21.1387 92.798 20.808C92.4993 20.4773 92.0833 20.312 91.55 20.312C91.0167 20.312 90.6007 20.4773 90.302 20.808C90.0033 21.1387 89.854 21.608 89.854 22.216V23.528C89.854 24.136 90.0033 24.6053 90.302 24.936C90.6007 25.2667 91.0167 25.432 91.55 25.432Z" fill="black"/>
<path d="M15.056 69.192C13.584 69.192 12.48 68.696 11.744 67.704C11.0187 66.712 10.656 65.2827 10.656 63.416C10.656 61.5493 11.0187 60.12 11.744 59.128C12.48 58.136 13.584 57.64 15.056 57.64C17.2 57.64 18.5173 58.712 19.008 60.856L16.768 61.4C16.6293 60.8027 16.432 60.3493 16.176 60.04C15.92 59.7307 15.5307 59.576 15.008 59.576C14.3787 59.576 13.92 59.8213 13.632 60.312C13.3547 60.8027 13.216 61.512 13.216 62.44V64.392C13.216 65.32 13.3547 66.0293 13.632 66.52C13.92 67.0107 14.3787 67.256 15.008 67.256C15.5307 67.256 15.92 67.1013 16.176 66.792C16.432 66.4827 16.6293 66.0293 16.768 65.432L19.008 65.976C18.5173 68.12 17.2 69.192 15.056 69.192ZM24.3938 69.192C23.1031 69.192 22.0898 68.808 21.3538 68.04C20.6178 67.2613 20.2498 66.2053 20.2498 64.872C20.2498 63.5387 20.6178 62.488 21.3538 61.72C22.0898 60.9413 23.1031 60.552 24.3938 60.552C25.6844 60.552 26.6978 60.9413 27.4338 61.72C28.1698 62.488 28.5378 63.5387 28.5378 64.872C28.5378 66.2053 28.1698 67.2613 27.4338 68.04C26.6978 68.808 25.6844 69.192 24.3938 69.192ZM24.3938 67.432C24.9271 67.432 25.3431 67.2667 25.6418 66.936C25.9404 66.6053 26.0898 66.136 26.0898 65.528V64.216C26.0898 63.608 25.9404 63.1387 25.6418 62.808C25.3431 62.4773 24.9271 62.312 24.3938 62.312C23.8604 62.312 23.4444 62.4773 23.1458 62.808C22.8471 63.1387 22.6978 63.608 22.6978 64.216V65.528C22.6978 66.136 22.8471 66.6053 23.1458 66.936C23.4444 67.2667 23.8604 67.432 24.3938 67.432ZM30.2275 69V60.744H32.5955V62.248H32.6915C32.8942 61.736 33.1928 61.3253 33.5875 61.016C33.9928 60.7067 34.5048 60.552 35.1235 60.552C35.9342 60.552 36.5848 60.824 37.0755 61.368C37.5662 61.912 37.8115 62.6747 37.8115 63.656V69H35.4435V63.976C35.4435 63.4533 35.3262 63.0587 35.0915 62.792C34.8568 62.5147 34.5102 62.376 34.0515 62.376C33.6568 62.376 33.3155 62.4827 33.0275 62.696C32.7395 62.9093 32.5955 63.2027 32.5955 63.576V69H30.2275ZM44.0613 66.616C44.0613 66.7653 44.1146 66.8933 44.2213 67C44.3279 67.1067 44.4559 67.16 44.6053 67.16H47.2773V69H44.2213C43.3893 69 42.7599 68.7867 42.3333 68.36C41.9066 67.9227 41.6933 67.3413 41.6933 66.616V62.584H39.4533V60.744H41.6933V57.832H44.0613V60.744H47.2773V62.584H44.0613V66.616ZM53.399 69.192C52.0337 69.192 50.9883 68.8133 50.263 68.056C49.5377 67.2987 49.175 66.248 49.175 64.904C49.175 63.5493 49.5323 62.488 50.247 61.72C50.9723 60.9413 51.9537 60.552 53.191 60.552C54.4177 60.552 55.3883 60.9307 56.103 61.688C56.8177 62.4347 57.175 63.4533 57.175 64.744V65.448H51.527V65.592C51.527 66.136 51.6977 66.568 52.039 66.888C52.3803 67.208 52.8603 67.368 53.479 67.368C54.3537 67.368 55.079 67.0267 55.655 66.344L56.935 67.736C56.583 68.1733 56.1137 68.5253 55.527 68.792C54.9403 69.0587 54.231 69.192 53.399 69.192ZM53.207 62.248C52.695 62.248 52.2843 62.408 51.975 62.728C51.6763 63.0373 51.527 63.4587 51.527 63.992V64.12H54.855V63.992C54.855 63.4587 54.7057 63.0373 54.407 62.728C54.119 62.408 53.719 62.248 53.207 62.248ZM64.1608 67.496H64.0648C63.8621 68.008 63.5581 68.4187 63.1528 68.728C62.7581 69.0373 62.2514 69.192 61.6328 69.192C60.8221 69.192 60.1714 68.92 59.6808 68.376C59.1901 67.832 58.9448 67.0693 58.9448 66.088V60.744H61.3128V65.768C61.3128 66.2907 61.4301 66.6907 61.6648 66.968C61.8994 67.2347 62.2461 67.368 62.7048 67.368C63.0994 67.368 63.4408 67.2613 63.7288 67.048C64.0168 66.8347 64.1608 66.5413 64.1608 66.168V60.744H66.5288V69H64.1608V67.496ZM62.9928 60.04L61.5848 59.352L63.4888 55.768L65.4568 56.744L62.9928 60.04ZM73.8505 67.496H73.7385C73.5145 68.0293 73.2052 68.4453 72.8105 68.744C72.4265 69.0427 71.9198 69.192 71.2905 69.192C70.3412 69.192 69.5838 68.8347 69.0185 68.12C68.4638 67.3947 68.1865 66.312 68.1865 64.872C68.1865 63.432 68.4638 62.3547 69.0185 61.64C69.5838 60.9147 70.3412 60.552 71.2905 60.552C71.9198 60.552 72.4265 60.7013 72.8105 61C73.2052 61.2987 73.5145 61.7147 73.7385 62.248H73.8505V57.16H76.2185V69H73.8505V67.496ZM72.3145 67.352C72.7625 67.352 73.1305 67.2453 73.4185 67.032C73.7065 66.8187 73.8505 66.504 73.8505 66.088V63.656C73.8505 63.24 73.7065 62.9253 73.4185 62.712C73.1305 62.4987 72.7625 62.392 72.3145 62.392C71.7918 62.392 71.3812 62.5573 71.0825 62.888C70.7945 63.208 70.6505 63.656 70.6505 64.232V65.512C70.6505 66.088 70.7945 66.5413 71.0825 66.872C71.3812 67.192 71.7918 67.352 72.3145 67.352ZM81.9563 69.192C80.6656 69.192 79.6523 68.808 78.9163 68.04C78.1803 67.2613 77.8123 66.2053 77.8123 64.872C77.8123 63.5387 78.1803 62.488 78.9163 61.72C79.6523 60.9413 80.6656 60.552 81.9563 60.552C83.2469 60.552 84.2603 60.9413 84.9963 61.72C85.7323 62.488 86.1003 63.5387 86.1003 64.872C86.1003 66.2053 85.7323 67.2613 84.9963 68.04C84.2603 68.808 83.2469 69.192 81.9563 69.192ZM81.9563 67.432C82.4896 67.432 82.9056 67.2667 83.2043 66.936C83.5029 66.6053 83.6523 66.136 83.6523 65.528V64.216C83.6523 63.608 83.5029 63.1387 83.2043 62.808C82.9056 62.4773 82.4896 62.312 81.9563 62.312C81.4229 62.312 81.0069 62.4773 80.7083 62.808C80.4096 63.1387 80.2603 63.608 80.2603 64.216V65.528C80.2603 66.136 80.4096 66.6053 80.7083 66.936C81.0069 67.2667 81.4229 67.432 81.9563 67.432Z" fill="black"/>
<path d="M286.232 15.832H290.152C291.229 15.832 292.061 16.0987 292.648 16.632C293.245 17.1653 293.544 17.8907 293.544 18.808C293.544 20.024 292.936 20.808 291.72 21.16V21.256C293.171 21.608 293.896 22.4987 293.896 23.928C293.896 24.8667 293.592 25.6133 292.984 26.168C292.387 26.7227 291.565 27 290.52 27H286.232V15.832ZM289.48 20.568C290.056 20.568 290.467 20.472 290.712 20.28C290.968 20.088 291.096 19.752 291.096 19.272V18.792C291.096 18.312 290.968 17.9813 290.712 17.8C290.467 17.608 290.056 17.512 289.48 17.512H288.568V20.568H289.48ZM289.784 25.32C290.371 25.32 290.792 25.224 291.048 25.032C291.315 24.8293 291.448 24.4773 291.448 23.976V23.512C291.448 23.0213 291.315 22.6747 291.048 22.472C290.792 22.2693 290.371 22.168 289.784 22.168H288.568V25.32H289.784ZM302.386 27C301.895 27 301.495 26.872 301.186 26.616C300.887 26.36 300.716 26.0027 300.674 25.544H300.594C300.455 26.0773 300.162 26.488 299.714 26.776C299.266 27.0533 298.722 27.192 298.082 27.192C297.271 27.192 296.626 26.9733 296.146 26.536C295.666 26.0987 295.426 25.496 295.426 24.728C295.426 23.032 296.663 22.184 299.138 22.184H300.466V21.768C300.466 21.2667 300.348 20.8933 300.114 20.648C299.879 20.4027 299.495 20.28 298.962 20.28C298.492 20.28 298.098 20.3707 297.778 20.552C297.468 20.7333 297.191 20.9893 296.946 21.32L295.65 20.168C295.938 19.6773 296.386 19.288 296.994 19C297.602 18.7013 298.348 18.552 299.234 18.552C300.375 18.552 301.26 18.8187 301.89 19.352C302.519 19.8747 302.834 20.648 302.834 21.672V24.744C302.834 24.8933 302.887 25.0213 302.994 25.128C303.1 25.2347 303.228 25.288 303.378 25.288H303.746V27H302.386ZM298.978 25.64C299.415 25.64 299.772 25.5387 300.05 25.336C300.327 25.1227 300.466 24.8293 300.466 24.456V23.464H299.202C298.732 23.464 298.37 23.5493 298.114 23.72C297.868 23.88 297.746 24.12 297.746 24.44V24.76C297.746 25.048 297.852 25.2667 298.066 25.416C298.29 25.5653 298.594 25.64 298.978 25.64ZM305.372 25.16H307.276V20.584H305.372V18.744H309.644V21.08H309.756C310.15 19.5227 311.03 18.744 312.396 18.744H313.18V20.92H311.42C310.854 20.92 310.417 21.0907 310.108 21.432C309.798 21.7627 309.644 22.1893 309.644 22.712V25.16H312.364V27H305.372V25.16ZM314.965 25.16H316.869V20.584H314.965V18.744H319.237V21.08H319.349C319.744 19.5227 320.624 18.744 321.989 18.744H322.773V20.92H321.013C320.448 20.92 320.011 21.0907 319.701 21.432C319.392 21.7627 319.237 22.1893 319.237 22.712V25.16H321.957V27H314.965V25.16ZM331.167 27C330.676 27 330.276 26.872 329.967 26.616C329.668 26.36 329.498 26.0027 329.455 25.544H329.375C329.236 26.0773 328.943 26.488 328.495 26.776C328.047 27.0533 327.503 27.192 326.863 27.192C326.052 27.192 325.407 26.9733 324.927 26.536C324.447 26.0987 324.207 25.496 324.207 24.728C324.207 23.032 325.444 22.184 327.919 22.184H329.247V21.768C329.247 21.2667 329.13 20.8933 328.895 20.648C328.66 20.4027 328.276 20.28 327.743 20.28C327.274 20.28 326.879 20.3707 326.559 20.552C326.25 20.7333 325.972 20.9893 325.727 21.32L324.431 20.168C324.719 19.6773 325.167 19.288 325.775 19C326.383 18.7013 327.13 18.552 328.015 18.552C329.156 18.552 330.042 18.8187 330.671 19.352C331.3 19.8747 331.615 20.648 331.615 21.672V24.744C331.615 24.8933 331.668 25.0213 331.775 25.128C331.882 25.2347 332.01 25.288 332.159 25.288H332.527V27H331.167ZM327.759 25.64C328.196 25.64 328.554 25.5387 328.831 25.336C329.108 25.1227 329.247 24.8293 329.247 24.456V23.464H327.983C327.514 23.464 327.151 23.5493 326.895 23.72C326.65 23.88 326.527 24.12 326.527 24.44V24.76C326.527 25.048 326.634 25.2667 326.847 25.416C327.071 25.5653 327.375 25.64 327.759 25.64ZM343.651 25.16H346.179V17H343.651V15.16H348.547V25.16H351.075V27H343.651V25.16ZM359.948 27C359.458 27 359.058 26.872 358.748 26.616C358.45 26.36 358.279 26.0027 358.236 25.544H358.156C358.018 26.0773 357.724 26.488 357.276 26.776C356.828 27.0533 356.284 27.192 355.644 27.192C354.834 27.192 354.188 26.9733 353.708 26.536C353.228 26.0987 352.988 25.496 352.988 24.728C352.988 23.032 354.226 22.184 356.7 22.184H358.028V21.768C358.028 21.2667 357.911 20.8933 357.676 20.648C357.442 20.4027 357.058 20.28 356.524 20.28C356.055 20.28 355.66 20.3707 355.34 20.552C355.031 20.7333 354.754 20.9893 354.508 21.32L353.212 20.168C353.5 19.6773 353.948 19.288 354.556 19C355.164 18.7013 355.911 18.552 356.796 18.552C357.938 18.552 358.823 18.8187 359.452 19.352C360.082 19.8747 360.396 20.648 360.396 21.672V24.744C360.396 24.8933 360.45 25.0213 360.556 25.128C360.663 25.2347 360.791 25.288 360.94 25.288H361.308V27H359.948ZM356.54 25.64C356.978 25.64 357.335 25.5387 357.612 25.336C357.89 25.1227 358.028 24.8293 358.028 24.456V23.464H356.764C356.295 23.464 355.932 23.5493 355.676 23.72C355.431 23.88 355.308 24.12 355.308 24.44V24.76C355.308 25.048 355.415 25.2667 355.628 25.416C355.852 25.5653 356.156 25.64 356.54 25.64ZM367.03 24.616C367.03 24.7653 367.083 24.8933 367.19 25C367.297 25.1067 367.425 25.16 367.574 25.16H370.246V27H367.19C366.358 27 365.729 26.7867 365.302 26.36C364.875 25.9227 364.662 25.3413 364.662 24.616V20.584H362.422V18.744H364.662V15.832H367.03V18.744H370.246V20.584H367.03V24.616ZM376.368 27.192C375.002 27.192 373.957 26.8133 373.232 26.056C372.506 25.2987 372.144 24.248 372.144 22.904C372.144 21.5493 372.501 20.488 373.216 19.72C373.941 18.9413 374.922 18.552 376.16 18.552C377.386 18.552 378.357 18.9307 379.072 19.688C379.786 20.4347 380.144 21.4533 380.144 22.744V23.448H374.496V23.592C374.496 24.136 374.666 24.568 375.008 24.888C375.349 25.208 375.829 25.368 376.448 25.368C377.322 25.368 378.048 25.0267 378.624 24.344L379.904 25.736C379.552 26.1733 379.082 26.5253 378.496 26.792C377.909 27.0587 377.2 27.192 376.368 27.192ZM376.176 20.248C375.664 20.248 375.253 20.408 374.944 20.728C374.645 21.0373 374.496 21.4587 374.496 21.992V22.12H377.824V21.992C377.824 21.4587 377.674 21.0373 377.376 20.728C377.088 20.408 376.688 20.248 376.176 20.248ZM382.122 25.16H384.026V20.584H382.122V18.744H386.394V21.08H386.506C386.9 19.5227 387.78 18.744 389.146 18.744H389.93V20.92H388.17C387.604 20.92 387.167 21.0907 386.858 21.432C386.548 21.7627 386.394 22.1893 386.394 22.712V25.16H389.114V27H382.122V25.16ZM398.323 27C397.833 27 397.433 26.872 397.123 26.616C396.825 26.36 396.654 26.0027 396.611 25.544H396.531C396.393 26.0773 396.099 26.488 395.651 26.776C395.203 27.0533 394.659 27.192 394.019 27.192C393.209 27.192 392.563 26.9733 392.083 26.536C391.603 26.0987 391.363 25.496 391.363 24.728C391.363 23.032 392.601 22.184 395.075 22.184H396.403V21.768C396.403 21.2667 396.286 20.8933 396.051 20.648C395.817 20.4027 395.433 20.28 394.899 20.28C394.43 20.28 394.035 20.3707 393.715 20.552C393.406 20.7333 393.129 20.9893 392.883 21.32L391.587 20.168C391.875 19.6773 392.323 19.288 392.931 19C393.539 18.7013 394.286 18.552 395.171 18.552C396.313 18.552 397.198 18.8187 397.827 19.352C398.457 19.8747 398.771 20.648 398.771 21.672V24.744C398.771 24.8933 398.825 25.0213 398.931 25.128C399.038 25.2347 399.166 25.288 399.315 25.288H399.683V27H398.323ZM394.915 25.64C395.353 25.64 395.71 25.5387 395.987 25.336C396.265 25.1227 396.403 24.8293 396.403 24.456V23.464H395.139C394.67 23.464 394.307 23.5493 394.051 23.72C393.806 23.88 393.683 24.12 393.683 24.44V24.76C393.683 25.048 393.79 25.2667 394.003 25.416C394.227 25.5653 394.531 25.64 394.915 25.64ZM401.213 25.16H403.741V17H401.213V15.16H406.109V25.16H408.637V27H401.213V25.16Z" fill="black"/>
<path d="M288.584 69H286.216V57.832H290.536C291.624 57.832 292.467 58.152 293.064 58.792C293.661 59.4213 293.96 60.2853 293.96 61.384C293.96 62.1733 293.784 62.856 293.432 63.432C293.091 63.9973 292.611 64.3653 291.992 64.536L294.184 69H291.56L289.688 64.856H288.584V69ZM289.96 63C290.515 63 290.904 62.8933 291.128 62.68C291.352 62.4667 291.464 62.1147 291.464 61.624V61.144C291.464 60.6533 291.352 60.3013 291.128 60.088C290.904 59.8747 290.515 59.768 289.96 59.768H288.584V63H289.96ZM299.394 69.192C298.103 69.192 297.09 68.808 296.354 68.04C295.618 67.2613 295.25 66.2053 295.25 64.872C295.25 63.5387 295.618 62.488 296.354 61.72C297.09 60.9413 298.103 60.552 299.394 60.552C300.684 60.552 301.698 60.9413 302.434 61.72C303.17 62.488 303.538 63.5387 303.538 64.872C303.538 66.2053 303.17 67.2613 302.434 68.04C301.698 68.808 300.684 69.192 299.394 69.192ZM299.394 67.432C299.927 67.432 300.343 67.2667 300.642 66.936C300.94 66.6053 301.09 66.136 301.09 65.528V64.216C301.09 63.608 300.94 63.1387 300.642 62.808C300.343 62.4773 299.927 62.312 299.394 62.312C298.86 62.312 298.444 62.4773 298.146 62.808C297.847 63.1387 297.698 63.608 297.698 64.216V65.528C297.698 66.136 297.847 66.6053 298.146 66.936C298.444 67.2667 298.86 67.432 299.394 67.432ZM310.476 67.496H310.364C310.14 68.0293 309.83 68.4453 309.436 68.744C309.052 69.0427 308.545 69.192 307.916 69.192C306.966 69.192 306.209 68.8347 305.644 68.12C305.089 67.3947 304.812 66.312 304.812 64.872C304.812 63.432 305.089 62.3547 305.644 61.64C306.209 60.9147 306.966 60.552 307.916 60.552C308.545 60.552 309.052 60.7013 309.436 61C309.83 61.2987 310.14 61.7147 310.364 62.248H310.476V57.16H312.844V69H310.476V67.496ZM308.94 67.352C309.388 67.352 309.756 67.2453 310.044 67.032C310.332 66.8187 310.476 66.504 310.476 66.088V63.656C310.476 63.24 310.332 62.9253 310.044 62.712C309.756 62.4987 309.388 62.392 308.94 62.392C308.417 62.392 308.006 62.5573 307.708 62.888C307.42 63.208 307.276 63.656 307.276 64.232V65.512C307.276 66.088 307.42 66.5413 307.708 66.872C308.006 67.192 308.417 67.352 308.94 67.352ZM321.573 69C321.083 69 320.683 68.872 320.373 68.616C320.075 68.36 319.904 68.0027 319.861 67.544H319.781C319.643 68.0773 319.349 68.488 318.901 68.776C318.453 69.0533 317.909 69.192 317.269 69.192C316.459 69.192 315.813 68.9733 315.333 68.536C314.853 68.0987 314.613 67.496 314.613 66.728C314.613 65.032 315.851 64.184 318.325 64.184H319.653V63.768C319.653 63.2667 319.536 62.8933 319.301 62.648C319.067 62.4027 318.683 62.28 318.149 62.28C317.68 62.28 317.285 62.3707 316.965 62.552C316.656 62.7333 316.379 62.9893 316.133 63.32L314.837 62.168C315.125 61.6773 315.573 61.288 316.181 61C316.789 60.7013 317.536 60.552 318.421 60.552C319.563 60.552 320.448 60.8187 321.077 61.352C321.707 61.8747 322.021 62.648 322.021 63.672V66.744C322.021 66.8933 322.075 67.0213 322.181 67.128C322.288 67.2347 322.416 67.288 322.565 67.288H322.933V69H321.573ZM318.165 67.64C318.603 67.64 318.96 67.5387 319.237 67.336C319.515 67.1227 319.653 66.8293 319.653 66.456V65.464H318.389C317.92 65.464 317.557 65.5493 317.301 65.72C317.056 65.88 316.933 66.12 316.933 66.44V66.76C316.933 67.048 317.04 67.2667 317.253 67.416C317.477 67.5653 317.781 67.64 318.165 67.64ZM324.319 60.744H326.687V62.248H326.799C327.023 61.7147 327.327 61.2987 327.711 61C328.106 60.7013 328.618 60.552 329.247 60.552C330.196 60.552 330.948 60.9147 331.503 61.64C332.068 62.3547 332.351 63.432 332.351 64.872C332.351 66.312 332.068 67.3947 331.503 68.12C330.948 68.8347 330.196 69.192 329.247 69.192C328.618 69.192 328.106 69.0427 327.711 68.744C327.327 68.4453 327.023 68.0293 326.799 67.496H326.687V72.2H324.319V60.744ZM328.223 67.352C328.746 67.352 329.151 67.192 329.439 66.872C329.738 66.5413 329.887 66.088 329.887 65.512V64.232C329.887 63.656 329.738 63.208 329.439 62.888C329.151 62.5573 328.746 62.392 328.223 62.392C327.775 62.392 327.407 62.4987 327.119 62.712C326.831 62.9253 326.687 63.24 326.687 63.656V66.088C326.687 66.504 326.831 66.8187 327.119 67.032C327.407 67.2453 327.775 67.352 328.223 67.352ZM337.993 69.192C336.627 69.192 335.582 68.8133 334.857 68.056C334.131 67.2987 333.769 66.248 333.769 64.904C333.769 63.5493 334.126 62.488 334.841 61.72C335.566 60.9413 336.547 60.552 337.785 60.552C339.011 60.552 339.982 60.9307 340.697 61.688C341.411 62.4347 341.769 63.4533 341.769 64.744V65.448H336.121V65.592C336.121 66.136 336.291 66.568 336.633 66.888C336.974 67.208 337.454 67.368 338.073 67.368C338.947 67.368 339.673 67.0267 340.249 66.344L341.529 67.736C341.177 68.1733 340.707 68.5253 340.121 68.792C339.534 69.0587 338.825 69.192 337.993 69.192ZM337.801 62.248C337.289 62.248 336.878 62.408 336.569 62.728C336.27 63.0373 336.121 63.4587 336.121 63.992V64.12H339.449V63.992C339.449 63.4587 339.299 63.0373 339.001 62.728C338.713 62.408 338.313 62.248 337.801 62.248ZM338.041 60.04L336.633 59.352L338.537 55.768L340.505 56.744L338.041 60.04Z" fill="black"/>
</svg>
