<svg width="600" height="341" viewBox="0 0 600 341" fill="none" xmlns="http://www.w3.org/2000/svg">
<rect y="41" width="500" height="300" rx="10" fill="#E2E8F0"/>
<rect width="154" height="29" rx="10" fill="#E2E8F0"/>
<path d="M5.88281 16.7109V16.875C5.88281 17.4896 5.96094 18.0599 6.11719 18.5859C6.27865 19.1068 6.50781 19.5573 6.80469 19.9375C7.10156 20.3177 7.45833 20.6172 7.875 20.8359C8.29688 21.0495 8.77083 21.1562 9.29688 21.1562C9.5625 21.1562 9.8099 21.1276 10.0391 21.0703C10.2734 21.013 10.487 20.9323 10.6797 20.8281C10.8099 20.7552 10.9323 20.6719 11.0469 20.5781C11.1615 20.4844 11.2708 20.3802 11.375 20.2656V20.75C11.375 21.0365 11.3333 21.2943 11.25 21.5234C11.1719 21.7526 11.0573 21.9453 10.9062 22.1016C10.7396 22.2734 10.5312 22.4036 10.2812 22.4922C10.0365 22.5807 9.75521 22.625 9.4375 22.625C9.23958 22.625 9.04688 22.6042 8.85938 22.5625C8.67708 22.526 8.5 22.4688 8.32812 22.3906C8.15104 22.3125 7.98177 22.2109 7.82031 22.0859C7.65885 21.9661 7.50781 21.8255 7.36719 21.6641L6.39062 22.9844C6.57292 23.2188 6.79167 23.4193 7.04687 23.5859C7.30208 23.7578 7.57292 23.8984 7.85937 24.0078C8.14583 24.1172 8.4349 24.1979 8.72656 24.25C9.01823 24.3021 9.29167 24.3281 9.54688 24.3281C10.1406 24.3281 10.6823 24.2474 11.1719 24.0859C11.6667 23.9297 12.0911 23.6979 12.4453 23.3906C12.7943 23.0833 13.0651 22.7057 13.2578 22.2578C13.4557 21.8099 13.5547 21.2995 13.5547 20.7266L13.5547 12.5469H11.5781L11.4922 13.3516C11.388 13.2214 11.2734 13.1042 11.1484 13C11.0234 12.8906 10.888 12.7969 10.7422 12.7188C10.5495 12.6094 10.3333 12.5286 10.0938 12.4766C9.85938 12.4193 9.59896 12.3906 9.3125 12.3906C8.78125 12.3906 8.30469 12.4948 7.88281 12.7031C7.46094 12.9115 7.10156 13.2057 6.80469 13.5859C6.50781 13.9661 6.27865 14.4219 6.11719 14.9531C5.96094 15.4844 5.88281 16.0703 5.88281 16.7109ZM8.0625 16.875V16.7109C8.0625 16.3568 8.09896 16.026 8.17188 15.7188C8.24479 15.4062 8.35677 15.1328 8.50781 14.8984C8.65365 14.6693 8.83854 14.4896 9.0625 14.3594C9.28646 14.224 9.55208 14.1562 9.85938 14.1562C10.026 14.1562 10.1797 14.1719 10.3203 14.2031C10.4661 14.2344 10.599 14.2786 10.7188 14.3359C10.8594 14.4036 10.9844 14.4922 11.0938 14.6016C11.2031 14.7109 11.2969 14.8385 11.375 14.9844V18.5625C11.3021 18.6927 11.2161 18.8099 11.1172 18.9141C11.0182 19.0182 10.9036 19.1068 10.7734 19.1797C10.6484 19.2474 10.5078 19.2995 10.3516 19.3359C10.2005 19.3724 10.0312 19.3906 9.84375 19.3906C9.53646 19.3906 9.27083 19.3255 9.04688 19.1953C8.82292 19.0651 8.63802 18.8854 8.49219 18.6562C8.34635 18.4323 8.23698 18.1693 8.16406 17.8672C8.09635 17.5599 8.0625 17.2292 8.0625 16.875ZM20.9922 21H23.1953V20.8672C23.0859 20.6536 23.0026 20.3984 22.9453 20.1016C22.888 19.8047 22.8594 19.4297 22.8594 18.9766V15.3516C22.8594 14.862 22.7682 14.4323 22.5859 14.0625C22.4036 13.6875 22.151 13.3776 21.8281 13.1328C21.5052 12.888 21.1224 12.7031 20.6797 12.5781C20.2422 12.4531 19.7682 12.3906 19.2578 12.3906C18.6901 12.3906 18.1849 12.4635 17.7422 12.6094C17.3047 12.75 16.9349 12.9427 16.6328 13.1875C16.3255 13.4323 16.0911 13.7161 15.9297 14.0391C15.7734 14.362 15.6953 14.7031 15.6953 15.0625H17.8672C17.8672 14.9115 17.888 14.7734 17.9297 14.6484C17.9766 14.5234 18.0469 14.4167 18.1406 14.3281C18.2448 14.2292 18.3802 14.1536 18.5469 14.1016C18.7135 14.0443 18.9115 14.0156 19.1406 14.0156C19.401 14.0156 19.6276 14.0495 19.8203 14.1172C20.0182 14.1797 20.1823 14.2708 20.3125 14.3906C20.4375 14.5052 20.5312 14.6432 20.5938 14.8047C20.6562 14.9609 20.6875 15.138 20.6875 15.3359V15.8359H19.4766C18.8516 15.8359 18.2969 15.8932 17.8125 16.0078C17.3333 16.1172 16.9297 16.2786 16.6016 16.4922C16.237 16.7266 15.9635 17.026 15.7812 17.3906C15.599 17.75 15.5078 18.1641 15.5078 18.6328C15.5078 18.9974 15.5807 19.3359 15.7266 19.6484C15.8724 19.9557 16.0755 20.2214 16.3359 20.4453C16.5964 20.6693 16.9062 20.8438 17.2656 20.9688C17.6302 21.0938 18.0286 21.1562 18.4609 21.1562C18.7266 21.1562 18.974 21.1302 19.2031 21.0781C19.4323 21.0312 19.6432 20.9635 19.8359 20.875C20.0234 20.7917 20.1953 20.6927 20.3516 20.5781C20.5078 20.4635 20.6458 20.3411 20.7656 20.2109C20.7917 20.362 20.8229 20.5052 20.8594 20.6406C20.8958 20.776 20.9401 20.8958 20.9922 21ZM18.9219 19.4766C18.7188 19.4766 18.5391 19.4531 18.3828 19.4062C18.2318 19.3542 18.1042 19.2865 18 19.2031C17.8958 19.1146 17.8151 19.0078 17.7578 18.8828C17.7057 18.7526 17.6797 18.612 17.6797 18.4609C17.6797 18.2682 17.7161 18.0911 17.7891 17.9297C17.862 17.763 17.974 17.6198 18.125 17.5C18.276 17.3854 18.4714 17.2969 18.7109 17.2344C18.9505 17.1667 19.2396 17.1328 19.5781 17.1328H20.6875V18.5859C20.625 18.6953 20.5391 18.8047 20.4297 18.9141C20.3203 19.0182 20.1901 19.112 20.0391 19.1953C19.888 19.2786 19.7188 19.3464 19.5312 19.3984C19.3438 19.4505 19.1406 19.4766 18.9219 19.4766ZM25.3516 24.25H27.5234V20.2656C27.6224 20.375 27.7266 20.474 27.8359 20.5625C27.9453 20.651 28.0599 20.7318 28.1797 20.8047C28.3828 20.9193 28.6016 21.0052 28.8359 21.0625C29.0755 21.125 29.3359 21.1562 29.6172 21.1562C30.1484 21.1562 30.6198 21.0469 31.0312 20.8281C31.4427 20.6094 31.7891 20.3073 32.0703 19.9219C32.3464 19.5417 32.5547 19.0885 32.6953 18.5625C32.8411 18.0365 32.9141 17.4661 32.9141 16.8516V16.6875C32.9141 16.0469 32.8411 15.4635 32.6953 14.9375C32.5547 14.4063 32.3438 13.9505 32.0625 13.5703C31.7812 13.1953 31.4349 12.9063 31.0234 12.7031C30.612 12.4948 30.138 12.3906 29.6016 12.3906C29.3411 12.3906 29.0964 12.4193 28.8672 12.4766C28.6432 12.5286 28.4375 12.6042 28.25 12.7031C28.0938 12.7865 27.9479 12.8854 27.8125 13C27.6771 13.1094 27.5521 13.2344 27.4375 13.375L27.3594 12.5469H25.3516V24.25ZM30.7422 16.6875V16.8516C30.7422 17.2005 30.7109 17.5312 30.6484 17.8438C30.5859 18.151 30.487 18.4219 30.3516 18.6562C30.2161 18.8906 30.0391 19.0755 29.8203 19.2109C29.6068 19.3464 29.3464 19.4141 29.0391 19.4141C28.8464 19.4141 28.6719 19.3958 28.5156 19.3594C28.3594 19.3177 28.2214 19.2604 28.1016 19.1875C27.9766 19.1094 27.8646 19.0156 27.7656 18.9062C27.6719 18.7969 27.5911 18.6745 27.5234 18.5391V15.0078C27.5964 14.862 27.6823 14.7344 27.7812 14.625C27.8854 14.5156 28.0052 14.4245 28.1406 14.3516C28.2604 14.2891 28.3932 14.2422 28.5391 14.2109C28.6849 14.1745 28.8464 14.1563 29.0234 14.1563C29.3307 14.1563 29.5911 14.2214 29.8047 14.3516C30.0234 14.4818 30.2031 14.6589 30.3438 14.8828C30.4792 15.112 30.5781 15.3828 30.6406 15.6953C30.7083 16.0026 30.7422 16.3333 30.7422 16.6875ZM37.2344 19.7422C37.2344 20.1432 37.3698 20.4792 37.6406 20.75C37.9115 21.0208 38.2786 21.1563 38.7422 21.1563C39.2005 21.1563 39.5651 21.0234 39.8359 20.7578C40.112 20.487 40.25 20.1484 40.25 19.7422C40.25 19.3359 40.1146 18.9948 39.8438 18.7188C39.5781 18.4427 39.2109 18.3047 38.7422 18.3047C38.2682 18.3047 37.8984 18.4453 37.6328 18.7266C37.3672 19.0026 37.2344 19.3411 37.2344 19.7422ZM37.2344 13.2891C37.2344 13.6901 37.3698 14.026 37.6406 14.2969C37.9115 14.5677 38.2786 14.7031 38.7422 14.7031C39.2005 14.7031 39.5651 14.5703 39.8359 14.3047C40.112 14.0339 40.25 13.6953 40.25 13.2891C40.25 12.8828 40.1146 12.5417 39.8438 12.2656C39.5781 11.9896 39.2109 11.8516 38.7422 11.8516C38.2682 11.8516 37.8984 11.9922 37.6328 12.2734C37.3672 12.5495 37.2344 12.888 37.2344 13.2891ZM61.5859 21V19.2578H56.5938L58.7344 16.9922C59.1042 16.612 59.4401 16.25 59.7422 15.9063C60.0443 15.5573 60.3047 15.2161 60.5234 14.8828C60.737 14.5495 60.901 14.2135 61.0156 13.875C61.1354 13.5313 61.1953 13.1719 61.1953 12.7969C61.1953 12.3021 61.1172 11.8516 60.9609 11.4453C60.8047 11.0339 60.5781 10.6823 60.2812 10.3906C59.9792 10.099 59.6042 9.8724 59.1562 9.71094C58.7135 9.54948 58.2031 9.46875 57.625 9.46875C57.0208 9.46875 56.4688 9.56771 55.9688 9.76563C55.474 9.95833 55.0521 10.224 54.7031 10.5625C54.349 10.901 54.0755 11.2969 53.8828 11.75C53.6901 12.1979 53.5938 12.6745 53.5938 13.1797H55.7734C55.7734 12.8724 55.8125 12.599 55.8906 12.3594C55.9688 12.1198 56.0833 11.9193 56.2344 11.7578C56.3802 11.6016 56.5625 11.4844 56.7812 11.4063C57.0052 11.3229 57.263 11.2813 57.5547 11.2813C57.7786 11.2813 57.9818 11.3177 58.1641 11.3906C58.3516 11.4635 58.513 11.5677 58.6484 11.7031C58.7786 11.8438 58.8802 12.013 58.9531 12.2109C59.026 12.4089 59.0625 12.6354 59.0625 12.8906C59.0625 13.0625 59.0339 13.2396 58.9766 13.4219C58.9245 13.6042 58.8385 13.7995 58.7188 14.0078C58.5938 14.2214 58.4323 14.4557 58.2344 14.7109C58.0365 14.9661 57.7943 15.25 57.5078 15.5625L53.8281 19.5156V21H61.5859ZM71.1641 16.6719V13.9531C71.1641 13.2188 71.0781 12.5729 70.9062 12.0156C70.7344 11.4531 70.4896 10.9818 70.1719 10.6016C69.849 10.2266 69.4583 9.94271 69 9.75C68.5417 9.55729 68.026 9.46094 67.4531 9.46094C66.8854 9.46094 66.3724 9.55729 65.9141 9.75C65.4609 9.94271 65.0755 10.2266 64.7578 10.6016C64.4349 10.9818 64.1875 11.4531 64.0156 12.0156C63.8438 12.5729 63.7578 13.2188 63.7578 13.9531V16.6719C63.7578 17.4063 63.8438 18.0547 64.0156 18.6172C64.1927 19.1745 64.4427 19.6406 64.7656 20.0156C65.0833 20.3958 65.4714 20.6823 65.9297 20.875C66.388 21.0677 66.901 21.1641 67.4688 21.1641C68.0417 21.1641 68.5573 21.0677 69.0156 20.875C69.474 20.6823 69.862 20.3958 70.1797 20.0156C70.4974 19.6406 70.7396 19.1745 70.9062 18.6172C71.0781 18.0547 71.1641 17.4063 71.1641 16.6719ZM65.9453 15.7344C65.9453 15.5729 65.9453 15.4505 65.9453 15.3672C65.9453 15.2839 65.9453 15.1172 65.9453 14.8672V13.6094C65.9453 13.1875 65.9766 12.8229 66.0391 12.5156C66.1068 12.2083 66.2083 11.9583 66.3438 11.7656C66.4688 11.5833 66.6224 11.4479 66.8047 11.3594C66.9922 11.2656 67.2083 11.2188 67.4531 11.2188C67.6719 11.2188 67.8672 11.2552 68.0391 11.3281C68.2161 11.3958 68.3646 11.5026 68.4844 11.6484C68.6406 11.8307 68.7578 12.0755 68.8359 12.3828C68.9193 12.6849 68.9661 13.0495 68.9766 13.4766L65.9453 15.7344ZM68.9766 17C68.9766 17.4219 68.9427 17.7891 68.875 18.1016C68.8125 18.4089 68.7161 18.6615 68.5859 18.8594C68.4609 19.0469 68.3047 19.1875 68.1172 19.2813C67.9297 19.3698 67.7135 19.4141 67.4688 19.4141C67.2031 19.4141 66.974 19.362 66.7812 19.2578C66.5885 19.1536 66.4297 18.9948 66.3047 18.7813C66.1953 18.6042 66.1094 18.3828 66.0469 18.1172C65.9896 17.8516 65.9557 17.5469 65.9453 17.2031L68.9766 14.9531C68.9766 15.1042 68.9766 15.2214 68.9766 15.3047C68.9766 15.3828 68.9766 15.5078 68.9766 15.6797V17ZM73.3984 24.25H75.5703V20.2656C75.6693 20.375 75.7734 20.474 75.8828 20.5625C75.9922 20.651 76.1068 20.7318 76.2266 20.8047C76.4297 20.9193 76.6484 21.0052 76.8828 21.0625C77.1224 21.125 77.3828 21.1563 77.6641 21.1563C78.1953 21.1563 78.6667 21.0469 79.0781 20.8281C79.4896 20.6094 79.8359 20.3073 80.1172 19.9219C80.3932 19.5417 80.6016 19.0885 80.7422 18.5625C80.888 18.0365 80.9609 17.4661 80.9609 16.8516V16.6875C80.9609 16.0469 80.888 15.4635 80.7422 14.9375C80.6016 14.4063 80.3906 13.9505 80.1094 13.5703C79.8281 13.1953 79.4818 12.9063 79.0703 12.7031C78.6589 12.4948 78.1849 12.3906 77.6484 12.3906C77.388 12.3906 77.1432 12.4193 76.9141 12.4766C76.6901 12.5286 76.4844 12.6042 76.2969 12.7031C76.1406 12.7865 75.9948 12.8854 75.8594 13C75.724 13.1094 75.599 13.2344 75.4844 13.375L75.4062 12.5469H73.3984V24.25ZM78.7891 16.6875V16.8516C78.7891 17.2005 78.7578 17.5313 78.6953 17.8438C78.6328 18.151 78.5339 18.4219 78.3984 18.6563C78.263 18.8906 78.0859 19.0755 77.8672 19.2109C77.6536 19.3464 77.3932 19.4141 77.0859 19.4141C76.8932 19.4141 76.7188 19.3958 76.5625 19.3594C76.4062 19.3177 76.2682 19.2604 76.1484 19.1875C76.0234 19.1094 75.9115 19.0156 75.8125 18.9063C75.7188 18.7969 75.638 18.6745 75.5703 18.5391V15.0078C75.6432 14.862 75.7292 14.7344 75.8281 14.625C75.9323 14.5156 76.0521 14.4245 76.1875 14.3516C76.3073 14.2891 76.4401 14.2422 76.5859 14.2109C76.7318 14.1745 76.8932 14.1563 77.0703 14.1563C77.3776 14.1563 77.638 14.2214 77.8516 14.3516C78.0703 14.4818 78.25 14.6589 78.3906 14.8828C78.526 15.112 78.625 15.3828 78.6875 15.6953C78.7552 16.0026 78.7891 16.3333 78.7891 16.6875ZM86.8438 15.1875L85.0156 12.5469L82.6797 12.5469L85.5078 16.6953L82.5703 21H84.9219L86.8516 18.2344L88.7969 21H91.1406L88.2031 16.6953L91.0391 12.5469H88.7031L86.8438 15.1875ZM107.516 21V9.625H107.398L102.445 11.4141V13.3047L105.32 12.2734V21H107.516ZM119.211 16.6719V13.9531C119.211 13.2188 119.125 12.5729 118.953 12.0156C118.781 11.4531 118.536 10.9818 118.219 10.6016C117.896 10.2266 117.505 9.94271 117.047 9.75C116.589 9.55729 116.073 9.46094 115.5 9.46094C114.932 9.46094 114.419 9.55729 113.961 9.75C113.508 9.94271 113.122 10.2266 112.805 10.6016C112.482 10.9818 112.234 11.4531 112.062 12.0156C111.891 12.5729 111.805 13.2188 111.805 13.9531V16.6719C111.805 17.4063 111.891 18.0547 112.062 18.6172C112.24 19.1745 112.49 19.6406 112.812 20.0156C113.13 20.3958 113.518 20.6823 113.977 20.875C114.435 21.0677 114.948 21.1641 115.516 21.1641C116.089 21.1641 116.604 21.0677 117.062 20.875C117.521 20.6823 117.909 20.3958 118.227 20.0156C118.544 19.6406 118.786 19.1745 118.953 18.6172C119.125 18.0547 119.211 17.4063 119.211 16.6719ZM113.992 15.7344C113.992 15.5729 113.992 15.4505 113.992 15.3672C113.992 15.2839 113.992 15.1172 113.992 14.8672V13.6094C113.992 13.1875 114.023 12.8229 114.086 12.5156C114.154 12.2083 114.255 11.9583 114.391 11.7656C114.516 11.5833 114.669 11.4479 114.852 11.3594C115.039 11.2656 115.255 11.2188 115.5 11.2188C115.719 11.2188 115.914 11.2552 116.086 11.3281C116.263 11.3958 116.411 11.5026 116.531 11.6484C116.688 11.8307 116.805 12.0755 116.883 12.3828C116.966 12.6849 117.013 13.0495 117.023 13.4766L113.992 15.7344ZM117.023 17C117.023 17.4219 116.99 17.7891 116.922 18.1016C116.859 18.4089 116.763 18.6615 116.633 18.8594C116.508 19.0469 116.352 19.1875 116.164 19.2813C115.977 19.3698 115.76 19.4141 115.516 19.4141C115.25 19.4141 115.021 19.362 114.828 19.2578C114.635 19.1536 114.477 18.9948 114.352 18.7813C114.242 18.6042 114.156 18.3828 114.094 18.1172C114.036 17.8516 114.003 17.5469 113.992 17.2031L117.023 14.9531C117.023 15.1042 117.023 15.2214 117.023 15.3047C117.023 15.3828 117.023 15.5078 117.023 15.6797V17ZM121.445 24.25H123.617V20.2656C123.716 20.375 123.82 20.474 123.93 20.5625C124.039 20.651 124.154 20.7318 124.273 20.8047C124.477 20.9193 124.695 21.0052 124.93 21.0625C125.169 21.125 125.43 21.1563 125.711 21.1563C126.242 21.1563 126.714 21.0469 127.125 20.8281C127.536 20.6094 127.883 20.3073 128.164 19.9219C128.44 19.5417 128.648 19.0885 128.789 18.5625C128.935 18.0365 129.008 17.4661 129.008 16.8516V16.6875C129.008 16.0469 128.935 15.4635 128.789 14.9375C128.648 14.4063 128.438 13.9505 128.156 13.5703C127.875 13.1953 127.529 12.9063 127.117 12.7031C126.706 12.4948 126.232 12.3906 125.695 12.3906C125.435 12.3906 125.19 12.4193 124.961 12.4766C124.737 12.5286 124.531 12.6042 124.344 12.7031C124.188 12.7865 124.042 12.8854 123.906 13C123.771 13.1094 123.646 13.2344 123.531 13.375L123.453 12.5469H121.445V24.25ZM126.836 16.6875V16.8516C126.836 17.2005 126.805 17.5313 126.742 17.8438C126.68 18.151 126.581 18.4219 126.445 18.6563C126.31 18.8906 126.133 19.0755 125.914 19.2109C125.701 19.3464 125.44 19.4141 125.133 19.4141C124.94 19.4141 124.766 19.3958 124.609 19.3594C124.453 19.3177 124.315 19.2604 124.195 19.1875C124.07 19.1094 123.958 19.0156 123.859 18.9063C123.766 18.7969 123.685 18.6745 123.617 18.5391V15.0078C123.69 14.862 123.776 14.7344 123.875 14.625C123.979 14.5156 124.099 14.4245 124.234 14.3516C124.354 14.2891 124.487 14.2422 124.633 14.2109C124.779 14.1745 124.94 14.1563 125.117 14.1563C125.424 14.1563 125.685 14.2214 125.898 14.3516C126.117 14.4818 126.297 14.6589 126.438 14.8828C126.573 15.112 126.672 15.3828 126.734 15.6953C126.802 16.0026 126.836 16.3333 126.836 16.6875ZM134.891 15.1875L133.062 12.5469H130.727L133.555 16.6953L130.617 21H132.969L134.898 18.2344L136.844 21H139.188L136.25 16.6953L139.086 12.5469H136.75L134.891 15.1875ZM143.242 13.2891C143.242 13.6901 143.378 14.026 143.648 14.2969C143.919 14.5677 144.286 14.7031 144.75 14.7031C145.208 14.7031 145.573 14.5703 145.844 14.3047C146.12 14.0339 146.258 13.6953 146.258 13.2891C146.258 12.8828 146.122 12.5417 145.852 12.2656C145.586 11.9896 145.219 11.8516 144.75 11.8516C144.276 11.8516 143.906 11.9922 143.641 12.2734C143.375 12.5495 143.242 12.888 143.242 13.2891ZM145.672 20.8281L145.68 19.1016H143.641V20.9297C143.641 21.5026 143.573 21.9922 143.438 22.3984C143.302 22.8099 143.135 23.2031 142.938 23.5781L144.086 24.1719C144.555 23.7552 144.935 23.2422 145.227 22.6328C145.523 22.0234 145.672 21.4219 145.672 20.8281Z" fill="#4A5568"/>
<rect x="11.5" y="55.5" width="309" height="89" rx="8.5" fill="#9F7AEA" stroke="#553C9A" stroke-width="3"/>
<rect x="333.5" y="55.5" width="155" height="89" rx="8.5" fill="#9F7AEA" stroke="#553C9A" stroke-width="3"/>
<rect x="11.5" y="167.5" width="309" height="47" rx="8.5" fill="#9F7AEA" stroke="#553C9A" stroke-width="3"/>
<rect x="333.5" y="167.5" width="155" height="47" rx="8.5" fill="#9F7AEA" stroke="#553C9A" stroke-width="3"/>
<rect x="11.5" y="237.5" width="309" height="92" rx="8.5" fill="#9F7AEA" stroke="#553C9A" stroke-width="3"/>
<rect x="333.5" y="237.5" width="155" height="92" rx="8.5" fill="#9F7AEA" stroke="#553C9A" stroke-width="3"/>
<path d="M28.1989 67.3636V74.7102C28.1989 76.0398 27.267 77 25.8352 77C24.4091 77 23.4716 76.0398 23.4716 74.7102V67.3636H21.0114V74.9205C21.0114 77.4659 22.9318 79.1648 25.8352 79.1648C28.7273 79.1648 30.6591 77.4659 30.6591 74.9205V67.3636H28.1989ZM32.6378 79H35.0582V73.7614C35.0582 72.7955 35.6719 72.1534 36.4787 72.1534C37.2741 72.1534 37.8082 72.6989 37.8082 73.5568V79H40.1548V73.6705C40.1548 72.767 40.6719 72.1534 41.5526 72.1534C42.3253 72.1534 42.9048 72.6364 42.9048 73.608V79H45.3196V73.1307C45.3196 71.2386 44.1946 70.1591 42.5696 70.1591C41.2912 70.1591 40.2969 70.8125 39.9389 71.8125H39.848C39.5696 70.8011 38.6776 70.1591 37.4787 70.1591C36.3026 70.1591 35.4105 70.7841 35.0469 71.8125H34.9446V70.2727H32.6378V79Z" fill="#553C9A"/>
<path d="M352.136 79C355.682 79 357.83 76.8068 357.83 73.1705C357.83 69.5455 355.682 67.3636 352.17 67.3636H348.011V79H352.136ZM350.472 76.892V69.4716H352.04C354.222 69.4716 355.375 70.5852 355.375 73.1705C355.375 75.767 354.222 76.892 352.034 76.892H350.472ZM363.55 79.1705C366.197 79.1705 367.845 77.358 367.845 74.6705C367.845 71.9659 366.197 70.1591 363.55 70.1591C360.902 70.1591 359.254 71.9659 359.254 74.6705C359.254 77.358 360.902 79.1705 363.55 79.1705ZM363.561 77.2955C362.339 77.2955 361.714 76.1761 361.714 74.6534C361.714 73.1307 362.339 72.0057 363.561 72.0057C364.76 72.0057 365.385 73.1307 365.385 74.6534C365.385 76.1761 364.76 77.2955 363.561 77.2955ZM369.419 79H371.839V70.2727H369.419V79ZM370.635 69.1477C371.357 69.1477 371.947 68.5966 371.947 67.9205C371.947 67.25 371.357 66.6989 370.635 66.6989C369.919 66.6989 369.328 67.25 369.328 67.9205C369.328 68.5966 369.919 69.1477 370.635 69.1477ZM381.04 72.7614C380.824 71.1534 379.528 70.1591 377.324 70.1591C375.091 70.1591 373.619 71.1932 373.625 72.875C373.619 74.1818 374.443 75.0284 376.148 75.3693L377.659 75.6705C378.42 75.8239 378.767 76.1023 378.778 76.5398C378.767 77.0568 378.205 77.4261 377.358 77.4261C376.494 77.4261 375.92 77.0568 375.773 76.3466L373.392 76.4716C373.619 78.142 375.04 79.1705 377.352 79.1705C379.614 79.1705 381.233 78.017 381.239 76.2955C381.233 75.0341 380.409 74.2784 378.716 73.9318L377.136 73.6136C376.324 73.4375 376.023 73.1591 376.028 72.7386C376.023 72.2159 376.614 71.875 377.364 71.875C378.205 71.875 378.705 72.3352 378.824 72.8977L381.04 72.7614Z" fill="#553C9A"/>
<path d="M20.5682 181.392H24.1307V191H26.5625V181.392H30.125V179.364H20.5682V181.392ZM30.7472 191H33.1676V186.062C33.1676 184.989 33.9517 184.25 35.0199 184.25C35.3551 184.25 35.8153 184.307 36.0426 184.381V182.233C35.8267 182.182 35.5256 182.148 35.2812 182.148C34.304 182.148 33.5028 182.716 33.1847 183.795H33.0938V182.273H30.7472V191ZM40.8651 191.17C43.0241 191.17 44.4787 190.119 44.8196 188.5L42.581 188.352C42.3366 189.017 41.7116 189.364 40.9048 189.364C39.6946 189.364 38.9276 188.562 38.9276 187.261V187.256H44.8707V186.591C44.8707 183.625 43.0753 182.159 40.7685 182.159C38.2003 182.159 36.5355 183.983 36.5355 186.676C36.5355 189.443 38.1776 191.17 40.8651 191.17ZM39.5696 181.239L40.7116 179.852L41.8537 181.239H43.9162V181.159L41.6094 178.659H39.8082L37.5071 181.159V181.239H39.5696ZM38.9276 185.756C38.9787 184.761 39.7344 183.966 40.8082 183.966C41.8594 183.966 42.5866 184.716 42.5923 185.756H38.9276ZM53.7116 184.761C53.4957 183.153 52.2003 182.159 49.9957 182.159C47.7628 182.159 46.2912 183.193 46.2969 184.875C46.2912 186.182 47.1151 187.028 48.8196 187.369L50.331 187.67C51.0923 187.824 51.4389 188.102 51.4503 188.54C51.4389 189.057 50.8764 189.426 50.0298 189.426C49.1662 189.426 48.5923 189.057 48.4446 188.347L46.0639 188.472C46.2912 190.142 47.7116 191.17 50.0241 191.17C52.2855 191.17 53.9048 190.017 53.9105 188.295C53.9048 187.034 53.081 186.278 51.3878 185.932L49.8082 185.614C48.9957 185.438 48.6946 185.159 48.7003 184.739C48.6946 184.216 49.2855 183.875 50.0355 183.875C50.8764 183.875 51.3764 184.335 51.4957 184.898L53.7116 184.761Z" fill="#553C9A"/>
<path d="M358.705 185.182C358.705 181.375 356.341 179.205 353.256 179.205C350.153 179.205 347.807 181.375 347.807 185.182C347.807 188.972 350.153 191.159 353.256 191.159C353.983 191.159 354.67 191.04 355.295 190.801L356.233 191.955H358.528L356.864 189.864C358 188.847 358.705 187.256 358.705 185.182ZM352.403 186.955L353.892 188.92C353.693 188.96 353.477 188.983 353.256 188.983C351.466 188.983 350.301 187.648 350.301 185.182C350.301 182.716 351.466 181.381 353.256 181.381C355.04 181.381 356.21 182.716 356.21 185.182C356.21 186.449 355.898 187.42 355.358 188.062L354.494 186.955H352.403ZM366.078 187.284C366.084 188.455 365.283 189.068 364.413 189.068C363.499 189.068 362.908 188.426 362.902 187.398V182.273H360.482V187.83C360.487 189.869 361.68 191.114 363.436 191.114C364.749 191.114 365.692 190.438 366.084 189.415H366.175V191H368.499V182.273H366.078V187.284ZM372.923 191.165C374.213 191.165 375.048 190.602 375.474 189.79H375.543V191H377.838V185.114C377.838 183.034 376.077 182.159 374.134 182.159C372.043 182.159 370.668 183.159 370.332 184.75L372.571 184.932C372.736 184.352 373.253 183.926 374.122 183.926C374.946 183.926 375.418 184.341 375.418 185.057V185.091C375.418 185.653 374.821 185.727 373.304 185.875C371.577 186.034 370.026 186.614 370.026 188.562C370.026 190.29 371.259 191.165 372.923 191.165ZM373.616 189.494C372.872 189.494 372.338 189.148 372.338 188.483C372.338 187.801 372.901 187.466 373.753 187.347C374.281 187.273 375.145 187.148 375.435 186.955V187.881C375.435 188.795 374.679 189.494 373.616 189.494ZM384.358 182.273H382.716V180.182H380.295V182.273H379.102V184.091H380.295V188.636C380.284 190.347 381.449 191.193 383.205 191.119C383.83 191.097 384.273 190.972 384.517 190.892L384.136 189.091C384.017 189.114 383.761 189.17 383.534 189.17C383.051 189.17 382.716 188.989 382.716 188.318V184.091H384.358V182.273ZM385.935 191H388.355V186.062C388.355 184.989 389.139 184.25 390.207 184.25C390.543 184.25 391.003 184.307 391.23 184.381V182.233C391.014 182.182 390.713 182.148 390.469 182.148C389.491 182.148 388.69 182.716 388.372 183.795H388.281V182.273H385.935V191ZM396.018 191.17C398.666 191.17 400.314 189.358 400.314 186.67C400.314 183.966 398.666 182.159 396.018 182.159C393.371 182.159 391.723 183.966 391.723 186.67C391.723 189.358 393.371 191.17 396.018 191.17ZM396.03 189.295C394.808 189.295 394.183 188.176 394.183 186.653C394.183 185.131 394.808 184.006 396.03 184.006C397.229 184.006 397.854 185.131 397.854 186.653C397.854 188.176 397.229 189.295 396.03 189.295Z" fill="#553C9A"/>
<path d="M31.2784 253.438C30.9545 250.75 28.9205 249.205 26.2273 249.205C23.1534 249.205 20.8068 251.375 20.8068 255.182C20.8068 258.977 23.1136 261.159 26.2273 261.159C29.2102 261.159 31.0114 259.176 31.2784 257.034L28.7898 257.023C28.5568 258.267 27.5795 258.983 26.267 258.983C24.5 258.983 23.3011 257.67 23.3011 255.182C23.3011 252.761 24.483 251.381 26.2841 251.381C27.6307 251.381 28.6023 252.159 28.7898 253.438H31.2784ZM32.9972 261H35.4176V252.273H32.9972V261ZM34.2131 251.148C34.9347 251.148 35.5256 250.597 35.5256 249.92C35.5256 249.25 34.9347 248.699 34.2131 248.699C33.4972 248.699 32.9062 249.25 32.9062 249.92C32.9062 250.597 33.4972 251.148 34.2131 251.148ZM39.777 255.955C39.7827 254.83 40.4531 254.17 41.4304 254.17C42.402 254.17 42.9872 254.807 42.9815 255.875V261H45.402V255.443C45.402 253.409 44.2088 252.159 42.3906 252.159C41.0952 252.159 40.1577 252.795 39.7656 253.812H39.6634V252.273H37.3565V261H39.777V255.955ZM51.2528 261.17C53.5767 261.17 55.0369 259.807 55.1506 257.801H52.8665C52.7244 258.733 52.1108 259.256 51.2812 259.256C50.1506 259.256 49.4176 258.307 49.4176 256.636C49.4176 254.989 50.1562 254.045 51.2812 254.045C52.1676 254.045 52.7358 254.631 52.8665 255.5H55.1506C55.0483 253.483 53.5199 252.159 51.2415 252.159C48.5938 252.159 46.9574 253.994 46.9574 256.67C46.9574 259.324 48.5653 261.17 51.2528 261.17ZM60.6435 261.17C63.2912 261.17 64.9389 259.358 64.9389 256.67C64.9389 253.966 63.2912 252.159 60.6435 252.159C57.9957 252.159 56.348 253.966 56.348 256.67C56.348 259.358 57.9957 261.17 60.6435 261.17ZM60.6548 259.295C59.4332 259.295 58.8082 258.176 58.8082 256.653C58.8082 255.131 59.4332 254.006 60.6548 254.006C61.8537 254.006 62.4787 255.131 62.4787 256.653C62.4787 258.176 61.8537 259.295 60.6548 259.295Z" fill="#553C9A"/>
<path d="M354.324 252.71H356.682C356.648 250.636 354.943 249.205 352.352 249.205C349.801 249.205 347.932 250.614 347.943 252.727C347.938 254.443 349.148 255.426 351.114 255.898L352.381 256.216C353.648 256.523 354.352 256.886 354.358 257.67C354.352 258.523 353.545 259.102 352.295 259.102C351.017 259.102 350.097 258.511 350.017 257.347H347.636C347.699 259.864 349.5 261.165 352.324 261.165C355.165 261.165 356.835 259.807 356.841 257.676C356.835 255.739 355.375 254.71 353.352 254.256L352.307 254.006C351.295 253.773 350.449 253.398 350.466 252.562C350.466 251.812 351.131 251.261 352.335 251.261C353.511 251.261 354.233 251.795 354.324 252.71ZM362.428 261.17C364.587 261.17 366.041 260.119 366.382 258.5L364.143 258.352C363.899 259.017 363.274 259.364 362.467 259.364C361.257 259.364 360.49 258.562 360.49 257.261V257.256H366.433V256.591C366.433 253.625 364.638 252.159 362.331 252.159C359.763 252.159 358.098 253.983 358.098 256.676C358.098 259.443 359.74 261.17 362.428 261.17ZM360.49 255.756C360.541 254.761 361.297 253.966 362.371 253.966C363.422 253.966 364.149 254.716 364.155 255.756H360.49ZM368.013 261H370.433V252.273H368.013V261ZM369.229 251.148C369.95 251.148 370.541 250.597 370.541 249.92C370.541 249.25 369.95 248.699 369.229 248.699C368.513 248.699 367.922 249.25 367.922 249.92C367.922 250.597 368.513 251.148 369.229 251.148ZM379.634 254.761C379.418 253.153 378.122 252.159 375.918 252.159C373.685 252.159 372.213 253.193 372.219 254.875C372.213 256.182 373.037 257.028 374.741 257.369L376.253 257.67C377.014 257.824 377.361 258.102 377.372 258.54C377.361 259.057 376.798 259.426 375.952 259.426C375.088 259.426 374.514 259.057 374.366 258.347L371.986 258.472C372.213 260.142 373.634 261.17 375.946 261.17C378.207 261.17 379.827 260.017 379.832 258.295C379.827 257.034 379.003 256.278 377.31 255.932L375.73 255.614C374.918 255.438 374.616 255.159 374.622 254.739C374.616 254.216 375.207 253.875 375.957 253.875C376.798 253.875 377.298 254.335 377.418 254.898L379.634 254.761Z" fill="#553C9A"/>
<rect opacity="0.5" y="146" width="500" height="20" fill="#4FD1C5"/>
<rect opacity="0.5" y="216" width="500" height="20" fill="#4FD1C5"/>
<rect opacity="0.5" x="332" y="41" width="300" height="9.99999" transform="rotate(90 332 41)" fill="#4FD1C5"/>
<path d="M511.337 160V158.911H508.217L509.555 157.495C509.786 157.257 509.996 157.031 510.185 156.816C510.373 156.598 510.536 156.385 510.673 156.177C510.806 155.968 510.909 155.758 510.98 155.547C511.055 155.332 511.093 155.107 511.093 154.873C511.093 154.564 511.044 154.282 510.946 154.028C510.849 153.771 510.707 153.551 510.521 153.369C510.333 153.187 510.098 153.045 509.818 152.944C509.542 152.843 509.223 152.793 508.861 152.793C508.484 152.793 508.139 152.855 507.826 152.979C507.517 153.099 507.253 153.265 507.035 153.477C506.814 153.688 506.643 153.936 506.522 154.219C506.402 154.499 506.342 154.797 506.342 155.112H507.704C507.704 154.92 507.729 154.749 507.777 154.6C507.826 154.45 507.898 154.325 507.992 154.224C508.083 154.126 508.197 154.053 508.334 154.004C508.474 153.952 508.635 153.926 508.817 153.926C508.957 153.926 509.084 153.949 509.198 153.994C509.315 154.04 509.416 154.105 509.501 154.189C509.582 154.277 509.646 154.383 509.691 154.507C509.737 154.631 509.76 154.772 509.76 154.932C509.76 155.039 509.742 155.15 509.706 155.264C509.674 155.378 509.62 155.5 509.545 155.63C509.467 155.763 509.366 155.91 509.242 156.069C509.118 156.229 508.967 156.406 508.788 156.602L506.488 159.072V160H511.337ZM517.323 157.295V155.596C517.323 155.137 517.27 154.733 517.162 154.385C517.055 154.033 516.902 153.739 516.703 153.501C516.501 153.267 516.257 153.089 515.971 152.969C515.684 152.848 515.362 152.788 515.004 152.788C514.649 152.788 514.328 152.848 514.042 152.969C513.759 153.089 513.518 153.267 513.319 153.501C513.118 153.739 512.963 154.033 512.855 154.385C512.748 154.733 512.694 155.137 512.694 155.596V157.295C512.694 157.754 512.748 158.159 512.855 158.511C512.966 158.859 513.122 159.15 513.324 159.385C513.523 159.622 513.765 159.801 514.052 159.922C514.338 160.042 514.659 160.103 515.014 160.103C515.372 160.103 515.694 160.042 515.98 159.922C516.267 159.801 516.509 159.622 516.708 159.385C516.907 159.15 517.058 158.859 517.162 158.511C517.27 158.159 517.323 157.754 517.323 157.295ZM514.062 156.709C514.062 156.608 514.062 156.532 514.062 156.479C514.062 156.427 514.062 156.323 514.062 156.167V155.381C514.062 155.117 514.081 154.889 514.12 154.697C514.162 154.505 514.226 154.349 514.311 154.229C514.389 154.115 514.485 154.03 514.599 153.975C514.716 153.916 514.851 153.887 515.004 153.887C515.141 153.887 515.263 153.91 515.37 153.955C515.481 153.997 515.574 154.064 515.648 154.155C515.746 154.269 515.819 154.422 515.868 154.614C515.92 154.803 515.95 155.031 515.956 155.298L514.062 156.709ZM515.956 157.5C515.956 157.764 515.935 157.993 515.893 158.188C515.854 158.381 515.793 158.538 515.712 158.662C515.634 158.779 515.536 158.867 515.419 158.926C515.302 158.981 515.167 159.009 515.014 159.009C514.848 159.009 514.704 158.976 514.584 158.911C514.464 158.846 514.364 158.747 514.286 158.613C514.218 158.503 514.164 158.364 514.125 158.198C514.089 158.032 514.068 157.842 514.062 157.627L515.956 156.221C515.956 156.315 515.956 156.388 515.956 156.44C515.956 156.489 515.956 156.567 515.956 156.675V157.5ZM518.72 162.031H520.077V159.541C520.139 159.609 520.204 159.671 520.272 159.727C520.341 159.782 520.412 159.832 520.487 159.878C520.614 159.95 520.751 160.003 520.897 160.039C521.047 160.078 521.21 160.098 521.386 160.098C521.718 160.098 522.012 160.029 522.27 159.893C522.527 159.756 522.743 159.567 522.919 159.326C523.091 159.089 523.222 158.805 523.31 158.477C523.401 158.148 523.446 157.791 523.446 157.407V157.305C523.446 156.904 523.401 156.54 523.31 156.211C523.222 155.879 523.09 155.594 522.914 155.356C522.738 155.122 522.522 154.941 522.265 154.814C522.007 154.684 521.711 154.619 521.376 154.619C521.213 154.619 521.06 154.637 520.917 154.673C520.777 154.705 520.648 154.753 520.531 154.814C520.434 154.867 520.342 154.928 520.258 155C520.173 155.068 520.095 155.146 520.023 155.234L519.975 154.717H518.72V162.031ZM522.089 157.305V157.407C522.089 157.625 522.069 157.832 522.03 158.027C521.991 158.219 521.929 158.389 521.845 158.535C521.76 158.682 521.649 158.797 521.513 158.882C521.379 158.966 521.216 159.009 521.024 159.009C520.904 159.009 520.795 158.997 520.697 158.975C520.6 158.949 520.513 158.913 520.438 158.867C520.36 158.818 520.29 158.76 520.229 158.691C520.17 158.623 520.119 158.547 520.077 158.462V156.255C520.123 156.164 520.176 156.084 520.238 156.016C520.303 155.947 520.378 155.89 520.463 155.845C520.538 155.806 520.621 155.776 520.712 155.757C520.803 155.734 520.904 155.723 521.015 155.723C521.207 155.723 521.369 155.763 521.503 155.845C521.64 155.926 521.752 156.037 521.84 156.177C521.924 156.32 521.986 156.489 522.025 156.685C522.068 156.877 522.089 157.083 522.089 157.305ZM527.123 156.367L525.98 154.717H524.521L526.288 157.31L524.452 160H525.922L527.128 158.271L528.344 160H529.809L527.973 157.31L529.745 154.717H528.285L527.123 156.367Z" fill="#319795"/>
<line x1="503.5" y1="146" x2="503.5" y2="166" stroke="#319795"/>
<line x1="501" y1="146.5" x2="506" y2="146.5" stroke="#319795"/>
<line x1="501" y1="165.5" x2="506" y2="165.5" stroke="#319795"/>
<path d="M511.337 230V228.911H508.217L509.555 227.495C509.786 227.257 509.996 227.031 510.185 226.816C510.373 226.598 510.536 226.385 510.673 226.177C510.806 225.968 510.909 225.758 510.98 225.547C511.055 225.332 511.093 225.107 511.093 224.873C511.093 224.564 511.044 224.282 510.946 224.028C510.849 223.771 510.707 223.551 510.521 223.369C510.333 223.187 510.098 223.045 509.818 222.944C509.542 222.843 509.223 222.793 508.861 222.793C508.484 222.793 508.139 222.855 507.826 222.979C507.517 223.099 507.253 223.265 507.035 223.477C506.814 223.688 506.643 223.936 506.522 224.219C506.402 224.499 506.342 224.797 506.342 225.112H507.704C507.704 224.92 507.729 224.749 507.777 224.6C507.826 224.45 507.898 224.325 507.992 224.224C508.083 224.126 508.197 224.053 508.334 224.004C508.474 223.952 508.635 223.926 508.817 223.926C508.957 223.926 509.084 223.949 509.198 223.994C509.315 224.04 509.416 224.105 509.501 224.189C509.582 224.277 509.646 224.383 509.691 224.507C509.737 224.631 509.76 224.772 509.76 224.932C509.76 225.039 509.742 225.15 509.706 225.264C509.674 225.378 509.62 225.5 509.545 225.63C509.467 225.763 509.366 225.91 509.242 226.069C509.118 226.229 508.967 226.406 508.788 226.602L506.488 229.072V230H511.337ZM517.323 227.295V225.596C517.323 225.137 517.27 224.733 517.162 224.385C517.055 224.033 516.902 223.739 516.703 223.501C516.501 223.267 516.257 223.089 515.971 222.969C515.684 222.848 515.362 222.788 515.004 222.788C514.649 222.788 514.328 222.848 514.042 222.969C513.759 223.089 513.518 223.267 513.319 223.501C513.118 223.739 512.963 224.033 512.855 224.385C512.748 224.733 512.694 225.137 512.694 225.596V227.295C512.694 227.754 512.748 228.159 512.855 228.511C512.966 228.859 513.122 229.15 513.324 229.385C513.523 229.622 513.765 229.801 514.052 229.922C514.338 230.042 514.659 230.103 515.014 230.103C515.372 230.103 515.694 230.042 515.98 229.922C516.267 229.801 516.509 229.622 516.708 229.385C516.907 229.15 517.058 228.859 517.162 228.511C517.27 228.159 517.323 227.754 517.323 227.295ZM514.062 226.709C514.062 226.608 514.062 226.532 514.062 226.479C514.062 226.427 514.062 226.323 514.062 226.167V225.381C514.062 225.117 514.081 224.889 514.12 224.697C514.162 224.505 514.226 224.349 514.311 224.229C514.389 224.115 514.485 224.03 514.599 223.975C514.716 223.916 514.851 223.887 515.004 223.887C515.141 223.887 515.263 223.91 515.37 223.955C515.481 223.997 515.574 224.064 515.648 224.155C515.746 224.269 515.819 224.422 515.868 224.614C515.92 224.803 515.95 225.031 515.956 225.298L514.062 226.709ZM515.956 227.5C515.956 227.764 515.935 227.993 515.893 228.188C515.854 228.381 515.793 228.538 515.712 228.662C515.634 228.779 515.536 228.867 515.419 228.926C515.302 228.981 515.167 229.009 515.014 229.009C514.848 229.009 514.704 228.976 514.584 228.911C514.464 228.846 514.364 228.747 514.286 228.613C514.218 228.503 514.164 228.364 514.125 228.198C514.089 228.032 514.068 227.842 514.062 227.627L515.956 226.221C515.956 226.315 515.956 226.388 515.956 226.44C515.956 226.489 515.956 226.567 515.956 226.675V227.5ZM518.72 232.031H520.077V229.541C520.139 229.609 520.204 229.671 520.272 229.727C520.341 229.782 520.412 229.832 520.487 229.878C520.614 229.95 520.751 230.003 520.897 230.039C521.047 230.078 521.21 230.098 521.386 230.098C521.718 230.098 522.012 230.029 522.27 229.893C522.527 229.756 522.743 229.567 522.919 229.326C523.091 229.089 523.222 228.805 523.31 228.477C523.401 228.148 523.446 227.791 523.446 227.407V227.305C523.446 226.904 523.401 226.54 523.31 226.211C523.222 225.879 523.09 225.594 522.914 225.356C522.738 225.122 522.522 224.941 522.265 224.814C522.007 224.684 521.711 224.619 521.376 224.619C521.213 224.619 521.06 224.637 520.917 224.673C520.777 224.705 520.648 224.753 520.531 224.814C520.434 224.867 520.342 224.928 520.258 225C520.173 225.068 520.095 225.146 520.023 225.234L519.975 224.717H518.72V232.031ZM522.089 227.305V227.407C522.089 227.625 522.069 227.832 522.03 228.027C521.991 228.219 521.929 228.389 521.845 228.535C521.76 228.682 521.649 228.797 521.513 228.882C521.379 228.966 521.216 229.009 521.024 229.009C520.904 229.009 520.795 228.997 520.697 228.975C520.6 228.949 520.513 228.913 520.438 228.867C520.36 228.818 520.29 228.76 520.229 228.691C520.17 228.623 520.119 228.547 520.077 228.462V226.255C520.123 226.164 520.176 226.084 520.238 226.016C520.303 225.947 520.378 225.89 520.463 225.845C520.538 225.806 520.621 225.776 520.712 225.757C520.803 225.734 520.904 225.723 521.015 225.723C521.207 225.723 521.369 225.763 521.503 225.845C521.64 225.926 521.752 226.037 521.84 226.177C521.924 226.32 521.986 226.489 522.025 226.685C522.068 226.877 522.089 227.083 522.089 227.305ZM527.123 226.367L525.98 224.717H524.521L526.288 227.31L524.452 230H525.922L527.128 228.271L528.344 230H529.809L527.973 227.31L529.745 224.717H528.285L527.123 226.367Z" fill="#319795"/>
<line x1="503.5" y1="216" x2="503.5" y2="236" stroke="#319795"/>
<line x1="501" y1="216.5" x2="506" y2="216.5" stroke="#319795"/>
<line x1="501" y1="235.5" x2="506" y2="235.5" stroke="#319795"/>
<path d="M318.014 32V24.8906H317.94L314.845 26.0088V27.1904L316.642 26.5459V32H318.014ZM325.323 29.2949V27.5957C325.323 27.1367 325.27 26.7331 325.162 26.3848C325.055 26.0332 324.902 25.7386 324.703 25.501C324.501 25.2666 324.257 25.0892 323.971 24.9688C323.684 24.8483 323.362 24.7881 323.004 24.7881C322.649 24.7881 322.328 24.8483 322.042 24.9688C321.759 25.0892 321.518 25.2666 321.319 25.501C321.118 25.7386 320.963 26.0332 320.855 26.3848C320.748 26.7331 320.694 27.1367 320.694 27.5957V29.2949C320.694 29.7539 320.748 30.1592 320.855 30.5107C320.966 30.859 321.122 31.1504 321.324 31.3848C321.523 31.6224 321.765 31.8014 322.052 31.9219C322.338 32.0423 322.659 32.1025 323.014 32.1025C323.372 32.1025 323.694 32.0423 323.98 31.9219C324.267 31.8014 324.509 31.6224 324.708 31.3848C324.907 31.1504 325.058 30.859 325.162 30.5107C325.27 30.1592 325.323 29.7539 325.323 29.2949ZM322.062 28.709C322.062 28.6081 322.062 28.5316 322.062 28.4795C322.062 28.4274 322.062 28.3232 322.062 28.167V27.3809C322.062 27.1172 322.081 26.8893 322.12 26.6973C322.162 26.5052 322.226 26.349 322.311 26.2285C322.389 26.1146 322.485 26.0299 322.599 25.9746C322.716 25.916 322.851 25.8867 323.004 25.8867C323.141 25.8867 323.263 25.9095 323.37 25.9551C323.481 25.9974 323.574 26.0641 323.648 26.1553C323.746 26.2692 323.819 26.4222 323.868 26.6143C323.92 26.8031 323.95 27.0309 323.956 27.2979L322.062 28.709ZM323.956 29.5C323.956 29.7637 323.935 29.9932 323.893 30.1885C323.854 30.3805 323.793 30.5384 323.712 30.6621C323.634 30.7793 323.536 30.8672 323.419 30.9258C323.302 30.9811 323.167 31.0088 323.014 31.0088C322.848 31.0088 322.704 30.9762 322.584 30.9111C322.464 30.846 322.364 30.7467 322.286 30.6133C322.218 30.5026 322.164 30.3643 322.125 30.1982C322.089 30.0322 322.068 29.8418 322.062 29.627L323.956 28.2207C323.956 28.3151 323.956 28.3883 323.956 28.4404C323.956 28.4893 323.956 28.5674 323.956 28.6748V29.5ZM326.72 34.0312H328.077V31.541C328.139 31.6094 328.204 31.6712 328.272 31.7266C328.341 31.7819 328.412 31.8324 328.487 31.8779C328.614 31.9495 328.751 32.0033 328.897 32.0391C329.047 32.0781 329.21 32.0977 329.386 32.0977C329.718 32.0977 330.012 32.0293 330.27 31.8926C330.527 31.7559 330.743 31.5671 330.919 31.3262C331.091 31.0885 331.222 30.8053 331.31 30.4766C331.401 30.1478 331.446 29.7913 331.446 29.4072V29.3047C331.446 28.9043 331.401 28.5397 331.31 28.2109C331.222 27.8789 331.09 27.5941 330.914 27.3564C330.738 27.1221 330.522 26.9414 330.265 26.8145C330.007 26.6842 329.711 26.6191 329.376 26.6191C329.213 26.6191 329.06 26.637 328.917 26.6729C328.777 26.7054 328.648 26.7526 328.531 26.8145C328.434 26.8665 328.342 26.9284 328.258 27C328.173 27.0684 328.095 27.1465 328.023 27.2344L327.975 26.7168H326.72V34.0312ZM330.089 29.3047V29.4072C330.089 29.6253 330.069 29.832 330.03 30.0273C329.991 30.2194 329.929 30.3887 329.845 30.5352C329.76 30.6816 329.649 30.7972 329.513 30.8818C329.379 30.9665 329.216 31.0088 329.024 31.0088C328.904 31.0088 328.795 30.9974 328.697 30.9746C328.6 30.9486 328.513 30.9128 328.438 30.8672C328.36 30.8184 328.29 30.7598 328.229 30.6914C328.17 30.623 328.119 30.5465 328.077 30.4619V28.2549C328.123 28.1637 328.176 28.084 328.238 28.0156C328.303 27.9473 328.378 27.8903 328.463 27.8447C328.538 27.8057 328.621 27.7764 328.712 27.7568C328.803 27.734 328.904 27.7227 329.015 27.7227C329.207 27.7227 329.369 27.7633 329.503 27.8447C329.64 27.9261 329.752 28.0368 329.84 28.1768C329.924 28.32 329.986 28.4893 330.025 28.6846C330.068 28.8766 330.089 29.0833 330.089 29.3047ZM335.123 28.3672L333.98 26.7168H332.521L334.288 29.3096L332.452 32H333.922L335.128 30.2715L336.344 32H337.809L335.973 29.3096L337.745 26.7168H336.285L335.123 28.3672Z" fill="#319795"/>
<line x1="322" y1="37.5" x2="332" y2="37.5" stroke="#319795"/>
<line x1="322.5" y1="40" x2="322.5" y2="35" stroke="#319795"/>
<line x1="331.5" y1="40" x2="331.5" y2="35" stroke="#319795"/>
</svg>
