<svg width="600" height="491" viewBox="0 0 600 491" fill="none" xmlns="http://www.w3.org/2000/svg">
<rect y="41" width="500" height="450" rx="10" fill="#E2E8F0"/>
<rect width="145" height="29" rx="10" fill="#E2E8F0"/>
<path d="M5.88281 16.7109V16.875C5.88281 17.4896 5.96094 18.0599 6.11719 18.5859C6.27865 19.1068 6.50781 19.5573 6.80469 19.9375C7.10156 20.3177 7.45833 20.6172 7.875 20.8359C8.29688 21.0495 8.77083 21.1562 9.29688 21.1562C9.5625 21.1562 9.8099 21.1276 10.0391 21.0703C10.2734 21.013 10.487 20.9323 10.6797 20.8281C10.8099 20.7552 10.9323 20.6719 11.0469 20.5781C11.1615 20.4844 11.2708 20.3802 11.375 20.2656V20.75C11.375 21.0365 11.3333 21.2943 11.25 21.5234C11.1719 21.7526 11.0573 21.9453 10.9062 22.1016C10.7396 22.2734 10.5312 22.4036 10.2812 22.4922C10.0365 22.5807 9.75521 22.625 9.4375 22.625C9.23958 22.625 9.04688 22.6042 8.85938 22.5625C8.67708 22.526 8.5 22.4688 8.32812 22.3906C8.15104 22.3125 7.98177 22.2109 7.82031 22.0859C7.65885 21.9661 7.50781 21.8255 7.36719 21.6641L6.39062 22.9844C6.57292 23.2188 6.79167 23.4193 7.04687 23.5859C7.30208 23.7578 7.57292 23.8984 7.85937 24.0078C8.14583 24.1172 8.4349 24.1979 8.72656 24.25C9.01823 24.3021 9.29167 24.3281 9.54688 24.3281C10.1406 24.3281 10.6823 24.2474 11.1719 24.0859C11.6667 23.9297 12.0911 23.6979 12.4453 23.3906C12.7943 23.0833 13.0651 22.7057 13.2578 22.2578C13.4557 21.8099 13.5547 21.2995 13.5547 20.7266L13.5547 12.5469H11.5781L11.4922 13.3516C11.388 13.2214 11.2734 13.1042 11.1484 13C11.0234 12.8906 10.888 12.7969 10.7422 12.7188C10.5495 12.6094 10.3333 12.5286 10.0938 12.4766C9.85938 12.4193 9.59896 12.3906 9.3125 12.3906C8.78125 12.3906 8.30469 12.4948 7.88281 12.7031C7.46094 12.9115 7.10156 13.2057 6.80469 13.5859C6.50781 13.9661 6.27865 14.4219 6.11719 14.9531C5.96094 15.4844 5.88281 16.0703 5.88281 16.7109ZM8.0625 16.875V16.7109C8.0625 16.3568 8.09896 16.026 8.17188 15.7188C8.24479 15.4062 8.35677 15.1328 8.50781 14.8984C8.65365 14.6693 8.83854 14.4896 9.0625 14.3594C9.28646 14.224 9.55208 14.1562 9.85938 14.1562C10.026 14.1562 10.1797 14.1719 10.3203 14.2031C10.4661 14.2344 10.599 14.2786 10.7188 14.3359C10.8594 14.4036 10.9844 14.4922 11.0938 14.6016C11.2031 14.7109 11.2969 14.8385 11.375 14.9844V18.5625C11.3021 18.6927 11.2161 18.8099 11.1172 18.9141C11.0182 19.0182 10.9036 19.1068 10.7734 19.1797C10.6484 19.2474 10.5078 19.2995 10.3516 19.3359C10.2005 19.3724 10.0312 19.3906 9.84375 19.3906C9.53646 19.3906 9.27083 19.3255 9.04688 19.1953C8.82292 19.0651 8.63802 18.8854 8.49219 18.6562C8.34635 18.4323 8.23698 18.1693 8.16406 17.8672C8.09635 17.5599 8.0625 17.2292 8.0625 16.875ZM21.7812 12.3906C21.2135 12.3906 20.6901 12.5286 20.2109 12.8047C19.7318 13.0755 19.3203 13.4505 18.9766 13.9297L18.9609 13.7422L18.875 12.5469H16.8516V21H19.0234V15.9219C19.1224 15.6823 19.2474 15.474 19.3984 15.2969C19.5495 15.1198 19.7318 14.974 19.9453 14.8594C20.1224 14.7604 20.3229 14.6875 20.5469 14.6406C20.776 14.5885 21.0312 14.5625 21.3125 14.5625C21.5833 14.5625 21.8672 14.5807 22.1641 14.6172C22.4661 14.6484 22.7604 14.6979 23.0469 14.7656L23.3672 12.6016C23.1953 12.5495 22.9688 12.5026 22.6875 12.4609C22.4115 12.4141 22.1094 12.3906 21.7812 12.3906ZM25.8984 12.5469V14.3203H28.3047V19.2344H25.8984V21H32.7891V19.2344H30.5V12.5469H25.8984ZM28.1484 10.3828C28.1484 10.5495 28.1771 10.7057 28.2344 10.8516C28.2969 10.9922 28.3828 11.112 28.4922 11.2109C28.6016 11.3151 28.7318 11.3958 28.8828 11.4531C29.0391 11.5104 29.2109 11.5391 29.3984 11.5391C29.7839 11.5391 30.0885 11.4323 30.3125 11.2188C30.5417 11 30.6562 10.7214 30.6562 10.3828C30.6562 10.0443 30.5417 9.76823 30.3125 9.55469C30.0885 9.33594 29.7839 9.22656 29.3984 9.22656C29.2109 9.22656 29.0391 9.25521 28.8828 9.3125C28.7318 9.36979 28.6016 9.44792 28.4922 9.54688C28.3828 9.65104 28.2969 9.77604 28.2344 9.92188C28.1771 10.0625 28.1484 10.2161 28.1484 10.3828ZM34.7031 16.7109V16.875C34.7031 17.4896 34.7786 18.0599 34.9297 18.5859C35.0807 19.1068 35.2995 19.5573 35.5859 19.9375C35.8672 20.3177 36.2109 20.6172 36.6172 20.8359C37.0286 21.0495 37.4922 21.1563 38.0078 21.1563C38.4818 21.1563 38.8984 21.0651 39.2578 20.8828C39.6172 20.7005 39.9297 20.4453 40.1953 20.1172L40.3047 21H42.2656V9H40.0859V13.3047C39.8255 13.013 39.526 12.7891 39.1875 12.6328C38.8542 12.4714 38.4661 12.3906 38.0234 12.3906C37.4974 12.3906 37.0286 12.4948 36.6172 12.7031C36.2109 12.9115 35.8646 13.2057 35.5781 13.5859C35.2917 13.9661 35.0729 14.4219 34.9219 14.9531C34.776 15.4844 34.7031 16.0703 34.7031 16.7109ZM36.875 16.875V16.7109C36.875 16.3568 36.9062 16.026 36.9688 15.7188C37.0312 15.4063 37.1302 15.1328 37.2656 14.8984C37.401 14.6693 37.5755 14.4896 37.7891 14.3594C38.0078 14.224 38.2708 14.1563 38.5781 14.1563C38.9479 14.1563 39.2552 14.237 39.5 14.3984C39.7448 14.5547 39.9401 14.776 40.0859 15.0625V18.4844C39.9401 18.7656 39.7422 18.987 39.4922 19.1484C39.2474 19.3099 38.9375 19.3906 38.5625 19.3906C38.2552 19.3906 37.9948 19.3255 37.7812 19.1953C37.5677 19.0651 37.3932 18.8854 37.2578 18.6562C37.1224 18.4323 37.0234 18.1693 36.9609 17.8672C36.9036 17.5599 36.875 17.2292 36.875 16.875ZM54.7266 12.5469V14.3203H57.1328V19.2344H54.7266V21H61.6172V19.2344H59.3281V12.5469H54.7266ZM56.9766 10.3828C56.9766 10.5495 57.0052 10.7057 57.0625 10.8516C57.125 10.9922 57.2109 11.112 57.3203 11.2109C57.4297 11.3151 57.5599 11.3958 57.7109 11.4531C57.8672 11.5104 58.0391 11.5391 58.2266 11.5391C58.612 11.5391 58.9167 11.4323 59.1406 11.2188C59.3698 11 59.4844 10.7214 59.4844 10.3828C59.4844 10.0443 59.3698 9.76823 59.1406 9.55469C58.9167 9.33594 58.612 9.22656 58.2266 9.22656C58.0391 9.22656 57.8672 9.25521 57.7109 9.3125C57.5599 9.36979 57.4297 9.44792 57.3203 9.54688C57.2109 9.65104 57.125 9.77604 57.0625 9.92188C57.0052 10.0625 56.9766 10.2161 56.9766 10.3828ZM65.1094 12.5469H63.2422V21H65.2188V14.6719C65.2448 14.6042 65.2734 14.5417 65.3047 14.4844C65.3359 14.4271 65.3724 14.3776 65.4141 14.3359C65.4714 14.2786 65.5365 14.2344 65.6094 14.2031C65.6823 14.1719 65.7656 14.1563 65.8594 14.1563C65.9427 14.1563 66.0208 14.1693 66.0938 14.1953C66.1667 14.2161 66.2318 14.2552 66.2891 14.3125C66.3411 14.3698 66.3828 14.4505 66.4141 14.5547C66.4453 14.6589 66.4609 14.7917 66.4609 14.9531V21H68.375V14.7656C68.375 14.7031 68.375 14.6536 68.375 14.6172C68.375 14.5807 68.375 14.5573 68.375 14.5469C68.401 14.4896 68.4323 14.4401 68.4688 14.3984C68.5052 14.3516 68.5469 14.3099 68.5938 14.2734C68.651 14.237 68.7109 14.2083 68.7734 14.1875C68.8411 14.1667 68.9167 14.1563 69 14.1563C69.0781 14.1563 69.1536 14.1693 69.2266 14.1953C69.3047 14.2161 69.3724 14.2552 69.4297 14.3125C69.487 14.375 69.5312 14.4583 69.5625 14.5625C69.599 14.6667 69.6172 14.7995 69.6172 14.9609V21H71.5938V14.9688C71.5938 14.5 71.5469 14.1042 71.4531 13.7813C71.3646 13.4531 71.2396 13.1849 71.0781 12.9766C70.9115 12.7734 70.7161 12.625 70.4922 12.5313C70.2734 12.4375 70.0365 12.3906 69.7812 12.3906C69.5781 12.3906 69.3906 12.4167 69.2188 12.4688C69.0469 12.5208 68.8932 12.5938 68.7578 12.6875C68.6484 12.7604 68.5469 12.849 68.4531 12.9531C68.3646 13.0521 68.2839 13.1641 68.2109 13.2891C68.1641 13.1589 68.1068 13.0443 68.0391 12.9453C67.9766 12.8411 67.901 12.7526 67.8125 12.6797C67.6979 12.5807 67.5625 12.5078 67.4062 12.4609C67.25 12.4141 67.0729 12.3906 66.875 12.3906C66.4688 12.3906 66.1224 12.4974 65.8359 12.7109C65.5547 12.9193 65.3333 13.2057 65.1719 13.5703L65.1094 12.5469ZM73.3984 24.25H75.5703V20.2656C75.6693 20.375 75.7734 20.474 75.8828 20.5625C75.9922 20.651 76.1068 20.7318 76.2266 20.8047C76.4297 20.9193 76.6484 21.0052 76.8828 21.0625C77.1224 21.125 77.3828 21.1563 77.6641 21.1563C78.1953 21.1563 78.6667 21.0469 79.0781 20.8281C79.4896 20.6094 79.8359 20.3073 80.1172 19.9219C80.3932 19.5417 80.6016 19.0885 80.7422 18.5625C80.888 18.0365 80.9609 17.4661 80.9609 16.8516V16.6875C80.9609 16.0469 80.888 15.4635 80.7422 14.9375C80.6016 14.4063 80.3906 13.9505 80.1094 13.5703C79.8281 13.1953 79.4818 12.9063 79.0703 12.7031C78.6589 12.4948 78.1849 12.3906 77.6484 12.3906C77.388 12.3906 77.1432 12.4193 76.9141 12.4766C76.6901 12.5286 76.4844 12.6042 76.2969 12.7031C76.1406 12.7865 75.9948 12.8854 75.8594 13C75.724 13.1094 75.599 13.2344 75.4844 13.375L75.4062 12.5469H73.3984V24.25ZM78.7891 16.6875V16.8516C78.7891 17.2005 78.7578 17.5313 78.6953 17.8438C78.6328 18.151 78.5339 18.4219 78.3984 18.6563C78.263 18.8906 78.0859 19.0755 77.8672 19.2109C77.6536 19.3464 77.3932 19.4141 77.0859 19.4141C76.8932 19.4141 76.7188 19.3958 76.5625 19.3594C76.4062 19.3177 76.2682 19.2604 76.1484 19.1875C76.0234 19.1094 75.9115 19.0156 75.8125 18.9063C75.7188 18.7969 75.638 18.6745 75.5703 18.5391V15.0078C75.6432 14.862 75.7292 14.7344 75.8281 14.625C75.9323 14.5156 76.0521 14.4245 76.1875 14.3516C76.3073 14.2891 76.4401 14.2422 76.5859 14.2109C76.7318 14.1745 76.8932 14.1563 77.0703 14.1563C77.3776 14.1563 77.638 14.2214 77.8516 14.3516C78.0703 14.4818 78.25 14.6589 78.3906 14.8828C78.526 15.112 78.625 15.3828 78.6875 15.6953C78.7552 16.0026 78.7891 16.3333 78.7891 16.6875ZM83.4297 9V10.7734H85.9609V19.2344L83.4297 19.2344V21H90.5781V19.2344H88.1562V9H83.4297ZM93.0391 12.5469V14.3203H95.5703V19.2344H93.0391V21H100.188V19.2344H97.7656V12.5469H93.0391ZM97.2422 9.46875L95.7812 11.6484H97.4688L99.6328 9.46875H97.2422ZM105.938 19.4219C105.589 19.4219 105.299 19.3516 105.07 19.2109C104.846 19.0703 104.669 18.8828 104.539 18.6484C104.404 18.4193 104.31 18.1536 104.258 17.8516C104.206 17.5443 104.18 17.2266 104.18 16.8984V16.6641C104.18 16.3411 104.206 16.0286 104.258 15.7266C104.315 15.4245 104.411 15.1563 104.547 14.9219C104.677 14.6875 104.854 14.5 105.078 14.3594C105.302 14.2188 105.586 14.1484 105.93 14.1484C106.164 14.1484 106.38 14.1901 106.578 14.2734C106.776 14.3516 106.945 14.4583 107.086 14.5938C107.227 14.7292 107.333 14.8906 107.406 15.0781C107.479 15.2656 107.51 15.4635 107.5 15.6719H109.547C109.557 15.1719 109.474 14.7214 109.297 14.3203C109.12 13.9141 108.872 13.5677 108.555 13.2813C108.232 13 107.849 12.7813 107.406 12.625C106.964 12.4688 106.482 12.3906 105.961 12.3906C105.31 12.3906 104.737 12.5026 104.242 12.7266C103.753 12.9505 103.341 13.2552 103.008 13.6406C102.674 14.026 102.424 14.4792 102.258 15C102.091 15.5156 102.008 16.0703 102.008 16.6641V16.8984C102.008 17.4922 102.091 18.0495 102.258 18.5703C102.43 19.0859 102.682 19.5365 103.016 19.9219C103.344 20.3073 103.755 20.612 104.25 20.8359C104.745 21.0547 105.32 21.1641 105.977 21.1641C106.461 21.1641 106.919 21.0885 107.352 20.9375C107.789 20.7813 108.172 20.5677 108.5 20.2969C108.828 20.026 109.086 19.7031 109.273 19.3281C109.466 18.9531 109.557 18.5469 109.547 18.1094H107.5C107.51 18.3073 107.474 18.487 107.391 18.6484C107.312 18.8099 107.201 18.9479 107.055 19.0625C106.909 19.1771 106.74 19.2656 106.547 19.3281C106.354 19.3906 106.151 19.4219 105.938 19.4219ZM112.383 12.5469V14.3203H114.789V19.2344H112.383V21H119.273V19.2344H116.984V12.5469H112.383ZM114.633 10.3828C114.633 10.5495 114.661 10.7057 114.719 10.8516C114.781 10.9922 114.867 11.112 114.977 11.2109C115.086 11.3151 115.216 11.3958 115.367 11.4531C115.523 11.5104 115.695 11.5391 115.883 11.5391C116.268 11.5391 116.573 11.4323 116.797 11.2188C117.026 11 117.141 10.7214 117.141 10.3828C117.141 10.0443 117.026 9.76823 116.797 9.55469C116.573 9.33594 116.268 9.22656 115.883 9.22656C115.695 9.22656 115.523 9.25521 115.367 9.3125C115.216 9.36979 115.086 9.44792 114.977 9.54688C114.867 9.65104 114.781 9.77604 114.719 9.92188C114.661 10.0625 114.633 10.2161 114.633 10.3828ZM125.398 10.4766H123.227V12.5469H121.297V14.1484H123.227V17.9922C123.227 18.5495 123.299 19.0286 123.445 19.4297C123.591 19.8255 123.799 20.151 124.07 20.4063C124.336 20.6667 124.656 20.8594 125.031 20.9844C125.411 21.1042 125.833 21.1641 126.297 21.1641C126.536 21.1641 126.779 21.151 127.023 21.125C127.273 21.1042 127.513 21.0729 127.742 21.0313C127.971 20.9896 128.188 20.9375 128.391 20.875C128.594 20.8073 128.771 20.7292 128.922 20.6406L128.711 19.1484C128.612 19.1745 128.492 19.2005 128.352 19.2266C128.216 19.2526 128.07 19.276 127.914 19.2969C127.753 19.3229 127.583 19.3438 127.406 19.3594C127.234 19.375 127.065 19.3828 126.898 19.3828C126.669 19.3828 126.461 19.3568 126.273 19.3047C126.091 19.2526 125.935 19.1641 125.805 19.0391C125.674 18.9193 125.573 18.7578 125.5 18.5547C125.432 18.3464 125.398 18.0885 125.398 17.7813V14.1484H128.555V12.5469H125.398V10.4766ZM136.305 21H138.508V20.8672C138.398 20.6536 138.315 20.3984 138.258 20.1016C138.201 19.8047 138.172 19.4297 138.172 18.9766V15.3516C138.172 14.862 138.081 14.4323 137.898 14.0625C137.716 13.6875 137.464 13.3776 137.141 13.1328C136.818 12.888 136.435 12.7031 135.992 12.5781C135.555 12.4531 135.081 12.3906 134.57 12.3906C134.003 12.3906 133.497 12.4635 133.055 12.6094C132.617 12.75 132.247 12.9427 131.945 13.1875C131.638 13.4323 131.404 13.7161 131.242 14.0391C131.086 14.362 131.008 14.7031 131.008 15.0625H133.18C133.18 14.9115 133.201 14.7734 133.242 14.6484C133.289 14.5234 133.359 14.4167 133.453 14.3281C133.557 14.2292 133.693 14.1536 133.859 14.1016C134.026 14.0443 134.224 14.0156 134.453 14.0156C134.714 14.0156 134.94 14.0495 135.133 14.1172C135.331 14.1797 135.495 14.2708 135.625 14.3906C135.75 14.5052 135.844 14.6432 135.906 14.8047C135.969 14.9609 136 15.138 136 15.3359V15.8359H134.789C134.164 15.8359 133.609 15.8932 133.125 16.0078C132.646 16.1172 132.242 16.2786 131.914 16.4922C131.549 16.7266 131.276 17.026 131.094 17.3906C130.911 17.75 130.82 18.1641 130.82 18.6328C130.82 18.9974 130.893 19.3359 131.039 19.6484C131.185 19.9557 131.388 20.2214 131.648 20.4453C131.909 20.6693 132.219 20.8438 132.578 20.9688C132.943 21.0938 133.341 21.1563 133.773 21.1563C134.039 21.1563 134.286 21.1302 134.516 21.0781C134.745 21.0313 134.956 20.9635 135.148 20.875C135.336 20.7917 135.508 20.6927 135.664 20.5781C135.82 20.4635 135.958 20.3411 136.078 20.2109C136.104 20.362 136.135 20.5052 136.172 20.6406C136.208 20.776 136.253 20.8958 136.305 21ZM134.234 19.4766C134.031 19.4766 133.852 19.4531 133.695 19.4063C133.544 19.3542 133.417 19.2865 133.312 19.2031C133.208 19.1146 133.128 19.0078 133.07 18.8828C133.018 18.7526 132.992 18.612 132.992 18.4609C132.992 18.2682 133.029 18.0911 133.102 17.9297C133.174 17.763 133.286 17.6198 133.438 17.5C133.589 17.3854 133.784 17.2969 134.023 17.2344C134.263 17.1667 134.552 17.1328 134.891 17.1328H136V18.5859C135.938 18.6953 135.852 18.8047 135.742 18.9141C135.633 19.0182 135.503 19.112 135.352 19.1953C135.201 19.2786 135.031 19.3464 134.844 19.3984C134.656 19.4505 134.453 19.4766 134.234 19.4766Z" fill="#4A5568"/>
<rect x="11.5" y="55.5" width="309" height="89" rx="8.5" fill="#9F7AEA" stroke="#553C9A" stroke-width="3"/>
<rect x="333.5" y="55.5" width="155" height="89" rx="8.5" fill="#9F7AEA" stroke="#553C9A" stroke-width="3"/>
<rect x="11.5" y="167.5" width="309" height="47" rx="8.5" fill="#9F7AEA" stroke="#553C9A" stroke-width="3"/>
<rect x="333.5" y="167.5" width="155" height="47" rx="8.5" fill="#9F7AEA" stroke="#553C9A" stroke-width="3"/>
<rect x="11.5" y="237.5" width="309" height="92" rx="8.5" fill="#9F7AEA" stroke="#553C9A" stroke-width="3"/>
<rect x="11.5" y="352.5" width="309" height="36" rx="8.5" fill="#ED64A6" stroke="#97266D" stroke-width="3"/>
<rect x="11.5" y="411.5" width="309" height="36" rx="8.5" fill="#ED64A6" stroke="#97266D" stroke-width="3"/>
<rect x="333.5" y="237.5" width="155" height="92" rx="8.5" fill="#9F7AEA" stroke="#553C9A" stroke-width="3"/>
<rect x="333.5" y="352.5" width="155" height="36" rx="8.5" fill="#ED64A6" stroke="#97266D" stroke-width="3"/>
<path d="M28.1989 67.3636V74.7102C28.1989 76.0398 27.267 77 25.8352 77C24.4091 77 23.4716 76.0398 23.4716 74.7102V67.3636H21.0114V74.9205C21.0114 77.4659 22.9318 79.1648 25.8352 79.1648C28.7273 79.1648 30.6591 77.4659 30.6591 74.9205V67.3636H28.1989ZM32.6378 79H35.0582V73.7614C35.0582 72.7955 35.6719 72.1534 36.4787 72.1534C37.2741 72.1534 37.8082 72.6989 37.8082 73.5568V79H40.1548V73.6705C40.1548 72.767 40.6719 72.1534 41.5526 72.1534C42.3253 72.1534 42.9048 72.6364 42.9048 73.608V79H45.3196V73.1307C45.3196 71.2386 44.1946 70.1591 42.5696 70.1591C41.2912 70.1591 40.2969 70.8125 39.9389 71.8125H39.848C39.5696 70.8011 38.6776 70.1591 37.4787 70.1591C36.3026 70.1591 35.4105 70.7841 35.0469 71.8125H34.9446V70.2727H32.6378V79Z" fill="#553C9A"/>
<path d="M352.136 79C355.682 79 357.83 76.8068 357.83 73.1705C357.83 69.5455 355.682 67.3636 352.17 67.3636H348.011V79H352.136ZM350.472 76.892V69.4716H352.04C354.222 69.4716 355.375 70.5852 355.375 73.1705C355.375 75.767 354.222 76.892 352.034 76.892H350.472ZM363.55 79.1705C366.197 79.1705 367.845 77.358 367.845 74.6705C367.845 71.9659 366.197 70.1591 363.55 70.1591C360.902 70.1591 359.254 71.9659 359.254 74.6705C359.254 77.358 360.902 79.1705 363.55 79.1705ZM363.561 77.2955C362.339 77.2955 361.714 76.1761 361.714 74.6534C361.714 73.1307 362.339 72.0057 363.561 72.0057C364.76 72.0057 365.385 73.1307 365.385 74.6534C365.385 76.1761 364.76 77.2955 363.561 77.2955ZM369.419 79H371.839V70.2727H369.419V79ZM370.635 69.1477C371.357 69.1477 371.947 68.5966 371.947 67.9205C371.947 67.25 371.357 66.6989 370.635 66.6989C369.919 66.6989 369.328 67.25 369.328 67.9205C369.328 68.5966 369.919 69.1477 370.635 69.1477ZM381.04 72.7614C380.824 71.1534 379.528 70.1591 377.324 70.1591C375.091 70.1591 373.619 71.1932 373.625 72.875C373.619 74.1818 374.443 75.0284 376.148 75.3693L377.659 75.6705C378.42 75.8239 378.767 76.1023 378.778 76.5398C378.767 77.0568 378.205 77.4261 377.358 77.4261C376.494 77.4261 375.92 77.0568 375.773 76.3466L373.392 76.4716C373.619 78.142 375.04 79.1705 377.352 79.1705C379.614 79.1705 381.233 78.017 381.239 76.2955C381.233 75.0341 380.409 74.2784 378.716 73.9318L377.136 73.6136C376.324 73.4375 376.023 73.1591 376.028 72.7386C376.023 72.2159 376.614 71.875 377.364 71.875C378.205 71.875 378.705 72.3352 378.824 72.8977L381.04 72.7614Z" fill="#553C9A"/>
<path d="M20.5682 181.392H24.1307V191H26.5625V181.392H30.125V179.364H20.5682V181.392ZM30.7472 191H33.1676V186.062C33.1676 184.989 33.9517 184.25 35.0199 184.25C35.3551 184.25 35.8153 184.307 36.0426 184.381V182.233C35.8267 182.182 35.5256 182.148 35.2812 182.148C34.304 182.148 33.5028 182.716 33.1847 183.795H33.0938V182.273H30.7472V191ZM40.8651 191.17C43.0241 191.17 44.4787 190.119 44.8196 188.5L42.581 188.352C42.3366 189.017 41.7116 189.364 40.9048 189.364C39.6946 189.364 38.9276 188.562 38.9276 187.261V187.256H44.8707V186.591C44.8707 183.625 43.0753 182.159 40.7685 182.159C38.2003 182.159 36.5355 183.983 36.5355 186.676C36.5355 189.443 38.1776 191.17 40.8651 191.17ZM39.5696 181.239L40.7116 179.852L41.8537 181.239H43.9162V181.159L41.6094 178.659H39.8082L37.5071 181.159V181.239H39.5696ZM38.9276 185.756C38.9787 184.761 39.7344 183.966 40.8082 183.966C41.8594 183.966 42.5866 184.716 42.5923 185.756H38.9276ZM53.7116 184.761C53.4957 183.153 52.2003 182.159 49.9957 182.159C47.7628 182.159 46.2912 183.193 46.2969 184.875C46.2912 186.182 47.1151 187.028 48.8196 187.369L50.331 187.67C51.0923 187.824 51.4389 188.102 51.4503 188.54C51.4389 189.057 50.8764 189.426 50.0298 189.426C49.1662 189.426 48.5923 189.057 48.4446 188.347L46.0639 188.472C46.2912 190.142 47.7116 191.17 50.0241 191.17C52.2855 191.17 53.9048 190.017 53.9105 188.295C53.9048 187.034 53.081 186.278 51.3878 185.932L49.8082 185.614C48.9957 185.438 48.6946 185.159 48.7003 184.739C48.6946 184.216 49.2855 183.875 50.0355 183.875C50.8764 183.875 51.3764 184.335 51.4957 184.898L53.7116 184.761Z" fill="#553C9A"/>
<path d="M358.705 185.182C358.705 181.375 356.341 179.205 353.256 179.205C350.153 179.205 347.807 181.375 347.807 185.182C347.807 188.972 350.153 191.159 353.256 191.159C353.983 191.159 354.67 191.04 355.295 190.801L356.233 191.955H358.528L356.864 189.864C358 188.847 358.705 187.256 358.705 185.182ZM352.403 186.955L353.892 188.92C353.693 188.96 353.477 188.983 353.256 188.983C351.466 188.983 350.301 187.648 350.301 185.182C350.301 182.716 351.466 181.381 353.256 181.381C355.04 181.381 356.21 182.716 356.21 185.182C356.21 186.449 355.898 187.42 355.358 188.062L354.494 186.955H352.403ZM366.078 187.284C366.084 188.455 365.283 189.068 364.413 189.068C363.499 189.068 362.908 188.426 362.902 187.398V182.273H360.482V187.83C360.487 189.869 361.68 191.114 363.436 191.114C364.749 191.114 365.692 190.438 366.084 189.415H366.175V191H368.499V182.273H366.078V187.284ZM372.923 191.165C374.213 191.165 375.048 190.602 375.474 189.79H375.543V191H377.838V185.114C377.838 183.034 376.077 182.159 374.134 182.159C372.043 182.159 370.668 183.159 370.332 184.75L372.571 184.932C372.736 184.352 373.253 183.926 374.122 183.926C374.946 183.926 375.418 184.341 375.418 185.057V185.091C375.418 185.653 374.821 185.727 373.304 185.875C371.577 186.034 370.026 186.614 370.026 188.562C370.026 190.29 371.259 191.165 372.923 191.165ZM373.616 189.494C372.872 189.494 372.338 189.148 372.338 188.483C372.338 187.801 372.901 187.466 373.753 187.347C374.281 187.273 375.145 187.148 375.435 186.955V187.881C375.435 188.795 374.679 189.494 373.616 189.494ZM384.358 182.273H382.716V180.182H380.295V182.273H379.102V184.091H380.295V188.636C380.284 190.347 381.449 191.193 383.205 191.119C383.83 191.097 384.273 190.972 384.517 190.892L384.136 189.091C384.017 189.114 383.761 189.17 383.534 189.17C383.051 189.17 382.716 188.989 382.716 188.318V184.091H384.358V182.273ZM385.935 191H388.355V186.062C388.355 184.989 389.139 184.25 390.207 184.25C390.543 184.25 391.003 184.307 391.23 184.381V182.233C391.014 182.182 390.713 182.148 390.469 182.148C389.491 182.148 388.69 182.716 388.372 183.795H388.281V182.273H385.935V191ZM396.018 191.17C398.666 191.17 400.314 189.358 400.314 186.67C400.314 183.966 398.666 182.159 396.018 182.159C393.371 182.159 391.723 183.966 391.723 186.67C391.723 189.358 393.371 191.17 396.018 191.17ZM396.03 189.295C394.808 189.295 394.183 188.176 394.183 186.653C394.183 185.131 394.808 184.006 396.03 184.006C397.229 184.006 397.854 185.131 397.854 186.653C397.854 188.176 397.229 189.295 396.03 189.295Z" fill="#553C9A"/>
<path d="M31.2784 253.438C30.9545 250.75 28.9205 249.205 26.2273 249.205C23.1534 249.205 20.8068 251.375 20.8068 255.182C20.8068 258.977 23.1136 261.159 26.2273 261.159C29.2102 261.159 31.0114 259.176 31.2784 257.034L28.7898 257.023C28.5568 258.267 27.5795 258.983 26.267 258.983C24.5 258.983 23.3011 257.67 23.3011 255.182C23.3011 252.761 24.483 251.381 26.2841 251.381C27.6307 251.381 28.6023 252.159 28.7898 253.438H31.2784ZM32.9972 261H35.4176V252.273H32.9972V261ZM34.2131 251.148C34.9347 251.148 35.5256 250.597 35.5256 249.92C35.5256 249.25 34.9347 248.699 34.2131 248.699C33.4972 248.699 32.9062 249.25 32.9062 249.92C32.9062 250.597 33.4972 251.148 34.2131 251.148ZM39.777 255.955C39.7827 254.83 40.4531 254.17 41.4304 254.17C42.402 254.17 42.9872 254.807 42.9815 255.875V261H45.402V255.443C45.402 253.409 44.2088 252.159 42.3906 252.159C41.0952 252.159 40.1577 252.795 39.7656 253.812H39.6634V252.273H37.3565V261H39.777V255.955ZM51.2528 261.17C53.5767 261.17 55.0369 259.807 55.1506 257.801H52.8665C52.7244 258.733 52.1108 259.256 51.2812 259.256C50.1506 259.256 49.4176 258.307 49.4176 256.636C49.4176 254.989 50.1562 254.045 51.2812 254.045C52.1676 254.045 52.7358 254.631 52.8665 255.5H55.1506C55.0483 253.483 53.5199 252.159 51.2415 252.159C48.5938 252.159 46.9574 253.994 46.9574 256.67C46.9574 259.324 48.5653 261.17 51.2528 261.17ZM60.6435 261.17C63.2912 261.17 64.9389 259.358 64.9389 256.67C64.9389 253.966 63.2912 252.159 60.6435 252.159C57.9957 252.159 56.348 253.966 56.348 256.67C56.348 259.358 57.9957 261.17 60.6435 261.17ZM60.6548 259.295C59.4332 259.295 58.8082 258.176 58.8082 256.653C58.8082 255.131 59.4332 254.006 60.6548 254.006C61.8537 254.006 62.4787 255.131 62.4787 256.653C62.4787 258.176 61.8537 259.295 60.6548 259.295Z" fill="#553C9A"/>
<path d="M27.3239 367.71H29.6818C29.6477 365.636 27.9432 364.205 25.3523 364.205C22.8011 364.205 20.9318 365.614 20.9432 367.727C20.9375 369.443 22.1477 370.426 24.1136 370.898L25.3807 371.216C26.6477 371.523 27.3523 371.886 27.358 372.67C27.3523 373.523 26.5455 374.102 25.2955 374.102C24.017 374.102 23.0966 373.511 23.017 372.347H20.6364C20.6989 374.864 22.5 376.165 25.3239 376.165C28.1648 376.165 29.8352 374.807 29.8409 372.676C29.8352 370.739 28.375 369.71 26.3523 369.256L25.3068 369.006C24.2955 368.773 23.4489 368.398 23.4659 367.562C23.4659 366.812 24.1307 366.261 25.3352 366.261C26.5114 366.261 27.233 366.795 27.3239 367.71ZM35.4276 376.17C37.5866 376.17 39.0412 375.119 39.3821 373.5L37.1435 373.352C36.8991 374.017 36.2741 374.364 35.4673 374.364C34.2571 374.364 33.4901 373.562 33.4901 372.261V372.256H39.4332V371.591C39.4332 368.625 37.6378 367.159 35.331 367.159C32.7628 367.159 31.098 368.983 31.098 371.676C31.098 374.443 32.7401 376.17 35.4276 376.17ZM33.4901 370.756C33.5412 369.761 34.2969 368.966 35.3707 368.966C36.4219 368.966 37.1491 369.716 37.1548 370.756H33.4901ZM45.6548 367.273H44.0128V365.182H41.5923V367.273H40.3991V369.091H41.5923V373.636C41.581 375.347 42.7457 376.193 44.5014 376.119C45.1264 376.097 45.5696 375.972 45.8139 375.892L45.4332 374.091C45.3139 374.114 45.0582 374.17 44.831 374.17C44.348 374.17 44.0128 373.989 44.0128 373.318V369.091H45.6548V367.273ZM51.1151 376.17C53.2741 376.17 54.7287 375.119 55.0696 373.5L52.831 373.352C52.5866 374.017 51.9616 374.364 51.1548 374.364C49.9446 374.364 49.1776 373.562 49.1776 372.261V372.256H55.1207V371.591C55.1207 368.625 53.3253 367.159 51.0185 367.159C48.4503 367.159 46.7855 368.983 46.7855 371.676C46.7855 374.443 48.4276 376.17 51.1151 376.17ZM49.1776 370.756C49.2287 369.761 49.9844 368.966 51.0582 368.966C52.1094 368.966 52.8366 369.716 52.8423 370.756H49.1776Z" fill="#97266D"/>
<path d="M30.7443 423.364H28.2955V430.682H28.1932L23.1705 423.364H21.0114V435H23.4716V427.676H23.5568L28.6193 435H30.7443V423.364ZM36.6747 435.17C39.3224 435.17 40.9702 433.358 40.9702 430.67C40.9702 427.966 39.3224 426.159 36.6747 426.159C34.027 426.159 32.3793 427.966 32.3793 430.67C32.3793 433.358 34.027 435.17 36.6747 435.17ZM36.6861 433.295C35.4645 433.295 34.8395 432.176 34.8395 430.653C34.8395 429.131 35.4645 428.006 36.6861 428.006C37.8849 428.006 38.5099 429.131 38.5099 430.653C38.5099 432.176 37.8849 433.295 36.6861 433.295ZM50.3835 426.273H47.821L46.0142 432.517H45.9233L44.1108 426.273H41.554L44.6051 435H47.3324L50.3835 426.273ZM55.3026 435.17C57.4616 435.17 58.9162 434.119 59.2571 432.5L57.0185 432.352C56.7741 433.017 56.1491 433.364 55.3423 433.364C54.1321 433.364 53.3651 432.562 53.3651 431.261V431.256H59.3082V430.591C59.3082 427.625 57.5128 426.159 55.206 426.159C52.6378 426.159 50.973 427.983 50.973 430.676C50.973 433.443 52.6151 435.17 55.3026 435.17ZM53.3651 429.756C53.4162 428.761 54.1719 427.966 55.2457 427.966C56.2969 427.966 57.0241 428.716 57.0298 429.756H53.3651Z" fill="#97266D"/>
<path d="M354.324 252.71H356.682C356.648 250.636 354.943 249.205 352.352 249.205C349.801 249.205 347.932 250.614 347.943 252.727C347.938 254.443 349.148 255.426 351.114 255.898L352.381 256.216C353.648 256.523 354.352 256.886 354.358 257.67C354.352 258.523 353.545 259.102 352.295 259.102C351.017 259.102 350.097 258.511 350.017 257.347H347.636C347.699 259.864 349.5 261.165 352.324 261.165C355.165 261.165 356.835 259.807 356.841 257.676C356.835 255.739 355.375 254.71 353.352 254.256L352.307 254.006C351.295 253.773 350.449 253.398 350.466 252.562C350.466 251.812 351.131 251.261 352.335 251.261C353.511 251.261 354.233 251.795 354.324 252.71ZM362.428 261.17C364.587 261.17 366.041 260.119 366.382 258.5L364.143 258.352C363.899 259.017 363.274 259.364 362.467 259.364C361.257 259.364 360.49 258.562 360.49 257.261V257.256H366.433V256.591C366.433 253.625 364.638 252.159 362.331 252.159C359.763 252.159 358.098 253.983 358.098 256.676C358.098 259.443 359.74 261.17 362.428 261.17ZM360.49 255.756C360.541 254.761 361.297 253.966 362.371 253.966C363.422 253.966 364.149 254.716 364.155 255.756H360.49ZM368.013 261H370.433V252.273H368.013V261ZM369.229 251.148C369.95 251.148 370.541 250.597 370.541 249.92C370.541 249.25 369.95 248.699 369.229 248.699C368.513 248.699 367.922 249.25 367.922 249.92C367.922 250.597 368.513 251.148 369.229 251.148ZM379.634 254.761C379.418 253.153 378.122 252.159 375.918 252.159C373.685 252.159 372.213 253.193 372.219 254.875C372.213 256.182 373.037 257.028 374.741 257.369L376.253 257.67C377.014 257.824 377.361 258.102 377.372 258.54C377.361 259.057 376.798 259.426 375.952 259.426C375.088 259.426 374.514 259.057 374.366 258.347L371.986 258.472C372.213 260.142 373.634 261.17 375.946 261.17C378.207 261.17 379.827 260.017 379.832 258.295C379.827 257.034 379.003 256.278 377.31 255.932L375.73 255.614C374.918 255.438 374.616 255.159 374.622 254.739C374.616 254.216 375.207 253.875 375.957 253.875C376.798 253.875 377.298 254.335 377.418 254.898L379.634 254.761Z" fill="#553C9A"/>
<path d="M358.705 370.182C358.705 366.375 356.341 364.205 353.256 364.205C350.153 364.205 347.807 366.375 347.807 370.182C347.807 373.972 350.153 376.159 353.256 376.159C356.341 376.159 358.705 373.989 358.705 370.182ZM356.21 370.182C356.21 372.648 355.04 373.983 353.256 373.983C351.466 373.983 350.301 372.648 350.301 370.182C350.301 367.716 351.466 366.381 353.256 366.381C355.04 366.381 356.21 367.716 356.21 370.182ZM360.482 376H362.902V367.273H360.482V376ZM361.697 366.148C362.419 366.148 363.01 365.597 363.01 364.92C363.01 364.25 362.419 363.699 361.697 363.699C360.982 363.699 360.391 364.25 360.391 364.92C360.391 365.597 360.982 366.148 361.697 366.148ZM369.483 367.273H367.841V365.182H365.42V367.273H364.227V369.091H365.42V373.636C365.409 375.347 366.574 376.193 368.33 376.119C368.955 376.097 369.398 375.972 369.642 375.892L369.261 374.091C369.142 374.114 368.886 374.17 368.659 374.17C368.176 374.17 367.841 373.989 367.841 373.318V369.091H369.483V367.273ZM374.909 376.17C377.557 376.17 379.205 374.358 379.205 371.67C379.205 368.966 377.557 367.159 374.909 367.159C372.261 367.159 370.614 368.966 370.614 371.67C370.614 374.358 372.261 376.17 374.909 376.17ZM374.92 374.295C373.699 374.295 373.074 373.176 373.074 371.653C373.074 370.131 373.699 369.006 374.92 369.006C376.119 369.006 376.744 370.131 376.744 371.653C376.744 373.176 376.119 374.295 374.92 374.295Z" fill="#97266D"/>
</svg>
