<svg width="600" height="514" viewBox="0 0 600 514" fill="none" xmlns="http://www.w3.org/2000/svg">
<rect y="41" width="500" height="473" rx="10" fill="#E2E8F0"/>
<rect width="259" height="29" rx="10" fill="#E2E8F0"/>
<path d="M5.88281 16.7109V16.875C5.88281 17.4896 5.96094 18.0599 6.11719 18.5859C6.27865 19.1068 6.50781 19.5573 6.80469 19.9375C7.10156 20.3177 7.45833 20.6172 7.875 20.8359C8.29688 21.0495 8.77083 21.1562 9.29688 21.1562C9.5625 21.1562 9.8099 21.1276 10.0391 21.0703C10.2734 21.013 10.487 20.9323 10.6797 20.8281C10.8099 20.7552 10.9323 20.6719 11.0469 20.5781C11.1615 20.4844 11.2708 20.3802 11.375 20.2656V20.75C11.375 21.0365 11.3333 21.2943 11.25 21.5234C11.1719 21.7526 11.0573 21.9453 10.9062 22.1016C10.7396 22.2734 10.5312 22.4036 10.2812 22.4922C10.0365 22.5807 9.75521 22.625 9.4375 22.625C9.23958 22.625 9.04688 22.6042 8.85938 22.5625C8.67708 22.526 8.5 22.4688 8.32812 22.3906C8.15104 22.3125 7.98177 22.2109 7.82031 22.0859C7.65885 21.9661 7.50781 21.8255 7.36719 21.6641L6.39062 22.9844C6.57292 23.2188 6.79167 23.4193 7.04687 23.5859C7.30208 23.7578 7.57292 23.8984 7.85937 24.0078C8.14583 24.1172 8.4349 24.1979 8.72656 24.25C9.01823 24.3021 9.29167 24.3281 9.54688 24.3281C10.1406 24.3281 10.6823 24.2474 11.1719 24.0859C11.6667 23.9297 12.0911 23.6979 12.4453 23.3906C12.7943 23.0833 13.0651 22.7057 13.2578 22.2578C13.4557 21.8099 13.5547 21.2995 13.5547 20.7266L13.5547 12.5469H11.5781L11.4922 13.3516C11.388 13.2214 11.2734 13.1042 11.1484 13C11.0234 12.8906 10.888 12.7969 10.7422 12.7188C10.5495 12.6094 10.3333 12.5286 10.0938 12.4766C9.85938 12.4193 9.59896 12.3906 9.3125 12.3906C8.78125 12.3906 8.30469 12.4948 7.88281 12.7031C7.46094 12.9115 7.10156 13.2057 6.80469 13.5859C6.50781 13.9661 6.27865 14.4219 6.11719 14.9531C5.96094 15.4844 5.88281 16.0703 5.88281 16.7109ZM8.0625 16.875V16.7109C8.0625 16.3568 8.09896 16.026 8.17188 15.7188C8.24479 15.4062 8.35677 15.1328 8.50781 14.8984C8.65365 14.6693 8.83854 14.4896 9.0625 14.3594C9.28646 14.224 9.55208 14.1562 9.85938 14.1562C10.026 14.1562 10.1797 14.1719 10.3203 14.2031C10.4661 14.2344 10.599 14.2786 10.7188 14.3359C10.8594 14.4036 10.9844 14.4922 11.0938 14.6016C11.2031 14.7109 11.2969 14.8385 11.375 14.9844V18.5625C11.3021 18.6927 11.2161 18.8099 11.1172 18.9141C11.0182 19.0182 10.9036 19.1068 10.7734 19.1797C10.6484 19.2474 10.5078 19.2995 10.3516 19.3359C10.2005 19.3724 10.0312 19.3906 9.84375 19.3906C9.53646 19.3906 9.27083 19.3255 9.04688 19.1953C8.82292 19.0651 8.63802 18.8854 8.49219 18.6562C8.34635 18.4323 8.23698 18.1693 8.16406 17.8672C8.09635 17.5599 8.0625 17.2292 8.0625 16.875ZM21.7812 12.3906C21.2135 12.3906 20.6901 12.5286 20.2109 12.8047C19.7318 13.0755 19.3203 13.4505 18.9766 13.9297L18.9609 13.7422L18.875 12.5469H16.8516V21H19.0234V15.9219C19.1224 15.6823 19.2474 15.474 19.3984 15.2969C19.5495 15.1198 19.7318 14.974 19.9453 14.8594C20.1224 14.7604 20.3229 14.6875 20.5469 14.6406C20.776 14.5885 21.0312 14.5625 21.3125 14.5625C21.5833 14.5625 21.8672 14.5807 22.1641 14.6172C22.4661 14.6484 22.7604 14.6979 23.0469 14.7656L23.3672 12.6016C23.1953 12.5495 22.9688 12.5026 22.6875 12.4609C22.4115 12.4141 22.1094 12.3906 21.7812 12.3906ZM25.8984 12.5469V14.3203H28.3047V19.2344H25.8984V21H32.7891V19.2344H30.5V12.5469H25.8984ZM28.1484 10.3828C28.1484 10.5495 28.1771 10.7057 28.2344 10.8516C28.2969 10.9922 28.3828 11.112 28.4922 11.2109C28.6016 11.3151 28.7318 11.3958 28.8828 11.4531C29.0391 11.5104 29.2109 11.5391 29.3984 11.5391C29.7839 11.5391 30.0885 11.4323 30.3125 11.2188C30.5417 11 30.6562 10.7214 30.6562 10.3828C30.6562 10.0443 30.5417 9.76823 30.3125 9.55469C30.0885 9.33594 29.7839 9.22656 29.3984 9.22656C29.2109 9.22656 29.0391 9.25521 28.8828 9.3125C28.7318 9.36979 28.6016 9.44792 28.4922 9.54688C28.3828 9.65104 28.2969 9.77604 28.2344 9.92188C28.1771 10.0625 28.1484 10.2161 28.1484 10.3828ZM34.7031 16.7109V16.875C34.7031 17.4896 34.7786 18.0599 34.9297 18.5859C35.0807 19.1068 35.2995 19.5573 35.5859 19.9375C35.8672 20.3177 36.2109 20.6172 36.6172 20.8359C37.0286 21.0495 37.4922 21.1563 38.0078 21.1563C38.4818 21.1563 38.8984 21.0651 39.2578 20.8828C39.6172 20.7005 39.9297 20.4453 40.1953 20.1172L40.3047 21H42.2656V9H40.0859V13.3047C39.8255 13.013 39.526 12.7891 39.1875 12.6328C38.8542 12.4714 38.4661 12.3906 38.0234 12.3906C37.4974 12.3906 37.0286 12.4948 36.6172 12.7031C36.2109 12.9115 35.8646 13.2057 35.5781 13.5859C35.2917 13.9661 35.0729 14.4219 34.9219 14.9531C34.776 15.4844 34.7031 16.0703 34.7031 16.7109ZM36.875 16.875V16.7109C36.875 16.3568 36.9062 16.026 36.9688 15.7188C37.0312 15.4063 37.1302 15.1328 37.2656 14.8984C37.401 14.6693 37.5755 14.4896 37.7891 14.3594C38.0078 14.224 38.2708 14.1563 38.5781 14.1563C38.9479 14.1563 39.2552 14.237 39.5 14.3984C39.7448 14.5547 39.9401 14.776 40.0859 15.0625V18.4844C39.9401 18.7656 39.7422 18.987 39.4922 19.1484C39.2474 19.3099 38.9375 19.3906 38.5625 19.3906C38.2552 19.3906 37.9948 19.3255 37.7812 19.1953C37.5677 19.0651 37.3932 18.8854 37.2578 18.6562C37.1224 18.4323 37.0234 18.1693 36.9609 17.8672C36.9036 17.5599 36.875 17.2292 36.875 16.875ZM52.1484 16.8594V15.1016H45.6406V16.8594H52.1484ZM59.4297 21H61.6328V20.8672C61.5234 20.6536 61.4401 20.3984 61.3828 20.1016C61.3255 19.8047 61.2969 19.4297 61.2969 18.9766V15.3516C61.2969 14.862 61.2057 14.4323 61.0234 14.0625C60.8411 13.6875 60.5885 13.3776 60.2656 13.1328C59.9427 12.888 59.5599 12.7031 59.1172 12.5781C58.6797 12.4531 58.2057 12.3906 57.6953 12.3906C57.1276 12.3906 56.6224 12.4635 56.1797 12.6094C55.7422 12.75 55.3724 12.9427 55.0703 13.1875C54.763 13.4323 54.5286 13.7161 54.3672 14.0391C54.2109 14.362 54.1328 14.7031 54.1328 15.0625H56.3047C56.3047 14.9115 56.3255 14.7734 56.3672 14.6484C56.4141 14.5234 56.4844 14.4167 56.5781 14.3281C56.6823 14.2292 56.8177 14.1536 56.9844 14.1016C57.151 14.0443 57.349 14.0156 57.5781 14.0156C57.8385 14.0156 58.0651 14.0495 58.2578 14.1172C58.4557 14.1797 58.6198 14.2708 58.75 14.3906C58.875 14.5052 58.9688 14.6432 59.0312 14.8047C59.0938 14.9609 59.125 15.138 59.125 15.3359V15.8359H57.9141C57.2891 15.8359 56.7344 15.8932 56.25 16.0078C55.7708 16.1172 55.3672 16.2786 55.0391 16.4922C54.6745 16.7266 54.401 17.026 54.2188 17.3906C54.0365 17.75 53.9453 18.1641 53.9453 18.6328C53.9453 18.9974 54.0182 19.3359 54.1641 19.6484C54.3099 19.9557 54.513 20.2214 54.7734 20.4453C55.0339 20.6693 55.3438 20.8438 55.7031 20.9688C56.0677 21.0938 56.4661 21.1563 56.8984 21.1563C57.1641 21.1563 57.4115 21.1302 57.6406 21.0781C57.8698 21.0313 58.0807 20.9635 58.2734 20.875C58.4609 20.7917 58.6328 20.6927 58.7891 20.5781C58.9453 20.4635 59.0833 20.3411 59.2031 20.2109C59.2292 20.362 59.2604 20.5052 59.2969 20.6406C59.3333 20.776 59.3776 20.8958 59.4297 21ZM57.3594 19.4766C57.1562 19.4766 56.9766 19.4531 56.8203 19.4063C56.6693 19.3542 56.5417 19.2865 56.4375 19.2031C56.3333 19.1146 56.2526 19.0078 56.1953 18.8828C56.1432 18.7526 56.1172 18.612 56.1172 18.4609C56.1172 18.2682 56.1536 18.0911 56.2266 17.9297C56.2995 17.763 56.4115 17.6198 56.5625 17.5C56.7135 17.3854 56.9089 17.2969 57.1484 17.2344C57.388 17.1667 57.6771 17.1328 58.0156 17.1328H59.125V18.5859C59.0625 18.6953 58.9766 18.8047 58.8672 18.9141C58.7578 19.0182 58.6276 19.112 58.4766 19.1953C58.3255 19.2786 58.1562 19.3464 57.9688 19.3984C57.7812 19.4505 57.5781 19.4766 57.3594 19.4766ZM69.2734 21H71.2422V12.5469H69.0625V18.4766C68.9948 18.612 68.9141 18.7344 68.8203 18.8438C68.7266 18.9531 68.6198 19.0469 68.5 19.125C68.3594 19.2135 68.1953 19.2813 68.0078 19.3281C67.8255 19.375 67.6198 19.3984 67.3906 19.3984C67.1354 19.3984 66.9193 19.3672 66.7422 19.3047C66.5651 19.2422 66.4219 19.138 66.3125 18.9922C66.2031 18.8516 66.1224 18.6641 66.0703 18.4297C66.0234 18.1953 66 17.9063 66 17.5625V12.5469H63.8281V17.5469C63.8281 18.1875 63.8984 18.737 64.0391 19.1953C64.1849 19.6484 64.388 20.0208 64.6484 20.3125C64.9089 20.6094 65.2214 20.8255 65.5859 20.9609C65.9505 21.0964 66.3516 21.1641 66.7891 21.1641C67.2682 21.1641 67.7083 21.0443 68.1094 20.8047C68.5156 20.5651 68.862 20.2344 69.1484 19.8125L69.2734 21ZM77.3516 10.4766H75.1797V12.5469H73.25V14.1484H75.1797V17.9922C75.1797 18.5495 75.2526 19.0286 75.3984 19.4297C75.5443 19.8255 75.7526 20.151 76.0234 20.4063C76.2891 20.6667 76.6094 20.8594 76.9844 20.9844C77.3646 21.1042 77.7865 21.1641 78.25 21.1641C78.4896 21.1641 78.7318 21.151 78.9766 21.125C79.2266 21.1042 79.4661 21.0729 79.6953 21.0313C79.9245 20.9896 80.1406 20.9375 80.3438 20.875C80.5469 20.8073 80.724 20.7292 80.875 20.6406L80.6641 19.1484C80.5651 19.1745 80.4453 19.2005 80.3047 19.2266C80.1693 19.2526 80.0234 19.276 79.8672 19.2969C79.7057 19.3229 79.5365 19.3438 79.3594 19.3594C79.1875 19.375 79.0182 19.3828 78.8516 19.3828C78.6224 19.3828 78.4141 19.3568 78.2266 19.3047C78.0443 19.2526 77.888 19.1641 77.7578 19.0391C77.6276 18.9193 77.526 18.7578 77.4531 18.5547C77.3854 18.3464 77.3516 18.0885 77.3516 17.7813V14.1484H80.5078V12.5469H77.3516V10.4766ZM82.6797 16.6953V16.8594C82.6797 17.4792 82.7682 18.0521 82.9453 18.5781C83.1224 19.099 83.3828 19.5521 83.7266 19.9375C84.0651 20.3229 84.4818 20.625 84.9766 20.8438C85.4766 21.0573 86.0443 21.1641 86.6797 21.1641C87.3099 21.1641 87.8724 21.0573 88.3672 20.8438C88.862 20.625 89.2786 20.3229 89.6172 19.9375C89.9557 19.5521 90.2135 19.099 90.3906 18.5781C90.5677 18.0521 90.6562 17.4792 90.6562 16.8594V16.6953C90.6562 16.0807 90.5677 15.513 90.3906 14.9922C90.2135 14.4661 89.9557 14.0104 89.6172 13.625C89.2734 13.2396 88.8542 12.9375 88.3594 12.7188C87.8646 12.5 87.2995 12.3906 86.6641 12.3906C86.0286 12.3906 85.4635 12.5 84.9688 12.7188C84.4792 12.9375 84.0651 13.2396 83.7266 13.625C83.3828 14.0104 83.1224 14.4661 82.9453 14.9922C82.7682 15.513 82.6797 16.0807 82.6797 16.6953ZM84.8516 16.8594V16.6953C84.8516 16.3516 84.8854 16.026 84.9531 15.7188C85.0208 15.4115 85.1276 15.1406 85.2734 14.9063C85.4193 14.6719 85.6068 14.487 85.8359 14.3516C86.0651 14.2161 86.3411 14.1484 86.6641 14.1484C86.9922 14.1484 87.2708 14.2161 87.5 14.3516C87.7292 14.487 87.9167 14.6719 88.0625 14.9063C88.2031 15.1406 88.3073 15.4115 88.375 15.7188C88.4427 16.026 88.4766 16.3516 88.4766 16.6953V16.8594C88.4766 17.2135 88.4427 17.5469 88.375 17.8594C88.3073 18.1667 88.2031 18.4349 88.0625 18.6641C87.9167 18.8984 87.7292 19.0833 87.5 19.2188C87.2708 19.3542 86.9974 19.4219 86.6797 19.4219C86.3516 19.4219 86.0703 19.3542 85.8359 19.2188C85.6068 19.0833 85.4193 18.8984 85.2734 18.6641C85.1276 18.4349 85.0208 18.1667 84.9531 17.8594C84.8854 17.5469 84.8516 17.2135 84.8516 16.8594ZM100.195 16.8594V15.1016H93.6875V16.8594H100.195ZM108.266 12.3906C107.698 12.3906 107.174 12.5286 106.695 12.8047C106.216 13.0755 105.805 13.4505 105.461 13.9297L105.445 13.7422L105.359 12.5469H103.336V21H105.508V15.9219C105.607 15.6823 105.732 15.474 105.883 15.2969C106.034 15.1198 106.216 14.974 106.43 14.8594C106.607 14.7604 106.807 14.6875 107.031 14.6406C107.26 14.5885 107.516 14.5625 107.797 14.5625C108.068 14.5625 108.352 14.5807 108.648 14.6172C108.951 14.6484 109.245 14.6979 109.531 14.7656L109.852 12.6016C109.68 12.5495 109.453 12.5026 109.172 12.4609C108.896 12.4141 108.594 12.3906 108.266 12.3906ZM111.508 16.6953V16.8594C111.508 17.4792 111.596 18.0521 111.773 18.5781C111.951 19.099 112.211 19.5521 112.555 19.9375C112.893 20.3229 113.31 20.625 113.805 20.8438C114.305 21.0573 114.872 21.1641 115.508 21.1641C116.138 21.1641 116.701 21.0573 117.195 20.8438C117.69 20.625 118.107 20.3229 118.445 19.9375C118.784 19.5521 119.042 19.099 119.219 18.5781C119.396 18.0521 119.484 17.4792 119.484 16.8594V16.6953C119.484 16.0807 119.396 15.513 119.219 14.9922C119.042 14.4661 118.784 14.0104 118.445 13.625C118.102 13.2396 117.682 12.9375 117.188 12.7188C116.693 12.5 116.128 12.3906 115.492 12.3906C114.857 12.3906 114.292 12.5 113.797 12.7188C113.307 12.9375 112.893 13.2396 112.555 13.625C112.211 14.0104 111.951 14.4661 111.773 14.9922C111.596 15.513 111.508 16.0807 111.508 16.6953ZM113.68 16.8594V16.6953C113.68 16.3516 113.714 16.026 113.781 15.7188C113.849 15.4115 113.956 15.1406 114.102 14.9063C114.247 14.6719 114.435 14.487 114.664 14.3516C114.893 14.2161 115.169 14.1484 115.492 14.1484C115.82 14.1484 116.099 14.2161 116.328 14.3516C116.557 14.487 116.745 14.6719 116.891 14.9063C117.031 15.1406 117.135 15.4115 117.203 15.7188C117.271 16.026 117.305 16.3516 117.305 16.6953V16.8594C117.305 17.2135 117.271 17.5469 117.203 17.8594C117.135 18.1667 117.031 18.4349 116.891 18.6641C116.745 18.8984 116.557 19.0833 116.328 19.2188C116.099 19.3542 115.826 19.4219 115.508 19.4219C115.18 19.4219 114.898 19.3542 114.664 19.2188C114.435 19.0833 114.247 18.8984 114.102 18.6641C113.956 18.4349 113.849 18.1667 113.781 17.8594C113.714 17.5469 113.68 17.2135 113.68 16.8594ZM122.039 21H123.945L124.844 16.4844L125.016 15.625L125.195 16.4844L126.125 21H128.031L129.547 12.5469H127.555L126.93 17.5313L126.82 18.3516L126.672 17.5469L125.758 12.5469H124.305L123.391 17.5703L123.242 18.375L123.141 17.5703L122.508 12.5469H120.523L122.039 21ZM136.477 18.6797C136.477 18.8099 136.443 18.9297 136.375 19.0391C136.312 19.1484 136.216 19.2448 136.086 19.3281C135.951 19.4115 135.776 19.4792 135.562 19.5313C135.354 19.5781 135.109 19.6016 134.828 19.6016C134.594 19.6016 134.365 19.5781 134.141 19.5313C133.922 19.4844 133.727 19.4089 133.555 19.3047C133.383 19.2057 133.242 19.0755 133.133 18.9141C133.023 18.7474 132.961 18.5495 132.945 18.3203H130.875C130.875 18.6641 130.958 19.0078 131.125 19.3516C131.297 19.6901 131.547 19.9922 131.875 20.2578C132.203 20.5286 132.609 20.7474 133.094 20.9141C133.583 21.0807 134.146 21.1641 134.781 21.1641C135.359 21.1641 135.883 21.1016 136.352 20.9766C136.82 20.8464 137.221 20.6667 137.555 20.4375C137.883 20.2083 138.135 19.9375 138.312 19.625C138.495 19.3073 138.586 18.9609 138.586 18.5859C138.586 18.1797 138.495 17.8307 138.312 17.5391C138.135 17.2422 137.888 16.9896 137.57 16.7813C137.253 16.5781 136.875 16.4115 136.438 16.2813C136 16.151 135.526 16.0443 135.016 15.9609C134.661 15.9089 134.37 15.849 134.141 15.7813C133.911 15.7083 133.732 15.6276 133.602 15.5391C133.466 15.4557 133.372 15.362 133.32 15.2578C133.268 15.1484 133.242 15.0313 133.242 14.9063C133.242 14.7813 133.271 14.6641 133.328 14.5547C133.391 14.4401 133.479 14.3411 133.594 14.2578C133.719 14.1641 133.88 14.0911 134.078 14.0391C134.276 13.987 134.508 13.9609 134.773 13.9609C135.086 13.9609 135.352 14 135.57 14.0781C135.794 14.1563 135.971 14.2604 136.102 14.3906C136.195 14.4896 136.266 14.6016 136.312 14.7266C136.359 14.8464 136.383 14.9766 136.383 15.1172H138.555C138.555 14.7266 138.469 14.3646 138.297 14.0313C138.125 13.6979 137.878 13.4089 137.555 13.1641C137.227 12.9245 136.828 12.737 136.359 12.6016C135.891 12.4609 135.362 12.3906 134.773 12.3906C134.211 12.3906 133.706 12.4609 133.258 12.6016C132.81 12.7422 132.43 12.9323 132.117 13.1719C131.805 13.4115 131.565 13.6901 131.398 14.0078C131.232 14.3255 131.148 14.6589 131.148 15.0078C131.148 15.3672 131.229 15.6849 131.391 15.9609C131.557 16.237 131.786 16.4792 132.078 16.6875C132.37 16.901 132.719 17.0833 133.125 17.2344C133.536 17.3802 133.99 17.5026 134.484 17.6016C134.875 17.6745 135.198 17.7474 135.453 17.8203C135.708 17.8932 135.914 17.9714 136.07 18.0547C136.221 18.1432 136.326 18.237 136.383 18.3359C136.445 18.4349 136.477 18.5495 136.477 18.6797ZM142.938 19.7422C142.938 20.1432 143.073 20.4792 143.344 20.75C143.615 21.0208 143.982 21.1563 144.445 21.1563C144.904 21.1563 145.268 21.0234 145.539 20.7578C145.815 20.487 145.953 20.1484 145.953 19.7422C145.953 19.3359 145.818 18.9948 145.547 18.7188C145.281 18.4427 144.914 18.3047 144.445 18.3047C143.971 18.3047 143.602 18.4453 143.336 18.7266C143.07 19.0026 142.938 19.3411 142.938 19.7422ZM142.938 13.2891C142.938 13.6901 143.073 14.026 143.344 14.2969C143.615 14.5677 143.982 14.7031 144.445 14.7031C144.904 14.7031 145.268 14.5703 145.539 14.3047C145.815 14.0339 145.953 13.6953 145.953 13.2891C145.953 12.8828 145.818 12.5417 145.547 12.2656C145.281 11.9896 144.914 11.8516 144.445 11.8516C143.971 11.8516 143.602 11.9922 143.336 12.2734C143.07 12.5495 142.938 12.888 142.938 13.2891ZM159.961 15.3984L161.695 15.8281C161.779 15.7448 161.867 15.6667 161.961 15.5938C162.055 15.5156 162.161 15.4479 162.281 15.3906C162.401 15.3333 162.539 15.2865 162.695 15.25C162.852 15.2135 163.036 15.1953 163.25 15.1953C163.568 15.1953 163.844 15.2448 164.078 15.3438C164.312 15.4427 164.508 15.5833 164.664 15.7656C164.82 15.9479 164.935 16.1667 165.008 16.4219C165.086 16.6719 165.125 16.9479 165.125 17.25C165.125 17.5573 165.094 17.8438 165.031 18.1094C164.974 18.375 164.883 18.6042 164.758 18.7969C164.628 18.9896 164.458 19.1406 164.25 19.25C164.047 19.3594 163.799 19.4141 163.508 19.4141C163.034 19.4141 162.643 19.2786 162.336 19.0078C162.034 18.737 161.857 18.3542 161.805 17.8594H159.664C159.68 18.3854 159.797 18.8542 160.016 19.2656C160.24 19.6719 160.529 20.0156 160.883 20.2969C161.237 20.5781 161.641 20.7917 162.094 20.9375C162.552 21.0833 163.026 21.1563 163.516 21.1563C164.161 21.1563 164.721 21.0547 165.195 20.8516C165.669 20.6484 166.062 20.3724 166.375 20.0234C166.688 19.6745 166.919 19.2708 167.07 18.8125C167.221 18.3542 167.297 17.8698 167.297 17.3594C167.297 16.7604 167.219 16.224 167.062 15.75C166.906 15.276 166.682 14.875 166.391 14.5469C166.094 14.2188 165.729 13.9688 165.297 13.7969C164.87 13.6198 164.383 13.5313 163.836 13.5313C163.451 13.5313 163.109 13.5807 162.812 13.6797C162.516 13.7786 162.286 13.875 162.125 13.9688L162.398 11.4688H166.922V9.625H160.609L159.961 15.3984ZM176.867 16.6719V13.9531C176.867 13.2188 176.781 12.5729 176.609 12.0156C176.438 11.4531 176.193 10.9818 175.875 10.6016C175.552 10.2266 175.161 9.94271 174.703 9.75C174.245 9.55729 173.729 9.46094 173.156 9.46094C172.589 9.46094 172.076 9.55729 171.617 9.75C171.164 9.94271 170.779 10.2266 170.461 10.6016C170.138 10.9818 169.891 11.4531 169.719 12.0156C169.547 12.5729 169.461 13.2188 169.461 13.9531V16.6719C169.461 17.4063 169.547 18.0547 169.719 18.6172C169.896 19.1745 170.146 19.6406 170.469 20.0156C170.786 20.3958 171.174 20.6823 171.633 20.875C172.091 21.0677 172.604 21.1641 173.172 21.1641C173.745 21.1641 174.26 21.0677 174.719 20.875C175.177 20.6823 175.565 20.3958 175.883 20.0156C176.201 19.6406 176.443 19.1745 176.609 18.6172C176.781 18.0547 176.867 17.4063 176.867 16.6719ZM171.648 15.7344C171.648 15.5729 171.648 15.4505 171.648 15.3672C171.648 15.2839 171.648 15.1172 171.648 14.8672V13.6094C171.648 13.1875 171.68 12.8229 171.742 12.5156C171.81 12.2083 171.911 11.9583 172.047 11.7656C172.172 11.5833 172.326 11.4479 172.508 11.3594C172.695 11.2656 172.911 11.2188 173.156 11.2188C173.375 11.2188 173.57 11.2552 173.742 11.3281C173.919 11.3958 174.068 11.5026 174.188 11.6484C174.344 11.8307 174.461 12.0755 174.539 12.3828C174.622 12.6849 174.669 13.0495 174.68 13.4766L171.648 15.7344ZM174.68 17C174.68 17.4219 174.646 17.7891 174.578 18.1016C174.516 18.4089 174.419 18.6615 174.289 18.8594C174.164 19.0469 174.008 19.1875 173.82 19.2813C173.633 19.3698 173.417 19.4141 173.172 19.4141C172.906 19.4141 172.677 19.362 172.484 19.2578C172.292 19.1536 172.133 18.9948 172.008 18.7813C171.898 18.6042 171.812 18.3828 171.75 18.1172C171.693 17.8516 171.659 17.5469 171.648 17.2031L174.68 14.9531C174.68 15.1042 174.68 15.2214 174.68 15.3047C174.68 15.3828 174.68 15.5078 174.68 15.6797V17ZM179.102 24.25H181.273V20.2656C181.372 20.375 181.477 20.474 181.586 20.5625C181.695 20.651 181.81 20.7318 181.93 20.8047C182.133 20.9193 182.352 21.0052 182.586 21.0625C182.826 21.125 183.086 21.1563 183.367 21.1563C183.898 21.1563 184.37 21.0469 184.781 20.8281C185.193 20.6094 185.539 20.3073 185.82 19.9219C186.096 19.5417 186.305 19.0885 186.445 18.5625C186.591 18.0365 186.664 17.4661 186.664 16.8516V16.6875C186.664 16.0469 186.591 15.4635 186.445 14.9375C186.305 14.4063 186.094 13.9505 185.812 13.5703C185.531 13.1953 185.185 12.9063 184.773 12.7031C184.362 12.4948 183.888 12.3906 183.352 12.3906C183.091 12.3906 182.846 12.4193 182.617 12.4766C182.393 12.5286 182.188 12.6042 182 12.7031C181.844 12.7865 181.698 12.8854 181.562 13C181.427 13.1094 181.302 13.2344 181.188 13.375L181.109 12.5469L179.102 12.5469V24.25ZM184.492 16.6875V16.8516C184.492 17.2005 184.461 17.5313 184.398 17.8438C184.336 18.151 184.237 18.4219 184.102 18.6563C183.966 18.8906 183.789 19.0755 183.57 19.2109C183.357 19.3464 183.096 19.4141 182.789 19.4141C182.596 19.4141 182.422 19.3958 182.266 19.3594C182.109 19.3177 181.971 19.2604 181.852 19.1875C181.727 19.1094 181.615 19.0156 181.516 18.9063C181.422 18.7969 181.341 18.6745 181.273 18.5391V15.0078C181.346 14.862 181.432 14.7344 181.531 14.625C181.635 14.5156 181.755 14.4245 181.891 14.3516C182.01 14.2891 182.143 14.2422 182.289 14.2109C182.435 14.1745 182.596 14.1563 182.773 14.1563C183.081 14.1563 183.341 14.2214 183.555 14.3516C183.773 14.4818 183.953 14.6589 184.094 14.8828C184.229 15.112 184.328 15.3828 184.391 15.6953C184.458 16.0026 184.492 16.3333 184.492 16.6875ZM192.547 15.1875L190.719 12.5469H188.383L191.211 16.6953L188.273 21H190.625L192.555 18.2344L194.5 21H196.844L193.906 16.6953L196.742 12.5469H194.406L192.547 15.1875ZM215.039 12.6484C215.039 12.1328 214.948 11.6797 214.766 11.2891C214.589 10.8932 214.341 10.5599 214.023 10.2891C213.701 10.0182 213.32 9.8151 212.883 9.67969C212.445 9.53906 211.969 9.46875 211.453 9.46875C210.938 9.46875 210.461 9.53906 210.023 9.67969C209.591 9.8151 209.219 10.0182 208.906 10.2891C208.589 10.5599 208.341 10.8932 208.164 11.2891C207.987 11.6797 207.898 12.1328 207.898 12.6484C207.898 12.9297 207.935 13.1979 208.008 13.4531C208.086 13.7083 208.195 13.9427 208.336 14.1563C208.466 14.3594 208.625 14.5443 208.812 14.7109C209.005 14.8776 209.219 15.0208 209.453 15.1406C209.177 15.2708 208.927 15.4297 208.703 15.6172C208.484 15.7995 208.297 16.0052 208.141 16.2344C207.984 16.4688 207.862 16.7266 207.773 17.0078C207.69 17.2839 207.648 17.5781 207.648 17.8906C207.648 18.4271 207.745 18.8984 207.938 19.3047C208.135 19.7109 208.406 20.0495 208.75 20.3203C209.094 20.5964 209.497 20.8047 209.961 20.9453C210.43 21.0859 210.935 21.1563 211.477 21.1563C212.013 21.1563 212.513 21.0859 212.977 20.9453C213.44 20.8047 213.844 20.5964 214.188 20.3203C214.526 20.0495 214.792 19.7109 214.984 19.3047C215.182 18.8984 215.281 18.4271 215.281 17.8906C215.281 17.4844 215.211 17.1094 215.07 16.7656C214.93 16.4219 214.734 16.1198 214.484 15.8594C214.349 15.7135 214.195 15.5833 214.023 15.4688C213.852 15.349 213.669 15.2422 213.477 15.1484C213.69 15.0391 213.883 14.9115 214.055 14.7656C214.232 14.6146 214.385 14.4531 214.516 14.2813C214.682 14.0521 214.81 13.8021 214.898 13.5313C214.992 13.2552 215.039 12.9609 215.039 12.6484ZM213.102 17.7422C213.102 18.0026 213.06 18.237 212.977 18.4453C212.898 18.6484 212.789 18.8229 212.648 18.9688C212.503 19.1146 212.331 19.2266 212.133 19.3047C211.935 19.3776 211.716 19.4141 211.477 19.4141C211.232 19.4141 211.01 19.3802 210.812 19.3125C210.615 19.2396 210.445 19.1354 210.305 19C210.154 18.8594 210.036 18.6823 209.953 18.4688C209.87 18.2552 209.828 18.013 209.828 17.7422C209.828 17.4818 209.867 17.2474 209.945 17.0391C210.023 16.8307 210.133 16.651 210.273 16.5C210.414 16.3542 210.583 16.2422 210.781 16.1641C210.984 16.0859 211.211 16.0469 211.461 16.0469C211.711 16.0469 211.935 16.0859 212.133 16.1641C212.336 16.2422 212.51 16.3542 212.656 16.5C212.797 16.651 212.906 16.8307 212.984 17.0391C213.062 17.2474 213.102 17.4818 213.102 17.7422ZM212.875 12.75C212.875 12.9792 212.841 13.1901 212.773 13.3828C212.711 13.5703 212.62 13.7318 212.5 13.8672C212.38 14.0026 212.234 14.1094 212.062 14.1875C211.891 14.2604 211.695 14.2969 211.477 14.2969C211.258 14.2969 211.06 14.2604 210.883 14.1875C210.711 14.1094 210.565 14.0026 210.445 13.8672C210.32 13.7318 210.227 13.5703 210.164 13.3828C210.102 13.1901 210.07 12.9792 210.07 12.75C210.07 12.5156 210.099 12.3047 210.156 12.1172C210.219 11.9245 210.31 11.763 210.43 11.6328C210.544 11.5026 210.688 11.4036 210.859 11.3359C211.031 11.263 211.229 11.2266 211.453 11.2266C211.672 11.2266 211.867 11.263 212.039 11.3359C212.216 11.4089 212.367 11.5104 212.492 11.6406C212.612 11.776 212.706 11.9375 212.773 12.125C212.841 12.3125 212.875 12.5208 212.875 12.75ZM224.914 16.6719V13.9531C224.914 13.2188 224.828 12.5729 224.656 12.0156C224.484 11.4531 224.24 10.9818 223.922 10.6016C223.599 10.2266 223.208 9.94271 222.75 9.75C222.292 9.55729 221.776 9.46094 221.203 9.46094C220.635 9.46094 220.122 9.55729 219.664 9.75C219.211 9.94271 218.826 10.2266 218.508 10.6016C218.185 10.9818 217.938 11.4531 217.766 12.0156C217.594 12.5729 217.508 13.2188 217.508 13.9531V16.6719C217.508 17.4063 217.594 18.0547 217.766 18.6172C217.943 19.1745 218.193 19.6406 218.516 20.0156C218.833 20.3958 219.221 20.6823 219.68 20.875C220.138 21.0677 220.651 21.1641 221.219 21.1641C221.792 21.1641 222.307 21.0677 222.766 20.875C223.224 20.6823 223.612 20.3958 223.93 20.0156C224.247 19.6406 224.49 19.1745 224.656 18.6172C224.828 18.0547 224.914 17.4063 224.914 16.6719ZM219.695 15.7344C219.695 15.5729 219.695 15.4505 219.695 15.3672C219.695 15.2839 219.695 15.1172 219.695 14.8672V13.6094C219.695 13.1875 219.727 12.8229 219.789 12.5156C219.857 12.2083 219.958 11.9583 220.094 11.7656C220.219 11.5833 220.372 11.4479 220.555 11.3594C220.742 11.2656 220.958 11.2188 221.203 11.2188C221.422 11.2188 221.617 11.2552 221.789 11.3281C221.966 11.3958 222.115 11.5026 222.234 11.6484C222.391 11.8307 222.508 12.0755 222.586 12.3828C222.669 12.6849 222.716 13.0495 222.727 13.4766L219.695 15.7344ZM222.727 17C222.727 17.4219 222.693 17.7891 222.625 18.1016C222.562 18.4089 222.466 18.6615 222.336 18.8594C222.211 19.0469 222.055 19.1875 221.867 19.2813C221.68 19.3698 221.464 19.4141 221.219 19.4141C220.953 19.4141 220.724 19.362 220.531 19.2578C220.339 19.1536 220.18 18.9948 220.055 18.7813C219.945 18.6042 219.859 18.3828 219.797 18.1172C219.74 17.8516 219.706 17.5469 219.695 17.2031L222.727 14.9531C222.727 15.1042 222.727 15.2214 222.727 15.3047C222.727 15.3828 222.727 15.5078 222.727 15.6797V17ZM227.148 24.25L229.32 24.25V20.2656C229.419 20.375 229.523 20.474 229.633 20.5625C229.742 20.651 229.857 20.7318 229.977 20.8047C230.18 20.9193 230.398 21.0052 230.633 21.0625C230.872 21.125 231.133 21.1563 231.414 21.1563C231.945 21.1563 232.417 21.0469 232.828 20.8281C233.24 20.6094 233.586 20.3073 233.867 19.9219C234.143 19.5417 234.352 19.0885 234.492 18.5625C234.638 18.0365 234.711 17.4661 234.711 16.8516V16.6875C234.711 16.0469 234.638 15.4635 234.492 14.9375C234.352 14.4063 234.141 13.9505 233.859 13.5703C233.578 13.1953 233.232 12.9063 232.82 12.7031C232.409 12.4948 231.935 12.3906 231.398 12.3906C231.138 12.3906 230.893 12.4193 230.664 12.4766C230.44 12.5286 230.234 12.6042 230.047 12.7031C229.891 12.7865 229.745 12.8854 229.609 13C229.474 13.1094 229.349 13.2344 229.234 13.375L229.156 12.5469H227.148V24.25ZM232.539 16.6875V16.8516C232.539 17.2005 232.508 17.5313 232.445 17.8438C232.383 18.151 232.284 18.4219 232.148 18.6563C232.013 18.8906 231.836 19.0755 231.617 19.2109C231.404 19.3464 231.143 19.4141 230.836 19.4141C230.643 19.4141 230.469 19.3958 230.312 19.3594C230.156 19.3177 230.018 19.2604 229.898 19.1875C229.773 19.1094 229.661 19.0156 229.562 18.9063C229.469 18.7969 229.388 18.6745 229.32 18.5391V15.0078C229.393 14.862 229.479 14.7344 229.578 14.625C229.682 14.5156 229.802 14.4245 229.938 14.3516C230.057 14.2891 230.19 14.2422 230.336 14.2109C230.482 14.1745 230.643 14.1563 230.82 14.1563C231.128 14.1563 231.388 14.2214 231.602 14.3516C231.82 14.4818 232 14.6589 232.141 14.8828C232.276 15.112 232.375 15.3828 232.438 15.6953C232.505 16.0026 232.539 16.3333 232.539 16.6875ZM240.594 15.1875L238.766 12.5469H236.43L239.258 16.6953L236.32 21H238.672L240.602 18.2344L242.547 21H244.891L241.953 16.6953L244.789 12.5469H242.453L240.594 15.1875ZM248.945 13.2891C248.945 13.6901 249.081 14.026 249.352 14.2969C249.622 14.5677 249.99 14.7031 250.453 14.7031C250.911 14.7031 251.276 14.5703 251.547 14.3047C251.823 14.0339 251.961 13.6953 251.961 13.2891C251.961 12.8828 251.826 12.5417 251.555 12.2656C251.289 11.9896 250.922 11.8516 250.453 11.8516C249.979 11.8516 249.609 11.9922 249.344 12.2734C249.078 12.5495 248.945 12.888 248.945 13.2891ZM251.375 20.8281L251.383 19.1016H249.344V20.9297C249.344 21.5026 249.276 21.9922 249.141 22.3984C249.005 22.8099 248.839 23.2031 248.641 23.5781L249.789 24.1719C250.258 23.7552 250.638 23.2422 250.93 22.6328C251.227 22.0234 251.375 21.4219 251.375 20.8281Z" fill="#4A5568"/>
<rect x="11.5" y="55.5" width="309" height="77" rx="8.5" fill="#9F7AEA" stroke="#553C9A" stroke-width="3"/>
<rect x="333.5" y="55.5" width="155" height="77" rx="8.5" fill="#9F7AEA" stroke="#553C9A" stroke-width="3"/>
<rect x="11.5" y="155.5" width="309" height="77" rx="8.5" fill="#9F7AEA" stroke="#553C9A" stroke-width="3"/>
<rect x="333.5" y="155.5" width="155" height="77" rx="8.5" fill="#9F7AEA" stroke="#553C9A" stroke-width="3"/>
<rect x="11.5" y="255.5" width="309" height="77" rx="8.5" fill="#9F7AEA" stroke="#553C9A" stroke-width="3"/>
<rect x="11.5" y="355.5" width="309" height="47" rx="8.5" fill="#ED64A6" stroke="#97266D" stroke-width="3"/>
<rect x="11.5" y="425.5" width="309" height="77" rx="8.5" fill="#ED64A6" stroke="#97266D" stroke-width="3"/>
<rect x="333.5" y="255.5" width="155" height="77" rx="8.5" fill="#9F7AEA" stroke="#553C9A" stroke-width="3"/>
<rect x="333.5" y="355.5" width="155" height="47" rx="8.5" fill="#ED64A6" stroke="#97266D" stroke-width="3"/>
<path d="M28.1989 67.3636V74.7102C28.1989 76.0398 27.267 77 25.8352 77C24.4091 77 23.4716 76.0398 23.4716 74.7102V67.3636H21.0114V74.9205C21.0114 77.4659 22.9318 79.1648 25.8352 79.1648C28.7273 79.1648 30.6591 77.4659 30.6591 74.9205V67.3636H28.1989ZM32.6378 79H35.0582V73.7614C35.0582 72.7955 35.6719 72.1534 36.4787 72.1534C37.2741 72.1534 37.8082 72.6989 37.8082 73.5568V79H40.1548V73.6705C40.1548 72.767 40.6719 72.1534 41.5526 72.1534C42.3253 72.1534 42.9048 72.6364 42.9048 73.608V79H45.3196V73.1307C45.3196 71.2386 44.1946 70.1591 42.5696 70.1591C41.2912 70.1591 40.2969 70.8125 39.9389 71.8125H39.848C39.5696 70.8011 38.6776 70.1591 37.4787 70.1591C36.3026 70.1591 35.4105 70.7841 35.0469 71.8125H34.9446V70.2727H32.6378V79Z" fill="#553C9A"/>
<path d="M352.136 79C355.682 79 357.83 76.8068 357.83 73.1705C357.83 69.5455 355.682 67.3636 352.17 67.3636H348.011V79H352.136ZM350.472 76.892V69.4716H352.04C354.222 69.4716 355.375 70.5852 355.375 73.1705C355.375 75.767 354.222 76.892 352.034 76.892H350.472ZM363.55 79.1705C366.197 79.1705 367.845 77.358 367.845 74.6705C367.845 71.9659 366.197 70.1591 363.55 70.1591C360.902 70.1591 359.254 71.9659 359.254 74.6705C359.254 77.358 360.902 79.1705 363.55 79.1705ZM363.561 77.2955C362.339 77.2955 361.714 76.1761 361.714 74.6534C361.714 73.1307 362.339 72.0057 363.561 72.0057C364.76 72.0057 365.385 73.1307 365.385 74.6534C365.385 76.1761 364.76 77.2955 363.561 77.2955ZM369.419 79H371.839V70.2727H369.419V79ZM370.635 69.1477C371.357 69.1477 371.947 68.5966 371.947 67.9205C371.947 67.25 371.357 66.6989 370.635 66.6989C369.919 66.6989 369.328 67.25 369.328 67.9205C369.328 68.5966 369.919 69.1477 370.635 69.1477ZM381.04 72.7614C380.824 71.1534 379.528 70.1591 377.324 70.1591C375.091 70.1591 373.619 71.1932 373.625 72.875C373.619 74.1818 374.443 75.0284 376.148 75.3693L377.659 75.6705C378.42 75.8239 378.767 76.1023 378.778 76.5398C378.767 77.0568 378.205 77.4261 377.358 77.4261C376.494 77.4261 375.92 77.0568 375.773 76.3466L373.392 76.4716C373.619 78.142 375.04 79.1705 377.352 79.1705C379.614 79.1705 381.233 78.017 381.239 76.2955C381.233 75.0341 380.409 74.2784 378.716 73.9318L377.136 73.6136C376.324 73.4375 376.023 73.1591 376.028 72.7386C376.023 72.2159 376.614 71.875 377.364 71.875C378.205 71.875 378.705 72.3352 378.824 72.8977L381.04 72.7614Z" fill="#553C9A"/>
<path d="M20.5682 169.392H24.1307V179H26.5625V169.392H30.125V167.364H20.5682V169.392ZM30.7472 179H33.1676V174.062C33.1676 172.989 33.9517 172.25 35.0199 172.25C35.3551 172.25 35.8153 172.307 36.0426 172.381V170.233C35.8267 170.182 35.5256 170.148 35.2812 170.148C34.304 170.148 33.5028 170.716 33.1847 171.795H33.0938V170.273H30.7472V179ZM40.8651 179.17C43.0241 179.17 44.4787 178.119 44.8196 176.5L42.581 176.352C42.3366 177.017 41.7116 177.364 40.9048 177.364C39.6946 177.364 38.9276 176.562 38.9276 175.261V175.256H44.8707V174.591C44.8707 171.625 43.0753 170.159 40.7685 170.159C38.2003 170.159 36.5355 171.983 36.5355 174.676C36.5355 177.443 38.1776 179.17 40.8651 179.17ZM39.5696 169.239L40.7116 167.852L41.8537 169.239H43.9162V169.159L41.6094 166.659H39.8082L37.5071 169.159V169.239H39.5696ZM38.9276 173.756C38.9787 172.761 39.7344 171.966 40.8082 171.966C41.8594 171.966 42.5866 172.716 42.5923 173.756H38.9276ZM53.7116 172.761C53.4957 171.153 52.2003 170.159 49.9957 170.159C47.7628 170.159 46.2912 171.193 46.2969 172.875C46.2912 174.182 47.1151 175.028 48.8196 175.369L50.331 175.67C51.0923 175.824 51.4389 176.102 51.4503 176.54C51.4389 177.057 50.8764 177.426 50.0298 177.426C49.1662 177.426 48.5923 177.057 48.4446 176.347L46.0639 176.472C46.2912 178.142 47.7116 179.17 50.0241 179.17C52.2855 179.17 53.9048 178.017 53.9105 176.295C53.9048 175.034 53.081 174.278 51.3878 173.932L49.8082 173.614C48.9957 173.438 48.6946 173.159 48.7003 172.739C48.6946 172.216 49.2855 171.875 50.0355 171.875C50.8764 171.875 51.3764 172.335 51.4957 172.898L53.7116 172.761Z" fill="#553C9A"/>
<path d="M358.705 173.182C358.705 169.375 356.341 167.205 353.256 167.205C350.153 167.205 347.807 169.375 347.807 173.182C347.807 176.972 350.153 179.159 353.256 179.159C353.983 179.159 354.67 179.04 355.295 178.801L356.233 179.955H358.528L356.864 177.864C358 176.847 358.705 175.256 358.705 173.182ZM352.403 174.955L353.892 176.92C353.693 176.96 353.477 176.983 353.256 176.983C351.466 176.983 350.301 175.648 350.301 173.182C350.301 170.716 351.466 169.381 353.256 169.381C355.04 169.381 356.21 170.716 356.21 173.182C356.21 174.449 355.898 175.42 355.358 176.062L354.494 174.955H352.403ZM366.078 175.284C366.084 176.455 365.283 177.068 364.413 177.068C363.499 177.068 362.908 176.426 362.902 175.398V170.273H360.482V175.83C360.487 177.869 361.68 179.114 363.436 179.114C364.749 179.114 365.692 178.438 366.084 177.415H366.175V179H368.499V170.273H366.078V175.284ZM372.923 179.165C374.213 179.165 375.048 178.602 375.474 177.79H375.543V179H377.838V173.114C377.838 171.034 376.077 170.159 374.134 170.159C372.043 170.159 370.668 171.159 370.332 172.75L372.571 172.932C372.736 172.352 373.253 171.926 374.122 171.926C374.946 171.926 375.418 172.341 375.418 173.057V173.091C375.418 173.653 374.821 173.727 373.304 173.875C371.577 174.034 370.026 174.614 370.026 176.562C370.026 178.29 371.259 179.165 372.923 179.165ZM373.616 177.494C372.872 177.494 372.338 177.148 372.338 176.483C372.338 175.801 372.901 175.466 373.753 175.347C374.281 175.273 375.145 175.148 375.435 174.955V175.881C375.435 176.795 374.679 177.494 373.616 177.494ZM384.358 170.273H382.716V168.182H380.295V170.273H379.102V172.091H380.295V176.636C380.284 178.347 381.449 179.193 383.205 179.119C383.83 179.097 384.273 178.972 384.517 178.892L384.136 177.091C384.017 177.114 383.761 177.17 383.534 177.17C383.051 177.17 382.716 176.989 382.716 176.318V172.091H384.358V170.273ZM385.935 179H388.355V174.062C388.355 172.989 389.139 172.25 390.207 172.25C390.543 172.25 391.003 172.307 391.23 172.381V170.233C391.014 170.182 390.713 170.148 390.469 170.148C389.491 170.148 388.69 170.716 388.372 171.795H388.281V170.273H385.935V179ZM396.018 179.17C398.666 179.17 400.314 177.358 400.314 174.67C400.314 171.966 398.666 170.159 396.018 170.159C393.371 170.159 391.723 171.966 391.723 174.67C391.723 177.358 393.371 179.17 396.018 179.17ZM396.03 177.295C394.808 177.295 394.183 176.176 394.183 174.653C394.183 173.131 394.808 172.006 396.03 172.006C397.229 172.006 397.854 173.131 397.854 174.653C397.854 176.176 397.229 177.295 396.03 177.295Z" fill="#553C9A"/>
<path d="M31.2784 271.438C30.9545 268.75 28.9205 267.205 26.2273 267.205C23.1534 267.205 20.8068 269.375 20.8068 273.182C20.8068 276.977 23.1136 279.159 26.2273 279.159C29.2102 279.159 31.0114 277.176 31.2784 275.034L28.7898 275.023C28.5568 276.267 27.5795 276.983 26.267 276.983C24.5 276.983 23.3011 275.67 23.3011 273.182C23.3011 270.761 24.483 269.381 26.2841 269.381C27.6307 269.381 28.6023 270.159 28.7898 271.438H31.2784ZM32.9972 279H35.4176V270.273H32.9972V279ZM34.2131 269.148C34.9347 269.148 35.5256 268.597 35.5256 267.92C35.5256 267.25 34.9347 266.699 34.2131 266.699C33.4972 266.699 32.9062 267.25 32.9062 267.92C32.9062 268.597 33.4972 269.148 34.2131 269.148ZM39.777 273.955C39.7827 272.83 40.4531 272.17 41.4304 272.17C42.402 272.17 42.9872 272.807 42.9815 273.875V279H45.402V273.443C45.402 271.409 44.2088 270.159 42.3906 270.159C41.0952 270.159 40.1577 270.795 39.7656 271.812H39.6634V270.273H37.3565V279H39.777V273.955ZM51.2528 279.17C53.5767 279.17 55.0369 277.807 55.1506 275.801H52.8665C52.7244 276.733 52.1108 277.256 51.2812 277.256C50.1506 277.256 49.4176 276.307 49.4176 274.636C49.4176 272.989 50.1562 272.045 51.2812 272.045C52.1676 272.045 52.7358 272.631 52.8665 273.5H55.1506C55.0483 271.483 53.5199 270.159 51.2415 270.159C48.5938 270.159 46.9574 271.994 46.9574 274.67C46.9574 277.324 48.5653 279.17 51.2528 279.17ZM60.6435 279.17C63.2912 279.17 64.9389 277.358 64.9389 274.67C64.9389 271.966 63.2912 270.159 60.6435 270.159C57.9957 270.159 56.348 271.966 56.348 274.67C56.348 277.358 57.9957 279.17 60.6435 279.17ZM60.6548 277.295C59.4332 277.295 58.8082 276.176 58.8082 274.653C58.8082 273.131 59.4332 272.006 60.6548 272.006C61.8537 272.006 62.4787 273.131 62.4787 274.653C62.4787 276.176 61.8537 277.295 60.6548 277.295Z" fill="#553C9A"/>
<path d="M27.3239 370.71H29.6818C29.6477 368.636 27.9432 367.205 25.3523 367.205C22.8011 367.205 20.9318 368.614 20.9432 370.727C20.9375 372.443 22.1477 373.426 24.1136 373.898L25.3807 374.216C26.6477 374.523 27.3523 374.886 27.358 375.67C27.3523 376.523 26.5455 377.102 25.2955 377.102C24.017 377.102 23.0966 376.511 23.017 375.347H20.6364C20.6989 377.864 22.5 379.165 25.3239 379.165C28.1648 379.165 29.8352 377.807 29.8409 375.676C29.8352 373.739 28.375 372.71 26.3523 372.256L25.3068 372.006C24.2955 371.773 23.4489 371.398 23.4659 370.562C23.4659 369.812 24.1307 369.261 25.3352 369.261C26.5114 369.261 27.233 369.795 27.3239 370.71ZM35.4276 379.17C37.5866 379.17 39.0412 378.119 39.3821 376.5L37.1435 376.352C36.8991 377.017 36.2741 377.364 35.4673 377.364C34.2571 377.364 33.4901 376.562 33.4901 375.261V375.256H39.4332V374.591C39.4332 371.625 37.6378 370.159 35.331 370.159C32.7628 370.159 31.098 371.983 31.098 374.676C31.098 377.443 32.7401 379.17 35.4276 379.17ZM33.4901 373.756C33.5412 372.761 34.2969 371.966 35.3707 371.966C36.4219 371.966 37.1491 372.716 37.1548 373.756H33.4901ZM45.6548 370.273H44.0128V368.182H41.5923V370.273H40.3991V372.091H41.5923V376.636C41.581 378.347 42.7457 379.193 44.5014 379.119C45.1264 379.097 45.5696 378.972 45.8139 378.892L45.4332 377.091C45.3139 377.114 45.0582 377.17 44.831 377.17C44.348 377.17 44.0128 376.989 44.0128 376.318V372.091H45.6548V370.273ZM51.1151 379.17C53.2741 379.17 54.7287 378.119 55.0696 376.5L52.831 376.352C52.5866 377.017 51.9616 377.364 51.1548 377.364C49.9446 377.364 49.1776 376.562 49.1776 375.261V375.256H55.1207V374.591C55.1207 371.625 53.3253 370.159 51.0185 370.159C48.4503 370.159 46.7855 371.983 46.7855 374.676C46.7855 377.443 48.4276 379.17 51.1151 379.17ZM49.1776 373.756C49.2287 372.761 49.9844 371.966 51.0582 371.966C52.1094 371.966 52.8366 372.716 52.8423 373.756H49.1776Z" fill="#97266D"/>
<path d="M30.7443 437.364H28.2955V444.682H28.1932L23.1705 437.364H21.0114V449H23.4716V441.676H23.5568L28.6193 449H30.7443V437.364ZM36.6747 449.17C39.3224 449.17 40.9702 447.358 40.9702 444.67C40.9702 441.966 39.3224 440.159 36.6747 440.159C34.027 440.159 32.3793 441.966 32.3793 444.67C32.3793 447.358 34.027 449.17 36.6747 449.17ZM36.6861 447.295C35.4645 447.295 34.8395 446.176 34.8395 444.653C34.8395 443.131 35.4645 442.006 36.6861 442.006C37.8849 442.006 38.5099 443.131 38.5099 444.653C38.5099 446.176 37.8849 447.295 36.6861 447.295ZM50.3835 440.273H47.821L46.0142 446.517H45.9233L44.1108 440.273H41.554L44.6051 449H47.3324L50.3835 440.273ZM55.3026 449.17C57.4616 449.17 58.9162 448.119 59.2571 446.5L57.0185 446.352C56.7741 447.017 56.1491 447.364 55.3423 447.364C54.1321 447.364 53.3651 446.562 53.3651 445.261V445.256H59.3082V444.591C59.3082 441.625 57.5128 440.159 55.206 440.159C52.6378 440.159 50.973 441.983 50.973 444.676C50.973 447.443 52.6151 449.17 55.3026 449.17ZM53.3651 443.756C53.4162 442.761 54.1719 441.966 55.2457 441.966C56.2969 441.966 57.0241 442.716 57.0298 443.756H53.3651Z" fill="#97266D"/>
<path d="M354.324 270.71H356.682C356.648 268.636 354.943 267.205 352.352 267.205C349.801 267.205 347.932 268.614 347.943 270.727C347.938 272.443 349.148 273.426 351.114 273.898L352.381 274.216C353.648 274.523 354.352 274.886 354.358 275.67C354.352 276.523 353.545 277.102 352.295 277.102C351.017 277.102 350.097 276.511 350.017 275.347H347.636C347.699 277.864 349.5 279.165 352.324 279.165C355.165 279.165 356.835 277.807 356.841 275.676C356.835 273.739 355.375 272.71 353.352 272.256L352.307 272.006C351.295 271.773 350.449 271.398 350.466 270.562C350.466 269.812 351.131 269.261 352.335 269.261C353.511 269.261 354.233 269.795 354.324 270.71ZM362.428 279.17C364.587 279.17 366.041 278.119 366.382 276.5L364.143 276.352C363.899 277.017 363.274 277.364 362.467 277.364C361.257 277.364 360.49 276.562 360.49 275.261V275.256H366.433V274.591C366.433 271.625 364.638 270.159 362.331 270.159C359.763 270.159 358.098 271.983 358.098 274.676C358.098 277.443 359.74 279.17 362.428 279.17ZM360.49 273.756C360.541 272.761 361.297 271.966 362.371 271.966C363.422 271.966 364.149 272.716 364.155 273.756H360.49ZM368.013 279H370.433V270.273H368.013V279ZM369.229 269.148C369.95 269.148 370.541 268.597 370.541 267.92C370.541 267.25 369.95 266.699 369.229 266.699C368.513 266.699 367.922 267.25 367.922 267.92C367.922 268.597 368.513 269.148 369.229 269.148ZM379.634 272.761C379.418 271.153 378.122 270.159 375.918 270.159C373.685 270.159 372.213 271.193 372.219 272.875C372.213 274.182 373.037 275.028 374.741 275.369L376.253 275.67C377.014 275.824 377.361 276.102 377.372 276.54C377.361 277.057 376.798 277.426 375.952 277.426C375.088 277.426 374.514 277.057 374.366 276.347L371.986 276.472C372.213 278.142 373.634 279.17 375.946 279.17C378.207 279.17 379.827 278.017 379.832 276.295C379.827 275.034 379.003 274.278 377.31 273.932L375.73 273.614C374.918 273.438 374.616 273.159 374.622 272.739C374.616 272.216 375.207 271.875 375.957 271.875C376.798 271.875 377.298 272.335 377.418 272.898L379.634 272.761Z" fill="#553C9A"/>
<path d="M358.705 373.182C358.705 369.375 356.341 367.205 353.256 367.205C350.153 367.205 347.807 369.375 347.807 373.182C347.807 376.972 350.153 379.159 353.256 379.159C356.341 379.159 358.705 376.989 358.705 373.182ZM356.21 373.182C356.21 375.648 355.04 376.983 353.256 376.983C351.466 376.983 350.301 375.648 350.301 373.182C350.301 370.716 351.466 369.381 353.256 369.381C355.04 369.381 356.21 370.716 356.21 373.182ZM360.482 379H362.902V370.273H360.482V379ZM361.697 369.148C362.419 369.148 363.01 368.597 363.01 367.92C363.01 367.25 362.419 366.699 361.697 366.699C360.982 366.699 360.391 367.25 360.391 367.92C360.391 368.597 360.982 369.148 361.697 369.148ZM369.483 370.273H367.841V368.182H365.42V370.273H364.227V372.091H365.42V376.636C365.409 378.347 366.574 379.193 368.33 379.119C368.955 379.097 369.398 378.972 369.642 378.892L369.261 377.091C369.142 377.114 368.886 377.17 368.659 377.17C368.176 377.17 367.841 376.989 367.841 376.318V372.091H369.483V370.273ZM374.909 379.17C377.557 379.17 379.205 377.358 379.205 374.67C379.205 371.966 377.557 370.159 374.909 370.159C372.261 370.159 370.614 371.966 370.614 374.67C370.614 377.358 372.261 379.17 374.909 379.17ZM374.92 377.295C373.699 377.295 373.074 376.176 373.074 374.653C373.074 373.131 373.699 372.006 374.92 372.006C376.119 372.006 376.744 373.131 376.744 374.653C376.744 376.176 376.119 377.295 374.92 377.295Z" fill="#97266D"/>
</svg>
