<svg width="600" height="177" viewBox="0 0 600 177" fill="none" xmlns="http://www.w3.org/2000/svg">
<rect y="41" width="500" height="136" rx="10" fill="#E2E8F0"/>
<rect width="327" height="29" rx="10" fill="#E2E8F0"/>
<path d="M5.88281 16.7109V16.875C5.88281 17.4896 5.96094 18.0599 6.11719 18.5859C6.27865 19.1068 6.50781 19.5573 6.80469 19.9375C7.10156 20.3177 7.45833 20.6172 7.875 20.8359C8.29688 21.0495 8.77083 21.1562 9.29688 21.1562C9.5625 21.1562 9.8099 21.1276 10.0391 21.0703C10.2734 21.013 10.487 20.9323 10.6797 20.8281C10.8099 20.7552 10.9323 20.6719 11.0469 20.5781C11.1615 20.4844 11.2708 20.3802 11.375 20.2656V20.75C11.375 21.0365 11.3333 21.2943 11.25 21.5234C11.1719 21.7526 11.0573 21.9453 10.9062 22.1016C10.7396 22.2734 10.5312 22.4036 10.2812 22.4922C10.0365 22.5807 9.75521 22.625 9.4375 22.625C9.23958 22.625 9.04688 22.6042 8.85938 22.5625C8.67708 22.526 8.5 22.4688 8.32812 22.3906C8.15104 22.3125 7.98177 22.2109 7.82031 22.0859C7.65885 21.9661 7.50781 21.8255 7.36719 21.6641L6.39062 22.9844C6.57292 23.2188 6.79167 23.4193 7.04687 23.5859C7.30208 23.7578 7.57292 23.8984 7.85937 24.0078C8.14583 24.1172 8.4349 24.1979 8.72656 24.25C9.01823 24.3021 9.29167 24.3281 9.54688 24.3281C10.1406 24.3281 10.6823 24.2474 11.1719 24.0859C11.6667 23.9297 12.0911 23.6979 12.4453 23.3906C12.7943 23.0833 13.0651 22.7057 13.2578 22.2578C13.4557 21.8099 13.5547 21.2995 13.5547 20.7266L13.5547 12.5469H11.5781L11.4922 13.3516C11.388 13.2214 11.2734 13.1042 11.1484 13C11.0234 12.8906 10.888 12.7969 10.7422 12.7188C10.5495 12.6094 10.3333 12.5286 10.0938 12.4766C9.85938 12.4193 9.59896 12.3906 9.3125 12.3906C8.78125 12.3906 8.30469 12.4948 7.88281 12.7031C7.46094 12.9115 7.10156 13.2057 6.80469 13.5859C6.50781 13.9661 6.27865 14.4219 6.11719 14.9531C5.96094 15.4844 5.88281 16.0703 5.88281 16.7109ZM8.0625 16.875V16.7109C8.0625 16.3568 8.09896 16.026 8.17188 15.7188C8.24479 15.4062 8.35677 15.1328 8.50781 14.8984C8.65365 14.6693 8.83854 14.4896 9.0625 14.3594C9.28646 14.224 9.55208 14.1562 9.85938 14.1562C10.026 14.1562 10.1797 14.1719 10.3203 14.2031C10.4661 14.2344 10.599 14.2786 10.7188 14.3359C10.8594 14.4036 10.9844 14.4922 11.0938 14.6016C11.2031 14.7109 11.2969 14.8385 11.375 14.9844V18.5625C11.3021 18.6927 11.2161 18.8099 11.1172 18.9141C11.0182 19.0182 10.9036 19.1068 10.7734 19.1797C10.6484 19.2474 10.5078 19.2995 10.3516 19.3359C10.2005 19.3724 10.0312 19.3906 9.84375 19.3906C9.53646 19.3906 9.27083 19.3255 9.04688 19.1953C8.82292 19.0651 8.63802 18.8854 8.49219 18.6562C8.34635 18.4323 8.23698 18.1693 8.16406 17.8672C8.09635 17.5599 8.0625 17.2292 8.0625 16.875ZM21.7812 12.3906C21.2135 12.3906 20.6901 12.5286 20.2109 12.8047C19.7318 13.0755 19.3203 13.4505 18.9766 13.9297L18.9609 13.7422L18.875 12.5469H16.8516V21H19.0234V15.9219C19.1224 15.6823 19.2474 15.474 19.3984 15.2969C19.5495 15.1198 19.7318 14.974 19.9453 14.8594C20.1224 14.7604 20.3229 14.6875 20.5469 14.6406C20.776 14.5885 21.0312 14.5625 21.3125 14.5625C21.5833 14.5625 21.8672 14.5807 22.1641 14.6172C22.4661 14.6484 22.7604 14.6979 23.0469 14.7656L23.3672 12.6016C23.1953 12.5495 22.9688 12.5026 22.6875 12.4609C22.4115 12.4141 22.1094 12.3906 21.7812 12.3906ZM25.8984 12.5469V14.3203H28.3047V19.2344H25.8984V21H32.7891V19.2344H30.5V12.5469H25.8984ZM28.1484 10.3828C28.1484 10.5495 28.1771 10.7057 28.2344 10.8516C28.2969 10.9922 28.3828 11.112 28.4922 11.2109C28.6016 11.3151 28.7318 11.3958 28.8828 11.4531C29.0391 11.5104 29.2109 11.5391 29.3984 11.5391C29.7839 11.5391 30.0885 11.4323 30.3125 11.2188C30.5417 11 30.6562 10.7214 30.6562 10.3828C30.6562 10.0443 30.5417 9.76823 30.3125 9.55469C30.0885 9.33594 29.7839 9.22656 29.3984 9.22656C29.2109 9.22656 29.0391 9.25521 28.8828 9.3125C28.7318 9.36979 28.6016 9.44792 28.4922 9.54688C28.3828 9.65104 28.2969 9.77604 28.2344 9.92188C28.1771 10.0625 28.1484 10.2161 28.1484 10.3828ZM34.7031 16.7109V16.875C34.7031 17.4896 34.7786 18.0599 34.9297 18.5859C35.0807 19.1068 35.2995 19.5573 35.5859 19.9375C35.8672 20.3177 36.2109 20.6172 36.6172 20.8359C37.0286 21.0495 37.4922 21.1563 38.0078 21.1563C38.4818 21.1563 38.8984 21.0651 39.2578 20.8828C39.6172 20.7005 39.9297 20.4453 40.1953 20.1172L40.3047 21H42.2656V9H40.0859V13.3047C39.8255 13.013 39.526 12.7891 39.1875 12.6328C38.8542 12.4714 38.4661 12.3906 38.0234 12.3906C37.4974 12.3906 37.0286 12.4948 36.6172 12.7031C36.2109 12.9115 35.8646 13.2057 35.5781 13.5859C35.2917 13.9661 35.0729 14.4219 34.9219 14.9531C34.776 15.4844 34.7031 16.0703 34.7031 16.7109ZM36.875 16.875V16.7109C36.875 16.3568 36.9062 16.026 36.9688 15.7188C37.0312 15.4063 37.1302 15.1328 37.2656 14.8984C37.401 14.6693 37.5755 14.4896 37.7891 14.3594C38.0078 14.224 38.2708 14.1563 38.5781 14.1563C38.9479 14.1563 39.2552 14.237 39.5 14.3984C39.7448 14.5547 39.9401 14.776 40.0859 15.0625V18.4844C39.9401 18.7656 39.7422 18.987 39.4922 19.1484C39.2474 19.3099 38.9375 19.3906 38.5625 19.3906C38.2552 19.3906 37.9948 19.3255 37.7812 19.1953C37.5677 19.0651 37.3932 18.8854 37.2578 18.6562C37.1224 18.4323 37.0234 18.1693 36.9609 17.8672C36.9036 17.5599 36.875 17.2292 36.875 16.875ZM52.1484 16.8594V15.1016H45.6406V16.8594H52.1484ZM58.1328 10.4766H55.9609V12.5469H54.0312V14.1484H55.9609V17.9922C55.9609 18.5495 56.0339 19.0286 56.1797 19.4297C56.3255 19.8255 56.5339 20.151 56.8047 20.4063C57.0703 20.6667 57.3906 20.8594 57.7656 20.9844C58.1458 21.1042 58.5677 21.1641 59.0312 21.1641C59.2708 21.1641 59.513 21.151 59.7578 21.125C60.0078 21.1042 60.2474 21.0729 60.4766 21.0313C60.7057 20.9896 60.9219 20.9375 61.125 20.875C61.3281 20.8073 61.5052 20.7292 61.6562 20.6406L61.4453 19.1484C61.3464 19.1745 61.2266 19.2005 61.0859 19.2266C60.9505 19.2526 60.8047 19.276 60.6484 19.2969C60.487 19.3229 60.3177 19.3438 60.1406 19.3594C59.9688 19.375 59.7995 19.3828 59.6328 19.3828C59.4036 19.3828 59.1953 19.3568 59.0078 19.3047C58.8255 19.2526 58.6693 19.1641 58.5391 19.0391C58.4089 18.9193 58.3073 18.7578 58.2344 18.5547C58.1667 18.3464 58.1328 18.0885 58.1328 17.7813V14.1484H61.2891V12.5469H58.1328V10.4766ZM67.8594 21.1563C68.6771 21.1563 69.3854 20.9974 69.9844 20.6797C70.5833 20.362 71.0208 20.0078 71.2969 19.6172L70.2109 18.4453C69.9609 18.7682 69.6354 19.0104 69.2344 19.1719C68.8333 19.3333 68.4193 19.4141 67.9922 19.4141C67.6901 19.4141 67.4115 19.3672 67.1562 19.2734C66.901 19.1797 66.6745 19.0469 66.4766 18.875C66.2839 18.7083 66.1302 18.5234 66.0156 18.3203C65.901 18.112 65.8073 17.8385 65.7344 17.5V17.4766H71.4688V16.5547C71.4688 15.9349 71.3828 15.3698 71.2109 14.8594C71.0391 14.3438 70.7891 13.9036 70.4609 13.5391C70.1276 13.1745 69.7214 12.8932 69.2422 12.6953C68.7682 12.4922 68.2266 12.3906 67.6172 12.3906C67.0286 12.3906 66.4844 12.4974 65.9844 12.7109C65.4844 12.9245 65.0521 13.224 64.6875 13.6094C64.3229 13.9948 64.0391 14.4557 63.8359 14.9922C63.6328 15.5234 63.5312 16.112 63.5312 16.7578V17.0703C63.5312 17.638 63.6328 18.1719 63.8359 18.6719C64.0443 19.1667 64.3385 19.5964 64.7188 19.9609C65.099 20.3307 65.5547 20.6224 66.0859 20.8359C66.6172 21.0495 67.2083 21.1563 67.8594 21.1563ZM67.6016 14.1484C67.8776 14.1484 68.1198 14.1927 68.3281 14.2813C68.5417 14.3646 68.7214 14.4792 68.8672 14.625C69.013 14.776 69.1276 14.9531 69.2109 15.1563C69.2943 15.3594 69.3359 15.5755 69.3359 15.8047V15.9766H65.7734C65.8255 15.7005 65.9036 15.4505 66.0078 15.2266C66.112 15.0026 66.2422 14.8099 66.3984 14.6484C66.5495 14.487 66.7266 14.3646 66.9297 14.2813C67.1328 14.1927 67.3568 14.1484 67.6016 14.1484ZM74.7188 12.5469H72.8516V21H74.8281V14.6719C74.8542 14.6042 74.8828 14.5417 74.9141 14.4844C74.9453 14.4271 74.9818 14.3776 75.0234 14.3359C75.0807 14.2786 75.1458 14.2344 75.2188 14.2031C75.2917 14.1719 75.375 14.1563 75.4688 14.1563C75.5521 14.1563 75.6302 14.1693 75.7031 14.1953C75.776 14.2161 75.8411 14.2552 75.8984 14.3125C75.9505 14.3698 75.9922 14.4505 76.0234 14.5547C76.0547 14.6589 76.0703 14.7917 76.0703 14.9531V21H77.9844V14.7656C77.9844 14.7031 77.9844 14.6536 77.9844 14.6172C77.9844 14.5807 77.9844 14.5573 77.9844 14.5469C78.0104 14.4896 78.0417 14.4401 78.0781 14.3984C78.1146 14.3516 78.1562 14.3099 78.2031 14.2734C78.2604 14.237 78.3203 14.2083 78.3828 14.1875C78.4505 14.1667 78.526 14.1563 78.6094 14.1563C78.6875 14.1563 78.763 14.1693 78.8359 14.1953C78.9141 14.2161 78.9818 14.2552 79.0391 14.3125C79.0964 14.375 79.1406 14.4583 79.1719 14.5625C79.2083 14.6667 79.2266 14.7995 79.2266 14.9609V21H81.2031V14.9688C81.2031 14.5 81.1562 14.1042 81.0625 13.7813C80.974 13.4531 80.849 13.1849 80.6875 12.9766C80.5208 12.7734 80.3255 12.625 80.1016 12.5313C79.8828 12.4375 79.6458 12.3906 79.3906 12.3906C79.1875 12.3906 79 12.4167 78.8281 12.4688C78.6562 12.5208 78.5026 12.5938 78.3672 12.6875C78.2578 12.7604 78.1562 12.849 78.0625 12.9531C77.974 13.0521 77.8932 13.1641 77.8203 13.2891C77.7734 13.1589 77.7161 13.0443 77.6484 12.9453C77.5859 12.8411 77.5104 12.7526 77.4219 12.6797C77.3073 12.5807 77.1719 12.5078 77.0156 12.4609C76.8594 12.4141 76.6823 12.3906 76.4844 12.3906C76.0781 12.3906 75.7318 12.4974 75.4453 12.7109C75.1641 12.9193 74.9427 13.2057 74.7812 13.5703L74.7188 12.5469ZM83.0078 24.25H85.1797V20.2656C85.2786 20.375 85.3828 20.474 85.4922 20.5625C85.6016 20.651 85.7161 20.7318 85.8359 20.8047C86.0391 20.9193 86.2578 21.0052 86.4922 21.0625C86.7318 21.125 86.9922 21.1563 87.2734 21.1563C87.8047 21.1563 88.276 21.0469 88.6875 20.8281C89.099 20.6094 89.4453 20.3073 89.7266 19.9219C90.0026 19.5417 90.2109 19.0885 90.3516 18.5625C90.4974 18.0365 90.5703 17.4661 90.5703 16.8516V16.6875C90.5703 16.0469 90.4974 15.4635 90.3516 14.9375C90.2109 14.4063 90 13.9505 89.7188 13.5703C89.4375 13.1953 89.0911 12.9063 88.6797 12.7031C88.2682 12.4948 87.7943 12.3906 87.2578 12.3906C86.9974 12.3906 86.7526 12.4193 86.5234 12.4766C86.2995 12.5286 86.0938 12.6042 85.9062 12.7031C85.75 12.7865 85.6042 12.8854 85.4688 13C85.3333 13.1094 85.2083 13.2344 85.0938 13.375L85.0156 12.5469L83.0078 12.5469V24.25ZM88.3984 16.6875V16.8516C88.3984 17.2005 88.3672 17.5313 88.3047 17.8438C88.2422 18.151 88.1432 18.4219 88.0078 18.6563C87.8724 18.8906 87.6953 19.0755 87.4766 19.2109C87.263 19.3464 87.0026 19.4141 86.6953 19.4141C86.5026 19.4141 86.3281 19.3958 86.1719 19.3594C86.0156 19.3177 85.8776 19.2604 85.7578 19.1875C85.6328 19.1094 85.5208 19.0156 85.4219 18.9063C85.3281 18.7969 85.2474 18.6745 85.1797 18.5391V15.0078C85.2526 14.862 85.3385 14.7344 85.4375 14.625C85.5417 14.5156 85.6615 14.4245 85.7969 14.3516C85.9167 14.2891 86.0495 14.2422 86.1953 14.2109C86.3411 14.1745 86.5026 14.1563 86.6797 14.1563C86.987 14.1563 87.2474 14.2214 87.4609 14.3516C87.6797 14.4818 87.8594 14.6589 88 14.8828C88.1354 15.112 88.2344 15.3828 88.2969 15.6953C88.3646 16.0026 88.3984 16.3333 88.3984 16.6875ZM93.0391 9V10.7734H95.5703V19.2344H93.0391V21H100.188V19.2344H97.7656V9H93.0391ZM107.477 21H109.68V20.8672C109.57 20.6536 109.487 20.3984 109.43 20.1016C109.372 19.8047 109.344 19.4297 109.344 18.9766V15.3516C109.344 14.862 109.253 14.4323 109.07 14.0625C108.888 13.6875 108.635 13.3776 108.312 13.1328C107.99 12.888 107.607 12.7031 107.164 12.5781C106.727 12.4531 106.253 12.3906 105.742 12.3906C105.174 12.3906 104.669 12.4635 104.227 12.6094C103.789 12.75 103.419 12.9427 103.117 13.1875C102.81 13.4323 102.576 13.7161 102.414 14.0391C102.258 14.362 102.18 14.7031 102.18 15.0625H104.352C104.352 14.9115 104.372 14.7734 104.414 14.6484C104.461 14.5234 104.531 14.4167 104.625 14.3281C104.729 14.2292 104.865 14.1536 105.031 14.1016C105.198 14.0443 105.396 14.0156 105.625 14.0156C105.885 14.0156 106.112 14.0495 106.305 14.1172C106.503 14.1797 106.667 14.2708 106.797 14.3906C106.922 14.5052 107.016 14.6432 107.078 14.8047C107.141 14.9609 107.172 15.138 107.172 15.3359V15.8359H105.961C105.336 15.8359 104.781 15.8932 104.297 16.0078C103.818 16.1172 103.414 16.2786 103.086 16.4922C102.721 16.7266 102.448 17.026 102.266 17.3906C102.083 17.75 101.992 18.1641 101.992 18.6328C101.992 18.9974 102.065 19.3359 102.211 19.6484C102.357 19.9557 102.56 20.2214 102.82 20.4453C103.081 20.6693 103.391 20.8438 103.75 20.9688C104.115 21.0938 104.513 21.1563 104.945 21.1563C105.211 21.1563 105.458 21.1302 105.688 21.0781C105.917 21.0313 106.128 20.9635 106.32 20.875C106.508 20.7917 106.68 20.6927 106.836 20.5781C106.992 20.4635 107.13 20.3411 107.25 20.2109C107.276 20.362 107.307 20.5052 107.344 20.6406C107.38 20.776 107.424 20.8958 107.477 21ZM105.406 19.4766C105.203 19.4766 105.023 19.4531 104.867 19.4063C104.716 19.3542 104.589 19.2865 104.484 19.2031C104.38 19.1146 104.299 19.0078 104.242 18.8828C104.19 18.7526 104.164 18.612 104.164 18.4609C104.164 18.2682 104.201 18.0911 104.273 17.9297C104.346 17.763 104.458 17.6198 104.609 17.5C104.76 17.3854 104.956 17.2969 105.195 17.2344C105.435 17.1667 105.724 17.1328 106.062 17.1328H107.172V18.5859C107.109 18.6953 107.023 18.8047 106.914 18.9141C106.805 19.0182 106.674 19.112 106.523 19.1953C106.372 19.2786 106.203 19.3464 106.016 19.3984C105.828 19.4505 105.625 19.4766 105.406 19.4766ZM115.789 10.4766H113.617V12.5469H111.688V14.1484H113.617V17.9922C113.617 18.5495 113.69 19.0286 113.836 19.4297C113.982 19.8255 114.19 20.151 114.461 20.4063C114.727 20.6667 115.047 20.8594 115.422 20.9844C115.802 21.1042 116.224 21.1641 116.688 21.1641C116.927 21.1641 117.169 21.151 117.414 21.125C117.664 21.1042 117.904 21.0729 118.133 21.0313C118.362 20.9896 118.578 20.9375 118.781 20.875C118.984 20.8073 119.161 20.7292 119.312 20.6406L119.102 19.1484C119.003 19.1745 118.883 19.2005 118.742 19.2266C118.607 19.2526 118.461 19.276 118.305 19.2969C118.143 19.3229 117.974 19.3438 117.797 19.3594C117.625 19.375 117.456 19.3828 117.289 19.3828C117.06 19.3828 116.852 19.3568 116.664 19.3047C116.482 19.2526 116.326 19.1641 116.195 19.0391C116.065 18.9193 115.964 18.7578 115.891 18.5547C115.823 18.3464 115.789 18.0885 115.789 17.7813V14.1484L118.945 14.1484V12.5469L115.789 12.5469V10.4766ZM125.516 21.1563C126.333 21.1563 127.042 20.9974 127.641 20.6797C128.24 20.362 128.677 20.0078 128.953 19.6172L127.867 18.4453C127.617 18.7682 127.292 19.0104 126.891 19.1719C126.49 19.3333 126.076 19.4141 125.648 19.4141C125.346 19.4141 125.068 19.3672 124.812 19.2734C124.557 19.1797 124.331 19.0469 124.133 18.875C123.94 18.7083 123.786 18.5234 123.672 18.3203C123.557 18.112 123.464 17.8385 123.391 17.5V17.4766H129.125V16.5547C129.125 15.9349 129.039 15.3698 128.867 14.8594C128.695 14.3438 128.445 13.9036 128.117 13.5391C127.784 13.1745 127.378 12.8932 126.898 12.6953C126.424 12.4922 125.883 12.3906 125.273 12.3906C124.685 12.3906 124.141 12.4974 123.641 12.7109C123.141 12.9245 122.708 13.224 122.344 13.6094C121.979 13.9948 121.695 14.4557 121.492 14.9922C121.289 15.5234 121.188 16.112 121.188 16.7578V17.0703C121.188 17.638 121.289 18.1719 121.492 18.6719C121.701 19.1667 121.995 19.5964 122.375 19.9609C122.755 20.3307 123.211 20.6224 123.742 20.8359C124.273 21.0495 124.865 21.1563 125.516 21.1563ZM125.258 14.1484C125.534 14.1484 125.776 14.1927 125.984 14.2813C126.198 14.3646 126.378 14.4792 126.523 14.625C126.669 14.776 126.784 14.9531 126.867 15.1563C126.951 15.3594 126.992 15.5755 126.992 15.8047V15.9766H123.43C123.482 15.7005 123.56 15.4505 123.664 15.2266C123.768 15.0026 123.898 14.8099 124.055 14.6484C124.206 14.487 124.383 14.3646 124.586 14.2813C124.789 14.1927 125.013 14.1484 125.258 14.1484ZM138.633 16.8594V15.1016H132.125V16.8594H138.633ZM144.375 19.4219C144.026 19.4219 143.737 19.3516 143.508 19.2109C143.284 19.0703 143.107 18.8828 142.977 18.6484C142.841 18.4193 142.747 18.1536 142.695 17.8516C142.643 17.5443 142.617 17.2266 142.617 16.8984V16.6641C142.617 16.3411 142.643 16.0286 142.695 15.7266C142.753 15.4245 142.849 15.1563 142.984 14.9219C143.115 14.6875 143.292 14.5 143.516 14.3594C143.74 14.2188 144.023 14.1484 144.367 14.1484C144.602 14.1484 144.818 14.1901 145.016 14.2734C145.214 14.3516 145.383 14.4583 145.523 14.5938C145.664 14.7292 145.771 14.8906 145.844 15.0781C145.917 15.2656 145.948 15.4635 145.938 15.6719H147.984C147.995 15.1719 147.911 14.7214 147.734 14.3203C147.557 13.9141 147.31 13.5677 146.992 13.2813C146.669 13 146.286 12.7813 145.844 12.625C145.401 12.4688 144.919 12.3906 144.398 12.3906C143.747 12.3906 143.174 12.5026 142.68 12.7266C142.19 12.9505 141.779 13.2552 141.445 13.6406C141.112 14.026 140.862 14.4792 140.695 15C140.529 15.5156 140.445 16.0703 140.445 16.6641V16.8984C140.445 17.4922 140.529 18.0495 140.695 18.5703C140.867 19.0859 141.12 19.5365 141.453 19.9219C141.781 20.3073 142.193 20.612 142.688 20.8359C143.182 21.0547 143.758 21.1641 144.414 21.1641C144.898 21.1641 145.357 21.0885 145.789 20.9375C146.227 20.7813 146.609 20.5677 146.938 20.2969C147.266 20.026 147.523 19.7031 147.711 19.3281C147.904 18.9531 147.995 18.5469 147.984 18.1094H145.938C145.948 18.3073 145.911 18.487 145.828 18.6484C145.75 18.8099 145.638 18.9479 145.492 19.0625C145.346 19.1771 145.177 19.2656 144.984 19.3281C144.792 19.3906 144.589 19.4219 144.375 19.4219ZM149.945 16.6953V16.8594C149.945 17.4792 150.034 18.0521 150.211 18.5781C150.388 19.099 150.648 19.5521 150.992 19.9375C151.331 20.3229 151.747 20.625 152.242 20.8438C152.742 21.0573 153.31 21.1641 153.945 21.1641C154.576 21.1641 155.138 21.0573 155.633 20.8438C156.128 20.625 156.544 20.3229 156.883 19.9375C157.221 19.5521 157.479 19.099 157.656 18.5781C157.833 18.0521 157.922 17.4792 157.922 16.8594V16.6953C157.922 16.0807 157.833 15.513 157.656 14.9922C157.479 14.4661 157.221 14.0104 156.883 13.625C156.539 13.2396 156.12 12.9375 155.625 12.7188C155.13 12.5 154.565 12.3906 153.93 12.3906C153.294 12.3906 152.729 12.5 152.234 12.7188C151.745 12.9375 151.331 13.2396 150.992 13.625C150.648 14.0104 150.388 14.4661 150.211 14.9922C150.034 15.513 149.945 16.0807 149.945 16.6953ZM152.117 16.8594V16.6953C152.117 16.3516 152.151 16.026 152.219 15.7188C152.286 15.4115 152.393 15.1406 152.539 14.9063C152.685 14.6719 152.872 14.487 153.102 14.3516C153.331 14.2161 153.607 14.1484 153.93 14.1484C154.258 14.1484 154.536 14.2161 154.766 14.3516C154.995 14.487 155.182 14.6719 155.328 14.9063C155.469 15.1406 155.573 15.4115 155.641 15.7188C155.708 16.026 155.742 16.3516 155.742 16.6953V16.8594C155.742 17.2135 155.708 17.5469 155.641 17.8594C155.573 18.1667 155.469 18.4349 155.328 18.6641C155.182 18.8984 154.995 19.0833 154.766 19.2188C154.536 19.3542 154.263 19.4219 153.945 19.4219C153.617 19.4219 153.336 19.3542 153.102 19.2188C152.872 19.0833 152.685 18.8984 152.539 18.6641C152.393 18.4349 152.286 18.1667 152.219 17.8594C152.151 17.5469 152.117 17.2135 152.117 16.8594ZM160.305 9V10.7734H162.836V19.2344H160.305V21L167.453 21V19.2344H165.031V9H160.305ZM174.977 21H176.945V12.5469H174.766V18.4766C174.698 18.612 174.617 18.7344 174.523 18.8438C174.43 18.9531 174.323 19.0469 174.203 19.125C174.062 19.2135 173.898 19.2813 173.711 19.3281C173.529 19.375 173.323 19.3984 173.094 19.3984C172.839 19.3984 172.622 19.3672 172.445 19.3047C172.268 19.2422 172.125 19.138 172.016 18.9922C171.906 18.8516 171.826 18.6641 171.773 18.4297C171.727 18.1953 171.703 17.9063 171.703 17.5625V12.5469H169.531V17.5469C169.531 18.1875 169.602 18.737 169.742 19.1953C169.888 19.6484 170.091 20.0208 170.352 20.3125C170.612 20.6094 170.924 20.8255 171.289 20.9609C171.654 21.0964 172.055 21.1641 172.492 21.1641C172.971 21.1641 173.411 21.0443 173.812 20.8047C174.219 20.5651 174.565 20.2344 174.852 19.8125L174.977 21ZM180.422 12.5469H178.555V21H180.531V14.6719C180.557 14.6042 180.586 14.5417 180.617 14.4844C180.648 14.4271 180.685 14.3776 180.727 14.3359C180.784 14.2786 180.849 14.2344 180.922 14.2031C180.995 14.1719 181.078 14.1563 181.172 14.1563C181.255 14.1563 181.333 14.1693 181.406 14.1953C181.479 14.2161 181.544 14.2552 181.602 14.3125C181.654 14.3698 181.695 14.4505 181.727 14.5547C181.758 14.6589 181.773 14.7917 181.773 14.9531V21H183.688V14.7656C183.688 14.7031 183.688 14.6536 183.688 14.6172C183.688 14.5807 183.688 14.5573 183.688 14.5469C183.714 14.4896 183.745 14.4401 183.781 14.3984C183.818 14.3516 183.859 14.3099 183.906 14.2734C183.964 14.237 184.023 14.2083 184.086 14.1875C184.154 14.1667 184.229 14.1563 184.312 14.1563C184.391 14.1563 184.466 14.1693 184.539 14.1953C184.617 14.2161 184.685 14.2552 184.742 14.3125C184.799 14.375 184.844 14.4583 184.875 14.5625C184.911 14.6667 184.93 14.7995 184.93 14.9609V21H186.906V14.9688C186.906 14.5 186.859 14.1042 186.766 13.7813C186.677 13.4531 186.552 13.1849 186.391 12.9766C186.224 12.7734 186.029 12.625 185.805 12.5313C185.586 12.4375 185.349 12.3906 185.094 12.3906C184.891 12.3906 184.703 12.4167 184.531 12.4688C184.359 12.5208 184.206 12.5938 184.07 12.6875C183.961 12.7604 183.859 12.849 183.766 12.9531C183.677 13.0521 183.596 13.1641 183.523 13.2891C183.477 13.1589 183.419 13.0443 183.352 12.9453C183.289 12.8411 183.214 12.7526 183.125 12.6797C183.01 12.5807 182.875 12.5078 182.719 12.4609C182.562 12.4141 182.385 12.3906 182.188 12.3906C181.781 12.3906 181.435 12.4974 181.148 12.7109C180.867 12.9193 180.646 13.2057 180.484 13.5703L180.422 12.5469ZM188.68 21H190.859V14.9922C190.932 14.8776 191.013 14.7734 191.102 14.6797C191.19 14.5859 191.289 14.5052 191.398 14.4375C191.534 14.3438 191.688 14.2734 191.859 14.2266C192.036 14.1797 192.229 14.1563 192.438 14.1563C192.688 14.1563 192.911 14.1823 193.109 14.2344C193.307 14.2813 193.477 14.3672 193.617 14.4922C193.758 14.6172 193.865 14.7891 193.938 15.0078C194.016 15.2214 194.055 15.4948 194.055 15.8281V21H196.227V15.7969C196.227 15.1823 196.154 14.6615 196.008 14.2344C195.867 13.8021 195.669 13.4479 195.414 13.1719C195.154 12.901 194.846 12.7031 194.492 12.5781C194.138 12.4531 193.747 12.3906 193.32 12.3906C192.987 12.3906 192.672 12.4375 192.375 12.5313C192.078 12.625 191.805 12.7604 191.555 12.9375C191.409 13.0417 191.271 13.1589 191.141 13.2891C191.01 13.4193 190.891 13.5625 190.781 13.7188L190.648 12.5469H188.68V21ZM203.742 18.6797C203.742 18.8099 203.708 18.9297 203.641 19.0391C203.578 19.1484 203.482 19.2448 203.352 19.3281C203.216 19.4115 203.042 19.4792 202.828 19.5313C202.62 19.5781 202.375 19.6016 202.094 19.6016C201.859 19.6016 201.63 19.5781 201.406 19.5313C201.188 19.4844 200.992 19.4089 200.82 19.3047C200.648 19.2057 200.508 19.0755 200.398 18.9141C200.289 18.7474 200.227 18.5495 200.211 18.3203H198.141C198.141 18.6641 198.224 19.0078 198.391 19.3516C198.562 19.6901 198.812 19.9922 199.141 20.2578C199.469 20.5286 199.875 20.7474 200.359 20.9141C200.849 21.0807 201.411 21.1641 202.047 21.1641C202.625 21.1641 203.148 21.1016 203.617 20.9766C204.086 20.8464 204.487 20.6667 204.82 20.4375C205.148 20.2083 205.401 19.9375 205.578 19.625C205.76 19.3073 205.852 18.9609 205.852 18.5859C205.852 18.1797 205.76 17.8307 205.578 17.5391C205.401 17.2422 205.154 16.9896 204.836 16.7813C204.518 16.5781 204.141 16.4115 203.703 16.2813C203.266 16.151 202.792 16.0443 202.281 15.9609C201.927 15.9089 201.635 15.849 201.406 15.7813C201.177 15.7083 200.997 15.6276 200.867 15.5391C200.732 15.4557 200.638 15.362 200.586 15.2578C200.534 15.1484 200.508 15.0313 200.508 14.9063C200.508 14.7813 200.536 14.6641 200.594 14.5547C200.656 14.4401 200.745 14.3411 200.859 14.2578C200.984 14.1641 201.146 14.0911 201.344 14.0391C201.542 13.987 201.773 13.9609 202.039 13.9609C202.352 13.9609 202.617 14 202.836 14.0781C203.06 14.1563 203.237 14.2604 203.367 14.3906C203.461 14.4896 203.531 14.6016 203.578 14.7266C203.625 14.8464 203.648 14.9766 203.648 15.1172H205.82C205.82 14.7266 205.734 14.3646 205.562 14.0313C205.391 13.6979 205.143 13.4089 204.82 13.1641C204.492 12.9245 204.094 12.737 203.625 12.6016C203.156 12.4609 202.628 12.3906 202.039 12.3906C201.477 12.3906 200.971 12.4609 200.523 12.6016C200.076 12.7422 199.695 12.9323 199.383 13.1719C199.07 13.4115 198.831 13.6901 198.664 14.0078C198.497 14.3255 198.414 14.6589 198.414 15.0078C198.414 15.3672 198.495 15.6849 198.656 15.9609C198.823 16.237 199.052 16.4792 199.344 16.6875C199.635 16.901 199.984 17.0833 200.391 17.2344C200.802 17.3802 201.255 17.5026 201.75 17.6016C202.141 17.6745 202.464 17.7474 202.719 17.8203C202.974 17.8932 203.18 17.9714 203.336 18.0547C203.487 18.1432 203.591 18.237 203.648 18.3359C203.711 18.4349 203.742 18.5495 203.742 18.6797ZM210.203 19.7422C210.203 20.1432 210.339 20.4792 210.609 20.75C210.88 21.0208 211.247 21.1563 211.711 21.1563C212.169 21.1563 212.534 21.0234 212.805 20.7578C213.081 20.487 213.219 20.1484 213.219 19.7422C213.219 19.3359 213.083 18.9948 212.812 18.7188C212.547 18.4427 212.18 18.3047 211.711 18.3047C211.237 18.3047 210.867 18.4453 210.602 18.7266C210.336 19.0026 210.203 19.3411 210.203 19.7422ZM210.203 13.2891C210.203 13.6901 210.339 14.026 210.609 14.2969C210.88 14.5677 211.247 14.7031 211.711 14.7031C212.169 14.7031 212.534 14.5703 212.805 14.3047C213.081 14.0339 213.219 13.6953 213.219 13.2891C213.219 12.8828 213.083 12.5417 212.812 12.2656C212.547 11.9896 212.18 11.8516 211.711 11.8516C211.237 11.8516 210.867 11.9922 210.602 12.2734C210.336 12.5495 210.203 12.888 210.203 13.2891ZM232.438 21V9.625H232.32L227.367 11.4141V13.3047L230.242 12.2734V21H232.438ZM236.836 15.3984L238.57 15.8281C238.654 15.7448 238.742 15.6667 238.836 15.5938C238.93 15.5156 239.036 15.4479 239.156 15.3906C239.276 15.3333 239.414 15.2865 239.57 15.25C239.727 15.2135 239.911 15.1953 240.125 15.1953C240.443 15.1953 240.719 15.2448 240.953 15.3438C241.188 15.4427 241.383 15.5833 241.539 15.7656C241.695 15.9479 241.81 16.1667 241.883 16.4219C241.961 16.6719 242 16.9479 242 17.25C242 17.5573 241.969 17.8438 241.906 18.1094C241.849 18.375 241.758 18.6042 241.633 18.7969C241.503 18.9896 241.333 19.1406 241.125 19.25C240.922 19.3594 240.674 19.4141 240.383 19.4141C239.909 19.4141 239.518 19.2786 239.211 19.0078C238.909 18.737 238.732 18.3542 238.68 17.8594H236.539C236.555 18.3854 236.672 18.8542 236.891 19.2656C237.115 19.6719 237.404 20.0156 237.758 20.2969C238.112 20.5781 238.516 20.7917 238.969 20.9375C239.427 21.0833 239.901 21.1563 240.391 21.1563C241.036 21.1563 241.596 21.0547 242.07 20.8516C242.544 20.6484 242.938 20.3724 243.25 20.0234C243.562 19.6745 243.794 19.2708 243.945 18.8125C244.096 18.3542 244.172 17.8698 244.172 17.3594C244.172 16.7604 244.094 16.224 243.938 15.75C243.781 15.276 243.557 14.875 243.266 14.5469C242.969 14.2188 242.604 13.9688 242.172 13.7969C241.745 13.6198 241.258 13.5313 240.711 13.5313C240.326 13.5313 239.984 13.5807 239.688 13.6797C239.391 13.7786 239.161 13.875 239 13.9688L239.273 11.4688H243.797V9.625H237.484L236.836 15.3984ZM253.742 16.6719V13.9531C253.742 13.2188 253.656 12.5729 253.484 12.0156C253.312 11.4531 253.068 10.9818 252.75 10.6016C252.427 10.2266 252.036 9.94271 251.578 9.75C251.12 9.55729 250.604 9.46094 250.031 9.46094C249.464 9.46094 248.951 9.55729 248.492 9.75C248.039 9.94271 247.654 10.2266 247.336 10.6016C247.013 10.9818 246.766 11.4531 246.594 12.0156C246.422 12.5729 246.336 13.2188 246.336 13.9531V16.6719C246.336 17.4063 246.422 18.0547 246.594 18.6172C246.771 19.1745 247.021 19.6406 247.344 20.0156C247.661 20.3958 248.049 20.6823 248.508 20.875C248.966 21.0677 249.479 21.1641 250.047 21.1641C250.62 21.1641 251.135 21.0677 251.594 20.875C252.052 20.6823 252.44 20.3958 252.758 20.0156C253.076 19.6406 253.318 19.1745 253.484 18.6172C253.656 18.0547 253.742 17.4063 253.742 16.6719ZM248.523 15.7344C248.523 15.5729 248.523 15.4505 248.523 15.3672C248.523 15.2839 248.523 15.1172 248.523 14.8672V13.6094C248.523 13.1875 248.555 12.8229 248.617 12.5156C248.685 12.2083 248.786 11.9583 248.922 11.7656C249.047 11.5833 249.201 11.4479 249.383 11.3594C249.57 11.2656 249.786 11.2188 250.031 11.2188C250.25 11.2188 250.445 11.2552 250.617 11.3281C250.794 11.3958 250.943 11.5026 251.062 11.6484C251.219 11.8307 251.336 12.0755 251.414 12.3828C251.497 12.6849 251.544 13.0495 251.555 13.4766L248.523 15.7344ZM251.555 17C251.555 17.4219 251.521 17.7891 251.453 18.1016C251.391 18.4089 251.294 18.6615 251.164 18.8594C251.039 19.0469 250.883 19.1875 250.695 19.2813C250.508 19.3698 250.292 19.4141 250.047 19.4141C249.781 19.4141 249.552 19.362 249.359 19.2578C249.167 19.1536 249.008 18.9948 248.883 18.7813C248.773 18.6042 248.688 18.3828 248.625 18.1172C248.568 17.8516 248.534 17.5469 248.523 17.2031L251.555 14.9531C251.555 15.1042 251.555 15.2214 251.555 15.3047C251.555 15.3828 251.555 15.5078 251.555 15.6797V17ZM255.977 24.25H258.148V20.2656C258.247 20.375 258.352 20.474 258.461 20.5625C258.57 20.651 258.685 20.7318 258.805 20.8047C259.008 20.9193 259.227 21.0052 259.461 21.0625C259.701 21.125 259.961 21.1563 260.242 21.1563C260.773 21.1563 261.245 21.0469 261.656 20.8281C262.068 20.6094 262.414 20.3073 262.695 19.9219C262.971 19.5417 263.18 19.0885 263.32 18.5625C263.466 18.0365 263.539 17.4661 263.539 16.8516V16.6875C263.539 16.0469 263.466 15.4635 263.32 14.9375C263.18 14.4063 262.969 13.9505 262.688 13.5703C262.406 13.1953 262.06 12.9063 261.648 12.7031C261.237 12.4948 260.763 12.3906 260.227 12.3906C259.966 12.3906 259.721 12.4193 259.492 12.4766C259.268 12.5286 259.062 12.6042 258.875 12.7031C258.719 12.7865 258.573 12.8854 258.438 13C258.302 13.1094 258.177 13.2344 258.062 13.375L257.984 12.5469H255.977V24.25ZM261.367 16.6875V16.8516C261.367 17.2005 261.336 17.5313 261.273 17.8438C261.211 18.151 261.112 18.4219 260.977 18.6563C260.841 18.8906 260.664 19.0755 260.445 19.2109C260.232 19.3464 259.971 19.4141 259.664 19.4141C259.471 19.4141 259.297 19.3958 259.141 19.3594C258.984 19.3177 258.846 19.2604 258.727 19.1875C258.602 19.1094 258.49 19.0156 258.391 18.9063C258.297 18.7969 258.216 18.6745 258.148 18.5391V15.0078C258.221 14.862 258.307 14.7344 258.406 14.625C258.51 14.5156 258.63 14.4245 258.766 14.3516C258.885 14.2891 259.018 14.2422 259.164 14.2109C259.31 14.1745 259.471 14.1563 259.648 14.1563C259.956 14.1563 260.216 14.2214 260.43 14.3516C260.648 14.4818 260.828 14.6589 260.969 14.8828C261.104 15.112 261.203 15.3828 261.266 15.6953C261.333 16.0026 261.367 16.3333 261.367 16.6875ZM269.422 15.1875L267.594 12.5469H265.258L268.086 16.6953L265.148 21H267.5L269.43 18.2344L271.375 21H273.719L270.781 16.6953L273.617 12.5469H271.281L269.422 15.1875ZM290.094 21V9.625H289.977L285.023 11.4141V13.3047L287.898 12.2734V21H290.094ZM296.484 21H298.664V14.1484H301.711V12.5469H298.664V12.0859C298.664 11.8359 298.695 11.612 298.758 11.4141C298.826 11.2161 298.927 11.0495 299.062 10.9141C299.214 10.7526 299.417 10.6302 299.672 10.5469C299.927 10.4635 300.237 10.4219 300.602 10.4219C300.94 10.4219 301.234 10.4375 301.484 10.4688C301.734 10.5 301.958 10.5365 302.156 10.5781L302.297 8.875C302.12 8.84375 301.948 8.8151 301.781 8.78906C301.62 8.76302 301.458 8.73958 301.297 8.71875C301.135 8.69792 300.969 8.68229 300.797 8.67188C300.63 8.65625 300.456 8.64844 300.273 8.64844C299.695 8.64844 299.172 8.72396 298.703 8.875C298.234 9.02083 297.836 9.23958 297.508 9.53125C297.18 9.82292 296.927 10.1823 296.75 10.6094C296.573 11.0365 296.484 11.5286 296.484 12.0859V12.5469H294.266V14.1484H296.484V21ZM310.062 12.3906C309.495 12.3906 308.971 12.5286 308.492 12.8047C308.013 13.0755 307.602 13.4505 307.258 13.9297L307.242 13.7422L307.156 12.5469H305.133V21H307.305V15.9219C307.404 15.6823 307.529 15.474 307.68 15.2969C307.831 15.1198 308.013 14.974 308.227 14.8594C308.404 14.7604 308.604 14.6875 308.828 14.6406C309.057 14.5885 309.312 14.5625 309.594 14.5625C309.865 14.5625 310.148 14.5807 310.445 14.6172C310.747 14.6484 311.042 14.6979 311.328 14.7656L311.648 12.6016C311.477 12.5495 311.25 12.5026 310.969 12.4609C310.693 12.4141 310.391 12.3906 310.062 12.3906ZM316.211 13.2891C316.211 13.6901 316.346 14.026 316.617 14.2969C316.888 14.5677 317.255 14.7031 317.719 14.7031C318.177 14.7031 318.542 14.5703 318.812 14.3047C319.089 14.0339 319.227 13.6953 319.227 13.2891C319.227 12.8828 319.091 12.5417 318.82 12.2656C318.555 11.9896 318.188 11.8516 317.719 11.8516C317.245 11.8516 316.875 11.9922 316.609 12.2734C316.344 12.5495 316.211 12.888 316.211 13.2891ZM318.641 20.8281L318.648 19.1016H316.609V20.9297C316.609 21.5026 316.542 21.9922 316.406 22.3984C316.271 22.8099 316.104 23.2031 315.906 23.5781L317.055 24.1719C317.523 23.7552 317.904 23.2422 318.195 22.6328C318.492 22.0234 318.641 21.4219 318.641 20.8281Z" fill="#4A5568"/>
<rect x="11.5" y="55.5" width="147" height="35" rx="8.5" fill="#9F7AEA" stroke="#553C9A" stroke-width="3"/>
<rect x="161.5" y="55.5" width="327" height="35" rx="8.5" fill="#9F7AEA" stroke="#553C9A" stroke-width="3"/>
<rect x="11.5" y="93.5" width="147" height="34" rx="8.5" fill="#9F7AEA" stroke="#553C9A" stroke-width="3"/>
<rect x="161.5" y="93.5" width="327" height="35" rx="8.5" fill="#9F7AEA" stroke="#553C9A" stroke-width="3"/>
<rect x="11.5" y="130.5" width="147" height="35" rx="8.5" fill="#9F7AEA" stroke="#553C9A" stroke-width="3"/>
<rect x="161.5" y="130.5" width="327" height="35" rx="8.5" fill="#9F7AEA" stroke="#553C9A" stroke-width="3"/>
<path d="M28.1989 67.3636V74.7102C28.1989 76.0398 27.267 77 25.8352 77C24.4091 77 23.4716 76.0398 23.4716 74.7102V67.3636H21.0114V74.9205C21.0114 77.4659 22.9318 79.1648 25.8352 79.1648C28.7273 79.1648 30.6591 77.4659 30.6591 74.9205V67.3636H28.1989ZM32.6378 79H35.0582V73.7614C35.0582 72.7955 35.6719 72.1534 36.4787 72.1534C37.2741 72.1534 37.8082 72.6989 37.8082 73.5568V79H40.1548V73.6705C40.1548 72.767 40.6719 72.1534 41.5526 72.1534C42.3253 72.1534 42.9048 72.6364 42.9048 73.608V79H45.3196V73.1307C45.3196 71.2386 44.1946 70.1591 42.5696 70.1591C41.2912 70.1591 40.2969 70.8125 39.9389 71.8125H39.848C39.5696 70.8011 38.6776 70.1591 37.4787 70.1591C36.3026 70.1591 35.4105 70.7841 35.0469 71.8125H34.9446V70.2727H32.6378V79Z" fill="#553C9A"/>
<path d="M175.136 79C178.682 79 180.83 76.8068 180.83 73.1705C180.83 69.5455 178.682 67.3636 175.17 67.3636H171.011V79H175.136ZM173.472 76.892V69.4716H175.04C177.222 69.4716 178.375 70.5852 178.375 73.1705C178.375 75.767 177.222 76.892 175.034 76.892H173.472ZM186.55 79.1705C189.197 79.1705 190.845 77.358 190.845 74.6705C190.845 71.9659 189.197 70.1591 186.55 70.1591C183.902 70.1591 182.254 71.9659 182.254 74.6705C182.254 77.358 183.902 79.1705 186.55 79.1705ZM186.561 77.2955C185.339 77.2955 184.714 76.1761 184.714 74.6534C184.714 73.1307 185.339 72.0057 186.561 72.0057C187.76 72.0057 188.385 73.1307 188.385 74.6534C188.385 76.1761 187.76 77.2955 186.561 77.2955ZM192.419 79H194.839V70.2727H192.419V79ZM193.635 69.1477C194.357 69.1477 194.947 68.5966 194.947 67.9205C194.947 67.25 194.357 66.6989 193.635 66.6989C192.919 66.6989 192.328 67.25 192.328 67.9205C192.328 68.5966 192.919 69.1477 193.635 69.1477ZM204.04 72.7614C203.824 71.1534 202.528 70.1591 200.324 70.1591C198.091 70.1591 196.619 71.1932 196.625 72.875C196.619 74.1818 197.443 75.0284 199.148 75.3693L200.659 75.6705C201.42 75.8239 201.767 76.1023 201.778 76.5398C201.767 77.0568 201.205 77.4261 200.358 77.4261C199.494 77.4261 198.92 77.0568 198.773 76.3466L196.392 76.4716C196.619 78.142 198.04 79.1705 200.352 79.1705C202.614 79.1705 204.233 78.017 204.239 76.2955C204.233 75.0341 203.409 74.2784 201.716 73.9318L200.136 73.6136C199.324 73.4375 199.023 73.1591 199.028 72.7386C199.023 72.2159 199.614 71.875 200.364 71.875C201.205 71.875 201.705 72.3352 201.824 72.8977L204.04 72.7614Z" fill="#553C9A"/>
<path d="M20.5682 106.392H24.1307V116H26.5625V106.392H30.125V104.364H20.5682V106.392ZM30.7472 116H33.1676V111.062C33.1676 109.989 33.9517 109.25 35.0199 109.25C35.3551 109.25 35.8153 109.307 36.0426 109.381V107.233C35.8267 107.182 35.5256 107.148 35.2812 107.148C34.304 107.148 33.5028 107.716 33.1847 108.795H33.0938V107.273H30.7472V116ZM40.8651 116.17C43.0241 116.17 44.4787 115.119 44.8196 113.5L42.581 113.352C42.3366 114.017 41.7116 114.364 40.9048 114.364C39.6946 114.364 38.9276 113.562 38.9276 112.261V112.256H44.8707V111.591C44.8707 108.625 43.0753 107.159 40.7685 107.159C38.2003 107.159 36.5355 108.983 36.5355 111.676C36.5355 114.443 38.1776 116.17 40.8651 116.17ZM39.5696 106.239L40.7116 104.852L41.8537 106.239H43.9162V106.159L41.6094 103.659H39.8082L37.5071 106.159V106.239H39.5696ZM38.9276 110.756C38.9787 109.761 39.7344 108.966 40.8082 108.966C41.8594 108.966 42.5866 109.716 42.5923 110.756H38.9276ZM53.7116 109.761C53.4957 108.153 52.2003 107.159 49.9957 107.159C47.7628 107.159 46.2912 108.193 46.2969 109.875C46.2912 111.182 47.1151 112.028 48.8196 112.369L50.331 112.67C51.0923 112.824 51.4389 113.102 51.4503 113.54C51.4389 114.057 50.8764 114.426 50.0298 114.426C49.1662 114.426 48.5923 114.057 48.4446 113.347L46.0639 113.472C46.2912 115.142 47.7116 116.17 50.0241 116.17C52.2855 116.17 53.9048 115.017 53.9105 113.295C53.9048 112.034 53.081 111.278 51.3878 110.932L49.8082 110.614C48.9957 110.438 48.6946 110.159 48.7003 109.739C48.6946 109.216 49.2855 108.875 50.0355 108.875C50.8764 108.875 51.3764 109.335 51.4957 109.898L53.7116 109.761Z" fill="#553C9A"/>
<path d="M181.705 111.182C181.705 107.375 179.341 105.205 176.256 105.205C173.153 105.205 170.807 107.375 170.807 111.182C170.807 114.972 173.153 117.159 176.256 117.159C176.983 117.159 177.67 117.04 178.295 116.801L179.233 117.955H181.528L179.864 115.864C181 114.847 181.705 113.256 181.705 111.182ZM175.403 112.955L176.892 114.92C176.693 114.96 176.477 114.983 176.256 114.983C174.466 114.983 173.301 113.648 173.301 111.182C173.301 108.716 174.466 107.381 176.256 107.381C178.04 107.381 179.21 108.716 179.21 111.182C179.21 112.449 178.898 113.42 178.358 114.062L177.494 112.955H175.403ZM189.078 113.284C189.084 114.455 188.283 115.068 187.413 115.068C186.499 115.068 185.908 114.426 185.902 113.398V108.273H183.482V113.83C183.487 115.869 184.68 117.114 186.436 117.114C187.749 117.114 188.692 116.438 189.084 115.415H189.175V117H191.499V108.273H189.078V113.284ZM195.923 117.165C197.213 117.165 198.048 116.602 198.474 115.79H198.543V117H200.838V111.114C200.838 109.034 199.077 108.159 197.134 108.159C195.043 108.159 193.668 109.159 193.332 110.75L195.571 110.932C195.736 110.352 196.253 109.926 197.122 109.926C197.946 109.926 198.418 110.341 198.418 111.057V111.091C198.418 111.653 197.821 111.727 196.304 111.875C194.577 112.034 193.026 112.614 193.026 114.562C193.026 116.29 194.259 117.165 195.923 117.165ZM196.616 115.494C195.872 115.494 195.338 115.148 195.338 114.483C195.338 113.801 195.901 113.466 196.753 113.347C197.281 113.273 198.145 113.148 198.435 112.955V113.881C198.435 114.795 197.679 115.494 196.616 115.494ZM207.358 108.273H205.716V106.182H203.295V108.273H202.102V110.091H203.295V114.636C203.284 116.347 204.449 117.193 206.205 117.119C206.83 117.097 207.273 116.972 207.517 116.892L207.136 115.091C207.017 115.114 206.761 115.17 206.534 115.17C206.051 115.17 205.716 114.989 205.716 114.318V110.091H207.358V108.273ZM208.935 117H211.355V112.062C211.355 110.989 212.139 110.25 213.207 110.25C213.543 110.25 214.003 110.307 214.23 110.381V108.233C214.014 108.182 213.713 108.148 213.469 108.148C212.491 108.148 211.69 108.716 211.372 109.795H211.281V108.273H208.935V117ZM219.018 117.17C221.666 117.17 223.314 115.358 223.314 112.67C223.314 109.966 221.666 108.159 219.018 108.159C216.371 108.159 214.723 109.966 214.723 112.67C214.723 115.358 216.371 117.17 219.018 117.17ZM219.03 115.295C217.808 115.295 217.183 114.176 217.183 112.653C217.183 111.131 217.808 110.006 219.03 110.006C220.229 110.006 220.854 111.131 220.854 112.653C220.854 114.176 220.229 115.295 219.03 115.295Z" fill="#553C9A"/>
<path d="M31.2784 146.438C30.9545 143.75 28.9205 142.205 26.2273 142.205C23.1534 142.205 20.8068 144.375 20.8068 148.182C20.8068 151.977 23.1136 154.159 26.2273 154.159C29.2102 154.159 31.0114 152.176 31.2784 150.034L28.7898 150.023C28.5568 151.267 27.5795 151.983 26.267 151.983C24.5 151.983 23.3011 150.67 23.3011 148.182C23.3011 145.761 24.483 144.381 26.2841 144.381C27.6307 144.381 28.6023 145.159 28.7898 146.438H31.2784ZM32.9972 154H35.4176V145.273H32.9972V154ZM34.2131 144.148C34.9347 144.148 35.5256 143.597 35.5256 142.92C35.5256 142.25 34.9347 141.699 34.2131 141.699C33.4972 141.699 32.9062 142.25 32.9062 142.92C32.9062 143.597 33.4972 144.148 34.2131 144.148ZM39.777 148.955C39.7827 147.83 40.4531 147.17 41.4304 147.17C42.402 147.17 42.9872 147.807 42.9815 148.875V154H45.402V148.443C45.402 146.409 44.2088 145.159 42.3906 145.159C41.0952 145.159 40.1577 145.795 39.7656 146.812H39.6634V145.273H37.3565V154H39.777V148.955ZM51.2528 154.17C53.5767 154.17 55.0369 152.807 55.1506 150.801H52.8665C52.7244 151.733 52.1108 152.256 51.2812 152.256C50.1506 152.256 49.4176 151.307 49.4176 149.636C49.4176 147.989 50.1562 147.045 51.2812 147.045C52.1676 147.045 52.7358 147.631 52.8665 148.5H55.1506C55.0483 146.483 53.5199 145.159 51.2415 145.159C48.5938 145.159 46.9574 146.994 46.9574 149.67C46.9574 152.324 48.5653 154.17 51.2528 154.17ZM60.6435 154.17C63.2912 154.17 64.9389 152.358 64.9389 149.67C64.9389 146.966 63.2912 145.159 60.6435 145.159C57.9957 145.159 56.348 146.966 56.348 149.67C56.348 152.358 57.9957 154.17 60.6435 154.17ZM60.6548 152.295C59.4332 152.295 58.8082 151.176 58.8082 149.653C58.8082 148.131 59.4332 147.006 60.6548 147.006C61.8537 147.006 62.4787 148.131 62.4787 149.653C62.4787 151.176 61.8537 152.295 60.6548 152.295Z" fill="#553C9A"/>
<path d="M177.324 145.71H179.682C179.648 143.636 177.943 142.205 175.352 142.205C172.801 142.205 170.932 143.614 170.943 145.727C170.938 147.443 172.148 148.426 174.114 148.898L175.381 149.216C176.648 149.523 177.352 149.886 177.358 150.67C177.352 151.523 176.545 152.102 175.295 152.102C174.017 152.102 173.097 151.511 173.017 150.347H170.636C170.699 152.864 172.5 154.165 175.324 154.165C178.165 154.165 179.835 152.807 179.841 150.676C179.835 148.739 178.375 147.71 176.352 147.256L175.307 147.006C174.295 146.773 173.449 146.398 173.466 145.562C173.466 144.812 174.131 144.261 175.335 144.261C176.511 144.261 177.233 144.795 177.324 145.71ZM185.428 154.17C187.587 154.17 189.041 153.119 189.382 151.5L187.143 151.352C186.899 152.017 186.274 152.364 185.467 152.364C184.257 152.364 183.49 151.562 183.49 150.261V150.256H189.433V149.591C189.433 146.625 187.638 145.159 185.331 145.159C182.763 145.159 181.098 146.983 181.098 149.676C181.098 152.443 182.74 154.17 185.428 154.17ZM183.49 148.756C183.541 147.761 184.297 146.966 185.371 146.966C186.422 146.966 187.149 147.716 187.155 148.756H183.49ZM191.013 154H193.433V145.273H191.013V154ZM192.229 144.148C192.95 144.148 193.541 143.597 193.541 142.92C193.541 142.25 192.95 141.699 192.229 141.699C191.513 141.699 190.922 142.25 190.922 142.92C190.922 143.597 191.513 144.148 192.229 144.148ZM202.634 147.761C202.418 146.153 201.122 145.159 198.918 145.159C196.685 145.159 195.213 146.193 195.219 147.875C195.213 149.182 196.037 150.028 197.741 150.369L199.253 150.67C200.014 150.824 200.361 151.102 200.372 151.54C200.361 152.057 199.798 152.426 198.952 152.426C198.088 152.426 197.514 152.057 197.366 151.347L194.986 151.472C195.213 153.142 196.634 154.17 198.946 154.17C201.207 154.17 202.827 153.017 202.832 151.295C202.827 150.034 202.003 149.278 200.31 148.932L198.73 148.614C197.918 148.438 197.616 148.159 197.622 147.739C197.616 147.216 198.207 146.875 198.957 146.875C199.798 146.875 200.298 147.335 200.418 147.898L202.634 147.761Z" fill="#553C9A"/>
</svg>
