<svg width="600" height="369" viewBox="0 0 600 369" fill="none" xmlns="http://www.w3.org/2000/svg">
<rect y="307" width="600" height="62" rx="10" fill="#E2E8F0"/>
<rect y="39" width="600" height="209" rx="10" fill="#E2E8F0"/>
<rect width="203" height="29" rx="10" fill="#E2E8F0"/>
<rect y="268" width="230" height="29" rx="10" fill="#E2E8F0"/>
<path d="M5.88281 16.7109V16.875C5.88281 17.4896 5.96094 18.0599 6.11719 18.5859C6.27865 19.1068 6.50781 19.5573 6.80469 19.9375C7.10156 20.3177 7.45833 20.6172 7.875 20.8359C8.29688 21.0495 8.77083 21.1562 9.29688 21.1562C9.5625 21.1562 9.8099 21.1276 10.0391 21.0703C10.2734 21.013 10.487 20.9323 10.6797 20.8281C10.8099 20.7552 10.9323 20.6719 11.0469 20.5781C11.1615 20.4844 11.2708 20.3802 11.375 20.2656V20.75C11.375 21.0365 11.3333 21.2943 11.25 21.5234C11.1719 21.7526 11.0573 21.9453 10.9062 22.1016C10.7396 22.2734 10.5312 22.4036 10.2812 22.4922C10.0365 22.5807 9.75521 22.625 9.4375 22.625C9.23958 22.625 9.04688 22.6042 8.85938 22.5625C8.67708 22.526 8.5 22.4688 8.32812 22.3906C8.15104 22.3125 7.98177 22.2109 7.82031 22.0859C7.65885 21.9661 7.50781 21.8255 7.36719 21.6641L6.39062 22.9844C6.57292 23.2188 6.79167 23.4193 7.04687 23.5859C7.30208 23.7578 7.57292 23.8984 7.85937 24.0078C8.14583 24.1172 8.4349 24.1979 8.72656 24.25C9.01823 24.3021 9.29167 24.3281 9.54688 24.3281C10.1406 24.3281 10.6823 24.2474 11.1719 24.0859C11.6667 23.9297 12.0911 23.6979 12.4453 23.3906C12.7943 23.0833 13.0651 22.7057 13.2578 22.2578C13.4557 21.8099 13.5547 21.2995 13.5547 20.7266L13.5547 12.5469H11.5781L11.4922 13.3516C11.388 13.2214 11.2734 13.1042 11.1484 13C11.0234 12.8906 10.888 12.7969 10.7422 12.7188C10.5495 12.6094 10.3333 12.5286 10.0938 12.4766C9.85938 12.4193 9.59896 12.3906 9.3125 12.3906C8.78125 12.3906 8.30469 12.4948 7.88281 12.7031C7.46094 12.9115 7.10156 13.2057 6.80469 13.5859C6.50781 13.9661 6.27865 14.4219 6.11719 14.9531C5.96094 15.4844 5.88281 16.0703 5.88281 16.7109ZM8.0625 16.875V16.7109C8.0625 16.3568 8.09896 16.026 8.17188 15.7188C8.24479 15.4062 8.35677 15.1328 8.50781 14.8984C8.65365 14.6693 8.83854 14.4896 9.0625 14.3594C9.28646 14.224 9.55208 14.1562 9.85938 14.1562C10.026 14.1562 10.1797 14.1719 10.3203 14.2031C10.4661 14.2344 10.599 14.2786 10.7188 14.3359C10.8594 14.4036 10.9844 14.4922 11.0938 14.6016C11.2031 14.7109 11.2969 14.8385 11.375 14.9844V18.5625C11.3021 18.6927 11.2161 18.8099 11.1172 18.9141C11.0182 19.0182 10.9036 19.1068 10.7734 19.1797C10.6484 19.2474 10.5078 19.2995 10.3516 19.3359C10.2005 19.3724 10.0312 19.3906 9.84375 19.3906C9.53646 19.3906 9.27083 19.3255 9.04688 19.1953C8.82292 19.0651 8.63802 18.8854 8.49219 18.6562C8.34635 18.4323 8.23698 18.1693 8.16406 17.8672C8.09635 17.5599 8.0625 17.2292 8.0625 16.875ZM21.7812 12.3906C21.2135 12.3906 20.6901 12.5286 20.2109 12.8047C19.7318 13.0755 19.3203 13.4505 18.9766 13.9297L18.9609 13.7422L18.875 12.5469H16.8516V21H19.0234V15.9219C19.1224 15.6823 19.2474 15.474 19.3984 15.2969C19.5495 15.1198 19.7318 14.974 19.9453 14.8594C20.1224 14.7604 20.3229 14.6875 20.5469 14.6406C20.776 14.5885 21.0312 14.5625 21.3125 14.5625C21.5833 14.5625 21.8672 14.5807 22.1641 14.6172C22.4661 14.6484 22.7604 14.6979 23.0469 14.7656L23.3672 12.6016C23.1953 12.5495 22.9688 12.5026 22.6875 12.4609C22.4115 12.4141 22.1094 12.3906 21.7812 12.3906ZM25.8984 12.5469V14.3203H28.3047V19.2344H25.8984V21H32.7891V19.2344H30.5V12.5469H25.8984ZM28.1484 10.3828C28.1484 10.5495 28.1771 10.7057 28.2344 10.8516C28.2969 10.9922 28.3828 11.112 28.4922 11.2109C28.6016 11.3151 28.7318 11.3958 28.8828 11.4531C29.0391 11.5104 29.2109 11.5391 29.3984 11.5391C29.7839 11.5391 30.0885 11.4323 30.3125 11.2188C30.5417 11 30.6562 10.7214 30.6562 10.3828C30.6562 10.0443 30.5417 9.76823 30.3125 9.55469C30.0885 9.33594 29.7839 9.22656 29.3984 9.22656C29.2109 9.22656 29.0391 9.25521 28.8828 9.3125C28.7318 9.36979 28.6016 9.44792 28.4922 9.54688C28.3828 9.65104 28.2969 9.77604 28.2344 9.92188C28.1771 10.0625 28.1484 10.2161 28.1484 10.3828ZM34.7031 16.7109V16.875C34.7031 17.4896 34.7786 18.0599 34.9297 18.5859C35.0807 19.1068 35.2995 19.5573 35.5859 19.9375C35.8672 20.3177 36.2109 20.6172 36.6172 20.8359C37.0286 21.0495 37.4922 21.1563 38.0078 21.1563C38.4818 21.1563 38.8984 21.0651 39.2578 20.8828C39.6172 20.7005 39.9297 20.4453 40.1953 20.1172L40.3047 21H42.2656V9H40.0859V13.3047C39.8255 13.013 39.526 12.7891 39.1875 12.6328C38.8542 12.4714 38.4661 12.3906 38.0234 12.3906C37.4974 12.3906 37.0286 12.4948 36.6172 12.7031C36.2109 12.9115 35.8646 13.2057 35.5781 13.5859C35.2917 13.9661 35.0729 14.4219 34.9219 14.9531C34.776 15.4844 34.7031 16.0703 34.7031 16.7109ZM36.875 16.875V16.7109C36.875 16.3568 36.9062 16.026 36.9688 15.7188C37.0312 15.4063 37.1302 15.1328 37.2656 14.8984C37.401 14.6693 37.5755 14.4896 37.7891 14.3594C38.0078 14.224 38.2708 14.1563 38.5781 14.1563C38.9479 14.1563 39.2552 14.237 39.5 14.3984C39.7448 14.5547 39.9401 14.776 40.0859 15.0625V18.4844C39.9401 18.7656 39.7422 18.987 39.4922 19.1484C39.2474 19.3099 38.9375 19.3906 38.5625 19.3906C38.2552 19.3906 37.9948 19.3255 37.7812 19.1953C37.5677 19.0651 37.3932 18.8854 37.2578 18.6562C37.1224 18.4323 37.0234 18.1693 36.9609 17.8672C36.9036 17.5599 36.875 17.2292 36.875 16.875ZM52.1484 16.8594V15.1016H45.6406V16.8594H52.1484ZM59.4297 21H61.6328V20.8672C61.5234 20.6536 61.4401 20.3984 61.3828 20.1016C61.3255 19.8047 61.2969 19.4297 61.2969 18.9766V15.3516C61.2969 14.862 61.2057 14.4323 61.0234 14.0625C60.8411 13.6875 60.5885 13.3776 60.2656 13.1328C59.9427 12.888 59.5599 12.7031 59.1172 12.5781C58.6797 12.4531 58.2057 12.3906 57.6953 12.3906C57.1276 12.3906 56.6224 12.4635 56.1797 12.6094C55.7422 12.75 55.3724 12.9427 55.0703 13.1875C54.763 13.4323 54.5286 13.7161 54.3672 14.0391C54.2109 14.362 54.1328 14.7031 54.1328 15.0625H56.3047C56.3047 14.9115 56.3255 14.7734 56.3672 14.6484C56.4141 14.5234 56.4844 14.4167 56.5781 14.3281C56.6823 14.2292 56.8177 14.1536 56.9844 14.1016C57.151 14.0443 57.349 14.0156 57.5781 14.0156C57.8385 14.0156 58.0651 14.0495 58.2578 14.1172C58.4557 14.1797 58.6198 14.2708 58.75 14.3906C58.875 14.5052 58.9688 14.6432 59.0312 14.8047C59.0938 14.9609 59.125 15.138 59.125 15.3359V15.8359H57.9141C57.2891 15.8359 56.7344 15.8932 56.25 16.0078C55.7708 16.1172 55.3672 16.2786 55.0391 16.4922C54.6745 16.7266 54.401 17.026 54.2188 17.3906C54.0365 17.75 53.9453 18.1641 53.9453 18.6328C53.9453 18.9974 54.0182 19.3359 54.1641 19.6484C54.3099 19.9557 54.513 20.2214 54.7734 20.4453C55.0339 20.6693 55.3438 20.8438 55.7031 20.9688C56.0677 21.0938 56.4661 21.1563 56.8984 21.1563C57.1641 21.1563 57.4115 21.1302 57.6406 21.0781C57.8698 21.0313 58.0807 20.9635 58.2734 20.875C58.4609 20.7917 58.6328 20.6927 58.7891 20.5781C58.9453 20.4635 59.0833 20.3411 59.2031 20.2109C59.2292 20.362 59.2604 20.5052 59.2969 20.6406C59.3333 20.776 59.3776 20.8958 59.4297 21ZM57.3594 19.4766C57.1562 19.4766 56.9766 19.4531 56.8203 19.4063C56.6693 19.3542 56.5417 19.2865 56.4375 19.2031C56.3333 19.1146 56.2526 19.0078 56.1953 18.8828C56.1432 18.7526 56.1172 18.612 56.1172 18.4609C56.1172 18.2682 56.1536 18.0911 56.2266 17.9297C56.2995 17.763 56.4115 17.6198 56.5625 17.5C56.7135 17.3854 56.9089 17.2969 57.1484 17.2344C57.388 17.1667 57.6771 17.1328 58.0156 17.1328H59.125V18.5859C59.0625 18.6953 58.9766 18.8047 58.8672 18.9141C58.7578 19.0182 58.6276 19.112 58.4766 19.1953C58.3255 19.2786 58.1562 19.3464 57.9688 19.3984C57.7812 19.4505 57.5781 19.4766 57.3594 19.4766ZM69.2734 21H71.2422V12.5469H69.0625V18.4766C68.9948 18.612 68.9141 18.7344 68.8203 18.8438C68.7266 18.9531 68.6198 19.0469 68.5 19.125C68.3594 19.2135 68.1953 19.2813 68.0078 19.3281C67.8255 19.375 67.6198 19.3984 67.3906 19.3984C67.1354 19.3984 66.9193 19.3672 66.7422 19.3047C66.5651 19.2422 66.4219 19.138 66.3125 18.9922C66.2031 18.8516 66.1224 18.6641 66.0703 18.4297C66.0234 18.1953 66 17.9063 66 17.5625V12.5469H63.8281V17.5469C63.8281 18.1875 63.8984 18.737 64.0391 19.1953C64.1849 19.6484 64.388 20.0208 64.6484 20.3125C64.9089 20.6094 65.2214 20.8255 65.5859 20.9609C65.9505 21.0964 66.3516 21.1641 66.7891 21.1641C67.2682 21.1641 67.7083 21.0443 68.1094 20.8047C68.5156 20.5651 68.862 20.2344 69.1484 19.8125L69.2734 21ZM77.3516 10.4766H75.1797V12.5469H73.25V14.1484H75.1797V17.9922C75.1797 18.5495 75.2526 19.0286 75.3984 19.4297C75.5443 19.8255 75.7526 20.151 76.0234 20.4063C76.2891 20.6667 76.6094 20.8594 76.9844 20.9844C77.3646 21.1042 77.7865 21.1641 78.25 21.1641C78.4896 21.1641 78.7318 21.151 78.9766 21.125C79.2266 21.1042 79.4661 21.0729 79.6953 21.0313C79.9245 20.9896 80.1406 20.9375 80.3438 20.875C80.5469 20.8073 80.724 20.7292 80.875 20.6406L80.6641 19.1484C80.5651 19.1745 80.4453 19.2005 80.3047 19.2266C80.1693 19.2526 80.0234 19.276 79.8672 19.2969C79.7057 19.3229 79.5365 19.3438 79.3594 19.3594C79.1875 19.375 79.0182 19.3828 78.8516 19.3828C78.6224 19.3828 78.4141 19.3568 78.2266 19.3047C78.0443 19.2526 77.888 19.1641 77.7578 19.0391C77.6276 18.9193 77.526 18.7578 77.4531 18.5547C77.3854 18.3464 77.3516 18.0885 77.3516 17.7813V14.1484H80.5078V12.5469H77.3516V10.4766ZM82.6797 16.6953V16.8594C82.6797 17.4792 82.7682 18.0521 82.9453 18.5781C83.1224 19.099 83.3828 19.5521 83.7266 19.9375C84.0651 20.3229 84.4818 20.625 84.9766 20.8438C85.4766 21.0573 86.0443 21.1641 86.6797 21.1641C87.3099 21.1641 87.8724 21.0573 88.3672 20.8438C88.862 20.625 89.2786 20.3229 89.6172 19.9375C89.9557 19.5521 90.2135 19.099 90.3906 18.5781C90.5677 18.0521 90.6562 17.4792 90.6562 16.8594V16.6953C90.6562 16.0807 90.5677 15.513 90.3906 14.9922C90.2135 14.4661 89.9557 14.0104 89.6172 13.625C89.2734 13.2396 88.8542 12.9375 88.3594 12.7188C87.8646 12.5 87.2995 12.3906 86.6641 12.3906C86.0286 12.3906 85.4635 12.5 84.9688 12.7188C84.4792 12.9375 84.0651 13.2396 83.7266 13.625C83.3828 14.0104 83.1224 14.4661 82.9453 14.9922C82.7682 15.513 82.6797 16.0807 82.6797 16.6953ZM84.8516 16.8594V16.6953C84.8516 16.3516 84.8854 16.026 84.9531 15.7188C85.0208 15.4115 85.1276 15.1406 85.2734 14.9063C85.4193 14.6719 85.6068 14.487 85.8359 14.3516C86.0651 14.2161 86.3411 14.1484 86.6641 14.1484C86.9922 14.1484 87.2708 14.2161 87.5 14.3516C87.7292 14.487 87.9167 14.6719 88.0625 14.9063C88.2031 15.1406 88.3073 15.4115 88.375 15.7188C88.4427 16.026 88.4766 16.3516 88.4766 16.6953V16.8594C88.4766 17.2135 88.4427 17.5469 88.375 17.8594C88.3073 18.1667 88.2031 18.4349 88.0625 18.6641C87.9167 18.8984 87.7292 19.0833 87.5 19.2188C87.2708 19.3542 86.9974 19.4219 86.6797 19.4219C86.3516 19.4219 86.0703 19.3542 85.8359 19.2188C85.6068 19.0833 85.4193 18.8984 85.2734 18.6641C85.1276 18.4349 85.0208 18.1667 84.9531 17.8594C84.8854 17.5469 84.8516 17.2135 84.8516 16.8594ZM100.195 16.8594V15.1016H93.6875V16.8594H100.195ZM104.297 21H106.477V14.1484H109.523V12.5469H106.477V12.0859C106.477 11.8359 106.508 11.612 106.57 11.4141C106.638 11.2161 106.74 11.0495 106.875 10.9141C107.026 10.7526 107.229 10.6302 107.484 10.5469C107.74 10.4635 108.049 10.4219 108.414 10.4219C108.753 10.4219 109.047 10.4375 109.297 10.4688C109.547 10.5 109.771 10.5365 109.969 10.5781L110.109 8.875C109.932 8.84375 109.76 8.8151 109.594 8.78906C109.432 8.76302 109.271 8.73958 109.109 8.71875C108.948 8.69792 108.781 8.68229 108.609 8.67188C108.443 8.65625 108.268 8.64844 108.086 8.64844C107.508 8.64844 106.984 8.72396 106.516 8.875C106.047 9.02083 105.648 9.23958 105.32 9.53125C104.992 9.82292 104.74 10.1823 104.562 10.6094C104.385 11.0365 104.297 11.5286 104.297 12.0859V12.5469H102.078V14.1484H104.297V21ZM112.258 9V10.7734H114.789V19.2344H112.258V21H119.406V19.2344H116.984V9H112.258ZM121.117 16.6953V16.8594C121.117 17.4792 121.206 18.0521 121.383 18.5781C121.56 19.099 121.82 19.5521 122.164 19.9375C122.503 20.3229 122.919 20.625 123.414 20.8438C123.914 21.0573 124.482 21.1641 125.117 21.1641C125.747 21.1641 126.31 21.0573 126.805 20.8438C127.299 20.625 127.716 20.3229 128.055 19.9375C128.393 19.5521 128.651 19.099 128.828 18.5781C129.005 18.0521 129.094 17.4792 129.094 16.8594V16.6953C129.094 16.0807 129.005 15.513 128.828 14.9922C128.651 14.4661 128.393 14.0104 128.055 13.625C127.711 13.2396 127.292 12.9375 126.797 12.7188C126.302 12.5 125.737 12.3906 125.102 12.3906C124.466 12.3906 123.901 12.5 123.406 12.7188C122.917 12.9375 122.503 13.2396 122.164 13.625C121.82 14.0104 121.56 14.4661 121.383 14.9922C121.206 15.513 121.117 16.0807 121.117 16.6953ZM123.289 16.8594V16.6953C123.289 16.3516 123.323 16.026 123.391 15.7188C123.458 15.4115 123.565 15.1406 123.711 14.9063C123.857 14.6719 124.044 14.487 124.273 14.3516C124.503 14.2161 124.779 14.1484 125.102 14.1484C125.43 14.1484 125.708 14.2161 125.938 14.3516C126.167 14.487 126.354 14.6719 126.5 14.9063C126.641 15.1406 126.745 15.4115 126.812 15.7188C126.88 16.026 126.914 16.3516 126.914 16.6953V16.8594C126.914 17.2135 126.88 17.5469 126.812 17.8594C126.745 18.1667 126.641 18.4349 126.5 18.6641C126.354 18.8984 126.167 19.0833 125.938 19.2188C125.708 19.3542 125.435 19.4219 125.117 19.4219C124.789 19.4219 124.508 19.3542 124.273 19.2188C124.044 19.0833 123.857 18.8984 123.711 18.6641C123.565 18.4349 123.458 18.1667 123.391 17.8594C123.323 17.5469 123.289 17.2135 123.289 16.8594ZM131.648 21H133.555L134.453 16.4844L134.625 15.625L134.805 16.4844L135.734 21H137.641L139.156 12.5469H137.164L136.539 17.5313L136.43 18.3516L136.281 17.5469L135.367 12.5469H133.914L133 17.5703L132.852 18.375L132.75 17.5703L132.117 12.5469H130.133L131.648 21ZM142.938 19.7422C142.938 20.1432 143.073 20.4792 143.344 20.75C143.615 21.0208 143.982 21.1563 144.445 21.1563C144.904 21.1563 145.268 21.0234 145.539 20.7578C145.815 20.487 145.953 20.1484 145.953 19.7422C145.953 19.3359 145.818 18.9948 145.547 18.7188C145.281 18.4427 144.914 18.3047 144.445 18.3047C143.971 18.3047 143.602 18.4453 143.336 18.7266C143.07 19.0026 142.938 19.3411 142.938 19.7422ZM142.938 13.2891C142.938 13.6901 143.073 14.026 143.344 14.2969C143.615 14.5677 143.982 14.7031 144.445 14.7031C144.904 14.7031 145.268 14.5703 145.539 14.3047C145.815 14.0339 145.953 13.6953 145.953 13.2891C145.953 12.8828 145.818 12.5417 145.547 12.2656C145.281 11.9896 144.914 11.8516 144.445 11.8516C143.971 11.8516 143.602 11.9922 143.336 12.2734C143.07 12.5495 142.938 12.888 142.938 13.2891ZM165.922 12.3906C165.354 12.3906 164.831 12.5286 164.352 12.8047C163.872 13.0755 163.461 13.4505 163.117 13.9297L163.102 13.7422L163.016 12.5469H160.992V21H163.164V15.9219C163.263 15.6823 163.388 15.474 163.539 15.2969C163.69 15.1198 163.872 14.974 164.086 14.8594C164.263 14.7604 164.464 14.6875 164.688 14.6406C164.917 14.5885 165.172 14.5625 165.453 14.5625C165.724 14.5625 166.008 14.5807 166.305 14.6172C166.607 14.6484 166.901 14.6979 167.188 14.7656L167.508 12.6016C167.336 12.5495 167.109 12.5026 166.828 12.4609C166.552 12.4141 166.25 12.3906 165.922 12.3906ZM169.164 16.6953V16.8594C169.164 17.4792 169.253 18.0521 169.43 18.5781C169.607 19.099 169.867 19.5521 170.211 19.9375C170.549 20.3229 170.966 20.625 171.461 20.8438C171.961 21.0573 172.529 21.1641 173.164 21.1641C173.794 21.1641 174.357 21.0573 174.852 20.8438C175.346 20.625 175.763 20.3229 176.102 19.9375C176.44 19.5521 176.698 19.099 176.875 18.5781C177.052 18.0521 177.141 17.4792 177.141 16.8594V16.6953C177.141 16.0807 177.052 15.513 176.875 14.9922C176.698 14.4661 176.44 14.0104 176.102 13.625C175.758 13.2396 175.339 12.9375 174.844 12.7188C174.349 12.5 173.784 12.3906 173.148 12.3906C172.513 12.3906 171.948 12.5 171.453 12.7188C170.964 12.9375 170.549 13.2396 170.211 13.625C169.867 14.0104 169.607 14.4661 169.43 14.9922C169.253 15.513 169.164 16.0807 169.164 16.6953ZM171.336 16.8594V16.6953C171.336 16.3516 171.37 16.026 171.438 15.7188C171.505 15.4115 171.612 15.1406 171.758 14.9063C171.904 14.6719 172.091 14.487 172.32 14.3516C172.549 14.2161 172.826 14.1484 173.148 14.1484C173.477 14.1484 173.755 14.2161 173.984 14.3516C174.214 14.487 174.401 14.6719 174.547 14.9063C174.688 15.1406 174.792 15.4115 174.859 15.7188C174.927 16.026 174.961 16.3516 174.961 16.6953V16.8594C174.961 17.2135 174.927 17.5469 174.859 17.8594C174.792 18.1667 174.688 18.4349 174.547 18.6641C174.401 18.8984 174.214 19.0833 173.984 19.2188C173.755 19.3542 173.482 19.4219 173.164 19.4219C172.836 19.4219 172.555 19.3542 172.32 19.2188C172.091 19.0833 171.904 18.8984 171.758 18.6641C171.612 18.4349 171.505 18.1667 171.438 17.8594C171.37 17.5469 171.336 17.2135 171.336 16.8594ZM179.695 21H181.602L182.5 16.4844L182.672 15.625L182.852 16.4844L183.781 21H185.688L187.203 12.5469H185.211L184.586 17.5313L184.477 18.3516L184.328 17.5469L183.414 12.5469H181.961L181.047 17.5703L180.898 18.375L180.797 17.5703L180.164 12.5469H178.18L179.695 21ZM191.289 13.2891C191.289 13.6901 191.424 14.026 191.695 14.2969C191.966 14.5677 192.333 14.7031 192.797 14.7031C193.255 14.7031 193.62 14.5703 193.891 14.3047C194.167 14.0339 194.305 13.6953 194.305 13.2891C194.305 12.8828 194.169 12.5417 193.898 12.2656C193.633 11.9896 193.266 11.8516 192.797 11.8516C192.323 11.8516 191.953 11.9922 191.688 12.2734C191.422 12.5495 191.289 12.888 191.289 13.2891ZM193.719 20.8281L193.727 19.1016H191.688V20.9297C191.688 21.5026 191.62 21.9922 191.484 22.3984C191.349 22.8099 191.182 23.2031 190.984 23.5781L192.133 24.1719C192.602 23.7552 192.982 23.2422 193.273 22.6328C193.57 22.0234 193.719 21.4219 193.719 20.8281Z" fill="#4A5568"/>
<path d="M5.88281 284.711V284.875C5.88281 285.49 5.96094 286.06 6.11719 286.586C6.27865 287.107 6.50781 287.557 6.80469 287.938C7.10156 288.318 7.45833 288.617 7.875 288.836C8.29688 289.049 8.77083 289.156 9.29688 289.156C9.5625 289.156 9.8099 289.128 10.0391 289.07C10.2734 289.013 10.487 288.932 10.6797 288.828C10.8099 288.755 10.9323 288.672 11.0469 288.578C11.1615 288.484 11.2708 288.38 11.375 288.266V288.75C11.375 289.036 11.3333 289.294 11.25 289.523C11.1719 289.753 11.0573 289.945 10.9062 290.102C10.7396 290.273 10.5312 290.404 10.2812 290.492C10.0365 290.581 9.75521 290.625 9.4375 290.625C9.23958 290.625 9.04688 290.604 8.85938 290.562C8.67708 290.526 8.5 290.469 8.32812 290.391C8.15104 290.312 7.98177 290.211 7.82031 290.086C7.65885 289.966 7.50781 289.826 7.36719 289.664L6.39062 290.984C6.57292 291.219 6.79167 291.419 7.04687 291.586C7.30208 291.758 7.57292 291.898 7.85937 292.008C8.14583 292.117 8.4349 292.198 8.72656 292.25C9.01823 292.302 9.29167 292.328 9.54688 292.328C10.1406 292.328 10.6823 292.247 11.1719 292.086C11.6667 291.93 12.0911 291.698 12.4453 291.391C12.7943 291.083 13.0651 290.706 13.2578 290.258C13.4557 289.81 13.5547 289.299 13.5547 288.727L13.5547 280.547H11.5781L11.4922 281.352C11.388 281.221 11.2734 281.104 11.1484 281C11.0234 280.891 10.888 280.797 10.7422 280.719C10.5495 280.609 10.3333 280.529 10.0938 280.477C9.85938 280.419 9.59896 280.391 9.3125 280.391C8.78125 280.391 8.30469 280.495 7.88281 280.703C7.46094 280.911 7.10156 281.206 6.80469 281.586C6.50781 281.966 6.27865 282.422 6.11719 282.953C5.96094 283.484 5.88281 284.07 5.88281 284.711ZM8.0625 284.875V284.711C8.0625 284.357 8.09896 284.026 8.17188 283.719C8.24479 283.406 8.35677 283.133 8.50781 282.898C8.65365 282.669 8.83854 282.49 9.0625 282.359C9.28646 282.224 9.55208 282.156 9.85938 282.156C10.026 282.156 10.1797 282.172 10.3203 282.203C10.4661 282.234 10.599 282.279 10.7188 282.336C10.8594 282.404 10.9844 282.492 11.0938 282.602C11.2031 282.711 11.2969 282.839 11.375 282.984V286.562C11.3021 286.693 11.2161 286.81 11.1172 286.914C11.0182 287.018 10.9036 287.107 10.7734 287.18C10.6484 287.247 10.5078 287.299 10.3516 287.336C10.2005 287.372 10.0312 287.391 9.84375 287.391C9.53646 287.391 9.27083 287.326 9.04688 287.195C8.82292 287.065 8.63802 286.885 8.49219 286.656C8.34635 286.432 8.23698 286.169 8.16406 285.867C8.09635 285.56 8.0625 285.229 8.0625 284.875ZM21.7812 280.391C21.2135 280.391 20.6901 280.529 20.2109 280.805C19.7318 281.076 19.3203 281.451 18.9766 281.93L18.9609 281.742L18.875 280.547H16.8516V289H19.0234V283.922C19.1224 283.682 19.2474 283.474 19.3984 283.297C19.5495 283.12 19.7318 282.974 19.9453 282.859C20.1224 282.76 20.3229 282.688 20.5469 282.641C20.776 282.589 21.0312 282.562 21.3125 282.562C21.5833 282.562 21.8672 282.581 22.1641 282.617C22.4661 282.648 22.7604 282.698 23.0469 282.766L23.3672 280.602C23.1953 280.549 22.9688 280.503 22.6875 280.461C22.4115 280.414 22.1094 280.391 21.7812 280.391ZM25.8984 280.547V282.32H28.3047V287.234H25.8984V289H32.7891V287.234H30.5V280.547H25.8984ZM28.1484 278.383C28.1484 278.549 28.1771 278.706 28.2344 278.852C28.2969 278.992 28.3828 279.112 28.4922 279.211C28.6016 279.315 28.7318 279.396 28.8828 279.453C29.0391 279.51 29.2109 279.539 29.3984 279.539C29.7839 279.539 30.0885 279.432 30.3125 279.219C30.5417 279 30.6562 278.721 30.6562 278.383C30.6562 278.044 30.5417 277.768 30.3125 277.555C30.0885 277.336 29.7839 277.227 29.3984 277.227C29.2109 277.227 29.0391 277.255 28.8828 277.312C28.7318 277.37 28.6016 277.448 28.4922 277.547C28.3828 277.651 28.2969 277.776 28.2344 277.922C28.1771 278.062 28.1484 278.216 28.1484 278.383ZM34.7031 284.711V284.875C34.7031 285.49 34.7786 286.06 34.9297 286.586C35.0807 287.107 35.2995 287.557 35.5859 287.938C35.8672 288.318 36.2109 288.617 36.6172 288.836C37.0286 289.049 37.4922 289.156 38.0078 289.156C38.4818 289.156 38.8984 289.065 39.2578 288.883C39.6172 288.701 39.9297 288.445 40.1953 288.117L40.3047 289H42.2656V277H40.0859V281.305C39.8255 281.013 39.526 280.789 39.1875 280.633C38.8542 280.471 38.4661 280.391 38.0234 280.391C37.4974 280.391 37.0286 280.495 36.6172 280.703C36.2109 280.911 35.8646 281.206 35.5781 281.586C35.2917 281.966 35.0729 282.422 34.9219 282.953C34.776 283.484 34.7031 284.07 34.7031 284.711ZM36.875 284.875V284.711C36.875 284.357 36.9062 284.026 36.9688 283.719C37.0312 283.406 37.1302 283.133 37.2656 282.898C37.401 282.669 37.5755 282.49 37.7891 282.359C38.0078 282.224 38.2708 282.156 38.5781 282.156C38.9479 282.156 39.2552 282.237 39.5 282.398C39.7448 282.555 39.9401 282.776 40.0859 283.062V286.484C39.9401 286.766 39.7422 286.987 39.4922 287.148C39.2474 287.31 38.9375 287.391 38.5625 287.391C38.2552 287.391 37.9948 287.326 37.7812 287.195C37.5677 287.065 37.3932 286.885 37.2578 286.656C37.1224 286.432 37.0234 286.169 36.9609 285.867C36.9036 285.56 36.875 285.229 36.875 284.875ZM52.1484 284.859V283.102H45.6406V284.859H52.1484ZM59.4297 289H61.6328V288.867C61.5234 288.654 61.4401 288.398 61.3828 288.102C61.3255 287.805 61.2969 287.43 61.2969 286.977V283.352C61.2969 282.862 61.2057 282.432 61.0234 282.062C60.8411 281.688 60.5885 281.378 60.2656 281.133C59.9427 280.888 59.5599 280.703 59.1172 280.578C58.6797 280.453 58.2057 280.391 57.6953 280.391C57.1276 280.391 56.6224 280.464 56.1797 280.609C55.7422 280.75 55.3724 280.943 55.0703 281.188C54.763 281.432 54.5286 281.716 54.3672 282.039C54.2109 282.362 54.1328 282.703 54.1328 283.062H56.3047C56.3047 282.911 56.3255 282.773 56.3672 282.648C56.4141 282.523 56.4844 282.417 56.5781 282.328C56.6823 282.229 56.8177 282.154 56.9844 282.102C57.151 282.044 57.349 282.016 57.5781 282.016C57.8385 282.016 58.0651 282.049 58.2578 282.117C58.4557 282.18 58.6198 282.271 58.75 282.391C58.875 282.505 58.9688 282.643 59.0312 282.805C59.0938 282.961 59.125 283.138 59.125 283.336V283.836H57.9141C57.2891 283.836 56.7344 283.893 56.25 284.008C55.7708 284.117 55.3672 284.279 55.0391 284.492C54.6745 284.727 54.401 285.026 54.2188 285.391C54.0365 285.75 53.9453 286.164 53.9453 286.633C53.9453 286.997 54.0182 287.336 54.1641 287.648C54.3099 287.956 54.513 288.221 54.7734 288.445C55.0339 288.669 55.3438 288.844 55.7031 288.969C56.0677 289.094 56.4661 289.156 56.8984 289.156C57.1641 289.156 57.4115 289.13 57.6406 289.078C57.8698 289.031 58.0807 288.964 58.2734 288.875C58.4609 288.792 58.6328 288.693 58.7891 288.578C58.9453 288.464 59.0833 288.341 59.2031 288.211C59.2292 288.362 59.2604 288.505 59.2969 288.641C59.3333 288.776 59.3776 288.896 59.4297 289ZM57.3594 287.477C57.1562 287.477 56.9766 287.453 56.8203 287.406C56.6693 287.354 56.5417 287.286 56.4375 287.203C56.3333 287.115 56.2526 287.008 56.1953 286.883C56.1432 286.753 56.1172 286.612 56.1172 286.461C56.1172 286.268 56.1536 286.091 56.2266 285.93C56.2995 285.763 56.4115 285.62 56.5625 285.5C56.7135 285.385 56.9089 285.297 57.1484 285.234C57.388 285.167 57.6771 285.133 58.0156 285.133H59.125V286.586C59.0625 286.695 58.9766 286.805 58.8672 286.914C58.7578 287.018 58.6276 287.112 58.4766 287.195C58.3255 287.279 58.1562 287.346 57.9688 287.398C57.7812 287.451 57.5781 287.477 57.3594 287.477ZM69.2734 289H71.2422V280.547H69.0625V286.477C68.9948 286.612 68.9141 286.734 68.8203 286.844C68.7266 286.953 68.6198 287.047 68.5 287.125C68.3594 287.214 68.1953 287.281 68.0078 287.328C67.8255 287.375 67.6198 287.398 67.3906 287.398C67.1354 287.398 66.9193 287.367 66.7422 287.305C66.5651 287.242 66.4219 287.138 66.3125 286.992C66.2031 286.852 66.1224 286.664 66.0703 286.43C66.0234 286.195 66 285.906 66 285.562V280.547H63.8281V285.547C63.8281 286.188 63.8984 286.737 64.0391 287.195C64.1849 287.648 64.388 288.021 64.6484 288.312C64.9089 288.609 65.2214 288.826 65.5859 288.961C65.9505 289.096 66.3516 289.164 66.7891 289.164C67.2682 289.164 67.7083 289.044 68.1094 288.805C68.5156 288.565 68.862 288.234 69.1484 287.812L69.2734 289ZM77.3516 278.477H75.1797V280.547H73.25V282.148H75.1797V285.992C75.1797 286.549 75.2526 287.029 75.3984 287.43C75.5443 287.826 75.7526 288.151 76.0234 288.406C76.2891 288.667 76.6094 288.859 76.9844 288.984C77.3646 289.104 77.7865 289.164 78.25 289.164C78.4896 289.164 78.7318 289.151 78.9766 289.125C79.2266 289.104 79.4661 289.073 79.6953 289.031C79.9245 288.99 80.1406 288.938 80.3438 288.875C80.5469 288.807 80.724 288.729 80.875 288.641L80.6641 287.148C80.5651 287.174 80.4453 287.201 80.3047 287.227C80.1693 287.253 80.0234 287.276 79.8672 287.297C79.7057 287.323 79.5365 287.344 79.3594 287.359C79.1875 287.375 79.0182 287.383 78.8516 287.383C78.6224 287.383 78.4141 287.357 78.2266 287.305C78.0443 287.253 77.888 287.164 77.7578 287.039C77.6276 286.919 77.526 286.758 77.4531 286.555C77.3854 286.346 77.3516 286.089 77.3516 285.781V282.148H80.5078V280.547H77.3516V278.477ZM82.6797 284.695V284.859C82.6797 285.479 82.7682 286.052 82.9453 286.578C83.1224 287.099 83.3828 287.552 83.7266 287.938C84.0651 288.323 84.4818 288.625 84.9766 288.844C85.4766 289.057 86.0443 289.164 86.6797 289.164C87.3099 289.164 87.8724 289.057 88.3672 288.844C88.862 288.625 89.2786 288.323 89.6172 287.938C89.9557 287.552 90.2135 287.099 90.3906 286.578C90.5677 286.052 90.6562 285.479 90.6562 284.859V284.695C90.6562 284.081 90.5677 283.513 90.3906 282.992C90.2135 282.466 89.9557 282.01 89.6172 281.625C89.2734 281.24 88.8542 280.938 88.3594 280.719C87.8646 280.5 87.2995 280.391 86.6641 280.391C86.0286 280.391 85.4635 280.5 84.9688 280.719C84.4792 280.938 84.0651 281.24 83.7266 281.625C83.3828 282.01 83.1224 282.466 82.9453 282.992C82.7682 283.513 82.6797 284.081 82.6797 284.695ZM84.8516 284.859V284.695C84.8516 284.352 84.8854 284.026 84.9531 283.719C85.0208 283.411 85.1276 283.141 85.2734 282.906C85.4193 282.672 85.6068 282.487 85.8359 282.352C86.0651 282.216 86.3411 282.148 86.6641 282.148C86.9922 282.148 87.2708 282.216 87.5 282.352C87.7292 282.487 87.9167 282.672 88.0625 282.906C88.2031 283.141 88.3073 283.411 88.375 283.719C88.4427 284.026 88.4766 284.352 88.4766 284.695V284.859C88.4766 285.214 88.4427 285.547 88.375 285.859C88.3073 286.167 88.2031 286.435 88.0625 286.664C87.9167 286.898 87.7292 287.083 87.5 287.219C87.2708 287.354 86.9974 287.422 86.6797 287.422C86.3516 287.422 86.0703 287.354 85.8359 287.219C85.6068 287.083 85.4193 286.898 85.2734 286.664C85.1276 286.435 85.0208 286.167 84.9531 285.859C84.8854 285.547 84.8516 285.214 84.8516 284.859ZM100.195 284.859V283.102H93.6875V284.859H100.195ZM104.297 289H106.477V282.148H109.523V280.547H106.477V280.086C106.477 279.836 106.508 279.612 106.57 279.414C106.638 279.216 106.74 279.049 106.875 278.914C107.026 278.753 107.229 278.63 107.484 278.547C107.74 278.464 108.049 278.422 108.414 278.422C108.753 278.422 109.047 278.438 109.297 278.469C109.547 278.5 109.771 278.536 109.969 278.578L110.109 276.875C109.932 276.844 109.76 276.815 109.594 276.789C109.432 276.763 109.271 276.74 109.109 276.719C108.948 276.698 108.781 276.682 108.609 276.672C108.443 276.656 108.268 276.648 108.086 276.648C107.508 276.648 106.984 276.724 106.516 276.875C106.047 277.021 105.648 277.24 105.32 277.531C104.992 277.823 104.74 278.182 104.562 278.609C104.385 279.036 104.297 279.529 104.297 280.086V280.547H102.078V282.148H104.297V289ZM112.258 277V278.773H114.789V287.234H112.258V289H119.406V287.234H116.984V277H112.258ZM121.117 284.695V284.859C121.117 285.479 121.206 286.052 121.383 286.578C121.56 287.099 121.82 287.552 122.164 287.938C122.503 288.323 122.919 288.625 123.414 288.844C123.914 289.057 124.482 289.164 125.117 289.164C125.747 289.164 126.31 289.057 126.805 288.844C127.299 288.625 127.716 288.323 128.055 287.938C128.393 287.552 128.651 287.099 128.828 286.578C129.005 286.052 129.094 285.479 129.094 284.859V284.695C129.094 284.081 129.005 283.513 128.828 282.992C128.651 282.466 128.393 282.01 128.055 281.625C127.711 281.24 127.292 280.938 126.797 280.719C126.302 280.5 125.737 280.391 125.102 280.391C124.466 280.391 123.901 280.5 123.406 280.719C122.917 280.938 122.503 281.24 122.164 281.625C121.82 282.01 121.56 282.466 121.383 282.992C121.206 283.513 121.117 284.081 121.117 284.695ZM123.289 284.859V284.695C123.289 284.352 123.323 284.026 123.391 283.719C123.458 283.411 123.565 283.141 123.711 282.906C123.857 282.672 124.044 282.487 124.273 282.352C124.503 282.216 124.779 282.148 125.102 282.148C125.43 282.148 125.708 282.216 125.938 282.352C126.167 282.487 126.354 282.672 126.5 282.906C126.641 283.141 126.745 283.411 126.812 283.719C126.88 284.026 126.914 284.352 126.914 284.695V284.859C126.914 285.214 126.88 285.547 126.812 285.859C126.745 286.167 126.641 286.435 126.5 286.664C126.354 286.898 126.167 287.083 125.938 287.219C125.708 287.354 125.435 287.422 125.117 287.422C124.789 287.422 124.508 287.354 124.273 287.219C124.044 287.083 123.857 286.898 123.711 286.664C123.565 286.435 123.458 286.167 123.391 285.859C123.323 285.547 123.289 285.214 123.289 284.859ZM131.648 289H133.555L134.453 284.484L134.625 283.625L134.805 284.484L135.734 289H137.641L139.156 280.547H137.164L136.539 285.531L136.43 286.352L136.281 285.547L135.367 280.547H133.914L133 285.57L132.852 286.375L132.75 285.57L132.117 280.547H130.133L131.648 289ZM142.938 287.742C142.938 288.143 143.073 288.479 143.344 288.75C143.615 289.021 143.982 289.156 144.445 289.156C144.904 289.156 145.268 289.023 145.539 288.758C145.815 288.487 145.953 288.148 145.953 287.742C145.953 287.336 145.818 286.995 145.547 286.719C145.281 286.443 144.914 286.305 144.445 286.305C143.971 286.305 143.602 286.445 143.336 286.727C143.07 287.003 142.938 287.341 142.938 287.742ZM142.938 281.289C142.938 281.69 143.073 282.026 143.344 282.297C143.615 282.568 143.982 282.703 144.445 282.703C144.904 282.703 145.268 282.57 145.539 282.305C145.815 282.034 145.953 281.695 145.953 281.289C145.953 280.883 145.818 280.542 145.547 280.266C145.281 279.99 144.914 279.852 144.445 279.852C143.971 279.852 143.602 279.992 143.336 280.273C143.07 280.549 142.938 280.888 142.938 281.289ZM163.594 287.422C163.245 287.422 162.956 287.352 162.727 287.211C162.503 287.07 162.326 286.883 162.195 286.648C162.06 286.419 161.966 286.154 161.914 285.852C161.862 285.544 161.836 285.227 161.836 284.898V284.664C161.836 284.341 161.862 284.029 161.914 283.727C161.971 283.424 162.068 283.156 162.203 282.922C162.333 282.688 162.51 282.5 162.734 282.359C162.958 282.219 163.242 282.148 163.586 282.148C163.82 282.148 164.036 282.19 164.234 282.273C164.432 282.352 164.602 282.458 164.742 282.594C164.883 282.729 164.99 282.891 165.062 283.078C165.135 283.266 165.167 283.464 165.156 283.672H167.203C167.214 283.172 167.13 282.721 166.953 282.32C166.776 281.914 166.529 281.568 166.211 281.281C165.888 281 165.505 280.781 165.062 280.625C164.62 280.469 164.138 280.391 163.617 280.391C162.966 280.391 162.393 280.503 161.898 280.727C161.409 280.951 160.997 281.255 160.664 281.641C160.331 282.026 160.081 282.479 159.914 283C159.747 283.516 159.664 284.07 159.664 284.664V284.898C159.664 285.492 159.747 286.049 159.914 286.57C160.086 287.086 160.339 287.536 160.672 287.922C161 288.307 161.411 288.612 161.906 288.836C162.401 289.055 162.977 289.164 163.633 289.164C164.117 289.164 164.576 289.089 165.008 288.938C165.445 288.781 165.828 288.568 166.156 288.297C166.484 288.026 166.742 287.703 166.93 287.328C167.122 286.953 167.214 286.547 167.203 286.109H165.156C165.167 286.307 165.13 286.487 165.047 286.648C164.969 286.81 164.857 286.948 164.711 287.062C164.565 287.177 164.396 287.266 164.203 287.328C164.01 287.391 163.807 287.422 163.594 287.422ZM169.164 284.695V284.859C169.164 285.479 169.253 286.052 169.43 286.578C169.607 287.099 169.867 287.552 170.211 287.938C170.549 288.323 170.966 288.625 171.461 288.844C171.961 289.057 172.529 289.164 173.164 289.164C173.794 289.164 174.357 289.057 174.852 288.844C175.346 288.625 175.763 288.323 176.102 287.938C176.44 287.552 176.698 287.099 176.875 286.578C177.052 286.052 177.141 285.479 177.141 284.859V284.695C177.141 284.081 177.052 283.513 176.875 282.992C176.698 282.466 176.44 282.01 176.102 281.625C175.758 281.24 175.339 280.938 174.844 280.719C174.349 280.5 173.784 280.391 173.148 280.391C172.513 280.391 171.948 280.5 171.453 280.719C170.964 280.938 170.549 281.24 170.211 281.625C169.867 282.01 169.607 282.466 169.43 282.992C169.253 283.513 169.164 284.081 169.164 284.695ZM171.336 284.859V284.695C171.336 284.352 171.37 284.026 171.438 283.719C171.505 283.411 171.612 283.141 171.758 282.906C171.904 282.672 172.091 282.487 172.32 282.352C172.549 282.216 172.826 282.148 173.148 282.148C173.477 282.148 173.755 282.216 173.984 282.352C174.214 282.487 174.401 282.672 174.547 282.906C174.688 283.141 174.792 283.411 174.859 283.719C174.927 284.026 174.961 284.352 174.961 284.695V284.859C174.961 285.214 174.927 285.547 174.859 285.859C174.792 286.167 174.688 286.435 174.547 286.664C174.401 286.898 174.214 287.083 173.984 287.219C173.755 287.354 173.482 287.422 173.164 287.422C172.836 287.422 172.555 287.354 172.32 287.219C172.091 287.083 171.904 286.898 171.758 286.664C171.612 286.435 171.505 286.167 171.438 285.859C171.37 285.547 171.336 285.214 171.336 284.859ZM179.523 277V278.773H182.055V287.234H179.523V289H186.672V287.234H184.25V277H179.523ZM194.195 289H196.164V280.547H193.984V286.477C193.917 286.612 193.836 286.734 193.742 286.844C193.648 286.953 193.542 287.047 193.422 287.125C193.281 287.214 193.117 287.281 192.93 287.328C192.747 287.375 192.542 287.398 192.312 287.398C192.057 287.398 191.841 287.367 191.664 287.305C191.487 287.242 191.344 287.138 191.234 286.992C191.125 286.852 191.044 286.664 190.992 286.43C190.945 286.195 190.922 285.906 190.922 285.562V280.547H188.75V285.547C188.75 286.188 188.82 286.737 188.961 287.195C189.107 287.648 189.31 288.021 189.57 288.312C189.831 288.609 190.143 288.826 190.508 288.961C190.872 289.096 191.273 289.164 191.711 289.164C192.19 289.164 192.63 289.044 193.031 288.805C193.438 288.565 193.784 288.234 194.07 287.812L194.195 289ZM199.641 280.547H197.773V289H199.75V282.672C199.776 282.604 199.805 282.542 199.836 282.484C199.867 282.427 199.904 282.378 199.945 282.336C200.003 282.279 200.068 282.234 200.141 282.203C200.214 282.172 200.297 282.156 200.391 282.156C200.474 282.156 200.552 282.169 200.625 282.195C200.698 282.216 200.763 282.255 200.82 282.312C200.872 282.37 200.914 282.451 200.945 282.555C200.977 282.659 200.992 282.792 200.992 282.953V289H202.906V282.766C202.906 282.703 202.906 282.654 202.906 282.617C202.906 282.581 202.906 282.557 202.906 282.547C202.932 282.49 202.964 282.44 203 282.398C203.036 282.352 203.078 282.31 203.125 282.273C203.182 282.237 203.242 282.208 203.305 282.188C203.372 282.167 203.448 282.156 203.531 282.156C203.609 282.156 203.685 282.169 203.758 282.195C203.836 282.216 203.904 282.255 203.961 282.312C204.018 282.375 204.062 282.458 204.094 282.562C204.13 282.667 204.148 282.799 204.148 282.961V289H206.125V282.969C206.125 282.5 206.078 282.104 205.984 281.781C205.896 281.453 205.771 281.185 205.609 280.977C205.443 280.773 205.247 280.625 205.023 280.531C204.805 280.438 204.568 280.391 204.312 280.391C204.109 280.391 203.922 280.417 203.75 280.469C203.578 280.521 203.424 280.594 203.289 280.688C203.18 280.76 203.078 280.849 202.984 280.953C202.896 281.052 202.815 281.164 202.742 281.289C202.695 281.159 202.638 281.044 202.57 280.945C202.508 280.841 202.432 280.753 202.344 280.68C202.229 280.581 202.094 280.508 201.938 280.461C201.781 280.414 201.604 280.391 201.406 280.391C201 280.391 200.654 280.497 200.367 280.711C200.086 280.919 199.865 281.206 199.703 281.57L199.641 280.547ZM207.898 289H210.078V282.992C210.151 282.878 210.232 282.773 210.32 282.68C210.409 282.586 210.508 282.505 210.617 282.438C210.753 282.344 210.906 282.273 211.078 282.227C211.255 282.18 211.448 282.156 211.656 282.156C211.906 282.156 212.13 282.182 212.328 282.234C212.526 282.281 212.695 282.367 212.836 282.492C212.977 282.617 213.083 282.789 213.156 283.008C213.234 283.221 213.273 283.495 213.273 283.828V289H215.445V283.797C215.445 283.182 215.372 282.661 215.227 282.234C215.086 281.802 214.888 281.448 214.633 281.172C214.372 280.901 214.065 280.703 213.711 280.578C213.357 280.453 212.966 280.391 212.539 280.391C212.206 280.391 211.891 280.438 211.594 280.531C211.297 280.625 211.023 280.76 210.773 280.938C210.628 281.042 210.49 281.159 210.359 281.289C210.229 281.419 210.109 281.562 210 281.719L209.867 280.547H207.898V289ZM220.117 281.289C220.117 281.69 220.253 282.026 220.523 282.297C220.794 282.568 221.161 282.703 221.625 282.703C222.083 282.703 222.448 282.57 222.719 282.305C222.995 282.034 223.133 281.695 223.133 281.289C223.133 280.883 222.997 280.542 222.727 280.266C222.461 279.99 222.094 279.852 221.625 279.852C221.151 279.852 220.781 279.992 220.516 280.273C220.25 280.549 220.117 280.888 220.117 281.289ZM222.547 288.828L222.555 287.102H220.516V288.93C220.516 289.503 220.448 289.992 220.312 290.398C220.177 290.81 220.01 291.203 219.812 291.578L220.961 292.172C221.43 291.755 221.81 291.242 222.102 290.633C222.398 290.023 222.547 289.422 222.547 288.828Z" fill="#4A5568"/>
<rect x="11.5" y="321.5" width="113" height="36" rx="8.5" fill="#9F7AEA" stroke="#553C9A" stroke-width="3"/>
<rect x="11.5" y="53.5" width="577" height="36" rx="8.5" fill="#9F7AEA" stroke="#553C9A" stroke-width="3"/>
<rect x="11.5" y="102.5" width="577" height="36" rx="8.5" fill="#9F7AEA" stroke="#553C9A" stroke-width="3"/>
<rect x="11.5" y="151.5" width="577" height="36" rx="8.5" fill="#9F7AEA" stroke="#553C9A" stroke-width="3"/>
<rect x="11.5" y="200.5" width="577" height="36" rx="8.5" fill="#9F7AEA" stroke="#553C9A" stroke-width="3"/>
<rect x="137.5" y="321.5" width="113" height="36" rx="8.5" fill="#9F7AEA" stroke="#553C9A" stroke-width="3"/>
<rect x="263.5" y="321.5" width="113" height="36" rx="8.5" fill="#9F7AEA" stroke="#553C9A" stroke-width="3"/>
<rect x="389.5" y="321.5" width="113" height="36" rx="8.5" fill="#9F7AEA" stroke="#553C9A" stroke-width="3"/>
<path d="M28.1989 333.364V340.71C28.1989 342.04 27.267 343 25.8352 343C24.4091 343 23.4716 342.04 23.4716 340.71V333.364H21.0114V340.92C21.0114 343.466 22.9318 345.165 25.8352 345.165C28.7273 345.165 30.6591 343.466 30.6591 340.92V333.364H28.1989ZM32.6378 345H35.0582V339.761C35.0582 338.795 35.6719 338.153 36.4787 338.153C37.2741 338.153 37.8082 338.699 37.8082 339.557V345H40.1548V339.67C40.1548 338.767 40.6719 338.153 41.5526 338.153C42.3253 338.153 42.9048 338.636 42.9048 339.608V345H45.3196V339.131C45.3196 337.239 44.1946 336.159 42.5696 336.159C41.2912 336.159 40.2969 336.812 39.9389 337.812H39.848C39.5696 336.801 38.6776 336.159 37.4787 336.159C36.3026 336.159 35.4105 336.784 35.0469 337.812H34.9446V336.273H32.6378V345Z" fill="#553C9A"/>
<path d="M28.1989 65.3636V72.7102C28.1989 74.0398 27.267 75 25.8352 75C24.4091 75 23.4716 74.0398 23.4716 72.7102V65.3636H21.0114V72.9205C21.0114 75.4659 22.9318 77.1648 25.8352 77.1648C28.7273 77.1648 30.6591 75.4659 30.6591 72.9205V65.3636H28.1989ZM32.6378 77H35.0582V71.7614C35.0582 70.7955 35.6719 70.1534 36.4787 70.1534C37.2741 70.1534 37.8082 70.6989 37.8082 71.5568V77H40.1548V71.6705C40.1548 70.767 40.6719 70.1534 41.5526 70.1534C42.3253 70.1534 42.9048 70.6364 42.9048 71.608V77H45.3196V71.1307C45.3196 69.2386 44.1946 68.1591 42.5696 68.1591C41.2912 68.1591 40.2969 68.8125 39.9389 69.8125H39.848C39.5696 68.8011 38.6776 68.1591 37.4787 68.1591C36.3026 68.1591 35.4105 68.7841 35.0469 69.8125H34.9446V68.2727H32.6378V77Z" fill="#553C9A"/>
<path d="M25.1364 126C28.6818 126 30.8295 123.807 30.8295 120.17C30.8295 116.545 28.6818 114.364 25.1705 114.364H21.0114V126H25.1364ZM23.4716 123.892V116.472H25.0398C27.2216 116.472 28.375 117.585 28.375 120.17C28.375 122.767 27.2216 123.892 25.0341 123.892H23.4716ZM36.5497 126.17C39.1974 126.17 40.8452 124.358 40.8452 121.67C40.8452 118.966 39.1974 117.159 36.5497 117.159C33.902 117.159 32.2543 118.966 32.2543 121.67C32.2543 124.358 33.902 126.17 36.5497 126.17ZM36.5611 124.295C35.3395 124.295 34.7145 123.176 34.7145 121.653C34.7145 120.131 35.3395 119.006 36.5611 119.006C37.7599 119.006 38.3849 120.131 38.3849 121.653C38.3849 123.176 37.7599 124.295 36.5611 124.295ZM42.419 126H44.8395V117.273H42.419V126ZM43.6349 116.148C44.3565 116.148 44.9474 115.597 44.9474 114.92C44.9474 114.25 44.3565 113.699 43.6349 113.699C42.919 113.699 42.3281 114.25 42.3281 114.92C42.3281 115.597 42.919 116.148 43.6349 116.148ZM54.0398 119.761C53.8239 118.153 52.5284 117.159 50.3239 117.159C48.0909 117.159 46.6193 118.193 46.625 119.875C46.6193 121.182 47.4432 122.028 49.1477 122.369L50.6591 122.67C51.4205 122.824 51.767 123.102 51.7784 123.54C51.767 124.057 51.2045 124.426 50.358 124.426C49.4943 124.426 48.9205 124.057 48.7727 123.347L46.392 123.472C46.6193 125.142 48.0398 126.17 50.3523 126.17C52.6136 126.17 54.233 125.017 54.2386 123.295C54.233 122.034 53.4091 121.278 51.7159 120.932L50.1364 120.614C49.3239 120.438 49.0227 120.159 49.0284 119.739C49.0227 119.216 49.6136 118.875 50.3636 118.875C51.2045 118.875 51.7045 119.335 51.8239 119.898L54.0398 119.761Z" fill="#553C9A"/>
<path d="M20.5682 165.392H24.1307V175H26.5625V165.392H30.125V163.364H20.5682V165.392ZM30.7472 175H33.1676V170.062C33.1676 168.989 33.9517 168.25 35.0199 168.25C35.3551 168.25 35.8153 168.307 36.0426 168.381V166.233C35.8267 166.182 35.5256 166.148 35.2812 166.148C34.304 166.148 33.5028 166.716 33.1847 167.795H33.0938V166.273H30.7472V175ZM40.8651 175.17C43.0241 175.17 44.4787 174.119 44.8196 172.5L42.581 172.352C42.3366 173.017 41.7116 173.364 40.9048 173.364C39.6946 173.364 38.9276 172.562 38.9276 171.261V171.256H44.8707V170.591C44.8707 167.625 43.0753 166.159 40.7685 166.159C38.2003 166.159 36.5355 167.983 36.5355 170.676C36.5355 173.443 38.1776 175.17 40.8651 175.17ZM39.5696 165.239L40.7116 163.852L41.8537 165.239H43.9162V165.159L41.6094 162.659H39.8082L37.5071 165.159V165.239H39.5696ZM38.9276 169.756C38.9787 168.761 39.7344 167.966 40.8082 167.966C41.8594 167.966 42.5866 168.716 42.5923 169.756H38.9276ZM53.7116 168.761C53.4957 167.153 52.2003 166.159 49.9957 166.159C47.7628 166.159 46.2912 167.193 46.2969 168.875C46.2912 170.182 47.1151 171.028 48.8196 171.369L50.331 171.67C51.0923 171.824 51.4389 172.102 51.4503 172.54C51.4389 173.057 50.8764 173.426 50.0298 173.426C49.1662 173.426 48.5923 173.057 48.4446 172.347L46.0639 172.472C46.2912 174.142 47.7116 175.17 50.0241 175.17C52.2855 175.17 53.9048 174.017 53.9105 172.295C53.9048 171.034 53.081 170.278 51.3878 169.932L49.8082 169.614C48.9957 169.438 48.6946 169.159 48.7003 168.739C48.6946 168.216 49.2855 167.875 50.0355 167.875C50.8764 167.875 51.3764 168.335 51.4957 168.898L53.7116 168.761Z" fill="#553C9A"/>
<path d="M31.7045 218.182C31.7045 214.375 29.3409 212.205 26.2557 212.205C23.1534 212.205 20.8068 214.375 20.8068 218.182C20.8068 221.972 23.1534 224.159 26.2557 224.159C26.983 224.159 27.6705 224.04 28.2955 223.801L29.233 224.955H31.5284L29.8636 222.864C31 221.847 31.7045 220.256 31.7045 218.182ZM25.4034 219.955L26.892 221.92C26.6932 221.96 26.4773 221.983 26.2557 221.983C24.4659 221.983 23.3011 220.648 23.3011 218.182C23.3011 215.716 24.4659 214.381 26.2557 214.381C28.0398 214.381 29.2102 215.716 29.2102 218.182C29.2102 219.449 28.8977 220.42 28.358 221.062L27.4943 219.955H25.4034ZM39.0781 220.284C39.0838 221.455 38.2827 222.068 37.4134 222.068C36.4986 222.068 35.9077 221.426 35.902 220.398V215.273H33.4815V220.83C33.4872 222.869 34.6804 224.114 36.4361 224.114C37.7486 224.114 38.6918 223.438 39.0838 222.415H39.1747V224H41.4986V215.273H39.0781V220.284ZM45.9233 224.165C47.2131 224.165 48.0483 223.602 48.4744 222.79H48.5426V224H50.8381V218.114C50.8381 216.034 49.0767 215.159 47.1335 215.159C45.0426 215.159 43.6676 216.159 43.3324 217.75L45.571 217.932C45.7358 217.352 46.2528 216.926 47.1222 216.926C47.946 216.926 48.4176 217.341 48.4176 218.057V218.091C48.4176 218.653 47.821 218.727 46.304 218.875C44.5767 219.034 43.0256 219.614 43.0256 221.562C43.0256 223.29 44.2585 224.165 45.9233 224.165ZM46.6165 222.494C45.8722 222.494 45.3381 222.148 45.3381 221.483C45.3381 220.801 45.9006 220.466 46.7528 220.347C47.2812 220.273 48.1449 220.148 48.4347 219.955V220.881C48.4347 221.795 47.679 222.494 46.6165 222.494ZM57.358 215.273H55.7159V213.182H53.2955V215.273H52.1023V217.091H53.2955V221.636C53.2841 223.347 54.4489 224.193 56.2045 224.119C56.8295 224.097 57.2727 223.972 57.517 223.892L57.1364 222.091C57.017 222.114 56.7614 222.17 56.5341 222.17C56.0511 222.17 55.7159 221.989 55.7159 221.318V217.091H57.358V215.273ZM58.9347 224H61.3551V219.062C61.3551 217.989 62.1392 217.25 63.2074 217.25C63.5426 217.25 64.0028 217.307 64.2301 217.381V215.233C64.0142 215.182 63.7131 215.148 63.4688 215.148C62.4915 215.148 61.6903 215.716 61.3722 216.795H61.2812V215.273H58.9347V224ZM69.0185 224.17C71.6662 224.17 73.3139 222.358 73.3139 219.67C73.3139 216.966 71.6662 215.159 69.0185 215.159C66.3707 215.159 64.723 216.966 64.723 219.67C64.723 222.358 66.3707 224.17 69.0185 224.17ZM69.0298 222.295C67.8082 222.295 67.1832 221.176 67.1832 219.653C67.1832 218.131 67.8082 217.006 69.0298 217.006C70.2287 217.006 70.8537 218.131 70.8537 219.653C70.8537 221.176 70.2287 222.295 69.0298 222.295Z" fill="#553C9A"/>
<path d="M151.136 345C154.682 345 156.83 342.807 156.83 339.17C156.83 335.545 154.682 333.364 151.17 333.364H147.011V345H151.136ZM149.472 342.892V335.472H151.04C153.222 335.472 154.375 336.585 154.375 339.17C154.375 341.767 153.222 342.892 151.034 342.892H149.472ZM162.55 345.17C165.197 345.17 166.845 343.358 166.845 340.67C166.845 337.966 165.197 336.159 162.55 336.159C159.902 336.159 158.254 337.966 158.254 340.67C158.254 343.358 159.902 345.17 162.55 345.17ZM162.561 343.295C161.339 343.295 160.714 342.176 160.714 340.653C160.714 339.131 161.339 338.006 162.561 338.006C163.76 338.006 164.385 339.131 164.385 340.653C164.385 342.176 163.76 343.295 162.561 343.295ZM168.419 345H170.839V336.273H168.419V345ZM169.635 335.148C170.357 335.148 170.947 334.597 170.947 333.92C170.947 333.25 170.357 332.699 169.635 332.699C168.919 332.699 168.328 333.25 168.328 333.92C168.328 334.597 168.919 335.148 169.635 335.148ZM180.04 338.761C179.824 337.153 178.528 336.159 176.324 336.159C174.091 336.159 172.619 337.193 172.625 338.875C172.619 340.182 173.443 341.028 175.148 341.369L176.659 341.67C177.42 341.824 177.767 342.102 177.778 342.54C177.767 343.057 177.205 343.426 176.358 343.426C175.494 343.426 174.92 343.057 174.773 342.347L172.392 342.472C172.619 344.142 174.04 345.17 176.352 345.17C178.614 345.17 180.233 344.017 180.239 342.295C180.233 341.034 179.409 340.278 177.716 339.932L176.136 339.614C175.324 339.438 175.023 339.159 175.028 338.739C175.023 338.216 175.614 337.875 176.364 337.875C177.205 337.875 177.705 338.335 177.824 338.898L180.04 338.761Z" fill="#553C9A"/>
<path d="M272.568 335.392H276.131V345H278.562V335.392H282.125V333.364H272.568V335.392ZM282.747 345H285.168V340.062C285.168 338.989 285.952 338.25 287.02 338.25C287.355 338.25 287.815 338.307 288.043 338.381V336.233C287.827 336.182 287.526 336.148 287.281 336.148C286.304 336.148 285.503 336.716 285.185 337.795H285.094V336.273H282.747V345ZM292.865 345.17C295.024 345.17 296.479 344.119 296.82 342.5L294.581 342.352C294.337 343.017 293.712 343.364 292.905 343.364C291.695 343.364 290.928 342.562 290.928 341.261V341.256H296.871V340.591C296.871 337.625 295.075 336.159 292.768 336.159C290.2 336.159 288.536 337.983 288.536 340.676C288.536 343.443 290.178 345.17 292.865 345.17ZM291.57 335.239L292.712 333.852L293.854 335.239H295.916V335.159L293.609 332.659H291.808L289.507 335.159V335.239H291.57ZM290.928 339.756C290.979 338.761 291.734 337.966 292.808 337.966C293.859 337.966 294.587 338.716 294.592 339.756H290.928ZM305.712 338.761C305.496 337.153 304.2 336.159 301.996 336.159C299.763 336.159 298.291 337.193 298.297 338.875C298.291 340.182 299.115 341.028 300.82 341.369L302.331 341.67C303.092 341.824 303.439 342.102 303.45 342.54C303.439 343.057 302.876 343.426 302.03 343.426C301.166 343.426 300.592 343.057 300.445 342.347L298.064 342.472C298.291 344.142 299.712 345.17 302.024 345.17C304.286 345.17 305.905 344.017 305.911 342.295C305.905 341.034 305.081 340.278 303.388 339.932L301.808 339.614C300.996 339.438 300.695 339.159 300.7 338.739C300.695 338.216 301.286 337.875 302.036 337.875C302.876 337.875 303.376 338.335 303.496 338.898L305.712 338.761Z" fill="#553C9A"/>
<path d="M409.705 339.182C409.705 335.375 407.341 333.205 404.256 333.205C401.153 333.205 398.807 335.375 398.807 339.182C398.807 342.972 401.153 345.159 404.256 345.159C404.983 345.159 405.67 345.04 406.295 344.801L407.233 345.955H409.528L407.864 343.864C409 342.847 409.705 341.256 409.705 339.182ZM403.403 340.955L404.892 342.92C404.693 342.96 404.477 342.983 404.256 342.983C402.466 342.983 401.301 341.648 401.301 339.182C401.301 336.716 402.466 335.381 404.256 335.381C406.04 335.381 407.21 336.716 407.21 339.182C407.21 340.449 406.898 341.42 406.358 342.062L405.494 340.955H403.403ZM417.078 341.284C417.084 342.455 416.283 343.068 415.413 343.068C414.499 343.068 413.908 342.426 413.902 341.398V336.273H411.482V341.83C411.487 343.869 412.68 345.114 414.436 345.114C415.749 345.114 416.692 344.438 417.084 343.415H417.175V345H419.499V336.273H417.078V341.284ZM423.923 345.165C425.213 345.165 426.048 344.602 426.474 343.79H426.543V345H428.838V339.114C428.838 337.034 427.077 336.159 425.134 336.159C423.043 336.159 421.668 337.159 421.332 338.75L423.571 338.932C423.736 338.352 424.253 337.926 425.122 337.926C425.946 337.926 426.418 338.341 426.418 339.057V339.091C426.418 339.653 425.821 339.727 424.304 339.875C422.577 340.034 421.026 340.614 421.026 342.562C421.026 344.29 422.259 345.165 423.923 345.165ZM424.616 343.494C423.872 343.494 423.338 343.148 423.338 342.483C423.338 341.801 423.901 341.466 424.753 341.347C425.281 341.273 426.145 341.148 426.435 340.955V341.881C426.435 342.795 425.679 343.494 424.616 343.494ZM435.358 336.273H433.716V334.182H431.295V336.273H430.102V338.091H431.295V342.636C431.284 344.347 432.449 345.193 434.205 345.119C434.83 345.097 435.273 344.972 435.517 344.892L435.136 343.091C435.017 343.114 434.761 343.17 434.534 343.17C434.051 343.17 433.716 342.989 433.716 342.318V338.091H435.358V336.273ZM436.935 345H439.355V340.062C439.355 338.989 440.139 338.25 441.207 338.25C441.543 338.25 442.003 338.307 442.23 338.381V336.233C442.014 336.182 441.713 336.148 441.469 336.148C440.491 336.148 439.69 336.716 439.372 337.795H439.281V336.273H436.935V345ZM447.018 345.17C449.666 345.17 451.314 343.358 451.314 340.67C451.314 337.966 449.666 336.159 447.018 336.159C444.371 336.159 442.723 337.966 442.723 340.67C442.723 343.358 444.371 345.17 447.018 345.17ZM447.03 343.295C445.808 343.295 445.183 342.176 445.183 340.653C445.183 339.131 445.808 338.006 447.03 338.006C448.229 338.006 448.854 339.131 448.854 340.653C448.854 342.176 448.229 343.295 447.03 343.295Z" fill="#553C9A"/>
</svg>
