<svg width="600" height="291" viewBox="0 0 600 291" fill="none" xmlns="http://www.w3.org/2000/svg">
<rect y="41" width="317" height="250" rx="10" fill="#E2E8F0"/>
<rect width="231" height="29" rx="10" fill="#E2E8F0"/>
<path d="M13.8438 19.6719L13.8359 15.1875H9.76562V16.8281H11.6484L11.6406 18.8906C11.5833 18.9583 11.4974 19.0234 11.3828 19.0859C11.2734 19.1432 11.1458 19.1953 11 19.2422C10.8542 19.2891 10.6979 19.3255 10.5312 19.3516C10.3646 19.3776 10.1953 19.3906 10.0234 19.3906C9.74219 19.3854 9.48958 19.3411 9.26562 19.2578C9.04688 19.1693 8.85417 19.0417 8.6875 18.875C8.58854 18.776 8.4974 18.6641 8.41406 18.5391C8.33594 18.4089 8.26562 18.2682 8.20312 18.1172C8.10417 17.8568 8.02604 17.5573 7.96875 17.2188C7.91667 16.8802 7.89062 16.5052 7.89062 16.0938L7.89062 14.5312C7.89062 14.2031 7.90885 13.8984 7.94531 13.6172C7.98698 13.3359 8.04427 13.0807 8.11719 12.8516C8.21094 12.5547 8.32812 12.2969 8.46875 12.0781C8.61458 11.8594 8.77604 11.6823 8.95312 11.5469C9.08854 11.4479 9.23438 11.3724 9.39062 11.3203C9.54688 11.2682 9.70833 11.2422 9.875 11.2422C10.1823 11.2422 10.4453 11.2839 10.6641 11.3672C10.888 11.4453 11.0729 11.5651 11.2188 11.7266C11.349 11.8724 11.4505 12.0521 11.5234 12.2656C11.6016 12.4792 11.6589 12.724 11.6953 13H13.8359C13.7786 12.4531 13.6562 11.9609 13.4688 11.5234C13.2865 11.0859 13.0312 10.7135 12.7031 10.4062C12.375 10.1042 11.9714 9.8724 11.4922 9.71094C11.0182 9.54948 10.4609 9.46875 9.82031 9.46875C9.40365 9.46875 9.00781 9.52604 8.63281 9.64062C8.25781 9.75521 7.91146 9.92448 7.59375 10.1484C7.32292 10.3464 7.07292 10.5807 6.84375 10.8516C6.61979 11.1224 6.42188 11.4271 6.25 11.7656C6.06771 12.1458 5.92708 12.5703 5.82812 13.0391C5.72917 13.5026 5.67969 14.0052 5.67969 14.5469V16.0938C5.67969 16.6615 5.72917 17.1875 5.82812 17.6719C5.93229 18.1562 6.08333 18.5911 6.28125 18.9766C6.45312 19.3255 6.66146 19.6354 6.90625 19.9062C7.15625 20.1771 7.43229 20.4062 7.73437 20.5938C8.04167 20.776 8.3776 20.9141 8.74219 21.0078C9.11198 21.1068 9.50521 21.1562 9.92188 21.1562C10.401 21.1562 10.849 21.112 11.2656 21.0234C11.6823 20.9349 12.0599 20.8177 12.3984 20.6719C12.7318 20.5312 13.0208 20.3724 13.2656 20.1953C13.5104 20.0182 13.7031 19.8438 13.8438 19.6719ZM21.7812 12.3906C21.2135 12.3906 20.6901 12.5286 20.2109 12.8047C19.7318 13.0755 19.3203 13.4505 18.9766 13.9297L18.9609 13.7422L18.875 12.5469H16.8516V21H19.0234V15.9219C19.1224 15.6823 19.2474 15.474 19.3984 15.2969C19.5495 15.1198 19.7318 14.974 19.9453 14.8594C20.1224 14.7604 20.3229 14.6875 20.5469 14.6406C20.776 14.5885 21.0312 14.5625 21.3125 14.5625C21.5833 14.5625 21.8672 14.5807 22.1641 14.6172C22.4661 14.6484 22.7604 14.6979 23.0469 14.7656L23.3672 12.6016C23.1953 12.5495 22.9688 12.5026 22.6875 12.4609C22.4115 12.4141 22.1094 12.3906 21.7812 12.3906ZM25.8984 12.5469V14.3203H28.3047V19.2344H25.8984V21H32.7891V19.2344H30.5V12.5469H25.8984ZM28.1484 10.3828C28.1484 10.5495 28.1771 10.7057 28.2344 10.8516C28.2969 10.9922 28.3828 11.112 28.4922 11.2109C28.6016 11.3151 28.7318 11.3958 28.8828 11.4531C29.0391 11.5104 29.2109 11.5391 29.3984 11.5391C29.7839 11.5391 30.0885 11.4323 30.3125 11.2188C30.5417 11 30.6562 10.7214 30.6562 10.3828C30.6562 10.0443 30.5417 9.76823 30.3125 9.55469C30.0885 9.33594 29.7839 9.22656 29.3984 9.22656C29.2109 9.22656 29.0391 9.25521 28.8828 9.3125C28.7318 9.36979 28.6016 9.44792 28.4922 9.54688C28.3828 9.65104 28.2969 9.77604 28.2344 9.92188C28.1771 10.0625 28.1484 10.2161 28.1484 10.3828ZM34.7031 16.7109V16.875C34.7031 17.4896 34.7786 18.0599 34.9297 18.5859C35.0807 19.1068 35.2995 19.5573 35.5859 19.9375C35.8672 20.3177 36.2109 20.6172 36.6172 20.8359C37.0286 21.0495 37.4922 21.1563 38.0078 21.1563C38.4818 21.1563 38.8984 21.0651 39.2578 20.8828C39.6172 20.7005 39.9297 20.4453 40.1953 20.1172L40.3047 21H42.2656V9H40.0859V13.3047C39.8255 13.013 39.526 12.7891 39.1875 12.6328C38.8542 12.4714 38.4661 12.3906 38.0234 12.3906C37.4974 12.3906 37.0286 12.4948 36.6172 12.7031C36.2109 12.9115 35.8646 13.2057 35.5781 13.5859C35.2917 13.9661 35.0729 14.4219 34.9219 14.9531C34.776 15.4844 34.7031 16.0703 34.7031 16.7109ZM36.875 16.875V16.7109C36.875 16.3568 36.9062 16.026 36.9688 15.7188C37.0312 15.4063 37.1302 15.1328 37.2656 14.8984C37.401 14.6693 37.5755 14.4896 37.7891 14.3594C38.0078 14.224 38.2708 14.1563 38.5781 14.1563C38.9479 14.1563 39.2552 14.237 39.5 14.3984C39.7448 14.5547 39.9401 14.776 40.0859 15.0625V18.4844C39.9401 18.7656 39.7422 18.987 39.4922 19.1484C39.2474 19.3099 38.9375 19.3906 38.5625 19.3906C38.2552 19.3906 37.9948 19.3255 37.7812 19.1953C37.5677 19.0651 37.3932 18.8854 37.2578 18.6562C37.1224 18.4323 37.0234 18.1693 36.9609 17.8672C36.9036 17.5599 36.875 17.2292 36.875 16.875ZM57.8906 19.4219C57.5417 19.4219 57.2526 19.3516 57.0234 19.2109C56.7995 19.0703 56.6224 18.8828 56.4922 18.6484C56.3568 18.4193 56.263 18.1536 56.2109 17.8516C56.1589 17.5443 56.1328 17.2266 56.1328 16.8984V16.6641C56.1328 16.3411 56.1589 16.0286 56.2109 15.7266C56.2682 15.4245 56.3646 15.1563 56.5 14.9219C56.6302 14.6875 56.8073 14.5 57.0312 14.3594C57.2552 14.2188 57.5391 14.1484 57.8828 14.1484C58.1172 14.1484 58.3333 14.1901 58.5312 14.2734C58.7292 14.3516 58.8984 14.4583 59.0391 14.5938C59.1797 14.7292 59.2865 14.8906 59.3594 15.0781C59.4323 15.2656 59.4635 15.4635 59.4531 15.6719H61.5C61.5104 15.1719 61.4271 14.7214 61.25 14.3203C61.0729 13.9141 60.8255 13.5677 60.5078 13.2813C60.1849 13 59.8021 12.7813 59.3594 12.625C58.9167 12.4688 58.4349 12.3906 57.9141 12.3906C57.263 12.3906 56.6901 12.5026 56.1953 12.7266C55.7057 12.9505 55.2943 13.2552 54.9609 13.6406C54.6276 14.026 54.3776 14.4792 54.2109 15C54.0443 15.5156 53.9609 16.0703 53.9609 16.6641V16.8984C53.9609 17.4922 54.0443 18.0495 54.2109 18.5703C54.3828 19.0859 54.6354 19.5365 54.9688 19.9219C55.2969 20.3073 55.7083 20.612 56.2031 20.8359C56.6979 21.0547 57.2734 21.1641 57.9297 21.1641C58.4141 21.1641 58.8724 21.0885 59.3047 20.9375C59.7422 20.7813 60.125 20.5677 60.4531 20.2969C60.7812 20.026 61.0391 19.7031 61.2266 19.3281C61.4193 18.9531 61.5104 18.5469 61.5 18.1094H59.4531C59.4635 18.3073 59.4271 18.487 59.3438 18.6484C59.2656 18.8099 59.1536 18.9479 59.0078 19.0625C58.862 19.1771 58.6927 19.2656 58.5 19.3281C58.3073 19.3906 58.1042 19.4219 57.8906 19.4219ZM63.4609 16.6953V16.8594C63.4609 17.4792 63.5495 18.0521 63.7266 18.5781C63.9036 19.099 64.1641 19.5521 64.5078 19.9375C64.8464 20.3229 65.263 20.625 65.7578 20.8438C66.2578 21.0573 66.8255 21.1641 67.4609 21.1641C68.0911 21.1641 68.6536 21.0573 69.1484 20.8438C69.6432 20.625 70.0599 20.3229 70.3984 19.9375C70.737 19.5521 70.9948 19.099 71.1719 18.5781C71.349 18.0521 71.4375 17.4792 71.4375 16.8594V16.6953C71.4375 16.0807 71.349 15.513 71.1719 14.9922C70.9948 14.4661 70.737 14.0104 70.3984 13.625C70.0547 13.2396 69.6354 12.9375 69.1406 12.7188C68.6458 12.5 68.0807 12.3906 67.4453 12.3906C66.8099 12.3906 66.2448 12.5 65.75 12.7188C65.2604 12.9375 64.8464 13.2396 64.5078 13.625C64.1641 14.0104 63.9036 14.4661 63.7266 14.9922C63.5495 15.513 63.4609 16.0807 63.4609 16.6953ZM65.6328 16.8594V16.6953C65.6328 16.3516 65.6667 16.026 65.7344 15.7188C65.8021 15.4115 65.9089 15.1406 66.0547 14.9063C66.2005 14.6719 66.388 14.487 66.6172 14.3516C66.8464 14.2161 67.1224 14.1484 67.4453 14.1484C67.7734 14.1484 68.0521 14.2161 68.2812 14.3516C68.5104 14.487 68.6979 14.6719 68.8438 14.9063C68.9844 15.1406 69.0885 15.4115 69.1562 15.7188C69.224 16.026 69.2578 16.3516 69.2578 16.6953V16.8594C69.2578 17.2135 69.224 17.5469 69.1562 17.8594C69.0885 18.1667 68.9844 18.4349 68.8438 18.6641C68.6979 18.8984 68.5104 19.0833 68.2812 19.2188C68.0521 19.3542 67.7786 19.4219 67.4609 19.4219C67.1328 19.4219 66.8516 19.3542 66.6172 19.2188C66.388 19.0833 66.2005 18.8984 66.0547 18.6641C65.9089 18.4349 65.8021 18.1667 65.7344 17.8594C65.6667 17.5469 65.6328 17.2135 65.6328 16.8594ZM74.7188 12.5469H72.8516V21H74.8281V14.6719C74.8542 14.6042 74.8828 14.5417 74.9141 14.4844C74.9453 14.4271 74.9818 14.3776 75.0234 14.3359C75.0807 14.2786 75.1458 14.2344 75.2188 14.2031C75.2917 14.1719 75.375 14.1563 75.4688 14.1563C75.5521 14.1563 75.6302 14.1693 75.7031 14.1953C75.776 14.2161 75.8411 14.2552 75.8984 14.3125C75.9505 14.3698 75.9922 14.4505 76.0234 14.5547C76.0547 14.6589 76.0703 14.7917 76.0703 14.9531V21H77.9844V14.7656C77.9844 14.7031 77.9844 14.6536 77.9844 14.6172C77.9844 14.5807 77.9844 14.5573 77.9844 14.5469C78.0104 14.4896 78.0417 14.4401 78.0781 14.3984C78.1146 14.3516 78.1562 14.3099 78.2031 14.2734C78.2604 14.237 78.3203 14.2083 78.3828 14.1875C78.4505 14.1667 78.526 14.1563 78.6094 14.1563C78.6875 14.1563 78.763 14.1693 78.8359 14.1953C78.9141 14.2161 78.9818 14.2552 79.0391 14.3125C79.0964 14.375 79.1406 14.4583 79.1719 14.5625C79.2083 14.6667 79.2266 14.7995 79.2266 14.9609V21H81.2031V14.9688C81.2031 14.5 81.1562 14.1042 81.0625 13.7813C80.974 13.4531 80.849 13.1849 80.6875 12.9766C80.5208 12.7734 80.3255 12.625 80.1016 12.5313C79.8828 12.4375 79.6458 12.3906 79.3906 12.3906C79.1875 12.3906 79 12.4167 78.8281 12.4688C78.6562 12.5208 78.5026 12.5938 78.3672 12.6875C78.2578 12.7604 78.1562 12.849 78.0625 12.9531C77.974 13.0521 77.8932 13.1641 77.8203 13.2891C77.7734 13.1589 77.7161 13.0443 77.6484 12.9453C77.5859 12.8411 77.5104 12.7526 77.4219 12.6797C77.3073 12.5807 77.1719 12.5078 77.0156 12.4609C76.8594 12.4141 76.6823 12.3906 76.4844 12.3906C76.0781 12.3906 75.7318 12.4974 75.4453 12.7109C75.1641 12.9193 74.9427 13.2057 74.7812 13.5703L74.7188 12.5469ZM95.2734 21H97.3125L100.523 12.5469H98.2578L96.4062 18.5078L96.2891 19.1016L96.1719 18.5078L94.3125 12.5469H92.0469L95.2734 21ZM107.477 21H109.68V20.8672C109.57 20.6536 109.487 20.3984 109.43 20.1016C109.372 19.8047 109.344 19.4297 109.344 18.9766V15.3516C109.344 14.862 109.253 14.4323 109.07 14.0625C108.888 13.6875 108.635 13.3776 108.312 13.1328C107.99 12.888 107.607 12.7031 107.164 12.5781C106.727 12.4531 106.253 12.3906 105.742 12.3906C105.174 12.3906 104.669 12.4635 104.227 12.6094C103.789 12.75 103.419 12.9427 103.117 13.1875C102.81 13.4323 102.576 13.7161 102.414 14.0391C102.258 14.362 102.18 14.7031 102.18 15.0625H104.352C104.352 14.9115 104.372 14.7734 104.414 14.6484C104.461 14.5234 104.531 14.4167 104.625 14.3281C104.729 14.2292 104.865 14.1536 105.031 14.1016C105.198 14.0443 105.396 14.0156 105.625 14.0156C105.885 14.0156 106.112 14.0495 106.305 14.1172C106.503 14.1797 106.667 14.2708 106.797 14.3906C106.922 14.5052 107.016 14.6432 107.078 14.8047C107.141 14.9609 107.172 15.138 107.172 15.3359V15.8359H105.961C105.336 15.8359 104.781 15.8932 104.297 16.0078C103.818 16.1172 103.414 16.2786 103.086 16.4922C102.721 16.7266 102.448 17.026 102.266 17.3906C102.083 17.75 101.992 18.1641 101.992 18.6328C101.992 18.9974 102.065 19.3359 102.211 19.6484C102.357 19.9557 102.56 20.2214 102.82 20.4453C103.081 20.6693 103.391 20.8438 103.75 20.9688C104.115 21.0938 104.513 21.1563 104.945 21.1563C105.211 21.1563 105.458 21.1302 105.688 21.0781C105.917 21.0313 106.128 20.9635 106.32 20.875C106.508 20.7917 106.68 20.6927 106.836 20.5781C106.992 20.4635 107.13 20.3411 107.25 20.2109C107.276 20.362 107.307 20.5052 107.344 20.6406C107.38 20.776 107.424 20.8958 107.477 21ZM105.406 19.4766C105.203 19.4766 105.023 19.4531 104.867 19.4063C104.716 19.3542 104.589 19.2865 104.484 19.2031C104.38 19.1146 104.299 19.0078 104.242 18.8828C104.19 18.7526 104.164 18.612 104.164 18.4609C104.164 18.2682 104.201 18.0911 104.273 17.9297C104.346 17.763 104.458 17.6198 104.609 17.5C104.76 17.3854 104.956 17.2969 105.195 17.2344C105.435 17.1667 105.724 17.1328 106.062 17.1328H107.172V18.5859C107.109 18.6953 107.023 18.8047 106.914 18.9141C106.805 19.0182 106.674 19.112 106.523 19.1953C106.372 19.2786 106.203 19.3464 106.016 19.3984C105.828 19.4505 105.625 19.4766 105.406 19.4766ZM112.258 9V10.7734H114.789V19.2344H112.258V21H119.406V19.2344H116.984V9H112.258ZM121.117 16.6953V16.8594C121.117 17.4792 121.206 18.0521 121.383 18.5781C121.56 19.099 121.82 19.5521 122.164 19.9375C122.503 20.3229 122.919 20.625 123.414 20.8438C123.914 21.0573 124.482 21.1641 125.117 21.1641C125.747 21.1641 126.31 21.0573 126.805 20.8438C127.299 20.625 127.716 20.3229 128.055 19.9375C128.393 19.5521 128.651 19.099 128.828 18.5781C129.005 18.0521 129.094 17.4792 129.094 16.8594V16.6953C129.094 16.0807 129.005 15.513 128.828 14.9922C128.651 14.4661 128.393 14.0104 128.055 13.625C127.711 13.2396 127.292 12.9375 126.797 12.7188C126.302 12.5 125.737 12.3906 125.102 12.3906C124.466 12.3906 123.901 12.5 123.406 12.7188C122.917 12.9375 122.503 13.2396 122.164 13.625C121.82 14.0104 121.56 14.4661 121.383 14.9922C121.206 15.513 121.117 16.0807 121.117 16.6953ZM123.289 16.8594V16.6953C123.289 16.3516 123.323 16.026 123.391 15.7188C123.458 15.4115 123.565 15.1406 123.711 14.9063C123.857 14.6719 124.044 14.487 124.273 14.3516C124.503 14.2161 124.779 14.1484 125.102 14.1484C125.43 14.1484 125.708 14.2161 125.938 14.3516C126.167 14.487 126.354 14.6719 126.5 14.9063C126.641 15.1406 126.745 15.4115 126.812 15.7188C126.88 16.026 126.914 16.3516 126.914 16.6953V16.8594C126.914 17.2135 126.88 17.5469 126.812 17.8594C126.745 18.1667 126.641 18.4349 126.5 18.6641C126.354 18.8984 126.167 19.0833 125.938 19.2188C125.708 19.3542 125.435 19.4219 125.117 19.4219C124.789 19.4219 124.508 19.3542 124.273 19.2188C124.044 19.0833 123.857 18.8984 123.711 18.6641C123.565 18.4349 123.458 18.1667 123.391 17.8594C123.323 17.5469 123.289 17.2135 123.289 16.8594ZM137.094 12.3906C136.526 12.3906 136.003 12.5286 135.523 12.8047C135.044 13.0755 134.633 13.4505 134.289 13.9297L134.273 13.7422L134.188 12.5469H132.164V21H134.336V15.9219C134.435 15.6823 134.56 15.474 134.711 15.2969C134.862 15.1198 135.044 14.974 135.258 14.8594C135.435 14.7604 135.635 14.6875 135.859 14.6406C136.089 14.5885 136.344 14.5625 136.625 14.5625C136.896 14.5625 137.18 14.5807 137.477 14.6172C137.779 14.6484 138.073 14.6979 138.359 14.7656L138.68 12.6016C138.508 12.5495 138.281 12.5026 138 12.4609C137.724 12.4141 137.422 12.3906 137.094 12.3906ZM144.734 21.1563C145.552 21.1563 146.26 20.9974 146.859 20.6797C147.458 20.362 147.896 20.0078 148.172 19.6172L147.086 18.4453C146.836 18.7682 146.51 19.0104 146.109 19.1719C145.708 19.3333 145.294 19.4141 144.867 19.4141C144.565 19.4141 144.286 19.3672 144.031 19.2734C143.776 19.1797 143.549 19.0469 143.352 18.875C143.159 18.7083 143.005 18.5234 142.891 18.3203C142.776 18.112 142.682 17.8385 142.609 17.5V17.4766H148.344V16.5547C148.344 15.9349 148.258 15.3698 148.086 14.8594C147.914 14.3438 147.664 13.9036 147.336 13.5391C147.003 13.1745 146.596 12.8932 146.117 12.6953C145.643 12.4922 145.102 12.3906 144.492 12.3906C143.904 12.3906 143.359 12.4974 142.859 12.7109C142.359 12.9245 141.927 13.224 141.562 13.6094C141.198 13.9948 140.914 14.4557 140.711 14.9922C140.508 15.5234 140.406 16.112 140.406 16.7578V17.0703C140.406 17.638 140.508 18.1719 140.711 18.6719C140.919 19.1667 141.214 19.5964 141.594 19.9609C141.974 20.3307 142.43 20.6224 142.961 20.8359C143.492 21.0495 144.083 21.1563 144.734 21.1563ZM144.477 14.1484C144.753 14.1484 144.995 14.1927 145.203 14.2813C145.417 14.3646 145.596 14.4792 145.742 14.625C145.888 14.776 146.003 14.9531 146.086 15.1563C146.169 15.3594 146.211 15.5755 146.211 15.8047V15.9766H142.648C142.701 15.7005 142.779 15.4505 142.883 15.2266C142.987 15.0026 143.117 14.8099 143.273 14.6484C143.424 14.487 143.602 14.3646 143.805 14.2813C144.008 14.1927 144.232 14.1484 144.477 14.1484ZM155.695 18.6797C155.695 18.8099 155.661 18.9297 155.594 19.0391C155.531 19.1484 155.435 19.2448 155.305 19.3281C155.169 19.4115 154.995 19.4792 154.781 19.5313C154.573 19.5781 154.328 19.6016 154.047 19.6016C153.812 19.6016 153.583 19.5781 153.359 19.5313C153.141 19.4844 152.945 19.4089 152.773 19.3047C152.602 19.2057 152.461 19.0755 152.352 18.9141C152.242 18.7474 152.18 18.5495 152.164 18.3203H150.094C150.094 18.6641 150.177 19.0078 150.344 19.3516C150.516 19.6901 150.766 19.9922 151.094 20.2578C151.422 20.5286 151.828 20.7474 152.312 20.9141C152.802 21.0807 153.365 21.1641 154 21.1641C154.578 21.1641 155.102 21.1016 155.57 20.9766C156.039 20.8464 156.44 20.6667 156.773 20.4375C157.102 20.2083 157.354 19.9375 157.531 19.625C157.714 19.3073 157.805 18.9609 157.805 18.5859C157.805 18.1797 157.714 17.8307 157.531 17.5391C157.354 17.2422 157.107 16.9896 156.789 16.7813C156.471 16.5781 156.094 16.4115 155.656 16.2813C155.219 16.151 154.745 16.0443 154.234 15.9609C153.88 15.9089 153.589 15.849 153.359 15.7813C153.13 15.7083 152.951 15.6276 152.82 15.5391C152.685 15.4557 152.591 15.362 152.539 15.2578C152.487 15.1484 152.461 15.0313 152.461 14.9063C152.461 14.7813 152.49 14.6641 152.547 14.5547C152.609 14.4401 152.698 14.3411 152.812 14.2578C152.938 14.1641 153.099 14.0911 153.297 14.0391C153.495 13.987 153.727 13.9609 153.992 13.9609C154.305 13.9609 154.57 14 154.789 14.0781C155.013 14.1563 155.19 14.2604 155.32 14.3906C155.414 14.4896 155.484 14.6016 155.531 14.7266C155.578 14.8464 155.602 14.9766 155.602 15.1172H157.773C157.773 14.7266 157.688 14.3646 157.516 14.0313C157.344 13.6979 157.096 13.4089 156.773 13.1641C156.445 12.9245 156.047 12.737 155.578 12.6016C155.109 12.4609 154.581 12.3906 153.992 12.3906C153.43 12.3906 152.924 12.4609 152.477 12.6016C152.029 12.7422 151.648 12.9323 151.336 13.1719C151.023 13.4115 150.784 13.6901 150.617 14.0078C150.451 14.3255 150.367 14.6589 150.367 15.0078C150.367 15.3672 150.448 15.6849 150.609 15.9609C150.776 16.237 151.005 16.4792 151.297 16.6875C151.589 16.901 151.938 17.0833 152.344 17.2344C152.755 17.3802 153.208 17.5026 153.703 17.6016C154.094 17.6745 154.417 17.7474 154.672 17.8203C154.927 17.8932 155.133 17.9714 155.289 18.0547C155.44 18.1432 155.544 18.237 155.602 18.3359C155.664 18.4349 155.695 18.5495 155.695 18.6797ZM169.492 24.25H171.664V20.2656C171.763 20.375 171.867 20.474 171.977 20.5625C172.086 20.651 172.201 20.7318 172.32 20.8047C172.523 20.9193 172.742 21.0052 172.977 21.0625C173.216 21.125 173.477 21.1563 173.758 21.1563C174.289 21.1563 174.76 21.0469 175.172 20.8281C175.583 20.6094 175.93 20.3073 176.211 19.9219C176.487 19.5417 176.695 19.0885 176.836 18.5625C176.982 18.0365 177.055 17.4661 177.055 16.8516V16.6875C177.055 16.0469 176.982 15.4635 176.836 14.9375C176.695 14.4063 176.484 13.9505 176.203 13.5703C175.922 13.1953 175.576 12.9063 175.164 12.7031C174.753 12.4948 174.279 12.3906 173.742 12.3906C173.482 12.3906 173.237 12.4193 173.008 12.4766C172.784 12.5286 172.578 12.6042 172.391 12.7031C172.234 12.7865 172.089 12.8854 171.953 13C171.818 13.1094 171.693 13.2344 171.578 13.375L171.5 12.5469H169.492V24.25ZM174.883 16.6875V16.8516C174.883 17.2005 174.852 17.5313 174.789 17.8438C174.727 18.151 174.628 18.4219 174.492 18.6563C174.357 18.8906 174.18 19.0755 173.961 19.2109C173.747 19.3464 173.487 19.4141 173.18 19.4141C172.987 19.4141 172.812 19.3958 172.656 19.3594C172.5 19.3177 172.362 19.2604 172.242 19.1875C172.117 19.1094 172.005 19.0156 171.906 18.9063C171.812 18.7969 171.732 18.6745 171.664 18.5391V15.0078C171.737 14.862 171.823 14.7344 171.922 14.625C172.026 14.5156 172.146 14.4245 172.281 14.3516C172.401 14.2891 172.534 14.2422 172.68 14.2109C172.826 14.1745 172.987 14.1563 173.164 14.1563C173.471 14.1563 173.732 14.2214 173.945 14.3516C174.164 14.4818 174.344 14.6589 174.484 14.8828C174.62 15.112 174.719 15.3828 174.781 15.6953C174.849 16.0026 174.883 16.3333 174.883 16.6875ZM184.352 21H186.555V20.8672C186.445 20.6536 186.362 20.3984 186.305 20.1016C186.247 19.8047 186.219 19.4297 186.219 18.9766V15.3516C186.219 14.862 186.128 14.4323 185.945 14.0625C185.763 13.6875 185.51 13.3776 185.188 13.1328C184.865 12.888 184.482 12.7031 184.039 12.5781C183.602 12.4531 183.128 12.3906 182.617 12.3906C182.049 12.3906 181.544 12.4635 181.102 12.6094C180.664 12.75 180.294 12.9427 179.992 13.1875C179.685 13.4323 179.451 13.7161 179.289 14.0391C179.133 14.362 179.055 14.7031 179.055 15.0625L181.227 15.0625C181.227 14.9115 181.247 14.7734 181.289 14.6484C181.336 14.5234 181.406 14.4167 181.5 14.3281C181.604 14.2292 181.74 14.1536 181.906 14.1016C182.073 14.0443 182.271 14.0156 182.5 14.0156C182.76 14.0156 182.987 14.0495 183.18 14.1172C183.378 14.1797 183.542 14.2708 183.672 14.3906C183.797 14.5052 183.891 14.6432 183.953 14.8047C184.016 14.9609 184.047 15.138 184.047 15.3359V15.8359H182.836C182.211 15.8359 181.656 15.8932 181.172 16.0078C180.693 16.1172 180.289 16.2786 179.961 16.4922C179.596 16.7266 179.323 17.026 179.141 17.3906C178.958 17.75 178.867 18.1641 178.867 18.6328C178.867 18.9974 178.94 19.3359 179.086 19.6484C179.232 19.9557 179.435 20.2214 179.695 20.4453C179.956 20.6693 180.266 20.8438 180.625 20.9688C180.99 21.0938 181.388 21.1563 181.82 21.1563C182.086 21.1563 182.333 21.1302 182.562 21.0781C182.792 21.0313 183.003 20.9635 183.195 20.875C183.383 20.7917 183.555 20.6927 183.711 20.5781C183.867 20.4635 184.005 20.3411 184.125 20.2109C184.151 20.362 184.182 20.5052 184.219 20.6406C184.255 20.776 184.299 20.8958 184.352 21ZM182.281 19.4766C182.078 19.4766 181.898 19.4531 181.742 19.4063C181.591 19.3542 181.464 19.2865 181.359 19.2031C181.255 19.1146 181.174 19.0078 181.117 18.8828C181.065 18.7526 181.039 18.612 181.039 18.4609C181.039 18.2682 181.076 18.0911 181.148 17.9297C181.221 17.763 181.333 17.6198 181.484 17.5C181.635 17.3854 181.831 17.2969 182.07 17.2344C182.31 17.1667 182.599 17.1328 182.938 17.1328H184.047V18.5859C183.984 18.6953 183.898 18.8047 183.789 18.9141C183.68 19.0182 183.549 19.112 183.398 19.1953C183.247 19.2786 183.078 19.3464 182.891 19.3984C182.703 19.4505 182.5 19.4766 182.281 19.4766ZM188.453 16.7109V16.875C188.453 17.4896 188.529 18.0599 188.68 18.5859C188.831 19.1068 189.049 19.5573 189.336 19.9375C189.617 20.3177 189.961 20.6172 190.367 20.8359C190.779 21.0495 191.242 21.1563 191.758 21.1563C192.232 21.1563 192.648 21.0651 193.008 20.8828C193.367 20.7005 193.68 20.4453 193.945 20.1172L194.055 21H196.016V9H193.836V13.3047C193.576 13.013 193.276 12.7891 192.938 12.6328C192.604 12.4714 192.216 12.3906 191.773 12.3906C191.247 12.3906 190.779 12.4948 190.367 12.7031C189.961 12.9115 189.615 13.2057 189.328 13.5859C189.042 13.9661 188.823 14.4219 188.672 14.9531C188.526 15.4844 188.453 16.0703 188.453 16.7109ZM190.625 16.875V16.7109C190.625 16.3568 190.656 16.026 190.719 15.7188C190.781 15.4063 190.88 15.1328 191.016 14.8984C191.151 14.6693 191.326 14.4896 191.539 14.3594C191.758 14.224 192.021 14.1563 192.328 14.1563C192.698 14.1563 193.005 14.237 193.25 14.3984C193.495 14.5547 193.69 14.776 193.836 15.0625V18.4844C193.69 18.7656 193.492 18.987 193.242 19.1484C192.997 19.3099 192.688 19.3906 192.312 19.3906C192.005 19.3906 191.745 19.3255 191.531 19.1953C191.318 19.0651 191.143 18.8854 191.008 18.6563C190.872 18.4323 190.773 18.1693 190.711 17.8672C190.654 17.5599 190.625 17.2292 190.625 16.875ZM204.359 12.3906C203.792 12.3906 203.268 12.5286 202.789 12.8047C202.31 13.0755 201.898 13.4505 201.555 13.9297L201.539 13.7422L201.453 12.5469H199.43V21H201.602V15.9219C201.701 15.6823 201.826 15.474 201.977 15.2969C202.128 15.1198 202.31 14.974 202.523 14.8594C202.701 14.7604 202.901 14.6875 203.125 14.6406C203.354 14.5885 203.609 14.5625 203.891 14.5625C204.161 14.5625 204.445 14.5807 204.742 14.6172C205.044 14.6484 205.339 14.6979 205.625 14.7656L205.945 12.6016C205.773 12.5495 205.547 12.5026 205.266 12.4609C204.99 12.4141 204.688 12.3906 204.359 12.3906ZM213.18 21H215.383V20.8672C215.273 20.6536 215.19 20.3984 215.133 20.1016C215.076 19.8047 215.047 19.4297 215.047 18.9766V15.3516C215.047 14.862 214.956 14.4323 214.773 14.0625C214.591 13.6875 214.339 13.3776 214.016 13.1328C213.693 12.888 213.31 12.7031 212.867 12.5781C212.43 12.4531 211.956 12.3906 211.445 12.3906C210.878 12.3906 210.372 12.4635 209.93 12.6094C209.492 12.75 209.122 12.9427 208.82 13.1875C208.513 13.4323 208.279 13.7161 208.117 14.0391C207.961 14.362 207.883 14.7031 207.883 15.0625H210.055C210.055 14.9115 210.076 14.7734 210.117 14.6484C210.164 14.5234 210.234 14.4167 210.328 14.3281C210.432 14.2292 210.568 14.1536 210.734 14.1016C210.901 14.0443 211.099 14.0156 211.328 14.0156C211.589 14.0156 211.815 14.0495 212.008 14.1172C212.206 14.1797 212.37 14.2708 212.5 14.3906C212.625 14.5052 212.719 14.6432 212.781 14.8047C212.844 14.9609 212.875 15.138 212.875 15.3359V15.8359H211.664C211.039 15.8359 210.484 15.8932 210 16.0078C209.521 16.1172 209.117 16.2786 208.789 16.4922C208.424 16.7266 208.151 17.026 207.969 17.3906C207.786 17.75 207.695 18.1641 207.695 18.6328C207.695 18.9974 207.768 19.3359 207.914 19.6484C208.06 19.9557 208.263 20.2214 208.523 20.4453C208.784 20.6693 209.094 20.8438 209.453 20.9688C209.818 21.0938 210.216 21.1563 210.648 21.1563C210.914 21.1563 211.161 21.1302 211.391 21.0781C211.62 21.0313 211.831 20.9635 212.023 20.875C212.211 20.7917 212.383 20.6927 212.539 20.5781C212.695 20.4635 212.833 20.3411 212.953 20.2109C212.979 20.362 213.01 20.5052 213.047 20.6406C213.083 20.776 213.128 20.8958 213.18 21ZM211.109 19.4766C210.906 19.4766 210.727 19.4531 210.57 19.4063C210.419 19.3542 210.292 19.2865 210.188 19.2031C210.083 19.1146 210.003 19.0078 209.945 18.8828C209.893 18.7526 209.867 18.612 209.867 18.4609C209.867 18.2682 209.904 18.0911 209.977 17.9297C210.049 17.763 210.161 17.6198 210.312 17.5C210.464 17.3854 210.659 17.2969 210.898 17.2344C211.138 17.1667 211.427 17.1328 211.766 17.1328H212.875V18.5859C212.812 18.6953 212.727 18.8047 212.617 18.9141C212.508 19.0182 212.378 19.112 212.227 19.1953C212.076 19.2786 211.906 19.3464 211.719 19.3984C211.531 19.4505 211.328 19.4766 211.109 19.4766ZM214.297 8.97656L213.203 8.73438C213.203 8.84375 213.185 8.94531 213.148 9.03906C213.117 9.1276 213.073 9.20313 213.016 9.26563C212.953 9.33854 212.875 9.39583 212.781 9.4375C212.693 9.47396 212.599 9.49219 212.5 9.49219C212.302 9.49219 212.115 9.45833 211.938 9.39063C211.76 9.31771 211.586 9.23698 211.414 9.14844C211.237 9.0651 211.057 8.98958 210.875 8.92188C210.693 8.84896 210.497 8.8125 210.289 8.8125C210.034 8.8125 209.802 8.86979 209.594 8.98438C209.391 9.09896 209.216 9.2474 209.07 9.42969C208.924 9.61198 208.81 9.81771 208.727 10.0469C208.648 10.276 208.609 10.5052 208.609 10.7344L209.703 10.9688C209.703 10.849 209.721 10.7422 209.758 10.6484C209.794 10.5495 209.846 10.4688 209.914 10.4063C209.977 10.3385 210.049 10.2891 210.133 10.2578C210.216 10.2214 210.305 10.2031 210.398 10.2031C210.602 10.2031 210.784 10.2396 210.945 10.3125C211.107 10.3802 211.271 10.4557 211.438 10.5391C211.599 10.6276 211.771 10.7083 211.953 10.7813C212.141 10.849 212.359 10.8828 212.609 10.8828C212.865 10.8828 213.094 10.8281 213.297 10.7188C213.505 10.6094 213.685 10.4635 213.836 10.2813C213.982 10.1042 214.094 9.90104 214.172 9.67188C214.255 9.44271 214.297 9.21094 214.297 8.97656ZM217.211 16.6953V16.8594C217.211 17.4792 217.299 18.0521 217.477 18.5781C217.654 19.099 217.914 19.5521 218.258 19.9375C218.596 20.3229 219.013 20.625 219.508 20.8438C220.008 21.0573 220.576 21.1641 221.211 21.1641C221.841 21.1641 222.404 21.0573 222.898 20.8438C223.393 20.625 223.81 20.3229 224.148 19.9375C224.487 19.5521 224.745 19.099 224.922 18.5781C225.099 18.0521 225.188 17.4792 225.188 16.8594V16.6953C225.188 16.0807 225.099 15.513 224.922 14.9922C224.745 14.4661 224.487 14.0104 224.148 13.625C223.805 13.2396 223.385 12.9375 222.891 12.7188C222.396 12.5 221.831 12.3906 221.195 12.3906C220.56 12.3906 219.995 12.5 219.5 12.7188C219.01 12.9375 218.596 13.2396 218.258 13.625C217.914 14.0104 217.654 14.4661 217.477 14.9922C217.299 15.513 217.211 16.0807 217.211 16.6953ZM219.383 16.8594V16.6953C219.383 16.3516 219.417 16.026 219.484 15.7188C219.552 15.4115 219.659 15.1406 219.805 14.9063C219.951 14.6719 220.138 14.487 220.367 14.3516C220.596 14.2161 220.872 14.1484 221.195 14.1484C221.523 14.1484 221.802 14.2161 222.031 14.3516C222.26 14.487 222.448 14.6719 222.594 14.9063C222.734 15.1406 222.839 15.4115 222.906 15.7188C222.974 16.026 223.008 16.3516 223.008 16.6953V16.8594C223.008 17.2135 222.974 17.5469 222.906 17.8594C222.839 18.1667 222.734 18.4349 222.594 18.6641C222.448 18.8984 222.26 19.0833 222.031 19.2188C221.802 19.3542 221.529 19.4219 221.211 19.4219C220.883 19.4219 220.602 19.3542 220.367 19.2188C220.138 19.0833 219.951 18.8984 219.805 18.6641C219.659 18.4349 219.552 18.1667 219.484 17.8594C219.417 17.5469 219.383 17.2135 219.383 16.8594Z" fill="#4A5568"/>
<rect x="11.5" y="55.5" width="294" height="35" rx="8.5" fill="#9F7AEA" stroke="#553C9A" stroke-width="3"/>
<rect x="11.5" y="93.5" width="294" height="35" rx="8.5" fill="#9F7AEA" stroke="#553C9A" stroke-width="3"/>
<rect x="11.5" y="131.5" width="294" height="34" rx="8.5" fill="#9F7AEA" stroke="#553C9A" stroke-width="3"/>
<rect x="11.5" y="168.5" width="294" height="35" rx="8.5" fill="#9F7AEA" stroke="#553C9A" stroke-width="3"/>
<rect x="11.5" y="206.5" width="294" height="35" rx="8.5" fill="#9F7AEA" stroke="#553C9A" stroke-width="3"/>
<rect x="11.5" y="244.5" width="294" height="35" rx="8.5" fill="#9F7AEA" stroke="#553C9A" stroke-width="3"/>
<path d="M28.1989 67.3636V74.7102C28.1989 76.0398 27.267 77 25.8352 77C24.4091 77 23.4716 76.0398 23.4716 74.7102V67.3636H21.0114V74.9205C21.0114 77.4659 22.9318 79.1648 25.8352 79.1648C28.7273 79.1648 30.6591 77.4659 30.6591 74.9205V67.3636H28.1989ZM32.6378 79H35.0582V73.7614C35.0582 72.7955 35.6719 72.1534 36.4787 72.1534C37.2741 72.1534 37.8082 72.6989 37.8082 73.5568V79H40.1548V73.6705C40.1548 72.767 40.6719 72.1534 41.5526 72.1534C42.3253 72.1534 42.9048 72.6364 42.9048 73.608V79H45.3196V73.1307C45.3196 71.2386 44.1946 70.1591 42.5696 70.1591C41.2912 70.1591 40.2969 70.8125 39.9389 71.8125H39.848C39.5696 70.8011 38.6776 70.1591 37.4787 70.1591C36.3026 70.1591 35.4105 70.7841 35.0469 71.8125H34.9446V70.2727H32.6378V79Z" fill="#553C9A"/>
<path d="M25.1364 117C28.6818 117 30.8295 114.807 30.8295 111.17C30.8295 107.545 28.6818 105.364 25.1705 105.364H21.0114V117H25.1364ZM23.4716 114.892V107.472H25.0398C27.2216 107.472 28.375 108.585 28.375 111.17C28.375 113.767 27.2216 114.892 25.0341 114.892H23.4716ZM36.5497 117.17C39.1974 117.17 40.8452 115.358 40.8452 112.67C40.8452 109.966 39.1974 108.159 36.5497 108.159C33.902 108.159 32.2543 109.966 32.2543 112.67C32.2543 115.358 33.902 117.17 36.5497 117.17ZM36.5611 115.295C35.3395 115.295 34.7145 114.176 34.7145 112.653C34.7145 111.131 35.3395 110.006 36.5611 110.006C37.7599 110.006 38.3849 111.131 38.3849 112.653C38.3849 114.176 37.7599 115.295 36.5611 115.295ZM42.419 117H44.8395V108.273H42.419V117ZM43.6349 107.148C44.3565 107.148 44.9474 106.597 44.9474 105.92C44.9474 105.25 44.3565 104.699 43.6349 104.699C42.919 104.699 42.3281 105.25 42.3281 105.92C42.3281 106.597 42.919 107.148 43.6349 107.148ZM54.0398 110.761C53.8239 109.153 52.5284 108.159 50.3239 108.159C48.0909 108.159 46.6193 109.193 46.625 110.875C46.6193 112.182 47.4432 113.028 49.1477 113.369L50.6591 113.67C51.4205 113.824 51.767 114.102 51.7784 114.54C51.767 115.057 51.2045 115.426 50.358 115.426C49.4943 115.426 48.9205 115.057 48.7727 114.347L46.392 114.472C46.6193 116.142 48.0398 117.17 50.3523 117.17C52.6136 117.17 54.233 116.017 54.2386 114.295C54.233 113.034 53.4091 112.278 51.7159 111.932L50.1364 111.614C49.3239 111.438 49.0227 111.159 49.0284 110.739C49.0227 110.216 49.6136 109.875 50.3636 109.875C51.2045 109.875 51.7045 110.335 51.8239 110.898L54.0398 110.761Z" fill="#553C9A"/>
<path d="M20.5682 144.392H24.1307V154H26.5625V144.392H30.125V142.364H20.5682V144.392ZM30.7472 154H33.1676V149.062C33.1676 147.989 33.9517 147.25 35.0199 147.25C35.3551 147.25 35.8153 147.307 36.0426 147.381V145.233C35.8267 145.182 35.5256 145.148 35.2812 145.148C34.304 145.148 33.5028 145.716 33.1847 146.795H33.0938V145.273H30.7472V154ZM40.8651 154.17C43.0241 154.17 44.4787 153.119 44.8196 151.5L42.581 151.352C42.3366 152.017 41.7116 152.364 40.9048 152.364C39.6946 152.364 38.9276 151.562 38.9276 150.261V150.256H44.8707V149.591C44.8707 146.625 43.0753 145.159 40.7685 145.159C38.2003 145.159 36.5355 146.983 36.5355 149.676C36.5355 152.443 38.1776 154.17 40.8651 154.17ZM39.5696 144.239L40.7116 142.852L41.8537 144.239H43.9162V144.159L41.6094 141.659H39.8082L37.5071 144.159V144.239H39.5696ZM38.9276 148.756C38.9787 147.761 39.7344 146.966 40.8082 146.966C41.8594 146.966 42.5866 147.716 42.5923 148.756H38.9276ZM53.7116 147.761C53.4957 146.153 52.2003 145.159 49.9957 145.159C47.7628 145.159 46.2912 146.193 46.2969 147.875C46.2912 149.182 47.1151 150.028 48.8196 150.369L50.331 150.67C51.0923 150.824 51.4389 151.102 51.4503 151.54C51.4389 152.057 50.8764 152.426 50.0298 152.426C49.1662 152.426 48.5923 152.057 48.4446 151.347L46.0639 151.472C46.2912 153.142 47.7116 154.17 50.0241 154.17C52.2855 154.17 53.9048 153.017 53.9105 151.295C53.9048 150.034 53.081 149.278 51.3878 148.932L49.8082 148.614C48.9957 148.438 48.6946 148.159 48.7003 147.739C48.6946 147.216 49.2855 146.875 50.0355 146.875C50.8764 146.875 51.3764 147.335 51.4957 147.898L53.7116 147.761Z" fill="#553C9A"/>
<path d="M31.7045 186.182C31.7045 182.375 29.3409 180.205 26.2557 180.205C23.1534 180.205 20.8068 182.375 20.8068 186.182C20.8068 189.972 23.1534 192.159 26.2557 192.159C26.983 192.159 27.6705 192.04 28.2955 191.801L29.233 192.955H31.5284L29.8636 190.864C31 189.847 31.7045 188.256 31.7045 186.182ZM25.4034 187.955L26.892 189.92C26.6932 189.96 26.4773 189.983 26.2557 189.983C24.4659 189.983 23.3011 188.648 23.3011 186.182C23.3011 183.716 24.4659 182.381 26.2557 182.381C28.0398 182.381 29.2102 183.716 29.2102 186.182C29.2102 187.449 28.8977 188.42 28.358 189.062L27.4943 187.955H25.4034ZM39.0781 188.284C39.0838 189.455 38.2827 190.068 37.4134 190.068C36.4986 190.068 35.9077 189.426 35.902 188.398V183.273H33.4815V188.83C33.4872 190.869 34.6804 192.114 36.4361 192.114C37.7486 192.114 38.6918 191.438 39.0838 190.415H39.1747V192H41.4986V183.273H39.0781V188.284ZM45.9233 192.165C47.2131 192.165 48.0483 191.602 48.4744 190.79H48.5426V192H50.8381V186.114C50.8381 184.034 49.0767 183.159 47.1335 183.159C45.0426 183.159 43.6676 184.159 43.3324 185.75L45.571 185.932C45.7358 185.352 46.2528 184.926 47.1222 184.926C47.946 184.926 48.4176 185.341 48.4176 186.057V186.091C48.4176 186.653 47.821 186.727 46.304 186.875C44.5767 187.034 43.0256 187.614 43.0256 189.562C43.0256 191.29 44.2585 192.165 45.9233 192.165ZM46.6165 190.494C45.8722 190.494 45.3381 190.148 45.3381 189.483C45.3381 188.801 45.9006 188.466 46.7528 188.347C47.2812 188.273 48.1449 188.148 48.4347 187.955V188.881C48.4347 189.795 47.679 190.494 46.6165 190.494ZM57.358 183.273H55.7159V181.182H53.2955V183.273H52.1023V185.091H53.2955V189.636C53.2841 191.347 54.4489 192.193 56.2045 192.119C56.8295 192.097 57.2727 191.972 57.517 191.892L57.1364 190.091C57.017 190.114 56.7614 190.17 56.5341 190.17C56.0511 190.17 55.7159 189.989 55.7159 189.318V185.091H57.358V183.273ZM58.9347 192H61.3551V187.062C61.3551 185.989 62.1392 185.25 63.2074 185.25C63.5426 185.25 64.0028 185.307 64.2301 185.381V183.233C64.0142 183.182 63.7131 183.148 63.4688 183.148C62.4915 183.148 61.6903 183.716 61.3722 184.795H61.2812V183.273H58.9347V192ZM69.0185 192.17C71.6662 192.17 73.3139 190.358 73.3139 187.67C73.3139 184.966 71.6662 183.159 69.0185 183.159C66.3707 183.159 64.723 184.966 64.723 187.67C64.723 190.358 66.3707 192.17 69.0185 192.17ZM69.0298 190.295C67.8082 190.295 67.1832 189.176 67.1832 187.653C67.1832 186.131 67.8082 185.006 69.0298 185.006C70.2287 185.006 70.8537 186.131 70.8537 187.653C70.8537 189.176 70.2287 190.295 69.0298 190.295Z" fill="#553C9A"/>
<path d="M31.2784 222.438C30.9545 219.75 28.9205 218.205 26.2273 218.205C23.1534 218.205 20.8068 220.375 20.8068 224.182C20.8068 227.977 23.1136 230.159 26.2273 230.159C29.2102 230.159 31.0114 228.176 31.2784 226.034L28.7898 226.023C28.5568 227.267 27.5795 227.983 26.267 227.983C24.5 227.983 23.3011 226.67 23.3011 224.182C23.3011 221.761 24.483 220.381 26.2841 220.381C27.6307 220.381 28.6023 221.159 28.7898 222.438H31.2784ZM32.9972 230H35.4176V221.273H32.9972V230ZM34.2131 220.148C34.9347 220.148 35.5256 219.597 35.5256 218.92C35.5256 218.25 34.9347 217.699 34.2131 217.699C33.4972 217.699 32.9062 218.25 32.9062 218.92C32.9062 219.597 33.4972 220.148 34.2131 220.148ZM39.777 224.955C39.7827 223.83 40.4531 223.17 41.4304 223.17C42.402 223.17 42.9872 223.807 42.9815 224.875V230H45.402V224.443C45.402 222.409 44.2088 221.159 42.3906 221.159C41.0952 221.159 40.1577 221.795 39.7656 222.812H39.6634V221.273H37.3565V230H39.777V224.955ZM51.2528 230.17C53.5767 230.17 55.0369 228.807 55.1506 226.801H52.8665C52.7244 227.733 52.1108 228.256 51.2812 228.256C50.1506 228.256 49.4176 227.307 49.4176 225.636C49.4176 223.989 50.1562 223.045 51.2812 223.045C52.1676 223.045 52.7358 223.631 52.8665 224.5H55.1506C55.0483 222.483 53.5199 221.159 51.2415 221.159C48.5938 221.159 46.9574 222.994 46.9574 225.67C46.9574 228.324 48.5653 230.17 51.2528 230.17ZM60.6435 230.17C63.2912 230.17 64.9389 228.358 64.9389 225.67C64.9389 222.966 63.2912 221.159 60.6435 221.159C57.9957 221.159 56.348 222.966 56.348 225.67C56.348 228.358 57.9957 230.17 60.6435 230.17ZM60.6548 228.295C59.4332 228.295 58.8082 227.176 58.8082 225.653C58.8082 224.131 59.4332 223.006 60.6548 223.006C61.8537 223.006 62.4787 224.131 62.4787 225.653C62.4787 227.176 61.8537 228.295 60.6548 228.295Z" fill="#553C9A"/>
<path d="M27.3239 259.71H29.6818C29.6477 257.636 27.9432 256.205 25.3523 256.205C22.8011 256.205 20.9318 257.614 20.9432 259.727C20.9375 261.443 22.1477 262.426 24.1136 262.898L25.3807 263.216C26.6477 263.523 27.3523 263.886 27.358 264.67C27.3523 265.523 26.5455 266.102 25.2955 266.102C24.017 266.102 23.0966 265.511 23.017 264.347H20.6364C20.6989 266.864 22.5 268.165 25.3239 268.165C28.1648 268.165 29.8352 266.807 29.8409 264.676C29.8352 262.739 28.375 261.71 26.3523 261.256L25.3068 261.006C24.2955 260.773 23.4489 260.398 23.4659 259.562C23.4659 258.812 24.1307 258.261 25.3352 258.261C26.5114 258.261 27.233 258.795 27.3239 259.71ZM35.4276 268.17C37.5866 268.17 39.0412 267.119 39.3821 265.5L37.1435 265.352C36.8991 266.017 36.2741 266.364 35.4673 266.364C34.2571 266.364 33.4901 265.562 33.4901 264.261V264.256H39.4332V263.591C39.4332 260.625 37.6378 259.159 35.331 259.159C32.7628 259.159 31.098 260.983 31.098 263.676C31.098 266.443 32.7401 268.17 35.4276 268.17ZM33.4901 262.756C33.5412 261.761 34.2969 260.966 35.3707 260.966C36.4219 260.966 37.1491 261.716 37.1548 262.756H33.4901ZM41.0128 268H43.4332V259.273H41.0128V268ZM42.2287 258.148C42.9503 258.148 43.5412 257.597 43.5412 256.92C43.5412 256.25 42.9503 255.699 42.2287 255.699C41.5128 255.699 40.9219 256.25 40.9219 256.92C40.9219 257.597 41.5128 258.148 42.2287 258.148ZM52.6335 261.761C52.4176 260.153 51.1222 259.159 48.9176 259.159C46.6847 259.159 45.2131 260.193 45.2188 261.875C45.2131 263.182 46.0369 264.028 47.7415 264.369L49.2528 264.67C50.0142 264.824 50.3608 265.102 50.3722 265.54C50.3608 266.057 49.7983 266.426 48.9517 266.426C48.0881 266.426 47.5142 266.057 47.3665 265.347L44.9858 265.472C45.2131 267.142 46.6335 268.17 48.946 268.17C51.2074 268.17 52.8267 267.017 52.8324 265.295C52.8267 264.034 52.0028 263.278 50.3097 262.932L48.7301 262.614C47.9176 262.438 47.6165 262.159 47.6222 261.739C47.6165 261.216 48.2074 260.875 48.9574 260.875C49.7983 260.875 50.2983 261.335 50.4176 261.898L52.6335 261.761Z" fill="#553C9A"/>
</svg>
