<svg width="736" height="318" viewBox="0 0 736 318" fill="none" xmlns="http://www.w3.org/2000/svg">
<rect y="1" width="736" height="314" fill="white"/>
<path d="M13.6641 288.742C13.6641 289.143 13.7995 289.479 14.0703 289.75C14.3411 290.021 14.7083 290.156 15.1719 290.156C15.6302 290.156 15.9948 290.023 16.2656 289.758C16.5417 289.487 16.6797 289.148 16.6797 288.742C16.6797 288.336 16.5443 287.995 16.2734 287.719C16.0078 287.443 15.6406 287.305 15.1719 287.305C14.6979 287.305 14.3281 287.445 14.0625 287.727C13.7969 288.003 13.6641 288.341 13.6641 288.742ZM26.5312 287.68C26.5312 287.81 26.4974 287.93 26.4297 288.039C26.3672 288.148 26.2708 288.245 26.1406 288.328C26.0052 288.411 25.8307 288.479 25.6172 288.531C25.4089 288.578 25.1641 288.602 24.8828 288.602C24.6484 288.602 24.4193 288.578 24.1953 288.531C23.9766 288.484 23.7812 288.409 23.6094 288.305C23.4375 288.206 23.2969 288.076 23.1875 287.914C23.0781 287.747 23.0156 287.549 23 287.32H20.9297C20.9297 287.664 21.013 288.008 21.1797 288.352C21.3516 288.69 21.6016 288.992 21.9297 289.258C22.2578 289.529 22.6641 289.747 23.1484 289.914C23.638 290.081 24.2005 290.164 24.8359 290.164C25.4141 290.164 25.9375 290.102 26.4062 289.977C26.875 289.846 27.276 289.667 27.6094 289.438C27.9375 289.208 28.1901 288.938 28.3672 288.625C28.5495 288.307 28.6406 287.961 28.6406 287.586C28.6406 287.18 28.5495 286.831 28.3672 286.539C28.1901 286.242 27.9427 285.99 27.625 285.781C27.3073 285.578 26.9297 285.411 26.4922 285.281C26.0547 285.151 25.5807 285.044 25.0703 284.961C24.7161 284.909 24.4245 284.849 24.1953 284.781C23.9661 284.708 23.7865 284.628 23.6562 284.539C23.5208 284.456 23.4271 284.362 23.375 284.258C23.3229 284.148 23.2969 284.031 23.2969 283.906C23.2969 283.781 23.3255 283.664 23.3828 283.555C23.4453 283.44 23.5339 283.341 23.6484 283.258C23.7734 283.164 23.9349 283.091 24.1328 283.039C24.3307 282.987 24.5625 282.961 24.8281 282.961C25.1406 282.961 25.4062 283 25.625 283.078C25.849 283.156 26.026 283.26 26.1562 283.391C26.25 283.49 26.3203 283.602 26.3672 283.727C26.4141 283.846 26.4375 283.977 26.4375 284.117H28.6094C28.6094 283.727 28.5234 283.365 28.3516 283.031C28.1797 282.698 27.9323 282.409 27.6094 282.164C27.2812 281.924 26.8828 281.737 26.4141 281.602C25.9453 281.461 25.4167 281.391 24.8281 281.391C24.2656 281.391 23.7604 281.461 23.3125 281.602C22.8646 281.742 22.4844 281.932 22.1719 282.172C21.8594 282.411 21.6198 282.69 21.4531 283.008C21.2865 283.326 21.2031 283.659 21.2031 284.008C21.2031 284.367 21.2839 284.685 21.4453 284.961C21.612 285.237 21.8411 285.479 22.1328 285.688C22.4245 285.901 22.7734 286.083 23.1797 286.234C23.5911 286.38 24.0443 286.503 24.5391 286.602C24.9297 286.674 25.2526 286.747 25.5078 286.82C25.763 286.893 25.9688 286.971 26.125 287.055C26.276 287.143 26.3802 287.237 26.4375 287.336C26.5 287.435 26.5312 287.549 26.5312 287.68ZM34.4297 288.422C34.0807 288.422 33.7917 288.352 33.5625 288.211C33.3385 288.07 33.1615 287.883 33.0312 287.648C32.8958 287.419 32.8021 287.154 32.75 286.852C32.6979 286.544 32.6719 286.227 32.6719 285.898V285.664C32.6719 285.341 32.6979 285.029 32.75 284.727C32.8073 284.424 32.9036 284.156 33.0391 283.922C33.1693 283.688 33.3464 283.5 33.5703 283.359C33.7943 283.219 34.0781 283.148 34.4219 283.148C34.6562 283.148 34.8724 283.19 35.0703 283.273C35.2682 283.352 35.4375 283.458 35.5781 283.594C35.7188 283.729 35.8255 283.891 35.8984 284.078C35.9714 284.266 36.0026 284.464 35.9922 284.672H38.0391C38.0495 284.172 37.9661 283.721 37.7891 283.32C37.612 282.914 37.3646 282.568 37.0469 282.281C36.724 282 36.3411 281.781 35.8984 281.625C35.4557 281.469 34.974 281.391 34.4531 281.391C33.8021 281.391 33.2292 281.503 32.7344 281.727C32.2448 281.951 31.8333 282.255 31.5 282.641C31.1667 283.026 30.9167 283.479 30.75 284C30.5833 284.516 30.5 285.07 30.5 285.664V285.898C30.5 286.492 30.5833 287.049 30.75 287.57C30.9219 288.086 31.1745 288.536 31.5078 288.922C31.8359 289.307 32.2474 289.612 32.7422 289.836C33.237 290.055 33.8125 290.164 34.4688 290.164C34.9531 290.164 35.4115 290.089 35.8438 289.938C36.2812 289.781 36.6641 289.568 36.9922 289.297C37.3203 289.026 37.5781 288.703 37.7656 288.328C37.9583 287.953 38.0495 287.547 38.0391 287.109H35.9922C36.0026 287.307 35.9661 287.487 35.8828 287.648C35.8047 287.81 35.6927 287.948 35.5469 288.062C35.401 288.177 35.2318 288.266 35.0391 288.328C34.8464 288.391 34.6432 288.422 34.4297 288.422ZM46.3672 281.391C45.7995 281.391 45.276 281.529 44.7969 281.805C44.3177 282.076 43.9062 282.451 43.5625 282.93L43.5469 282.742L43.4609 281.547H41.4375V290H43.6094V284.922C43.7083 284.682 43.8333 284.474 43.9844 284.297C44.1354 284.12 44.3177 283.974 44.5312 283.859C44.7083 283.76 44.9089 283.688 45.1328 283.641C45.362 283.589 45.6172 283.562 45.8984 283.562C46.1693 283.562 46.4531 283.581 46.75 283.617C47.0521 283.648 47.3464 283.698 47.6328 283.766L47.9531 281.602C47.7812 281.549 47.5547 281.503 47.2734 281.461C46.9974 281.414 46.6953 281.391 46.3672 281.391ZM54.0078 290.156C54.8255 290.156 55.5339 289.997 56.1328 289.68C56.7318 289.362 57.1693 289.008 57.4453 288.617L56.3594 287.445C56.1094 287.768 55.7839 288.01 55.3828 288.172C54.9818 288.333 54.5677 288.414 54.1406 288.414C53.8385 288.414 53.5599 288.367 53.3047 288.273C53.0495 288.18 52.8229 288.047 52.625 287.875C52.4323 287.708 52.2786 287.523 52.1641 287.32C52.0495 287.112 51.9557 286.839 51.8828 286.5V286.477H57.6172V285.555C57.6172 284.935 57.5312 284.37 57.3594 283.859C57.1875 283.344 56.9375 282.904 56.6094 282.539C56.276 282.174 55.8698 281.893 55.3906 281.695C54.9167 281.492 54.375 281.391 53.7656 281.391C53.1771 281.391 52.6328 281.497 52.1328 281.711C51.6328 281.924 51.2005 282.224 50.8359 282.609C50.4714 282.995 50.1875 283.456 49.9844 283.992C49.7812 284.523 49.6797 285.112 49.6797 285.758V286.07C49.6797 286.638 49.7812 287.172 49.9844 287.672C50.1927 288.167 50.487 288.596 50.8672 288.961C51.2474 289.331 51.7031 289.622 52.2344 289.836C52.7656 290.049 53.3568 290.156 54.0078 290.156ZM53.75 283.148C54.026 283.148 54.2682 283.193 54.4766 283.281C54.6901 283.365 54.8698 283.479 55.0156 283.625C55.1615 283.776 55.276 283.953 55.3594 284.156C55.4427 284.359 55.4844 284.576 55.4844 284.805V284.977H51.9219C51.974 284.701 52.0521 284.451 52.1562 284.227C52.2604 284.003 52.3906 283.81 52.5469 283.648C52.6979 283.487 52.875 283.365 53.0781 283.281C53.2812 283.193 53.5052 283.148 53.75 283.148ZM63.6172 290.156C64.4349 290.156 65.1432 289.997 65.7422 289.68C66.3411 289.362 66.7786 289.008 67.0547 288.617L65.9688 287.445C65.7188 287.768 65.3932 288.01 64.9922 288.172C64.5911 288.333 64.1771 288.414 63.75 288.414C63.4479 288.414 63.1693 288.367 62.9141 288.273C62.6589 288.18 62.4323 288.047 62.2344 287.875C62.0417 287.708 61.888 287.523 61.7734 287.32C61.6589 287.112 61.5651 286.839 61.4922 286.5V286.477H67.2266V285.555C67.2266 284.935 67.1406 284.37 66.9688 283.859C66.7969 283.344 66.5469 282.904 66.2188 282.539C65.8854 282.174 65.4792 281.893 65 281.695C64.526 281.492 63.9844 281.391 63.375 281.391C62.7865 281.391 62.2422 281.497 61.7422 281.711C61.2422 281.924 60.8099 282.224 60.4453 282.609C60.0807 282.995 59.7969 283.456 59.5938 283.992C59.3906 284.523 59.2891 285.112 59.2891 285.758V286.07C59.2891 286.638 59.3906 287.172 59.5938 287.672C59.8021 288.167 60.0964 288.596 60.4766 288.961C60.8568 289.331 61.3125 289.622 61.8438 289.836C62.375 290.049 62.9661 290.156 63.6172 290.156ZM63.3594 283.148C63.6354 283.148 63.8776 283.193 64.0859 283.281C64.2995 283.365 64.4792 283.479 64.625 283.625C64.7708 283.776 64.8854 283.953 64.9688 284.156C65.0521 284.359 65.0938 284.576 65.0938 284.805V284.977H61.5312C61.5833 284.701 61.6615 284.451 61.7656 284.227C61.8698 284.003 62 283.81 62.1562 283.648C62.3073 283.487 62.4844 283.365 62.6875 283.281C62.8906 283.193 63.1146 283.148 63.3594 283.148ZM69.125 290H71.3047V283.992C71.3776 283.878 71.4583 283.773 71.5469 283.68C71.6354 283.586 71.7344 283.505 71.8438 283.438C71.9792 283.344 72.1328 283.273 72.3047 283.227C72.4818 283.18 72.6745 283.156 72.8828 283.156C73.1328 283.156 73.3568 283.182 73.5547 283.234C73.7526 283.281 73.9219 283.367 74.0625 283.492C74.2031 283.617 74.3099 283.789 74.3828 284.008C74.4609 284.221 74.5 284.495 74.5 284.828V290H76.6719V284.797C76.6719 284.182 76.599 283.661 76.4531 283.234C76.3125 282.802 76.1146 282.448 75.8594 282.172C75.599 281.901 75.2917 281.703 74.9375 281.578C74.5833 281.453 74.1927 281.391 73.7656 281.391C73.4323 281.391 73.1172 281.438 72.8203 281.531C72.5234 281.625 72.25 281.76 72 281.938C71.8542 282.042 71.7161 282.159 71.5859 282.289C71.4557 282.419 71.3359 282.562 71.2266 282.719L71.0938 281.547H69.125V290Z" fill="#553C9A"/>
<path d="M421.056 288.742C421.056 289.143 421.191 289.479 421.462 289.75C421.733 290.021 422.1 290.156 422.564 290.156C423.022 290.156 423.387 290.023 423.658 289.758C423.934 289.487 424.072 289.148 424.072 288.742C424.072 288.336 423.936 287.995 423.665 287.719C423.4 287.443 423.033 287.305 422.564 287.305C422.09 287.305 421.72 287.445 421.454 287.727C421.189 288.003 421.056 288.341 421.056 288.742ZM433.923 287.68C433.923 287.81 433.889 287.93 433.822 288.039C433.759 288.148 433.663 288.245 433.533 288.328C433.397 288.411 433.223 288.479 433.009 288.531C432.801 288.578 432.556 288.602 432.275 288.602C432.04 288.602 431.811 288.578 431.587 288.531C431.369 288.484 431.173 288.409 431.001 288.305C430.829 288.206 430.689 288.076 430.579 287.914C430.47 287.747 430.408 287.549 430.392 287.32H428.322C428.322 287.664 428.405 288.008 428.572 288.352C428.744 288.69 428.994 288.992 429.322 289.258C429.65 289.529 430.056 289.747 430.54 289.914C431.03 290.081 431.592 290.164 432.228 290.164C432.806 290.164 433.329 290.102 433.798 289.977C434.267 289.846 434.668 289.667 435.001 289.438C435.329 289.208 435.582 288.938 435.759 288.625C435.941 288.307 436.033 287.961 436.033 287.586C436.033 287.18 435.941 286.831 435.759 286.539C435.582 286.242 435.335 285.99 435.017 285.781C434.699 285.578 434.322 285.411 433.884 285.281C433.447 285.151 432.973 285.044 432.462 284.961C432.108 284.909 431.816 284.849 431.587 284.781C431.358 284.708 431.178 284.628 431.048 284.539C430.913 284.456 430.819 284.362 430.767 284.258C430.715 284.148 430.689 284.031 430.689 283.906C430.689 283.781 430.717 283.664 430.775 283.555C430.837 283.44 430.926 283.341 431.04 283.258C431.165 283.164 431.327 283.091 431.525 283.039C431.723 282.987 431.954 282.961 432.22 282.961C432.533 282.961 432.798 283 433.017 283.078C433.241 283.156 433.418 283.26 433.548 283.391C433.642 283.49 433.712 283.602 433.759 283.727C433.806 283.846 433.829 283.977 433.829 284.117H436.001C436.001 283.727 435.915 283.365 435.744 283.031C435.572 282.698 435.324 282.409 435.001 282.164C434.673 281.924 434.275 281.737 433.806 281.602C433.337 281.461 432.809 281.391 432.22 281.391C431.658 281.391 431.152 281.461 430.704 281.602C430.257 281.742 429.876 281.932 429.564 282.172C429.251 282.411 429.012 282.69 428.845 283.008C428.678 283.326 428.595 283.659 428.595 284.008C428.595 284.367 428.676 284.685 428.837 284.961C429.004 285.237 429.233 285.479 429.525 285.688C429.816 285.901 430.165 286.083 430.572 286.234C430.983 286.38 431.436 286.503 431.931 286.602C432.322 286.674 432.645 286.747 432.9 286.82C433.155 286.893 433.361 286.971 433.517 287.055C433.668 287.143 433.772 287.237 433.829 287.336C433.892 287.435 433.923 287.549 433.923 287.68ZM441.822 288.422C441.473 288.422 441.184 288.352 440.954 288.211C440.731 288.07 440.553 287.883 440.423 287.648C440.288 287.419 440.194 287.154 440.142 286.852C440.09 286.544 440.064 286.227 440.064 285.898V285.664C440.064 285.341 440.09 285.029 440.142 284.727C440.199 284.424 440.296 284.156 440.431 283.922C440.561 283.688 440.738 283.5 440.962 283.359C441.186 283.219 441.47 283.148 441.814 283.148C442.048 283.148 442.264 283.19 442.462 283.273C442.66 283.352 442.829 283.458 442.97 283.594C443.111 283.729 443.217 283.891 443.29 284.078C443.363 284.266 443.395 284.464 443.384 284.672H445.431C445.441 284.172 445.358 283.721 445.181 283.32C445.004 282.914 444.757 282.568 444.439 282.281C444.116 282 443.733 281.781 443.29 281.625C442.848 281.469 442.366 281.391 441.845 281.391C441.194 281.391 440.621 281.503 440.126 281.727C439.637 281.951 439.225 282.255 438.892 282.641C438.559 283.026 438.309 283.479 438.142 284C437.975 284.516 437.892 285.07 437.892 285.664V285.898C437.892 286.492 437.975 287.049 438.142 287.57C438.314 288.086 438.566 288.536 438.9 288.922C439.228 289.307 439.639 289.612 440.134 289.836C440.629 290.055 441.204 290.164 441.861 290.164C442.345 290.164 442.803 290.089 443.236 289.938C443.673 289.781 444.056 289.568 444.384 289.297C444.712 289.026 444.97 288.703 445.158 288.328C445.35 287.953 445.441 287.547 445.431 287.109H443.384C443.395 287.307 443.358 287.487 443.275 287.648C443.197 287.81 443.085 287.948 442.939 288.062C442.793 288.177 442.624 288.266 442.431 288.328C442.238 288.391 442.035 288.422 441.822 288.422ZM453.759 281.391C453.191 281.391 452.668 281.529 452.189 281.805C451.71 282.076 451.298 282.451 450.954 282.93L450.939 282.742L450.853 281.547H448.829V290H451.001V284.922C451.1 284.682 451.225 284.474 451.376 284.297C451.527 284.12 451.71 283.974 451.923 283.859C452.1 283.76 452.301 283.688 452.525 283.641C452.754 283.589 453.009 283.562 453.29 283.562C453.561 283.562 453.845 283.581 454.142 283.617C454.444 283.648 454.738 283.698 455.025 283.766L455.345 281.602C455.173 281.549 454.947 281.503 454.665 281.461C454.389 281.414 454.087 281.391 453.759 281.391ZM461.4 290.156C462.217 290.156 462.926 289.997 463.525 289.68C464.124 289.362 464.561 289.008 464.837 288.617L463.751 287.445C463.501 287.768 463.176 288.01 462.775 288.172C462.374 288.333 461.96 288.414 461.533 288.414C461.231 288.414 460.952 288.367 460.697 288.273C460.441 288.18 460.215 288.047 460.017 287.875C459.824 287.708 459.671 287.523 459.556 287.32C459.441 287.112 459.348 286.839 459.275 286.5V286.477H465.009V285.555C465.009 284.935 464.923 284.37 464.751 283.859C464.579 283.344 464.329 282.904 464.001 282.539C463.668 282.174 463.262 281.893 462.783 281.695C462.309 281.492 461.767 281.391 461.158 281.391C460.569 281.391 460.025 281.497 459.525 281.711C459.025 281.924 458.592 282.224 458.228 282.609C457.863 282.995 457.579 283.456 457.376 283.992C457.173 284.523 457.072 285.112 457.072 285.758V286.07C457.072 286.638 457.173 287.172 457.376 287.672C457.585 288.167 457.879 288.596 458.259 288.961C458.639 289.331 459.095 289.622 459.626 289.836C460.158 290.049 460.749 290.156 461.4 290.156ZM461.142 283.148C461.418 283.148 461.66 283.193 461.869 283.281C462.082 283.365 462.262 283.479 462.408 283.625C462.553 283.776 462.668 283.953 462.751 284.156C462.835 284.359 462.876 284.576 462.876 284.805V284.977H459.314C459.366 284.701 459.444 284.451 459.548 284.227C459.652 284.003 459.783 283.81 459.939 283.648C460.09 283.487 460.267 283.365 460.47 283.281C460.673 283.193 460.897 283.148 461.142 283.148ZM471.009 290.156C471.827 290.156 472.535 289.997 473.134 289.68C473.733 289.362 474.171 289.008 474.447 288.617L473.361 287.445C473.111 287.768 472.785 288.01 472.384 288.172C471.983 288.333 471.569 288.414 471.142 288.414C470.84 288.414 470.561 288.367 470.306 288.273C470.051 288.18 469.824 288.047 469.626 287.875C469.434 287.708 469.28 287.523 469.165 287.32C469.051 287.112 468.957 286.839 468.884 286.5V286.477H474.619V285.555C474.619 284.935 474.533 284.37 474.361 283.859C474.189 283.344 473.939 282.904 473.611 282.539C473.277 282.174 472.871 281.893 472.392 281.695C471.918 281.492 471.376 281.391 470.767 281.391C470.178 281.391 469.634 281.497 469.134 281.711C468.634 281.924 468.202 282.224 467.837 282.609C467.473 282.995 467.189 283.456 466.986 283.992C466.783 284.523 466.681 285.112 466.681 285.758V286.07C466.681 286.638 466.783 287.172 466.986 287.672C467.194 288.167 467.488 288.596 467.869 288.961C468.249 289.331 468.704 289.622 469.236 289.836C469.767 290.049 470.358 290.156 471.009 290.156ZM470.751 283.148C471.027 283.148 471.27 283.193 471.478 283.281C471.691 283.365 471.871 283.479 472.017 283.625C472.163 283.776 472.277 283.953 472.361 284.156C472.444 284.359 472.486 284.576 472.486 284.805V284.977H468.923C468.975 284.701 469.053 284.451 469.158 284.227C469.262 284.003 469.392 283.81 469.548 283.648C469.699 283.487 469.876 283.365 470.079 283.281C470.283 283.193 470.507 283.148 470.751 283.148ZM476.517 290H478.697V283.992C478.77 283.878 478.85 283.773 478.939 283.68C479.027 283.586 479.126 283.505 479.236 283.438C479.371 283.344 479.525 283.273 479.697 283.227C479.874 283.18 480.066 283.156 480.275 283.156C480.525 283.156 480.749 283.182 480.947 283.234C481.145 283.281 481.314 283.367 481.454 283.492C481.595 283.617 481.702 283.789 481.775 284.008C481.853 284.221 481.892 284.495 481.892 284.828V290H484.064V284.797C484.064 284.182 483.991 283.661 483.845 283.234C483.704 282.802 483.507 282.448 483.251 282.172C482.991 281.901 482.684 281.703 482.329 281.578C481.975 281.453 481.585 281.391 481.158 281.391C480.824 281.391 480.509 281.438 480.212 281.531C479.915 281.625 479.642 281.76 479.392 281.938C479.246 282.042 479.108 282.159 478.978 282.289C478.848 282.419 478.728 282.562 478.619 282.719L478.486 281.547H476.517V290Z" fill="#553C9A"/>
<rect x="10" y="271" width="296" height="4" fill="#805AD5"/>
<rect x="48" y="47" width="220" height="220" fill="#CBD5E0"/>
<path d="M61.6641 72.7422C61.6641 73.1432 61.7995 73.4792 62.0703 73.75C62.3411 74.0208 62.7083 74.1562 63.1719 74.1562C63.6302 74.1562 63.9948 74.0234 64.2656 73.7578C64.5417 73.487 64.6797 73.1484 64.6797 72.7422C64.6797 72.3359 64.5443 71.9948 64.2734 71.7188C64.0078 71.4427 63.6406 71.3047 63.1719 71.3047C62.6979 71.3047 62.3281 71.4453 62.0625 71.7266C61.7969 72.0026 61.6641 72.3411 61.6641 72.7422ZM72.8203 72.4219C72.4714 72.4219 72.1823 72.3516 71.9531 72.2109C71.7292 72.0703 71.5521 71.8828 71.4219 71.6484C71.2865 71.4193 71.1927 71.1536 71.1406 70.8516C71.0885 70.5443 71.0625 70.2266 71.0625 69.8984V69.6641C71.0625 69.3411 71.0885 69.0286 71.1406 68.7266C71.1979 68.4245 71.2943 68.1562 71.4297 67.9219C71.5599 67.6875 71.737 67.5 71.9609 67.3594C72.1849 67.2188 72.4688 67.1484 72.8125 67.1484C73.0469 67.1484 73.263 67.1901 73.4609 67.2734C73.6589 67.3516 73.8281 67.4583 73.9688 67.5938C74.1094 67.7292 74.2161 67.8906 74.2891 68.0781C74.362 68.2656 74.3932 68.4635 74.3828 68.6719H76.4297C76.4401 68.1719 76.3568 67.7214 76.1797 67.3203C76.0026 66.9141 75.7552 66.5677 75.4375 66.2812C75.1146 66 74.7318 65.7812 74.2891 65.625C73.8464 65.4688 73.3646 65.3906 72.8438 65.3906C72.1927 65.3906 71.6198 65.5026 71.125 65.7266C70.6354 65.9505 70.224 66.2552 69.8906 66.6406C69.5573 67.026 69.3073 67.4792 69.1406 68C68.974 68.5156 68.8906 69.0703 68.8906 69.6641V69.8984C68.8906 70.4922 68.974 71.0495 69.1406 71.5703C69.3125 72.0859 69.5651 72.5365 69.8984 72.9219C70.2266 73.3073 70.638 73.612 71.1328 73.8359C71.6276 74.0547 72.2031 74.1641 72.8594 74.1641C73.3438 74.1641 73.8021 74.0885 74.2344 73.9375C74.6719 73.7812 75.0547 73.5677 75.3828 73.2969C75.7109 73.026 75.9688 72.7031 76.1562 72.3281C76.349 71.9531 76.4401 71.5469 76.4297 71.1094H74.3828C74.3932 71.3073 74.3568 71.487 74.2734 71.6484C74.1953 71.8099 74.0833 71.9479 73.9375 72.0625C73.7917 72.1771 73.6224 72.2656 73.4297 72.3281C73.237 72.3906 73.0339 72.4219 72.8203 72.4219ZM84.2031 74H86.1719V65.5469H83.9922V71.4766C83.9245 71.612 83.8438 71.7344 83.75 71.8438C83.6562 71.9531 83.5495 72.0469 83.4297 72.125C83.2891 72.2135 83.125 72.2812 82.9375 72.3281C82.7552 72.375 82.5495 72.3984 82.3203 72.3984C82.0651 72.3984 81.849 72.3672 81.6719 72.3047C81.4948 72.2422 81.3516 72.138 81.2422 71.9922C81.1328 71.8516 81.0521 71.6641 81 71.4297C80.9531 71.1953 80.9297 70.9062 80.9297 70.5625V65.5469H78.7578V70.5469C78.7578 71.1875 78.8281 71.737 78.9688 72.1953C79.1146 72.6484 79.3177 73.0208 79.5781 73.3125C79.8385 73.6094 80.151 73.8255 80.5156 73.9609C80.8802 74.0964 81.2812 74.1641 81.7188 74.1641C82.1979 74.1641 82.638 74.0443 83.0391 73.8047C83.4453 73.5651 83.7917 73.2344 84.0781 72.8125L84.2031 74ZM95.9141 69.8594V69.6953C95.9141 69.1849 95.8672 68.7057 95.7734 68.2578C95.6849 67.8099 95.5469 67.4062 95.3594 67.0469C95.2396 66.8229 95.1016 66.6172 94.9453 66.4297C94.7891 66.237 94.6146 66.0729 94.4219 65.9375C94.1823 65.7604 93.9089 65.625 93.6016 65.5312C93.2995 65.4375 92.9661 65.3906 92.6016 65.3906C92.3359 65.3906 92.0885 65.4193 91.8594 65.4766C91.6354 65.5286 91.4271 65.6094 91.2344 65.7188C91.099 65.7917 90.9714 65.8802 90.8516 65.9844C90.7318 66.0833 90.6198 66.1927 90.5156 66.3125V62H88.3438V74H90.2969L90.3984 73.1016C90.487 73.2161 90.5807 73.3229 90.6797 73.4219C90.7786 73.5156 90.8854 73.6016 91 73.6797C91.2135 73.8359 91.4531 73.9531 91.7188 74.0312C91.9896 74.1146 92.2891 74.1562 92.6172 74.1562C92.9766 74.1562 93.3047 74.1094 93.6016 74.0156C93.9036 73.9271 94.1745 73.7969 94.4141 73.625C94.6797 73.4427 94.9089 73.2135 95.1016 72.9375C95.2995 72.6615 95.4583 72.3542 95.5781 72.0156C95.6875 71.7083 95.7708 71.375 95.8281 71.0156C95.8854 70.651 95.9141 70.2656 95.9141 69.8594ZM93.7422 69.6953V69.8594C93.7422 70.0781 93.7318 70.2891 93.7109 70.4922C93.6953 70.6953 93.6667 70.8828 93.625 71.0547C93.5729 71.2891 93.4948 71.5 93.3906 71.6875C93.2917 71.8698 93.1615 72.0182 93 72.1328C92.8854 72.2161 92.75 72.2812 92.5938 72.3281C92.4375 72.375 92.263 72.3984 92.0703 72.3984C91.8464 72.3984 91.6458 72.3724 91.4688 72.3203C91.2969 72.2682 91.1458 72.1927 91.0156 72.0938C90.9062 72.0156 90.8099 71.9245 90.7266 71.8203C90.6484 71.7109 90.5781 71.5911 90.5156 71.4609V68.0938C90.5625 67.9948 90.6146 67.9036 90.6719 67.8203C90.7292 67.7318 90.7917 67.6536 90.8594 67.5859C91 67.4453 91.1693 67.3385 91.3672 67.2656C91.5651 67.1927 91.7943 67.1562 92.0547 67.1562C92.2474 67.1562 92.4193 67.1797 92.5703 67.2266C92.7214 67.2682 92.8568 67.3333 92.9766 67.4219C93.1589 67.5625 93.2943 67.7188 93.3828 67.8906C93.4766 68.0573 93.5521 68.2474 93.6094 68.4609C93.6562 68.6432 93.6901 68.8385 93.7109 69.0469C93.7318 69.2552 93.7422 69.4714 93.7422 69.6953ZM97.6094 69.6953V69.8594C97.6094 70.4792 97.6979 71.0521 97.875 71.5781C98.0521 72.099 98.3125 72.5521 98.6562 72.9375C98.9948 73.3229 99.4115 73.625 99.9062 73.8438C100.406 74.0573 100.974 74.1641 101.609 74.1641C102.24 74.1641 102.802 74.0573 103.297 73.8438C103.792 73.625 104.208 73.3229 104.547 72.9375C104.885 72.5521 105.143 72.099 105.32 71.5781C105.497 71.0521 105.586 70.4792 105.586 69.8594V69.6953C105.586 69.0807 105.497 68.513 105.32 67.9922C105.143 67.4661 104.885 67.0104 104.547 66.625C104.203 66.2396 103.784 65.9375 103.289 65.7188C102.794 65.5 102.229 65.3906 101.594 65.3906C100.958 65.3906 100.393 65.5 99.8984 65.7188C99.4089 65.9375 98.9948 66.2396 98.6562 66.625C98.3125 67.0104 98.0521 67.4661 97.875 67.9922C97.6979 68.513 97.6094 69.0807 97.6094 69.6953ZM99.7812 69.8594V69.6953C99.7812 69.3516 99.8151 69.026 99.8828 68.7188C99.9505 68.4115 100.057 68.1406 100.203 67.9062C100.349 67.6719 100.536 67.487 100.766 67.3516C100.995 67.2161 101.271 67.1484 101.594 67.1484C101.922 67.1484 102.201 67.2161 102.43 67.3516C102.659 67.487 102.846 67.6719 102.992 67.9062C103.133 68.1406 103.237 68.4115 103.305 68.7188C103.372 69.026 103.406 69.3516 103.406 69.6953V69.8594C103.406 70.2135 103.372 70.5469 103.305 70.8594C103.237 71.1667 103.133 71.4349 102.992 71.6641C102.846 71.8984 102.659 72.0833 102.43 72.2188C102.201 72.3542 101.927 72.4219 101.609 72.4219C101.281 72.4219 101 72.3542 100.766 72.2188C100.536 72.0833 100.349 71.8984 100.203 71.6641C100.057 71.4349 99.9505 71.1667 99.8828 70.8594C99.8151 70.5469 99.7812 70.2135 99.7812 69.8594ZM108.094 65.5469V67.3203H110.5V72.2344H108.094V74H114.984V72.2344H112.695V65.5469H108.094ZM110.344 63.3828C110.344 63.5495 110.372 63.7057 110.43 63.8516C110.492 63.9922 110.578 64.112 110.688 64.2109C110.797 64.3151 110.927 64.3958 111.078 64.4531C111.234 64.5104 111.406 64.5391 111.594 64.5391C111.979 64.5391 112.284 64.4323 112.508 64.2188C112.737 64 112.852 63.7214 112.852 63.3828C112.852 63.0443 112.737 62.7682 112.508 62.5547C112.284 62.3359 111.979 62.2266 111.594 62.2266C111.406 62.2266 111.234 62.2552 111.078 62.3125C110.927 62.3698 110.797 62.4479 110.688 62.5469C110.578 62.651 110.492 62.776 110.43 62.9219C110.372 63.0625 110.344 63.2161 110.344 63.3828ZM116.898 69.7109V69.875C116.898 70.4896 116.974 71.0599 117.125 71.5859C117.276 72.1068 117.495 72.5573 117.781 72.9375C118.062 73.3177 118.406 73.6172 118.812 73.8359C119.224 74.0495 119.688 74.1562 120.203 74.1562C120.677 74.1562 121.094 74.0651 121.453 73.8828C121.812 73.7005 122.125 73.4453 122.391 73.1172L122.5 74H124.461V62H122.281V66.3047C122.021 66.013 121.721 65.7891 121.383 65.6328C121.049 65.4714 120.661 65.3906 120.219 65.3906C119.693 65.3906 119.224 65.4948 118.812 65.7031C118.406 65.9115 118.06 66.2057 117.773 66.5859C117.487 66.9661 117.268 67.4219 117.117 67.9531C116.971 68.4844 116.898 69.0703 116.898 69.7109ZM119.07 69.875V69.7109C119.07 69.3568 119.102 69.026 119.164 68.7188C119.227 68.4062 119.326 68.1328 119.461 67.8984C119.596 67.6693 119.771 67.4896 119.984 67.3594C120.203 67.224 120.466 67.1562 120.773 67.1562C121.143 67.1562 121.451 67.237 121.695 67.3984C121.94 67.5547 122.135 67.776 122.281 68.0625V71.4844C122.135 71.7656 121.938 71.987 121.688 72.1484C121.443 72.3099 121.133 72.3906 120.758 72.3906C120.451 72.3906 120.19 72.3255 119.977 72.1953C119.763 72.0651 119.589 71.8854 119.453 71.6562C119.318 71.4323 119.219 71.1693 119.156 70.8672C119.099 70.5599 119.07 70.2292 119.07 69.875Z" fill="black"/>
<path d="M51.6406 261.742C51.6406 262.143 51.776 262.479 52.0469 262.75C52.3177 263.021 52.6849 263.156 53.1484 263.156C53.6068 263.156 53.9714 263.023 54.2422 262.758C54.5182 262.487 54.6562 262.148 54.6562 261.742C54.6562 261.336 54.5208 260.995 54.25 260.719C53.9844 260.443 53.6172 260.305 53.1484 260.305C52.6745 260.305 52.3047 260.445 52.0391 260.727C51.7734 261.003 51.6406 261.341 51.6406 261.742ZM61.1562 263H63.3359V256.148H66.3828V254.547H63.3359V254.086C63.3359 253.836 63.3672 253.612 63.4297 253.414C63.4974 253.216 63.599 253.049 63.7344 252.914C63.8854 252.753 64.0885 252.63 64.3438 252.547C64.599 252.464 64.9089 252.422 65.2734 252.422C65.612 252.422 65.9062 252.438 66.1562 252.469C66.4062 252.5 66.6302 252.536 66.8281 252.578L66.9688 250.875C66.7917 250.844 66.6198 250.815 66.4531 250.789C66.2917 250.763 66.1302 250.74 65.9688 250.719C65.8073 250.698 65.6406 250.682 65.4688 250.672C65.3021 250.656 65.1276 250.648 64.9453 250.648C64.3672 250.648 63.8438 250.724 63.375 250.875C62.9062 251.021 62.5078 251.24 62.1797 251.531C61.8516 251.823 61.599 252.182 61.4219 252.609C61.2448 253.036 61.1562 253.529 61.1562 254.086V254.547H58.9375V256.148H61.1562V263ZM73.9453 263H76.1484V262.867C76.0391 262.654 75.9557 262.398 75.8984 262.102C75.8411 261.805 75.8125 261.43 75.8125 260.977V257.352C75.8125 256.862 75.7214 256.432 75.5391 256.062C75.3568 255.688 75.1042 255.378 74.7812 255.133C74.4583 254.888 74.0755 254.703 73.6328 254.578C73.1953 254.453 72.7214 254.391 72.2109 254.391C71.6432 254.391 71.138 254.464 70.6953 254.609C70.2578 254.75 69.888 254.943 69.5859 255.188C69.2786 255.432 69.0443 255.716 68.8828 256.039C68.7266 256.362 68.6484 256.703 68.6484 257.062H70.8203C70.8203 256.911 70.8411 256.773 70.8828 256.648C70.9297 256.523 71 256.417 71.0938 256.328C71.1979 256.229 71.3333 256.154 71.5 256.102C71.6667 256.044 71.8646 256.016 72.0938 256.016C72.3542 256.016 72.5807 256.049 72.7734 256.117C72.9714 256.18 73.1354 256.271 73.2656 256.391C73.3906 256.505 73.4844 256.643 73.5469 256.805C73.6094 256.961 73.6406 257.138 73.6406 257.336V257.836H72.4297C71.8047 257.836 71.25 257.893 70.7656 258.008C70.2865 258.117 69.8828 258.279 69.5547 258.492C69.1901 258.727 68.9167 259.026 68.7344 259.391C68.5521 259.75 68.4609 260.164 68.4609 260.633C68.4609 260.997 68.5339 261.336 68.6797 261.648C68.8255 261.956 69.0286 262.221 69.2891 262.445C69.5495 262.669 69.8594 262.844 70.2188 262.969C70.5833 263.094 70.9818 263.156 71.4141 263.156C71.6797 263.156 71.9271 263.13 72.1562 263.078C72.3854 263.031 72.5964 262.964 72.7891 262.875C72.9766 262.792 73.1484 262.693 73.3047 262.578C73.4609 262.464 73.599 262.341 73.7188 262.211C73.7448 262.362 73.776 262.505 73.8125 262.641C73.849 262.776 73.8932 262.896 73.9453 263ZM71.875 261.477C71.6719 261.477 71.4922 261.453 71.3359 261.406C71.1849 261.354 71.0573 261.286 70.9531 261.203C70.849 261.115 70.7682 261.008 70.7109 260.883C70.6589 260.753 70.6328 260.612 70.6328 260.461C70.6328 260.268 70.6693 260.091 70.7422 259.93C70.8151 259.763 70.9271 259.62 71.0781 259.5C71.2292 259.385 71.4245 259.297 71.6641 259.234C71.9036 259.167 72.1927 259.133 72.5312 259.133H73.6406V260.586C73.5781 260.695 73.4922 260.805 73.3828 260.914C73.2734 261.018 73.1432 261.112 72.9922 261.195C72.8411 261.279 72.6719 261.346 72.4844 261.398C72.2969 261.451 72.0938 261.477 71.875 261.477ZM82.0156 261.422C81.6667 261.422 81.3776 261.352 81.1484 261.211C80.9245 261.07 80.7474 260.883 80.6172 260.648C80.4818 260.419 80.388 260.154 80.3359 259.852C80.2839 259.544 80.2578 259.227 80.2578 258.898V258.664C80.2578 258.341 80.2839 258.029 80.3359 257.727C80.3932 257.424 80.4896 257.156 80.625 256.922C80.7552 256.688 80.9323 256.5 81.1562 256.359C81.3802 256.219 81.6641 256.148 82.0078 256.148C82.2422 256.148 82.4583 256.19 82.6562 256.273C82.8542 256.352 83.0234 256.458 83.1641 256.594C83.3047 256.729 83.4115 256.891 83.4844 257.078C83.5573 257.266 83.5885 257.464 83.5781 257.672H85.625C85.6354 257.172 85.5521 256.721 85.375 256.32C85.1979 255.914 84.9505 255.568 84.6328 255.281C84.3099 255 83.9271 254.781 83.4844 254.625C83.0417 254.469 82.5599 254.391 82.0391 254.391C81.388 254.391 80.8151 254.503 80.3203 254.727C79.8307 254.951 79.4193 255.255 79.0859 255.641C78.7526 256.026 78.5026 256.479 78.3359 257C78.1693 257.516 78.0859 258.07 78.0859 258.664V258.898C78.0859 259.492 78.1693 260.049 78.3359 260.57C78.5078 261.086 78.7604 261.536 79.0938 261.922C79.4219 262.307 79.8333 262.612 80.3281 262.836C80.8229 263.055 81.3984 263.164 82.0547 263.164C82.5391 263.164 82.9974 263.089 83.4297 262.938C83.8672 262.781 84.25 262.568 84.5781 262.297C84.9062 262.026 85.1641 261.703 85.3516 261.328C85.5443 260.953 85.6354 260.547 85.625 260.109H83.5781C83.5885 260.307 83.5521 260.487 83.4688 260.648C83.3906 260.81 83.2786 260.948 83.1328 261.062C82.987 261.177 82.8177 261.266 82.625 261.328C82.4323 261.391 82.2292 261.422 82.0156 261.422ZM91.9844 263.156C92.8021 263.156 93.5104 262.997 94.1094 262.68C94.7083 262.362 95.1458 262.008 95.4219 261.617L94.3359 260.445C94.0859 260.768 93.7604 261.01 93.3594 261.172C92.9583 261.333 92.5443 261.414 92.1172 261.414C91.8151 261.414 91.5365 261.367 91.2812 261.273C91.026 261.18 90.7995 261.047 90.6016 260.875C90.4089 260.708 90.2552 260.523 90.1406 260.32C90.026 260.112 89.9323 259.839 89.8594 259.5V259.477H95.5938V258.555C95.5938 257.935 95.5078 257.37 95.3359 256.859C95.1641 256.344 94.9141 255.904 94.5859 255.539C94.2526 255.174 93.8464 254.893 93.3672 254.695C92.8932 254.492 92.3516 254.391 91.7422 254.391C91.1536 254.391 90.6094 254.497 90.1094 254.711C89.6094 254.924 89.1771 255.224 88.8125 255.609C88.4479 255.995 88.1641 256.456 87.9609 256.992C87.7578 257.523 87.6562 258.112 87.6562 258.758V259.07C87.6562 259.638 87.7578 260.172 87.9609 260.672C88.1693 261.167 88.4635 261.596 88.8438 261.961C89.224 262.331 89.6797 262.622 90.2109 262.836C90.7422 263.049 91.3333 263.156 91.9844 263.156ZM91.7266 256.148C92.0026 256.148 92.2448 256.193 92.4531 256.281C92.6667 256.365 92.8464 256.479 92.9922 256.625C93.138 256.776 93.2526 256.953 93.3359 257.156C93.4193 257.359 93.4609 257.576 93.4609 257.805V257.977H89.8984C89.9505 257.701 90.0286 257.451 90.1328 257.227C90.237 257.003 90.3672 256.81 90.5234 256.648C90.6745 256.487 90.8516 256.365 91.0547 256.281C91.2578 256.193 91.4818 256.148 91.7266 256.148ZM105.102 258.859V257.102H98.5938V258.859H105.102ZM114.711 258.859V257.102H108.203V258.859H114.711ZM118.812 263H120.992V256.148H124.039V254.547H120.992V254.086C120.992 253.836 121.023 253.612 121.086 253.414C121.154 253.216 121.255 253.049 121.391 252.914C121.542 252.753 121.745 252.63 122 252.547C122.255 252.464 122.565 252.422 122.93 252.422C123.268 252.422 123.562 252.438 123.812 252.469C124.062 252.5 124.286 252.536 124.484 252.578L124.625 250.875C124.448 250.844 124.276 250.815 124.109 250.789C123.948 250.763 123.786 250.74 123.625 250.719C123.464 250.698 123.297 250.682 123.125 250.672C122.958 250.656 122.784 250.648 122.602 250.648C122.023 250.648 121.5 250.724 121.031 250.875C120.562 251.021 120.164 251.24 119.836 251.531C119.508 251.823 119.255 252.182 119.078 252.609C118.901 253.036 118.812 253.529 118.812 254.086V254.547H116.594V256.148H118.812V263ZM132.391 254.391C131.823 254.391 131.299 254.529 130.82 254.805C130.341 255.076 129.93 255.451 129.586 255.93L129.57 255.742L129.484 254.547H127.461V263H129.633V257.922C129.732 257.682 129.857 257.474 130.008 257.297C130.159 257.12 130.341 256.974 130.555 256.859C130.732 256.76 130.932 256.688 131.156 256.641C131.385 256.589 131.641 256.562 131.922 256.562C132.193 256.562 132.477 256.581 132.773 256.617C133.076 256.648 133.37 256.698 133.656 256.766L133.977 254.602C133.805 254.549 133.578 254.503 133.297 254.461C133.021 254.414 132.719 254.391 132.391 254.391ZM135.633 258.695V258.859C135.633 259.479 135.721 260.052 135.898 260.578C136.076 261.099 136.336 261.552 136.68 261.938C137.018 262.323 137.435 262.625 137.93 262.844C138.43 263.057 138.997 263.164 139.633 263.164C140.263 263.164 140.826 263.057 141.32 262.844C141.815 262.625 142.232 262.323 142.57 261.938C142.909 261.552 143.167 261.099 143.344 260.578C143.521 260.052 143.609 259.479 143.609 258.859V258.695C143.609 258.081 143.521 257.513 143.344 256.992C143.167 256.466 142.909 256.01 142.57 255.625C142.227 255.24 141.807 254.938 141.312 254.719C140.818 254.5 140.253 254.391 139.617 254.391C138.982 254.391 138.417 254.5 137.922 254.719C137.432 254.938 137.018 255.24 136.68 255.625C136.336 256.01 136.076 256.466 135.898 256.992C135.721 257.513 135.633 258.081 135.633 258.695ZM137.805 258.859V258.695C137.805 258.352 137.839 258.026 137.906 257.719C137.974 257.411 138.081 257.141 138.227 256.906C138.372 256.672 138.56 256.487 138.789 256.352C139.018 256.216 139.294 256.148 139.617 256.148C139.945 256.148 140.224 256.216 140.453 256.352C140.682 256.487 140.87 256.672 141.016 256.906C141.156 257.141 141.26 257.411 141.328 257.719C141.396 258.026 141.43 258.352 141.43 258.695V258.859C141.43 259.214 141.396 259.547 141.328 259.859C141.26 260.167 141.156 260.435 141.016 260.664C140.87 260.898 140.682 261.083 140.453 261.219C140.224 261.354 139.951 261.422 139.633 261.422C139.305 261.422 139.023 261.354 138.789 261.219C138.56 261.083 138.372 260.898 138.227 260.664C138.081 260.435 137.974 260.167 137.906 259.859C137.839 259.547 137.805 259.214 137.805 258.859ZM145.539 263H147.719V256.992C147.792 256.878 147.872 256.773 147.961 256.68C148.049 256.586 148.148 256.505 148.258 256.438C148.393 256.344 148.547 256.273 148.719 256.227C148.896 256.18 149.089 256.156 149.297 256.156C149.547 256.156 149.771 256.182 149.969 256.234C150.167 256.281 150.336 256.367 150.477 256.492C150.617 256.617 150.724 256.789 150.797 257.008C150.875 257.221 150.914 257.495 150.914 257.828V263H153.086V257.797C153.086 257.182 153.013 256.661 152.867 256.234C152.727 255.802 152.529 255.448 152.273 255.172C152.013 254.901 151.706 254.703 151.352 254.578C150.997 254.453 150.607 254.391 150.18 254.391C149.846 254.391 149.531 254.438 149.234 254.531C148.938 254.625 148.664 254.76 148.414 254.938C148.268 255.042 148.13 255.159 148 255.289C147.87 255.419 147.75 255.562 147.641 255.719L147.508 254.547H145.539V263ZM159.133 252.477H156.961V254.547H155.031V256.148H156.961V259.992C156.961 260.549 157.034 261.029 157.18 261.43C157.326 261.826 157.534 262.151 157.805 262.406C158.07 262.667 158.391 262.859 158.766 262.984C159.146 263.104 159.568 263.164 160.031 263.164C160.271 263.164 160.513 263.151 160.758 263.125C161.008 263.104 161.247 263.073 161.477 263.031C161.706 262.99 161.922 262.938 162.125 262.875C162.328 262.807 162.505 262.729 162.656 262.641L162.445 261.148C162.346 261.174 162.227 261.201 162.086 261.227C161.951 261.253 161.805 261.276 161.648 261.297C161.487 261.323 161.318 261.344 161.141 261.359C160.969 261.375 160.799 261.383 160.633 261.383C160.404 261.383 160.195 261.357 160.008 261.305C159.826 261.253 159.669 261.164 159.539 261.039C159.409 260.919 159.307 260.758 159.234 260.555C159.167 260.346 159.133 260.089 159.133 259.781V256.148H162.289V254.547H159.133V252.477Z" fill="#97266D"/>
<path d="M252.258 50.6406C251.857 50.6406 251.521 50.776 251.25 51.0469C250.979 51.3177 250.844 51.6849 250.844 52.1484C250.844 52.6068 250.977 52.9714 251.242 53.2422C251.513 53.5182 251.852 53.6562 252.258 53.6562C252.664 53.6562 253.005 53.5208 253.281 53.25C253.557 52.9844 253.695 52.6172 253.695 52.1484C253.695 51.6745 253.555 51.3047 253.273 51.0391C252.997 50.7734 252.659 50.6406 252.258 50.6406ZM251 60.1562L251 62.3359L257.852 62.3359L257.852 65.3828L259.453 65.3828L259.453 62.3359L259.914 62.3359C260.164 62.3359 260.388 62.3672 260.586 62.4297C260.784 62.4974 260.951 62.599 261.086 62.7344C261.247 62.8854 261.37 63.0885 261.453 63.3437C261.536 63.599 261.578 63.9089 261.578 64.2734C261.578 64.612 261.562 64.9062 261.531 65.1562C261.5 65.4062 261.464 65.6302 261.422 65.8281L263.125 65.9687C263.156 65.7917 263.185 65.6198 263.211 65.4531C263.237 65.2917 263.26 65.1302 263.281 64.9687C263.302 64.8073 263.318 64.6406 263.328 64.4687C263.344 64.3021 263.352 64.1276 263.352 63.9453C263.352 63.3672 263.276 62.8437 263.125 62.375C262.979 61.9062 262.76 61.5078 262.469 61.1797C262.177 60.8516 261.818 60.599 261.391 60.4219C260.964 60.2448 260.471 60.1562 259.914 60.1562L259.453 60.1562L259.453 57.9375L257.852 57.9375L257.852 60.1562L251 60.1562ZM251 72.9453L251 75.1484L251.133 75.1484C251.346 75.0391 251.602 74.9557 251.898 74.8984C252.195 74.8411 252.57 74.8125 253.023 74.8125L256.648 74.8125C257.138 74.8125 257.568 74.7214 257.937 74.5391C258.312 74.3568 258.622 74.1042 258.867 73.7812C259.112 73.4583 259.297 73.0755 259.422 72.6328C259.547 72.1953 259.609 71.7214 259.609 71.2109C259.609 70.6432 259.536 70.138 259.391 69.6953C259.25 69.2578 259.057 68.888 258.812 68.5859C258.568 68.2786 258.284 68.0443 257.961 67.8828C257.638 67.7266 257.297 67.6484 256.937 67.6484L256.937 69.8203C257.089 69.8203 257.227 69.8411 257.352 69.8828C257.477 69.9297 257.583 70 257.672 70.0937C257.771 70.1979 257.846 70.3333 257.898 70.5C257.956 70.6667 257.984 70.8646 257.984 71.0937C257.984 71.3542 257.951 71.5807 257.883 71.7734C257.82 71.9714 257.729 72.1354 257.609 72.2656C257.495 72.3906 257.357 72.4844 257.195 72.5469C257.039 72.6094 256.862 72.6406 256.664 72.6406L256.164 72.6406L256.164 71.4297C256.164 70.8047 256.107 70.25 255.992 69.7656C255.883 69.2865 255.721 68.8828 255.508 68.5547C255.273 68.1901 254.974 67.9167 254.609 67.7344C254.25 67.5521 253.836 67.4609 253.367 67.4609C253.003 67.4609 252.664 67.5339 252.352 67.6797C252.044 67.8255 251.779 68.0286 251.555 68.2891C251.331 68.5495 251.156 68.8594 251.031 69.2187C250.906 69.5833 250.844 69.9818 250.844 70.4141C250.844 70.6797 250.87 70.9271 250.922 71.1562C250.969 71.3854 251.036 71.5964 251.125 71.7891C251.208 71.9766 251.307 72.1484 251.422 72.3047C251.536 72.4609 251.659 72.599 251.789 72.7187C251.638 72.7448 251.495 72.776 251.359 72.8125C251.224 72.849 251.104 72.8932 251 72.9453ZM252.523 70.875C252.523 70.6719 252.547 70.4922 252.594 70.3359C252.646 70.1849 252.714 70.0573 252.797 69.9531C252.885 69.849 252.992 69.7682 253.117 69.7109C253.247 69.6589 253.388 69.6328 253.539 69.6328C253.732 69.6328 253.909 69.6693 254.07 69.7422C254.237 69.8151 254.38 69.9271 254.5 70.0781C254.615 70.2292 254.703 70.4245 254.766 70.6641C254.833 70.9036 254.867 71.1927 254.867 71.5312L254.867 72.6406L253.414 72.6406C253.305 72.5781 253.195 72.4922 253.086 72.3828C252.982 72.2734 252.888 72.1432 252.805 71.9922C252.721 71.8411 252.654 71.6719 252.602 71.4844C252.549 71.2969 252.523 71.0937 252.523 70.875ZM252.578 81.0156C252.578 80.6667 252.648 80.3776 252.789 80.1484C252.93 79.9245 253.117 79.7474 253.352 79.6172C253.581 79.4818 253.846 79.388 254.148 79.3359C254.456 79.2839 254.773 79.2578 255.102 79.2578L255.336 79.2578C255.659 79.2578 255.971 79.2839 256.273 79.3359C256.576 79.3932 256.844 79.4896 257.078 79.625C257.312 79.7552 257.5 79.9323 257.641 80.1562C257.781 80.3802 257.852 80.6641 257.852 81.0078C257.852 81.2422 257.81 81.4583 257.727 81.6562C257.648 81.8542 257.542 82.0234 257.406 82.1641C257.271 82.3047 257.109 82.4115 256.922 82.4844C256.734 82.5573 256.536 82.5885 256.328 82.5781L256.328 84.625C256.828 84.6354 257.279 84.5521 257.68 84.375C258.086 84.1979 258.432 83.9505 258.719 83.6328C259 83.3099 259.219 82.9271 259.375 82.4844C259.531 82.0417 259.609 81.5599 259.609 81.0391C259.609 80.388 259.497 79.8151 259.273 79.3203C259.049 78.8307 258.745 78.4193 258.359 78.0859C257.974 77.7526 257.521 77.5026 257 77.3359C256.484 77.1693 255.93 77.0859 255.336 77.0859L255.102 77.0859C254.508 77.0859 253.951 77.1693 253.43 77.3359C252.914 77.5078 252.464 77.7604 252.078 78.0937C251.693 78.4219 251.388 78.8333 251.164 79.3281C250.945 79.8229 250.836 80.3984 250.836 81.0547C250.836 81.5391 250.911 81.9974 251.062 82.4297C251.219 82.8672 251.432 83.25 251.703 83.5781C251.974 83.9062 252.297 84.1641 252.672 84.3516C253.047 84.5443 253.453 84.6354 253.891 84.625L253.891 82.5781C253.693 82.5885 253.513 82.5521 253.352 82.4687C253.19 82.3906 253.052 82.2786 252.937 82.1328C252.823 81.987 252.734 81.8177 252.672 81.625C252.609 81.4323 252.578 81.2292 252.578 81.0156ZM250.844 90.9844C250.844 91.8021 251.003 92.5104 251.32 93.1094C251.638 93.7083 251.992 94.1458 252.383 94.4219L253.555 93.3359C253.232 93.0859 252.99 92.7604 252.828 92.3594C252.667 91.9583 252.586 91.5443 252.586 91.1172C252.586 90.8151 252.633 90.5365 252.727 90.2812C252.82 90.026 252.953 89.7995 253.125 89.6016C253.292 89.4089 253.477 89.2552 253.68 89.1406C253.888 89.026 254.161 88.9323 254.5 88.8594L254.523 88.8594L254.523 94.5937L255.445 94.5937C256.065 94.5937 256.63 94.5078 257.141 94.3359C257.656 94.1641 258.096 93.9141 258.461 93.5859C258.826 93.2526 259.107 92.8464 259.305 92.3672C259.508 91.8932 259.609 91.3516 259.609 90.7422C259.609 90.1536 259.503 89.6094 259.289 89.1094C259.076 88.6094 258.776 88.1771 258.391 87.8125C258.005 87.4479 257.544 87.1641 257.008 86.9609C256.477 86.7578 255.888 86.6562 255.242 86.6562L254.93 86.6562C254.362 86.6562 253.828 86.7578 253.328 86.9609C252.833 87.1693 252.404 87.4635 252.039 87.8437C251.669 88.224 251.378 88.6797 251.164 89.2109C250.951 89.7422 250.844 90.3333 250.844 90.9844ZM257.852 90.7266C257.852 91.0026 257.807 91.2448 257.719 91.4531C257.635 91.6667 257.521 91.8464 257.375 91.9922C257.224 92.138 257.047 92.2526 256.844 92.3359C256.641 92.4193 256.424 92.4609 256.195 92.4609L256.023 92.4609L256.023 88.8984C256.299 88.9505 256.549 89.0286 256.773 89.1328C256.997 89.237 257.19 89.3672 257.352 89.5234C257.513 89.6745 257.635 89.8516 257.719 90.0547C257.807 90.2578 257.852 90.4818 257.852 90.7266ZM255.141 104.102L256.898 104.102L256.898 97.5937L255.141 97.5937L255.141 104.102ZM255.141 113.711L256.898 113.711L256.898 107.203L255.141 107.203L255.141 113.711ZM259.609 121.781C259.609 121.214 259.471 120.69 259.195 120.211C258.924 119.732 258.549 119.32 258.07 118.977L258.258 118.961L259.453 118.875L259.453 116.852L251 116.852L251 119.023L256.078 119.023C256.318 119.122 256.526 119.247 256.703 119.398C256.88 119.549 257.026 119.732 257.141 119.945C257.24 120.122 257.312 120.323 257.359 120.547C257.411 120.776 257.437 121.031 257.437 121.312C257.437 121.583 257.419 121.867 257.383 122.164C257.352 122.466 257.302 122.76 257.234 123.047L259.398 123.367C259.451 123.195 259.497 122.969 259.539 122.687C259.586 122.411 259.609 122.109 259.609 121.781ZM259.453 125.898L257.68 125.898L257.68 128.305L252.766 128.305L252.766 125.898L251 125.898L251 132.789L252.766 132.789L252.766 130.5L259.453 130.5L259.453 125.898ZM261.617 128.148C261.451 128.148 261.294 128.177 261.148 128.234C261.008 128.297 260.888 128.383 260.789 128.492C260.685 128.602 260.604 128.732 260.547 128.883C260.49 129.039 260.461 129.211 260.461 129.398C260.461 129.784 260.568 130.089 260.781 130.312C261 130.542 261.279 130.656 261.617 130.656C261.956 130.656 262.232 130.542 262.445 130.312C262.664 130.089 262.773 129.784 262.773 129.398C262.773 129.211 262.745 129.039 262.687 128.883C262.63 128.732 262.552 128.602 262.453 128.492C262.349 128.383 262.224 128.297 262.078 128.234C261.937 128.177 261.784 128.148 261.617 128.148ZM255.289 134.711L255.125 134.711C254.51 134.711 253.94 134.789 253.414 134.945C252.893 135.107 252.443 135.336 252.062 135.633C251.682 135.93 251.383 136.286 251.164 136.703C250.951 137.125 250.844 137.599 250.844 138.125C250.844 138.391 250.872 138.638 250.93 138.867C250.987 139.102 251.068 139.315 251.172 139.508C251.245 139.638 251.328 139.76 251.422 139.875C251.516 139.99 251.62 140.099 251.734 140.203L251.25 140.203C250.964 140.203 250.706 140.161 250.477 140.078C250.247 140 250.055 139.885 249.898 139.734C249.727 139.568 249.596 139.359 249.508 139.109C249.419 138.865 249.375 138.583 249.375 138.266C249.375 138.068 249.396 137.875 249.437 137.687C249.474 137.505 249.531 137.328 249.609 137.156C249.687 136.979 249.789 136.81 249.914 136.648C250.034 136.487 250.174 136.336 250.336 136.195L249.016 135.219C248.781 135.401 248.581 135.62 248.414 135.875C248.242 136.13 248.102 136.401 247.992 136.687C247.883 136.974 247.802 137.263 247.75 137.555C247.698 137.846 247.672 138.12 247.672 138.375C247.672 138.969 247.753 139.51 247.914 140C248.07 140.495 248.302 140.919 248.609 141.273C248.917 141.622 249.294 141.893 249.742 142.086C250.19 142.284 250.701 142.383 251.273 142.383L259.453 142.383L259.453 140.406L258.648 140.32C258.779 140.216 258.896 140.102 259 139.977C259.109 139.852 259.203 139.716 259.281 139.57C259.391 139.378 259.471 139.161 259.523 138.922C259.581 138.687 259.609 138.427 259.609 138.141C259.609 137.609 259.505 137.133 259.297 136.711C259.089 136.289 258.794 135.93 258.414 135.633C258.034 135.336 257.578 135.107 257.047 134.945C256.516 134.789 255.93 134.711 255.289 134.711ZM255.125 136.891L255.289 136.891C255.643 136.891 255.974 136.927 256.281 137C256.594 137.073 256.867 137.185 257.102 137.336C257.331 137.482 257.51 137.667 257.641 137.891C257.776 138.115 257.844 138.38 257.844 138.687C257.844 138.854 257.828 139.008 257.797 139.148C257.766 139.294 257.721 139.427 257.664 139.547C257.596 139.687 257.508 139.812 257.398 139.922C257.289 140.031 257.161 140.125 257.016 140.203L253.437 140.203C253.307 140.13 253.19 140.044 253.086 139.945C252.982 139.846 252.893 139.732 252.82 139.602C252.753 139.477 252.701 139.336 252.664 139.18C252.628 139.029 252.609 138.859 252.609 138.672C252.609 138.365 252.674 138.099 252.805 137.875C252.935 137.651 253.115 137.466 253.344 137.32C253.568 137.174 253.831 137.065 254.133 136.992C254.44 136.924 254.771 136.891 255.125 136.891ZM258.289 146.711L263 146.711L263 144.539L251 144.539L251 146.711L257.102 146.711C257.211 146.794 257.31 146.885 257.398 146.984C257.487 147.089 257.562 147.203 257.625 147.328C257.698 147.464 257.753 147.615 257.789 147.781C257.826 147.948 257.844 148.128 257.844 148.32C257.844 148.57 257.81 148.794 257.742 148.992C257.68 149.19 257.581 149.359 257.445 149.5C257.31 149.641 257.133 149.747 256.914 149.82C256.695 149.898 256.435 149.937 256.133 149.937L251 149.937L251 152.109L256.117 152.109C256.737 152.109 257.266 152.034 257.703 151.883C258.146 151.737 258.508 151.531 258.789 151.266C259.07 151 259.276 150.682 259.406 150.312C259.542 149.943 259.609 149.536 259.609 149.094C259.609 148.792 259.565 148.505 259.477 148.234C259.388 147.964 259.263 147.716 259.102 147.492C258.997 147.346 258.875 147.206 258.734 147.07C258.599 146.94 258.451 146.82 258.289 146.711ZM261.523 158.133L261.523 155.961L259.453 155.961L259.453 154.031L257.852 154.031L257.852 155.961L254.008 155.961C253.451 155.961 252.971 156.034 252.57 156.18C252.174 156.326 251.849 156.534 251.594 156.805C251.333 157.07 251.141 157.391 251.016 157.766C250.896 158.146 250.836 158.568 250.836 159.031C250.836 159.271 250.849 159.513 250.875 159.758C250.896 160.008 250.927 160.247 250.969 160.477C251.01 160.706 251.062 160.922 251.125 161.125C251.193 161.328 251.271 161.505 251.359 161.656L252.852 161.445C252.826 161.346 252.799 161.227 252.773 161.086C252.747 160.951 252.724 160.805 252.703 160.648C252.677 160.487 252.656 160.318 252.641 160.141C252.625 159.969 252.617 159.799 252.617 159.633C252.617 159.404 252.643 159.195 252.695 159.008C252.747 158.826 252.836 158.669 252.961 158.539C253.081 158.409 253.242 158.307 253.445 158.234C253.654 158.167 253.911 158.133 254.219 158.133L257.852 158.133L257.852 161.289L259.453 161.289L259.453 158.133L261.523 158.133Z" fill="#97266D"/>
<rect x="48" y="267" width="220" height="4" fill="#D53F8C"/>
<rect x="268" y="267" width="220" height="4" transform="rotate(-90 268 267)" fill="#D53F8C"/>
<rect x="567.392" y="0.608093" width="220" height="220" transform="rotate(45 567.392 0.608093)" fill="#CBD5E0"/>
<path d="M558.851 28.4725C558.568 28.7561 558.426 29.0894 558.426 29.4724C558.426 29.8554 558.59 30.2108 558.918 30.5386C559.242 30.8627 559.594 31.0266 559.973 31.0303C560.36 31.034 560.697 30.8922 560.984 30.6049C561.271 30.3176 561.417 29.9807 561.42 29.594C561.428 29.2109 561.266 28.8537 560.934 28.5223C560.599 28.1871 560.238 28.0251 559.851 28.0361C559.468 28.0435 559.135 28.189 558.851 28.4725ZM566.967 36.1347C566.72 35.8879 566.565 35.6338 566.503 35.3724C566.444 35.1146 566.451 34.8568 566.525 34.599C566.591 34.3412 566.712 34.087 566.889 33.8366C567.07 33.5825 567.276 33.3394 567.508 33.1074L567.674 32.9417C567.902 32.7133 568.141 32.5108 568.392 32.334C568.646 32.1609 568.904 32.0394 569.165 31.9694C569.423 31.8957 569.681 31.8884 569.939 31.9473C570.196 32.0062 570.447 32.1572 570.69 32.4003C570.856 32.566 570.979 32.7483 571.06 32.9472C571.145 33.1424 571.189 33.3376 571.193 33.5328C571.196 33.728 571.158 33.9176 571.077 34.1018C570.996 34.2859 570.878 34.448 570.723 34.5879L572.17 36.0353C572.531 35.6891 572.791 35.3116 572.949 34.9028C573.111 34.4903 573.181 34.0705 573.159 33.6433C573.13 33.216 573.014 32.7907 572.811 32.3671C572.609 31.9436 572.323 31.5477 571.955 31.1794C571.495 30.7191 571.01 30.3931 570.502 30.2016C569.998 30.0138 569.491 29.9383 568.983 29.9751C568.475 30.012 567.978 30.1556 567.491 30.406C567.009 30.6528 566.558 30.9861 566.138 31.4059L565.972 31.5717C565.552 31.9915 565.217 32.4445 564.967 32.9306C564.724 33.4168 564.584 33.9139 564.547 34.4222C564.506 34.9267 564.582 35.4331 564.773 35.9414C564.969 36.4459 565.298 36.9302 565.762 37.3942C566.105 37.7367 566.482 38.0074 566.895 38.2063C567.315 38.4052 567.736 38.5249 568.16 38.5654C568.583 38.6059 568.994 38.5599 569.392 38.4273C569.793 38.2984 570.145 38.0756 570.447 37.7588L569 36.3115C568.867 36.4588 568.714 36.5601 568.541 36.6153C568.372 36.6742 568.195 36.6927 568.011 36.6706C567.827 36.6485 567.644 36.5914 567.464 36.4993C567.283 36.4072 567.118 36.2857 566.967 36.1347ZM573.9 45.2995L575.292 46.6916L581.269 40.7143L579.728 39.173L575.535 43.366C575.391 43.4138 575.247 43.4433 575.104 43.4544C574.96 43.4654 574.818 43.4562 574.678 43.4267C574.516 43.3899 574.353 43.3218 574.187 43.2223C574.025 43.1266 573.863 42.9977 573.701 42.8356C573.52 42.6552 573.389 42.4802 573.308 42.3108C573.227 42.1414 573.2 41.9665 573.226 41.786C573.248 41.6093 573.323 41.4196 573.452 41.217C573.585 41.0182 573.773 40.7972 574.016 40.5541L577.562 37.0075L576.026 35.4718L572.491 39.0073C572.038 39.4603 571.699 39.8986 571.474 40.3221C571.257 40.7456 571.137 41.1526 571.115 41.543C571.09 41.937 571.158 42.3108 571.32 42.6644C571.482 43.0179 571.717 43.3494 572.027 43.6588C572.366 43.9976 572.762 44.2241 573.215 44.3382C573.671 44.4561 574.15 44.4671 574.651 44.3714L573.9 45.2995ZM585.108 50.6525L585.224 50.5365C585.585 50.1756 585.891 49.8036 586.141 49.4206C586.395 49.0412 586.583 48.6582 586.705 48.2715C586.778 48.0285 586.826 47.7854 586.848 47.5423C586.874 47.2956 586.867 47.0562 586.826 46.8242C586.782 46.5295 586.685 46.2404 586.534 45.9569C586.386 45.677 586.184 45.4081 585.926 45.1503C585.738 44.9625 585.543 44.8078 585.34 44.6863C585.145 44.5647 584.941 44.4745 584.727 44.4156C584.58 44.3714 584.427 44.3438 584.269 44.3327C584.114 44.318 583.957 44.3161 583.799 44.3272L586.848 41.2778L585.313 39.742L576.827 48.2273L578.208 49.6084L578.916 49.0449C578.897 49.1886 578.888 49.3303 578.888 49.4703C578.892 49.6066 578.906 49.7428 578.932 49.8791C578.973 50.1406 579.059 50.3928 579.192 50.6359C579.324 50.8863 579.507 51.1276 579.739 51.3596C579.993 51.6137 580.258 51.8126 580.534 51.9562C580.81 52.1072 581.094 52.2066 581.385 52.2545C581.702 52.3134 582.026 52.3134 582.357 52.2545C582.692 52.1993 583.022 52.0943 583.346 51.9396C583.641 51.7997 583.935 51.6229 584.23 51.4093C584.528 51.192 584.821 50.9397 585.108 50.6525ZM583.689 49.0007L583.573 49.1167C583.418 49.2714 583.261 49.4132 583.103 49.5421C582.948 49.6747 582.795 49.787 582.644 49.8791C582.442 50.008 582.238 50.1019 582.031 50.1608C581.832 50.2198 581.635 50.2326 581.44 50.1995C581.3 50.1774 581.158 50.1277 581.015 50.0503C580.871 49.973 580.731 49.8662 580.595 49.7299C580.437 49.5716 580.313 49.4114 580.225 49.2493C580.14 49.091 580.087 48.9308 580.065 48.7687C580.043 48.6361 580.039 48.5035 580.054 48.371C580.076 48.2384 580.111 48.104 580.159 47.9677L582.54 45.5867C582.643 45.5499 582.744 45.5223 582.843 45.5039C582.946 45.4818 583.046 45.4707 583.142 45.4707C583.341 45.4707 583.536 45.5149 583.727 45.6033C583.919 45.6917 584.107 45.828 584.291 46.0121C584.427 46.1484 584.532 46.2865 584.606 46.4264C584.683 46.5627 584.733 46.7045 584.755 46.8518C584.784 47.0801 584.769 47.2864 584.711 47.4705C584.659 47.6546 584.578 47.8425 584.467 48.034C584.372 48.196 584.258 48.3581 584.125 48.5201C583.992 48.6822 583.847 48.8424 583.689 49.0007ZM586.423 51.7352L586.307 51.8513C585.869 52.2895 585.526 52.7572 585.28 53.2544C585.036 53.7479 584.9 54.2525 584.871 54.7681C584.838 55.28 584.919 55.7882 585.114 56.2928C585.316 56.7973 585.642 57.2742 586.092 57.7236C586.537 58.1692 587.01 58.4914 587.511 58.6903C588.016 58.8855 588.524 58.9665 589.036 58.9334C589.548 58.9002 590.051 58.7621 590.544 58.519C591.041 58.2723 591.509 57.9298 591.947 57.4915L592.063 57.3755C592.498 56.9409 592.837 56.4769 593.08 55.9834C593.327 55.4862 593.467 54.9817 593.5 54.4698C593.529 53.9542 593.446 53.4441 593.251 52.9395C593.056 52.435 592.734 51.9581 592.284 51.5087C591.835 51.0594 591.358 50.7372 590.854 50.542C590.353 50.3505 589.846 50.2713 589.334 50.3045C588.819 50.3339 588.312 50.472 587.815 50.7188C587.322 50.9618 586.858 51.3007 586.423 51.7352ZM587.843 53.387L587.959 53.271C588.202 53.0279 588.456 52.8217 588.721 52.6523C588.986 52.4829 589.253 52.3669 589.522 52.3042C589.791 52.2416 590.054 52.2435 590.312 52.3098C590.57 52.3761 590.813 52.5234 591.041 52.7517C591.273 52.9837 591.423 53.2286 591.489 53.4864C591.555 53.7442 591.557 54.0076 591.494 54.2764C591.428 54.5416 591.31 54.8067 591.141 55.0719C590.971 55.3371 590.765 55.5912 590.522 55.8343L590.406 55.9503C590.156 56.2007 589.896 56.4125 589.627 56.5856C589.362 56.755 589.099 56.871 588.837 56.9336C588.568 56.9962 588.305 56.9943 588.047 56.9281C587.789 56.8618 587.548 56.7163 587.324 56.4916C587.092 56.2596 586.941 56.0129 586.871 55.7514C586.804 55.4936 586.802 55.2303 586.865 54.9614C586.924 54.6963 587.038 54.4311 587.208 54.1659C587.381 53.8971 587.592 53.6374 587.843 53.387ZM596.77 56.2154L595.516 57.4694L597.218 59.1709L593.743 62.6457L592.041 60.9442L590.793 62.1927L595.665 67.0651L596.914 65.8166L595.295 64.198L600.024 59.4692L596.77 56.2154ZM599.891 56.2762C599.773 56.394 599.683 56.5248 599.621 56.6684C599.565 56.812 599.541 56.9575 599.549 57.1048C599.552 57.2558 599.587 57.405 599.654 57.5523C599.724 57.7033 599.825 57.8451 599.958 57.9777C600.23 58.2502 600.521 58.3901 600.83 58.3975C601.147 58.4049 601.425 58.2889 601.665 58.0495C601.904 57.8101 602.018 57.5339 602.007 57.2208C602.003 56.9078 601.865 56.615 601.593 56.3425C601.46 56.2099 601.318 56.1086 601.167 56.0387C601.02 55.9724 600.873 55.9355 600.725 55.9282C600.574 55.9245 600.425 55.9521 600.278 56.011C600.138 56.07 600.009 56.1583 599.891 56.2762ZM600.051 65.3857L599.935 65.5017C599.501 65.9363 599.151 66.393 598.886 66.8717C598.624 67.3468 598.46 67.8201 598.394 68.2915C598.324 68.7592 598.356 69.214 598.488 69.656C598.628 70.0979 598.88 70.5012 599.245 70.8658C599.58 71.2009 599.939 71.4311 600.322 71.5563C600.705 71.6815 601.107 71.7221 601.526 71.6779L600.98 72.3794L602.366 73.766L610.851 65.2808L609.31 63.7395L606.266 66.7834C606.288 66.393 606.235 66.0229 606.106 65.673C605.985 65.3231 605.767 64.9917 605.454 64.6786C605.082 64.3066 604.677 64.0488 604.239 63.9052C603.804 63.7653 603.351 63.7284 602.88 63.7947C602.408 63.861 601.932 64.0286 601.449 64.2974C600.97 64.57 600.504 64.9327 600.051 65.3857ZM601.471 67.0375L601.587 66.9215C601.838 66.671 602.094 66.4593 602.355 66.2862C602.62 66.1094 602.884 65.986 603.145 65.916C603.403 65.8498 603.653 65.8461 603.896 65.905C604.147 65.9639 604.381 66.102 604.598 66.3193C604.859 66.5808 605.02 66.8552 605.079 67.1424C605.141 67.426 605.123 67.7206 605.023 68.0263L602.604 70.446C602.302 70.5417 602.005 70.5583 601.714 70.4957C601.427 70.4367 601.151 70.2747 600.886 70.0095C600.668 69.7922 600.53 69.5621 600.471 69.319C600.412 69.0759 600.416 68.8255 600.482 68.5677C600.545 68.3136 600.661 68.0576 600.83 67.7998C601.007 67.542 601.221 67.2879 601.471 67.0375Z" fill="black"/>
<path d="M418.121 155.028C417.837 155.312 417.695 155.645 417.695 156.028C417.695 156.411 417.859 156.766 418.187 157.094C418.511 157.418 418.863 157.582 419.242 157.586C419.629 157.589 419.966 157.448 420.253 157.16C420.54 156.873 420.686 156.536 420.689 156.149C420.697 155.766 420.535 155.409 420.203 155.078C419.868 154.743 419.507 154.581 419.121 154.592C418.738 154.599 418.404 154.744 418.121 155.028ZM423.96 162.646L425.501 164.187L430.346 159.343L432.5 161.497L433.633 160.364L431.478 158.21L431.804 157.884C431.981 157.707 432.161 157.571 432.346 157.475C432.533 157.383 432.723 157.337 432.915 157.337C433.136 157.33 433.366 157.387 433.605 157.508C433.845 157.63 434.093 157.82 434.351 158.077C434.59 158.317 434.787 158.536 434.942 158.735C435.097 158.934 435.229 159.118 435.34 159.287L436.644 158.182C436.54 158.035 436.439 157.893 436.34 157.757C436.244 157.624 436.146 157.494 436.047 157.365C435.947 157.236 435.841 157.107 435.726 156.978C435.62 156.849 435.502 156.72 435.373 156.591C434.964 156.183 434.541 155.866 434.102 155.641C433.668 155.413 433.231 155.286 432.793 155.26C432.355 155.234 431.922 155.31 431.495 155.487C431.068 155.663 430.657 155.949 430.263 156.343L429.937 156.669L428.368 155.1L427.236 156.232L428.805 157.801L423.96 162.646ZM433.003 171.689L434.561 173.247L434.655 173.153C434.728 172.925 434.85 172.685 435.019 172.435C435.189 172.185 435.434 171.899 435.754 171.579L438.317 169.016C438.664 168.669 438.903 168.301 439.036 167.911C439.172 167.517 439.212 167.119 439.157 166.717C439.102 166.316 438.962 165.915 438.737 165.513C438.516 165.115 438.225 164.736 437.864 164.375C437.463 163.974 437.054 163.668 436.638 163.458C436.229 163.248 435.831 163.123 435.445 163.082C435.054 163.038 434.688 163.073 434.345 163.187C434.007 163.305 433.71 163.491 433.456 163.745L434.992 165.281C435.099 165.174 435.211 165.091 435.329 165.033C435.45 164.977 435.575 164.951 435.704 164.955C435.848 164.959 435.997 165.001 436.152 165.082C436.31 165.16 436.47 165.279 436.632 165.441C436.817 165.625 436.953 165.81 437.041 165.994C437.137 166.178 437.189 166.358 437.196 166.535C437.203 166.705 437.172 166.868 437.102 167.027C437.036 167.181 436.933 167.329 436.793 167.469L436.439 167.822L435.583 166.966C435.141 166.524 434.708 166.172 434.285 165.911C433.868 165.649 433.469 165.478 433.086 165.397C432.662 165.305 432.257 165.323 431.871 165.452C431.488 165.578 431.13 165.806 430.799 166.137C430.541 166.395 430.353 166.686 430.235 167.01C430.121 167.331 430.077 167.662 430.103 168.005C430.129 168.347 430.224 168.69 430.39 169.032C430.559 169.378 430.797 169.704 431.103 170.01C431.291 170.198 431.484 170.354 431.683 170.479C431.878 170.608 432.075 170.71 432.274 170.783C432.465 170.857 432.657 170.908 432.848 170.938C433.04 170.967 433.224 170.978 433.401 170.971C433.312 171.096 433.233 171.22 433.163 171.341C433.093 171.463 433.04 171.579 433.003 171.689ZM432.616 169.148C432.473 169.004 432.362 168.861 432.285 168.717C432.215 168.574 432.173 168.435 432.158 168.303C432.147 168.167 432.165 168.034 432.213 167.905C432.268 167.776 432.349 167.658 432.456 167.552C432.592 167.415 432.743 167.316 432.909 167.253C433.079 167.187 433.259 167.165 433.45 167.187C433.638 167.213 433.839 167.288 434.053 167.413C434.27 167.535 434.498 167.715 434.738 167.955L435.522 168.739L434.495 169.767C434.373 169.8 434.235 169.817 434.08 169.817C433.929 169.813 433.771 169.787 433.605 169.739C433.439 169.691 433.272 169.619 433.102 169.524C432.933 169.428 432.771 169.303 432.616 169.148ZM439.826 176.28C439.579 176.033 439.424 175.779 439.361 175.518C439.303 175.26 439.31 175.002 439.384 174.744C439.45 174.486 439.571 174.232 439.748 173.982C439.929 173.728 440.135 173.485 440.367 173.253L440.533 173.087C440.761 172.859 441 172.656 441.251 172.479C441.505 172.306 441.763 172.185 442.024 172.115C442.282 172.041 442.54 172.034 442.798 172.093C443.055 172.151 443.306 172.302 443.549 172.546C443.715 172.711 443.838 172.894 443.919 173.092C444.004 173.288 444.048 173.483 444.052 173.678C444.055 173.873 444.017 174.063 443.936 174.247C443.855 174.431 443.737 174.593 443.582 174.733L445.029 176.18C445.39 175.834 445.65 175.457 445.808 175.048C445.97 174.636 446.04 174.216 446.018 173.788C445.989 173.361 445.873 172.936 445.67 172.512C445.468 172.089 445.182 171.693 444.814 171.325C444.354 170.864 443.869 170.538 443.361 170.347C442.856 170.159 442.35 170.084 441.842 170.12C441.334 170.157 440.836 170.301 440.35 170.551C439.868 170.798 439.417 171.131 438.997 171.551L438.831 171.717C438.411 172.137 438.076 172.59 437.826 173.076C437.583 173.562 437.443 174.059 437.406 174.567C437.365 175.072 437.441 175.578 437.632 176.087C437.828 176.591 438.157 177.075 438.621 177.539C438.964 177.882 439.341 178.153 439.754 178.352C440.174 178.55 440.595 178.67 441.019 178.711C441.442 178.751 441.853 178.705 442.251 178.572C442.652 178.444 443.004 178.221 443.306 177.904L441.858 176.457C441.726 176.604 441.573 176.705 441.4 176.761C441.231 176.819 441.054 176.838 440.87 176.816C440.685 176.794 440.503 176.737 440.323 176.645C440.142 176.552 439.976 176.431 439.826 176.28ZM445.648 184.555C446.226 185.133 446.839 185.522 447.488 185.721C448.136 185.92 448.696 185.979 449.167 185.898L449.228 184.301C448.823 184.353 448.421 184.294 448.024 184.124C447.626 183.955 447.276 183.719 446.974 183.417C446.76 183.204 446.596 182.973 446.482 182.727C446.368 182.48 446.302 182.226 446.283 181.964C446.265 181.71 446.287 181.471 446.35 181.246C446.416 181.018 446.543 180.758 446.731 180.467L446.747 180.451L450.802 184.506L451.454 183.854C451.892 183.415 452.231 182.955 452.471 182.473C452.714 181.986 452.848 181.499 452.874 181.009C452.896 180.515 452.808 180.029 452.609 179.55C452.417 179.072 452.106 178.617 451.675 178.186C451.259 177.77 450.799 177.46 450.294 177.258C449.789 177.055 449.272 176.961 448.742 176.976C448.211 176.991 447.685 177.116 447.162 177.352C446.642 177.584 446.154 177.928 445.698 178.385L445.477 178.606C445.075 179.007 444.77 179.456 444.56 179.954C444.357 180.451 444.261 180.963 444.273 181.489C444.28 182.02 444.396 182.548 444.621 183.075C444.845 183.601 445.188 184.095 445.648 184.555ZM450.421 179.418C450.616 179.613 450.756 179.815 450.841 180.025C450.933 180.235 450.979 180.443 450.979 180.65C450.975 180.86 450.931 181.066 450.846 181.268C450.762 181.471 450.638 181.653 450.476 181.815L450.355 181.937L447.836 179.418C448.068 179.259 448.3 179.138 448.532 179.053C448.764 178.968 448.992 178.924 449.217 178.921C449.438 178.913 449.649 178.952 449.852 179.037C450.058 179.118 450.248 179.245 450.421 179.418ZM457.962 190.792L459.205 189.549L454.603 184.947L453.36 186.19L457.962 190.792ZM464.757 197.587L465.999 196.344L461.398 191.742L460.155 192.985L464.757 197.587ZM464.729 203.415L466.27 204.956L471.115 200.112L473.269 202.266L474.402 201.134L472.247 198.979L472.573 198.653C472.75 198.476 472.931 198.34 473.115 198.244C473.303 198.152 473.492 198.106 473.684 198.106C473.905 198.099 474.135 198.156 474.374 198.278C474.614 198.399 474.862 198.589 475.12 198.847C475.359 199.086 475.556 199.305 475.711 199.504C475.866 199.703 475.998 199.887 476.109 200.056L477.413 198.952C477.31 198.804 477.208 198.662 477.109 198.526C477.013 198.394 476.915 198.263 476.816 198.134C476.717 198.005 476.61 197.876 476.496 197.747C476.389 197.618 476.271 197.489 476.142 197.361C475.733 196.952 475.31 196.635 474.871 196.41C474.437 196.182 474 196.055 473.562 196.029C473.124 196.003 472.691 196.079 472.264 196.256C471.837 196.432 471.426 196.718 471.032 197.112L470.706 197.438L469.137 195.869L468.005 197.001L469.574 198.57L464.729 203.415ZM480.418 206.929C480.016 206.527 479.549 206.255 479.015 206.111C478.484 205.964 477.928 205.938 477.346 206.034L477.468 205.89L478.252 204.984L476.822 203.553L470.844 209.531L472.38 211.066L475.971 207.475C476.21 207.376 476.446 207.317 476.678 207.299C476.91 207.28 477.142 207.306 477.374 207.376C477.569 207.431 477.763 207.522 477.954 207.647C478.153 207.772 478.352 207.934 478.551 208.133C478.742 208.324 478.93 208.538 479.114 208.774C479.306 209.009 479.479 209.252 479.633 209.503L481.39 208.199C481.305 208.041 481.178 207.847 481.009 207.619C480.847 207.391 480.65 207.161 480.418 206.929ZM479.667 212.265L479.551 212.381C479.112 212.819 478.77 213.287 478.523 213.784C478.28 214.278 478.144 214.782 478.114 215.298C478.081 215.81 478.162 216.318 478.357 216.823C478.56 217.327 478.886 217.804 479.335 218.253C479.781 218.699 480.254 219.021 480.755 219.22C481.259 219.415 481.768 219.496 482.28 219.463C482.791 219.43 483.294 219.292 483.788 219.049C484.285 218.802 484.753 218.46 485.191 218.021L485.307 217.905C485.741 217.471 486.08 217.007 486.323 216.513C486.57 216.016 486.71 215.511 486.743 215C486.773 214.484 486.69 213.974 486.495 213.469C486.299 212.965 485.977 212.488 485.528 212.039C485.078 211.589 484.602 211.267 484.097 211.072C483.596 210.88 483.09 210.801 482.578 210.834C482.062 210.864 481.556 211.002 481.059 211.249C480.565 211.492 480.101 211.83 479.667 212.265ZM481.086 213.917L481.202 213.801C481.445 213.558 481.699 213.351 481.965 213.182C482.23 213.013 482.497 212.897 482.766 212.834C483.035 212.771 483.298 212.773 483.556 212.84C483.813 212.906 484.057 213.053 484.285 213.281C484.517 213.514 484.666 213.758 484.732 214.016C484.799 214.274 484.8 214.537 484.738 214.806C484.672 215.071 484.554 215.337 484.384 215.602C484.215 215.867 484.009 216.121 483.766 216.364L483.65 216.48C483.399 216.73 483.139 216.942 482.871 217.115C482.605 217.285 482.342 217.401 482.081 217.463C481.812 217.526 481.548 217.524 481.291 217.458C481.033 217.392 480.792 217.246 480.567 217.021C480.335 216.789 480.184 216.543 480.114 216.281C480.048 216.023 480.046 215.76 480.108 215.491C480.167 215.226 480.282 214.961 480.451 214.696C480.624 214.427 480.836 214.167 481.086 213.917ZM483.627 222.314L485.169 223.855L489.417 219.607C489.549 219.577 489.68 219.561 489.809 219.557C489.938 219.553 490.065 219.566 490.19 219.596C490.352 219.625 490.511 219.684 490.665 219.773C490.824 219.865 490.977 219.984 491.124 220.132C491.301 220.308 491.441 220.485 491.544 220.662C491.651 220.835 491.709 221.015 491.721 221.203C491.732 221.391 491.686 221.588 491.582 221.794C491.487 222.001 491.321 222.222 491.085 222.457L487.428 226.114L488.964 227.65L492.643 223.971C493.078 223.536 493.394 223.117 493.593 222.711C493.799 222.306 493.91 221.916 493.925 221.54C493.932 221.165 493.855 220.807 493.693 220.469C493.531 220.13 493.299 219.809 492.997 219.507C492.761 219.272 492.505 219.082 492.229 218.938C491.953 218.795 491.663 218.697 491.361 218.646C491.185 218.616 491.004 218.601 490.82 218.601C490.636 218.601 490.45 218.618 490.262 218.651L490.997 217.729L489.605 216.336L483.627 222.314ZM500.681 224.485L499.145 222.949L497.681 224.413L496.317 223.048L495.184 224.181L496.549 225.545L493.831 228.263C493.437 228.657 493.149 229.048 492.969 229.434C492.792 229.817 492.709 230.195 492.72 230.567C492.724 230.939 492.814 231.302 492.991 231.655C493.175 232.009 493.431 232.349 493.759 232.677C493.928 232.847 494.109 233.009 494.3 233.163C494.492 233.325 494.683 233.473 494.875 233.605C495.066 233.738 495.256 233.854 495.444 233.953C495.635 234.049 495.816 234.119 495.985 234.163L496.891 232.959C496.803 232.907 496.7 232.841 496.582 232.76C496.468 232.683 496.348 232.596 496.223 232.5C496.09 232.405 495.956 232.3 495.82 232.186C495.687 232.075 495.562 231.961 495.444 231.843C495.282 231.681 495.153 231.515 495.057 231.346C494.965 231.18 494.917 231.007 494.914 230.827C494.906 230.65 494.949 230.464 495.041 230.269C495.14 230.073 495.298 229.867 495.516 229.65L498.084 227.081L500.316 229.313L501.449 228.18L499.217 225.949L500.681 224.485Z" fill="#97266D"/>
<path d="M709.25 147.614C708.966 147.331 708.633 147.189 708.25 147.189C707.867 147.189 707.512 147.353 707.184 147.681C706.86 148.005 706.696 148.357 706.692 148.736C706.688 149.123 706.83 149.46 707.117 149.747C707.405 150.034 707.742 150.18 708.128 150.183C708.511 150.191 708.869 150.029 709.2 149.697C709.535 149.362 709.697 149.001 709.686 148.614C709.679 148.231 709.533 147.898 709.25 147.614ZM701.632 153.454L700.091 154.995L704.935 159.84L702.781 161.994L703.913 163.127L706.068 160.972L706.394 161.298C706.571 161.475 706.707 161.655 706.803 161.839C706.895 162.027 706.941 162.217 706.941 162.408C706.948 162.629 706.891 162.86 706.769 163.099C706.648 163.338 706.458 163.587 706.2 163.845C705.961 164.084 705.742 164.281 705.543 164.436C705.344 164.591 705.16 164.723 704.991 164.834L706.095 166.137C706.243 166.034 706.385 165.933 706.521 165.834C706.653 165.738 706.784 165.64 706.913 165.541C707.042 165.441 707.171 165.334 707.3 165.22C707.429 165.114 707.558 164.996 707.686 164.867C708.095 164.458 708.412 164.034 708.637 163.596C708.865 163.162 708.992 162.725 709.018 162.287C709.044 161.849 708.968 161.416 708.791 160.989C708.615 160.562 708.329 160.151 707.935 159.757L707.609 159.431L709.178 157.862L708.046 156.73L706.477 158.298L701.632 153.454ZM692.589 162.497L691.031 164.055L691.125 164.149C691.353 164.222 691.592 164.344 691.843 164.513C692.093 164.683 692.379 164.928 692.699 165.248L695.262 167.811C695.609 168.157 695.977 168.397 696.367 168.529C696.761 168.666 697.159 168.706 697.56 168.651C697.962 168.596 698.363 168.456 698.765 168.231C699.163 168.01 699.542 167.719 699.903 167.358C700.304 166.957 700.61 166.548 700.82 166.132C701.03 165.723 701.155 165.325 701.195 164.939C701.24 164.548 701.205 164.182 701.09 163.839C700.973 163.5 700.787 163.204 700.533 162.95L698.997 164.486C699.104 164.592 699.186 164.705 699.245 164.823C699.301 164.944 699.326 165.069 699.323 165.198C699.319 165.342 699.277 165.491 699.196 165.646C699.118 165.804 698.999 165.964 698.837 166.126C698.652 166.31 698.468 166.447 698.284 166.535C698.1 166.631 697.92 166.682 697.743 166.69C697.573 166.697 697.409 166.666 697.251 166.596C697.096 166.53 696.949 166.426 696.809 166.287L696.456 165.933L697.312 165.077C697.754 164.635 698.106 164.202 698.367 163.778C698.629 163.362 698.8 162.963 698.881 162.58C698.973 162.156 698.954 161.751 698.826 161.364C698.7 160.981 698.472 160.624 698.141 160.293C697.883 160.035 697.592 159.847 697.268 159.729C696.947 159.615 696.616 159.571 696.273 159.597C695.931 159.622 695.588 159.718 695.246 159.884C694.9 160.053 694.574 160.291 694.268 160.597C694.08 160.784 693.924 160.978 693.798 161.177C693.67 161.372 693.568 161.569 693.495 161.768C693.421 161.959 693.369 162.151 693.34 162.342C693.31 162.534 693.299 162.718 693.307 162.895C693.182 162.806 693.058 162.727 692.937 162.657C692.815 162.587 692.699 162.534 692.589 162.497ZM695.13 162.11C695.273 161.967 695.417 161.856 695.561 161.779C695.704 161.709 695.842 161.666 695.975 161.652C696.111 161.641 696.244 161.659 696.373 161.707C696.502 161.762 696.62 161.843 696.726 161.95C696.863 162.086 696.962 162.237 697.025 162.403C697.091 162.572 697.113 162.753 697.091 162.944C697.065 163.132 696.99 163.333 696.864 163.546C696.743 163.764 696.562 163.992 696.323 164.231L695.539 165.016L694.511 163.988C694.478 163.867 694.461 163.729 694.461 163.574C694.465 163.423 694.491 163.265 694.539 163.099C694.587 162.933 694.658 162.766 694.754 162.596C694.85 162.427 694.975 162.265 695.13 162.11ZM687.998 169.319C688.245 169.073 688.499 168.918 688.76 168.855C689.018 168.796 689.276 168.804 689.534 168.877C689.792 168.944 690.046 169.065 690.296 169.242C690.55 169.422 690.793 169.629 691.025 169.861L691.191 170.026C691.419 170.255 691.622 170.494 691.799 170.745C691.972 170.999 692.093 171.257 692.163 171.518C692.237 171.776 692.244 172.034 692.185 172.291C692.126 172.549 691.975 172.8 691.732 173.043C691.567 173.208 691.384 173.332 691.185 173.413C690.99 173.498 690.795 173.542 690.6 173.545C690.405 173.549 690.215 173.51 690.031 173.429C689.847 173.348 689.685 173.231 689.545 173.076L688.097 174.523C688.444 174.884 688.821 175.144 689.23 175.302C689.642 175.464 690.062 175.534 690.489 175.512C690.917 175.483 691.342 175.367 691.766 175.164C692.189 174.961 692.585 174.676 692.953 174.308C693.414 173.847 693.74 173.363 693.931 172.855C694.119 172.35 694.194 171.844 694.158 171.336C694.121 170.827 693.977 170.33 693.727 169.844C693.48 169.362 693.147 168.911 692.727 168.491L692.561 168.325C692.141 167.905 691.688 167.57 691.202 167.32C690.716 167.076 690.219 166.937 689.71 166.9C689.206 166.859 688.7 166.935 688.191 167.126C687.687 167.321 687.202 167.651 686.738 168.115C686.396 168.458 686.125 168.835 685.926 169.248C685.727 169.667 685.608 170.089 685.567 170.513C685.527 170.936 685.573 171.347 685.705 171.744C685.834 172.146 686.057 172.498 686.374 172.8L687.821 171.352C687.674 171.22 687.573 171.067 687.517 170.894C687.458 170.724 687.44 170.548 687.462 170.363C687.484 170.179 687.541 169.997 687.633 169.817C687.725 169.636 687.847 169.47 687.998 169.319ZM679.723 175.142C679.144 175.72 678.756 176.333 678.557 176.981C678.358 177.63 678.299 178.189 678.38 178.661L679.977 178.722C679.925 178.317 679.984 177.915 680.154 177.517C680.323 177.12 680.559 176.77 680.861 176.468C681.074 176.254 681.304 176.09 681.551 175.976C681.798 175.862 682.052 175.796 682.313 175.777C682.568 175.759 682.807 175.781 683.032 175.843C683.26 175.91 683.52 176.037 683.811 176.225L683.827 176.241L679.772 180.296L680.424 180.948C680.862 181.386 681.323 181.725 681.805 181.964C682.291 182.207 682.779 182.342 683.269 182.368C683.763 182.39 684.249 182.301 684.728 182.102C685.206 181.911 685.661 181.6 686.092 181.169C686.508 180.753 686.818 180.292 687.02 179.788C687.223 179.283 687.317 178.766 687.302 178.236C687.287 177.705 687.162 177.179 686.926 176.656C686.694 176.136 686.35 175.648 685.893 175.192L685.672 174.971C685.271 174.569 684.822 174.264 684.324 174.054C683.827 173.851 683.315 173.755 682.789 173.766C682.258 173.774 681.73 173.89 681.203 174.114C680.676 174.339 680.183 174.682 679.723 175.142ZM684.86 179.915C684.665 180.11 684.462 180.25 684.253 180.335C684.043 180.427 683.835 180.473 683.628 180.473C683.418 180.469 683.212 180.425 683.01 180.34C682.807 180.256 682.625 180.132 682.463 179.97L682.341 179.849L684.86 177.33C685.019 177.562 685.14 177.794 685.225 178.026C685.309 178.258 685.354 178.486 685.357 178.711C685.365 178.932 685.326 179.143 685.241 179.346C685.16 179.552 685.033 179.742 684.86 179.915ZM673.486 187.456L674.729 188.698L679.33 184.097L678.087 182.854L673.486 187.456ZM666.691 194.25L667.934 195.493L672.536 190.892L671.293 189.649L666.691 194.25ZM664.144 203.117C664.546 202.715 664.818 202.248 664.962 201.714C665.109 201.183 665.135 200.627 665.039 200.045L665.183 200.167L666.089 200.951L667.519 199.521L661.542 193.543L660.006 195.079L663.597 198.67C663.697 198.909 663.756 199.145 663.774 199.377C663.792 199.609 663.767 199.841 663.697 200.073C663.641 200.268 663.551 200.461 663.426 200.653C663.301 200.852 663.139 201.051 662.94 201.25C662.748 201.441 662.535 201.629 662.299 201.813C662.063 202.005 661.82 202.178 661.57 202.332L662.874 204.089C663.032 204.004 663.225 203.877 663.454 203.708C663.682 203.546 663.912 203.349 664.144 203.117ZM661.122 205.918L659.868 204.664L658.167 206.365L654.692 202.89L656.394 201.189L655.145 199.94L650.273 204.813L651.521 206.061L653.14 204.443L657.869 209.171L661.122 205.918ZM661.062 209.039C660.944 208.921 660.813 208.831 660.669 208.768C660.526 208.713 660.38 208.689 660.233 208.696C660.082 208.7 659.933 208.735 659.786 208.801C659.635 208.871 659.493 208.973 659.36 209.105C659.088 209.378 658.948 209.669 658.94 209.978C658.933 210.295 659.049 210.573 659.288 210.812C659.528 211.052 659.804 211.166 660.117 211.155C660.43 211.151 660.723 211.013 660.995 210.74C661.128 210.608 661.229 210.466 661.299 210.315C661.365 210.168 661.402 210.02 661.41 209.873C661.413 209.722 661.386 209.573 661.327 209.426C661.268 209.286 661.179 209.157 661.062 209.039ZM651.947 209.205L651.831 209.089C651.396 208.654 650.937 208.306 650.455 208.044C649.973 207.79 649.492 207.634 649.013 207.575C648.534 207.516 648.07 207.556 647.621 207.696C647.172 207.844 646.761 208.103 646.389 208.475C646.201 208.663 646.047 208.858 645.925 209.061C645.8 209.267 645.706 209.475 645.643 209.685C645.603 209.829 645.575 209.974 645.561 210.122C645.546 210.269 645.542 210.42 645.549 210.575L645.207 210.232C645.004 210.03 644.852 209.818 644.748 209.597C644.642 209.38 644.586 209.162 644.583 208.945C644.579 208.706 644.634 208.466 644.748 208.227C644.859 207.991 645.027 207.761 645.251 207.536C645.391 207.396 645.542 207.275 645.704 207.172C645.859 207.069 646.025 206.984 646.201 206.918C646.382 206.848 646.573 206.8 646.776 206.774C646.975 206.744 647.181 206.737 647.395 206.752L647.152 205.128C646.857 205.091 646.56 205.104 646.262 205.166C645.96 205.225 645.669 205.317 645.389 205.443C645.109 205.568 644.848 205.715 644.605 205.884C644.362 206.054 644.15 206.229 643.97 206.409C643.55 206.829 643.224 207.269 642.992 207.73C642.752 208.19 642.616 208.654 642.583 209.122C642.553 209.586 642.629 210.044 642.809 210.497C642.986 210.954 643.277 211.385 643.682 211.79L649.466 217.574L650.864 216.176L650.356 215.546C650.521 215.565 650.685 215.567 650.847 215.552C651.013 215.541 651.175 215.511 651.333 215.464C651.547 215.405 651.757 215.309 651.963 215.176C652.169 215.051 652.374 214.887 652.576 214.685C652.952 214.309 653.215 213.898 653.366 213.453C653.517 213.007 653.563 212.545 653.504 212.066C653.445 211.587 653.285 211.103 653.024 210.613C652.759 210.127 652.4 209.658 651.947 209.205ZM650.289 210.63L650.405 210.746C650.656 210.996 650.864 211.256 651.03 211.525C651.199 211.797 651.313 212.07 651.372 212.342C651.431 212.608 651.427 212.865 651.361 213.116C651.298 213.37 651.158 213.606 650.941 213.823C650.823 213.941 650.704 214.038 650.582 214.116C650.457 214.197 650.332 214.259 650.206 214.303C650.059 214.355 649.908 214.381 649.753 214.381C649.599 214.381 649.442 214.357 649.284 214.309L646.754 211.779C646.713 211.635 646.691 211.492 646.687 211.348C646.684 211.204 646.702 211.061 646.743 210.917C646.783 210.781 646.846 210.645 646.931 210.508C647.012 210.376 647.118 210.243 647.251 210.111C647.468 209.893 647.702 209.751 647.953 209.685C648.203 209.619 648.461 209.615 648.726 209.674C648.987 209.729 649.251 209.838 649.516 210C649.781 210.169 650.039 210.379 650.289 210.63ZM645.583 219.811L648.914 223.142L650.449 221.607L641.964 213.121L640.428 214.657L644.743 218.971C644.761 219.108 644.767 219.242 644.759 219.375C644.748 219.511 644.721 219.645 644.677 219.778C644.632 219.925 644.564 220.071 644.472 220.214C644.38 220.358 644.266 220.498 644.13 220.634C643.953 220.811 643.771 220.945 643.583 221.038C643.399 221.133 643.209 221.183 643.014 221.187C642.819 221.19 642.618 221.141 642.412 221.038C642.202 220.938 641.99 220.782 641.776 220.568L638.147 216.939L636.611 218.474L640.23 222.093C640.668 222.531 641.095 222.851 641.511 223.054C641.927 223.264 642.329 223.374 642.716 223.385C643.102 223.396 643.472 223.317 643.826 223.148C644.183 222.982 644.518 222.743 644.831 222.43C645.045 222.216 645.216 221.982 645.345 221.728C645.474 221.474 645.561 221.211 645.605 220.938C645.634 220.761 645.647 220.575 645.643 220.38C645.64 220.192 645.619 220.003 645.583 219.811ZM639.793 230.175L641.329 228.639L639.865 227.175L641.229 225.811L640.097 224.678L638.733 226.043L636.015 223.325C635.621 222.931 635.23 222.643 634.843 222.463C634.46 222.286 634.083 222.203 633.711 222.214C633.339 222.218 632.976 222.308 632.623 222.485C632.269 222.669 631.928 222.925 631.601 223.253C631.431 223.422 631.269 223.603 631.115 223.794C630.952 223.986 630.805 224.177 630.673 224.369C630.54 224.56 630.424 224.75 630.325 224.938C630.229 225.129 630.159 225.31 630.115 225.479L631.319 226.385C631.371 226.297 631.437 226.194 631.518 226.076C631.595 225.962 631.682 225.842 631.777 225.717C631.873 225.584 631.978 225.45 632.092 225.313C632.203 225.181 632.317 225.056 632.435 224.938C632.597 224.776 632.763 224.647 632.932 224.551C633.098 224.459 633.271 224.411 633.451 224.407C633.628 224.4 633.814 224.442 634.009 224.534C634.204 224.634 634.411 224.792 634.628 225.01L637.197 227.578L634.965 229.81L636.097 230.943L638.329 228.711L639.793 230.175Z" fill="#97266D"/>
<rect x="411.828" y="156.172" width="220" height="4" transform="rotate(45 411.828 156.172)" fill="#D53F8C"/>
<rect x="567.392" y="311.735" width="220" height="4" transform="rotate(-45 567.392 311.735)" fill="#D53F8C"/>
<rect x="417.392" y="271" width="296" height="4" fill="#805AD5"/>
</svg>
