<svg width="560" height="441" viewBox="0 0 560 441" fill="none" xmlns="http://www.w3.org/2000/svg">
<rect y="1" width="520" height="419" fill="#FFF6FA"/>
<rect y="1" width="100" height="309" fill="#5ED4B9"/>
<rect x="111" y="1" width="199" height="99" fill="#B688E0"/>
<rect x="111" y="111" width="199" height="199" fill="#B688E0"/>
<rect x="321" y="1" width="199" height="99" fill="#B688E0"/>
<rect x="321" y="111" width="199" height="199" fill="#B688E0"/>
<path d="M10.625 3.625V11.1172C10.625 12.362 10.2344 13.3464 9.45312 14.0703C8.67708 14.7943 7.61458 15.1562 6.26562 15.1562C4.9375 15.1562 3.88281 14.8047 3.10156 14.1016C2.32031 13.3984 1.92188 12.4323 1.90625 11.2031V3.625H4.25V11.1328C4.25 11.8776 4.42708 12.4219 4.78125 12.7656C5.14062 13.1042 5.63542 13.2734 6.26562 13.2734C7.58333 13.2734 8.2526 12.5807 8.27344 11.1953V3.625H10.625ZM14.5156 6.54688L14.5859 7.49219C15.1849 6.75781 15.9948 6.39062 17.0156 6.39062C18.1042 6.39062 18.8516 6.82031 19.2578 7.67969C19.8516 6.82031 20.6979 6.39062 21.7969 6.39062C22.7135 6.39062 23.3958 6.65885 23.8438 7.19531C24.2917 7.72656 24.5156 8.52865 24.5156 9.60156V15H22.25V9.60938C22.25 9.13021 22.1562 8.78125 21.9688 8.5625C21.7812 8.33854 21.4505 8.22656 20.9766 8.22656C20.2995 8.22656 19.8307 8.54948 19.5703 9.19531L19.5781 15H17.3203V9.61719C17.3203 9.1276 17.224 8.77344 17.0312 8.55469C16.8385 8.33594 16.5104 8.22656 16.0469 8.22656C15.4062 8.22656 14.9427 8.49219 14.6562 9.02344V15H12.3984V6.54688H14.5156Z" fill="#6E33A6"/>
<path d="M121.344 120.57C121.344 121.633 121.172 122.557 120.828 123.344C120.484 124.125 120.008 124.753 119.398 125.227L121.289 126.711L119.797 128.031L117.375 126.086C117.099 126.133 116.812 126.156 116.516 126.156C115.573 126.156 114.732 125.93 113.992 125.477C113.253 125.023 112.68 124.378 112.273 123.539C111.867 122.695 111.661 121.727 111.656 120.633V120.07C111.656 118.951 111.857 117.966 112.258 117.117C112.664 116.263 113.234 115.609 113.969 115.156C114.708 114.698 115.552 114.469 116.5 114.469C117.448 114.469 118.289 114.698 119.023 115.156C119.763 115.609 120.333 116.263 120.734 117.117C121.141 117.966 121.344 118.948 121.344 120.062V120.57ZM118.969 120.055C118.969 118.862 118.755 117.956 118.328 117.336C117.901 116.716 117.292 116.406 116.5 116.406C115.714 116.406 115.107 116.714 114.68 117.328C114.253 117.938 114.036 118.833 114.031 120.016V120.57C114.031 121.732 114.245 122.633 114.672 123.273C115.099 123.914 115.714 124.234 116.516 124.234C117.302 124.234 117.906 123.927 118.328 123.312C118.75 122.693 118.964 121.792 118.969 120.609V120.055ZM127.977 125.141C127.419 125.818 126.648 126.156 125.664 126.156C124.758 126.156 124.065 125.896 123.586 125.375C123.112 124.854 122.87 124.091 122.859 123.086V117.547H125.117V123.008C125.117 123.888 125.518 124.328 126.32 124.328C127.086 124.328 127.612 124.062 127.898 123.531V117.547H130.164V126H128.039L127.977 125.141ZM136.766 126C136.661 125.797 136.586 125.544 136.539 125.242C135.992 125.852 135.281 126.156 134.406 126.156C133.578 126.156 132.891 125.917 132.344 125.438C131.802 124.958 131.531 124.354 131.531 123.625C131.531 122.729 131.862 122.042 132.523 121.562C133.19 121.083 134.151 120.841 135.406 120.836H136.445V120.352C136.445 119.961 136.344 119.648 136.141 119.414C135.943 119.18 135.628 119.062 135.195 119.062C134.815 119.062 134.516 119.154 134.297 119.336C134.083 119.518 133.977 119.768 133.977 120.086H131.719C131.719 119.596 131.87 119.143 132.172 118.727C132.474 118.31 132.901 117.984 133.453 117.75C134.005 117.51 134.625 117.391 135.312 117.391C136.354 117.391 137.18 117.654 137.789 118.18C138.404 118.701 138.711 119.435 138.711 120.383V124.047C138.716 124.849 138.828 125.456 139.047 125.867V126H136.766ZM134.898 124.43C135.232 124.43 135.539 124.357 135.82 124.211C136.102 124.06 136.31 123.859 136.445 123.609V122.156H135.602C134.471 122.156 133.87 122.547 133.797 123.328L133.789 123.461C133.789 123.742 133.888 123.974 134.086 124.156C134.284 124.339 134.555 124.43 134.898 124.43ZM143.148 115.469V117.547H144.594V119.203H143.148V123.422C143.148 123.734 143.208 123.958 143.328 124.094C143.448 124.229 143.677 124.297 144.016 124.297C144.266 124.297 144.487 124.279 144.68 124.242V125.953C144.237 126.089 143.781 126.156 143.312 126.156C141.729 126.156 140.922 125.357 140.891 123.758V119.203H139.656V117.547H140.891V115.469H143.148ZM150.602 119.664C150.294 119.622 150.023 119.602 149.789 119.602C148.935 119.602 148.375 119.891 148.109 120.469V126H145.852V117.547H147.984L148.047 118.555C148.5 117.779 149.128 117.391 149.93 117.391C150.18 117.391 150.414 117.424 150.633 117.492L150.602 119.664ZM151.062 121.695C151.062 120.857 151.224 120.109 151.547 119.453C151.87 118.797 152.333 118.289 152.938 117.93C153.547 117.57 154.253 117.391 155.055 117.391C156.195 117.391 157.125 117.74 157.844 118.438C158.568 119.135 158.971 120.083 159.055 121.281L159.07 121.859C159.07 123.156 158.708 124.198 157.984 124.984C157.26 125.766 156.289 126.156 155.07 126.156C153.852 126.156 152.878 125.766 152.148 124.984C151.424 124.203 151.062 123.141 151.062 121.797V121.695ZM153.32 121.859C153.32 122.661 153.471 123.276 153.773 123.703C154.076 124.125 154.508 124.336 155.07 124.336C155.617 124.336 156.044 124.128 156.352 123.711C156.659 123.289 156.812 122.617 156.812 121.695C156.812 120.909 156.659 120.299 156.352 119.867C156.044 119.435 155.612 119.219 155.055 119.219C154.503 119.219 154.076 119.435 153.773 119.867C153.471 120.294 153.32 120.958 153.32 121.859Z" fill="#6E33A6"/>
<path d="M330.945 122.211C330.857 123.435 330.404 124.398 329.586 125.102C328.773 125.805 327.701 126.156 326.367 126.156C324.909 126.156 323.76 125.667 322.922 124.688C322.089 123.703 321.672 122.354 321.672 120.641V119.945C321.672 118.852 321.865 117.888 322.25 117.055C322.635 116.221 323.185 115.583 323.898 115.141C324.617 114.693 325.451 114.469 326.398 114.469C327.711 114.469 328.768 114.82 329.57 115.523C330.372 116.227 330.836 117.214 330.961 118.484H328.617C328.56 117.75 328.354 117.219 328 116.891C327.651 116.557 327.117 116.391 326.398 116.391C325.617 116.391 325.031 116.672 324.641 117.234C324.255 117.792 324.057 118.659 324.047 119.836V120.695C324.047 121.924 324.232 122.823 324.602 123.391C324.977 123.958 325.565 124.242 326.367 124.242C327.091 124.242 327.63 124.078 327.984 123.75C328.344 123.417 328.549 122.904 328.602 122.211H330.945ZM334.719 126H332.453V117.547H334.719V126ZM332.32 115.359C332.32 115.021 332.432 114.742 332.656 114.523C332.885 114.305 333.195 114.195 333.586 114.195C333.971 114.195 334.279 114.305 334.508 114.523C334.737 114.742 334.852 115.021 334.852 115.359C334.852 115.703 334.734 115.984 334.5 116.203C334.271 116.422 333.966 116.531 333.586 116.531C333.206 116.531 332.898 116.422 332.664 116.203C332.435 115.984 332.32 115.703 332.32 115.359ZM338.664 117.547L338.734 118.523C339.339 117.768 340.148 117.391 341.164 117.391C342.06 117.391 342.727 117.654 343.164 118.18C343.602 118.706 343.826 119.492 343.836 120.539V126H341.578V120.594C341.578 120.115 341.474 119.768 341.266 119.555C341.057 119.336 340.711 119.227 340.227 119.227C339.591 119.227 339.115 119.497 338.797 120.039V126H336.539V117.547H338.664ZM349.07 124.336C349.487 124.336 349.826 124.221 350.086 123.992C350.346 123.763 350.482 123.458 350.492 123.078H352.609C352.604 123.651 352.448 124.177 352.141 124.656C351.833 125.13 351.411 125.5 350.875 125.766C350.344 126.026 349.755 126.156 349.109 126.156C347.901 126.156 346.948 125.773 346.25 125.008C345.552 124.237 345.203 123.174 345.203 121.82V121.672C345.203 120.37 345.549 119.331 346.242 118.555C346.935 117.779 347.885 117.391 349.094 117.391C350.151 117.391 350.997 117.693 351.633 118.297C352.273 118.896 352.599 119.695 352.609 120.695H350.492C350.482 120.258 350.346 119.904 350.086 119.633C349.826 119.357 349.482 119.219 349.055 119.219C348.529 119.219 348.13 119.411 347.859 119.797C347.594 120.177 347.461 120.797 347.461 121.656V121.891C347.461 122.76 347.594 123.385 347.859 123.766C348.125 124.146 348.529 124.336 349.07 124.336ZM353.547 121.695C353.547 120.857 353.708 120.109 354.031 119.453C354.354 118.797 354.818 118.289 355.422 117.93C356.031 117.57 356.737 117.391 357.539 117.391C358.68 117.391 359.609 117.74 360.328 118.438C361.052 119.135 361.456 120.083 361.539 121.281L361.555 121.859C361.555 123.156 361.193 124.198 360.469 124.984C359.745 125.766 358.773 126.156 357.555 126.156C356.336 126.156 355.362 125.766 354.633 124.984C353.909 124.203 353.547 123.141 353.547 121.797V121.695ZM355.805 121.859C355.805 122.661 355.956 123.276 356.258 123.703C356.56 124.125 356.992 124.336 357.555 124.336C358.102 124.336 358.529 124.128 358.836 123.711C359.143 123.289 359.297 122.617 359.297 121.695C359.297 120.909 359.143 120.299 358.836 119.867C358.529 119.435 358.096 119.219 357.539 119.219C356.987 119.219 356.56 119.435 356.258 119.867C355.956 120.294 355.805 120.958 355.805 121.859Z" fill="#6E33A6"/>
<path d="M112.016 15V3.625H115.516C116.516 3.625 117.409 3.85156 118.195 4.30469C118.987 4.7526 119.604 5.39323 120.047 6.22656C120.49 7.05469 120.711 7.9974 120.711 9.05469V9.57812C120.711 10.6354 120.492 11.5755 120.055 12.3984C119.622 13.2214 119.01 13.8594 118.219 14.3125C117.427 14.7656 116.534 14.9948 115.539 15H112.016ZM114.359 5.52344V13.1172H115.492C116.409 13.1172 117.109 12.8177 117.594 12.2188C118.078 11.6198 118.326 10.763 118.336 9.64844V9.04688C118.336 7.89062 118.096 7.01562 117.617 6.42188C117.138 5.82292 116.438 5.52344 115.516 5.52344H114.359ZM121.922 10.6953C121.922 9.85677 122.083 9.10938 122.406 8.45312C122.729 7.79688 123.193 7.28906 123.797 6.92969C124.406 6.57031 125.112 6.39062 125.914 6.39062C127.055 6.39062 127.984 6.73958 128.703 7.4375C129.427 8.13542 129.831 9.08333 129.914 10.2812L129.93 10.8594C129.93 12.1562 129.568 13.1979 128.844 13.9844C128.12 14.7656 127.148 15.1562 125.93 15.1562C124.711 15.1562 123.737 14.7656 123.008 13.9844C122.284 13.2031 121.922 12.1406 121.922 10.7969V10.6953ZM124.18 10.8594C124.18 11.6615 124.331 12.276 124.633 12.7031C124.935 13.125 125.367 13.3359 125.93 13.3359C126.477 13.3359 126.904 13.1276 127.211 12.7109C127.518 12.2891 127.672 11.6172 127.672 10.6953C127.672 9.90885 127.518 9.29948 127.211 8.86719C126.904 8.4349 126.471 8.21875 125.914 8.21875C125.362 8.21875 124.935 8.4349 124.633 8.86719C124.331 9.29427 124.18 9.95833 124.18 10.8594ZM133.703 15H131.438V6.54688H133.703V15ZM131.305 4.35938C131.305 4.02083 131.417 3.74219 131.641 3.52344C131.87 3.30469 132.18 3.19531 132.57 3.19531C132.956 3.19531 133.263 3.30469 133.492 3.52344C133.721 3.74219 133.836 4.02083 133.836 4.35938C133.836 4.70312 133.719 4.98438 133.484 5.20312C133.255 5.42188 132.951 5.53125 132.57 5.53125C132.19 5.53125 131.883 5.42188 131.648 5.20312C131.419 4.98438 131.305 4.70312 131.305 4.35938ZM140.148 12.6641C140.148 12.388 140.01 12.1719 139.734 12.0156C139.464 11.8542 139.026 11.7109 138.422 11.5859C136.411 11.1641 135.406 10.3099 135.406 9.02344C135.406 8.27344 135.716 7.64844 136.336 7.14844C136.961 6.64323 137.776 6.39062 138.781 6.39062C139.854 6.39062 140.711 6.64323 141.352 7.14844C141.997 7.65365 142.32 8.3099 142.32 9.11719H140.062C140.062 8.79427 139.958 8.52865 139.75 8.32031C139.542 8.10677 139.216 8 138.773 8C138.393 8 138.099 8.08594 137.891 8.25781C137.682 8.42969 137.578 8.64844 137.578 8.91406C137.578 9.16406 137.695 9.36719 137.93 9.52344C138.169 9.67448 138.57 9.80729 139.133 9.92188C139.695 10.0312 140.169 10.1562 140.555 10.2969C141.747 10.7344 142.344 11.4922 142.344 12.5703C142.344 13.3411 142.013 13.9661 141.352 14.4453C140.69 14.9193 139.836 15.1562 138.789 15.1562C138.081 15.1562 137.451 15.0312 136.898 14.7812C136.352 14.526 135.922 14.1797 135.609 13.7422C135.297 13.2995 135.141 12.8229 135.141 12.3125H137.281C137.302 12.7135 137.451 13.0208 137.727 13.2344C138.003 13.4479 138.372 13.5547 138.836 13.5547C139.268 13.5547 139.594 13.474 139.812 13.3125C140.036 13.1458 140.148 12.9297 140.148 12.6641Z" fill="#6E33A6"/>
<path d="M330.578 5.52344H327.094V15H324.75V5.52344H321.312V3.625H330.578V5.52344ZM336.008 8.66406C335.701 8.6224 335.43 8.60156 335.195 8.60156C334.341 8.60156 333.781 8.89062 333.516 9.46875V15H331.258V6.54688H333.391L333.453 7.55469C333.906 6.77865 334.534 6.39062 335.336 6.39062C335.586 6.39062 335.82 6.42448 336.039 6.49219L336.008 8.66406ZM340.836 15.1562C339.596 15.1562 338.586 14.776 337.805 14.0156C337.029 13.2552 336.641 12.2422 336.641 10.9766V10.7578C336.641 9.90885 336.805 9.15104 337.133 8.48438C337.461 7.8125 337.924 7.29688 338.523 6.9375C339.128 6.57292 339.815 6.39062 340.586 6.39062C341.742 6.39062 342.651 6.75521 343.312 7.48438C343.979 8.21354 344.312 9.2474 344.312 10.5859V11.5078H338.93C339.003 12.0599 339.221 12.5026 339.586 12.8359C339.956 13.1693 340.422 13.3359 340.984 13.3359C341.854 13.3359 342.534 13.0208 343.023 12.3906L344.133 13.6328C343.794 14.112 343.336 14.487 342.758 14.7578C342.18 15.0234 341.539 15.1562 340.836 15.1562ZM340.578 8.21875C340.13 8.21875 339.766 8.36979 339.484 8.67188C339.208 8.97396 339.031 9.40625 338.953 9.96875H342.094V9.78906C342.083 9.28906 341.948 8.90365 341.688 8.63281C341.427 8.35677 341.057 8.21875 340.578 8.21875ZM343.328 5.1875V5.28125H341.531L340.328 4.14844L339.125 5.28125H337.359V5.15625L339.672 3H340.984L343.328 5.1875ZM350.18 12.6641C350.18 12.388 350.042 12.1719 349.766 12.0156C349.495 11.8542 349.057 11.7109 348.453 11.5859C346.443 11.1641 345.438 10.3099 345.438 9.02344C345.438 8.27344 345.747 7.64844 346.367 7.14844C346.992 6.64323 347.807 6.39062 348.812 6.39062C349.885 6.39062 350.742 6.64323 351.383 7.14844C352.029 7.65365 352.352 8.3099 352.352 9.11719H350.094C350.094 8.79427 349.99 8.52865 349.781 8.32031C349.573 8.10677 349.247 8 348.805 8C348.424 8 348.13 8.08594 347.922 8.25781C347.714 8.42969 347.609 8.64844 347.609 8.91406C347.609 9.16406 347.727 9.36719 347.961 9.52344C348.201 9.67448 348.602 9.80729 349.164 9.92188C349.727 10.0312 350.201 10.1562 350.586 10.2969C351.779 10.7344 352.375 11.4922 352.375 12.5703C352.375 13.3411 352.044 13.9661 351.383 14.4453C350.721 14.9193 349.867 15.1562 348.82 15.1562C348.112 15.1562 347.482 15.0312 346.93 14.7812C346.383 14.526 345.953 14.1797 345.641 13.7422C345.328 13.2995 345.172 12.8229 345.172 12.3125H347.312C347.333 12.7135 347.482 13.0208 347.758 13.2344C348.034 13.4479 348.404 13.5547 348.867 13.5547C349.299 13.5547 349.625 13.474 349.844 13.3125C350.068 13.1458 350.18 12.9297 350.18 12.6641Z" fill="#6E33A6"/>
<line x1="100.5" y1="1" x2="100.5" y2="420" stroke="#DB2B6C"/>
<line x1="110.5" y1="1" x2="110.5" y2="420" stroke="#DB2B6C"/>
<line y1="100.5" x2="520" y2="100.5" stroke="#DB2B6C"/>
<line y1="110.5" x2="520" y2="110.5" stroke="#DB2B6C"/>
<line y1="310.5" x2="520" y2="310.5" stroke="#DB2B6C"/>
<line x1="520" y1="320.5" x2="560" y2="320.5" stroke="#DB2B6C" stroke-dasharray="2 2"/>
<line y1="320.5" x2="520" y2="320.5" stroke="#DB2B6C"/>
<line y1="420.5" x2="520" y2="420.5" stroke="#DB2B6C"/>
<line x1="520" y1="310.5" x2="560" y2="310.5" stroke="#DB2B6C" stroke-dasharray="2 2"/>
<line x1="520" y1="110.5" x2="560" y2="110.5" stroke="#DB2B6C" stroke-dasharray="2 2"/>
<line x1="520" y1="100.5" x2="560" y2="100.5" stroke="#DB2B6C" stroke-dasharray="2 2"/>
<line y1="420.5" x2="560" y2="420.5" stroke="#DB2B6C" stroke-dasharray="2 2"/>
<line x1="310.5" y1="1" x2="310.5" y2="421" stroke="#DB2B6C"/>
<line x1="320.5" y1="1" x2="320.5" y2="420" stroke="#DB2B6C"/>
<line x1="100.5" y1="311" x2="100.5" y2="441" stroke="#DB2B6C" stroke-dasharray="2 2"/>
<line x1="110.5" y1="311" x2="110.5" y2="441" stroke="#DB2B6C" stroke-dasharray="2 2"/>
<line x1="310.5" y1="310" x2="310.5" y2="440" stroke="#DB2B6C" stroke-dasharray="2 2"/>
<line x1="320.5" y1="310" x2="320.5" y2="440" stroke="#DB2B6C" stroke-dasharray="2 2"/>
<rect y="321" width="100" height="99" fill="#B688E0"/>
<path d="M6.91406 332.016C6.91406 331.573 6.75781 331.234 6.44531 331C6.13281 330.76 5.57031 330.51 4.75781 330.25C3.94531 329.984 3.30208 329.724 2.82812 329.469C1.53646 328.771 0.890625 327.831 0.890625 326.648C0.890625 326.034 1.0625 325.487 1.40625 325.008C1.75521 324.523 2.2526 324.146 2.89844 323.875C3.54948 323.604 4.27865 323.469 5.08594 323.469C5.89844 323.469 6.6224 323.617 7.25781 323.914C7.89323 324.206 8.38542 324.62 8.73438 325.156C9.08854 325.693 9.26562 326.302 9.26562 326.984H6.92188C6.92188 326.464 6.75781 326.06 6.42969 325.773C6.10156 325.482 5.64062 325.336 5.04688 325.336C4.47396 325.336 4.02865 325.458 3.71094 325.703C3.39323 325.943 3.23438 326.26 3.23438 326.656C3.23438 327.026 3.41927 327.336 3.78906 327.586C4.16406 327.836 4.71354 328.07 5.4375 328.289C6.77083 328.69 7.74219 329.188 8.35156 329.781C8.96094 330.375 9.26562 331.115 9.26562 332C9.26562 332.984 8.89323 333.758 8.14844 334.32C7.40365 334.878 6.40104 335.156 5.14062 335.156C4.26562 335.156 3.46875 334.997 2.75 334.68C2.03125 334.357 1.48177 333.917 1.10156 333.359C0.726562 332.802 0.539062 332.156 0.539062 331.422H2.89062C2.89062 332.677 3.64062 333.305 5.14062 333.305C5.69792 333.305 6.13281 333.193 6.44531 332.969C6.75781 332.74 6.91406 332.422 6.91406 332.016ZM14.6016 335.156C13.362 335.156 12.3516 334.776 11.5703 334.016C10.7943 333.255 10.4062 332.242 10.4062 330.977V330.758C10.4062 329.909 10.5703 329.151 10.8984 328.484C11.2266 327.812 11.6901 327.297 12.2891 326.938C12.8932 326.573 13.5807 326.391 14.3516 326.391C15.5078 326.391 16.4167 326.755 17.0781 327.484C17.7448 328.214 18.0781 329.247 18.0781 330.586V331.508H12.6953C12.7682 332.06 12.987 332.503 13.3516 332.836C13.7214 333.169 14.1875 333.336 14.75 333.336C15.6198 333.336 16.2995 333.021 16.7891 332.391L17.8984 333.633C17.5599 334.112 17.1016 334.487 16.5234 334.758C15.9453 335.023 15.3047 335.156 14.6016 335.156ZM14.3438 328.219C13.8958 328.219 13.5312 328.37 13.25 328.672C12.974 328.974 12.7969 329.406 12.7188 329.969H15.8594V329.789C15.849 329.289 15.7135 328.904 15.4531 328.633C15.1927 328.357 14.8229 328.219 14.3438 328.219ZM21.75 335H19.4844V326.547H21.75V335ZM19.3516 324.359C19.3516 324.021 19.4635 323.742 19.6875 323.523C19.9167 323.305 20.2266 323.195 20.6172 323.195C21.0026 323.195 21.3099 323.305 21.5391 323.523C21.7682 323.742 21.8828 324.021 21.8828 324.359C21.8828 324.703 21.7656 324.984 21.5312 325.203C21.3021 325.422 20.9974 325.531 20.6172 325.531C20.237 325.531 19.9297 325.422 19.6953 325.203C19.4661 324.984 19.3516 324.703 19.3516 324.359ZM28.1953 332.664C28.1953 332.388 28.0573 332.172 27.7812 332.016C27.5104 331.854 27.0729 331.711 26.4688 331.586C24.4583 331.164 23.4531 330.31 23.4531 329.023C23.4531 328.273 23.763 327.648 24.3828 327.148C25.0078 326.643 25.8229 326.391 26.8281 326.391C27.901 326.391 28.7578 326.643 29.3984 327.148C30.0443 327.654 30.3672 328.31 30.3672 329.117H28.1094C28.1094 328.794 28.0052 328.529 27.7969 328.32C27.5885 328.107 27.263 328 26.8203 328C26.4401 328 26.1458 328.086 25.9375 328.258C25.7292 328.43 25.625 328.648 25.625 328.914C25.625 329.164 25.7422 329.367 25.9766 329.523C26.2161 329.674 26.6172 329.807 27.1797 329.922C27.7422 330.031 28.2161 330.156 28.6016 330.297C29.7943 330.734 30.3906 331.492 30.3906 332.57C30.3906 333.341 30.0599 333.966 29.3984 334.445C28.737 334.919 27.8828 335.156 26.8359 335.156C26.1276 335.156 25.4974 335.031 24.9453 334.781C24.3984 334.526 23.9688 334.18 23.6562 333.742C23.3438 333.299 23.1875 332.823 23.1875 332.312H25.3281C25.349 332.714 25.4974 333.021 25.7734 333.234C26.0495 333.448 26.4193 333.555 26.8828 333.555C27.3151 333.555 27.6406 333.474 27.8594 333.312C28.0833 333.146 28.1953 332.93 28.1953 332.664Z" fill="#6E33A6"/>
</svg>
