<svg width="560" height="464" viewBox="0 0 560 464" fill="none" xmlns="http://www.w3.org/2000/svg">
<rect width="520" height="451" fill="#FFF6FA"/>
<rect width="310" height="419" fill="#B688E0"/>
<rect x="111" y="110" width="409" height="199" fill="#5ED4B9"/>
<rect x="321" y="320" width="199" height="99" fill="#B688E0"/>
<path d="M9.625 3.625V11.1172C9.625 12.362 9.23438 13.3464 8.45312 14.0703C7.67708 14.7943 6.61458 15.1562 5.26562 15.1562C3.9375 15.1562 2.88281 14.8047 2.10156 14.1016C1.32031 13.3984 0.921875 12.4323 0.90625 11.2031V3.625H3.25V11.1328C3.25 11.8776 3.42708 12.4219 3.78125 12.7656C4.14062 13.1042 4.63542 13.2734 5.26562 13.2734C6.58333 13.2734 7.2526 12.5807 7.27344 11.1953V3.625H9.625ZM13.5156 6.54688L13.5859 7.49219C14.1849 6.75781 14.9948 6.39062 16.0156 6.39062C17.1042 6.39062 17.8516 6.82031 18.2578 7.67969C18.8516 6.82031 19.6979 6.39062 20.7969 6.39062C21.7135 6.39062 22.3958 6.65885 22.8438 7.19531C23.2917 7.72656 23.5156 8.52865 23.5156 9.60156V15H21.25V9.60938C21.25 9.13021 21.1562 8.78125 20.9688 8.5625C20.7812 8.33854 20.4505 8.22656 19.9766 8.22656C19.2995 8.22656 18.8307 8.54948 18.5703 9.19531L18.5781 15H16.3203V9.61719C16.3203 9.1276 16.224 8.77344 16.0312 8.55469C15.8385 8.33594 15.5104 8.22656 15.0469 8.22656C14.4062 8.22656 13.9427 8.49219 13.6562 9.02344V15H11.3984V6.54688H13.5156Z" fill="#6E33A6"/>
<path d="M120.578 115.523H117.094V125H114.75V115.523H111.312V113.625H120.578V115.523ZM126.008 118.664C125.701 118.622 125.43 118.602 125.195 118.602C124.341 118.602 123.781 118.891 123.516 119.469V125H121.258V116.547H123.391L123.453 117.555C123.906 116.779 124.534 116.391 125.336 116.391C125.586 116.391 125.82 116.424 126.039 116.492L126.008 118.664ZM130.836 125.156C129.596 125.156 128.586 124.776 127.805 124.016C127.029 123.255 126.641 122.242 126.641 120.977V120.758C126.641 119.909 126.805 119.151 127.133 118.484C127.461 117.812 127.924 117.297 128.523 116.938C129.128 116.573 129.815 116.391 130.586 116.391C131.742 116.391 132.651 116.755 133.312 117.484C133.979 118.214 134.312 119.247 134.312 120.586V121.508H128.93C129.003 122.06 129.221 122.503 129.586 122.836C129.956 123.169 130.422 123.336 130.984 123.336C131.854 123.336 132.534 123.021 133.023 122.391L134.133 123.633C133.794 124.112 133.336 124.487 132.758 124.758C132.18 125.023 131.539 125.156 130.836 125.156ZM130.578 118.219C130.13 118.219 129.766 118.37 129.484 118.672C129.208 118.974 129.031 119.406 128.953 119.969H132.094V119.789C132.083 119.289 131.948 118.904 131.688 118.633C131.427 118.357 131.057 118.219 130.578 118.219ZM133.328 115.188V115.281H131.531L130.328 114.148L129.125 115.281H127.359V115.156L129.672 113H130.984L133.328 115.188ZM140.18 122.664C140.18 122.388 140.042 122.172 139.766 122.016C139.495 121.854 139.057 121.711 138.453 121.586C136.443 121.164 135.438 120.31 135.438 119.023C135.438 118.273 135.747 117.648 136.367 117.148C136.992 116.643 137.807 116.391 138.812 116.391C139.885 116.391 140.742 116.643 141.383 117.148C142.029 117.654 142.352 118.31 142.352 119.117H140.094C140.094 118.794 139.99 118.529 139.781 118.32C139.573 118.107 139.247 118 138.805 118C138.424 118 138.13 118.086 137.922 118.258C137.714 118.43 137.609 118.648 137.609 118.914C137.609 119.164 137.727 119.367 137.961 119.523C138.201 119.674 138.602 119.807 139.164 119.922C139.727 120.031 140.201 120.156 140.586 120.297C141.779 120.734 142.375 121.492 142.375 122.57C142.375 123.341 142.044 123.966 141.383 124.445C140.721 124.919 139.867 125.156 138.82 125.156C138.112 125.156 137.482 125.031 136.93 124.781C136.383 124.526 135.953 124.18 135.641 123.742C135.328 123.299 135.172 122.823 135.172 122.312H137.312C137.333 122.714 137.482 123.021 137.758 123.234C138.034 123.448 138.404 123.555 138.867 123.555C139.299 123.555 139.625 123.474 139.844 123.312C140.068 123.146 140.18 122.93 140.18 122.664Z" fill="#6E33A6"/>
<line x1="100.5" x2="100.5" y2="451" stroke="#DB2B6C"/>
<line x1="110.5" x2="110.5" y2="451" stroke="#DB2B6C"/>
<line y1="99.5" x2="520" y2="99.5" stroke="#DB2B6C"/>
<line y1="109.5" x2="520" y2="109.5" stroke="#DB2B6C"/>
<line y1="309.5" x2="520" y2="309.5" stroke="#DB2B6C"/>
<line x1="520" y1="319.5" x2="560" y2="319.5" stroke="#DB2B6C" stroke-dasharray="2 2"/>
<line y1="319.5" x2="520" y2="319.5" stroke="#DB2B6C"/>
<line y1="419.5" x2="520" y2="419.5" stroke="#DB2B6C"/>
<line x1="520" y1="309.5" x2="560" y2="309.5" stroke="#DB2B6C" stroke-dasharray="2 2"/>
<line x1="520" y1="109.5" x2="560" y2="109.5" stroke="#DB2B6C" stroke-dasharray="2 2"/>
<line x1="520" y1="99.5" x2="560" y2="99.5" stroke="#DB2B6C" stroke-dasharray="2 2"/>
<line y1="419.5" x2="560" y2="419.5" stroke="#DB2B6C" stroke-dasharray="2 2"/>
<line y1="429.5" x2="560" y2="429.5" stroke="#DB2B6C" stroke-dasharray="2 2"/>
<line y1="429.5" x2="520" y2="429.5" stroke="#DB2B6C"/>
<line x1="310.5" x2="310.5" y2="451" stroke="#DB2B6C"/>
<line x1="320.5" x2="320.5" y2="451" stroke="#DB2B6C"/>
<line x1="100.5" y1="353" x2="100.5" y2="464" stroke="#DB2B6C" stroke-dasharray="2 2"/>
<line x1="110.5" y1="353" x2="110.5" y2="464" stroke="#DB2B6C" stroke-dasharray="2 2"/>
<line x1="310.5" y1="353" x2="310.5" y2="464" stroke="#DB2B6C" stroke-dasharray="2 2"/>
<line x1="320.5" y1="351" x2="320.5" y2="464" stroke="#DB2B6C" stroke-dasharray="2 2"/>
<rect y="430" width="100" height="21" fill="#B688E0"/>
<rect x="111" y="430" width="199" height="21" fill="#B688E0"/>
<rect x="321" width="199" height="99" fill="#B688E0"/>
<path d="M9.94531 440.211C9.85677 441.435 9.40365 442.398 8.58594 443.102C7.77344 443.805 6.70052 444.156 5.36719 444.156C3.90885 444.156 2.76042 443.667 1.92188 442.688C1.08854 441.703 0.671875 440.354 0.671875 438.641V437.945C0.671875 436.852 0.864583 435.888 1.25 435.055C1.63542 434.221 2.1849 433.583 2.89844 433.141C3.61719 432.693 4.45052 432.469 5.39844 432.469C6.71094 432.469 7.76823 432.82 8.57031 433.523C9.3724 434.227 9.83594 435.214 9.96094 436.484H7.61719C7.5599 435.75 7.35417 435.219 7 434.891C6.65104 434.557 6.11719 434.391 5.39844 434.391C4.61719 434.391 4.03125 434.672 3.64062 435.234C3.25521 435.792 3.05729 436.659 3.04688 437.836V438.695C3.04688 439.924 3.23177 440.823 3.60156 441.391C3.97656 441.958 4.5651 442.242 5.36719 442.242C6.09115 442.242 6.63021 442.078 6.98438 441.75C7.34375 441.417 7.54948 440.904 7.60156 440.211H9.94531ZM13.7188 444H11.4531V435.547H13.7188V444ZM11.3203 433.359C11.3203 433.021 11.4323 432.742 11.6562 432.523C11.8854 432.305 12.1953 432.195 12.5859 432.195C12.9714 432.195 13.2786 432.305 13.5078 432.523C13.737 432.742 13.8516 433.021 13.8516 433.359C13.8516 433.703 13.7344 433.984 13.5 434.203C13.2708 434.422 12.9661 434.531 12.5859 434.531C12.2057 434.531 11.8984 434.422 11.6641 434.203C11.4349 433.984 11.3203 433.703 11.3203 433.359ZM17.6641 435.547L17.7344 436.523C18.3385 435.768 19.1484 435.391 20.1641 435.391C21.0599 435.391 21.7266 435.654 22.1641 436.18C22.6016 436.706 22.8255 437.492 22.8359 438.539V444H20.5781V438.594C20.5781 438.115 20.474 437.768 20.2656 437.555C20.0573 437.336 19.7109 437.227 19.2266 437.227C18.5911 437.227 18.1146 437.497 17.7969 438.039V444H15.5391V435.547H17.6641ZM28.0703 442.336C28.487 442.336 28.8255 442.221 29.0859 441.992C29.3464 441.763 29.4818 441.458 29.4922 441.078H31.6094C31.6042 441.651 31.4479 442.177 31.1406 442.656C30.8333 443.13 30.4115 443.5 29.875 443.766C29.3438 444.026 28.7552 444.156 28.1094 444.156C26.901 444.156 25.9479 443.773 25.25 443.008C24.5521 442.237 24.2031 441.174 24.2031 439.82V439.672C24.2031 438.37 24.5495 437.331 25.2422 436.555C25.9349 435.779 26.8854 435.391 28.0938 435.391C29.151 435.391 29.9974 435.693 30.6328 436.297C31.2734 436.896 31.599 437.695 31.6094 438.695H29.4922C29.4818 438.258 29.3464 437.904 29.0859 437.633C28.8255 437.357 28.4818 437.219 28.0547 437.219C27.5286 437.219 27.1302 437.411 26.8594 437.797C26.5938 438.177 26.4609 438.797 26.4609 439.656V439.891C26.4609 440.76 26.5938 441.385 26.8594 441.766C27.125 442.146 27.5286 442.336 28.0703 442.336ZM32.5469 439.695C32.5469 438.857 32.7083 438.109 33.0312 437.453C33.3542 436.797 33.8177 436.289 34.4219 435.93C35.0312 435.57 35.737 435.391 36.5391 435.391C37.6797 435.391 38.6094 435.74 39.3281 436.438C40.0521 437.135 40.4557 438.083 40.5391 439.281L40.5547 439.859C40.5547 441.156 40.1927 442.198 39.4688 442.984C38.7448 443.766 37.7734 444.156 36.5547 444.156C35.3359 444.156 34.362 443.766 33.6328 442.984C32.9089 442.203 32.5469 441.141 32.5469 439.797V439.695ZM34.8047 439.859C34.8047 440.661 34.9557 441.276 35.2578 441.703C35.5599 442.125 35.9922 442.336 36.5547 442.336C37.1016 442.336 37.5286 442.128 37.8359 441.711C38.1432 441.289 38.2969 440.617 38.2969 439.695C38.2969 438.909 38.1432 438.299 37.8359 437.867C37.5286 437.435 37.0964 437.219 36.5391 437.219C35.987 437.219 35.5599 437.435 35.2578 437.867C34.9557 438.294 34.8047 438.958 34.8047 439.859Z" fill="#6E33A6"/>
<path d="M331.344 329.57C331.344 330.633 331.172 331.557 330.828 332.344C330.484 333.125 330.008 333.753 329.398 334.227L331.289 335.711L329.797 337.031L327.375 335.086C327.099 335.133 326.812 335.156 326.516 335.156C325.573 335.156 324.732 334.93 323.992 334.477C323.253 334.023 322.68 333.378 322.273 332.539C321.867 331.695 321.661 330.727 321.656 329.633V329.07C321.656 327.951 321.857 326.966 322.258 326.117C322.664 325.263 323.234 324.609 323.969 324.156C324.708 323.698 325.552 323.469 326.5 323.469C327.448 323.469 328.289 323.698 329.023 324.156C329.763 324.609 330.333 325.263 330.734 326.117C331.141 326.966 331.344 327.948 331.344 329.062V329.57ZM328.969 329.055C328.969 327.862 328.755 326.956 328.328 326.336C327.901 325.716 327.292 325.406 326.5 325.406C325.714 325.406 325.107 325.714 324.68 326.328C324.253 326.938 324.036 327.833 324.031 329.016V329.57C324.031 330.732 324.245 331.633 324.672 332.273C325.099 332.914 325.714 333.234 326.516 333.234C327.302 333.234 327.906 332.927 328.328 332.312C328.75 331.693 328.964 330.792 328.969 329.609V329.055ZM337.977 334.141C337.419 334.818 336.648 335.156 335.664 335.156C334.758 335.156 334.065 334.896 333.586 334.375C333.112 333.854 332.87 333.091 332.859 332.086V326.547H335.117V332.008C335.117 332.888 335.518 333.328 336.32 333.328C337.086 333.328 337.612 333.062 337.898 332.531V326.547H340.164V335H338.039L337.977 334.141ZM346.766 335C346.661 334.797 346.586 334.544 346.539 334.242C345.992 334.852 345.281 335.156 344.406 335.156C343.578 335.156 342.891 334.917 342.344 334.438C341.802 333.958 341.531 333.354 341.531 332.625C341.531 331.729 341.862 331.042 342.523 330.562C343.19 330.083 344.151 329.841 345.406 329.836H346.445V329.352C346.445 328.961 346.344 328.648 346.141 328.414C345.943 328.18 345.628 328.062 345.195 328.062C344.815 328.062 344.516 328.154 344.297 328.336C344.083 328.518 343.977 328.768 343.977 329.086H341.719C341.719 328.596 341.87 328.143 342.172 327.727C342.474 327.31 342.901 326.984 343.453 326.75C344.005 326.51 344.625 326.391 345.312 326.391C346.354 326.391 347.18 326.654 347.789 327.18C348.404 327.701 348.711 328.435 348.711 329.383V333.047C348.716 333.849 348.828 334.456 349.047 334.867V335H346.766ZM344.898 333.43C345.232 333.43 345.539 333.357 345.82 333.211C346.102 333.06 346.31 332.859 346.445 332.609V331.156H345.602C344.471 331.156 343.87 331.547 343.797 332.328L343.789 332.461C343.789 332.742 343.888 332.974 344.086 333.156C344.284 333.339 344.555 333.43 344.898 333.43ZM353.148 324.469V326.547H354.594V328.203H353.148V332.422C353.148 332.734 353.208 332.958 353.328 333.094C353.448 333.229 353.677 333.297 354.016 333.297C354.266 333.297 354.487 333.279 354.68 333.242V334.953C354.237 335.089 353.781 335.156 353.312 335.156C351.729 335.156 350.922 334.357 350.891 332.758V328.203H349.656V326.547H350.891V324.469H353.148ZM360.602 328.664C360.294 328.622 360.023 328.602 359.789 328.602C358.935 328.602 358.375 328.891 358.109 329.469V335H355.852V326.547H357.984L358.047 327.555C358.5 326.779 359.128 326.391 359.93 326.391C360.18 326.391 360.414 326.424 360.633 326.492L360.602 328.664ZM361.062 330.695C361.062 329.857 361.224 329.109 361.547 328.453C361.87 327.797 362.333 327.289 362.938 326.93C363.547 326.57 364.253 326.391 365.055 326.391C366.195 326.391 367.125 326.74 367.844 327.438C368.568 328.135 368.971 329.083 369.055 330.281L369.07 330.859C369.07 332.156 368.708 333.198 367.984 333.984C367.26 334.766 366.289 335.156 365.07 335.156C363.852 335.156 362.878 334.766 362.148 333.984C361.424 333.203 361.062 332.141 361.062 330.797V330.695ZM363.32 330.859C363.32 331.661 363.471 332.276 363.773 332.703C364.076 333.125 364.508 333.336 365.07 333.336C365.617 333.336 366.044 333.128 366.352 332.711C366.659 332.289 366.812 331.617 366.812 330.695C366.812 329.909 366.659 329.299 366.352 328.867C366.044 328.435 365.612 328.219 365.055 328.219C364.503 328.219 364.076 328.435 363.773 328.867C363.471 329.294 363.32 329.958 363.32 330.859Z" fill="#6E33A6"/>
<path d="M117.914 441.016C117.914 440.573 117.758 440.234 117.445 440C117.133 439.76 116.57 439.51 115.758 439.25C114.945 438.984 114.302 438.724 113.828 438.469C112.536 437.771 111.891 436.831 111.891 435.648C111.891 435.034 112.062 434.487 112.406 434.008C112.755 433.523 113.253 433.146 113.898 432.875C114.549 432.604 115.279 432.469 116.086 432.469C116.898 432.469 117.622 432.617 118.258 432.914C118.893 433.206 119.385 433.62 119.734 434.156C120.089 434.693 120.266 435.302 120.266 435.984H117.922C117.922 435.464 117.758 435.06 117.43 434.773C117.102 434.482 116.641 434.336 116.047 434.336C115.474 434.336 115.029 434.458 114.711 434.703C114.393 434.943 114.234 435.26 114.234 435.656C114.234 436.026 114.419 436.336 114.789 436.586C115.164 436.836 115.714 437.07 116.438 437.289C117.771 437.69 118.742 438.188 119.352 438.781C119.961 439.375 120.266 440.115 120.266 441C120.266 441.984 119.893 442.758 119.148 443.32C118.404 443.878 117.401 444.156 116.141 444.156C115.266 444.156 114.469 443.997 113.75 443.68C113.031 443.357 112.482 442.917 112.102 442.359C111.727 441.802 111.539 441.156 111.539 440.422H113.891C113.891 441.677 114.641 442.305 116.141 442.305C116.698 442.305 117.133 442.193 117.445 441.969C117.758 441.74 117.914 441.422 117.914 441.016ZM125.602 444.156C124.362 444.156 123.352 443.776 122.57 443.016C121.794 442.255 121.406 441.242 121.406 439.977V439.758C121.406 438.909 121.57 438.151 121.898 437.484C122.227 436.812 122.69 436.297 123.289 435.938C123.893 435.573 124.581 435.391 125.352 435.391C126.508 435.391 127.417 435.755 128.078 436.484C128.745 437.214 129.078 438.247 129.078 439.586V440.508H123.695C123.768 441.06 123.987 441.503 124.352 441.836C124.721 442.169 125.188 442.336 125.75 442.336C126.62 442.336 127.299 442.021 127.789 441.391L128.898 442.633C128.56 443.112 128.102 443.487 127.523 443.758C126.945 444.023 126.305 444.156 125.602 444.156ZM125.344 437.219C124.896 437.219 124.531 437.37 124.25 437.672C123.974 437.974 123.797 438.406 123.719 438.969H126.859V438.789C126.849 438.289 126.714 437.904 126.453 437.633C126.193 437.357 125.823 437.219 125.344 437.219ZM132.75 444H130.484V435.547H132.75V444ZM130.352 433.359C130.352 433.021 130.464 432.742 130.688 432.523C130.917 432.305 131.227 432.195 131.617 432.195C132.003 432.195 132.31 432.305 132.539 432.523C132.768 432.742 132.883 433.021 132.883 433.359C132.883 433.703 132.766 433.984 132.531 434.203C132.302 434.422 131.997 434.531 131.617 434.531C131.237 434.531 130.93 434.422 130.695 434.203C130.466 433.984 130.352 433.703 130.352 433.359ZM139.195 441.664C139.195 441.388 139.057 441.172 138.781 441.016C138.51 440.854 138.073 440.711 137.469 440.586C135.458 440.164 134.453 439.31 134.453 438.023C134.453 437.273 134.763 436.648 135.383 436.148C136.008 435.643 136.823 435.391 137.828 435.391C138.901 435.391 139.758 435.643 140.398 436.148C141.044 436.654 141.367 437.31 141.367 438.117H139.109C139.109 437.794 139.005 437.529 138.797 437.32C138.589 437.107 138.263 437 137.82 437C137.44 437 137.146 437.086 136.938 437.258C136.729 437.43 136.625 437.648 136.625 437.914C136.625 438.164 136.742 438.367 136.977 438.523C137.216 438.674 137.617 438.807 138.18 438.922C138.742 439.031 139.216 439.156 139.602 439.297C140.794 439.734 141.391 440.492 141.391 441.57C141.391 442.341 141.06 442.966 140.398 443.445C139.737 443.919 138.883 444.156 137.836 444.156C137.128 444.156 136.497 444.031 135.945 443.781C135.398 443.526 134.969 443.18 134.656 442.742C134.344 442.299 134.188 441.823 134.188 441.312H136.328C136.349 441.714 136.497 442.021 136.773 442.234C137.049 442.448 137.419 442.555 137.883 442.555C138.315 442.555 138.641 442.474 138.859 442.312C139.083 442.146 139.195 441.93 139.195 441.664Z" fill="#6E33A6"/>
<path d="M322.016 15V3.625H325.516C326.516 3.625 327.409 3.85156 328.195 4.30469C328.987 4.7526 329.604 5.39323 330.047 6.22656C330.49 7.05469 330.711 7.9974 330.711 9.05469V9.57812C330.711 10.6354 330.492 11.5755 330.055 12.3984C329.622 13.2214 329.01 13.8594 328.219 14.3125C327.427 14.7656 326.534 14.9948 325.539 15H322.016ZM324.359 5.52344V13.1172H325.492C326.409 13.1172 327.109 12.8177 327.594 12.2188C328.078 11.6198 328.326 10.763 328.336 9.64844V9.04688C328.336 7.89062 328.096 7.01562 327.617 6.42188C327.138 5.82292 326.438 5.52344 325.516 5.52344H324.359ZM331.922 10.6953C331.922 9.85677 332.083 9.10938 332.406 8.45312C332.729 7.79688 333.193 7.28906 333.797 6.92969C334.406 6.57031 335.112 6.39062 335.914 6.39062C337.055 6.39062 337.984 6.73958 338.703 7.4375C339.427 8.13542 339.831 9.08333 339.914 10.2812L339.93 10.8594C339.93 12.1562 339.568 13.1979 338.844 13.9844C338.12 14.7656 337.148 15.1562 335.93 15.1562C334.711 15.1562 333.737 14.7656 333.008 13.9844C332.284 13.2031 331.922 12.1406 331.922 10.7969V10.6953ZM334.18 10.8594C334.18 11.6615 334.331 12.276 334.633 12.7031C334.935 13.125 335.367 13.3359 335.93 13.3359C336.477 13.3359 336.904 13.1276 337.211 12.7109C337.518 12.2891 337.672 11.6172 337.672 10.6953C337.672 9.90885 337.518 9.29948 337.211 8.86719C336.904 8.4349 336.471 8.21875 335.914 8.21875C335.362 8.21875 334.935 8.4349 334.633 8.86719C334.331 9.29427 334.18 9.95833 334.18 10.8594ZM343.703 15H341.438V6.54688H343.703V15ZM341.305 4.35938C341.305 4.02083 341.417 3.74219 341.641 3.52344C341.87 3.30469 342.18 3.19531 342.57 3.19531C342.956 3.19531 343.263 3.30469 343.492 3.52344C343.721 3.74219 343.836 4.02083 343.836 4.35938C343.836 4.70312 343.719 4.98438 343.484 5.20312C343.255 5.42188 342.951 5.53125 342.57 5.53125C342.19 5.53125 341.883 5.42188 341.648 5.20312C341.419 4.98438 341.305 4.70312 341.305 4.35938ZM350.148 12.6641C350.148 12.388 350.01 12.1719 349.734 12.0156C349.464 11.8542 349.026 11.7109 348.422 11.5859C346.411 11.1641 345.406 10.3099 345.406 9.02344C345.406 8.27344 345.716 7.64844 346.336 7.14844C346.961 6.64323 347.776 6.39062 348.781 6.39062C349.854 6.39062 350.711 6.64323 351.352 7.14844C351.997 7.65365 352.32 8.3099 352.32 9.11719H350.062C350.062 8.79427 349.958 8.52865 349.75 8.32031C349.542 8.10677 349.216 8 348.773 8C348.393 8 348.099 8.08594 347.891 8.25781C347.682 8.42969 347.578 8.64844 347.578 8.91406C347.578 9.16406 347.695 9.36719 347.93 9.52344C348.169 9.67448 348.57 9.80729 349.133 9.92188C349.695 10.0312 350.169 10.1562 350.555 10.2969C351.747 10.7344 352.344 11.4922 352.344 12.5703C352.344 13.3411 352.013 13.9661 351.352 14.4453C350.69 14.9193 349.836 15.1562 348.789 15.1562C348.081 15.1562 347.451 15.0312 346.898 14.7812C346.352 14.526 345.922 14.1797 345.609 13.7422C345.297 13.2995 345.141 12.8229 345.141 12.3125H347.281C347.302 12.7135 347.451 13.0208 347.727 13.2344C348.003 13.4479 348.372 13.5547 348.836 13.5547C349.268 13.5547 349.594 13.474 349.812 13.3125C350.036 13.1458 350.148 12.9297 350.148 12.6641Z" fill="#6E33A6"/>
</svg>
