<svg width="560" height="440" viewBox="0 0 560 440" fill="none" xmlns="http://www.w3.org/2000/svg">
<rect width="520" height="419" fill="#FFF6FA"/>
<rect width="520" height="99" fill="#5ED4B9"/>
<rect x="110" y="110" width="200" height="199" fill="#B688E0"/>
<rect x="111" y="320" width="199" height="99" fill="#B688E0"/>
<rect x="321" y="110" width="200" height="199" fill="#B688E0"/>
<path d="M9.625 3.625V11.1172C9.625 12.362 9.23438 13.3464 8.45312 14.0703C7.67708 14.7943 6.61458 15.1562 5.26562 15.1562C3.9375 15.1562 2.88281 14.8047 2.10156 14.1016C1.32031 13.3984 0.921875 12.4323 0.90625 11.2031V3.625H3.25V11.1328C3.25 11.8776 3.42708 12.4219 3.78125 12.7656C4.14062 13.1042 4.63542 13.2734 5.26562 13.2734C6.58333 13.2734 7.2526 12.5807 7.27344 11.1953V3.625H9.625ZM13.5156 6.54688L13.5859 7.49219C14.1849 6.75781 14.9948 6.39062 16.0156 6.39062C17.1042 6.39062 17.8516 6.82031 18.2578 7.67969C18.8516 6.82031 19.6979 6.39062 20.7969 6.39062C21.7135 6.39062 22.3958 6.65885 22.8438 7.19531C23.2917 7.72656 23.5156 8.52865 23.5156 9.60156V15H21.25V9.60938C21.25 9.13021 21.1562 8.78125 20.9688 8.5625C20.7812 8.33854 20.4505 8.22656 19.9766 8.22656C19.2995 8.22656 18.8307 8.54948 18.5703 9.19531L18.5781 15H16.3203V9.61719C16.3203 9.1276 16.224 8.77344 16.0312 8.55469C15.8385 8.33594 15.5104 8.22656 15.0469 8.22656C14.4062 8.22656 13.9427 8.49219 13.6562 9.02344V15H11.3984V6.54688H13.5156Z" fill="#6E33A6"/>
<path d="M117.914 331.016C117.914 330.573 117.758 330.234 117.445 330C117.133 329.76 116.57 329.51 115.758 329.25C114.945 328.984 114.302 328.724 113.828 328.469C112.536 327.771 111.891 326.831 111.891 325.648C111.891 325.034 112.062 324.487 112.406 324.008C112.755 323.523 113.253 323.146 113.898 322.875C114.549 322.604 115.279 322.469 116.086 322.469C116.898 322.469 117.622 322.617 118.258 322.914C118.893 323.206 119.385 323.62 119.734 324.156C120.089 324.693 120.266 325.302 120.266 325.984H117.922C117.922 325.464 117.758 325.06 117.43 324.773C117.102 324.482 116.641 324.336 116.047 324.336C115.474 324.336 115.029 324.458 114.711 324.703C114.393 324.943 114.234 325.26 114.234 325.656C114.234 326.026 114.419 326.336 114.789 326.586C115.164 326.836 115.714 327.07 116.438 327.289C117.771 327.69 118.742 328.188 119.352 328.781C119.961 329.375 120.266 330.115 120.266 331C120.266 331.984 119.893 332.758 119.148 333.32C118.404 333.878 117.401 334.156 116.141 334.156C115.266 334.156 114.469 333.997 113.75 333.68C113.031 333.357 112.482 332.917 112.102 332.359C111.727 331.802 111.539 331.156 111.539 330.422H113.891C113.891 331.677 114.641 332.305 116.141 332.305C116.698 332.305 117.133 332.193 117.445 331.969C117.758 331.74 117.914 331.422 117.914 331.016ZM125.602 334.156C124.362 334.156 123.352 333.776 122.57 333.016C121.794 332.255 121.406 331.242 121.406 329.977V329.758C121.406 328.909 121.57 328.151 121.898 327.484C122.227 326.812 122.69 326.297 123.289 325.938C123.893 325.573 124.581 325.391 125.352 325.391C126.508 325.391 127.417 325.755 128.078 326.484C128.745 327.214 129.078 328.247 129.078 329.586V330.508H123.695C123.768 331.06 123.987 331.503 124.352 331.836C124.721 332.169 125.188 332.336 125.75 332.336C126.62 332.336 127.299 332.021 127.789 331.391L128.898 332.633C128.56 333.112 128.102 333.487 127.523 333.758C126.945 334.023 126.305 334.156 125.602 334.156ZM125.344 327.219C124.896 327.219 124.531 327.37 124.25 327.672C123.974 327.974 123.797 328.406 123.719 328.969H126.859V328.789C126.849 328.289 126.714 327.904 126.453 327.633C126.193 327.357 125.823 327.219 125.344 327.219ZM132.75 334H130.484V325.547H132.75V334ZM130.352 323.359C130.352 323.021 130.464 322.742 130.688 322.523C130.917 322.305 131.227 322.195 131.617 322.195C132.003 322.195 132.31 322.305 132.539 322.523C132.768 322.742 132.883 323.021 132.883 323.359C132.883 323.703 132.766 323.984 132.531 324.203C132.302 324.422 131.997 324.531 131.617 324.531C131.237 324.531 130.93 324.422 130.695 324.203C130.466 323.984 130.352 323.703 130.352 323.359ZM139.195 331.664C139.195 331.388 139.057 331.172 138.781 331.016C138.51 330.854 138.073 330.711 137.469 330.586C135.458 330.164 134.453 329.31 134.453 328.023C134.453 327.273 134.763 326.648 135.383 326.148C136.008 325.643 136.823 325.391 137.828 325.391C138.901 325.391 139.758 325.643 140.398 326.148C141.044 326.654 141.367 327.31 141.367 328.117H139.109C139.109 327.794 139.005 327.529 138.797 327.32C138.589 327.107 138.263 327 137.82 327C137.44 327 137.146 327.086 136.938 327.258C136.729 327.43 136.625 327.648 136.625 327.914C136.625 328.164 136.742 328.367 136.977 328.523C137.216 328.674 137.617 328.807 138.18 328.922C138.742 329.031 139.216 329.156 139.602 329.297C140.794 329.734 141.391 330.492 141.391 331.57C141.391 332.341 141.06 332.966 140.398 333.445C139.737 333.919 138.883 334.156 137.836 334.156C137.128 334.156 136.497 334.031 135.945 333.781C135.398 333.526 134.969 333.18 134.656 332.742C134.344 332.299 134.188 331.823 134.188 331.312H136.328C136.349 331.714 136.497 332.021 136.773 332.234C137.049 332.448 137.419 332.555 137.883 332.555C138.315 332.555 138.641 332.474 138.859 332.312C139.083 332.146 139.195 331.93 139.195 331.664Z" fill="#6E33A6"/>
<path d="M120.578 113.523H117.094V123H114.75V113.523H111.312V111.625H120.578V113.523ZM126.008 116.664C125.701 116.622 125.43 116.602 125.195 116.602C124.341 116.602 123.781 116.891 123.516 117.469V123H121.258V114.547H123.391L123.453 115.555C123.906 114.779 124.534 114.391 125.336 114.391C125.586 114.391 125.82 114.424 126.039 114.492L126.008 116.664ZM130.836 123.156C129.596 123.156 128.586 122.776 127.805 122.016C127.029 121.255 126.641 120.242 126.641 118.977V118.758C126.641 117.909 126.805 117.151 127.133 116.484C127.461 115.812 127.924 115.297 128.523 114.938C129.128 114.573 129.815 114.391 130.586 114.391C131.742 114.391 132.651 114.755 133.312 115.484C133.979 116.214 134.312 117.247 134.312 118.586V119.508H128.93C129.003 120.06 129.221 120.503 129.586 120.836C129.956 121.169 130.422 121.336 130.984 121.336C131.854 121.336 132.534 121.021 133.023 120.391L134.133 121.633C133.794 122.112 133.336 122.487 132.758 122.758C132.18 123.023 131.539 123.156 130.836 123.156ZM130.578 116.219C130.13 116.219 129.766 116.37 129.484 116.672C129.208 116.974 129.031 117.406 128.953 117.969H132.094V117.789C132.083 117.289 131.948 116.904 131.688 116.633C131.427 116.357 131.057 116.219 130.578 116.219ZM133.328 113.188V113.281H131.531L130.328 112.148L129.125 113.281H127.359V113.156L129.672 111H130.984L133.328 113.188ZM140.18 120.664C140.18 120.388 140.042 120.172 139.766 120.016C139.495 119.854 139.057 119.711 138.453 119.586C136.443 119.164 135.438 118.31 135.438 117.023C135.438 116.273 135.747 115.648 136.367 115.148C136.992 114.643 137.807 114.391 138.812 114.391C139.885 114.391 140.742 114.643 141.383 115.148C142.029 115.654 142.352 116.31 142.352 117.117H140.094C140.094 116.794 139.99 116.529 139.781 116.32C139.573 116.107 139.247 116 138.805 116C138.424 116 138.13 116.086 137.922 116.258C137.714 116.43 137.609 116.648 137.609 116.914C137.609 117.164 137.727 117.367 137.961 117.523C138.201 117.674 138.602 117.807 139.164 117.922C139.727 118.031 140.201 118.156 140.586 118.297C141.779 118.734 142.375 119.492 142.375 120.57C142.375 121.341 142.044 121.966 141.383 122.445C140.721 122.919 139.867 123.156 138.82 123.156C138.112 123.156 137.482 123.031 136.93 122.781C136.383 122.526 135.953 122.18 135.641 121.742C135.328 121.299 135.172 120.823 135.172 120.312H137.312C137.333 120.714 137.482 121.021 137.758 121.234C138.034 121.448 138.404 121.555 138.867 121.555C139.299 121.555 139.625 121.474 139.844 121.312C140.068 121.146 140.18 120.93 140.18 120.664Z" fill="#6E33A6"/>
<path d="M331.344 117.57C331.344 118.633 331.172 119.557 330.828 120.344C330.484 121.125 330.008 121.753 329.398 122.227L331.289 123.711L329.797 125.031L327.375 123.086C327.099 123.133 326.812 123.156 326.516 123.156C325.573 123.156 324.732 122.93 323.992 122.477C323.253 122.023 322.68 121.378 322.273 120.539C321.867 119.695 321.661 118.727 321.656 117.633V117.07C321.656 115.951 321.857 114.966 322.258 114.117C322.664 113.263 323.234 112.609 323.969 112.156C324.708 111.698 325.552 111.469 326.5 111.469C327.448 111.469 328.289 111.698 329.023 112.156C329.763 112.609 330.333 113.263 330.734 114.117C331.141 114.966 331.344 115.948 331.344 117.062V117.57ZM328.969 117.055C328.969 115.862 328.755 114.956 328.328 114.336C327.901 113.716 327.292 113.406 326.5 113.406C325.714 113.406 325.107 113.714 324.68 114.328C324.253 114.938 324.036 115.833 324.031 117.016V117.57C324.031 118.732 324.245 119.633 324.672 120.273C325.099 120.914 325.714 121.234 326.516 121.234C327.302 121.234 327.906 120.927 328.328 120.312C328.75 119.693 328.964 118.792 328.969 117.609V117.055ZM337.977 122.141C337.419 122.818 336.648 123.156 335.664 123.156C334.758 123.156 334.065 122.896 333.586 122.375C333.112 121.854 332.87 121.091 332.859 120.086V114.547H335.117V120.008C335.117 120.888 335.518 121.328 336.32 121.328C337.086 121.328 337.612 121.062 337.898 120.531V114.547H340.164V123H338.039L337.977 122.141ZM346.766 123C346.661 122.797 346.586 122.544 346.539 122.242C345.992 122.852 345.281 123.156 344.406 123.156C343.578 123.156 342.891 122.917 342.344 122.438C341.802 121.958 341.531 121.354 341.531 120.625C341.531 119.729 341.862 119.042 342.523 118.562C343.19 118.083 344.151 117.841 345.406 117.836H346.445V117.352C346.445 116.961 346.344 116.648 346.141 116.414C345.943 116.18 345.628 116.062 345.195 116.062C344.815 116.062 344.516 116.154 344.297 116.336C344.083 116.518 343.977 116.768 343.977 117.086H341.719C341.719 116.596 341.87 116.143 342.172 115.727C342.474 115.31 342.901 114.984 343.453 114.75C344.005 114.51 344.625 114.391 345.312 114.391C346.354 114.391 347.18 114.654 347.789 115.18C348.404 115.701 348.711 116.435 348.711 117.383V121.047C348.716 121.849 348.828 122.456 349.047 122.867V123H346.766ZM344.898 121.43C345.232 121.43 345.539 121.357 345.82 121.211C346.102 121.06 346.31 120.859 346.445 120.609V119.156H345.602C344.471 119.156 343.87 119.547 343.797 120.328L343.789 120.461C343.789 120.742 343.888 120.974 344.086 121.156C344.284 121.339 344.555 121.43 344.898 121.43ZM353.148 112.469V114.547H354.594V116.203H353.148V120.422C353.148 120.734 353.208 120.958 353.328 121.094C353.448 121.229 353.677 121.297 354.016 121.297C354.266 121.297 354.487 121.279 354.68 121.242V122.953C354.237 123.089 353.781 123.156 353.312 123.156C351.729 123.156 350.922 122.357 350.891 120.758V116.203H349.656V114.547H350.891V112.469H353.148ZM360.602 116.664C360.294 116.622 360.023 116.602 359.789 116.602C358.935 116.602 358.375 116.891 358.109 117.469V123H355.852V114.547H357.984L358.047 115.555C358.5 114.779 359.128 114.391 359.93 114.391C360.18 114.391 360.414 114.424 360.633 114.492L360.602 116.664ZM361.062 118.695C361.062 117.857 361.224 117.109 361.547 116.453C361.87 115.797 362.333 115.289 362.938 114.93C363.547 114.57 364.253 114.391 365.055 114.391C366.195 114.391 367.125 114.74 367.844 115.438C368.568 116.135 368.971 117.083 369.055 118.281L369.07 118.859C369.07 120.156 368.708 121.198 367.984 121.984C367.26 122.766 366.289 123.156 365.07 123.156C363.852 123.156 362.878 122.766 362.148 121.984C361.424 121.203 361.062 120.141 361.062 118.797V118.695ZM363.32 118.859C363.32 119.661 363.471 120.276 363.773 120.703C364.076 121.125 364.508 121.336 365.07 121.336C365.617 121.336 366.044 121.128 366.352 120.711C366.659 120.289 366.812 119.617 366.812 118.695C366.812 117.909 366.659 117.299 366.352 116.867C366.044 116.435 365.612 116.219 365.055 116.219C364.503 116.219 364.076 116.435 363.773 116.867C363.471 117.294 363.32 117.958 363.32 118.859Z" fill="#6E33A6"/>
<line x1="100.5" x2="100.5" y2="419" stroke="#DB2B6C"/>
<line x1="110.5" x2="110.5" y2="419" stroke="#DB2B6C"/>
<line y1="99.5" x2="520" y2="99.5" stroke="#DB2B6C"/>
<line y1="109.5" x2="520" y2="109.5" stroke="#DB2B6C"/>
<line y1="309.5" x2="520" y2="309.5" stroke="#DB2B6C"/>
<line x1="520" y1="319.5" x2="560" y2="319.5" stroke="#DB2B6C" stroke-dasharray="2 2"/>
<line y1="319.5" x2="520" y2="319.5" stroke="#DB2B6C"/>
<line y1="419.5" x2="520" y2="419.5" stroke="#DB2B6C"/>
<line x1="520" y1="309.5" x2="560" y2="309.5" stroke="#DB2B6C" stroke-dasharray="2 2"/>
<line x1="520" y1="109.5" x2="560" y2="109.5" stroke="#DB2B6C" stroke-dasharray="2 2"/>
<line x1="520" y1="99.5" x2="560" y2="99.5" stroke="#DB2B6C" stroke-dasharray="2 2"/>
<line y1="419.5" x2="560" y2="419.5" stroke="#DB2B6C" stroke-dasharray="2 2"/>
<line x1="310.5" x2="310.5" y2="420" stroke="#DB2B6C"/>
<line x1="320.5" x2="320.5" y2="419" stroke="#DB2B6C"/>
<line x1="100.5" y1="310" x2="100.5" y2="440" stroke="#DB2B6C" stroke-dasharray="2 2"/>
<line x1="110.5" y1="310" x2="110.5" y2="440" stroke="#DB2B6C" stroke-dasharray="2 2"/>
<line x1="310.5" y1="309" x2="310.5" y2="439" stroke="#DB2B6C" stroke-dasharray="2 2"/>
<line x1="320.5" y1="309" x2="320.5" y2="439" stroke="#DB2B6C" stroke-dasharray="2 2"/>
<rect y="320" width="100" height="99" fill="#B688E0"/>
<rect y="110" width="100" height="199" fill="#B688E0"/>
<path d="M9.94531 330.211C9.85677 331.435 9.40365 332.398 8.58594 333.102C7.77344 333.805 6.70052 334.156 5.36719 334.156C3.90885 334.156 2.76042 333.667 1.92188 332.688C1.08854 331.703 0.671875 330.354 0.671875 328.641V327.945C0.671875 326.852 0.864583 325.888 1.25 325.055C1.63542 324.221 2.1849 323.583 2.89844 323.141C3.61719 322.693 4.45052 322.469 5.39844 322.469C6.71094 322.469 7.76823 322.82 8.57031 323.523C9.3724 324.227 9.83594 325.214 9.96094 326.484H7.61719C7.5599 325.75 7.35417 325.219 7 324.891C6.65104 324.557 6.11719 324.391 5.39844 324.391C4.61719 324.391 4.03125 324.672 3.64062 325.234C3.25521 325.792 3.05729 326.659 3.04688 327.836V328.695C3.04688 329.924 3.23177 330.823 3.60156 331.391C3.97656 331.958 4.5651 332.242 5.36719 332.242C6.09115 332.242 6.63021 332.078 6.98438 331.75C7.34375 331.417 7.54948 330.904 7.60156 330.211H9.94531ZM13.7188 334H11.4531V325.547H13.7188V334ZM11.3203 323.359C11.3203 323.021 11.4323 322.742 11.6562 322.523C11.8854 322.305 12.1953 322.195 12.5859 322.195C12.9714 322.195 13.2786 322.305 13.5078 322.523C13.737 322.742 13.8516 323.021 13.8516 323.359C13.8516 323.703 13.7344 323.984 13.5 324.203C13.2708 324.422 12.9661 324.531 12.5859 324.531C12.2057 324.531 11.8984 324.422 11.6641 324.203C11.4349 323.984 11.3203 323.703 11.3203 323.359ZM17.6641 325.547L17.7344 326.523C18.3385 325.768 19.1484 325.391 20.1641 325.391C21.0599 325.391 21.7266 325.654 22.1641 326.18C22.6016 326.706 22.8255 327.492 22.8359 328.539V334H20.5781V328.594C20.5781 328.115 20.474 327.768 20.2656 327.555C20.0573 327.336 19.7109 327.227 19.2266 327.227C18.5911 327.227 18.1146 327.497 17.7969 328.039V334H15.5391V325.547H17.6641ZM28.0703 332.336C28.487 332.336 28.8255 332.221 29.0859 331.992C29.3464 331.763 29.4818 331.458 29.4922 331.078H31.6094C31.6042 331.651 31.4479 332.177 31.1406 332.656C30.8333 333.13 30.4115 333.5 29.875 333.766C29.3438 334.026 28.7552 334.156 28.1094 334.156C26.901 334.156 25.9479 333.773 25.25 333.008C24.5521 332.237 24.2031 331.174 24.2031 329.82V329.672C24.2031 328.37 24.5495 327.331 25.2422 326.555C25.9349 325.779 26.8854 325.391 28.0938 325.391C29.151 325.391 29.9974 325.693 30.6328 326.297C31.2734 326.896 31.599 327.695 31.6094 328.695H29.4922C29.4818 328.258 29.3464 327.904 29.0859 327.633C28.8255 327.357 28.4818 327.219 28.0547 327.219C27.5286 327.219 27.1302 327.411 26.8594 327.797C26.5938 328.177 26.4609 328.797 26.4609 329.656V329.891C26.4609 330.76 26.5938 331.385 26.8594 331.766C27.125 332.146 27.5286 332.336 28.0703 332.336ZM32.5469 329.695C32.5469 328.857 32.7083 328.109 33.0312 327.453C33.3542 326.797 33.8177 326.289 34.4219 325.93C35.0312 325.57 35.737 325.391 36.5391 325.391C37.6797 325.391 38.6094 325.74 39.3281 326.438C40.0521 327.135 40.4557 328.083 40.5391 329.281L40.5547 329.859C40.5547 331.156 40.1927 332.198 39.4688 332.984C38.7448 333.766 37.7734 334.156 36.5547 334.156C35.3359 334.156 34.362 333.766 33.6328 332.984C32.9089 332.203 32.5469 331.141 32.5469 329.797V329.695ZM34.8047 329.859C34.8047 330.661 34.9557 331.276 35.2578 331.703C35.5599 332.125 35.9922 332.336 36.5547 332.336C37.1016 332.336 37.5286 332.128 37.8359 331.711C38.1432 331.289 38.2969 330.617 38.2969 329.695C38.2969 328.909 38.1432 328.299 37.8359 327.867C37.5286 327.435 37.0964 327.219 36.5391 327.219C35.987 327.219 35.5599 327.435 35.2578 327.867C34.9557 328.294 34.8047 328.958 34.8047 329.859Z" fill="#6E33A6"/>
<path d="M1.01562 125V113.625H4.51562C5.51562 113.625 6.40885 113.852 7.19531 114.305C7.98698 114.753 8.60417 115.393 9.04688 116.227C9.48958 117.055 9.71094 117.997 9.71094 119.055V119.578C9.71094 120.635 9.49219 121.576 9.05469 122.398C8.6224 123.221 8.01042 123.859 7.21875 124.312C6.42708 124.766 5.53385 124.995 4.53906 125H1.01562ZM3.35938 115.523V123.117H4.49219C5.40885 123.117 6.10938 122.818 6.59375 122.219C7.07812 121.62 7.32552 120.763 7.33594 119.648V119.047C7.33594 117.891 7.09635 117.016 6.61719 116.422C6.13802 115.823 5.4375 115.523 4.51562 115.523H3.35938ZM10.9219 120.695C10.9219 119.857 11.0833 119.109 11.4062 118.453C11.7292 117.797 12.1927 117.289 12.7969 116.93C13.4062 116.57 14.112 116.391 14.9141 116.391C16.0547 116.391 16.9844 116.74 17.7031 117.438C18.4271 118.135 18.8307 119.083 18.9141 120.281L18.9297 120.859C18.9297 122.156 18.5677 123.198 17.8438 123.984C17.1198 124.766 16.1484 125.156 14.9297 125.156C13.7109 125.156 12.737 124.766 12.0078 123.984C11.2839 123.203 10.9219 122.141 10.9219 120.797V120.695ZM13.1797 120.859C13.1797 121.661 13.3307 122.276 13.6328 122.703C13.9349 123.125 14.3672 123.336 14.9297 123.336C15.4766 123.336 15.9036 123.128 16.2109 122.711C16.5182 122.289 16.6719 121.617 16.6719 120.695C16.6719 119.909 16.5182 119.299 16.2109 118.867C15.9036 118.435 15.4714 118.219 14.9141 118.219C14.362 118.219 13.9349 118.435 13.6328 118.867C13.3307 119.294 13.1797 119.958 13.1797 120.859ZM22.7031 125H20.4375V116.547H22.7031V125ZM20.3047 114.359C20.3047 114.021 20.4167 113.742 20.6406 113.523C20.8698 113.305 21.1797 113.195 21.5703 113.195C21.9557 113.195 22.263 113.305 22.4922 113.523C22.7214 113.742 22.8359 114.021 22.8359 114.359C22.8359 114.703 22.7188 114.984 22.4844 115.203C22.2552 115.422 21.9505 115.531 21.5703 115.531C21.1901 115.531 20.8828 115.422 20.6484 115.203C20.4193 114.984 20.3047 114.703 20.3047 114.359ZM29.1484 122.664C29.1484 122.388 29.0104 122.172 28.7344 122.016C28.4635 121.854 28.026 121.711 27.4219 121.586C25.4115 121.164 24.4062 120.31 24.4062 119.023C24.4062 118.273 24.7161 117.648 25.3359 117.148C25.9609 116.643 26.776 116.391 27.7812 116.391C28.8542 116.391 29.7109 116.643 30.3516 117.148C30.9974 117.654 31.3203 118.31 31.3203 119.117H29.0625C29.0625 118.794 28.9583 118.529 28.75 118.32C28.5417 118.107 28.2161 118 27.7734 118C27.3932 118 27.099 118.086 26.8906 118.258C26.6823 118.43 26.5781 118.648 26.5781 118.914C26.5781 119.164 26.6953 119.367 26.9297 119.523C27.1693 119.674 27.5703 119.807 28.1328 119.922C28.6953 120.031 29.1693 120.156 29.5547 120.297C30.7474 120.734 31.3438 121.492 31.3438 122.57C31.3438 123.341 31.013 123.966 30.3516 124.445C29.6901 124.919 28.8359 125.156 27.7891 125.156C27.0807 125.156 26.4505 125.031 25.8984 124.781C25.3516 124.526 24.9219 124.18 24.6094 123.742C24.2969 123.299 24.1406 122.823 24.1406 122.312H26.2812C26.3021 122.714 26.4505 123.021 26.7266 123.234C27.0026 123.448 27.3724 123.555 27.8359 123.555C28.2682 123.555 28.5938 123.474 28.8125 123.312C29.0365 123.146 29.1484 122.93 29.1484 122.664Z" fill="#6E33A6"/>
</svg>
