<svg width="560" height="441" viewBox="0 0 560 441" fill="none" xmlns="http://www.w3.org/2000/svg">
<rect width="520" height="420" fill="#FFF6FA"/>
<rect y="1" width="100" height="99" fill="#B688E0"/>
<rect y="111" width="100" height="199" fill="#B688E0"/>
<rect x="111" y="1" width="199" height="99" fill="#B688E0"/>
<rect x="111" y="111" width="199" height="199" fill="#B688E0"/>
<rect x="321" y="1" width="199" height="99" fill="#B688E0"/>
<rect x="321" y="111" width="199" height="199" fill="#B688E0"/>
<path d="M9.625 3.625V11.1172C9.625 12.362 9.23438 13.3464 8.45312 14.0703C7.67708 14.7943 6.61458 15.1562 5.26562 15.1562C3.9375 15.1562 2.88281 14.8047 2.10156 14.1016C1.32031 13.3984 0.921875 12.4323 0.90625 11.2031V3.625H3.25V11.1328C3.25 11.8776 3.42708 12.4219 3.78125 12.7656C4.14062 13.1042 4.63542 13.2734 5.26562 13.2734C6.58333 13.2734 7.2526 12.5807 7.27344 11.1953V3.625H9.625ZM13.5156 6.54688L13.5859 7.49219C14.1849 6.75781 14.9948 6.39062 16.0156 6.39062C17.1042 6.39062 17.8516 6.82031 18.2578 7.67969C18.8516 6.82031 19.6979 6.39062 20.7969 6.39062C21.7135 6.39062 22.3958 6.65885 22.8438 7.19531C23.2917 7.72656 23.5156 8.52865 23.5156 9.60156V15H21.25V9.60938C21.25 9.13021 21.1562 8.78125 20.9688 8.5625C20.7812 8.33854 20.4505 8.22656 19.9766 8.22656C19.2995 8.22656 18.8307 8.54948 18.5703 9.19531L18.5781 15H16.3203V9.61719C16.3203 9.1276 16.224 8.77344 16.0312 8.55469C15.8385 8.33594 15.5104 8.22656 15.0469 8.22656C14.4062 8.22656 13.9427 8.49219 13.6562 9.02344V15H11.3984V6.54688H13.5156Z" fill="#6E33A6"/>
<path d="M11.3438 120.57C11.3438 121.633 11.1719 122.557 10.8281 123.344C10.4844 124.125 10.0078 124.753 9.39844 125.227L11.2891 126.711L9.79688 128.031L7.375 126.086C7.09896 126.133 6.8125 126.156 6.51562 126.156C5.57292 126.156 4.73177 125.93 3.99219 125.477C3.2526 125.023 2.67969 124.378 2.27344 123.539C1.86719 122.695 1.66146 121.727 1.65625 120.633V120.07C1.65625 118.951 1.85677 117.966 2.25781 117.117C2.66406 116.263 3.23438 115.609 3.96875 115.156C4.70833 114.698 5.55208 114.469 6.5 114.469C7.44792 114.469 8.28906 114.698 9.02344 115.156C9.76302 115.609 10.3333 116.263 10.7344 117.117C11.1406 117.966 11.3438 118.948 11.3438 120.062V120.57ZM8.96875 120.055C8.96875 118.862 8.75521 117.956 8.32812 117.336C7.90104 116.716 7.29167 116.406 6.5 116.406C5.71354 116.406 5.10677 116.714 4.67969 117.328C4.2526 117.938 4.03646 118.833 4.03125 120.016V120.57C4.03125 121.732 4.24479 122.633 4.67188 123.273C5.09896 123.914 5.71354 124.234 6.51562 124.234C7.30208 124.234 7.90625 123.927 8.32812 123.312C8.75 122.693 8.96354 121.792 8.96875 120.609V120.055ZM17.9766 125.141C17.4193 125.818 16.6484 126.156 15.6641 126.156C14.7578 126.156 14.0651 125.896 13.5859 125.375C13.112 124.854 12.8698 124.091 12.8594 123.086V117.547H15.1172V123.008C15.1172 123.888 15.5182 124.328 16.3203 124.328C17.0859 124.328 17.612 124.062 17.8984 123.531V117.547H20.1641V126H18.0391L17.9766 125.141ZM26.7656 126C26.6615 125.797 26.5859 125.544 26.5391 125.242C25.9922 125.852 25.2812 126.156 24.4062 126.156C23.5781 126.156 22.8906 125.917 22.3438 125.438C21.8021 124.958 21.5312 124.354 21.5312 123.625C21.5312 122.729 21.862 122.042 22.5234 121.562C23.1901 121.083 24.151 120.841 25.4062 120.836H26.4453V120.352C26.4453 119.961 26.3438 119.648 26.1406 119.414C25.9427 119.18 25.6276 119.062 25.1953 119.062C24.8151 119.062 24.5156 119.154 24.2969 119.336C24.0833 119.518 23.9766 119.768 23.9766 120.086H21.7188C21.7188 119.596 21.8698 119.143 22.1719 118.727C22.474 118.31 22.901 117.984 23.4531 117.75C24.0052 117.51 24.625 117.391 25.3125 117.391C26.3542 117.391 27.1797 117.654 27.7891 118.18C28.4036 118.701 28.7109 119.435 28.7109 120.383V124.047C28.7161 124.849 28.8281 125.456 29.0469 125.867V126H26.7656ZM24.8984 124.43C25.2318 124.43 25.5391 124.357 25.8203 124.211C26.1016 124.06 26.3099 123.859 26.4453 123.609V122.156H25.6016C24.4714 122.156 23.8698 122.547 23.7969 123.328L23.7891 123.461C23.7891 123.742 23.888 123.974 24.0859 124.156C24.2839 124.339 24.5547 124.43 24.8984 124.43ZM33.1484 115.469V117.547H34.5938V119.203H33.1484V123.422C33.1484 123.734 33.2083 123.958 33.3281 124.094C33.4479 124.229 33.6771 124.297 34.0156 124.297C34.2656 124.297 34.487 124.279 34.6797 124.242V125.953C34.237 126.089 33.7812 126.156 33.3125 126.156C31.7292 126.156 30.9219 125.357 30.8906 123.758V119.203H29.6562V117.547H30.8906V115.469H33.1484ZM40.6016 119.664C40.2943 119.622 40.0234 119.602 39.7891 119.602C38.9349 119.602 38.375 119.891 38.1094 120.469V126H35.8516V117.547H37.9844L38.0469 118.555C38.5 117.779 39.1276 117.391 39.9297 117.391C40.1797 117.391 40.4141 117.424 40.6328 117.492L40.6016 119.664ZM41.0625 121.695C41.0625 120.857 41.224 120.109 41.5469 119.453C41.8698 118.797 42.3333 118.289 42.9375 117.93C43.5469 117.57 44.2526 117.391 45.0547 117.391C46.1953 117.391 47.125 117.74 47.8438 118.438C48.5677 119.135 48.9714 120.083 49.0547 121.281L49.0703 121.859C49.0703 123.156 48.7083 124.198 47.9844 124.984C47.2604 125.766 46.2891 126.156 45.0703 126.156C43.8516 126.156 42.8776 125.766 42.1484 124.984C41.4245 124.203 41.0625 123.141 41.0625 121.797V121.695ZM43.3203 121.859C43.3203 122.661 43.4714 123.276 43.7734 123.703C44.0755 124.125 44.5078 124.336 45.0703 124.336C45.6172 124.336 46.0443 124.128 46.3516 123.711C46.6589 123.289 46.8125 122.617 46.8125 121.695C46.8125 120.909 46.6589 120.299 46.3516 119.867C46.0443 119.435 45.612 119.219 45.0547 119.219C44.5026 119.219 44.0755 119.435 43.7734 119.867C43.4714 120.294 43.3203 120.958 43.3203 121.859Z" fill="#6E33A6"/>
<path d="M120.945 122.211C120.857 123.435 120.404 124.398 119.586 125.102C118.773 125.805 117.701 126.156 116.367 126.156C114.909 126.156 113.76 125.667 112.922 124.688C112.089 123.703 111.672 122.354 111.672 120.641V119.945C111.672 118.852 111.865 117.888 112.25 117.055C112.635 116.221 113.185 115.583 113.898 115.141C114.617 114.693 115.451 114.469 116.398 114.469C117.711 114.469 118.768 114.82 119.57 115.523C120.372 116.227 120.836 117.214 120.961 118.484H118.617C118.56 117.75 118.354 117.219 118 116.891C117.651 116.557 117.117 116.391 116.398 116.391C115.617 116.391 115.031 116.672 114.641 117.234C114.255 117.792 114.057 118.659 114.047 119.836V120.695C114.047 121.924 114.232 122.823 114.602 123.391C114.977 123.958 115.565 124.242 116.367 124.242C117.091 124.242 117.63 124.078 117.984 123.75C118.344 123.417 118.549 122.904 118.602 122.211H120.945ZM124.719 126H122.453V117.547H124.719V126ZM122.32 115.359C122.32 115.021 122.432 114.742 122.656 114.523C122.885 114.305 123.195 114.195 123.586 114.195C123.971 114.195 124.279 114.305 124.508 114.523C124.737 114.742 124.852 115.021 124.852 115.359C124.852 115.703 124.734 115.984 124.5 116.203C124.271 116.422 123.966 116.531 123.586 116.531C123.206 116.531 122.898 116.422 122.664 116.203C122.435 115.984 122.32 115.703 122.32 115.359ZM128.664 117.547L128.734 118.523C129.339 117.768 130.148 117.391 131.164 117.391C132.06 117.391 132.727 117.654 133.164 118.18C133.602 118.706 133.826 119.492 133.836 120.539V126H131.578V120.594C131.578 120.115 131.474 119.768 131.266 119.555C131.057 119.336 130.711 119.227 130.227 119.227C129.591 119.227 129.115 119.497 128.797 120.039V126H126.539V117.547H128.664ZM139.07 124.336C139.487 124.336 139.826 124.221 140.086 123.992C140.346 123.763 140.482 123.458 140.492 123.078H142.609C142.604 123.651 142.448 124.177 142.141 124.656C141.833 125.13 141.411 125.5 140.875 125.766C140.344 126.026 139.755 126.156 139.109 126.156C137.901 126.156 136.948 125.773 136.25 125.008C135.552 124.237 135.203 123.174 135.203 121.82V121.672C135.203 120.37 135.549 119.331 136.242 118.555C136.935 117.779 137.885 117.391 139.094 117.391C140.151 117.391 140.997 117.693 141.633 118.297C142.273 118.896 142.599 119.695 142.609 120.695H140.492C140.482 120.258 140.346 119.904 140.086 119.633C139.826 119.357 139.482 119.219 139.055 119.219C138.529 119.219 138.13 119.411 137.859 119.797C137.594 120.177 137.461 120.797 137.461 121.656V121.891C137.461 122.76 137.594 123.385 137.859 123.766C138.125 124.146 138.529 124.336 139.07 124.336ZM143.547 121.695C143.547 120.857 143.708 120.109 144.031 119.453C144.354 118.797 144.818 118.289 145.422 117.93C146.031 117.57 146.737 117.391 147.539 117.391C148.68 117.391 149.609 117.74 150.328 118.438C151.052 119.135 151.456 120.083 151.539 121.281L151.555 121.859C151.555 123.156 151.193 124.198 150.469 124.984C149.745 125.766 148.773 126.156 147.555 126.156C146.336 126.156 145.362 125.766 144.633 124.984C143.909 124.203 143.547 123.141 143.547 121.797V121.695ZM145.805 121.859C145.805 122.661 145.956 123.276 146.258 123.703C146.56 124.125 146.992 124.336 147.555 124.336C148.102 124.336 148.529 124.128 148.836 123.711C149.143 123.289 149.297 122.617 149.297 121.695C149.297 120.909 149.143 120.299 148.836 119.867C148.529 119.435 148.096 119.219 147.539 119.219C146.987 119.219 146.56 119.435 146.258 119.867C145.956 120.294 145.805 120.958 145.805 121.859Z" fill="#6E33A6"/>
<path d="M327.914 123.016C327.914 122.573 327.758 122.234 327.445 122C327.133 121.76 326.57 121.51 325.758 121.25C324.945 120.984 324.302 120.724 323.828 120.469C322.536 119.771 321.891 118.831 321.891 117.648C321.891 117.034 322.062 116.487 322.406 116.008C322.755 115.523 323.253 115.146 323.898 114.875C324.549 114.604 325.279 114.469 326.086 114.469C326.898 114.469 327.622 114.617 328.258 114.914C328.893 115.206 329.385 115.62 329.734 116.156C330.089 116.693 330.266 117.302 330.266 117.984H327.922C327.922 117.464 327.758 117.06 327.43 116.773C327.102 116.482 326.641 116.336 326.047 116.336C325.474 116.336 325.029 116.458 324.711 116.703C324.393 116.943 324.234 117.26 324.234 117.656C324.234 118.026 324.419 118.336 324.789 118.586C325.164 118.836 325.714 119.07 326.438 119.289C327.771 119.69 328.742 120.188 329.352 120.781C329.961 121.375 330.266 122.115 330.266 123C330.266 123.984 329.893 124.758 329.148 125.32C328.404 125.878 327.401 126.156 326.141 126.156C325.266 126.156 324.469 125.997 323.75 125.68C323.031 125.357 322.482 124.917 322.102 124.359C321.727 123.802 321.539 123.156 321.539 122.422H323.891C323.891 123.677 324.641 124.305 326.141 124.305C326.698 124.305 327.133 124.193 327.445 123.969C327.758 123.74 327.914 123.422 327.914 123.016ZM335.602 126.156C334.362 126.156 333.352 125.776 332.57 125.016C331.794 124.255 331.406 123.242 331.406 121.977V121.758C331.406 120.909 331.57 120.151 331.898 119.484C332.227 118.812 332.69 118.297 333.289 117.938C333.893 117.573 334.581 117.391 335.352 117.391C336.508 117.391 337.417 117.755 338.078 118.484C338.745 119.214 339.078 120.247 339.078 121.586V122.508H333.695C333.768 123.06 333.987 123.503 334.352 123.836C334.721 124.169 335.188 124.336 335.75 124.336C336.62 124.336 337.299 124.021 337.789 123.391L338.898 124.633C338.56 125.112 338.102 125.487 337.523 125.758C336.945 126.023 336.305 126.156 335.602 126.156ZM335.344 119.219C334.896 119.219 334.531 119.37 334.25 119.672C333.974 119.974 333.797 120.406 333.719 120.969H336.859V120.789C336.849 120.289 336.714 119.904 336.453 119.633C336.193 119.357 335.823 119.219 335.344 119.219ZM342.75 126H340.484V117.547H342.75V126ZM340.352 115.359C340.352 115.021 340.464 114.742 340.688 114.523C340.917 114.305 341.227 114.195 341.617 114.195C342.003 114.195 342.31 114.305 342.539 114.523C342.768 114.742 342.883 115.021 342.883 115.359C342.883 115.703 342.766 115.984 342.531 116.203C342.302 116.422 341.997 116.531 341.617 116.531C341.237 116.531 340.93 116.422 340.695 116.203C340.466 115.984 340.352 115.703 340.352 115.359ZM349.195 123.664C349.195 123.388 349.057 123.172 348.781 123.016C348.51 122.854 348.073 122.711 347.469 122.586C345.458 122.164 344.453 121.31 344.453 120.023C344.453 119.273 344.763 118.648 345.383 118.148C346.008 117.643 346.823 117.391 347.828 117.391C348.901 117.391 349.758 117.643 350.398 118.148C351.044 118.654 351.367 119.31 351.367 120.117H349.109C349.109 119.794 349.005 119.529 348.797 119.32C348.589 119.107 348.263 119 347.82 119C347.44 119 347.146 119.086 346.938 119.258C346.729 119.43 346.625 119.648 346.625 119.914C346.625 120.164 346.742 120.367 346.977 120.523C347.216 120.674 347.617 120.807 348.18 120.922C348.742 121.031 349.216 121.156 349.602 121.297C350.794 121.734 351.391 122.492 351.391 123.57C351.391 124.341 351.06 124.966 350.398 125.445C349.737 125.919 348.883 126.156 347.836 126.156C347.128 126.156 346.497 126.031 345.945 125.781C345.398 125.526 344.969 125.18 344.656 124.742C344.344 124.299 344.188 123.823 344.188 123.312H346.328C346.349 123.714 346.497 124.021 346.773 124.234C347.049 124.448 347.419 124.555 347.883 124.555C348.315 124.555 348.641 124.474 348.859 124.312C349.083 124.146 349.195 123.93 349.195 123.664Z" fill="#6E33A6"/>
<path d="M112.016 15V3.625H115.516C116.516 3.625 117.409 3.85156 118.195 4.30469C118.987 4.7526 119.604 5.39323 120.047 6.22656C120.49 7.05469 120.711 7.9974 120.711 9.05469V9.57812C120.711 10.6354 120.492 11.5755 120.055 12.3984C119.622 13.2214 119.01 13.8594 118.219 14.3125C117.427 14.7656 116.534 14.9948 115.539 15H112.016ZM114.359 5.52344V13.1172H115.492C116.409 13.1172 117.109 12.8177 117.594 12.2188C118.078 11.6198 118.326 10.763 118.336 9.64844V9.04688C118.336 7.89062 118.096 7.01562 117.617 6.42188C117.138 5.82292 116.438 5.52344 115.516 5.52344H114.359ZM121.922 10.6953C121.922 9.85677 122.083 9.10938 122.406 8.45312C122.729 7.79688 123.193 7.28906 123.797 6.92969C124.406 6.57031 125.112 6.39062 125.914 6.39062C127.055 6.39062 127.984 6.73958 128.703 7.4375C129.427 8.13542 129.831 9.08333 129.914 10.2812L129.93 10.8594C129.93 12.1562 129.568 13.1979 128.844 13.9844C128.12 14.7656 127.148 15.1562 125.93 15.1562C124.711 15.1562 123.737 14.7656 123.008 13.9844C122.284 13.2031 121.922 12.1406 121.922 10.7969V10.6953ZM124.18 10.8594C124.18 11.6615 124.331 12.276 124.633 12.7031C124.935 13.125 125.367 13.3359 125.93 13.3359C126.477 13.3359 126.904 13.1276 127.211 12.7109C127.518 12.2891 127.672 11.6172 127.672 10.6953C127.672 9.90885 127.518 9.29948 127.211 8.86719C126.904 8.4349 126.471 8.21875 125.914 8.21875C125.362 8.21875 124.935 8.4349 124.633 8.86719C124.331 9.29427 124.18 9.95833 124.18 10.8594ZM133.703 15H131.438V6.54688H133.703V15ZM131.305 4.35938C131.305 4.02083 131.417 3.74219 131.641 3.52344C131.87 3.30469 132.18 3.19531 132.57 3.19531C132.956 3.19531 133.263 3.30469 133.492 3.52344C133.721 3.74219 133.836 4.02083 133.836 4.35938C133.836 4.70312 133.719 4.98438 133.484 5.20312C133.255 5.42188 132.951 5.53125 132.57 5.53125C132.19 5.53125 131.883 5.42188 131.648 5.20312C131.419 4.98438 131.305 4.70312 131.305 4.35938ZM140.148 12.6641C140.148 12.388 140.01 12.1719 139.734 12.0156C139.464 11.8542 139.026 11.7109 138.422 11.5859C136.411 11.1641 135.406 10.3099 135.406 9.02344C135.406 8.27344 135.716 7.64844 136.336 7.14844C136.961 6.64323 137.776 6.39062 138.781 6.39062C139.854 6.39062 140.711 6.64323 141.352 7.14844C141.997 7.65365 142.32 8.3099 142.32 9.11719H140.062C140.062 8.79427 139.958 8.52865 139.75 8.32031C139.542 8.10677 139.216 8 138.773 8C138.393 8 138.099 8.08594 137.891 8.25781C137.682 8.42969 137.578 8.64844 137.578 8.91406C137.578 9.16406 137.695 9.36719 137.93 9.52344C138.169 9.67448 138.57 9.80729 139.133 9.92188C139.695 10.0312 140.169 10.1562 140.555 10.2969C141.747 10.7344 142.344 11.4922 142.344 12.5703C142.344 13.3411 142.013 13.9661 141.352 14.4453C140.69 14.9193 139.836 15.1562 138.789 15.1562C138.081 15.1562 137.451 15.0312 136.898 14.7812C136.352 14.526 135.922 14.1797 135.609 13.7422C135.297 13.2995 135.141 12.8229 135.141 12.3125H137.281C137.302 12.7135 137.451 13.0208 137.727 13.2344C138.003 13.4479 138.372 13.5547 138.836 13.5547C139.268 13.5547 139.594 13.474 139.812 13.3125C140.036 13.1458 140.148 12.9297 140.148 12.6641Z" fill="#6E33A6"/>
<path d="M330.578 5.52344H327.094V15H324.75V5.52344H321.312V3.625H330.578V5.52344ZM336.008 8.66406C335.701 8.6224 335.43 8.60156 335.195 8.60156C334.341 8.60156 333.781 8.89062 333.516 9.46875V15H331.258V6.54688H333.391L333.453 7.55469C333.906 6.77865 334.534 6.39062 335.336 6.39062C335.586 6.39062 335.82 6.42448 336.039 6.49219L336.008 8.66406ZM340.836 15.1562C339.596 15.1562 338.586 14.776 337.805 14.0156C337.029 13.2552 336.641 12.2422 336.641 10.9766V10.7578C336.641 9.90885 336.805 9.15104 337.133 8.48438C337.461 7.8125 337.924 7.29688 338.523 6.9375C339.128 6.57292 339.815 6.39062 340.586 6.39062C341.742 6.39062 342.651 6.75521 343.312 7.48438C343.979 8.21354 344.312 9.2474 344.312 10.5859V11.5078H338.93C339.003 12.0599 339.221 12.5026 339.586 12.8359C339.956 13.1693 340.422 13.3359 340.984 13.3359C341.854 13.3359 342.534 13.0208 343.023 12.3906L344.133 13.6328C343.794 14.112 343.336 14.487 342.758 14.7578C342.18 15.0234 341.539 15.1562 340.836 15.1562ZM340.578 8.21875C340.13 8.21875 339.766 8.36979 339.484 8.67188C339.208 8.97396 339.031 9.40625 338.953 9.96875H342.094V9.78906C342.083 9.28906 341.948 8.90365 341.688 8.63281C341.427 8.35677 341.057 8.21875 340.578 8.21875ZM343.328 5.1875V5.28125H341.531L340.328 4.14844L339.125 5.28125H337.359V5.15625L339.672 3H340.984L343.328 5.1875ZM350.18 12.6641C350.18 12.388 350.042 12.1719 349.766 12.0156C349.495 11.8542 349.057 11.7109 348.453 11.5859C346.443 11.1641 345.438 10.3099 345.438 9.02344C345.438 8.27344 345.747 7.64844 346.367 7.14844C346.992 6.64323 347.807 6.39062 348.812 6.39062C349.885 6.39062 350.742 6.64323 351.383 7.14844C352.029 7.65365 352.352 8.3099 352.352 9.11719H350.094C350.094 8.79427 349.99 8.52865 349.781 8.32031C349.573 8.10677 349.247 8 348.805 8C348.424 8 348.13 8.08594 347.922 8.25781C347.714 8.42969 347.609 8.64844 347.609 8.91406C347.609 9.16406 347.727 9.36719 347.961 9.52344C348.201 9.67448 348.602 9.80729 349.164 9.92188C349.727 10.0312 350.201 10.1562 350.586 10.2969C351.779 10.7344 352.375 11.4922 352.375 12.5703C352.375 13.3411 352.044 13.9661 351.383 14.4453C350.721 14.9193 349.867 15.1562 348.82 15.1562C348.112 15.1562 347.482 15.0312 346.93 14.7812C346.383 14.526 345.953 14.1797 345.641 13.7422C345.328 13.2995 345.172 12.8229 345.172 12.3125H347.312C347.333 12.7135 347.482 13.0208 347.758 13.2344C348.034 13.4479 348.404 13.5547 348.867 13.5547C349.299 13.5547 349.625 13.474 349.844 13.3125C350.068 13.1458 350.18 12.9297 350.18 12.6641Z" fill="#6E33A6"/>
<line x1="100.5" y1="1" x2="100.5" y2="310" stroke="#DB2B6C"/>
<line x1="110.5" y1="1" x2="110.5" y2="310" stroke="#DB2B6C"/>
<line y1="100.5" x2="520" y2="100.5" stroke="#DB2B6C"/>
<line y1="110.5" x2="520" y2="110.5" stroke="#DB2B6C"/>
<line y1="310.5" x2="520" y2="310.5" stroke="#DB2B6C"/>
<line y1="320.5" x2="560" y2="320.5" stroke="#DB2B6C" stroke-dasharray="2 2"/>
<line x1="520" y1="310.5" x2="560" y2="310.5" stroke="#DB2B6C" stroke-dasharray="2 2"/>
<line x1="520" y1="110.5" x2="560" y2="110.5" stroke="#DB2B6C" stroke-dasharray="2 2"/>
<line x1="520" y1="100.5" x2="560" y2="100.5" stroke="#DB2B6C" stroke-dasharray="2 2"/>
<line y1="420.5" x2="560" y2="420.5" stroke="#DB2B6C" stroke-dasharray="2 2"/>
<line x1="310.5" y1="1" x2="310.5" y2="310" stroke="#DB2B6C"/>
<line x1="320.5" y1="1" x2="320.5" y2="310" stroke="#DB2B6C"/>
<line x1="100.5" y1="311" x2="100.5" y2="441" stroke="#DB2B6C" stroke-dasharray="2 2"/>
<line x1="110.5" y1="311" x2="110.5" y2="441" stroke="#DB2B6C" stroke-dasharray="2 2"/>
<line x1="310.5" y1="310" x2="310.5" y2="440" stroke="#DB2B6C" stroke-dasharray="2 2"/>
<line x1="320.5" y1="310" x2="320.5" y2="440" stroke="#DB2B6C" stroke-dasharray="2 2"/>
</svg>
