<svg width="560" height="440" viewBox="0 0 560 440" fill="none" xmlns="http://www.w3.org/2000/svg">
<rect width="520" height="419" fill="#FFF6FA"/>
<rect width="310" height="309" fill="#5ED4B9"/>
<rect x="321" y="110" width="200" height="199" fill="#B688E0"/>
<path d="M9.625 3.625V11.1172C9.625 12.362 9.23438 13.3464 8.45312 14.0703C7.67708 14.7943 6.61458 15.1562 5.26562 15.1562C3.9375 15.1562 2.88281 14.8047 2.10156 14.1016C1.32031 13.3984 0.921875 12.4323 0.90625 11.2031V3.625H3.25V11.1328C3.25 11.8776 3.42708 12.4219 3.78125 12.7656C4.14062 13.1042 4.63542 13.2734 5.26562 13.2734C6.58333 13.2734 7.2526 12.5807 7.27344 11.1953V3.625H9.625ZM13.5156 6.54688L13.5859 7.49219C14.1849 6.75781 14.9948 6.39062 16.0156 6.39062C17.1042 6.39062 17.8516 6.82031 18.2578 7.67969C18.8516 6.82031 19.6979 6.39062 20.7969 6.39062C21.7135 6.39062 22.3958 6.65885 22.8438 7.19531C23.2917 7.72656 23.5156 8.52865 23.5156 9.60156V15H21.25V9.60938C21.25 9.13021 21.1562 8.78125 20.9688 8.5625C20.7812 8.33854 20.4505 8.22656 19.9766 8.22656C19.2995 8.22656 18.8307 8.54948 18.5703 9.19531L18.5781 15H16.3203V9.61719C16.3203 9.1276 16.224 8.77344 16.0312 8.55469C15.8385 8.33594 15.5104 8.22656 15.0469 8.22656C14.4062 8.22656 13.9427 8.49219 13.6562 9.02344V15H11.3984V6.54688H13.5156Z" fill="#6E33A6"/>
<path d="M330.578 113.523H327.094V123H324.75V113.523H321.312V111.625H330.578V113.523ZM336.008 116.664C335.701 116.622 335.43 116.602 335.195 116.602C334.341 116.602 333.781 116.891 333.516 117.469V123H331.258V114.547H333.391L333.453 115.555C333.906 114.779 334.534 114.391 335.336 114.391C335.586 114.391 335.82 114.424 336.039 114.492L336.008 116.664ZM340.836 123.156C339.596 123.156 338.586 122.776 337.805 122.016C337.029 121.255 336.641 120.242 336.641 118.977V118.758C336.641 117.909 336.805 117.151 337.133 116.484C337.461 115.812 337.924 115.297 338.523 114.938C339.128 114.573 339.815 114.391 340.586 114.391C341.742 114.391 342.651 114.755 343.312 115.484C343.979 116.214 344.312 117.247 344.312 118.586V119.508H338.93C339.003 120.06 339.221 120.503 339.586 120.836C339.956 121.169 340.422 121.336 340.984 121.336C341.854 121.336 342.534 121.021 343.023 120.391L344.133 121.633C343.794 122.112 343.336 122.487 342.758 122.758C342.18 123.023 341.539 123.156 340.836 123.156ZM340.578 116.219C340.13 116.219 339.766 116.37 339.484 116.672C339.208 116.974 339.031 117.406 338.953 117.969H342.094V117.789C342.083 117.289 341.948 116.904 341.688 116.633C341.427 116.357 341.057 116.219 340.578 116.219ZM343.328 113.188V113.281H341.531L340.328 112.148L339.125 113.281H337.359V113.156L339.672 111H340.984L343.328 113.188ZM350.18 120.664C350.18 120.388 350.042 120.172 349.766 120.016C349.495 119.854 349.057 119.711 348.453 119.586C346.443 119.164 345.438 118.31 345.438 117.023C345.438 116.273 345.747 115.648 346.367 115.148C346.992 114.643 347.807 114.391 348.812 114.391C349.885 114.391 350.742 114.643 351.383 115.148C352.029 115.654 352.352 116.31 352.352 117.117H350.094C350.094 116.794 349.99 116.529 349.781 116.32C349.573 116.107 349.247 116 348.805 116C348.424 116 348.13 116.086 347.922 116.258C347.714 116.43 347.609 116.648 347.609 116.914C347.609 117.164 347.727 117.367 347.961 117.523C348.201 117.674 348.602 117.807 349.164 117.922C349.727 118.031 350.201 118.156 350.586 118.297C351.779 118.734 352.375 119.492 352.375 120.57C352.375 121.341 352.044 121.966 351.383 122.445C350.721 122.919 349.867 123.156 348.82 123.156C348.112 123.156 347.482 123.031 346.93 122.781C346.383 122.526 345.953 122.18 345.641 121.742C345.328 121.299 345.172 120.823 345.172 120.312H347.312C347.333 120.714 347.482 121.021 347.758 121.234C348.034 121.448 348.404 121.555 348.867 121.555C349.299 121.555 349.625 121.474 349.844 121.312C350.068 121.146 350.18 120.93 350.18 120.664Z" fill="#6E33A6"/>
<line x1="100.5" x2="100.5" y2="419" stroke="#DB2B6C"/>
<line x1="110.5" x2="110.5" y2="419" stroke="#DB2B6C"/>
<line y1="99.5" x2="520" y2="99.5" stroke="#DB2B6C"/>
<line y1="109.5" x2="520" y2="109.5" stroke="#DB2B6C"/>
<line y1="309.5" x2="520" y2="309.5" stroke="#DB2B6C"/>
<line x1="520" y1="319.5" x2="560" y2="319.5" stroke="#DB2B6C" stroke-dasharray="2 2"/>
<line y1="319.5" x2="520" y2="319.5" stroke="#DB2B6C"/>
<line y1="419.5" x2="520" y2="419.5" stroke="#DB2B6C"/>
<line x1="520" y1="309.5" x2="560" y2="309.5" stroke="#DB2B6C" stroke-dasharray="2 2"/>
<line x1="520" y1="109.5" x2="560" y2="109.5" stroke="#DB2B6C" stroke-dasharray="2 2"/>
<line x1="520" y1="99.5" x2="560" y2="99.5" stroke="#DB2B6C" stroke-dasharray="2 2"/>
<line y1="419.5" x2="560" y2="419.5" stroke="#DB2B6C" stroke-dasharray="2 2"/>
<line x1="310.5" x2="310.5" y2="420" stroke="#DB2B6C"/>
<line x1="320.5" x2="320.5" y2="419" stroke="#DB2B6C"/>
<line x1="100.5" y1="310" x2="100.5" y2="440" stroke="#DB2B6C" stroke-dasharray="2 2"/>
<line x1="110.5" y1="310" x2="110.5" y2="440" stroke="#DB2B6C" stroke-dasharray="2 2"/>
<line x1="310.5" y1="309" x2="310.5" y2="439" stroke="#DB2B6C" stroke-dasharray="2 2"/>
<line x1="320.5" y1="309" x2="320.5" y2="439" stroke="#DB2B6C" stroke-dasharray="2 2"/>
<rect y="320" width="100" height="99" fill="#B688E0"/>
<rect x="111" y="320" width="199" height="99" fill="#B688E0"/>
<rect x="321" y="320" width="199" height="99" fill="#B688E0"/>
<rect x="321" width="199" height="99" fill="#B688E0"/>
<path d="M10.3438 328.57C10.3438 329.633 10.1719 330.557 9.82812 331.344C9.48438 332.125 9.00781 332.753 8.39844 333.227L10.2891 334.711L8.79688 336.031L6.375 334.086C6.09896 334.133 5.8125 334.156 5.51562 334.156C4.57292 334.156 3.73177 333.93 2.99219 333.477C2.2526 333.023 1.67969 332.378 1.27344 331.539C0.867188 330.695 0.661458 329.727 0.65625 328.633V328.07C0.65625 326.951 0.856771 325.966 1.25781 325.117C1.66406 324.263 2.23438 323.609 2.96875 323.156C3.70833 322.698 4.55208 322.469 5.5 322.469C6.44792 322.469 7.28906 322.698 8.02344 323.156C8.76302 323.609 9.33333 324.263 9.73438 325.117C10.1406 325.966 10.3438 326.948 10.3438 328.062V328.57ZM7.96875 328.055C7.96875 326.862 7.75521 325.956 7.32812 325.336C6.90104 324.716 6.29167 324.406 5.5 324.406C4.71354 324.406 4.10677 324.714 3.67969 325.328C3.2526 325.938 3.03646 326.833 3.03125 328.016V328.57C3.03125 329.732 3.24479 330.633 3.67188 331.273C4.09896 331.914 4.71354 332.234 5.51562 332.234C6.30208 332.234 6.90625 331.927 7.32812 331.312C7.75 330.693 7.96354 329.792 7.96875 328.609V328.055ZM16.9766 333.141C16.4193 333.818 15.6484 334.156 14.6641 334.156C13.7578 334.156 13.0651 333.896 12.5859 333.375C12.112 332.854 11.8698 332.091 11.8594 331.086V325.547H14.1172V331.008C14.1172 331.888 14.5182 332.328 15.3203 332.328C16.0859 332.328 16.612 332.062 16.8984 331.531V325.547H19.1641V334H17.0391L16.9766 333.141ZM25.7656 334C25.6615 333.797 25.5859 333.544 25.5391 333.242C24.9922 333.852 24.2812 334.156 23.4062 334.156C22.5781 334.156 21.8906 333.917 21.3438 333.438C20.8021 332.958 20.5312 332.354 20.5312 331.625C20.5312 330.729 20.862 330.042 21.5234 329.562C22.1901 329.083 23.151 328.841 24.4062 328.836H25.4453V328.352C25.4453 327.961 25.3438 327.648 25.1406 327.414C24.9427 327.18 24.6276 327.062 24.1953 327.062C23.8151 327.062 23.5156 327.154 23.2969 327.336C23.0833 327.518 22.9766 327.768 22.9766 328.086H20.7188C20.7188 327.596 20.8698 327.143 21.1719 326.727C21.474 326.31 21.901 325.984 22.4531 325.75C23.0052 325.51 23.625 325.391 24.3125 325.391C25.3542 325.391 26.1797 325.654 26.7891 326.18C27.4036 326.701 27.7109 327.435 27.7109 328.383V332.047C27.7161 332.849 27.8281 333.456 28.0469 333.867V334H25.7656ZM23.8984 332.43C24.2318 332.43 24.5391 332.357 24.8203 332.211C25.1016 332.06 25.3099 331.859 25.4453 331.609V330.156H24.6016C23.4714 330.156 22.8698 330.547 22.7969 331.328L22.7891 331.461C22.7891 331.742 22.888 331.974 23.0859 332.156C23.2839 332.339 23.5547 332.43 23.8984 332.43ZM32.1484 323.469V325.547H33.5938V327.203H32.1484V331.422C32.1484 331.734 32.2083 331.958 32.3281 332.094C32.4479 332.229 32.6771 332.297 33.0156 332.297C33.2656 332.297 33.487 332.279 33.6797 332.242V333.953C33.237 334.089 32.7812 334.156 32.3125 334.156C30.7292 334.156 29.9219 333.357 29.8906 331.758V327.203H28.6562V325.547H29.8906V323.469H32.1484ZM39.6016 327.664C39.2943 327.622 39.0234 327.602 38.7891 327.602C37.9349 327.602 37.375 327.891 37.1094 328.469V334H34.8516V325.547H36.9844L37.0469 326.555C37.5 325.779 38.1276 325.391 38.9297 325.391C39.1797 325.391 39.4141 325.424 39.6328 325.492L39.6016 327.664ZM40.0625 329.695C40.0625 328.857 40.224 328.109 40.5469 327.453C40.8698 326.797 41.3333 326.289 41.9375 325.93C42.5469 325.57 43.2526 325.391 44.0547 325.391C45.1953 325.391 46.125 325.74 46.8438 326.438C47.5677 327.135 47.9714 328.083 48.0547 329.281L48.0703 329.859C48.0703 331.156 47.7083 332.198 46.9844 332.984C46.2604 333.766 45.2891 334.156 44.0703 334.156C42.8516 334.156 41.8776 333.766 41.1484 332.984C40.4245 332.203 40.0625 331.141 40.0625 329.797V329.695ZM42.3203 329.859C42.3203 330.661 42.4714 331.276 42.7734 331.703C43.0755 332.125 43.5078 332.336 44.0703 332.336C44.6172 332.336 45.0443 332.128 45.3516 331.711C45.6589 331.289 45.8125 330.617 45.8125 329.695C45.8125 328.909 45.6589 328.299 45.3516 327.867C45.0443 327.435 44.612 327.219 44.0547 327.219C43.5026 327.219 43.0755 327.435 42.7734 327.867C42.4714 328.294 42.3203 328.958 42.3203 329.859Z" fill="#6E33A6"/>
<path d="M120.945 330.211C120.857 331.435 120.404 332.398 119.586 333.102C118.773 333.805 117.701 334.156 116.367 334.156C114.909 334.156 113.76 333.667 112.922 332.688C112.089 331.703 111.672 330.354 111.672 328.641V327.945C111.672 326.852 111.865 325.888 112.25 325.055C112.635 324.221 113.185 323.583 113.898 323.141C114.617 322.693 115.451 322.469 116.398 322.469C117.711 322.469 118.768 322.82 119.57 323.523C120.372 324.227 120.836 325.214 120.961 326.484H118.617C118.56 325.75 118.354 325.219 118 324.891C117.651 324.557 117.117 324.391 116.398 324.391C115.617 324.391 115.031 324.672 114.641 325.234C114.255 325.792 114.057 326.659 114.047 327.836V328.695C114.047 329.924 114.232 330.823 114.602 331.391C114.977 331.958 115.565 332.242 116.367 332.242C117.091 332.242 117.63 332.078 117.984 331.75C118.344 331.417 118.549 330.904 118.602 330.211H120.945ZM124.719 334H122.453V325.547H124.719V334ZM122.32 323.359C122.32 323.021 122.432 322.742 122.656 322.523C122.885 322.305 123.195 322.195 123.586 322.195C123.971 322.195 124.279 322.305 124.508 322.523C124.737 322.742 124.852 323.021 124.852 323.359C124.852 323.703 124.734 323.984 124.5 324.203C124.271 324.422 123.966 324.531 123.586 324.531C123.206 324.531 122.898 324.422 122.664 324.203C122.435 323.984 122.32 323.703 122.32 323.359ZM128.664 325.547L128.734 326.523C129.339 325.768 130.148 325.391 131.164 325.391C132.06 325.391 132.727 325.654 133.164 326.18C133.602 326.706 133.826 327.492 133.836 328.539V334H131.578V328.594C131.578 328.115 131.474 327.768 131.266 327.555C131.057 327.336 130.711 327.227 130.227 327.227C129.591 327.227 129.115 327.497 128.797 328.039V334H126.539V325.547H128.664ZM139.07 332.336C139.487 332.336 139.826 332.221 140.086 331.992C140.346 331.763 140.482 331.458 140.492 331.078H142.609C142.604 331.651 142.448 332.177 142.141 332.656C141.833 333.13 141.411 333.5 140.875 333.766C140.344 334.026 139.755 334.156 139.109 334.156C137.901 334.156 136.948 333.773 136.25 333.008C135.552 332.237 135.203 331.174 135.203 329.82V329.672C135.203 328.37 135.549 327.331 136.242 326.555C136.935 325.779 137.885 325.391 139.094 325.391C140.151 325.391 140.997 325.693 141.633 326.297C142.273 326.896 142.599 327.695 142.609 328.695H140.492C140.482 328.258 140.346 327.904 140.086 327.633C139.826 327.357 139.482 327.219 139.055 327.219C138.529 327.219 138.13 327.411 137.859 327.797C137.594 328.177 137.461 328.797 137.461 329.656V329.891C137.461 330.76 137.594 331.385 137.859 331.766C138.125 332.146 138.529 332.336 139.07 332.336ZM143.547 329.695C143.547 328.857 143.708 328.109 144.031 327.453C144.354 326.797 144.818 326.289 145.422 325.93C146.031 325.57 146.737 325.391 147.539 325.391C148.68 325.391 149.609 325.74 150.328 326.438C151.052 327.135 151.456 328.083 151.539 329.281L151.555 329.859C151.555 331.156 151.193 332.198 150.469 332.984C149.745 333.766 148.773 334.156 147.555 334.156C146.336 334.156 145.362 333.766 144.633 332.984C143.909 332.203 143.547 331.141 143.547 329.797V329.695ZM145.805 329.859C145.805 330.661 145.956 331.276 146.258 331.703C146.56 332.125 146.992 332.336 147.555 332.336C148.102 332.336 148.529 332.128 148.836 331.711C149.143 331.289 149.297 330.617 149.297 329.695C149.297 328.909 149.143 328.299 148.836 327.867C148.529 327.435 148.096 327.219 147.539 327.219C146.987 327.219 146.56 327.435 146.258 327.867C145.956 328.294 145.805 328.958 145.805 329.859Z" fill="#6E33A6"/>
<path d="M327.914 332.016C327.914 331.573 327.758 331.234 327.445 331C327.133 330.76 326.57 330.51 325.758 330.25C324.945 329.984 324.302 329.724 323.828 329.469C322.536 328.771 321.891 327.831 321.891 326.648C321.891 326.034 322.062 325.487 322.406 325.008C322.755 324.523 323.253 324.146 323.898 323.875C324.549 323.604 325.279 323.469 326.086 323.469C326.898 323.469 327.622 323.617 328.258 323.914C328.893 324.206 329.385 324.62 329.734 325.156C330.089 325.693 330.266 326.302 330.266 326.984H327.922C327.922 326.464 327.758 326.06 327.43 325.773C327.102 325.482 326.641 325.336 326.047 325.336C325.474 325.336 325.029 325.458 324.711 325.703C324.393 325.943 324.234 326.26 324.234 326.656C324.234 327.026 324.419 327.336 324.789 327.586C325.164 327.836 325.714 328.07 326.438 328.289C327.771 328.69 328.742 329.188 329.352 329.781C329.961 330.375 330.266 331.115 330.266 332C330.266 332.984 329.893 333.758 329.148 334.32C328.404 334.878 327.401 335.156 326.141 335.156C325.266 335.156 324.469 334.997 323.75 334.68C323.031 334.357 322.482 333.917 322.102 333.359C321.727 332.802 321.539 332.156 321.539 331.422H323.891C323.891 332.677 324.641 333.305 326.141 333.305C326.698 333.305 327.133 333.193 327.445 332.969C327.758 332.74 327.914 332.422 327.914 332.016ZM335.602 335.156C334.362 335.156 333.352 334.776 332.57 334.016C331.794 333.255 331.406 332.242 331.406 330.977V330.758C331.406 329.909 331.57 329.151 331.898 328.484C332.227 327.812 332.69 327.297 333.289 326.938C333.893 326.573 334.581 326.391 335.352 326.391C336.508 326.391 337.417 326.755 338.078 327.484C338.745 328.214 339.078 329.247 339.078 330.586V331.508H333.695C333.768 332.06 333.987 332.503 334.352 332.836C334.721 333.169 335.188 333.336 335.75 333.336C336.62 333.336 337.299 333.021 337.789 332.391L338.898 333.633C338.56 334.112 338.102 334.487 337.523 334.758C336.945 335.023 336.305 335.156 335.602 335.156ZM335.344 328.219C334.896 328.219 334.531 328.37 334.25 328.672C333.974 328.974 333.797 329.406 333.719 329.969H336.859V329.789C336.849 329.289 336.714 328.904 336.453 328.633C336.193 328.357 335.823 328.219 335.344 328.219ZM342.75 335H340.484V326.547H342.75V335ZM340.352 324.359C340.352 324.021 340.464 323.742 340.688 323.523C340.917 323.305 341.227 323.195 341.617 323.195C342.003 323.195 342.31 323.305 342.539 323.523C342.768 323.742 342.883 324.021 342.883 324.359C342.883 324.703 342.766 324.984 342.531 325.203C342.302 325.422 341.997 325.531 341.617 325.531C341.237 325.531 340.93 325.422 340.695 325.203C340.466 324.984 340.352 324.703 340.352 324.359ZM349.195 332.664C349.195 332.388 349.057 332.172 348.781 332.016C348.51 331.854 348.073 331.711 347.469 331.586C345.458 331.164 344.453 330.31 344.453 329.023C344.453 328.273 344.763 327.648 345.383 327.148C346.008 326.643 346.823 326.391 347.828 326.391C348.901 326.391 349.758 326.643 350.398 327.148C351.044 327.654 351.367 328.31 351.367 329.117H349.109C349.109 328.794 349.005 328.529 348.797 328.32C348.589 328.107 348.263 328 347.82 328C347.44 328 347.146 328.086 346.938 328.258C346.729 328.43 346.625 328.648 346.625 328.914C346.625 329.164 346.742 329.367 346.977 329.523C347.216 329.674 347.617 329.807 348.18 329.922C348.742 330.031 349.216 330.156 349.602 330.297C350.794 330.734 351.391 331.492 351.391 332.57C351.391 333.341 351.06 333.966 350.398 334.445C349.737 334.919 348.883 335.156 347.836 335.156C347.128 335.156 346.497 335.031 345.945 334.781C345.398 334.526 344.969 334.18 344.656 333.742C344.344 333.299 344.188 332.823 344.188 332.312H346.328C346.349 332.714 346.497 333.021 346.773 333.234C347.049 333.448 347.419 333.555 347.883 333.555C348.315 333.555 348.641 333.474 348.859 333.312C349.083 333.146 349.195 332.93 349.195 332.664Z" fill="#6E33A6"/>
<path d="M322.016 15V3.625H325.516C326.516 3.625 327.409 3.85156 328.195 4.30469C328.987 4.7526 329.604 5.39323 330.047 6.22656C330.49 7.05469 330.711 7.9974 330.711 9.05469V9.57812C330.711 10.6354 330.492 11.5755 330.055 12.3984C329.622 13.2214 329.01 13.8594 328.219 14.3125C327.427 14.7656 326.534 14.9948 325.539 15H322.016ZM324.359 5.52344V13.1172H325.492C326.409 13.1172 327.109 12.8177 327.594 12.2188C328.078 11.6198 328.326 10.763 328.336 9.64844V9.04688C328.336 7.89062 328.096 7.01562 327.617 6.42188C327.138 5.82292 326.438 5.52344 325.516 5.52344H324.359ZM331.922 10.6953C331.922 9.85677 332.083 9.10938 332.406 8.45312C332.729 7.79688 333.193 7.28906 333.797 6.92969C334.406 6.57031 335.112 6.39062 335.914 6.39062C337.055 6.39062 337.984 6.73958 338.703 7.4375C339.427 8.13542 339.831 9.08333 339.914 10.2812L339.93 10.8594C339.93 12.1562 339.568 13.1979 338.844 13.9844C338.12 14.7656 337.148 15.1562 335.93 15.1562C334.711 15.1562 333.737 14.7656 333.008 13.9844C332.284 13.2031 331.922 12.1406 331.922 10.7969V10.6953ZM334.18 10.8594C334.18 11.6615 334.331 12.276 334.633 12.7031C334.935 13.125 335.367 13.3359 335.93 13.3359C336.477 13.3359 336.904 13.1276 337.211 12.7109C337.518 12.2891 337.672 11.6172 337.672 10.6953C337.672 9.90885 337.518 9.29948 337.211 8.86719C336.904 8.4349 336.471 8.21875 335.914 8.21875C335.362 8.21875 334.935 8.4349 334.633 8.86719C334.331 9.29427 334.18 9.95833 334.18 10.8594ZM343.703 15H341.438V6.54688H343.703V15ZM341.305 4.35938C341.305 4.02083 341.417 3.74219 341.641 3.52344C341.87 3.30469 342.18 3.19531 342.57 3.19531C342.956 3.19531 343.263 3.30469 343.492 3.52344C343.721 3.74219 343.836 4.02083 343.836 4.35938C343.836 4.70312 343.719 4.98438 343.484 5.20312C343.255 5.42188 342.951 5.53125 342.57 5.53125C342.19 5.53125 341.883 5.42188 341.648 5.20312C341.419 4.98438 341.305 4.70312 341.305 4.35938ZM350.148 12.6641C350.148 12.388 350.01 12.1719 349.734 12.0156C349.464 11.8542 349.026 11.7109 348.422 11.5859C346.411 11.1641 345.406 10.3099 345.406 9.02344C345.406 8.27344 345.716 7.64844 346.336 7.14844C346.961 6.64323 347.776 6.39062 348.781 6.39062C349.854 6.39062 350.711 6.64323 351.352 7.14844C351.997 7.65365 352.32 8.3099 352.32 9.11719H350.062C350.062 8.79427 349.958 8.52865 349.75 8.32031C349.542 8.10677 349.216 8 348.773 8C348.393 8 348.099 8.08594 347.891 8.25781C347.682 8.42969 347.578 8.64844 347.578 8.91406C347.578 9.16406 347.695 9.36719 347.93 9.52344C348.169 9.67448 348.57 9.80729 349.133 9.92188C349.695 10.0312 350.169 10.1562 350.555 10.2969C351.747 10.7344 352.344 11.4922 352.344 12.5703C352.344 13.3411 352.013 13.9661 351.352 14.4453C350.69 14.9193 349.836 15.1562 348.789 15.1562C348.081 15.1562 347.451 15.0312 346.898 14.7812C346.352 14.526 345.922 14.1797 345.609 13.7422C345.297 13.2995 345.141 12.8229 345.141 12.3125H347.281C347.302 12.7135 347.451 13.0208 347.727 13.2344C348.003 13.4479 348.372 13.5547 348.836 13.5547C349.268 13.5547 349.594 13.474 349.812 13.3125C350.036 13.1458 350.148 12.9297 350.148 12.6641Z" fill="#6E33A6"/>
</svg>
