<svg width="560" height="440" viewBox="0 0 560 440" fill="none" xmlns="http://www.w3.org/2000/svg">
<rect width="520" height="419" fill="#FFF6FA"/>
<rect width="310" height="99" fill="#5ED4B9"/>
<rect x="110" y="110" width="200" height="199" fill="#B688E0"/>
<rect x="321" y="110" width="200" height="199" fill="#B688E0"/>
<path d="M9.625 3.625V11.1172C9.625 12.362 9.23438 13.3464 8.45312 14.0703C7.67708 14.7943 6.61458 15.1562 5.26562 15.1562C3.9375 15.1562 2.88281 14.8047 2.10156 14.1016C1.32031 13.3984 0.921875 12.4323 0.90625 11.2031V3.625H3.25V11.1328C3.25 11.8776 3.42708 12.4219 3.78125 12.7656C4.14062 13.1042 4.63542 13.2734 5.26562 13.2734C6.58333 13.2734 7.2526 12.5807 7.27344 11.1953V3.625H9.625ZM13.5156 6.54688L13.5859 7.49219C14.1849 6.75781 14.9948 6.39062 16.0156 6.39062C17.1042 6.39062 17.8516 6.82031 18.2578 7.67969C18.8516 6.82031 19.6979 6.39062 20.7969 6.39062C21.7135 6.39062 22.3958 6.65885 22.8438 7.19531C23.2917 7.72656 23.5156 8.52865 23.5156 9.60156V15H21.25V9.60938C21.25 9.13021 21.1562 8.78125 20.9688 8.5625C20.7812 8.33854 20.4505 8.22656 19.9766 8.22656C19.2995 8.22656 18.8307 8.54948 18.5703 9.19531L18.5781 15H16.3203V9.61719C16.3203 9.1276 16.224 8.77344 16.0312 8.55469C15.8385 8.33594 15.5104 8.22656 15.0469 8.22656C14.4062 8.22656 13.9427 8.49219 13.6562 9.02344V15H11.3984V6.54688H13.5156Z" fill="#6E33A6"/>
<path d="M121.344 117.57C121.344 118.633 121.172 119.557 120.828 120.344C120.484 121.125 120.008 121.753 119.398 122.227L121.289 123.711L119.797 125.031L117.375 123.086C117.099 123.133 116.812 123.156 116.516 123.156C115.573 123.156 114.732 122.93 113.992 122.477C113.253 122.023 112.68 121.378 112.273 120.539C111.867 119.695 111.661 118.727 111.656 117.633V117.07C111.656 115.951 111.857 114.966 112.258 114.117C112.664 113.263 113.234 112.609 113.969 112.156C114.708 111.698 115.552 111.469 116.5 111.469C117.448 111.469 118.289 111.698 119.023 112.156C119.763 112.609 120.333 113.263 120.734 114.117C121.141 114.966 121.344 115.948 121.344 117.062V117.57ZM118.969 117.055C118.969 115.862 118.755 114.956 118.328 114.336C117.901 113.716 117.292 113.406 116.5 113.406C115.714 113.406 115.107 113.714 114.68 114.328C114.253 114.938 114.036 115.833 114.031 117.016V117.57C114.031 118.732 114.245 119.633 114.672 120.273C115.099 120.914 115.714 121.234 116.516 121.234C117.302 121.234 117.906 120.927 118.328 120.312C118.75 119.693 118.964 118.792 118.969 117.609V117.055ZM127.977 122.141C127.419 122.818 126.648 123.156 125.664 123.156C124.758 123.156 124.065 122.896 123.586 122.375C123.112 121.854 122.87 121.091 122.859 120.086V114.547H125.117V120.008C125.117 120.888 125.518 121.328 126.32 121.328C127.086 121.328 127.612 121.062 127.898 120.531V114.547H130.164V123H128.039L127.977 122.141ZM136.766 123C136.661 122.797 136.586 122.544 136.539 122.242C135.992 122.852 135.281 123.156 134.406 123.156C133.578 123.156 132.891 122.917 132.344 122.438C131.802 121.958 131.531 121.354 131.531 120.625C131.531 119.729 131.862 119.042 132.523 118.562C133.19 118.083 134.151 117.841 135.406 117.836H136.445V117.352C136.445 116.961 136.344 116.648 136.141 116.414C135.943 116.18 135.628 116.062 135.195 116.062C134.815 116.062 134.516 116.154 134.297 116.336C134.083 116.518 133.977 116.768 133.977 117.086H131.719C131.719 116.596 131.87 116.143 132.172 115.727C132.474 115.31 132.901 114.984 133.453 114.75C134.005 114.51 134.625 114.391 135.312 114.391C136.354 114.391 137.18 114.654 137.789 115.18C138.404 115.701 138.711 116.435 138.711 117.383V121.047C138.716 121.849 138.828 122.456 139.047 122.867V123H136.766ZM134.898 121.43C135.232 121.43 135.539 121.357 135.82 121.211C136.102 121.06 136.31 120.859 136.445 120.609V119.156H135.602C134.471 119.156 133.87 119.547 133.797 120.328L133.789 120.461C133.789 120.742 133.888 120.974 134.086 121.156C134.284 121.339 134.555 121.43 134.898 121.43ZM143.148 112.469V114.547H144.594V116.203H143.148V120.422C143.148 120.734 143.208 120.958 143.328 121.094C143.448 121.229 143.677 121.297 144.016 121.297C144.266 121.297 144.487 121.279 144.68 121.242V122.953C144.237 123.089 143.781 123.156 143.312 123.156C141.729 123.156 140.922 122.357 140.891 120.758V116.203H139.656V114.547H140.891V112.469H143.148ZM150.602 116.664C150.294 116.622 150.023 116.602 149.789 116.602C148.935 116.602 148.375 116.891 148.109 117.469V123H145.852V114.547H147.984L148.047 115.555C148.5 114.779 149.128 114.391 149.93 114.391C150.18 114.391 150.414 114.424 150.633 114.492L150.602 116.664ZM151.062 118.695C151.062 117.857 151.224 117.109 151.547 116.453C151.87 115.797 152.333 115.289 152.938 114.93C153.547 114.57 154.253 114.391 155.055 114.391C156.195 114.391 157.125 114.74 157.844 115.438C158.568 116.135 158.971 117.083 159.055 118.281L159.07 118.859C159.07 120.156 158.708 121.198 157.984 121.984C157.26 122.766 156.289 123.156 155.07 123.156C153.852 123.156 152.878 122.766 152.148 121.984C151.424 121.203 151.062 120.141 151.062 118.797V118.695ZM153.32 118.859C153.32 119.661 153.471 120.276 153.773 120.703C154.076 121.125 154.508 121.336 155.07 121.336C155.617 121.336 156.044 121.128 156.352 120.711C156.659 120.289 156.812 119.617 156.812 118.695C156.812 117.909 156.659 117.299 156.352 116.867C156.044 116.435 155.612 116.219 155.055 116.219C154.503 116.219 154.076 116.435 153.773 116.867C153.471 117.294 153.32 117.958 153.32 118.859Z" fill="#6E33A6"/>
<path d="M330.945 119.211C330.857 120.435 330.404 121.398 329.586 122.102C328.773 122.805 327.701 123.156 326.367 123.156C324.909 123.156 323.76 122.667 322.922 121.688C322.089 120.703 321.672 119.354 321.672 117.641V116.945C321.672 115.852 321.865 114.888 322.25 114.055C322.635 113.221 323.185 112.583 323.898 112.141C324.617 111.693 325.451 111.469 326.398 111.469C327.711 111.469 328.768 111.82 329.57 112.523C330.372 113.227 330.836 114.214 330.961 115.484H328.617C328.56 114.75 328.354 114.219 328 113.891C327.651 113.557 327.117 113.391 326.398 113.391C325.617 113.391 325.031 113.672 324.641 114.234C324.255 114.792 324.057 115.659 324.047 116.836V117.695C324.047 118.924 324.232 119.823 324.602 120.391C324.977 120.958 325.565 121.242 326.367 121.242C327.091 121.242 327.63 121.078 327.984 120.75C328.344 120.417 328.549 119.904 328.602 119.211H330.945ZM334.719 123H332.453V114.547H334.719V123ZM332.32 112.359C332.32 112.021 332.432 111.742 332.656 111.523C332.885 111.305 333.195 111.195 333.586 111.195C333.971 111.195 334.279 111.305 334.508 111.523C334.737 111.742 334.852 112.021 334.852 112.359C334.852 112.703 334.734 112.984 334.5 113.203C334.271 113.422 333.966 113.531 333.586 113.531C333.206 113.531 332.898 113.422 332.664 113.203C332.435 112.984 332.32 112.703 332.32 112.359ZM338.664 114.547L338.734 115.523C339.339 114.768 340.148 114.391 341.164 114.391C342.06 114.391 342.727 114.654 343.164 115.18C343.602 115.706 343.826 116.492 343.836 117.539V123H341.578V117.594C341.578 117.115 341.474 116.768 341.266 116.555C341.057 116.336 340.711 116.227 340.227 116.227C339.591 116.227 339.115 116.497 338.797 117.039V123H336.539V114.547H338.664ZM349.07 121.336C349.487 121.336 349.826 121.221 350.086 120.992C350.346 120.763 350.482 120.458 350.492 120.078H352.609C352.604 120.651 352.448 121.177 352.141 121.656C351.833 122.13 351.411 122.5 350.875 122.766C350.344 123.026 349.755 123.156 349.109 123.156C347.901 123.156 346.948 122.773 346.25 122.008C345.552 121.237 345.203 120.174 345.203 118.82V118.672C345.203 117.37 345.549 116.331 346.242 115.555C346.935 114.779 347.885 114.391 349.094 114.391C350.151 114.391 350.997 114.693 351.633 115.297C352.273 115.896 352.599 116.695 352.609 117.695H350.492C350.482 117.258 350.346 116.904 350.086 116.633C349.826 116.357 349.482 116.219 349.055 116.219C348.529 116.219 348.13 116.411 347.859 116.797C347.594 117.177 347.461 117.797 347.461 118.656V118.891C347.461 119.76 347.594 120.385 347.859 120.766C348.125 121.146 348.529 121.336 349.07 121.336ZM353.547 118.695C353.547 117.857 353.708 117.109 354.031 116.453C354.354 115.797 354.818 115.289 355.422 114.93C356.031 114.57 356.737 114.391 357.539 114.391C358.68 114.391 359.609 114.74 360.328 115.438C361.052 116.135 361.456 117.083 361.539 118.281L361.555 118.859C361.555 120.156 361.193 121.198 360.469 121.984C359.745 122.766 358.773 123.156 357.555 123.156C356.336 123.156 355.362 122.766 354.633 121.984C353.909 121.203 353.547 120.141 353.547 118.797V118.695ZM355.805 118.859C355.805 119.661 355.956 120.276 356.258 120.703C356.56 121.125 356.992 121.336 357.555 121.336C358.102 121.336 358.529 121.128 358.836 120.711C359.143 120.289 359.297 119.617 359.297 118.695C359.297 117.909 359.143 117.299 358.836 116.867C358.529 116.435 358.096 116.219 357.539 116.219C356.987 116.219 356.56 116.435 356.258 116.867C355.956 117.294 355.805 117.958 355.805 118.859Z" fill="#6E33A6"/>
<line x1="100.5" x2="100.5" y2="419" stroke="#DB2B6C"/>
<line x1="110.5" x2="110.5" y2="419" stroke="#DB2B6C"/>
<line y1="99.5" x2="520" y2="99.5" stroke="#DB2B6C"/>
<line y1="109.5" x2="520" y2="109.5" stroke="#DB2B6C"/>
<line y1="309.5" x2="520" y2="309.5" stroke="#DB2B6C"/>
<line x1="520" y1="319.5" x2="560" y2="319.5" stroke="#DB2B6C" stroke-dasharray="2 2"/>
<line y1="319.5" x2="520" y2="319.5" stroke="#DB2B6C"/>
<line y1="419.5" x2="520" y2="419.5" stroke="#DB2B6C"/>
<line x1="520" y1="309.5" x2="560" y2="309.5" stroke="#DB2B6C" stroke-dasharray="2 2"/>
<line x1="520" y1="109.5" x2="560" y2="109.5" stroke="#DB2B6C" stroke-dasharray="2 2"/>
<line x1="520" y1="99.5" x2="560" y2="99.5" stroke="#DB2B6C" stroke-dasharray="2 2"/>
<line y1="419.5" x2="560" y2="419.5" stroke="#DB2B6C" stroke-dasharray="2 2"/>
<line x1="310.5" x2="310.5" y2="420" stroke="#DB2B6C"/>
<line x1="320.5" x2="320.5" y2="419" stroke="#DB2B6C"/>
<line x1="100.5" y1="310" x2="100.5" y2="440" stroke="#DB2B6C" stroke-dasharray="2 2"/>
<line x1="110.5" y1="310" x2="110.5" y2="440" stroke="#DB2B6C" stroke-dasharray="2 2"/>
<line x1="310.5" y1="309" x2="310.5" y2="439" stroke="#DB2B6C" stroke-dasharray="2 2"/>
<line x1="320.5" y1="309" x2="320.5" y2="439" stroke="#DB2B6C" stroke-dasharray="2 2"/>
<rect y="320" width="100" height="99" fill="#B688E0"/>
<rect y="110" width="100" height="199" fill="#B688E0"/>
<rect x="321" width="199" height="99" fill="#B688E0"/>
<path d="M6.91406 331.016C6.91406 330.573 6.75781 330.234 6.44531 330C6.13281 329.76 5.57031 329.51 4.75781 329.25C3.94531 328.984 3.30208 328.724 2.82812 328.469C1.53646 327.771 0.890625 326.831 0.890625 325.648C0.890625 325.034 1.0625 324.487 1.40625 324.008C1.75521 323.523 2.2526 323.146 2.89844 322.875C3.54948 322.604 4.27865 322.469 5.08594 322.469C5.89844 322.469 6.6224 322.617 7.25781 322.914C7.89323 323.206 8.38542 323.62 8.73438 324.156C9.08854 324.693 9.26562 325.302 9.26562 325.984H6.92188C6.92188 325.464 6.75781 325.06 6.42969 324.773C6.10156 324.482 5.64062 324.336 5.04688 324.336C4.47396 324.336 4.02865 324.458 3.71094 324.703C3.39323 324.943 3.23438 325.26 3.23438 325.656C3.23438 326.026 3.41927 326.336 3.78906 326.586C4.16406 326.836 4.71354 327.07 5.4375 327.289C6.77083 327.69 7.74219 328.188 8.35156 328.781C8.96094 329.375 9.26562 330.115 9.26562 331C9.26562 331.984 8.89323 332.758 8.14844 333.32C7.40365 333.878 6.40104 334.156 5.14062 334.156C4.26562 334.156 3.46875 333.997 2.75 333.68C2.03125 333.357 1.48177 332.917 1.10156 332.359C0.726562 331.802 0.539062 331.156 0.539062 330.422H2.89062C2.89062 331.677 3.64062 332.305 5.14062 332.305C5.69792 332.305 6.13281 332.193 6.44531 331.969C6.75781 331.74 6.91406 331.422 6.91406 331.016ZM14.6016 334.156C13.362 334.156 12.3516 333.776 11.5703 333.016C10.7943 332.255 10.4062 331.242 10.4062 329.977V329.758C10.4062 328.909 10.5703 328.151 10.8984 327.484C11.2266 326.812 11.6901 326.297 12.2891 325.938C12.8932 325.573 13.5807 325.391 14.3516 325.391C15.5078 325.391 16.4167 325.755 17.0781 326.484C17.7448 327.214 18.0781 328.247 18.0781 329.586V330.508H12.6953C12.7682 331.06 12.987 331.503 13.3516 331.836C13.7214 332.169 14.1875 332.336 14.75 332.336C15.6198 332.336 16.2995 332.021 16.7891 331.391L17.8984 332.633C17.5599 333.112 17.1016 333.487 16.5234 333.758C15.9453 334.023 15.3047 334.156 14.6016 334.156ZM14.3438 327.219C13.8958 327.219 13.5312 327.37 13.25 327.672C12.974 327.974 12.7969 328.406 12.7188 328.969H15.8594V328.789C15.849 328.289 15.7135 327.904 15.4531 327.633C15.1927 327.357 14.8229 327.219 14.3438 327.219ZM21.75 334H19.4844V325.547H21.75V334ZM19.3516 323.359C19.3516 323.021 19.4635 322.742 19.6875 322.523C19.9167 322.305 20.2266 322.195 20.6172 322.195C21.0026 322.195 21.3099 322.305 21.5391 322.523C21.7682 322.742 21.8828 323.021 21.8828 323.359C21.8828 323.703 21.7656 323.984 21.5312 324.203C21.3021 324.422 20.9974 324.531 20.6172 324.531C20.237 324.531 19.9297 324.422 19.6953 324.203C19.4661 323.984 19.3516 323.703 19.3516 323.359ZM28.1953 331.664C28.1953 331.388 28.0573 331.172 27.7812 331.016C27.5104 330.854 27.0729 330.711 26.4688 330.586C24.4583 330.164 23.4531 329.31 23.4531 328.023C23.4531 327.273 23.763 326.648 24.3828 326.148C25.0078 325.643 25.8229 325.391 26.8281 325.391C27.901 325.391 28.7578 325.643 29.3984 326.148C30.0443 326.654 30.3672 327.31 30.3672 328.117H28.1094C28.1094 327.794 28.0052 327.529 27.7969 327.32C27.5885 327.107 27.263 327 26.8203 327C26.4401 327 26.1458 327.086 25.9375 327.258C25.7292 327.43 25.625 327.648 25.625 327.914C25.625 328.164 25.7422 328.367 25.9766 328.523C26.2161 328.674 26.6172 328.807 27.1797 328.922C27.7422 329.031 28.2161 329.156 28.6016 329.297C29.7943 329.734 30.3906 330.492 30.3906 331.57C30.3906 332.341 30.0599 332.966 29.3984 333.445C28.737 333.919 27.8828 334.156 26.8359 334.156C26.1276 334.156 25.4974 334.031 24.9453 333.781C24.3984 333.526 23.9688 333.18 23.6562 332.742C23.3438 332.299 23.1875 331.823 23.1875 331.312H25.3281C25.349 331.714 25.4974 332.021 25.7734 332.234C26.0495 332.448 26.4193 332.555 26.8828 332.555C27.3151 332.555 27.6406 332.474 27.8594 332.312C28.0833 332.146 28.1953 331.93 28.1953 331.664Z" fill="#6E33A6"/>
<path d="M9.57812 115.523H6.09375V125H3.75V115.523H0.3125V113.625H9.57812V115.523ZM15.0078 118.664C14.7005 118.622 14.4297 118.602 14.1953 118.602C13.3411 118.602 12.7812 118.891 12.5156 119.469V125H10.2578V116.547H12.3906L12.4531 117.555C12.9062 116.779 13.5339 116.391 14.3359 116.391C14.5859 116.391 14.8203 116.424 15.0391 116.492L15.0078 118.664ZM19.8359 125.156C18.5964 125.156 17.5859 124.776 16.8047 124.016C16.0286 123.255 15.6406 122.242 15.6406 120.977V120.758C15.6406 119.909 15.8047 119.151 16.1328 118.484C16.4609 117.812 16.9245 117.297 17.5234 116.938C18.1276 116.573 18.8151 116.391 19.5859 116.391C20.7422 116.391 21.651 116.755 22.3125 117.484C22.9792 118.214 23.3125 119.247 23.3125 120.586V121.508H17.9297C18.0026 122.06 18.2214 122.503 18.5859 122.836C18.9557 123.169 19.4219 123.336 19.9844 123.336C20.8542 123.336 21.5339 123.021 22.0234 122.391L23.1328 123.633C22.7943 124.112 22.3359 124.487 21.7578 124.758C21.1797 125.023 20.5391 125.156 19.8359 125.156ZM19.5781 118.219C19.1302 118.219 18.7656 118.37 18.4844 118.672C18.2083 118.974 18.0312 119.406 17.9531 119.969H21.0938V119.789C21.0833 119.289 20.9479 118.904 20.6875 118.633C20.4271 118.357 20.0573 118.219 19.5781 118.219ZM22.3281 115.188V115.281H20.5312L19.3281 114.148L18.125 115.281H16.3594V115.156L18.6719 113H19.9844L22.3281 115.188ZM29.1797 122.664C29.1797 122.388 29.0417 122.172 28.7656 122.016C28.4948 121.854 28.0573 121.711 27.4531 121.586C25.4427 121.164 24.4375 120.31 24.4375 119.023C24.4375 118.273 24.7474 117.648 25.3672 117.148C25.9922 116.643 26.8073 116.391 27.8125 116.391C28.8854 116.391 29.7422 116.643 30.3828 117.148C31.0286 117.654 31.3516 118.31 31.3516 119.117H29.0938C29.0938 118.794 28.9896 118.529 28.7812 118.32C28.5729 118.107 28.2474 118 27.8047 118C27.4245 118 27.1302 118.086 26.9219 118.258C26.7135 118.43 26.6094 118.648 26.6094 118.914C26.6094 119.164 26.7266 119.367 26.9609 119.523C27.2005 119.674 27.6016 119.807 28.1641 119.922C28.7266 120.031 29.2005 120.156 29.5859 120.297C30.7786 120.734 31.375 121.492 31.375 122.57C31.375 123.341 31.0443 123.966 30.3828 124.445C29.7214 124.919 28.8672 125.156 27.8203 125.156C27.112 125.156 26.4818 125.031 25.9297 124.781C25.3828 124.526 24.9531 124.18 24.6406 123.742C24.3281 123.299 24.1719 122.823 24.1719 122.312H26.3125C26.3333 122.714 26.4818 123.021 26.7578 123.234C27.0339 123.448 27.4036 123.555 27.8672 123.555C28.2995 123.555 28.625 123.474 28.8438 123.312C29.0677 123.146 29.1797 122.93 29.1797 122.664Z" fill="#6E33A6"/>
<path d="M322.016 15V3.625H325.516C326.516 3.625 327.409 3.85156 328.195 4.30469C328.987 4.7526 329.604 5.39323 330.047 6.22656C330.49 7.05469 330.711 7.9974 330.711 9.05469V9.57812C330.711 10.6354 330.492 11.5755 330.055 12.3984C329.622 13.2214 329.01 13.8594 328.219 14.3125C327.427 14.7656 326.534 14.9948 325.539 15H322.016ZM324.359 5.52344V13.1172H325.492C326.409 13.1172 327.109 12.8177 327.594 12.2188C328.078 11.6198 328.326 10.763 328.336 9.64844V9.04688C328.336 7.89062 328.096 7.01562 327.617 6.42188C327.138 5.82292 326.438 5.52344 325.516 5.52344H324.359ZM331.922 10.6953C331.922 9.85677 332.083 9.10938 332.406 8.45312C332.729 7.79688 333.193 7.28906 333.797 6.92969C334.406 6.57031 335.112 6.39062 335.914 6.39062C337.055 6.39062 337.984 6.73958 338.703 7.4375C339.427 8.13542 339.831 9.08333 339.914 10.2812L339.93 10.8594C339.93 12.1562 339.568 13.1979 338.844 13.9844C338.12 14.7656 337.148 15.1562 335.93 15.1562C334.711 15.1562 333.737 14.7656 333.008 13.9844C332.284 13.2031 331.922 12.1406 331.922 10.7969V10.6953ZM334.18 10.8594C334.18 11.6615 334.331 12.276 334.633 12.7031C334.935 13.125 335.367 13.3359 335.93 13.3359C336.477 13.3359 336.904 13.1276 337.211 12.7109C337.518 12.2891 337.672 11.6172 337.672 10.6953C337.672 9.90885 337.518 9.29948 337.211 8.86719C336.904 8.4349 336.471 8.21875 335.914 8.21875C335.362 8.21875 334.935 8.4349 334.633 8.86719C334.331 9.29427 334.18 9.95833 334.18 10.8594ZM343.703 15H341.438V6.54688H343.703V15ZM341.305 4.35938C341.305 4.02083 341.417 3.74219 341.641 3.52344C341.87 3.30469 342.18 3.19531 342.57 3.19531C342.956 3.19531 343.263 3.30469 343.492 3.52344C343.721 3.74219 343.836 4.02083 343.836 4.35938C343.836 4.70312 343.719 4.98438 343.484 5.20312C343.255 5.42188 342.951 5.53125 342.57 5.53125C342.19 5.53125 341.883 5.42188 341.648 5.20312C341.419 4.98438 341.305 4.70312 341.305 4.35938ZM350.148 12.6641C350.148 12.388 350.01 12.1719 349.734 12.0156C349.464 11.8542 349.026 11.7109 348.422 11.5859C346.411 11.1641 345.406 10.3099 345.406 9.02344C345.406 8.27344 345.716 7.64844 346.336 7.14844C346.961 6.64323 347.776 6.39062 348.781 6.39062C349.854 6.39062 350.711 6.64323 351.352 7.14844C351.997 7.65365 352.32 8.3099 352.32 9.11719H350.062C350.062 8.79427 349.958 8.52865 349.75 8.32031C349.542 8.10677 349.216 8 348.773 8C348.393 8 348.099 8.08594 347.891 8.25781C347.682 8.42969 347.578 8.64844 347.578 8.91406C347.578 9.16406 347.695 9.36719 347.93 9.52344C348.169 9.67448 348.57 9.80729 349.133 9.92188C349.695 10.0312 350.169 10.1562 350.555 10.2969C351.747 10.7344 352.344 11.4922 352.344 12.5703C352.344 13.3411 352.013 13.9661 351.352 14.4453C350.69 14.9193 349.836 15.1562 348.789 15.1562C348.081 15.1562 347.451 15.0312 346.898 14.7812C346.352 14.526 345.922 14.1797 345.609 13.7422C345.297 13.2995 345.141 12.8229 345.141 12.3125H347.281C347.302 12.7135 347.451 13.0208 347.727 13.2344C348.003 13.4479 348.372 13.5547 348.836 13.5547C349.268 13.5547 349.594 13.474 349.812 13.3125C350.036 13.1458 350.148 12.9297 350.148 12.6641Z" fill="#6E33A6"/>
</svg>
