<svg width="560" height="441" viewBox="0 0 560 441" fill="none" xmlns="http://www.w3.org/2000/svg">
<rect y="1" width="520" height="419" fill="#FFF6FA"/>
<rect y="111" width="520" height="199" fill="#5ED4B9"/>
<rect x="111" y="1" width="199" height="99" fill="#B688E0"/>
<rect x="111" y="321" width="199" height="99" fill="#B688E0"/>
<rect x="321" y="1" width="199" height="99" fill="#B688E0"/>
<path d="M9.625 114.625V122.117C9.625 123.362 9.23438 124.346 8.45312 125.07C7.67708 125.794 6.61458 126.156 5.26562 126.156C3.9375 126.156 2.88281 125.805 2.10156 125.102C1.32031 124.398 0.921875 123.432 0.90625 122.203V114.625H3.25V122.133C3.25 122.878 3.42708 123.422 3.78125 123.766C4.14062 124.104 4.63542 124.273 5.26562 124.273C6.58333 124.273 7.2526 123.581 7.27344 122.195V114.625H9.625ZM13.5156 117.547L13.5859 118.492C14.1849 117.758 14.9948 117.391 16.0156 117.391C17.1042 117.391 17.8516 117.82 18.2578 118.68C18.8516 117.82 19.6979 117.391 20.7969 117.391C21.7135 117.391 22.3958 117.659 22.8438 118.195C23.2917 118.727 23.5156 119.529 23.5156 120.602V126H21.25V120.609C21.25 120.13 21.1562 119.781 20.9688 119.562C20.7812 119.339 20.4505 119.227 19.9766 119.227C19.2995 119.227 18.8307 119.549 18.5703 120.195L18.5781 126H16.3203V120.617C16.3203 120.128 16.224 119.773 16.0312 119.555C15.8385 119.336 15.5104 119.227 15.0469 119.227C14.4062 119.227 13.9427 119.492 13.6562 120.023V126H11.3984V117.547H13.5156Z" fill="#6E33A6"/>
<path d="M117.914 332.016C117.914 331.573 117.758 331.234 117.445 331C117.133 330.76 116.57 330.51 115.758 330.25C114.945 329.984 114.302 329.724 113.828 329.469C112.536 328.771 111.891 327.831 111.891 326.648C111.891 326.034 112.062 325.487 112.406 325.008C112.755 324.523 113.253 324.146 113.898 323.875C114.549 323.604 115.279 323.469 116.086 323.469C116.898 323.469 117.622 323.617 118.258 323.914C118.893 324.206 119.385 324.62 119.734 325.156C120.089 325.693 120.266 326.302 120.266 326.984H117.922C117.922 326.464 117.758 326.06 117.43 325.773C117.102 325.482 116.641 325.336 116.047 325.336C115.474 325.336 115.029 325.458 114.711 325.703C114.393 325.943 114.234 326.26 114.234 326.656C114.234 327.026 114.419 327.336 114.789 327.586C115.164 327.836 115.714 328.07 116.438 328.289C117.771 328.69 118.742 329.188 119.352 329.781C119.961 330.375 120.266 331.115 120.266 332C120.266 332.984 119.893 333.758 119.148 334.32C118.404 334.878 117.401 335.156 116.141 335.156C115.266 335.156 114.469 334.997 113.75 334.68C113.031 334.357 112.482 333.917 112.102 333.359C111.727 332.802 111.539 332.156 111.539 331.422H113.891C113.891 332.677 114.641 333.305 116.141 333.305C116.698 333.305 117.133 333.193 117.445 332.969C117.758 332.74 117.914 332.422 117.914 332.016ZM125.602 335.156C124.362 335.156 123.352 334.776 122.57 334.016C121.794 333.255 121.406 332.242 121.406 330.977V330.758C121.406 329.909 121.57 329.151 121.898 328.484C122.227 327.812 122.69 327.297 123.289 326.938C123.893 326.573 124.581 326.391 125.352 326.391C126.508 326.391 127.417 326.755 128.078 327.484C128.745 328.214 129.078 329.247 129.078 330.586V331.508H123.695C123.768 332.06 123.987 332.503 124.352 332.836C124.721 333.169 125.188 333.336 125.75 333.336C126.62 333.336 127.299 333.021 127.789 332.391L128.898 333.633C128.56 334.112 128.102 334.487 127.523 334.758C126.945 335.023 126.305 335.156 125.602 335.156ZM125.344 328.219C124.896 328.219 124.531 328.37 124.25 328.672C123.974 328.974 123.797 329.406 123.719 329.969H126.859V329.789C126.849 329.289 126.714 328.904 126.453 328.633C126.193 328.357 125.823 328.219 125.344 328.219ZM132.75 335H130.484V326.547H132.75V335ZM130.352 324.359C130.352 324.021 130.464 323.742 130.688 323.523C130.917 323.305 131.227 323.195 131.617 323.195C132.003 323.195 132.31 323.305 132.539 323.523C132.768 323.742 132.883 324.021 132.883 324.359C132.883 324.703 132.766 324.984 132.531 325.203C132.302 325.422 131.997 325.531 131.617 325.531C131.237 325.531 130.93 325.422 130.695 325.203C130.466 324.984 130.352 324.703 130.352 324.359ZM139.195 332.664C139.195 332.388 139.057 332.172 138.781 332.016C138.51 331.854 138.073 331.711 137.469 331.586C135.458 331.164 134.453 330.31 134.453 329.023C134.453 328.273 134.763 327.648 135.383 327.148C136.008 326.643 136.823 326.391 137.828 326.391C138.901 326.391 139.758 326.643 140.398 327.148C141.044 327.654 141.367 328.31 141.367 329.117H139.109C139.109 328.794 139.005 328.529 138.797 328.32C138.589 328.107 138.263 328 137.82 328C137.44 328 137.146 328.086 136.938 328.258C136.729 328.43 136.625 328.648 136.625 328.914C136.625 329.164 136.742 329.367 136.977 329.523C137.216 329.674 137.617 329.807 138.18 329.922C138.742 330.031 139.216 330.156 139.602 330.297C140.794 330.734 141.391 331.492 141.391 332.57C141.391 333.341 141.06 333.966 140.398 334.445C139.737 334.919 138.883 335.156 137.836 335.156C137.128 335.156 136.497 335.031 135.945 334.781C135.398 334.526 134.969 334.18 134.656 333.742C134.344 333.299 134.188 332.823 134.188 332.312H136.328C136.349 332.714 136.497 333.021 136.773 333.234C137.049 333.448 137.419 333.555 137.883 333.555C138.315 333.555 138.641 333.474 138.859 333.312C139.083 333.146 139.195 332.93 139.195 332.664Z" fill="#6E33A6"/>
<path d="M120.578 5.52344H117.094V15H114.75V5.52344H111.312V3.625H120.578V5.52344ZM126.008 8.66406C125.701 8.6224 125.43 8.60156 125.195 8.60156C124.341 8.60156 123.781 8.89062 123.516 9.46875V15H121.258V6.54688H123.391L123.453 7.55469C123.906 6.77865 124.534 6.39062 125.336 6.39062C125.586 6.39062 125.82 6.42448 126.039 6.49219L126.008 8.66406ZM130.836 15.1562C129.596 15.1562 128.586 14.776 127.805 14.0156C127.029 13.2552 126.641 12.2422 126.641 10.9766V10.7578C126.641 9.90885 126.805 9.15104 127.133 8.48438C127.461 7.8125 127.924 7.29688 128.523 6.9375C129.128 6.57292 129.815 6.39062 130.586 6.39062C131.742 6.39062 132.651 6.75521 133.312 7.48438C133.979 8.21354 134.312 9.2474 134.312 10.5859V11.5078H128.93C129.003 12.0599 129.221 12.5026 129.586 12.8359C129.956 13.1693 130.422 13.3359 130.984 13.3359C131.854 13.3359 132.534 13.0208 133.023 12.3906L134.133 13.6328C133.794 14.112 133.336 14.487 132.758 14.7578C132.18 15.0234 131.539 15.1562 130.836 15.1562ZM130.578 8.21875C130.13 8.21875 129.766 8.36979 129.484 8.67188C129.208 8.97396 129.031 9.40625 128.953 9.96875H132.094V9.78906C132.083 9.28906 131.948 8.90365 131.688 8.63281C131.427 8.35677 131.057 8.21875 130.578 8.21875ZM133.328 5.1875V5.28125H131.531L130.328 4.14844L129.125 5.28125H127.359V5.15625L129.672 3H130.984L133.328 5.1875ZM140.18 12.6641C140.18 12.388 140.042 12.1719 139.766 12.0156C139.495 11.8542 139.057 11.7109 138.453 11.5859C136.443 11.1641 135.438 10.3099 135.438 9.02344C135.438 8.27344 135.747 7.64844 136.367 7.14844C136.992 6.64323 137.807 6.39062 138.812 6.39062C139.885 6.39062 140.742 6.64323 141.383 7.14844C142.029 7.65365 142.352 8.3099 142.352 9.11719H140.094C140.094 8.79427 139.99 8.52865 139.781 8.32031C139.573 8.10677 139.247 8 138.805 8C138.424 8 138.13 8.08594 137.922 8.25781C137.714 8.42969 137.609 8.64844 137.609 8.91406C137.609 9.16406 137.727 9.36719 137.961 9.52344C138.201 9.67448 138.602 9.80729 139.164 9.92188C139.727 10.0312 140.201 10.1562 140.586 10.2969C141.779 10.7344 142.375 11.4922 142.375 12.5703C142.375 13.3411 142.044 13.9661 141.383 14.4453C140.721 14.9193 139.867 15.1562 138.82 15.1562C138.112 15.1562 137.482 15.0312 136.93 14.7812C136.383 14.526 135.953 14.1797 135.641 13.7422C135.328 13.2995 135.172 12.8229 135.172 12.3125H137.312C137.333 12.7135 137.482 13.0208 137.758 13.2344C138.034 13.4479 138.404 13.5547 138.867 13.5547C139.299 13.5547 139.625 13.474 139.844 13.3125C140.068 13.1458 140.18 12.9297 140.18 12.6641Z" fill="#6E33A6"/>
<path d="M331.344 9.57031C331.344 10.6328 331.172 11.5573 330.828 12.3438C330.484 13.125 330.008 13.7526 329.398 14.2266L331.289 15.7109L329.797 17.0312L327.375 15.0859C327.099 15.1328 326.812 15.1562 326.516 15.1562C325.573 15.1562 324.732 14.9297 323.992 14.4766C323.253 14.0234 322.68 13.3776 322.273 12.5391C321.867 11.6953 321.661 10.7266 321.656 9.63281V9.07031C321.656 7.95052 321.857 6.96615 322.258 6.11719C322.664 5.26302 323.234 4.60938 323.969 4.15625C324.708 3.69792 325.552 3.46875 326.5 3.46875C327.448 3.46875 328.289 3.69792 329.023 4.15625C329.763 4.60938 330.333 5.26302 330.734 6.11719C331.141 6.96615 331.344 7.94792 331.344 9.0625V9.57031ZM328.969 9.05469C328.969 7.86198 328.755 6.95573 328.328 6.33594C327.901 5.71615 327.292 5.40625 326.5 5.40625C325.714 5.40625 325.107 5.71354 324.68 6.32812C324.253 6.9375 324.036 7.83333 324.031 9.01562V9.57031C324.031 10.7318 324.245 11.6328 324.672 12.2734C325.099 12.9141 325.714 13.2344 326.516 13.2344C327.302 13.2344 327.906 12.9271 328.328 12.3125C328.75 11.6927 328.964 10.7917 328.969 9.60938V9.05469ZM337.977 14.1406C337.419 14.8177 336.648 15.1562 335.664 15.1562C334.758 15.1562 334.065 14.8958 333.586 14.375C333.112 13.8542 332.87 13.0911 332.859 12.0859V6.54688H335.117V12.0078C335.117 12.888 335.518 13.3281 336.32 13.3281C337.086 13.3281 337.612 13.0625 337.898 12.5312V6.54688H340.164V15H338.039L337.977 14.1406ZM346.766 15C346.661 14.7969 346.586 14.5443 346.539 14.2422C345.992 14.8516 345.281 15.1562 344.406 15.1562C343.578 15.1562 342.891 14.9167 342.344 14.4375C341.802 13.9583 341.531 13.3542 341.531 12.625C341.531 11.7292 341.862 11.0417 342.523 10.5625C343.19 10.0833 344.151 9.84115 345.406 9.83594H346.445V9.35156C346.445 8.96094 346.344 8.64844 346.141 8.41406C345.943 8.17969 345.628 8.0625 345.195 8.0625C344.815 8.0625 344.516 8.15365 344.297 8.33594C344.083 8.51823 343.977 8.76823 343.977 9.08594H341.719C341.719 8.59635 341.87 8.14323 342.172 7.72656C342.474 7.3099 342.901 6.98438 343.453 6.75C344.005 6.51042 344.625 6.39062 345.312 6.39062C346.354 6.39062 347.18 6.65365 347.789 7.17969C348.404 7.70052 348.711 8.4349 348.711 9.38281V13.0469C348.716 13.849 348.828 14.4557 349.047 14.8672V15H346.766ZM344.898 13.4297C345.232 13.4297 345.539 13.3568 345.82 13.2109C346.102 13.0599 346.31 12.8594 346.445 12.6094V11.1562H345.602C344.471 11.1562 343.87 11.5469 343.797 12.3281L343.789 12.4609C343.789 12.7422 343.888 12.974 344.086 13.1562C344.284 13.3385 344.555 13.4297 344.898 13.4297ZM353.148 4.46875V6.54688H354.594V8.20312H353.148V12.4219C353.148 12.7344 353.208 12.9583 353.328 13.0938C353.448 13.2292 353.677 13.2969 354.016 13.2969C354.266 13.2969 354.487 13.2786 354.68 13.2422V14.9531C354.237 15.0885 353.781 15.1562 353.312 15.1562C351.729 15.1562 350.922 14.3568 350.891 12.7578V8.20312H349.656V6.54688H350.891V4.46875H353.148ZM360.602 8.66406C360.294 8.6224 360.023 8.60156 359.789 8.60156C358.935 8.60156 358.375 8.89062 358.109 9.46875V15H355.852V6.54688H357.984L358.047 7.55469C358.5 6.77865 359.128 6.39062 359.93 6.39062C360.18 6.39062 360.414 6.42448 360.633 6.49219L360.602 8.66406ZM361.062 10.6953C361.062 9.85677 361.224 9.10938 361.547 8.45312C361.87 7.79688 362.333 7.28906 362.938 6.92969C363.547 6.57031 364.253 6.39062 365.055 6.39062C366.195 6.39062 367.125 6.73958 367.844 7.4375C368.568 8.13542 368.971 9.08333 369.055 10.2812L369.07 10.8594C369.07 12.1562 368.708 13.1979 367.984 13.9844C367.26 14.7656 366.289 15.1562 365.07 15.1562C363.852 15.1562 362.878 14.7656 362.148 13.9844C361.424 13.2031 361.062 12.1406 361.062 10.7969V10.6953ZM363.32 10.8594C363.32 11.6615 363.471 12.276 363.773 12.7031C364.076 13.125 364.508 13.3359 365.07 13.3359C365.617 13.3359 366.044 13.1276 366.352 12.7109C366.659 12.2891 366.812 11.6172 366.812 10.6953C366.812 9.90885 366.659 9.29948 366.352 8.86719C366.044 8.4349 365.612 8.21875 365.055 8.21875C364.503 8.21875 364.076 8.4349 363.773 8.86719C363.471 9.29427 363.32 9.95833 363.32 10.8594Z" fill="#6E33A6"/>
<line x1="100.5" y1="1" x2="100.5" y2="420" stroke="#DB2B6C"/>
<line x1="110.5" y1="1" x2="110.5" y2="420" stroke="#DB2B6C"/>
<line y1="100.5" x2="520" y2="100.5" stroke="#DB2B6C"/>
<line y1="110.5" x2="520" y2="110.5" stroke="#DB2B6C"/>
<line y1="310.5" x2="520" y2="310.5" stroke="#DB2B6C"/>
<line x1="520" y1="320.5" x2="560" y2="320.5" stroke="#DB2B6C" stroke-dasharray="2 2"/>
<line y1="320.5" x2="520" y2="320.5" stroke="#DB2B6C"/>
<line y1="420.5" x2="520" y2="420.5" stroke="#DB2B6C"/>
<line x1="520" y1="310.5" x2="560" y2="310.5" stroke="#DB2B6C" stroke-dasharray="2 2"/>
<line x1="520" y1="110.5" x2="560" y2="110.5" stroke="#DB2B6C" stroke-dasharray="2 2"/>
<line x1="520" y1="100.5" x2="560" y2="100.5" stroke="#DB2B6C" stroke-dasharray="2 2"/>
<line y1="420.5" x2="560" y2="420.5" stroke="#DB2B6C" stroke-dasharray="2 2"/>
<line x1="310.5" y1="1" x2="310.5" y2="421" stroke="#DB2B6C"/>
<line x1="320.5" y1="1" x2="320.5" y2="420" stroke="#DB2B6C"/>
<line x1="100.5" y1="311" x2="100.5" y2="441" stroke="#DB2B6C" stroke-dasharray="2 2"/>
<line x1="110.5" y1="311" x2="110.5" y2="441" stroke="#DB2B6C" stroke-dasharray="2 2"/>
<line x1="310.5" y1="310" x2="310.5" y2="440" stroke="#DB2B6C" stroke-dasharray="2 2"/>
<line x1="320.5" y1="310" x2="320.5" y2="440" stroke="#DB2B6C" stroke-dasharray="2 2"/>
<rect y="321" width="100" height="99" fill="#B688E0"/>
<rect y="1" width="100" height="99" fill="#B688E0"/>
<path d="M9.94531 331.211C9.85677 332.435 9.40365 333.398 8.58594 334.102C7.77344 334.805 6.70052 335.156 5.36719 335.156C3.90885 335.156 2.76042 334.667 1.92188 333.688C1.08854 332.703 0.671875 331.354 0.671875 329.641V328.945C0.671875 327.852 0.864583 326.888 1.25 326.055C1.63542 325.221 2.1849 324.583 2.89844 324.141C3.61719 323.693 4.45052 323.469 5.39844 323.469C6.71094 323.469 7.76823 323.82 8.57031 324.523C9.3724 325.227 9.83594 326.214 9.96094 327.484H7.61719C7.5599 326.75 7.35417 326.219 7 325.891C6.65104 325.557 6.11719 325.391 5.39844 325.391C4.61719 325.391 4.03125 325.672 3.64062 326.234C3.25521 326.792 3.05729 327.659 3.04688 328.836V329.695C3.04688 330.924 3.23177 331.823 3.60156 332.391C3.97656 332.958 4.5651 333.242 5.36719 333.242C6.09115 333.242 6.63021 333.078 6.98438 332.75C7.34375 332.417 7.54948 331.904 7.60156 331.211H9.94531ZM13.7188 335H11.4531V326.547H13.7188V335ZM11.3203 324.359C11.3203 324.021 11.4323 323.742 11.6562 323.523C11.8854 323.305 12.1953 323.195 12.5859 323.195C12.9714 323.195 13.2786 323.305 13.5078 323.523C13.737 323.742 13.8516 324.021 13.8516 324.359C13.8516 324.703 13.7344 324.984 13.5 325.203C13.2708 325.422 12.9661 325.531 12.5859 325.531C12.2057 325.531 11.8984 325.422 11.6641 325.203C11.4349 324.984 11.3203 324.703 11.3203 324.359ZM17.6641 326.547L17.7344 327.523C18.3385 326.768 19.1484 326.391 20.1641 326.391C21.0599 326.391 21.7266 326.654 22.1641 327.18C22.6016 327.706 22.8255 328.492 22.8359 329.539V335H20.5781V329.594C20.5781 329.115 20.474 328.768 20.2656 328.555C20.0573 328.336 19.7109 328.227 19.2266 328.227C18.5911 328.227 18.1146 328.497 17.7969 329.039V335H15.5391V326.547H17.6641ZM28.0703 333.336C28.487 333.336 28.8255 333.221 29.0859 332.992C29.3464 332.763 29.4818 332.458 29.4922 332.078H31.6094C31.6042 332.651 31.4479 333.177 31.1406 333.656C30.8333 334.13 30.4115 334.5 29.875 334.766C29.3438 335.026 28.7552 335.156 28.1094 335.156C26.901 335.156 25.9479 334.773 25.25 334.008C24.5521 333.237 24.2031 332.174 24.2031 330.82V330.672C24.2031 329.37 24.5495 328.331 25.2422 327.555C25.9349 326.779 26.8854 326.391 28.0938 326.391C29.151 326.391 29.9974 326.693 30.6328 327.297C31.2734 327.896 31.599 328.695 31.6094 329.695H29.4922C29.4818 329.258 29.3464 328.904 29.0859 328.633C28.8255 328.357 28.4818 328.219 28.0547 328.219C27.5286 328.219 27.1302 328.411 26.8594 328.797C26.5938 329.177 26.4609 329.797 26.4609 330.656V330.891C26.4609 331.76 26.5938 332.385 26.8594 332.766C27.125 333.146 27.5286 333.336 28.0703 333.336ZM32.5469 330.695C32.5469 329.857 32.7083 329.109 33.0312 328.453C33.3542 327.797 33.8177 327.289 34.4219 326.93C35.0312 326.57 35.737 326.391 36.5391 326.391C37.6797 326.391 38.6094 326.74 39.3281 327.438C40.0521 328.135 40.4557 329.083 40.5391 330.281L40.5547 330.859C40.5547 332.156 40.1927 333.198 39.4688 333.984C38.7448 334.766 37.7734 335.156 36.5547 335.156C35.3359 335.156 34.362 334.766 33.6328 333.984C32.9089 333.203 32.5469 332.141 32.5469 330.797V330.695ZM34.8047 330.859C34.8047 331.661 34.9557 332.276 35.2578 332.703C35.5599 333.125 35.9922 333.336 36.5547 333.336C37.1016 333.336 37.5286 333.128 37.8359 332.711C38.1432 332.289 38.2969 331.617 38.2969 330.695C38.2969 329.909 38.1432 329.299 37.8359 328.867C37.5286 328.435 37.0964 328.219 36.5391 328.219C35.987 328.219 35.5599 328.435 35.2578 328.867C34.9557 329.294 34.8047 329.958 34.8047 330.859Z" fill="#6E33A6"/>
<path d="M1.01562 16V4.625H4.51562C5.51562 4.625 6.40885 4.85156 7.19531 5.30469C7.98698 5.7526 8.60417 6.39323 9.04688 7.22656C9.48958 8.05469 9.71094 8.9974 9.71094 10.0547V10.5781C9.71094 11.6354 9.49219 12.5755 9.05469 13.3984C8.6224 14.2214 8.01042 14.8594 7.21875 15.3125C6.42708 15.7656 5.53385 15.9948 4.53906 16H1.01562ZM3.35938 6.52344V14.1172H4.49219C5.40885 14.1172 6.10938 13.8177 6.59375 13.2188C7.07812 12.6198 7.32552 11.763 7.33594 10.6484V10.0469C7.33594 8.89062 7.09635 8.01562 6.61719 7.42188C6.13802 6.82292 5.4375 6.52344 4.51562 6.52344H3.35938ZM10.9219 11.6953C10.9219 10.8568 11.0833 10.1094 11.4062 9.45312C11.7292 8.79688 12.1927 8.28906 12.7969 7.92969C13.4062 7.57031 14.112 7.39062 14.9141 7.39062C16.0547 7.39062 16.9844 7.73958 17.7031 8.4375C18.4271 9.13542 18.8307 10.0833 18.9141 11.2812L18.9297 11.8594C18.9297 13.1562 18.5677 14.1979 17.8438 14.9844C17.1198 15.7656 16.1484 16.1562 14.9297 16.1562C13.7109 16.1562 12.737 15.7656 12.0078 14.9844C11.2839 14.2031 10.9219 13.1406 10.9219 11.7969V11.6953ZM13.1797 11.8594C13.1797 12.6615 13.3307 13.276 13.6328 13.7031C13.9349 14.125 14.3672 14.3359 14.9297 14.3359C15.4766 14.3359 15.9036 14.1276 16.2109 13.7109C16.5182 13.2891 16.6719 12.6172 16.6719 11.6953C16.6719 10.9089 16.5182 10.2995 16.2109 9.86719C15.9036 9.4349 15.4714 9.21875 14.9141 9.21875C14.362 9.21875 13.9349 9.4349 13.6328 9.86719C13.3307 10.2943 13.1797 10.9583 13.1797 11.8594ZM22.7031 16H20.4375V7.54688H22.7031V16ZM20.3047 5.35938C20.3047 5.02083 20.4167 4.74219 20.6406 4.52344C20.8698 4.30469 21.1797 4.19531 21.5703 4.19531C21.9557 4.19531 22.263 4.30469 22.4922 4.52344C22.7214 4.74219 22.8359 5.02083 22.8359 5.35938C22.8359 5.70312 22.7188 5.98438 22.4844 6.20312C22.2552 6.42188 21.9505 6.53125 21.5703 6.53125C21.1901 6.53125 20.8828 6.42188 20.6484 6.20312C20.4193 5.98438 20.3047 5.70312 20.3047 5.35938ZM29.1484 13.6641C29.1484 13.388 29.0104 13.1719 28.7344 13.0156C28.4635 12.8542 28.026 12.7109 27.4219 12.5859C25.4115 12.1641 24.4062 11.3099 24.4062 10.0234C24.4062 9.27344 24.7161 8.64844 25.3359 8.14844C25.9609 7.64323 26.776 7.39062 27.7812 7.39062C28.8542 7.39062 29.7109 7.64323 30.3516 8.14844C30.9974 8.65365 31.3203 9.3099 31.3203 10.1172H29.0625C29.0625 9.79427 28.9583 9.52865 28.75 9.32031C28.5417 9.10677 28.2161 9 27.7734 9C27.3932 9 27.099 9.08594 26.8906 9.25781C26.6823 9.42969 26.5781 9.64844 26.5781 9.91406C26.5781 10.1641 26.6953 10.3672 26.9297 10.5234C27.1693 10.6745 27.5703 10.8073 28.1328 10.9219C28.6953 11.0312 29.1693 11.1562 29.5547 11.2969C30.7474 11.7344 31.3438 12.4922 31.3438 13.5703C31.3438 14.3411 31.013 14.9661 30.3516 15.4453C29.6901 15.9193 28.8359 16.1562 27.7891 16.1562C27.0807 16.1562 26.4505 16.0312 25.8984 15.7812C25.3516 15.526 24.9219 15.1797 24.6094 14.7422C24.2969 14.2995 24.1406 13.8229 24.1406 13.3125H26.2812C26.3021 13.7135 26.4505 14.0208 26.7266 14.2344C27.0026 14.4479 27.3724 14.5547 27.8359 14.5547C28.2682 14.5547 28.5938 14.474 28.8125 14.3125C29.0365 14.1458 29.1484 13.9297 29.1484 13.6641Z" fill="#6E33A6"/>
</svg>
