<svg width="560" height="460" viewBox="0 0 560 460" fill="none" xmlns="http://www.w3.org/2000/svg">
<rect y="19" width="520" height="420" fill="#FFF6FA"/>
<rect y="19" width="100" height="100" fill="#B688E0"/>
<rect y="130" width="100" height="199" fill="#5ED4B9"/>
<rect x="111" y="19" width="199" height="100" fill="#B688E0"/>
<rect x="111" y="130" width="199" height="199" fill="#B688E0"/>
<rect x="321" y="19" width="199" height="100" fill="#B688E0"/>
<rect x="321" y="130" width="199" height="199" fill="#B688E0"/>
<path d="M1.01562 34V22.625H4.51562C5.51562 22.625 6.40885 22.8516 7.19531 23.3047C7.98698 23.7526 8.60417 24.3932 9.04688 25.2266C9.48958 26.0547 9.71094 26.9974 9.71094 28.0547V28.5781C9.71094 29.6354 9.49219 30.5755 9.05469 31.3984C8.6224 32.2214 8.01042 32.8594 7.21875 33.3125C6.42708 33.7656 5.53385 33.9948 4.53906 34H1.01562ZM3.35938 24.5234V32.1172H4.49219C5.40885 32.1172 6.10938 31.8177 6.59375 31.2188C7.07812 30.6198 7.32552 29.763 7.33594 28.6484V28.0469C7.33594 26.8906 7.09635 26.0156 6.61719 25.4219C6.13802 24.8229 5.4375 24.5234 4.51562 24.5234H3.35938ZM10.9219 29.6953C10.9219 28.8568 11.0833 28.1094 11.4062 27.4531C11.7292 26.7969 12.1927 26.2891 12.7969 25.9297C13.4062 25.5703 14.112 25.3906 14.9141 25.3906C16.0547 25.3906 16.9844 25.7396 17.7031 26.4375C18.4271 27.1354 18.8307 28.0833 18.9141 29.2812L18.9297 29.8594C18.9297 31.1562 18.5677 32.1979 17.8438 32.9844C17.1198 33.7656 16.1484 34.1562 14.9297 34.1562C13.7109 34.1562 12.737 33.7656 12.0078 32.9844C11.2839 32.2031 10.9219 31.1406 10.9219 29.7969V29.6953ZM13.1797 29.8594C13.1797 30.6615 13.3307 31.276 13.6328 31.7031C13.9349 32.125 14.3672 32.3359 14.9297 32.3359C15.4766 32.3359 15.9036 32.1276 16.2109 31.7109C16.5182 31.2891 16.6719 30.6172 16.6719 29.6953C16.6719 28.9089 16.5182 28.2995 16.2109 27.8672C15.9036 27.4349 15.4714 27.2188 14.9141 27.2188C14.362 27.2188 13.9349 27.4349 13.6328 27.8672C13.3307 28.2943 13.1797 28.9583 13.1797 29.8594ZM22.7031 34H20.4375V25.5469H22.7031V34ZM20.3047 23.3594C20.3047 23.0208 20.4167 22.7422 20.6406 22.5234C20.8698 22.3047 21.1797 22.1953 21.5703 22.1953C21.9557 22.1953 22.263 22.3047 22.4922 22.5234C22.7214 22.7422 22.8359 23.0208 22.8359 23.3594C22.8359 23.7031 22.7188 23.9844 22.4844 24.2031C22.2552 24.4219 21.9505 24.5312 21.5703 24.5312C21.1901 24.5312 20.8828 24.4219 20.6484 24.2031C20.4193 23.9844 20.3047 23.7031 20.3047 23.3594ZM29.1484 31.6641C29.1484 31.388 29.0104 31.1719 28.7344 31.0156C28.4635 30.8542 28.026 30.7109 27.4219 30.5859C25.4115 30.1641 24.4062 29.3099 24.4062 28.0234C24.4062 27.2734 24.7161 26.6484 25.3359 26.1484C25.9609 25.6432 26.776 25.3906 27.7812 25.3906C28.8542 25.3906 29.7109 25.6432 30.3516 26.1484C30.9974 26.6536 31.3203 27.3099 31.3203 28.1172H29.0625C29.0625 27.7943 28.9583 27.5286 28.75 27.3203C28.5417 27.1068 28.2161 27 27.7734 27C27.3932 27 27.099 27.0859 26.8906 27.2578C26.6823 27.4297 26.5781 27.6484 26.5781 27.9141C26.5781 28.1641 26.6953 28.3672 26.9297 28.5234C27.1693 28.6745 27.5703 28.8073 28.1328 28.9219C28.6953 29.0312 29.1693 29.1562 29.5547 29.2969C30.7474 29.7344 31.3438 30.4922 31.3438 31.5703C31.3438 32.3411 31.013 32.9661 30.3516 33.4453C29.6901 33.9193 28.8359 34.1562 27.7891 34.1562C27.0807 34.1562 26.4505 34.0312 25.8984 33.7812C25.3516 33.526 24.9219 33.1797 24.6094 32.7422C24.2969 32.2995 24.1406 31.8229 24.1406 31.3125H26.2812C26.3021 31.7135 26.4505 32.0208 26.7266 32.2344C27.0026 32.4479 27.3724 32.5547 27.8359 32.5547C28.2682 32.5547 28.5938 32.474 28.8125 32.3125C29.0365 32.1458 29.1484 31.9297 29.1484 31.6641Z" fill="#6E33A6"/>
<path d="M10.625 133.625V141.117C10.625 142.362 10.2344 143.346 9.45312 144.07C8.67708 144.794 7.61458 145.156 6.26562 145.156C4.9375 145.156 3.88281 144.805 3.10156 144.102C2.32031 143.398 1.92188 142.432 1.90625 141.203V133.625H4.25V141.133C4.25 141.878 4.42708 142.422 4.78125 142.766C5.14062 143.104 5.63542 143.273 6.26562 143.273C7.58333 143.273 8.2526 142.581 8.27344 141.195V133.625H10.625ZM14.5156 136.547L14.5859 137.492C15.1849 136.758 15.9948 136.391 17.0156 136.391C18.1042 136.391 18.8516 136.82 19.2578 137.68C19.8516 136.82 20.6979 136.391 21.7969 136.391C22.7135 136.391 23.3958 136.659 23.8438 137.195C24.2917 137.727 24.5156 138.529 24.5156 139.602V145H22.25V139.609C22.25 139.13 22.1562 138.781 21.9688 138.562C21.7812 138.339 21.4505 138.227 20.9766 138.227C20.2995 138.227 19.8307 138.549 19.5703 139.195L19.5781 145H17.3203V139.617C17.3203 139.128 17.224 138.773 17.0312 138.555C16.8385 138.336 16.5104 138.227 16.0469 138.227C15.4062 138.227 14.9427 138.492 14.6562 139.023V145H12.3984V136.547H14.5156Z" fill="#6E33A6"/>
<path d="M120.945 141.211C120.857 142.435 120.404 143.398 119.586 144.102C118.773 144.805 117.701 145.156 116.367 145.156C114.909 145.156 113.76 144.667 112.922 143.688C112.089 142.703 111.672 141.354 111.672 139.641V138.945C111.672 137.852 111.865 136.888 112.25 136.055C112.635 135.221 113.185 134.583 113.898 134.141C114.617 133.693 115.451 133.469 116.398 133.469C117.711 133.469 118.768 133.82 119.57 134.523C120.372 135.227 120.836 136.214 120.961 137.484H118.617C118.56 136.75 118.354 136.219 118 135.891C117.651 135.557 117.117 135.391 116.398 135.391C115.617 135.391 115.031 135.672 114.641 136.234C114.255 136.792 114.057 137.659 114.047 138.836V139.695C114.047 140.924 114.232 141.823 114.602 142.391C114.977 142.958 115.565 143.242 116.367 143.242C117.091 143.242 117.63 143.078 117.984 142.75C118.344 142.417 118.549 141.904 118.602 141.211H120.945ZM124.719 145H122.453V136.547H124.719V145ZM122.32 134.359C122.32 134.021 122.432 133.742 122.656 133.523C122.885 133.305 123.195 133.195 123.586 133.195C123.971 133.195 124.279 133.305 124.508 133.523C124.737 133.742 124.852 134.021 124.852 134.359C124.852 134.703 124.734 134.984 124.5 135.203C124.271 135.422 123.966 135.531 123.586 135.531C123.206 135.531 122.898 135.422 122.664 135.203C122.435 134.984 122.32 134.703 122.32 134.359ZM128.664 136.547L128.734 137.523C129.339 136.768 130.148 136.391 131.164 136.391C132.06 136.391 132.727 136.654 133.164 137.18C133.602 137.706 133.826 138.492 133.836 139.539V145H131.578V139.594C131.578 139.115 131.474 138.768 131.266 138.555C131.057 138.336 130.711 138.227 130.227 138.227C129.591 138.227 129.115 138.497 128.797 139.039V145H126.539V136.547H128.664ZM139.07 143.336C139.487 143.336 139.826 143.221 140.086 142.992C140.346 142.763 140.482 142.458 140.492 142.078H142.609C142.604 142.651 142.448 143.177 142.141 143.656C141.833 144.13 141.411 144.5 140.875 144.766C140.344 145.026 139.755 145.156 139.109 145.156C137.901 145.156 136.948 144.773 136.25 144.008C135.552 143.237 135.203 142.174 135.203 140.82V140.672C135.203 139.37 135.549 138.331 136.242 137.555C136.935 136.779 137.885 136.391 139.094 136.391C140.151 136.391 140.997 136.693 141.633 137.297C142.273 137.896 142.599 138.695 142.609 139.695H140.492C140.482 139.258 140.346 138.904 140.086 138.633C139.826 138.357 139.482 138.219 139.055 138.219C138.529 138.219 138.13 138.411 137.859 138.797C137.594 139.177 137.461 139.797 137.461 140.656V140.891C137.461 141.76 137.594 142.385 137.859 142.766C138.125 143.146 138.529 143.336 139.07 143.336ZM143.547 140.695C143.547 139.857 143.708 139.109 144.031 138.453C144.354 137.797 144.818 137.289 145.422 136.93C146.031 136.57 146.737 136.391 147.539 136.391C148.68 136.391 149.609 136.74 150.328 137.438C151.052 138.135 151.456 139.083 151.539 140.281L151.555 140.859C151.555 142.156 151.193 143.198 150.469 143.984C149.745 144.766 148.773 145.156 147.555 145.156C146.336 145.156 145.362 144.766 144.633 143.984C143.909 143.203 143.547 142.141 143.547 140.797V140.695ZM145.805 140.859C145.805 141.661 145.956 142.276 146.258 142.703C146.56 143.125 146.992 143.336 147.555 143.336C148.102 143.336 148.529 143.128 148.836 142.711C149.143 142.289 149.297 141.617 149.297 140.695C149.297 139.909 149.143 139.299 148.836 138.867C148.529 138.435 148.096 138.219 147.539 138.219C146.987 138.219 146.56 138.435 146.258 138.867C145.956 139.294 145.805 139.958 145.805 140.859Z" fill="#6E33A6"/>
<path d="M327.914 142.016C327.914 141.573 327.758 141.234 327.445 141C327.133 140.76 326.57 140.51 325.758 140.25C324.945 139.984 324.302 139.724 323.828 139.469C322.536 138.771 321.891 137.831 321.891 136.648C321.891 136.034 322.062 135.487 322.406 135.008C322.755 134.523 323.253 134.146 323.898 133.875C324.549 133.604 325.279 133.469 326.086 133.469C326.898 133.469 327.622 133.617 328.258 133.914C328.893 134.206 329.385 134.62 329.734 135.156C330.089 135.693 330.266 136.302 330.266 136.984H327.922C327.922 136.464 327.758 136.06 327.43 135.773C327.102 135.482 326.641 135.336 326.047 135.336C325.474 135.336 325.029 135.458 324.711 135.703C324.393 135.943 324.234 136.26 324.234 136.656C324.234 137.026 324.419 137.336 324.789 137.586C325.164 137.836 325.714 138.07 326.438 138.289C327.771 138.69 328.742 139.188 329.352 139.781C329.961 140.375 330.266 141.115 330.266 142C330.266 142.984 329.893 143.758 329.148 144.32C328.404 144.878 327.401 145.156 326.141 145.156C325.266 145.156 324.469 144.997 323.75 144.68C323.031 144.357 322.482 143.917 322.102 143.359C321.727 142.802 321.539 142.156 321.539 141.422H323.891C323.891 142.677 324.641 143.305 326.141 143.305C326.698 143.305 327.133 143.193 327.445 142.969C327.758 142.74 327.914 142.422 327.914 142.016ZM335.602 145.156C334.362 145.156 333.352 144.776 332.57 144.016C331.794 143.255 331.406 142.242 331.406 140.977V140.758C331.406 139.909 331.57 139.151 331.898 138.484C332.227 137.812 332.69 137.297 333.289 136.938C333.893 136.573 334.581 136.391 335.352 136.391C336.508 136.391 337.417 136.755 338.078 137.484C338.745 138.214 339.078 139.247 339.078 140.586V141.508H333.695C333.768 142.06 333.987 142.503 334.352 142.836C334.721 143.169 335.188 143.336 335.75 143.336C336.62 143.336 337.299 143.021 337.789 142.391L338.898 143.633C338.56 144.112 338.102 144.487 337.523 144.758C336.945 145.023 336.305 145.156 335.602 145.156ZM335.344 138.219C334.896 138.219 334.531 138.37 334.25 138.672C333.974 138.974 333.797 139.406 333.719 139.969H336.859V139.789C336.849 139.289 336.714 138.904 336.453 138.633C336.193 138.357 335.823 138.219 335.344 138.219ZM342.75 145H340.484V136.547H342.75V145ZM340.352 134.359C340.352 134.021 340.464 133.742 340.688 133.523C340.917 133.305 341.227 133.195 341.617 133.195C342.003 133.195 342.31 133.305 342.539 133.523C342.768 133.742 342.883 134.021 342.883 134.359C342.883 134.703 342.766 134.984 342.531 135.203C342.302 135.422 341.997 135.531 341.617 135.531C341.237 135.531 340.93 135.422 340.695 135.203C340.466 134.984 340.352 134.703 340.352 134.359ZM349.195 142.664C349.195 142.388 349.057 142.172 348.781 142.016C348.51 141.854 348.073 141.711 347.469 141.586C345.458 141.164 344.453 140.31 344.453 139.023C344.453 138.273 344.763 137.648 345.383 137.148C346.008 136.643 346.823 136.391 347.828 136.391C348.901 136.391 349.758 136.643 350.398 137.148C351.044 137.654 351.367 138.31 351.367 139.117H349.109C349.109 138.794 349.005 138.529 348.797 138.32C348.589 138.107 348.263 138 347.82 138C347.44 138 347.146 138.086 346.938 138.258C346.729 138.43 346.625 138.648 346.625 138.914C346.625 139.164 346.742 139.367 346.977 139.523C347.216 139.674 347.617 139.807 348.18 139.922C348.742 140.031 349.216 140.156 349.602 140.297C350.794 140.734 351.391 141.492 351.391 142.57C351.391 143.341 351.06 143.966 350.398 144.445C349.737 144.919 348.883 145.156 347.836 145.156C347.128 145.156 346.497 145.031 345.945 144.781C345.398 144.526 344.969 144.18 344.656 143.742C344.344 143.299 344.188 142.823 344.188 142.312H346.328C346.349 142.714 346.497 143.021 346.773 143.234C347.049 143.448 347.419 143.555 347.883 143.555C348.315 143.555 348.641 143.474 348.859 143.312C349.083 143.146 349.195 142.93 349.195 142.664Z" fill="#6E33A6"/>
<path d="M120.578 24.5234H117.094V34H114.75V24.5234H111.312V22.625H120.578V24.5234ZM126.008 27.6641C125.701 27.6224 125.43 27.6016 125.195 27.6016C124.341 27.6016 123.781 27.8906 123.516 28.4688V34H121.258V25.5469H123.391L123.453 26.5547C123.906 25.7786 124.534 25.3906 125.336 25.3906C125.586 25.3906 125.82 25.4245 126.039 25.4922L126.008 27.6641ZM130.836 34.1562C129.596 34.1562 128.586 33.776 127.805 33.0156C127.029 32.2552 126.641 31.2422 126.641 29.9766V29.7578C126.641 28.9089 126.805 28.151 127.133 27.4844C127.461 26.8125 127.924 26.2969 128.523 25.9375C129.128 25.5729 129.815 25.3906 130.586 25.3906C131.742 25.3906 132.651 25.7552 133.312 26.4844C133.979 27.2135 134.312 28.2474 134.312 29.5859V30.5078H128.93C129.003 31.0599 129.221 31.5026 129.586 31.8359C129.956 32.1693 130.422 32.3359 130.984 32.3359C131.854 32.3359 132.534 32.0208 133.023 31.3906L134.133 32.6328C133.794 33.112 133.336 33.487 132.758 33.7578C132.18 34.0234 131.539 34.1562 130.836 34.1562ZM130.578 27.2188C130.13 27.2188 129.766 27.3698 129.484 27.6719C129.208 27.974 129.031 28.4062 128.953 28.9688H132.094V28.7891C132.083 28.2891 131.948 27.9036 131.688 27.6328C131.427 27.3568 131.057 27.2188 130.578 27.2188ZM133.328 24.1875V24.2812H131.531L130.328 23.1484L129.125 24.2812H127.359V24.1562L129.672 22H130.984L133.328 24.1875ZM140.18 31.6641C140.18 31.388 140.042 31.1719 139.766 31.0156C139.495 30.8542 139.057 30.7109 138.453 30.5859C136.443 30.1641 135.438 29.3099 135.438 28.0234C135.438 27.2734 135.747 26.6484 136.367 26.1484C136.992 25.6432 137.807 25.3906 138.812 25.3906C139.885 25.3906 140.742 25.6432 141.383 26.1484C142.029 26.6536 142.352 27.3099 142.352 28.1172H140.094C140.094 27.7943 139.99 27.5286 139.781 27.3203C139.573 27.1068 139.247 27 138.805 27C138.424 27 138.13 27.0859 137.922 27.2578C137.714 27.4297 137.609 27.6484 137.609 27.9141C137.609 28.1641 137.727 28.3672 137.961 28.5234C138.201 28.6745 138.602 28.8073 139.164 28.9219C139.727 29.0312 140.201 29.1562 140.586 29.2969C141.779 29.7344 142.375 30.4922 142.375 31.5703C142.375 32.3411 142.044 32.9661 141.383 33.4453C140.721 33.9193 139.867 34.1562 138.82 34.1562C138.112 34.1562 137.482 34.0312 136.93 33.7812C136.383 33.526 135.953 33.1797 135.641 32.7422C135.328 32.2995 135.172 31.8229 135.172 31.3125H137.312C137.333 31.7135 137.482 32.0208 137.758 32.2344C138.034 32.4479 138.404 32.5547 138.867 32.5547C139.299 32.5547 139.625 32.474 139.844 32.3125C140.068 32.1458 140.18 31.9297 140.18 31.6641Z" fill="#6E33A6"/>
<path d="M331.344 28.5703C331.344 29.6328 331.172 30.5573 330.828 31.3438C330.484 32.125 330.008 32.7526 329.398 33.2266L331.289 34.7109L329.797 36.0312L327.375 34.0859C327.099 34.1328 326.812 34.1562 326.516 34.1562C325.573 34.1562 324.732 33.9297 323.992 33.4766C323.253 33.0234 322.68 32.3776 322.273 31.5391C321.867 30.6953 321.661 29.7266 321.656 28.6328V28.0703C321.656 26.9505 321.857 25.9661 322.258 25.1172C322.664 24.263 323.234 23.6094 323.969 23.1562C324.708 22.6979 325.552 22.4688 326.5 22.4688C327.448 22.4688 328.289 22.6979 329.023 23.1562C329.763 23.6094 330.333 24.263 330.734 25.1172C331.141 25.9661 331.344 26.9479 331.344 28.0625V28.5703ZM328.969 28.0547C328.969 26.862 328.755 25.9557 328.328 25.3359C327.901 24.7161 327.292 24.4062 326.5 24.4062C325.714 24.4062 325.107 24.7135 324.68 25.3281C324.253 25.9375 324.036 26.8333 324.031 28.0156V28.5703C324.031 29.7318 324.245 30.6328 324.672 31.2734C325.099 31.9141 325.714 32.2344 326.516 32.2344C327.302 32.2344 327.906 31.9271 328.328 31.3125C328.75 30.6927 328.964 29.7917 328.969 28.6094V28.0547ZM337.977 33.1406C337.419 33.8177 336.648 34.1562 335.664 34.1562C334.758 34.1562 334.065 33.8958 333.586 33.375C333.112 32.8542 332.87 32.0911 332.859 31.0859V25.5469H335.117V31.0078C335.117 31.888 335.518 32.3281 336.32 32.3281C337.086 32.3281 337.612 32.0625 337.898 31.5312V25.5469H340.164V34H338.039L337.977 33.1406ZM346.766 34C346.661 33.7969 346.586 33.5443 346.539 33.2422C345.992 33.8516 345.281 34.1562 344.406 34.1562C343.578 34.1562 342.891 33.9167 342.344 33.4375C341.802 32.9583 341.531 32.3542 341.531 31.625C341.531 30.7292 341.862 30.0417 342.523 29.5625C343.19 29.0833 344.151 28.8411 345.406 28.8359H346.445V28.3516C346.445 27.9609 346.344 27.6484 346.141 27.4141C345.943 27.1797 345.628 27.0625 345.195 27.0625C344.815 27.0625 344.516 27.1536 344.297 27.3359C344.083 27.5182 343.977 27.7682 343.977 28.0859H341.719C341.719 27.5964 341.87 27.1432 342.172 26.7266C342.474 26.3099 342.901 25.9844 343.453 25.75C344.005 25.5104 344.625 25.3906 345.312 25.3906C346.354 25.3906 347.18 25.6536 347.789 26.1797C348.404 26.7005 348.711 27.4349 348.711 28.3828V32.0469C348.716 32.849 348.828 33.4557 349.047 33.8672V34H346.766ZM344.898 32.4297C345.232 32.4297 345.539 32.3568 345.82 32.2109C346.102 32.0599 346.31 31.8594 346.445 31.6094V30.1562H345.602C344.471 30.1562 343.87 30.5469 343.797 31.3281L343.789 31.4609C343.789 31.7422 343.888 31.974 344.086 32.1562C344.284 32.3385 344.555 32.4297 344.898 32.4297ZM353.148 23.4688V25.5469H354.594V27.2031H353.148V31.4219C353.148 31.7344 353.208 31.9583 353.328 32.0938C353.448 32.2292 353.677 32.2969 354.016 32.2969C354.266 32.2969 354.487 32.2786 354.68 32.2422V33.9531C354.237 34.0885 353.781 34.1562 353.312 34.1562C351.729 34.1562 350.922 33.3568 350.891 31.7578V27.2031H349.656V25.5469H350.891V23.4688H353.148ZM360.602 27.6641C360.294 27.6224 360.023 27.6016 359.789 27.6016C358.935 27.6016 358.375 27.8906 358.109 28.4688V34H355.852V25.5469H357.984L358.047 26.5547C358.5 25.7786 359.128 25.3906 359.93 25.3906C360.18 25.3906 360.414 25.4245 360.633 25.4922L360.602 27.6641ZM361.062 29.6953C361.062 28.8568 361.224 28.1094 361.547 27.4531C361.87 26.7969 362.333 26.2891 362.938 25.9297C363.547 25.5703 364.253 25.3906 365.055 25.3906C366.195 25.3906 367.125 25.7396 367.844 26.4375C368.568 27.1354 368.971 28.0833 369.055 29.2812L369.07 29.8594C369.07 31.1562 368.708 32.1979 367.984 32.9844C367.26 33.7656 366.289 34.1562 365.07 34.1562C363.852 34.1562 362.878 33.7656 362.148 32.9844C361.424 32.2031 361.062 31.1406 361.062 29.7969V29.6953ZM363.32 29.8594C363.32 30.6615 363.471 31.276 363.773 31.7031C364.076 32.125 364.508 32.3359 365.07 32.3359C365.617 32.3359 366.044 32.1276 366.352 31.7109C366.659 31.2891 366.812 30.6172 366.812 29.6953C366.812 28.9089 366.659 28.2995 366.352 27.8672C366.044 27.4349 365.612 27.2188 365.055 27.2188C364.503 27.2188 364.076 27.4349 363.773 27.8672C363.471 28.2943 363.32 28.9583 363.32 29.8594Z" fill="#6E33A6"/>
<line x1="100.5" y1="19" x2="100.5" y2="329" stroke="#DB2B6C"/>
<line x1="110.5" y1="19" x2="110.5" y2="329" stroke="#DB2B6C"/>
<line y1="119.5" x2="520" y2="119.5" stroke="#DB2B6C"/>
<line y1="129.5" x2="520" y2="129.5" stroke="#DB2B6C"/>
<line y1="329.5" x2="520" y2="329.5" stroke="#DB2B6C"/>
<line y1="339.5" x2="560" y2="339.5" stroke="#DB2B6C" stroke-dasharray="2 2"/>
<line x1="520" y1="329.5" x2="560" y2="329.5" stroke="#DB2B6C" stroke-dasharray="2 2"/>
<line x1="520" y1="129.5" x2="560" y2="129.5" stroke="#DB2B6C" stroke-dasharray="2 2"/>
<line x1="520" y1="119.5" x2="560" y2="119.5" stroke="#DB2B6C" stroke-dasharray="2 2"/>
<line y1="439.5" x2="560" y2="439.5" stroke="#DB2B6C" stroke-dasharray="2 2"/>
<line x1="310.5" y1="19" x2="310.5" y2="329" stroke="#DB2B6C"/>
<line x1="320.5" y1="19" x2="320.5" y2="329" stroke="#DB2B6C"/>
<line x1="100.5" y1="330" x2="100.5" y2="460" stroke="#DB2B6C" stroke-dasharray="2 2"/>
<line x1="110.5" y1="330" x2="110.5" y2="460" stroke="#DB2B6C" stroke-dasharray="2 2"/>
<line x1="310.5" y1="329" x2="310.5" y2="459" stroke="#DB2B6C" stroke-dasharray="2 2"/>
<line x1="320.5" y1="329" x2="320.5" y2="459" stroke="#DB2B6C" stroke-dasharray="2 2"/>
<path d="M0 3C0 1.34315 1.34315 0 3 0H17C18.6569 0 20 1.34315 20 3V11C20 12.6569 18.6569 14 17 14H0V3Z" fill="#A0D9E2"/>
<path d="M499 3C499 1.34315 500.343 0 502 0H517C518.657 0 520 1.34315 520 3V14H502C500.343 14 499 12.6569 499 11V3Z" fill="#A0D9E2"/>
<path d="M525 19H543C544.657 19 546 20.3431 546 22V30C546 31.6569 544.657 33 543 33H528C526.343 33 525 31.6569 525 30V19Z" fill="#A0D9E2"/>
<path d="M523 121C523 119.343 524.343 118 526 118H540C541.657 118 543 119.343 543 121V129C543 130.657 541.657 132 540 132H526C524.343 132 523 130.657 523 129V121Z" fill="#A0D9E2"/>
<path d="M524 330C524 328.343 525.343 327 527 327H541C542.657 327 544 328.343 544 330V338C544 339.657 542.657 341 541 341H527C525.343 341 524 339.657 524 338V330Z" fill="#A0D9E2"/>
<path d="M524 435C524 433.343 525.343 432 527 432H541C542.657 432 544 433.343 544 435V443C544 444.657 542.657 446 541 446H527C525.343 446 524 444.657 524 443V435Z" fill="#A0D9E2"/>
<path d="M10.9111 10H9.5V4.56055L7.81543 5.08301V3.93555L10.7598 2.88086H10.9111V10Z" fill="#0F6C87"/>
<path d="M510.658 7.32422H511.464V8.46191H510.658V10H509.247V8.46191H506.332L506.269 7.57324L509.232 2.89062H510.658V7.32422ZM507.675 7.32422H509.247V4.81445L509.154 4.97559L507.675 7.32422Z" fill="#0F6C87"/>
<path d="M535.911 29H534.5V23.5605L532.815 24.083V22.9355L535.76 21.8809H535.911V29Z" fill="#0F6C87"/>
<path d="M535.356 128H530.483V127.033L532.783 124.582C533.099 124.237 533.332 123.936 533.481 123.679C533.634 123.422 533.711 123.177 533.711 122.946C533.711 122.631 533.631 122.383 533.472 122.204C533.312 122.022 533.084 121.931 532.788 121.931C532.469 121.931 532.217 122.041 532.031 122.263C531.849 122.481 531.758 122.769 531.758 123.127H530.342C530.342 122.694 530.444 122.299 530.649 121.94C530.858 121.582 531.151 121.302 531.528 121.101C531.906 120.896 532.334 120.793 532.812 120.793C533.545 120.793 534.113 120.969 534.517 121.32C534.924 121.672 535.127 122.168 535.127 122.81C535.127 123.161 535.036 123.519 534.854 123.884C534.671 124.248 534.359 124.673 533.916 125.158L532.3 126.862H535.356V128Z" fill="#0F6C87"/>
<path d="M532.919 332.82H533.671C534.029 332.82 534.294 332.731 534.467 332.552C534.639 332.373 534.726 332.135 534.726 331.839C534.726 331.552 534.639 331.329 534.467 331.17C534.298 331.01 534.063 330.931 533.764 330.931C533.493 330.931 533.267 331.006 533.085 331.155C532.903 331.302 532.812 331.494 532.812 331.731H531.4C531.4 331.36 531.5 331.028 531.698 330.735C531.9 330.439 532.18 330.208 532.538 330.042C532.899 329.876 533.297 329.793 533.729 329.793C534.481 329.793 535.071 329.974 535.497 330.335C535.924 330.693 536.137 331.188 536.137 331.819C536.137 332.145 536.037 332.444 535.839 332.718C535.64 332.991 535.38 333.201 535.058 333.348C535.458 333.491 535.756 333.706 535.951 333.992C536.15 334.279 536.249 334.617 536.249 335.008C536.249 335.639 536.018 336.146 535.556 336.526C535.097 336.907 534.488 337.098 533.729 337.098C533.02 337.098 532.439 336.91 531.986 336.536C531.537 336.162 531.312 335.667 531.312 335.052H532.724C532.724 335.319 532.823 335.537 533.021 335.706C533.223 335.875 533.471 335.96 533.764 335.96C534.099 335.96 534.361 335.872 534.55 335.696C534.742 335.517 534.838 335.281 534.838 334.988C534.838 334.279 534.447 333.924 533.666 333.924H532.919V332.82Z" fill="#0F6C87"/>
<path d="M535.658 439.324H536.464V440.462H535.658V442H534.247V440.462H531.332L531.269 439.573L534.232 434.891H535.658V439.324ZM532.675 439.324H534.247V436.814L534.154 436.976L532.675 439.324Z" fill="#0F6C87"/>
<path d="M0 14H4L0 18V14Z" fill="#A0D9E2"/>
<path d="M520 14H516L520 18V14Z" fill="#A0D9E2"/>
<path d="M525 19L525 23L521 19L525 19Z" fill="#A0D9E2"/>
<path d="M523.75 125L523.75 128L520 125L523.75 125Z" fill="#A0D9E2"/>
<path d="M523.75 125L523.75 122L520 125L523.75 125Z" fill="#A0D9E2"/>
<path d="M524.75 334L524.75 337L521 334L524.75 334Z" fill="#A0D9E2"/>
<path d="M524.75 334L524.75 331L521 334L524.75 334Z" fill="#A0D9E2"/>
<path d="M524.75 439L524.75 442L521 439L524.75 439Z" fill="#A0D9E2"/>
<path d="M524.75 439L524.75 436L521 439L524.75 439Z" fill="#A0D9E2"/>
<path d="M306 3C306 1.34315 307.343 0 309 0H323C324.657 0 326 1.34315 326 3V11C326 12.6569 324.657 14 323 14H309C307.343 14 306 12.6569 306 11V3Z" fill="#A0D9E2"/>
<path d="M96 3C96 1.34315 97.3431 0 99 0H113C114.657 0 116 1.34315 116 3V11C116 12.6569 114.657 14 113 14H99C97.3431 14 96 12.6569 96 11V3Z" fill="#A0D9E2"/>
<path d="M314.919 5.82031H315.671C316.029 5.82031 316.294 5.73079 316.467 5.55176C316.639 5.37272 316.726 5.13509 316.726 4.83887C316.726 4.55241 316.639 4.32943 316.467 4.16992C316.298 4.01042 316.063 3.93066 315.764 3.93066C315.493 3.93066 315.267 4.00553 315.085 4.15527C314.903 4.30176 314.812 4.49382 314.812 4.73145H313.4C313.4 4.36035 313.5 4.02832 313.698 3.73535C313.9 3.43913 314.18 3.20801 314.538 3.04199C314.899 2.87598 315.297 2.79297 315.729 2.79297C316.481 2.79297 317.071 2.97363 317.497 3.33496C317.924 3.69303 318.137 4.18783 318.137 4.81934C318.137 5.14486 318.037 5.44434 317.839 5.71777C317.64 5.99121 317.38 6.20117 317.058 6.34766C317.458 6.49089 317.756 6.70573 317.951 6.99219C318.15 7.27865 318.249 7.61719 318.249 8.00781C318.249 8.63932 318.018 9.14551 317.556 9.52637C317.097 9.90723 316.488 10.0977 315.729 10.0977C315.02 10.0977 314.439 9.91048 313.986 9.53613C313.537 9.16178 313.312 8.66699 313.312 8.05176H314.724C314.724 8.31868 314.823 8.53678 315.021 8.70605C315.223 8.87533 315.471 8.95996 315.764 8.95996C316.099 8.95996 316.361 8.87207 316.55 8.69629C316.742 8.51725 316.838 8.28125 316.838 7.98828C316.838 7.27865 316.447 6.92383 315.666 6.92383H314.919V5.82031Z" fill="#0F6C87"/>
<path d="M108.356 10H103.483V9.0332L105.783 6.58203C106.099 6.23698 106.332 5.93587 106.481 5.67871C106.634 5.42155 106.711 5.17741 106.711 4.94629C106.711 4.63053 106.631 4.38314 106.472 4.2041C106.312 4.02181 106.084 3.93066 105.788 3.93066C105.469 3.93066 105.217 4.04134 105.031 4.2627C104.849 4.48079 104.758 4.76888 104.758 5.12695H103.342C103.342 4.69401 103.444 4.2985 103.649 3.94043C103.858 3.58236 104.151 3.30241 104.528 3.10059C104.906 2.89551 105.334 2.79297 105.812 2.79297C106.545 2.79297 107.113 2.96875 107.517 3.32031C107.924 3.67188 108.127 4.16829 108.127 4.80957C108.127 5.16113 108.036 5.51921 107.854 5.88379C107.671 6.24837 107.359 6.67318 106.916 7.1582L105.3 8.8623H108.356V10Z" fill="#0F6C87"/>
<path d="M316 14H320L316 18V14Z" fill="#A0D9E2"/>
<path d="M316 14H312L316 18V14Z" fill="#A0D9E2"/>
<path d="M106 14H109.2L106 18V14Z" fill="#A0D9E2"/>
<path d="M106 14H102.8L106 18V14Z" fill="#A0D9E2"/>
</svg>
