<svg width="736" height="195" viewBox="0 0 736 195" fill="none" xmlns="http://www.w3.org/2000/svg">
<rect width="140" height="42" fill="#D63B21"/>
<rect x="149" width="140" height="42" fill="#D7353B"/>
<rect x="298" width="140" height="42" fill="#DB2B6C"/>
<rect x="447" width="140" height="42" fill="#CC2B8C"/>
<rect x="596" width="140" height="42" fill="#9A35AB"/>
<rect y="51" width="140" height="42" fill="#793CB4"/>
<rect y="102" width="140" height="42" fill="#108D7D"/>
<rect y="153" width="140" height="42" fill="#54CEF2"/>
<rect x="149" y="51" width="140" height="42" fill="#5946B9"/>
<rect x="149" y="102" width="140" height="42" fill="#258C59"/>
<rect x="149" y="153" width="140" height="42" fill="#5ED4B9"/>
<rect x="298" y="51" width="140" height="42" fill="#3352C5"/>
<rect x="298" y="102" width="140" height="42" fill="#358F46"/>
<rect x="298" y="153" width="140" height="42" fill="#88C222"/>
<rect x="447" y="51" width="140" height="42" fill="#0076EF"/>
<rect x="447" y="102" width="140" height="42" fill="#EA5400"/>
<rect x="447" y="153" width="140" height="42" fill="#F6C700"/>
<rect x="596" y="51" width="140" height="42" fill="#0C89AA"/>
<rect x="596" y="102" width="140" height="42" fill="#966B49"/>
<rect x="596" y="153" width="140" height="42" fill="#FF961A"/>
<path d="M49.9092 17.3389H45.9893V28H43.3525V17.3389H39.4854V15.2031H49.9092V17.3389ZM49.0303 23.1572C49.0303 22.2139 49.2119 21.373 49.5752 20.6348C49.9385 19.8965 50.46 19.3252 51.1396 18.9209C51.8252 18.5166 52.6191 18.3145 53.5215 18.3145C54.8047 18.3145 55.8506 18.707 56.6592 19.4922C57.4736 20.2773 57.9277 21.3438 58.0215 22.6914L58.0391 23.3418C58.0391 24.8008 57.6318 25.9727 56.8174 26.8574C56.0029 27.7363 54.9102 28.1758 53.5391 28.1758C52.168 28.1758 51.0723 27.7363 50.252 26.8574C49.4375 25.9785 49.0303 24.7832 49.0303 23.2715V23.1572ZM51.5703 23.3418C51.5703 24.2441 51.7402 24.9355 52.0801 25.416C52.4199 25.8906 52.9062 26.1279 53.5391 26.1279C54.1543 26.1279 54.6348 25.8936 54.9805 25.4248C55.3262 24.9502 55.499 24.1943 55.499 23.1572C55.499 22.2725 55.3262 21.5869 54.9805 21.1006C54.6348 20.6143 54.1484 20.3711 53.5215 20.3711C52.9004 20.3711 52.4199 20.6143 52.0801 21.1006C51.7402 21.5811 51.5703 22.3281 51.5703 23.3418ZM61.9854 18.4902L62.0645 19.5537C62.7383 18.7275 63.6494 18.3145 64.7979 18.3145C66.0225 18.3145 66.8633 18.7979 67.3203 19.7646C67.9883 18.7979 68.9404 18.3145 70.1768 18.3145C71.208 18.3145 71.9756 18.6162 72.4795 19.2197C72.9834 19.8174 73.2354 20.7197 73.2354 21.9268V28H70.6865V21.9355C70.6865 21.3965 70.5811 21.0039 70.3701 20.7578C70.1592 20.5059 69.7871 20.3799 69.2539 20.3799C68.4922 20.3799 67.9648 20.7432 67.6719 21.4697L67.6807 28H65.1406V21.9443C65.1406 21.3936 65.0322 20.9951 64.8154 20.749C64.5986 20.5029 64.2295 20.3799 63.708 20.3799C62.9873 20.3799 62.4658 20.6787 62.1436 21.2764V28H59.6035V18.4902H61.9854ZM80.7061 28C80.5889 27.7715 80.5039 27.4873 80.4512 27.1475C79.8359 27.833 79.0361 28.1758 78.0518 28.1758C77.1201 28.1758 76.3467 27.9062 75.7314 27.3672C75.1221 26.8281 74.8174 26.1484 74.8174 25.3281C74.8174 24.3203 75.1895 23.5469 75.9336 23.0078C76.6836 22.4688 77.7646 22.1963 79.1768 22.1904H80.3457V21.6455C80.3457 21.2061 80.2314 20.8545 80.0029 20.5908C79.7803 20.3271 79.4258 20.1953 78.9395 20.1953C78.5117 20.1953 78.1748 20.2979 77.9287 20.5029C77.6885 20.708 77.5684 20.9893 77.5684 21.3467H75.0283C75.0283 20.7959 75.1982 20.2861 75.5381 19.8174C75.8779 19.3486 76.3584 18.9824 76.9795 18.7188C77.6006 18.4492 78.2979 18.3145 79.0713 18.3145C80.2432 18.3145 81.1719 18.6104 81.8574 19.2021C82.5488 19.7881 82.8945 20.6143 82.8945 21.6807V25.8027C82.9004 26.7051 83.0264 27.3877 83.2725 27.8506V28H80.7061ZM78.6055 26.2334C78.9805 26.2334 79.3262 26.1514 79.6426 25.9873C79.959 25.8174 80.1934 25.5918 80.3457 25.3105V23.6758H79.3965C78.125 23.6758 77.4482 24.1152 77.3662 24.9941L77.3574 25.1436C77.3574 25.46 77.4688 25.7207 77.6914 25.9258C77.9141 26.1309 78.2188 26.2334 78.6055 26.2334ZM87.8867 16.1523V18.4902H89.5127V20.3535H87.8867V25.0996C87.8867 25.4512 87.9541 25.7031 88.0889 25.8555C88.2236 26.0078 88.4814 26.084 88.8623 26.084C89.1436 26.084 89.3926 26.0635 89.6094 26.0225V27.9473C89.1113 28.0996 88.5986 28.1758 88.0713 28.1758C86.29 28.1758 85.3818 27.2764 85.3467 25.4775V20.3535H83.958V18.4902H85.3467V16.1523H87.8867ZM90.2686 23.1572C90.2686 22.2139 90.4502 21.373 90.8135 20.6348C91.1768 19.8965 91.6982 19.3252 92.3779 18.9209C93.0635 18.5166 93.8574 18.3145 94.7598 18.3145C96.043 18.3145 97.0889 18.707 97.8975 19.4922C98.7119 20.2773 99.166 21.3438 99.2598 22.6914L99.2773 23.3418C99.2773 24.8008 98.8701 25.9727 98.0557 26.8574C97.2412 27.7363 96.1484 28.1758 94.7773 28.1758C93.4062 28.1758 92.3105 27.7363 91.4902 26.8574C90.6758 25.9785 90.2686 24.7832 90.2686 23.2715V23.1572ZM92.8086 23.3418C92.8086 24.2441 92.9785 24.9355 93.3184 25.416C93.6582 25.8906 94.1445 26.1279 94.7773 26.1279C95.3926 26.1279 95.873 25.8936 96.2188 25.4248C96.5645 24.9502 96.7373 24.1943 96.7373 23.1572C96.7373 22.2725 96.5645 21.5869 96.2188 21.1006C95.873 20.6143 95.3867 20.3711 94.7598 20.3711C94.1387 20.3711 93.6582 20.6143 93.3184 21.1006C92.9785 21.5811 92.8086 22.3281 92.8086 23.3418Z" fill="white"/>
<path d="M46.8154 74.4912V79H44.1787V66.2031H49.1709C50.1318 66.2031 50.9756 66.3789 51.7021 66.7305C52.4346 67.082 52.9971 67.583 53.3896 68.2334C53.7822 68.8779 53.9785 69.6133 53.9785 70.4395C53.9785 71.6934 53.5479 72.6836 52.6865 73.4102C51.8311 74.1309 50.6445 74.4912 49.127 74.4912H46.8154ZM46.8154 72.3555H49.1709C49.8682 72.3555 50.3984 72.1914 50.7617 71.8633C51.1309 71.5352 51.3154 71.0664 51.3154 70.457C51.3154 69.8301 51.1309 69.3232 50.7617 68.9365C50.3926 68.5498 49.8828 68.3506 49.2324 68.3389H46.8154V72.3555ZM61.3262 78.0332C60.6992 78.7949 59.832 79.1758 58.7246 79.1758C57.7051 79.1758 56.9258 78.8828 56.3867 78.2969C55.8535 77.7109 55.5811 76.8525 55.5693 75.7217V69.4902H58.1094V75.6338C58.1094 76.624 58.5605 77.1191 59.4629 77.1191C60.3242 77.1191 60.916 76.8203 61.2383 76.2227V69.4902H63.7871V79H61.3965L61.3262 78.0332ZM71.0469 71.8721C70.7012 71.8252 70.3965 71.8018 70.1328 71.8018C69.1719 71.8018 68.542 72.127 68.2432 72.7773V79H65.7031V69.4902H68.1025L68.1729 70.624C68.6826 69.751 69.3887 69.3145 70.291 69.3145C70.5723 69.3145 70.8359 69.3525 71.082 69.4287L71.0469 71.8721ZM80.8379 74.333C80.8379 75.7979 80.5039 76.9727 79.8359 77.8574C79.1738 78.7363 78.2773 79.1758 77.1465 79.1758C76.1855 79.1758 75.4092 78.8418 74.8174 78.1738V82.6562H72.2773V69.4902H74.6328L74.7207 70.4219C75.3359 69.6836 76.1387 69.3145 77.1289 69.3145C78.3008 69.3145 79.2119 69.748 79.8623 70.6152C80.5127 71.4824 80.8379 72.6777 80.8379 74.2012V74.333ZM78.2979 74.1484C78.2979 73.2637 78.1396 72.5811 77.8232 72.1006C77.5127 71.6201 77.0586 71.3799 76.4609 71.3799C75.6641 71.3799 75.1162 71.6846 74.8174 72.2939V76.1875C75.1279 76.8145 75.6816 77.1279 76.4785 77.1279C77.6914 77.1279 78.2979 76.1348 78.2979 74.1484ZM85.1006 79H82.5518V65.5H85.1006V79ZM91.5781 79.1758C90.1836 79.1758 89.0469 78.748 88.168 77.8926C87.2949 77.0371 86.8584 75.8975 86.8584 74.4736V74.2275C86.8584 73.2725 87.043 72.4199 87.4121 71.6699C87.7812 70.9141 88.3027 70.334 88.9766 69.9297C89.6562 69.5195 90.4297 69.3145 91.2969 69.3145C92.5977 69.3145 93.6201 69.7246 94.3643 70.5449C95.1143 71.3652 95.4893 72.5283 95.4893 74.0342V75.0713H89.4336C89.5156 75.6924 89.7617 76.1904 90.1719 76.5654C90.5879 76.9404 91.1123 77.1279 91.7451 77.1279C92.7236 77.1279 93.4883 76.7734 94.0391 76.0645L95.2871 77.4619C94.9062 78.001 94.3906 78.4229 93.7402 78.7275C93.0898 79.0264 92.3691 79.1758 91.5781 79.1758ZM91.2881 71.3711C90.7842 71.3711 90.374 71.541 90.0576 71.8809C89.7471 72.2207 89.5479 72.707 89.46 73.3398H92.9932V73.1377C92.9814 72.5752 92.8291 72.1416 92.5361 71.8369C92.2432 71.5264 91.8271 71.3711 91.2881 71.3711Z" fill="white"/>
<path d="M63.0137 119.339H59.0938V130H56.457V119.339H52.5898V117.203H63.0137V119.339ZM67.9443 130.176C66.5498 130.176 65.4131 129.748 64.5342 128.893C63.6611 128.037 63.2246 126.897 63.2246 125.474V125.228C63.2246 124.272 63.4092 123.42 63.7783 122.67C64.1475 121.914 64.6689 121.334 65.3428 120.93C66.0225 120.52 66.7959 120.314 67.6631 120.314C68.9639 120.314 69.9863 120.725 70.7305 121.545C71.4805 122.365 71.8555 123.528 71.8555 125.034V126.071H65.7998C65.8818 126.692 66.1279 127.19 66.5381 127.565C66.9541 127.94 67.4785 128.128 68.1113 128.128C69.0898 128.128 69.8545 127.773 70.4053 127.064L71.6533 128.462C71.2725 129.001 70.7568 129.423 70.1064 129.728C69.4561 130.026 68.7354 130.176 67.9443 130.176ZM67.6543 122.371C67.1504 122.371 66.7402 122.541 66.4238 122.881C66.1133 123.221 65.9141 123.707 65.8262 124.34H69.3594V124.138C69.3477 123.575 69.1953 123.142 68.9023 122.837C68.6094 122.526 68.1934 122.371 67.6543 122.371ZM78.8164 130C78.6992 129.771 78.6143 129.487 78.5615 129.147C77.9463 129.833 77.1465 130.176 76.1621 130.176C75.2305 130.176 74.457 129.906 73.8418 129.367C73.2324 128.828 72.9277 128.148 72.9277 127.328C72.9277 126.32 73.2998 125.547 74.0439 125.008C74.7939 124.469 75.875 124.196 77.2871 124.19H78.4561V123.646C78.4561 123.206 78.3418 122.854 78.1133 122.591C77.8906 122.327 77.5361 122.195 77.0498 122.195C76.6221 122.195 76.2852 122.298 76.0391 122.503C75.7988 122.708 75.6787 122.989 75.6787 123.347H73.1387C73.1387 122.796 73.3086 122.286 73.6484 121.817C73.9883 121.349 74.4688 120.982 75.0898 120.719C75.7109 120.449 76.4082 120.314 77.1816 120.314C78.3535 120.314 79.2822 120.61 79.9678 121.202C80.6592 121.788 81.0049 122.614 81.0049 123.681V127.803C81.0107 128.705 81.1367 129.388 81.3828 129.851V130H78.8164ZM76.7158 128.233C77.0908 128.233 77.4365 128.151 77.7529 127.987C78.0693 127.817 78.3037 127.592 78.4561 127.311V125.676H77.5068C76.2354 125.676 75.5586 126.115 75.4766 126.994L75.4678 127.144C75.4678 127.46 75.5791 127.721 75.8018 127.926C76.0244 128.131 76.3291 128.233 76.7158 128.233ZM85.6367 130H83.0879V116.5H85.6367V130Z" fill="white"/>
<path d="M61.916 176.643C61.916 176.145 61.7402 175.764 61.3887 175.5C61.0371 175.23 60.4043 174.949 59.4902 174.656C58.5762 174.357 57.8525 174.064 57.3193 173.777C55.8662 172.992 55.1396 171.935 55.1396 170.604C55.1396 169.913 55.333 169.298 55.7197 168.759C56.1123 168.214 56.6719 167.789 57.3984 167.484C58.1309 167.18 58.9512 167.027 59.8594 167.027C60.7734 167.027 61.5879 167.194 62.3027 167.528C63.0176 167.856 63.5713 168.322 63.9639 168.926C64.3623 169.529 64.5615 170.215 64.5615 170.982H61.9248C61.9248 170.396 61.7402 169.942 61.3711 169.62C61.002 169.292 60.4834 169.128 59.8154 169.128C59.1709 169.128 58.6699 169.266 58.3125 169.541C57.9551 169.811 57.7764 170.168 57.7764 170.613C57.7764 171.029 57.9844 171.378 58.4004 171.659C58.8223 171.94 59.4404 172.204 60.2549 172.45C61.7549 172.901 62.8477 173.461 63.5332 174.129C64.2188 174.797 64.5615 175.629 64.5615 176.625C64.5615 177.732 64.1426 178.603 63.3047 179.235C62.4668 179.862 61.3389 180.176 59.9209 180.176C58.9365 180.176 58.04 179.997 57.2314 179.64C56.4229 179.276 55.8047 178.781 55.377 178.154C54.9551 177.527 54.7441 176.801 54.7441 175.975H57.3896C57.3896 177.387 58.2334 178.093 59.9209 178.093C60.5479 178.093 61.0371 177.967 61.3887 177.715C61.7402 177.457 61.916 177.1 61.916 176.643ZM69.6416 176.186L68.7275 177.1V180H66.1875V166.5H68.7275V173.979L69.2197 173.347L71.6543 170.49H74.7041L71.2676 174.454L75.0029 180H72.085L69.6416 176.186ZM79.3535 176.405L81.1113 170.49H83.8359L80.0127 181.477L79.8018 181.978C79.2334 183.22 78.2959 183.841 76.9893 183.841C76.6201 183.841 76.2451 183.785 75.8643 183.674V181.749L76.251 181.758C76.7314 181.758 77.0889 181.685 77.3232 181.538C77.5635 181.392 77.751 181.148 77.8857 180.809L78.1846 180.026L74.8535 170.49H77.5869L79.3535 176.405Z" fill="black"/>
<path d="M208.191 23.3154H206.091V28H203.454V15.2031H208.209C209.721 15.2031 210.887 15.54 211.707 16.2139C212.527 16.8877 212.938 17.8398 212.938 19.0703C212.938 19.9434 212.747 20.6729 212.366 21.2588C211.991 21.8389 211.42 22.3018 210.652 22.6475L213.421 27.877V28H210.591L208.191 23.3154ZM206.091 21.1797H208.218C208.88 21.1797 209.393 21.0127 209.756 20.6787C210.119 20.3389 210.301 19.873 210.301 19.2812C210.301 18.6777 210.128 18.2031 209.782 17.8574C209.442 17.5117 208.918 17.3389 208.209 17.3389H206.091V21.1797ZM219.16 28.1758C217.766 28.1758 216.629 27.748 215.75 26.8926C214.877 26.0371 214.44 24.8975 214.44 23.4736V23.2275C214.44 22.2725 214.625 21.4199 214.994 20.6699C215.363 19.9141 215.885 19.334 216.559 18.9297C217.238 18.5195 218.012 18.3145 218.879 18.3145C220.18 18.3145 221.202 18.7246 221.946 19.5449C222.696 20.3652 223.071 21.5283 223.071 23.0342V24.0713H217.016C217.098 24.6924 217.344 25.1904 217.754 25.5654C218.17 25.9404 218.694 26.1279 219.327 26.1279C220.306 26.1279 221.07 25.7734 221.621 25.0645L222.869 26.4619C222.488 27.001 221.973 27.4229 221.322 27.7275C220.672 28.0264 219.951 28.1758 219.16 28.1758ZM218.87 20.3711C218.366 20.3711 217.956 20.541 217.64 20.8809C217.329 21.2207 217.13 21.707 217.042 22.3398H220.575V22.1377C220.563 21.5752 220.411 21.1416 220.118 20.8369C219.825 20.5264 219.409 20.3711 218.87 20.3711ZM224.126 23.1748C224.126 21.6924 224.457 20.5117 225.119 19.6328C225.787 18.7539 226.698 18.3145 227.853 18.3145C228.778 18.3145 229.543 18.6602 230.146 19.3516V14.5H232.695V28H230.401L230.278 26.9893C229.646 27.7803 228.831 28.1758 227.835 28.1758C226.716 28.1758 225.816 27.7363 225.137 26.8574C224.463 25.9727 224.126 24.7451 224.126 23.1748ZM226.666 23.3594C226.666 24.25 226.821 24.9326 227.132 25.4072C227.442 25.8818 227.894 26.1191 228.485 26.1191C229.271 26.1191 229.824 25.7881 230.146 25.126V21.373C229.83 20.7109 229.282 20.3799 228.503 20.3799C227.278 20.3799 226.666 21.373 226.666 23.3594Z" fill="white"/>
<path d="M200.202 75.8271L203.103 66.2031H206.038L201.582 79H198.831L194.393 66.2031H197.319L200.202 75.8271ZM209.765 79H207.216V69.4902H209.765V79ZM207.066 67.0293C207.066 66.6484 207.192 66.335 207.444 66.0889C207.702 65.8428 208.051 65.7197 208.49 65.7197C208.924 65.7197 209.27 65.8428 209.527 66.0889C209.785 66.335 209.914 66.6484 209.914 67.0293C209.914 67.416 209.782 67.7324 209.519 67.9785C209.261 68.2246 208.918 68.3477 208.49 68.3477C208.062 68.3477 207.717 68.2246 207.453 67.9785C207.195 67.7324 207.066 67.416 207.066 67.0293ZM211.47 74.1572C211.47 73.2139 211.651 72.373 212.015 71.6348C212.378 70.8965 212.899 70.3252 213.579 69.9209C214.265 69.5166 215.059 69.3145 215.961 69.3145C217.244 69.3145 218.29 69.707 219.099 70.4922C219.913 71.2773 220.367 72.3438 220.461 73.6914L220.479 74.3418C220.479 75.8008 220.071 76.9727 219.257 77.8574C218.442 78.7363 217.35 79.1758 215.979 79.1758C214.607 79.1758 213.512 78.7363 212.691 77.8574C211.877 76.9785 211.47 75.7832 211.47 74.2715V74.1572ZM214.01 74.3418C214.01 75.2441 214.18 75.9355 214.52 76.416C214.859 76.8906 215.346 77.1279 215.979 77.1279C216.594 77.1279 217.074 76.8936 217.42 76.4248C217.766 75.9502 217.938 75.1943 217.938 74.1572C217.938 73.2725 217.766 72.5869 217.42 72.1006C217.074 71.6143 216.588 71.3711 215.961 71.3711C215.34 71.3711 214.859 71.6143 214.52 72.1006C214.18 72.5811 214.01 73.3281 214.01 74.3418ZM224.724 79H222.175V65.5H224.724V79ZM231.201 79.1758C229.807 79.1758 228.67 78.748 227.791 77.8926C226.918 77.0371 226.481 75.8975 226.481 74.4736V74.2275C226.481 73.2725 226.666 72.4199 227.035 71.6699C227.404 70.9141 227.926 70.334 228.6 69.9297C229.279 69.5195 230.053 69.3145 230.92 69.3145C232.221 69.3145 233.243 69.7246 233.987 70.5449C234.737 71.3652 235.112 72.5283 235.112 74.0342V75.0713H229.057C229.139 75.6924 229.385 76.1904 229.795 76.5654C230.211 76.9404 230.735 77.1279 231.368 77.1279C232.347 77.1279 233.111 76.7734 233.662 76.0645L234.91 77.4619C234.529 78.001 234.014 78.4229 233.363 78.7275C232.713 79.0264 231.992 79.1758 231.201 79.1758ZM230.911 71.3711C230.407 71.3711 229.997 71.541 229.681 71.8809C229.37 72.2207 229.171 72.707 229.083 73.3398H232.616V73.1377C232.604 72.5752 232.452 72.1416 232.159 71.8369C231.866 71.5264 231.45 71.3711 230.911 71.3711ZM239.604 67.1523V69.4902H241.229V71.3535H239.604V76.0996C239.604 76.4512 239.671 76.7031 239.806 76.8555C239.94 77.0078 240.198 77.084 240.579 77.084C240.86 77.084 241.109 77.0635 241.326 77.0225V78.9473C240.828 79.0996 240.315 79.1758 239.788 79.1758C238.007 79.1758 237.099 78.2764 237.063 76.4775V71.3535H235.675V69.4902H237.063V67.1523H239.604Z" fill="white"/>
<path d="M205.65 128.383C205.176 128.951 204.505 129.394 203.638 129.71C202.771 130.021 201.81 130.176 200.755 130.176C199.647 130.176 198.675 129.936 197.837 129.455C197.005 128.969 196.36 128.266 195.903 127.346C195.452 126.426 195.221 125.345 195.209 124.103V123.232C195.209 121.955 195.423 120.851 195.851 119.919C196.284 118.981 196.905 118.267 197.714 117.774C198.528 117.276 199.48 117.027 200.57 117.027C202.088 117.027 203.274 117.391 204.13 118.117C204.985 118.838 205.492 119.89 205.65 121.272H203.084C202.967 120.54 202.706 120.004 202.302 119.664C201.903 119.324 201.353 119.154 200.649 119.154C199.753 119.154 199.07 119.491 198.602 120.165C198.133 120.839 197.896 121.841 197.89 123.171V123.988C197.89 125.33 198.145 126.344 198.654 127.029C199.164 127.715 199.911 128.058 200.896 128.058C201.886 128.058 202.592 127.847 203.014 127.425V125.219H200.614V123.276H205.65V128.383ZM212.972 122.872C212.626 122.825 212.321 122.802 212.058 122.802C211.097 122.802 210.467 123.127 210.168 123.777V130H207.628V120.49H210.027L210.098 121.624C210.607 120.751 211.313 120.314 212.216 120.314C212.497 120.314 212.761 120.353 213.007 120.429L212.972 122.872ZM218.403 130.176C217.009 130.176 215.872 129.748 214.993 128.893C214.12 128.037 213.684 126.897 213.684 125.474V125.228C213.684 124.272 213.868 123.42 214.237 122.67C214.606 121.914 215.128 121.334 215.802 120.93C216.481 120.52 217.255 120.314 218.122 120.314C219.423 120.314 220.445 120.725 221.189 121.545C221.939 122.365 222.314 123.528 222.314 125.034V126.071H216.259C216.341 126.692 216.587 127.19 216.997 127.565C217.413 127.94 217.938 128.128 218.57 128.128C219.549 128.128 220.313 127.773 220.864 127.064L222.112 128.462C221.731 129.001 221.216 129.423 220.565 129.728C219.915 130.026 219.194 130.176 218.403 130.176ZM218.113 122.371C217.609 122.371 217.199 122.541 216.883 122.881C216.572 123.221 216.373 123.707 216.285 124.34H219.818V124.138C219.807 123.575 219.654 123.142 219.361 122.837C219.068 122.526 218.652 122.371 218.113 122.371ZM228.142 130.176C226.747 130.176 225.61 129.748 224.731 128.893C223.858 128.037 223.422 126.897 223.422 125.474V125.228C223.422 124.272 223.606 123.42 223.976 122.67C224.345 121.914 224.866 121.334 225.54 120.93C226.22 120.52 226.993 120.314 227.86 120.314C229.161 120.314 230.184 120.725 230.928 121.545C231.678 122.365 232.053 123.528 232.053 125.034V126.071H225.997C226.079 126.692 226.325 127.19 226.735 127.565C227.151 127.94 227.676 128.128 228.309 128.128C229.287 128.128 230.052 127.773 230.603 127.064L231.851 128.462C231.47 129.001 230.954 129.423 230.304 129.728C229.653 130.026 228.933 130.176 228.142 130.176ZM227.852 122.371C227.348 122.371 226.938 122.541 226.621 122.881C226.311 123.221 226.111 123.707 226.023 124.34H229.557V124.138C229.545 123.575 229.393 123.142 229.1 122.837C228.807 122.526 228.391 122.371 227.852 122.371ZM235.841 120.49L235.92 121.589C236.6 120.739 237.511 120.314 238.653 120.314C239.661 120.314 240.411 120.61 240.903 121.202C241.396 121.794 241.647 122.679 241.659 123.856V130H239.119V123.918C239.119 123.379 239.002 122.989 238.768 122.749C238.533 122.503 238.144 122.38 237.599 122.38C236.884 122.38 236.348 122.685 235.99 123.294V130H233.45V120.49H235.841Z" fill="white"/>
<path d="M204.728 167.203L208.015 176.484L211.284 167.203H214.747V180H212.102V176.502L212.365 170.464L208.911 180H207.101L203.655 170.473L203.919 176.502V180H201.282V167.203H204.728ZM219.563 180H217.015V170.49H219.563V180ZM216.865 168.029C216.865 167.648 216.991 167.335 217.243 167.089C217.501 166.843 217.85 166.72 218.289 166.72C218.723 166.72 219.068 166.843 219.326 167.089C219.584 167.335 219.713 167.648 219.713 168.029C219.713 168.416 219.581 168.732 219.317 168.979C219.06 169.225 218.717 169.348 218.289 169.348C217.861 169.348 217.516 169.225 217.252 168.979C216.994 168.732 216.865 168.416 216.865 168.029ZM224.002 170.49L224.081 171.589C224.761 170.739 225.672 170.314 226.814 170.314C227.822 170.314 228.572 170.61 229.064 171.202C229.557 171.794 229.809 172.679 229.82 173.856V180H227.28V173.918C227.28 173.379 227.163 172.989 226.929 172.749C226.694 172.503 226.305 172.38 225.76 172.38C225.045 172.38 224.509 172.685 224.151 173.294V180H221.611V170.49H224.002ZM234.795 168.152V170.49H236.421V172.354H234.795V177.1C234.795 177.451 234.862 177.703 234.997 177.855C235.132 178.008 235.39 178.084 235.771 178.084C236.052 178.084 236.301 178.063 236.518 178.022V179.947C236.02 180.1 235.507 180.176 234.979 180.176C233.198 180.176 232.29 179.276 232.255 177.478V172.354H230.866V170.49H232.255V168.152H234.795Z" fill="black"/>
<path d="M346.561 23.7373C346.461 25.1143 345.951 26.1982 345.031 26.9893C344.117 27.7803 342.91 28.1758 341.41 28.1758C339.77 28.1758 338.478 27.625 337.534 26.5234C336.597 25.416 336.128 23.8984 336.128 21.9707V21.1885C336.128 19.958 336.345 18.874 336.778 17.9365C337.212 16.999 337.83 16.2812 338.633 15.7832C339.441 15.2793 340.379 15.0273 341.445 15.0273C342.922 15.0273 344.111 15.4229 345.014 16.2139C345.916 17.0049 346.438 18.1152 346.578 19.5449H343.941C343.877 18.7188 343.646 18.1211 343.247 17.752C342.854 17.377 342.254 17.1895 341.445 17.1895C340.566 17.1895 339.907 17.5059 339.468 18.1387C339.034 18.7656 338.812 19.7412 338.8 21.0654V22.0322C338.8 23.415 339.008 24.4258 339.424 25.0645C339.846 25.7031 340.508 26.0225 341.41 26.0225C342.225 26.0225 342.831 25.8379 343.229 25.4688C343.634 25.0938 343.865 24.5166 343.924 23.7373H346.561ZM353.469 20.8721C353.123 20.8252 352.818 20.8018 352.555 20.8018C351.594 20.8018 350.964 21.127 350.665 21.7773V28H348.125V18.4902H350.524L350.595 19.624C351.104 18.751 351.811 18.3145 352.713 18.3145C352.994 18.3145 353.258 18.3525 353.504 18.4287L353.469 20.8721ZM357.38 28H354.831V18.4902H357.38V28ZM354.682 16.0293C354.682 15.6484 354.808 15.335 355.06 15.0889C355.317 14.8428 355.666 14.7197 356.105 14.7197C356.539 14.7197 356.885 14.8428 357.143 15.0889C357.4 15.335 357.529 15.6484 357.529 16.0293C357.529 16.416 357.397 16.7324 357.134 16.9785C356.876 17.2246 356.533 17.3477 356.105 17.3477C355.678 17.3477 355.332 17.2246 355.068 16.9785C354.811 16.7324 354.682 16.416 354.682 16.0293ZM361.862 18.4902L361.941 19.5537C362.615 18.7275 363.526 18.3145 364.675 18.3145C365.899 18.3145 366.74 18.7979 367.197 19.7646C367.865 18.7979 368.817 18.3145 370.054 18.3145C371.085 18.3145 371.853 18.6162 372.356 19.2197C372.86 19.8174 373.112 20.7197 373.112 21.9268V28H370.563V21.9355C370.563 21.3965 370.458 21.0039 370.247 20.7578C370.036 20.5059 369.664 20.3799 369.131 20.3799C368.369 20.3799 367.842 20.7432 367.549 21.4697L367.558 28H365.018V21.9443C365.018 21.3936 364.909 20.9951 364.692 20.749C364.476 20.5029 364.106 20.3799 363.585 20.3799C362.864 20.3799 362.343 20.6787 362.021 21.2764V28H359.48V18.4902H361.862ZM380.223 25.3721C380.223 25.0615 380.067 24.8184 379.757 24.6426C379.452 24.4609 378.96 24.2998 378.28 24.1592C376.019 23.6846 374.888 22.7236 374.888 21.2764C374.888 20.4326 375.236 19.7295 375.934 19.167C376.637 18.5986 377.554 18.3145 378.685 18.3145C379.892 18.3145 380.855 18.5986 381.576 19.167C382.303 19.7354 382.666 20.4736 382.666 21.3818H380.126C380.126 21.0186 380.009 20.7197 379.774 20.4854C379.54 20.2451 379.174 20.125 378.676 20.125C378.248 20.125 377.917 20.2217 377.683 20.415C377.448 20.6084 377.331 20.8545 377.331 21.1533C377.331 21.4346 377.463 21.6631 377.727 21.8389C377.996 22.0088 378.447 22.1582 379.08 22.2871C379.713 22.4102 380.246 22.5508 380.68 22.709C382.021 23.2012 382.692 24.0537 382.692 25.2666C382.692 26.1338 382.32 26.8369 381.576 27.376C380.832 27.9092 379.871 28.1758 378.693 28.1758C377.896 28.1758 377.188 28.0352 376.566 27.7539C375.951 27.4668 375.468 27.0771 375.116 26.585C374.765 26.0869 374.589 25.5508 374.589 24.9766H376.997C377.021 25.4277 377.188 25.7734 377.498 26.0137C377.809 26.2539 378.225 26.374 378.746 26.374C379.232 26.374 379.599 26.2832 379.845 26.1016C380.097 25.9141 380.223 25.6709 380.223 25.3721ZM383.94 23.1572C383.94 22.2139 384.122 21.373 384.485 20.6348C384.849 19.8965 385.37 19.3252 386.05 18.9209C386.735 18.5166 387.529 18.3145 388.432 18.3145C389.715 18.3145 390.761 18.707 391.569 19.4922C392.384 20.2773 392.838 21.3438 392.932 22.6914L392.949 23.3418C392.949 24.8008 392.542 25.9727 391.728 26.8574C390.913 27.7363 389.82 28.1758 388.449 28.1758C387.078 28.1758 385.982 27.7363 385.162 26.8574C384.348 25.9785 383.94 24.7832 383.94 23.2715V23.1572ZM386.48 23.3418C386.48 24.2441 386.65 24.9355 386.99 25.416C387.33 25.8906 387.816 26.1279 388.449 26.1279C389.064 26.1279 389.545 25.8936 389.891 25.4248C390.236 24.9502 390.409 24.1943 390.409 23.1572C390.409 22.2725 390.236 21.5869 389.891 21.1006C389.545 20.6143 389.059 20.3711 388.432 20.3711C387.811 20.3711 387.33 20.6143 386.99 21.1006C386.65 21.5811 386.48 22.3281 386.48 23.3418ZM396.852 18.4902L396.931 19.5889C397.61 18.7393 398.521 18.3145 399.664 18.3145C400.672 18.3145 401.422 18.6104 401.914 19.2021C402.406 19.7939 402.658 20.6787 402.67 21.8564V28H400.13V21.918C400.13 21.3789 400.013 20.9893 399.778 20.749C399.544 20.5029 399.154 20.3799 398.609 20.3799C397.895 20.3799 397.358 20.6846 397.001 21.2939V28H394.461V18.4902H396.852Z" fill="white"/>
<path d="M348.081 79H345.444V66.2031H348.081V79ZM352.704 69.4902L352.783 70.5889C353.463 69.7393 354.374 69.3145 355.517 69.3145C356.524 69.3145 357.274 69.6104 357.767 70.2021C358.259 70.7939 358.511 71.6787 358.522 72.8564V79H355.982V72.918C355.982 72.3789 355.865 71.9893 355.631 71.749C355.396 71.5029 355.007 71.3799 354.462 71.3799C353.747 71.3799 353.211 71.6846 352.854 72.2939V79H350.313V69.4902H352.704ZM360.061 74.1748C360.061 72.6924 360.392 71.5117 361.054 70.6328C361.722 69.7539 362.633 69.3145 363.787 69.3145C364.713 69.3145 365.478 69.6602 366.081 70.3516V65.5H368.63V79H366.336L366.213 77.9893C365.58 78.7803 364.766 79.1758 363.77 79.1758C362.65 79.1758 361.751 78.7363 361.071 77.8574C360.397 76.9727 360.061 75.7451 360.061 74.1748ZM362.601 74.3594C362.601 75.25 362.756 75.9326 363.066 76.4072C363.377 76.8818 363.828 77.1191 364.42 77.1191C365.205 77.1191 365.759 76.7881 366.081 76.126V72.373C365.765 71.7109 365.217 71.3799 364.438 71.3799C363.213 71.3799 362.601 72.373 362.601 74.3594ZM373.279 79H370.73V69.4902H373.279V79ZM370.581 67.0293C370.581 66.6484 370.707 66.335 370.959 66.0889C371.217 65.8428 371.565 65.7197 372.005 65.7197C372.438 65.7197 372.784 65.8428 373.042 66.0889C373.3 66.335 373.429 66.6484 373.429 67.0293C373.429 67.416 373.297 67.7324 373.033 67.9785C372.775 68.2246 372.433 68.3477 372.005 68.3477C371.577 68.3477 371.231 68.2246 370.968 67.9785C370.71 67.7324 370.581 67.416 370.581 67.0293ZM375.011 74.1748C375.011 72.7158 375.356 71.541 376.048 70.6504C376.745 69.7598 377.683 69.3145 378.86 69.3145C379.903 69.3145 380.715 69.6719 381.295 70.3867L381.4 69.4902H383.703V78.6836C383.703 79.5156 383.513 80.2393 383.132 80.8545C382.757 81.4697 382.227 81.9385 381.541 82.2607C380.855 82.583 380.053 82.7441 379.133 82.7441C378.436 82.7441 377.756 82.6035 377.094 82.3223C376.432 82.0469 375.931 81.6895 375.591 81.25L376.716 79.7031C377.349 80.4121 378.116 80.7666 379.019 80.7666C379.692 80.7666 380.217 80.585 380.592 80.2217C380.967 79.8643 381.154 79.3545 381.154 78.6924V78.1826C380.568 78.8447 379.798 79.1758 378.843 79.1758C377.7 79.1758 376.774 78.7305 376.065 77.8398C375.362 76.9434 375.011 75.7568 375.011 74.2803V74.1748ZM377.551 74.3594C377.551 75.2207 377.724 75.8975 378.069 76.3896C378.415 76.876 378.89 77.1191 379.493 77.1191C380.267 77.1191 380.82 76.8291 381.154 76.249V72.25C380.814 71.6699 380.267 71.3799 379.511 71.3799C378.901 71.3799 378.421 71.6289 378.069 72.127C377.724 72.625 377.551 73.3691 377.551 74.3594ZM385.268 74.1572C385.268 73.2139 385.449 72.373 385.812 71.6348C386.176 70.8965 386.697 70.3252 387.377 69.9209C388.062 69.5166 388.856 69.3145 389.759 69.3145C391.042 69.3145 392.088 69.707 392.896 70.4922C393.711 71.2773 394.165 72.3438 394.259 73.6914L394.276 74.3418C394.276 75.8008 393.869 76.9727 393.055 77.8574C392.24 78.7363 391.147 79.1758 389.776 79.1758C388.405 79.1758 387.31 78.7363 386.489 77.8574C385.675 76.9785 385.268 75.7832 385.268 74.2715V74.1572ZM387.808 74.3418C387.808 75.2441 387.978 75.9355 388.317 76.416C388.657 76.8906 389.144 77.1279 389.776 77.1279C390.392 77.1279 390.872 76.8936 391.218 76.4248C391.563 75.9502 391.736 75.1943 391.736 74.1572C391.736 73.2725 391.563 72.5869 391.218 72.1006C390.872 71.6143 390.386 71.3711 389.759 71.3711C389.138 71.3711 388.657 71.6143 388.317 72.1006C387.978 72.5811 387.808 73.3281 387.808 74.3418Z" fill="white"/>
<path d="M357.389 128.383C356.914 128.951 356.243 129.394 355.376 129.71C354.509 130.021 353.548 130.176 352.493 130.176C351.386 130.176 350.413 129.936 349.575 129.455C348.743 128.969 348.099 128.266 347.642 127.346C347.19 126.426 346.959 125.345 346.947 124.103V123.232C346.947 121.955 347.161 120.851 347.589 119.919C348.022 118.981 348.644 118.267 349.452 117.774C350.267 117.276 351.219 117.027 352.309 117.027C353.826 117.027 355.013 117.391 355.868 118.117C356.724 118.838 357.23 119.89 357.389 121.272H354.822C354.705 120.54 354.444 120.004 354.04 119.664C353.642 119.324 353.091 119.154 352.388 119.154C351.491 119.154 350.809 119.491 350.34 120.165C349.871 120.839 349.634 121.841 349.628 123.171V123.988C349.628 125.33 349.883 126.344 350.393 127.029C350.902 127.715 351.649 128.058 352.634 128.058C353.624 128.058 354.33 127.847 354.752 127.425V125.219H352.353V123.276H357.389V128.383ZM364.71 122.872C364.364 122.825 364.06 122.802 363.796 122.802C362.835 122.802 362.205 123.127 361.906 123.777V130H359.366V120.49H361.766L361.836 121.624C362.346 120.751 363.052 120.314 363.954 120.314C364.235 120.314 364.499 120.353 364.745 120.429L364.71 122.872ZM371.188 130C371.07 129.771 370.985 129.487 370.933 129.147C370.317 129.833 369.518 130.176 368.533 130.176C367.602 130.176 366.828 129.906 366.213 129.367C365.604 128.828 365.299 128.148 365.299 127.328C365.299 126.32 365.671 125.547 366.415 125.008C367.165 124.469 368.246 124.196 369.658 124.19H370.827V123.646C370.827 123.206 370.713 122.854 370.484 122.591C370.262 122.327 369.907 122.195 369.421 122.195C368.993 122.195 368.656 122.298 368.41 122.503C368.17 122.708 368.05 122.989 368.05 123.347H365.51C365.51 122.796 365.68 122.286 366.02 121.817C366.359 121.349 366.84 120.982 367.461 120.719C368.082 120.449 368.779 120.314 369.553 120.314C370.725 120.314 371.653 120.61 372.339 121.202C373.03 121.788 373.376 122.614 373.376 123.681V127.803C373.382 128.705 373.508 129.388 373.754 129.851V130H371.188ZM369.087 128.233C369.462 128.233 369.808 128.151 370.124 127.987C370.44 127.817 370.675 127.592 370.827 127.311V125.676H369.878C368.606 125.676 367.93 126.115 367.848 126.994L367.839 127.144C367.839 127.46 367.95 127.721 368.173 127.926C368.396 128.131 368.7 128.233 369.087 128.233ZM380.478 127.372C380.478 127.062 380.322 126.818 380.012 126.643C379.707 126.461 379.215 126.3 378.535 126.159C376.273 125.685 375.143 124.724 375.143 123.276C375.143 122.433 375.491 121.729 376.188 121.167C376.892 120.599 377.809 120.314 378.939 120.314C380.146 120.314 381.11 120.599 381.831 121.167C382.558 121.735 382.921 122.474 382.921 123.382H380.381C380.381 123.019 380.264 122.72 380.029 122.485C379.795 122.245 379.429 122.125 378.931 122.125C378.503 122.125 378.172 122.222 377.938 122.415C377.703 122.608 377.586 122.854 377.586 123.153C377.586 123.435 377.718 123.663 377.981 123.839C378.251 124.009 378.702 124.158 379.335 124.287C379.968 124.41 380.501 124.551 380.935 124.709C382.276 125.201 382.947 126.054 382.947 127.267C382.947 128.134 382.575 128.837 381.831 129.376C381.087 129.909 380.126 130.176 378.948 130.176C378.151 130.176 377.442 130.035 376.821 129.754C376.206 129.467 375.723 129.077 375.371 128.585C375.02 128.087 374.844 127.551 374.844 126.977H377.252C377.275 127.428 377.442 127.773 377.753 128.014C378.063 128.254 378.479 128.374 379.001 128.374C379.487 128.374 379.854 128.283 380.1 128.102C380.352 127.914 380.478 127.671 380.478 127.372ZM389.741 127.372C389.741 127.062 389.586 126.818 389.275 126.643C388.971 126.461 388.479 126.3 387.799 126.159C385.537 125.685 384.406 124.724 384.406 123.276C384.406 122.433 384.755 121.729 385.452 121.167C386.155 120.599 387.072 120.314 388.203 120.314C389.41 120.314 390.374 120.599 391.095 121.167C391.821 121.735 392.185 122.474 392.185 123.382H389.645C389.645 123.019 389.527 122.72 389.293 122.485C389.059 122.245 388.692 122.125 388.194 122.125C387.767 122.125 387.436 122.222 387.201 122.415C386.967 122.608 386.85 122.854 386.85 123.153C386.85 123.435 386.981 123.663 387.245 123.839C387.515 124.009 387.966 124.158 388.599 124.287C389.231 124.41 389.765 124.551 390.198 124.709C391.54 125.201 392.211 126.054 392.211 127.267C392.211 128.134 391.839 128.837 391.095 129.376C390.351 129.909 389.39 130.176 388.212 130.176C387.415 130.176 386.706 130.035 386.085 129.754C385.47 129.467 384.986 129.077 384.635 128.585C384.283 128.087 384.107 127.551 384.107 126.977H386.516C386.539 127.428 386.706 127.773 387.017 128.014C387.327 128.254 387.743 128.374 388.265 128.374C388.751 128.374 389.117 128.283 389.363 128.102C389.615 127.914 389.741 127.671 389.741 127.372Z" fill="white"/>
<path d="M352.846 177.882H358.444V180H350.209V167.203H352.846V177.882ZM362.479 180H359.93V170.49H362.479V180ZM359.78 168.029C359.78 167.648 359.906 167.335 360.158 167.089C360.416 166.843 360.765 166.72 361.204 166.72C361.638 166.72 361.983 166.843 362.241 167.089C362.499 167.335 362.628 167.648 362.628 168.029C362.628 168.416 362.496 168.732 362.232 168.979C361.975 169.225 361.632 169.348 361.204 169.348C360.776 169.348 360.431 169.225 360.167 168.979C359.909 168.732 359.78 168.416 359.78 168.029ZM366.961 170.49L367.04 171.554C367.714 170.728 368.625 170.314 369.773 170.314C370.998 170.314 371.839 170.798 372.296 171.765C372.964 170.798 373.916 170.314 375.152 170.314C376.184 170.314 376.951 170.616 377.455 171.22C377.959 171.817 378.211 172.72 378.211 173.927V180H375.662V173.936C375.662 173.396 375.557 173.004 375.346 172.758C375.135 172.506 374.763 172.38 374.229 172.38C373.468 172.38 372.94 172.743 372.647 173.47L372.656 180H370.116V173.944C370.116 173.394 370.008 172.995 369.791 172.749C369.574 172.503 369.205 172.38 368.684 172.38C367.963 172.38 367.441 172.679 367.119 173.276V180H364.579V170.49H366.961ZM384.548 180.176C383.153 180.176 382.017 179.748 381.138 178.893C380.265 178.037 379.828 176.897 379.828 175.474V175.228C379.828 174.272 380.013 173.42 380.382 172.67C380.751 171.914 381.272 171.334 381.946 170.93C382.626 170.52 383.399 170.314 384.267 170.314C385.567 170.314 386.59 170.725 387.334 171.545C388.084 172.365 388.459 173.528 388.459 175.034V176.071H382.403C382.485 176.692 382.731 177.19 383.142 177.565C383.558 177.94 384.082 178.128 384.715 178.128C385.693 178.128 386.458 177.773 387.009 177.064L388.257 178.462C387.876 179.001 387.36 179.423 386.71 179.728C386.06 180.026 385.339 180.176 384.548 180.176ZM384.258 172.371C383.754 172.371 383.344 172.541 383.027 172.881C382.717 173.221 382.518 173.707 382.43 174.34H385.963V174.138C385.951 173.575 385.799 173.142 385.506 172.837C385.213 172.526 384.797 172.371 384.258 172.371Z" fill="black"/>
<path d="M502.227 23.4912V28H499.59V15.2031H504.582C505.543 15.2031 506.387 15.3789 507.113 15.7305C507.846 16.082 508.408 16.583 508.801 17.2334C509.193 17.8779 509.39 18.6133 509.39 19.4395C509.39 20.6934 508.959 21.6836 508.098 22.4102C507.242 23.1309 506.056 23.4912 504.538 23.4912H502.227ZM502.227 21.3555H504.582C505.279 21.3555 505.81 21.1914 506.173 20.8633C506.542 20.5352 506.727 20.0664 506.727 19.457C506.727 18.8301 506.542 18.3232 506.173 17.9365C505.804 17.5498 505.294 17.3506 504.644 17.3389H502.227V21.3555ZM513.723 28H511.174V18.4902H513.723V28ZM511.024 16.0293C511.024 15.6484 511.15 15.335 511.402 15.0889C511.66 14.8428 512.009 14.7197 512.448 14.7197C512.882 14.7197 513.228 14.8428 513.485 15.0889C513.743 15.335 513.872 15.6484 513.872 16.0293C513.872 16.416 513.74 16.7324 513.477 16.9785C513.219 17.2246 512.876 17.3477 512.448 17.3477C512.021 17.3477 511.675 17.2246 511.411 16.9785C511.153 16.7324 511.024 16.416 511.024 16.0293ZM518.161 18.4902L518.24 19.5889C518.92 18.7393 519.831 18.3145 520.974 18.3145C521.981 18.3145 522.731 18.6104 523.224 19.2021C523.716 19.7939 523.968 20.6787 523.979 21.8564V28H521.439V21.918C521.439 21.3789 521.322 20.9893 521.088 20.749C520.854 20.5029 520.464 20.3799 519.919 20.3799C519.204 20.3799 518.668 20.6846 518.311 21.2939V28H515.771V18.4902H518.161ZM529.367 24.1855L528.453 25.0996V28H525.913V14.5H528.453V21.9795L528.945 21.3467L531.38 18.4902H534.43L530.993 22.4541L534.729 28H531.811L529.367 24.1855Z" fill="white"/>
<path d="M499.599 79V66.2031H504.081C505.634 66.2031 506.812 66.502 507.614 67.0996C508.417 67.6914 508.818 68.5615 508.818 69.71C508.818 70.3369 508.657 70.8906 508.335 71.3711C508.013 71.8457 507.564 72.1943 506.99 72.417C507.646 72.5811 508.162 72.9121 508.537 73.4102C508.918 73.9082 509.108 74.5176 509.108 75.2383C509.108 76.4688 508.716 77.4004 507.931 78.0332C507.146 78.666 506.026 78.9883 504.573 79H499.599ZM502.235 73.4277V76.8818H504.494C505.115 76.8818 505.599 76.7354 505.944 76.4424C506.296 76.1436 506.472 75.7334 506.472 75.2119C506.472 74.04 505.865 73.4453 504.652 73.4277H502.235ZM502.235 71.5645H504.187C505.517 71.541 506.182 71.0107 506.182 69.9736C506.182 69.3936 506.012 68.9775 505.672 68.7256C505.338 68.4678 504.808 68.3389 504.081 68.3389H502.235V71.5645ZM513.608 79H511.06V65.5H513.608V79ZM521.404 78.0332C520.777 78.7949 519.91 79.1758 518.803 79.1758C517.783 79.1758 517.004 78.8828 516.465 78.2969C515.932 77.7109 515.659 76.8525 515.647 75.7217V69.4902H518.188V75.6338C518.188 76.624 518.639 77.1191 519.541 77.1191C520.402 77.1191 520.994 76.8203 521.316 76.2227V69.4902H523.865V79H521.475L521.404 78.0332ZM530.158 79.1758C528.764 79.1758 527.627 78.748 526.748 77.8926C525.875 77.0371 525.438 75.8975 525.438 74.4736V74.2275C525.438 73.2725 525.623 72.4199 525.992 71.6699C526.361 70.9141 526.883 70.334 527.557 69.9297C528.236 69.5195 529.01 69.3145 529.877 69.3145C531.178 69.3145 532.2 69.7246 532.944 70.5449C533.694 71.3652 534.069 72.5283 534.069 74.0342V75.0713H528.014C528.096 75.6924 528.342 76.1904 528.752 76.5654C529.168 76.9404 529.692 77.1279 530.325 77.1279C531.304 77.1279 532.068 76.7734 532.619 76.0645L533.867 77.4619C533.486 78.001 532.971 78.4229 532.32 78.7275C531.67 79.0264 530.949 79.1758 530.158 79.1758ZM529.868 71.3711C529.364 71.3711 528.954 71.541 528.638 71.8809C528.327 72.2207 528.128 72.707 528.04 73.3398H531.573V73.1377C531.562 72.5752 531.409 72.1416 531.116 71.8369C530.823 71.5264 530.407 71.3711 529.868 71.3711Z" fill="white"/>
<path d="M498.904 123.892C498.904 125.151 498.682 126.256 498.236 127.205C497.791 128.154 497.152 128.887 496.32 129.402C495.494 129.918 494.545 130.176 493.473 130.176C492.412 130.176 491.466 129.921 490.634 129.411C489.802 128.901 489.157 128.175 488.7 127.231C488.243 126.282 488.012 125.192 488.006 123.962V123.329C488.006 122.069 488.231 120.962 488.683 120.007C489.14 119.046 489.781 118.311 490.607 117.801C491.439 117.285 492.389 117.027 493.455 117.027C494.521 117.027 495.468 117.285 496.294 117.801C497.126 118.311 497.768 119.046 498.219 120.007C498.676 120.962 498.904 122.066 498.904 123.32V123.892ZM496.232 123.312C496.232 121.97 495.992 120.95 495.512 120.253C495.031 119.556 494.346 119.207 493.455 119.207C492.57 119.207 491.888 119.553 491.407 120.244C490.927 120.93 490.684 121.938 490.678 123.268V123.892C490.678 125.198 490.918 126.212 491.398 126.933C491.879 127.653 492.57 128.014 493.473 128.014C494.357 128.014 495.037 127.668 495.512 126.977C495.986 126.279 496.227 125.266 496.232 123.936V123.312ZM505.997 122.872C505.651 122.825 505.347 122.802 505.083 122.802C504.122 122.802 503.492 123.127 503.193 123.777V130H500.653V120.49H503.053L503.123 121.624C503.633 120.751 504.339 120.314 505.241 120.314C505.522 120.314 505.786 120.353 506.032 120.429L505.997 122.872ZM512.475 130C512.357 129.771 512.272 129.487 512.22 129.147C511.604 129.833 510.805 130.176 509.82 130.176C508.889 130.176 508.115 129.906 507.5 129.367C506.891 128.828 506.586 128.148 506.586 127.328C506.586 126.32 506.958 125.547 507.702 125.008C508.452 124.469 509.533 124.196 510.945 124.19H512.114V123.646C512.114 123.206 512 122.854 511.771 122.591C511.549 122.327 511.194 122.195 510.708 122.195C510.28 122.195 509.943 122.298 509.697 122.503C509.457 122.708 509.337 122.989 509.337 123.347H506.797C506.797 122.796 506.967 122.286 507.307 121.817C507.646 121.349 508.127 120.982 508.748 120.719C509.369 120.449 510.066 120.314 510.84 120.314C512.012 120.314 512.94 120.61 513.626 121.202C514.317 121.788 514.663 122.614 514.663 123.681V127.803C514.669 128.705 514.795 129.388 515.041 129.851V130H512.475ZM510.374 128.233C510.749 128.233 511.095 128.151 511.411 127.987C511.728 127.817 511.962 127.592 512.114 127.311V125.676H511.165C509.894 125.676 509.217 126.115 509.135 126.994L509.126 127.144C509.126 127.46 509.237 127.721 509.46 127.926C509.683 128.131 509.987 128.233 510.374 128.233ZM518.952 120.49L519.031 121.589C519.711 120.739 520.622 120.314 521.765 120.314C522.772 120.314 523.522 120.61 524.015 121.202C524.507 121.794 524.759 122.679 524.771 123.856V130H522.23V123.918C522.23 123.379 522.113 122.989 521.879 122.749C521.645 122.503 521.255 122.38 520.71 122.38C519.995 122.38 519.459 122.685 519.102 123.294V130H516.562V120.49H518.952ZM526.335 125.175C526.335 123.716 526.681 122.541 527.372 121.65C528.069 120.76 529.007 120.314 530.185 120.314C531.228 120.314 532.039 120.672 532.619 121.387L532.725 120.49H535.027V129.684C535.027 130.516 534.837 131.239 534.456 131.854C534.081 132.47 533.551 132.938 532.865 133.261C532.18 133.583 531.377 133.744 530.457 133.744C529.76 133.744 529.08 133.604 528.418 133.322C527.756 133.047 527.255 132.689 526.915 132.25L528.04 130.703C528.673 131.412 529.44 131.767 530.343 131.767C531.017 131.767 531.541 131.585 531.916 131.222C532.291 130.864 532.479 130.354 532.479 129.692V129.183C531.893 129.845 531.122 130.176 530.167 130.176C529.024 130.176 528.099 129.73 527.39 128.84C526.687 127.943 526.335 126.757 526.335 125.28V125.175ZM528.875 125.359C528.875 126.221 529.048 126.897 529.394 127.39C529.739 127.876 530.214 128.119 530.817 128.119C531.591 128.119 532.145 127.829 532.479 127.249V123.25C532.139 122.67 531.591 122.38 530.835 122.38C530.226 122.38 529.745 122.629 529.394 123.127C529.048 123.625 528.875 124.369 528.875 125.359ZM541.364 130.176C539.97 130.176 538.833 129.748 537.954 128.893C537.081 128.037 536.645 126.897 536.645 125.474V125.228C536.645 124.272 536.829 123.42 537.198 122.67C537.567 121.914 538.089 121.334 538.763 120.93C539.442 120.52 540.216 120.314 541.083 120.314C542.384 120.314 543.406 120.725 544.15 121.545C544.9 122.365 545.275 123.528 545.275 125.034V126.071H539.22C539.302 126.692 539.548 127.19 539.958 127.565C540.374 127.94 540.898 128.128 541.531 128.128C542.51 128.128 543.274 127.773 543.825 127.064L545.073 128.462C544.692 129.001 544.177 129.423 543.526 129.728C542.876 130.026 542.155 130.176 541.364 130.176ZM541.074 122.371C540.57 122.371 540.16 122.541 539.844 122.881C539.533 123.221 539.334 123.707 539.246 124.34H542.779V124.138C542.768 123.575 542.615 123.142 542.322 122.837C542.029 122.526 541.613 122.371 541.074 122.371Z" fill="white"/>
<path d="M494.924 172.969L497.587 167.203H500.47L496.269 175.359V180H493.588V175.359L489.387 167.203H492.278L494.924 172.969ZM505.269 180.176C503.874 180.176 502.737 179.748 501.858 178.893C500.985 178.037 500.549 176.897 500.549 175.474V175.228C500.549 174.272 500.733 173.42 501.103 172.67C501.472 171.914 501.993 171.334 502.667 170.93C503.347 170.52 504.12 170.314 504.987 170.314C506.288 170.314 507.311 170.725 508.055 171.545C508.805 172.365 509.18 173.528 509.18 175.034V176.071H503.124C503.206 176.692 503.452 177.19 503.862 177.565C504.278 177.94 504.803 178.128 505.436 178.128C506.414 178.128 507.179 177.773 507.729 177.064L508.978 178.462C508.597 179.001 508.081 179.423 507.431 179.728C506.78 180.026 506.06 180.176 505.269 180.176ZM504.979 172.371C504.475 172.371 504.064 172.541 503.748 172.881C503.438 173.221 503.238 173.707 503.15 174.34H506.684V174.138C506.672 173.575 506.52 173.142 506.227 172.837C505.934 172.526 505.518 172.371 504.979 172.371ZM513.311 180H510.762V166.5H513.311V180ZM518.092 180H515.543V166.5H518.092V180ZM519.797 175.157C519.797 174.214 519.979 173.373 520.342 172.635C520.705 171.896 521.227 171.325 521.906 170.921C522.592 170.517 523.386 170.314 524.288 170.314C525.571 170.314 526.617 170.707 527.426 171.492C528.24 172.277 528.694 173.344 528.788 174.691L528.806 175.342C528.806 176.801 528.398 177.973 527.584 178.857C526.77 179.736 525.677 180.176 524.306 180.176C522.935 180.176 521.839 179.736 521.019 178.857C520.204 177.979 519.797 176.783 519.797 175.271V175.157ZM522.337 175.342C522.337 176.244 522.507 176.936 522.847 177.416C523.187 177.891 523.673 178.128 524.306 178.128C524.921 178.128 525.401 177.894 525.747 177.425C526.093 176.95 526.266 176.194 526.266 175.157C526.266 174.272 526.093 173.587 525.747 173.101C525.401 172.614 524.915 172.371 524.288 172.371C523.667 172.371 523.187 172.614 522.847 173.101C522.507 173.581 522.337 174.328 522.337 175.342ZM538.641 176.546L539.889 170.49H542.341L539.915 180H537.788L535.986 174.015L534.185 180H532.066L529.641 170.49H532.093L533.332 176.537L535.072 170.49H536.909L538.641 176.546Z" fill="black"/>
<path d="M648.247 23.4912V28H645.61V15.2031H650.603C651.563 15.2031 652.407 15.3789 653.134 15.7305C653.866 16.082 654.429 16.583 654.821 17.2334C655.214 17.8779 655.41 18.6133 655.41 19.4395C655.41 20.6934 654.979 21.6836 654.118 22.4102C653.263 23.1309 652.076 23.4912 650.559 23.4912H648.247ZM648.247 21.3555H650.603C651.3 21.3555 651.83 21.1914 652.193 20.8633C652.562 20.5352 652.747 20.0664 652.747 19.457C652.747 18.8301 652.562 18.3232 652.193 17.9365C651.824 17.5498 651.314 17.3506 650.664 17.3389H648.247V21.3555ZM659.743 28H657.194V14.5H659.743V28ZM667.539 27.0332C666.912 27.7949 666.045 28.1758 664.938 28.1758C663.918 28.1758 663.139 27.8828 662.6 27.2969C662.066 26.7109 661.794 25.8525 661.782 24.7217V18.4902H664.322V24.6338C664.322 25.624 664.773 26.1191 665.676 26.1191C666.537 26.1191 667.129 25.8203 667.451 25.2227V18.4902H670V28H667.609L667.539 27.0332ZM674.298 18.4902L674.377 19.5537C675.051 18.7275 675.962 18.3145 677.11 18.3145C678.335 18.3145 679.176 18.7979 679.633 19.7646C680.301 18.7979 681.253 18.3145 682.489 18.3145C683.521 18.3145 684.288 18.6162 684.792 19.2197C685.296 19.8174 685.548 20.7197 685.548 21.9268V28H682.999V21.9355C682.999 21.3965 682.894 21.0039 682.683 20.7578C682.472 20.5059 682.1 20.3799 681.566 20.3799C680.805 20.3799 680.277 20.7432 679.984 21.4697L679.993 28H677.453V21.9443C677.453 21.3936 677.345 20.9951 677.128 20.749C676.911 20.5029 676.542 20.3799 676.021 20.3799C675.3 20.3799 674.778 20.6787 674.456 21.2764V28H671.916V18.4902H674.298Z" fill="white"/>
<path d="M656.482 74.7373C656.383 76.1143 655.873 77.1982 654.953 77.9893C654.039 78.7803 652.832 79.1758 651.332 79.1758C649.691 79.1758 648.399 78.625 647.456 77.5234C646.519 76.416 646.05 74.8984 646.05 72.9707V72.1885C646.05 70.958 646.267 69.874 646.7 68.9365C647.134 67.999 647.752 67.2812 648.555 66.7832C649.363 66.2793 650.301 66.0273 651.367 66.0273C652.844 66.0273 654.033 66.4229 654.936 67.2139C655.838 68.0049 656.359 69.1152 656.5 70.5449H653.863C653.799 69.7188 653.567 69.1211 653.169 68.752C652.776 68.377 652.176 68.1895 651.367 68.1895C650.488 68.1895 649.829 68.5059 649.39 69.1387C648.956 69.7656 648.733 70.7412 648.722 72.0654V73.0322C648.722 74.415 648.93 75.4258 649.346 76.0645C649.768 76.7031 650.43 77.0225 651.332 77.0225C652.146 77.0225 652.753 76.8379 653.151 76.4688C653.556 76.0938 653.787 75.5166 653.846 74.7373H656.482ZM661.598 75.4053L663.355 69.4902H666.08L662.257 80.4766L662.046 80.9775C661.478 82.2197 660.54 82.8408 659.233 82.8408C658.864 82.8408 658.489 82.7852 658.108 82.6738V80.749L658.495 80.7578C658.976 80.7578 659.333 80.6846 659.567 80.5381C659.808 80.3916 659.995 80.1484 660.13 79.8086L660.429 79.0264L657.098 69.4902H659.831L661.598 75.4053ZM672.452 79C672.335 78.7715 672.25 78.4873 672.197 78.1475C671.582 78.833 670.782 79.1758 669.798 79.1758C668.866 79.1758 668.093 78.9062 667.478 78.3672C666.868 77.8281 666.563 77.1484 666.563 76.3281C666.563 75.3203 666.936 74.5469 667.68 74.0078C668.43 73.4688 669.511 73.1963 670.923 73.1904H672.092V72.6455C672.092 72.2061 671.978 71.8545 671.749 71.5908C671.526 71.3271 671.172 71.1953 670.686 71.1953C670.258 71.1953 669.921 71.2979 669.675 71.5029C669.435 71.708 669.314 71.9893 669.314 72.3467H666.774C666.774 71.7959 666.944 71.2861 667.284 70.8174C667.624 70.3486 668.104 69.9824 668.726 69.7188C669.347 69.4492 670.044 69.3145 670.817 69.3145C671.989 69.3145 672.918 69.6104 673.604 70.2021C674.295 70.7881 674.641 71.6143 674.641 72.6807V76.8027C674.646 77.7051 674.772 78.3877 675.019 78.8506V79H672.452ZM670.352 77.2334C670.727 77.2334 671.072 77.1514 671.389 76.9873C671.705 76.8174 671.939 76.5918 672.092 76.3105V74.6758H671.143C669.871 74.6758 669.194 75.1152 669.112 75.9941L669.104 76.1436C669.104 76.46 669.215 76.7207 669.438 76.9258C669.66 77.1309 669.965 77.2334 670.352 77.2334ZM678.93 69.4902L679.009 70.5889C679.688 69.7393 680.6 69.3145 681.742 69.3145C682.75 69.3145 683.5 69.6104 683.992 70.2021C684.484 70.7939 684.736 71.6787 684.748 72.8564V79H682.208V72.918C682.208 72.3789 682.091 71.9893 681.856 71.749C681.622 71.5029 681.232 71.3799 680.688 71.3799C679.973 71.3799 679.437 71.6846 679.079 72.2939V79H676.539V69.4902H678.93Z" fill="white"/>
<path d="M640.514 130V117.203H644.996C646.549 117.203 647.727 117.502 648.529 118.1C649.332 118.691 649.733 119.562 649.733 120.71C649.733 121.337 649.572 121.891 649.25 122.371C648.928 122.846 648.479 123.194 647.905 123.417C648.562 123.581 649.077 123.912 649.452 124.41C649.833 124.908 650.023 125.518 650.023 126.238C650.023 127.469 649.631 128.4 648.846 129.033C648.061 129.666 646.941 129.988 645.488 130H640.514ZM643.15 124.428V127.882H645.409C646.03 127.882 646.514 127.735 646.859 127.442C647.211 127.144 647.387 126.733 647.387 126.212C647.387 125.04 646.78 124.445 645.567 124.428H643.15ZM643.15 122.564H645.102C646.432 122.541 647.097 122.011 647.097 120.974C647.097 120.394 646.927 119.978 646.587 119.726C646.253 119.468 645.723 119.339 644.996 119.339H643.15V122.564ZM657.187 122.872C656.841 122.825 656.536 122.802 656.272 122.802C655.312 122.802 654.682 123.127 654.383 123.777V130H651.843V120.49H654.242L654.312 121.624C654.822 120.751 655.528 120.314 656.431 120.314C656.712 120.314 656.976 120.353 657.222 120.429L657.187 122.872ZM657.705 125.157C657.705 124.214 657.887 123.373 658.25 122.635C658.613 121.896 659.135 121.325 659.814 120.921C660.5 120.517 661.294 120.314 662.196 120.314C663.479 120.314 664.525 120.707 665.334 121.492C666.148 122.277 666.603 123.344 666.696 124.691L666.714 125.342C666.714 126.801 666.307 127.973 665.492 128.857C664.678 129.736 663.585 130.176 662.214 130.176C660.843 130.176 659.747 129.736 658.927 128.857C658.112 127.979 657.705 126.783 657.705 125.271V125.157ZM660.245 125.342C660.245 126.244 660.415 126.936 660.755 127.416C661.095 127.891 661.581 128.128 662.214 128.128C662.829 128.128 663.31 127.894 663.655 127.425C664.001 126.95 664.174 126.194 664.174 125.157C664.174 124.272 664.001 123.587 663.655 123.101C663.31 122.614 662.823 122.371 662.196 122.371C661.575 122.371 661.095 122.614 660.755 123.101C660.415 123.581 660.245 124.328 660.245 125.342ZM676.549 126.546L677.797 120.49H680.249L677.823 130H675.696L673.895 124.015L672.093 130H669.975L667.549 120.49H670.001L671.24 126.537L672.98 120.49H674.817L676.549 126.546ZM683.853 120.49L683.932 121.589C684.611 120.739 685.522 120.314 686.665 120.314C687.673 120.314 688.423 120.61 688.915 121.202C689.407 121.794 689.659 122.679 689.671 123.856V130H687.131V123.918C687.131 123.379 687.014 122.989 686.779 122.749C686.545 122.503 686.155 122.38 685.61 122.38C684.896 122.38 684.359 122.685 684.002 123.294V130H681.462V120.49H683.853Z" fill="white"/>
<path d="M646.499 177.363H641.876L640.997 180H638.193L642.957 167.203H645.4L650.19 180H647.387L646.499 177.363ZM642.588 175.228H645.787L644.179 170.438L642.588 175.228ZM653.179 170.49L653.258 171.554C653.932 170.728 654.843 170.314 655.991 170.314C657.216 170.314 658.057 170.798 658.514 171.765C659.182 170.798 660.134 170.314 661.37 170.314C662.401 170.314 663.169 170.616 663.673 171.22C664.177 171.817 664.429 172.72 664.429 173.927V180H661.88V173.936C661.88 173.396 661.774 173.004 661.563 172.758C661.353 172.506 660.98 172.38 660.447 172.38C659.686 172.38 659.158 172.743 658.865 173.47L658.874 180H656.334V173.944C656.334 173.394 656.226 172.995 656.009 172.749C655.792 172.503 655.423 172.38 654.901 172.38C654.181 172.38 653.659 172.679 653.337 173.276V180H650.797V170.49H653.179ZM674.958 175.333C674.958 176.856 674.633 178.046 673.982 178.901C673.332 179.751 672.424 180.176 671.258 180.176C670.227 180.176 669.403 179.78 668.788 178.989L668.674 180H666.389V166.5H668.929V171.343C669.515 170.657 670.285 170.314 671.24 170.314C672.4 170.314 673.309 170.742 673.965 171.598C674.627 172.447 674.958 173.646 674.958 175.192V175.333ZM672.418 175.148C672.418 174.188 672.266 173.487 671.961 173.048C671.656 172.603 671.202 172.38 670.599 172.38C669.79 172.38 669.233 172.711 668.929 173.373V177.126C669.239 177.794 669.802 178.128 670.616 178.128C671.437 178.128 671.976 177.724 672.233 176.915C672.356 176.528 672.418 175.939 672.418 175.148ZM680.908 180.176C679.514 180.176 678.377 179.748 677.498 178.893C676.625 178.037 676.188 176.897 676.188 175.474V175.228C676.188 174.272 676.373 173.42 676.742 172.67C677.111 171.914 677.633 171.334 678.307 170.93C678.986 170.52 679.76 170.314 680.627 170.314C681.928 170.314 682.95 170.725 683.694 171.545C684.444 172.365 684.819 173.528 684.819 175.034V176.071H678.764C678.846 176.692 679.092 177.19 679.502 177.565C679.918 177.94 680.442 178.128 681.075 178.128C682.054 178.128 682.818 177.773 683.369 177.064L684.617 178.462C684.236 179.001 683.721 179.423 683.07 179.728C682.42 180.026 681.699 180.176 680.908 180.176ZM680.618 172.371C680.114 172.371 679.704 172.541 679.388 172.881C679.077 173.221 678.878 173.707 678.79 174.34H682.323V174.138C682.312 173.575 682.159 173.142 681.866 172.837C681.573 172.526 681.157 172.371 680.618 172.371ZM691.613 172.872C691.268 172.825 690.963 172.802 690.699 172.802C689.738 172.802 689.108 173.127 688.81 173.777V180H686.27V170.49H688.669L688.739 171.624C689.249 170.751 689.955 170.314 690.857 170.314C691.139 170.314 691.402 170.353 691.648 170.429L691.613 172.872Z" fill="black"/>
</svg>
