<svg width="736" height="94" viewBox="0 0 736 94" fill="none" xmlns="http://www.w3.org/2000/svg">
<rect width="736" height="94" fill="white"/>
<rect x="75.5" y="0.5" width="139" height="41" rx="6.5" fill="#FFEEEB" stroke="#F1A798"/>
<rect x="75" y="52" width="140" height="42" rx="7" fill="#E14429"/>
<rect x="225.5" y="0.5" width="139" height="41" rx="6.5" fill="#F8EFFE" stroke="#CDABEA"/>
<rect x="225" y="52" width="140" height="42" rx="7" fill="#8345BF"/>
<rect x="375.5" y="0.5" width="139" height="41" rx="6.5" fill="#E3F8F3" stroke="#82C7BB"/>
<rect x="375" y="52" width="140" height="42" rx="7" fill="#139B89"/>
<rect x="525.5" y="0.5" width="139" height="41" rx="6.5" fill="#E0F8FF" stroke="#6EC8E7"/>
<rect x="525" y="52" width="140" height="42" rx="7" fill="#5DD8FD"/>
<path d="M118.274 28V15.2031H122.757C124.31 15.2031 125.487 15.502 126.29 16.0996C127.093 16.6914 127.494 17.5615 127.494 18.71C127.494 19.3369 127.333 19.8906 127.011 20.3711C126.688 20.8457 126.24 21.1943 125.666 21.417C126.322 21.5811 126.838 21.9121 127.213 22.4102C127.594 22.9082 127.784 23.5176 127.784 24.2383C127.784 25.4688 127.392 26.4004 126.606 27.0332C125.821 27.666 124.702 27.9883 123.249 28H118.274ZM120.911 22.4277V25.8818H123.17C123.791 25.8818 124.274 25.7354 124.62 25.4424C124.972 25.1436 125.147 24.7334 125.147 24.2119C125.147 23.04 124.541 22.4453 123.328 22.4277H120.911ZM120.911 20.5645H122.862C124.192 20.541 124.857 20.0107 124.857 18.9736C124.857 18.3936 124.688 17.9775 124.348 17.7256C124.014 17.4678 123.483 17.3389 122.757 17.3389H120.911V20.5645ZM135.299 27.0332C134.672 27.7949 133.805 28.1758 132.697 28.1758C131.678 28.1758 130.898 27.8828 130.359 27.2969C129.826 26.7109 129.554 25.8525 129.542 24.7217V18.4902H132.082V24.6338C132.082 25.624 132.533 26.1191 133.436 26.1191C134.297 26.1191 134.889 25.8203 135.211 25.2227V18.4902H137.76V28H135.369L135.299 27.0332ZM142.717 16.1523V18.4902H144.343V20.3535H142.717V25.0996C142.717 25.4512 142.784 25.7031 142.919 25.8555C143.054 26.0078 143.312 26.084 143.692 26.084C143.974 26.084 144.223 26.0635 144.439 26.0225V27.9473C143.941 28.0996 143.429 28.1758 142.901 28.1758C141.12 28.1758 140.212 27.2764 140.177 25.4775V20.3535H138.788V18.4902H140.177V16.1523H142.717ZM148.799 16.1523V18.4902H150.425V20.3535H148.799V25.0996C148.799 25.4512 148.866 25.7031 149.001 25.8555C149.136 26.0078 149.394 26.084 149.774 26.084C150.056 26.084 150.305 26.0635 150.521 26.0225V27.9473C150.023 28.0996 149.511 28.1758 148.983 28.1758C147.202 28.1758 146.294 27.2764 146.259 25.4775V20.3535H144.87V18.4902H146.259V16.1523H148.799ZM151.181 23.1572C151.181 22.2139 151.362 21.373 151.726 20.6348C152.089 19.8965 152.61 19.3252 153.29 18.9209C153.976 18.5166 154.77 18.3145 155.672 18.3145C156.955 18.3145 158.001 18.707 158.81 19.4922C159.624 20.2773 160.078 21.3438 160.172 22.6914L160.189 23.3418C160.189 24.8008 159.782 25.9727 158.968 26.8574C158.153 27.7363 157.061 28.1758 155.689 28.1758C154.318 28.1758 153.223 27.7363 152.402 26.8574C151.588 25.9785 151.181 24.7832 151.181 23.2715V23.1572ZM153.721 23.3418C153.721 24.2441 153.891 24.9355 154.23 25.416C154.57 25.8906 155.057 26.1279 155.689 26.1279C156.305 26.1279 156.785 25.8936 157.131 25.4248C157.477 24.9502 157.649 24.1943 157.649 23.1572C157.649 22.2725 157.477 21.5869 157.131 21.1006C156.785 20.6143 156.299 20.3711 155.672 20.3711C155.051 20.3711 154.57 20.6143 154.23 21.1006C153.891 21.5811 153.721 22.3281 153.721 23.3418ZM164.092 18.4902L164.171 19.5889C164.851 18.7393 165.762 18.3145 166.904 18.3145C167.912 18.3145 168.662 18.6104 169.154 19.2021C169.646 19.7939 169.898 20.6787 169.91 21.8564V28H167.37V21.918C167.37 21.3789 167.253 20.9893 167.019 20.749C166.784 20.5029 166.395 20.3799 165.85 20.3799C165.135 20.3799 164.599 20.6846 164.241 21.2939V28H161.701V18.4902H164.092Z" fill="#C32C14"/>
<path d="M118.274 80V67.2031H122.757C124.31 67.2031 125.487 67.502 126.29 68.0996C127.093 68.6914 127.494 69.5615 127.494 70.71C127.494 71.3369 127.333 71.8906 127.011 72.3711C126.688 72.8457 126.24 73.1943 125.666 73.417C126.322 73.5811 126.838 73.9121 127.213 74.4102C127.594 74.9082 127.784 75.5176 127.784 76.2383C127.784 77.4688 127.392 78.4004 126.606 79.0332C125.821 79.666 124.702 79.9883 123.249 80H118.274ZM120.911 74.4277V77.8818H123.17C123.791 77.8818 124.274 77.7354 124.62 77.4424C124.972 77.1436 125.147 76.7334 125.147 76.2119C125.147 75.04 124.541 74.4453 123.328 74.4277H120.911ZM120.911 72.5645H122.862C124.192 72.541 124.857 72.0107 124.857 70.9736C124.857 70.3936 124.688 69.9775 124.348 69.7256C124.014 69.4678 123.483 69.3389 122.757 69.3389H120.911V72.5645ZM135.299 79.0332C134.672 79.7949 133.805 80.1758 132.697 80.1758C131.678 80.1758 130.898 79.8828 130.359 79.2969C129.826 78.7109 129.554 77.8525 129.542 76.7217V70.4902H132.082V76.6338C132.082 77.624 132.533 78.1191 133.436 78.1191C134.297 78.1191 134.889 77.8203 135.211 77.2227V70.4902H137.76V80H135.369L135.299 79.0332ZM142.717 68.1523V70.4902H144.343V72.3535H142.717V77.0996C142.717 77.4512 142.784 77.7031 142.919 77.8555C143.054 78.0078 143.312 78.084 143.692 78.084C143.974 78.084 144.223 78.0635 144.439 78.0225V79.9473C143.941 80.0996 143.429 80.1758 142.901 80.1758C141.12 80.1758 140.212 79.2764 140.177 77.4775V72.3535H138.788V70.4902H140.177V68.1523H142.717ZM148.799 68.1523V70.4902H150.425V72.3535H148.799V77.0996C148.799 77.4512 148.866 77.7031 149.001 77.8555C149.136 78.0078 149.394 78.084 149.774 78.084C150.056 78.084 150.305 78.0635 150.521 78.0225V79.9473C150.023 80.0996 149.511 80.1758 148.983 80.1758C147.202 80.1758 146.294 79.2764 146.259 77.4775V72.3535H144.87V70.4902H146.259V68.1523H148.799ZM151.181 75.1572C151.181 74.2139 151.362 73.373 151.726 72.6348C152.089 71.8965 152.61 71.3252 153.29 70.9209C153.976 70.5166 154.77 70.3145 155.672 70.3145C156.955 70.3145 158.001 70.707 158.81 71.4922C159.624 72.2773 160.078 73.3438 160.172 74.6914L160.189 75.3418C160.189 76.8008 159.782 77.9727 158.968 78.8574C158.153 79.7363 157.061 80.1758 155.689 80.1758C154.318 80.1758 153.223 79.7363 152.402 78.8574C151.588 77.9785 151.181 76.7832 151.181 75.2715V75.1572ZM153.721 75.3418C153.721 76.2441 153.891 76.9355 154.23 77.416C154.57 77.8906 155.057 78.1279 155.689 78.1279C156.305 78.1279 156.785 77.8936 157.131 77.4248C157.477 76.9502 157.649 76.1943 157.649 75.1572C157.649 74.2725 157.477 73.5869 157.131 73.1006C156.785 72.6143 156.299 72.3711 155.672 72.3711C155.051 72.3711 154.57 72.6143 154.23 73.1006C153.891 73.5811 153.721 74.3281 153.721 75.3418ZM164.092 70.4902L164.171 71.5889C164.851 70.7393 165.762 70.3145 166.904 70.3145C167.912 70.3145 168.662 70.6104 169.154 71.2021C169.646 71.7939 169.898 72.6787 169.91 73.8564V80H167.37V73.918C167.37 73.3789 167.253 72.9893 167.019 72.749C166.784 72.5029 166.395 72.3799 165.85 72.3799C165.135 72.3799 164.599 72.6846 164.241 73.2939V80H161.701V70.4902H164.092Z" fill="white"/>
<path d="M268.274 28V15.2031H272.757C274.31 15.2031 275.487 15.502 276.29 16.0996C277.093 16.6914 277.494 17.5615 277.494 18.71C277.494 19.3369 277.333 19.8906 277.011 20.3711C276.688 20.8457 276.24 21.1943 275.666 21.417C276.322 21.5811 276.838 21.9121 277.213 22.4102C277.594 22.9082 277.784 23.5176 277.784 24.2383C277.784 25.4688 277.392 26.4004 276.606 27.0332C275.821 27.666 274.702 27.9883 273.249 28H268.274ZM270.911 22.4277V25.8818H273.17C273.791 25.8818 274.274 25.7354 274.62 25.4424C274.972 25.1436 275.147 24.7334 275.147 24.2119C275.147 23.04 274.541 22.4453 273.328 22.4277H270.911ZM270.911 20.5645H272.862C274.192 20.541 274.857 20.0107 274.857 18.9736C274.857 18.3936 274.688 17.9775 274.348 17.7256C274.014 17.4678 273.483 17.3389 272.757 17.3389H270.911V20.5645ZM285.299 27.0332C284.672 27.7949 283.805 28.1758 282.697 28.1758C281.678 28.1758 280.898 27.8828 280.359 27.2969C279.826 26.7109 279.554 25.8525 279.542 24.7217V18.4902H282.082V24.6338C282.082 25.624 282.533 26.1191 283.436 26.1191C284.297 26.1191 284.889 25.8203 285.211 25.2227V18.4902H287.76V28H285.369L285.299 27.0332ZM292.717 16.1523V18.4902H294.343V20.3535H292.717V25.0996C292.717 25.4512 292.784 25.7031 292.919 25.8555C293.054 26.0078 293.312 26.084 293.692 26.084C293.974 26.084 294.223 26.0635 294.439 26.0225V27.9473C293.941 28.0996 293.429 28.1758 292.901 28.1758C291.12 28.1758 290.212 27.2764 290.177 25.4775V20.3535H288.788V18.4902H290.177V16.1523H292.717ZM298.799 16.1523V18.4902H300.425V20.3535H298.799V25.0996C298.799 25.4512 298.866 25.7031 299.001 25.8555C299.136 26.0078 299.394 26.084 299.774 26.084C300.056 26.084 300.305 26.0635 300.521 26.0225V27.9473C300.023 28.0996 299.511 28.1758 298.983 28.1758C297.202 28.1758 296.294 27.2764 296.259 25.4775V20.3535H294.87V18.4902H296.259V16.1523H298.799ZM301.181 23.1572C301.181 22.2139 301.362 21.373 301.726 20.6348C302.089 19.8965 302.61 19.3252 303.29 18.9209C303.976 18.5166 304.77 18.3145 305.672 18.3145C306.955 18.3145 308.001 18.707 308.81 19.4922C309.624 20.2773 310.078 21.3438 310.172 22.6914L310.189 23.3418C310.189 24.8008 309.782 25.9727 308.968 26.8574C308.153 27.7363 307.061 28.1758 305.689 28.1758C304.318 28.1758 303.223 27.7363 302.402 26.8574C301.588 25.9785 301.181 24.7832 301.181 23.2715V23.1572ZM303.721 23.3418C303.721 24.2441 303.891 24.9355 304.23 25.416C304.57 25.8906 305.057 26.1279 305.689 26.1279C306.305 26.1279 306.785 25.8936 307.131 25.4248C307.477 24.9502 307.649 24.1943 307.649 23.1572C307.649 22.2725 307.477 21.5869 307.131 21.1006C306.785 20.6143 306.299 20.3711 305.672 20.3711C305.051 20.3711 304.57 20.6143 304.23 21.1006C303.891 21.5811 303.721 22.3281 303.721 23.3418ZM314.092 18.4902L314.171 19.5889C314.851 18.7393 315.762 18.3145 316.904 18.3145C317.912 18.3145 318.662 18.6104 319.154 19.2021C319.646 19.7939 319.898 20.6787 319.91 21.8564V28H317.37V21.918C317.37 21.3789 317.253 20.9893 317.019 20.749C316.784 20.5029 316.395 20.3799 315.85 20.3799C315.135 20.3799 314.599 20.6846 314.241 21.2939V28H311.701V18.4902H314.092Z" fill="#6E33A6"/>
<path d="M268.274 80V67.2031H272.757C274.31 67.2031 275.487 67.502 276.29 68.0996C277.093 68.6914 277.494 69.5615 277.494 70.71C277.494 71.3369 277.333 71.8906 277.011 72.3711C276.688 72.8457 276.24 73.1943 275.666 73.417C276.322 73.5811 276.838 73.9121 277.213 74.4102C277.594 74.9082 277.784 75.5176 277.784 76.2383C277.784 77.4688 277.392 78.4004 276.606 79.0332C275.821 79.666 274.702 79.9883 273.249 80H268.274ZM270.911 74.4277V77.8818H273.17C273.791 77.8818 274.274 77.7354 274.62 77.4424C274.972 77.1436 275.147 76.7334 275.147 76.2119C275.147 75.04 274.541 74.4453 273.328 74.4277H270.911ZM270.911 72.5645H272.862C274.192 72.541 274.857 72.0107 274.857 70.9736C274.857 70.3936 274.688 69.9775 274.348 69.7256C274.014 69.4678 273.483 69.3389 272.757 69.3389H270.911V72.5645ZM285.299 79.0332C284.672 79.7949 283.805 80.1758 282.697 80.1758C281.678 80.1758 280.898 79.8828 280.359 79.2969C279.826 78.7109 279.554 77.8525 279.542 76.7217V70.4902H282.082V76.6338C282.082 77.624 282.533 78.1191 283.436 78.1191C284.297 78.1191 284.889 77.8203 285.211 77.2227V70.4902H287.76V80H285.369L285.299 79.0332ZM292.717 68.1523V70.4902H294.343V72.3535H292.717V77.0996C292.717 77.4512 292.784 77.7031 292.919 77.8555C293.054 78.0078 293.312 78.084 293.692 78.084C293.974 78.084 294.223 78.0635 294.439 78.0225V79.9473C293.941 80.0996 293.429 80.1758 292.901 80.1758C291.12 80.1758 290.212 79.2764 290.177 77.4775V72.3535H288.788V70.4902H290.177V68.1523H292.717ZM298.799 68.1523V70.4902H300.425V72.3535H298.799V77.0996C298.799 77.4512 298.866 77.7031 299.001 77.8555C299.136 78.0078 299.394 78.084 299.774 78.084C300.056 78.084 300.305 78.0635 300.521 78.0225V79.9473C300.023 80.0996 299.511 80.1758 298.983 80.1758C297.202 80.1758 296.294 79.2764 296.259 77.4775V72.3535H294.87V70.4902H296.259V68.1523H298.799ZM301.181 75.1572C301.181 74.2139 301.362 73.373 301.726 72.6348C302.089 71.8965 302.61 71.3252 303.29 70.9209C303.976 70.5166 304.77 70.3145 305.672 70.3145C306.955 70.3145 308.001 70.707 308.81 71.4922C309.624 72.2773 310.078 73.3438 310.172 74.6914L310.189 75.3418C310.189 76.8008 309.782 77.9727 308.968 78.8574C308.153 79.7363 307.061 80.1758 305.689 80.1758C304.318 80.1758 303.223 79.7363 302.402 78.8574C301.588 77.9785 301.181 76.7832 301.181 75.2715V75.1572ZM303.721 75.3418C303.721 76.2441 303.891 76.9355 304.23 77.416C304.57 77.8906 305.057 78.1279 305.689 78.1279C306.305 78.1279 306.785 77.8936 307.131 77.4248C307.477 76.9502 307.649 76.1943 307.649 75.1572C307.649 74.2725 307.477 73.5869 307.131 73.1006C306.785 72.6143 306.299 72.3711 305.672 72.3711C305.051 72.3711 304.57 72.6143 304.23 73.1006C303.891 73.5811 303.721 74.3281 303.721 75.3418ZM314.092 70.4902L314.171 71.5889C314.851 70.7393 315.762 70.3145 316.904 70.3145C317.912 70.3145 318.662 70.6104 319.154 71.2021C319.646 71.7939 319.898 72.6787 319.91 73.8564V80H317.37V73.918C317.37 73.3789 317.253 72.9893 317.019 72.749C316.784 72.5029 316.395 72.3799 315.85 72.3799C315.135 72.3799 314.599 72.6846 314.241 73.2939V80H311.701V70.4902H314.092Z" fill="white"/>
<path d="M418.274 28V15.2031H422.757C424.31 15.2031 425.487 15.502 426.29 16.0996C427.093 16.6914 427.494 17.5615 427.494 18.71C427.494 19.3369 427.333 19.8906 427.011 20.3711C426.688 20.8457 426.24 21.1943 425.666 21.417C426.322 21.5811 426.838 21.9121 427.213 22.4102C427.594 22.9082 427.784 23.5176 427.784 24.2383C427.784 25.4688 427.392 26.4004 426.606 27.0332C425.821 27.666 424.702 27.9883 423.249 28H418.274ZM420.911 22.4277V25.8818H423.17C423.791 25.8818 424.274 25.7354 424.62 25.4424C424.972 25.1436 425.147 24.7334 425.147 24.2119C425.147 23.04 424.541 22.4453 423.328 22.4277H420.911ZM420.911 20.5645H422.862C424.192 20.541 424.857 20.0107 424.857 18.9736C424.857 18.3936 424.688 17.9775 424.348 17.7256C424.014 17.4678 423.483 17.3389 422.757 17.3389H420.911V20.5645ZM435.299 27.0332C434.672 27.7949 433.805 28.1758 432.697 28.1758C431.678 28.1758 430.898 27.8828 430.359 27.2969C429.826 26.7109 429.554 25.8525 429.542 24.7217V18.4902H432.082V24.6338C432.082 25.624 432.533 26.1191 433.436 26.1191C434.297 26.1191 434.889 25.8203 435.211 25.2227V18.4902H437.76V28H435.369L435.299 27.0332ZM442.717 16.1523V18.4902H444.343V20.3535H442.717V25.0996C442.717 25.4512 442.784 25.7031 442.919 25.8555C443.054 26.0078 443.312 26.084 443.692 26.084C443.974 26.084 444.223 26.0635 444.439 26.0225V27.9473C443.941 28.0996 443.429 28.1758 442.901 28.1758C441.12 28.1758 440.212 27.2764 440.177 25.4775V20.3535H438.788V18.4902H440.177V16.1523H442.717ZM448.799 16.1523V18.4902H450.425V20.3535H448.799V25.0996C448.799 25.4512 448.866 25.7031 449.001 25.8555C449.136 26.0078 449.394 26.084 449.774 26.084C450.056 26.084 450.305 26.0635 450.521 26.0225V27.9473C450.023 28.0996 449.511 28.1758 448.983 28.1758C447.202 28.1758 446.294 27.2764 446.259 25.4775V20.3535H444.87V18.4902H446.259V16.1523H448.799ZM451.181 23.1572C451.181 22.2139 451.362 21.373 451.726 20.6348C452.089 19.8965 452.61 19.3252 453.29 18.9209C453.976 18.5166 454.77 18.3145 455.672 18.3145C456.955 18.3145 458.001 18.707 458.81 19.4922C459.624 20.2773 460.078 21.3438 460.172 22.6914L460.189 23.3418C460.189 24.8008 459.782 25.9727 458.968 26.8574C458.153 27.7363 457.061 28.1758 455.689 28.1758C454.318 28.1758 453.223 27.7363 452.402 26.8574C451.588 25.9785 451.181 24.7832 451.181 23.2715V23.1572ZM453.721 23.3418C453.721 24.2441 453.891 24.9355 454.23 25.416C454.57 25.8906 455.057 26.1279 455.689 26.1279C456.305 26.1279 456.785 25.8936 457.131 25.4248C457.477 24.9502 457.649 24.1943 457.649 23.1572C457.649 22.2725 457.477 21.5869 457.131 21.1006C456.785 20.6143 456.299 20.3711 455.672 20.3711C455.051 20.3711 454.57 20.6143 454.23 21.1006C453.891 21.5811 453.721 22.3281 453.721 23.3418ZM464.092 18.4902L464.171 19.5889C464.851 18.7393 465.762 18.3145 466.904 18.3145C467.912 18.3145 468.662 18.6104 469.154 19.2021C469.646 19.7939 469.898 20.6787 469.91 21.8564V28H467.37V21.918C467.37 21.3789 467.253 20.9893 467.019 20.749C466.784 20.5029 466.395 20.3799 465.85 20.3799C465.135 20.3799 464.599 20.6846 464.241 21.2939V28H461.701V18.4902H464.092Z" fill="#0A6F64"/>
<path d="M418.274 80V67.2031H422.757C424.31 67.2031 425.487 67.502 426.29 68.0996C427.093 68.6914 427.494 69.5615 427.494 70.71C427.494 71.3369 427.333 71.8906 427.011 72.3711C426.688 72.8457 426.24 73.1943 425.666 73.417C426.322 73.5811 426.838 73.9121 427.213 74.4102C427.594 74.9082 427.784 75.5176 427.784 76.2383C427.784 77.4688 427.392 78.4004 426.606 79.0332C425.821 79.666 424.702 79.9883 423.249 80H418.274ZM420.911 74.4277V77.8818H423.17C423.791 77.8818 424.274 77.7354 424.62 77.4424C424.972 77.1436 425.147 76.7334 425.147 76.2119C425.147 75.04 424.541 74.4453 423.328 74.4277H420.911ZM420.911 72.5645H422.862C424.192 72.541 424.857 72.0107 424.857 70.9736C424.857 70.3936 424.688 69.9775 424.348 69.7256C424.014 69.4678 423.483 69.3389 422.757 69.3389H420.911V72.5645ZM435.299 79.0332C434.672 79.7949 433.805 80.1758 432.697 80.1758C431.678 80.1758 430.898 79.8828 430.359 79.2969C429.826 78.7109 429.554 77.8525 429.542 76.7217V70.4902H432.082V76.6338C432.082 77.624 432.533 78.1191 433.436 78.1191C434.297 78.1191 434.889 77.8203 435.211 77.2227V70.4902H437.76V80H435.369L435.299 79.0332ZM442.717 68.1523V70.4902H444.343V72.3535H442.717V77.0996C442.717 77.4512 442.784 77.7031 442.919 77.8555C443.054 78.0078 443.312 78.084 443.692 78.084C443.974 78.084 444.223 78.0635 444.439 78.0225V79.9473C443.941 80.0996 443.429 80.1758 442.901 80.1758C441.12 80.1758 440.212 79.2764 440.177 77.4775V72.3535H438.788V70.4902H440.177V68.1523H442.717ZM448.799 68.1523V70.4902H450.425V72.3535H448.799V77.0996C448.799 77.4512 448.866 77.7031 449.001 77.8555C449.136 78.0078 449.394 78.084 449.774 78.084C450.056 78.084 450.305 78.0635 450.521 78.0225V79.9473C450.023 80.0996 449.511 80.1758 448.983 80.1758C447.202 80.1758 446.294 79.2764 446.259 77.4775V72.3535H444.87V70.4902H446.259V68.1523H448.799ZM451.181 75.1572C451.181 74.2139 451.362 73.373 451.726 72.6348C452.089 71.8965 452.61 71.3252 453.29 70.9209C453.976 70.5166 454.77 70.3145 455.672 70.3145C456.955 70.3145 458.001 70.707 458.81 71.4922C459.624 72.2773 460.078 73.3438 460.172 74.6914L460.189 75.3418C460.189 76.8008 459.782 77.9727 458.968 78.8574C458.153 79.7363 457.061 80.1758 455.689 80.1758C454.318 80.1758 453.223 79.7363 452.402 78.8574C451.588 77.9785 451.181 76.7832 451.181 75.2715V75.1572ZM453.721 75.3418C453.721 76.2441 453.891 76.9355 454.23 77.416C454.57 77.8906 455.057 78.1279 455.689 78.1279C456.305 78.1279 456.785 77.8936 457.131 77.4248C457.477 76.9502 457.649 76.1943 457.649 75.1572C457.649 74.2725 457.477 73.5869 457.131 73.1006C456.785 72.6143 456.299 72.3711 455.672 72.3711C455.051 72.3711 454.57 72.6143 454.23 73.1006C453.891 73.5811 453.721 74.3281 453.721 75.3418ZM464.092 70.4902L464.171 71.5889C464.851 70.7393 465.762 70.3145 466.904 70.3145C467.912 70.3145 468.662 70.6104 469.154 71.2021C469.646 71.7939 469.898 72.6787 469.91 73.8564V80H467.37V73.918C467.37 73.3789 467.253 72.9893 467.019 72.749C466.784 72.5029 466.395 72.3799 465.85 72.3799C465.135 72.3799 464.599 72.6846 464.241 73.2939V80H461.701V70.4902H464.092Z" fill="white"/>
<path d="M568.274 27V14.2031H572.757C574.31 14.2031 575.487 14.502 576.29 15.0996C577.093 15.6914 577.494 16.5615 577.494 17.71C577.494 18.3369 577.333 18.8906 577.011 19.3711C576.688 19.8457 576.24 20.1943 575.666 20.417C576.322 20.5811 576.838 20.9121 577.213 21.4102C577.594 21.9082 577.784 22.5176 577.784 23.2383C577.784 24.4688 577.392 25.4004 576.606 26.0332C575.821 26.666 574.702 26.9883 573.249 27H568.274ZM570.911 21.4277V24.8818H573.17C573.791 24.8818 574.274 24.7354 574.62 24.4424C574.972 24.1436 575.147 23.7334 575.147 23.2119C575.147 22.04 574.541 21.4453 573.328 21.4277H570.911ZM570.911 19.5645H572.862C574.192 19.541 574.857 19.0107 574.857 17.9736C574.857 17.3936 574.688 16.9775 574.348 16.7256C574.014 16.4678 573.483 16.3389 572.757 16.3389H570.911V19.5645ZM585.299 26.0332C584.672 26.7949 583.805 27.1758 582.697 27.1758C581.678 27.1758 580.898 26.8828 580.359 26.2969C579.826 25.7109 579.554 24.8525 579.542 23.7217V17.4902H582.082V23.6338C582.082 24.624 582.533 25.1191 583.436 25.1191C584.297 25.1191 584.889 24.8203 585.211 24.2227V17.4902H587.76V27H585.369L585.299 26.0332ZM592.717 15.1523V17.4902H594.343V19.3535H592.717V24.0996C592.717 24.4512 592.784 24.7031 592.919 24.8555C593.054 25.0078 593.312 25.084 593.692 25.084C593.974 25.084 594.223 25.0635 594.439 25.0225V26.9473C593.941 27.0996 593.429 27.1758 592.901 27.1758C591.12 27.1758 590.212 26.2764 590.177 24.4775V19.3535H588.788V17.4902H590.177V15.1523H592.717ZM598.799 15.1523V17.4902H600.425V19.3535H598.799V24.0996C598.799 24.4512 598.866 24.7031 599.001 24.8555C599.136 25.0078 599.394 25.084 599.774 25.084C600.056 25.084 600.305 25.0635 600.521 25.0225V26.9473C600.023 27.0996 599.511 27.1758 598.983 27.1758C597.202 27.1758 596.294 26.2764 596.259 24.4775V19.3535H594.87V17.4902H596.259V15.1523H598.799ZM601.181 22.1572C601.181 21.2139 601.362 20.373 601.726 19.6348C602.089 18.8965 602.61 18.3252 603.29 17.9209C603.976 17.5166 604.77 17.3145 605.672 17.3145C606.955 17.3145 608.001 17.707 608.81 18.4922C609.624 19.2773 610.078 20.3438 610.172 21.6914L610.189 22.3418C610.189 23.8008 609.782 24.9727 608.968 25.8574C608.153 26.7363 607.061 27.1758 605.689 27.1758C604.318 27.1758 603.223 26.7363 602.402 25.8574C601.588 24.9785 601.181 23.7832 601.181 22.2715V22.1572ZM603.721 22.3418C603.721 23.2441 603.891 23.9355 604.23 24.416C604.57 24.8906 605.057 25.1279 605.689 25.1279C606.305 25.1279 606.785 24.8936 607.131 24.4248C607.477 23.9502 607.649 23.1943 607.649 22.1572C607.649 21.2725 607.477 20.5869 607.131 20.1006C606.785 19.6143 606.299 19.3711 605.672 19.3711C605.051 19.3711 604.57 19.6143 604.23 20.1006C603.891 20.5811 603.721 21.3281 603.721 22.3418ZM614.092 17.4902L614.171 18.5889C614.851 17.7393 615.762 17.3145 616.904 17.3145C617.912 17.3145 618.662 17.6104 619.154 18.2021C619.646 18.7939 619.898 19.6787 619.91 20.8564V27H617.37V20.918C617.37 20.3789 617.253 19.9893 617.019 19.749C616.784 19.5029 616.395 19.3799 615.85 19.3799C615.135 19.3799 614.599 19.6846 614.241 20.2939V27H611.701V17.4902H614.092Z" fill="#006D97"/>
<path d="M568.274 79V66.2031H572.757C574.31 66.2031 575.487 66.502 576.29 67.0996C577.093 67.6914 577.494 68.5615 577.494 69.71C577.494 70.3369 577.333 70.8906 577.011 71.3711C576.688 71.8457 576.24 72.1943 575.666 72.417C576.322 72.5811 576.838 72.9121 577.213 73.4102C577.594 73.9082 577.784 74.5176 577.784 75.2383C577.784 76.4688 577.392 77.4004 576.606 78.0332C575.821 78.666 574.702 78.9883 573.249 79H568.274ZM570.911 73.4277V76.8818H573.17C573.791 76.8818 574.274 76.7354 574.62 76.4424C574.972 76.1436 575.147 75.7334 575.147 75.2119C575.147 74.04 574.541 73.4453 573.328 73.4277H570.911ZM570.911 71.5645H572.862C574.192 71.541 574.857 71.0107 574.857 69.9736C574.857 69.3936 574.688 68.9775 574.348 68.7256C574.014 68.4678 573.483 68.3389 572.757 68.3389H570.911V71.5645ZM585.299 78.0332C584.672 78.7949 583.805 79.1758 582.697 79.1758C581.678 79.1758 580.898 78.8828 580.359 78.2969C579.826 77.7109 579.554 76.8525 579.542 75.7217V69.4902H582.082V75.6338C582.082 76.624 582.533 77.1191 583.436 77.1191C584.297 77.1191 584.889 76.8203 585.211 76.2227V69.4902H587.76V79H585.369L585.299 78.0332ZM592.717 67.1523V69.4902H594.343V71.3535H592.717V76.0996C592.717 76.4512 592.784 76.7031 592.919 76.8555C593.054 77.0078 593.312 77.084 593.692 77.084C593.974 77.084 594.223 77.0635 594.439 77.0225V78.9473C593.941 79.0996 593.429 79.1758 592.901 79.1758C591.12 79.1758 590.212 78.2764 590.177 76.4775V71.3535H588.788V69.4902H590.177V67.1523H592.717ZM598.799 67.1523V69.4902H600.425V71.3535H598.799V76.0996C598.799 76.4512 598.866 76.7031 599.001 76.8555C599.136 77.0078 599.394 77.084 599.774 77.084C600.056 77.084 600.305 77.0635 600.521 77.0225V78.9473C600.023 79.0996 599.511 79.1758 598.983 79.1758C597.202 79.1758 596.294 78.2764 596.259 76.4775V71.3535H594.87V69.4902H596.259V67.1523H598.799ZM601.181 74.1572C601.181 73.2139 601.362 72.373 601.726 71.6348C602.089 70.8965 602.61 70.3252 603.29 69.9209C603.976 69.5166 604.77 69.3145 605.672 69.3145C606.955 69.3145 608.001 69.707 608.81 70.4922C609.624 71.2773 610.078 72.3438 610.172 73.6914L610.189 74.3418C610.189 75.8008 609.782 76.9727 608.968 77.8574C608.153 78.7363 607.061 79.1758 605.689 79.1758C604.318 79.1758 603.223 78.7363 602.402 77.8574C601.588 76.9785 601.181 75.7832 601.181 74.2715V74.1572ZM603.721 74.3418C603.721 75.2441 603.891 75.9355 604.23 76.416C604.57 76.8906 605.057 77.1279 605.689 77.1279C606.305 77.1279 606.785 76.8936 607.131 76.4248C607.477 75.9502 607.649 75.1943 607.649 74.1572C607.649 73.2725 607.477 72.5869 607.131 72.1006C606.785 71.6143 606.299 71.3711 605.672 71.3711C605.051 71.3711 604.57 71.6143 604.23 72.1006C603.891 72.5811 603.721 73.3281 603.721 74.3418ZM614.092 69.4902L614.171 70.5889C614.851 69.7393 615.762 69.3145 616.904 69.3145C617.912 69.3145 618.662 69.6104 619.154 70.2021C619.646 70.7939 619.898 71.6787 619.91 72.8564V79H617.37V72.918C617.37 72.3789 617.253 71.9893 617.019 71.749C616.784 71.5029 616.395 71.3799 615.85 71.3799C615.135 71.3799 614.599 71.6846 614.241 72.2939V79H611.701V69.4902H614.092Z" fill="black"/>
</svg>
